<!-- Generator: Adobe Illustrator 22.1.0, SVG Export Plug-In  -->
<svg version="1.1"
	 xmlns="http://www.w3.org/2000/svg" xmlns:xlink="http://www.w3.org/1999/xlink" xmlns:a="http://ns.adobe.com/AdobeSVGViewerExtensions/3.0/"
	 x="0px" y="0px" width="903.8px" height="47.3px" viewBox="0 0 903.8 47.3" style="enable-background:new 0 0 903.8 47.3;"
	 xml:space="preserve">
<style type="text/css">
	.st0{fill:#266093;}
	.st1{fill:#532D6D;}
</style>
<defs>
</defs>
<g id="XMLID_1_">
	<g id="XMLID_3_">
		<path id="XMLID_374_" class="st0" d="M12.2,11.5c0,0.7-0.1,1.4-0.4,2c-0.2,0.6-0.6,1.1-1.1,1.6c-0.5,0.4-1.1,0.8-1.9,1
			c-0.8,0.2-1.7,0.4-2.8,0.4c-1.3,0-2.5-0.3-3.6-0.8c-1.1-0.5-1.9-1.2-2.5-2.1l2.3-2c0.5,0.6,1.2,1.1,1.8,1.4
			c0.7,0.3,1.4,0.4,2.2,0.4c0.9,0,1.6-0.1,2.1-0.4C8.7,12.8,9,12.3,9,11.7c0-0.3,0-0.5-0.1-0.7c-0.1-0.2-0.3-0.4-0.5-0.5
			c-0.2-0.2-0.6-0.3-1.1-0.5C6.8,10,6.2,9.8,5.5,9.6c-0.7-0.2-1.4-0.4-2-0.6C2.9,8.8,2.4,8.5,2,8.2S1.2,7.4,1,6.9
			C0.7,6.4,0.6,5.7,0.6,5c0-0.7,0.1-1.4,0.4-1.9c0.3-0.6,0.7-1,1.2-1.4C2.7,1.2,3.3,0.9,4,0.7c0.7-0.2,1.4-0.3,2.2-0.3
			c1.2,0,2.3,0.2,3.2,0.6c0.9,0.4,1.7,1,2.5,1.8L9.6,5C9.1,4.5,8.6,4.1,8,3.8C7.4,3.6,6.8,3.4,6.1,3.4c-0.4,0-0.8,0-1,0.1
			C4.7,3.6,4.5,3.7,4.3,3.9C4.1,4,4,4.2,3.9,4.3C3.9,4.5,3.8,4.7,3.8,4.8c0,0.3,0,0.5,0.1,0.6c0.1,0.2,0.3,0.3,0.5,0.5
			s0.6,0.3,1,0.4C5.8,6.4,6.4,6.6,7,6.7C7.6,6.9,8.2,7,8.8,7.2s1.2,0.5,1.7,0.8s0.9,0.8,1.2,1.4C12,10,12.2,10.7,12.2,11.5z"/>
		<path id="XMLID_372_" class="st0" d="M21.5,15.8c-0.3,0.2-0.6,0.4-1,0.5s-0.9,0.2-1.4,0.2s-0.9-0.1-1.3-0.3
			c-0.4-0.2-0.7-0.4-1-0.7c-0.3-0.3-0.5-0.7-0.6-1.1S16,13.5,16,13V7.4h-2V4.5h2v-3L19.1,0v4.5h2.8v2.9h-2.8v4.7
			c0,0.6,0.1,0.9,0.3,1.1c0.2,0.2,0.5,0.3,0.8,0.3c0.3,0,0.5-0.1,0.8-0.2s0.6-0.4,0.9-0.7L21.5,15.8z"/>
		<path id="XMLID_370_" class="st0" d="M31.8,16.3v-0.8c-0.3,0.3-0.6,0.5-1.1,0.7s-1,0.3-1.6,0.3c-1.5,0-2.6-0.5-3.3-1.4
			c-0.7-1-1-2.3-1-3.9V4.5h3.1v6.3c0,0.5,0,1,0.1,1.3c0.1,0.3,0.2,0.6,0.4,0.8c0.2,0.2,0.4,0.4,0.6,0.4c0.3,0.1,0.5,0.1,0.8,0.1
			c0.6,0,1.1-0.2,1.5-0.6s0.5-1.1,0.5-2.1V4.5h3.1v11.7H31.8z"/>
		<path id="XMLID_367_" class="st0" d="M44.3,16.3v-0.7c-0.3,0.3-0.6,0.5-1,0.7c-0.4,0.2-0.9,0.3-1.4,0.3c-0.6,0-1.2-0.1-1.8-0.4
			c-0.5-0.2-1-0.6-1.4-1.1s-0.7-1.2-1-1.9c-0.2-0.8-0.4-1.7-0.4-2.8c0-0.9,0.1-1.7,0.3-2.4C37.8,7.1,38,6.5,38.4,6
			c0.4-0.5,0.9-0.9,1.4-1.2c0.6-0.3,1.2-0.4,1.9-0.4c0.5,0,1,0.1,1.4,0.3C43.6,4.7,44,5,44.3,5.2V1.5L47.3,0v16.3H44.3z M44.3,8.2
			c-0.5-0.7-1.2-1-2.1-1c-1.2,0-1.8,1-1.8,3c0,1.2,0.2,2.1,0.5,2.6c0.4,0.5,0.9,0.8,1.5,0.8c0.5,0,0.9-0.1,1.1-0.3
			c0.3-0.2,0.5-0.4,0.8-0.7V8.2z"/>
		<path id="XMLID_365_" class="st0" d="M55.5,20.4h-3l1.6-4.1L49.4,4.5h3.4l1.9,5.6c0.2,0.4,0.3,0.9,0.4,1.4
			c0.1,0.5,0.2,0.9,0.3,1.2c0.1-0.3,0.2-0.7,0.3-1.2c0.1-0.5,0.3-0.9,0.4-1.4l1.9-5.6h3.3L55.5,20.4z"/>
		<path id="XMLID_362_" class="st0" d="M76.4,16.3v-0.7c-0.3,0.3-0.6,0.5-1,0.7c-0.4,0.2-0.9,0.3-1.4,0.3c-0.6,0-1.2-0.1-1.8-0.4
			c-0.5-0.2-1-0.6-1.4-1.1s-0.7-1.2-1-1.9c-0.2-0.8-0.4-1.7-0.4-2.8c0-0.9,0.1-1.7,0.3-2.4c0.2-0.7,0.5-1.4,0.9-1.9
			C71,5.4,71.4,5,72,4.7c0.6-0.3,1.2-0.4,1.9-0.4c0.5,0,1,0.1,1.4,0.3c0.4,0.2,0.8,0.4,1.1,0.6V1.5L79.5,0v16.3H76.4z M76.4,8.2
			c-0.5-0.7-1.2-1-2.1-1c-1.2,0-1.8,1-1.8,3c0,1.2,0.2,2.1,0.5,2.6c0.4,0.5,0.9,0.8,1.5,0.8c0.5,0,0.9-0.1,1.1-0.3
			c0.3-0.2,0.5-0.4,0.8-0.7V8.2z"/>
		<path id="XMLID_359_" class="st0" d="M92.1,10.4c0,0.2,0,0.4,0,0.6c0,0.2,0,0.3,0,0.4h-7c0,0.4,0.1,0.7,0.3,1s0.3,0.5,0.6,0.7
			c0.2,0.2,0.5,0.3,0.7,0.4c0.3,0.1,0.6,0.1,0.8,0.1c0.4,0,0.8-0.1,1.2-0.2s0.6-0.3,0.8-0.6l2.2,1.8c-0.5,0.6-1.1,1.1-1.9,1.4
			c-0.8,0.3-1.5,0.5-2.3,0.5c-0.8,0-1.6-0.1-2.3-0.4c-0.7-0.3-1.2-0.7-1.7-1.2c-0.5-0.5-0.8-1.2-1.1-1.9s-0.4-1.6-0.4-2.5
			c0-0.9,0.1-1.7,0.4-2.5S83,6.6,83.4,6s1-1,1.6-1.3c0.6-0.3,1.3-0.4,2.1-0.4c0.8,0,1.5,0.2,2.1,0.5c0.6,0.3,1.1,0.8,1.5,1.3
			c0.4,0.6,0.7,1.2,1,2C92,8.8,92.1,9.6,92.1,10.4z M89.1,9.1c0-0.3-0.1-0.5-0.2-0.8c-0.1-0.2-0.2-0.5-0.4-0.7s-0.4-0.4-0.6-0.5
			C87.6,7,87.3,7,87,7c-0.6,0-1,0.2-1.3,0.6C85.3,8,85.1,8.5,85,9.1H89.1z"/>
		<path id="XMLID_357_" class="st0" d="M103.8,12.8c0,0.7-0.1,1.2-0.4,1.7c-0.3,0.5-0.6,0.8-1,1.1c-0.4,0.3-0.9,0.5-1.5,0.6
			s-1.2,0.2-1.9,0.2c-0.9,0-1.8-0.1-2.7-0.4c-0.9-0.2-1.6-0.6-2.2-1l1-2.3c0.6,0.3,1.3,0.6,1.9,0.8c0.7,0.2,1.4,0.3,2.1,0.3
			c0.6,0,1-0.1,1.2-0.2c0.2-0.1,0.3-0.4,0.3-0.7c0-0.3-0.1-0.5-0.4-0.6S99.7,12,99,11.8c-0.7-0.2-1.3-0.4-1.9-0.6
			c-0.6-0.2-1.1-0.5-1.5-0.8c-0.4-0.3-0.7-0.6-0.9-1.1c-0.2-0.4-0.3-0.9-0.3-1.6c0-0.6,0.1-1.1,0.3-1.6s0.6-0.8,1-1.1
			s0.9-0.5,1.5-0.6c0.6-0.1,1.2-0.2,1.9-0.2c0.7,0,1.5,0.1,2.3,0.3s1.4,0.5,2.1,0.8l-1,2.4c-0.6-0.3-1.2-0.5-1.8-0.7
			C100.1,7,99.5,6.9,99,6.9c-0.6,0-1,0.1-1.3,0.2s-0.3,0.3-0.3,0.6c0,0.1,0,0.2,0.1,0.3c0.1,0.1,0.2,0.2,0.3,0.3
			c0.2,0.1,0.4,0.2,0.7,0.3c0.3,0.1,0.7,0.3,1.3,0.4c0.5,0.2,1,0.4,1.5,0.6c0.5,0.2,0.9,0.4,1.2,0.7c0.4,0.3,0.6,0.6,0.8,1
			C103.7,11.8,103.8,12.3,103.8,12.8z"/>
		<path id="XMLID_354_" class="st0" d="M109.9,1.8c0,0.5-0.2,0.9-0.5,1.2s-0.8,0.5-1.2,0.5s-0.9-0.2-1.2-0.5s-0.5-0.8-0.5-1.2
			s0.2-0.9,0.5-1.2c0.3-0.3,0.8-0.5,1.2-0.5s0.9,0.2,1.2,0.5C109.7,0.9,109.9,1.4,109.9,1.8z M106.6,16.3V4.5h3.1v11.7H106.6z"/>
		<path id="XMLID_351_" class="st0" d="M122.3,14.3c0,1-0.1,1.8-0.2,2.6c-0.1,0.7-0.4,1.4-0.8,1.9c-0.4,0.5-0.9,0.9-1.5,1.2
			c-0.7,0.3-1.5,0.5-2.5,0.6l-1.1-2.3c0.6-0.1,1.1-0.2,1.5-0.3c0.4-0.1,0.7-0.3,0.9-0.5c0.2-0.2,0.4-0.5,0.5-0.8
			c0.1-0.3,0.1-0.7,0.1-1.1c-0.3,0.3-0.6,0.5-1,0.7c-0.4,0.2-0.9,0.3-1.4,0.3c-0.6,0-1.2-0.1-1.8-0.4c-0.5-0.2-1-0.6-1.4-1.1
			s-0.7-1.2-1-1.9c-0.2-0.8-0.4-1.7-0.4-2.8c0-0.9,0.1-1.7,0.3-2.4c0.2-0.7,0.5-1.4,0.9-1.9c0.4-0.5,0.9-0.9,1.4-1.2
			c0.6-0.3,1.2-0.4,1.9-0.4c0.5,0,1,0.1,1.4,0.3c0.4,0.2,0.8,0.4,1.1,0.6V4.5h3.1V14.3z M119.2,8.2c-0.5-0.7-1.2-1-2.1-1
			c-1.2,0-1.8,1-1.8,3c0,1.2,0.2,2.1,0.5,2.6c0.4,0.5,0.9,0.8,1.5,0.8c0.5,0,0.9-0.1,1.1-0.3c0.3-0.2,0.5-0.4,0.8-0.7V8.2z"/>
		<path id="XMLID_349_" class="st0" d="M132.4,16.3V9.9c0-1-0.2-1.8-0.5-2.1c-0.3-0.4-0.8-0.6-1.5-0.6c-0.6,0-1.1,0.2-1.5,0.6
			c-0.3,0.4-0.5,1.1-0.5,2.1v6.4h-3.1V4.5h3.1v0.8c0.3-0.3,0.6-0.5,1.1-0.7s1-0.3,1.6-0.3c1.5,0,2.6,0.5,3.3,1.4c0.7,1,1,2.3,1,3.9
			v6.6H132.4z"/>
		<path id="XMLID_346_" class="st0" d="M148.4,6.4c0,0.3-0.1,0.5-0.2,0.8c-0.1,0.3-0.3,0.5-0.5,0.7c-0.2,0.2-0.4,0.3-0.7,0.5
			c-0.3,0.1-0.5,0.2-0.8,0.2c-0.3,0-0.5-0.1-0.8-0.2c-0.3-0.1-0.5-0.3-0.7-0.5c-0.2-0.2-0.3-0.4-0.5-0.7c-0.1-0.3-0.2-0.5-0.2-0.8
			s0.1-0.5,0.2-0.8c0.1-0.3,0.3-0.5,0.5-0.7c0.2-0.2,0.4-0.3,0.7-0.5c0.3-0.1,0.5-0.2,0.8-0.2c0.3,0,0.5,0.1,0.8,0.2
			c0.3,0.1,0.5,0.3,0.7,0.5c0.2,0.2,0.3,0.4,0.5,0.7C148.4,5.8,148.4,6.1,148.4,6.4z M148.4,14.4c0,0.3-0.1,0.5-0.2,0.8
			c-0.1,0.3-0.3,0.5-0.5,0.7c-0.2,0.2-0.4,0.3-0.7,0.5c-0.3,0.1-0.5,0.2-0.8,0.2c-0.3,0-0.5-0.1-0.8-0.2c-0.3-0.1-0.5-0.3-0.7-0.5
			c-0.2-0.2-0.3-0.4-0.5-0.7c-0.1-0.3-0.2-0.5-0.2-0.8s0.1-0.5,0.2-0.8c0.1-0.3,0.3-0.5,0.5-0.7c0.2-0.2,0.4-0.3,0.7-0.5
			c0.3-0.1,0.5-0.2,0.8-0.2c0.3,0,0.5,0.1,0.8,0.2c0.3,0.1,0.5,0.3,0.7,0.5c0.2,0.2,0.3,0.4,0.5,0.7
			C148.4,13.9,148.4,14.1,148.4,14.4z"/>
		<path id="XMLID_344_" class="st1" d="M165.4,16.3V3.8h-2.8V2.7c0.9-0.1,1.6-0.2,2.2-0.5c0.6-0.3,0.9-0.8,1.1-1.5h1.3v15.6H165.4z"
			/>
		<path id="XMLID_341_" class="st1" d="M181.9,11.4c0,0.8-0.1,1.6-0.4,2.2c-0.3,0.6-0.7,1.2-1.2,1.6c-0.5,0.4-1.1,0.7-1.8,1
			s-1.5,0.3-2.3,0.3c-0.8,0-1.5-0.1-2.2-0.3c-0.7-0.2-1.3-0.6-1.8-1.1s-0.9-1.1-1.2-1.9c-0.3-0.8-0.4-1.7-0.4-2.8
			c0-0.7,0.1-1.4,0.2-2.1c0.1-0.7,0.3-1.5,0.6-2.2c0.3-0.7,0.7-1.4,1.1-2.1c0.5-0.6,1-1.2,1.7-1.7c0.7-0.5,1.4-0.9,2.3-1.3
			s1.9-0.5,3-0.6v1.5c-2.1,0.2-3.7,0.8-4.9,1.9c-1.2,1.1-2,2.6-2.4,4.6c0.5-0.5,1.1-1,1.8-1.3c0.7-0.3,1.6-0.5,2.7-0.5
			c0.7,0,1.4,0.1,2,0.3c0.6,0.2,1.2,0.5,1.6,0.9c0.5,0.4,0.8,0.9,1.1,1.5C181.8,9.9,181.9,10.6,181.9,11.4z M180.2,11.5
			c0-1.1-0.3-1.9-1-2.4s-1.6-0.9-2.9-0.9c-1.3,0-2.2,0.3-3,0.9c-0.7,0.6-1.1,1.4-1.1,2.4c0,0.5,0.1,0.9,0.3,1.4
			c0.2,0.4,0.5,0.8,0.8,1.1s0.8,0.5,1.3,0.7s1,0.3,1.6,0.3c1.3,0,2.3-0.3,3-0.9C179.9,13.3,180.2,12.5,180.2,11.5z"/>
		<path id="XMLID_339_" class="st1" d="M203.4,16.3h-2l-2.5-10c-0.1-0.3-0.1-0.5-0.2-0.8c-0.1-0.3-0.1-0.6-0.2-0.9s-0.1-0.6-0.2-0.9
			c-0.1-0.3-0.1-0.6-0.2-0.8c0,0.2-0.1,0.5-0.2,0.8c-0.1,0.3-0.1,0.6-0.2,0.9s-0.1,0.6-0.2,0.9c-0.1,0.3-0.1,0.6-0.2,0.9l-2.5,10
			h-1.9L190,0.6h1.7l1.8,10c0,0.3,0.1,0.5,0.1,0.9c0.1,0.3,0.1,0.7,0.2,1c0.1,0.3,0.1,0.6,0.2,0.9c0.1,0.3,0.1,0.5,0.1,0.7
			c0-0.2,0.1-0.4,0.1-0.7c0.1-0.3,0.1-0.6,0.2-0.9c0.1-0.3,0.1-0.6,0.2-1c0.1-0.3,0.1-0.6,0.2-0.9l2.5-10.1h1.9l2.5,10.1
			c0.1,0.3,0.1,0.5,0.2,0.9c0.1,0.3,0.1,0.6,0.2,1c0.1,0.3,0.1,0.6,0.2,0.9s0.1,0.5,0.1,0.7c0-0.2,0.1-0.4,0.1-0.7
			c0.1-0.3,0.1-0.6,0.2-0.9c0.1-0.3,0.1-0.6,0.2-1c0.1-0.3,0.1-0.6,0.1-0.9l1.8-10h1.7L203.4,16.3z"/>
		<path id="XMLID_336_" class="st1" d="M218.5,10.1c0,0.2,0,0.4,0,0.5s0,0.3-0.1,0.4h-7.8c0.1,1.3,0.4,2.3,1,3
			c0.6,0.7,1.3,1.1,2.3,1.1c0.7,0,1.3-0.1,1.7-0.3c0.5-0.2,1-0.5,1.5-0.8l0.8,1.2c-0.4,0.2-0.7,0.4-1,0.6c-0.3,0.2-0.6,0.3-1,0.4
			c-0.3,0.1-0.7,0.2-1,0.3c-0.4,0.1-0.8,0.1-1.2,0.1c-0.5,0-1.1-0.1-1.6-0.3c-0.6-0.2-1.1-0.6-1.5-1c-0.5-0.5-0.8-1.1-1.1-1.9
			s-0.5-1.8-0.5-2.9c0-0.9,0.1-1.8,0.4-2.5s0.6-1.4,1-1.9c0.4-0.5,0.9-0.9,1.5-1.2c0.6-0.3,1.2-0.4,1.9-0.4c0.8,0,1.4,0.1,2,0.4
			c0.6,0.3,1.1,0.7,1.5,1.2c0.4,0.5,0.7,1.1,0.9,1.8C218.4,8.5,218.5,9.2,218.5,10.1z M217,9.6c-0.1-1.2-0.4-2.1-0.9-2.8
			c-0.5-0.7-1.3-1.1-2.3-1.1c-0.9,0-1.6,0.3-2.1,1s-0.9,1.6-1,2.9H217z"/>
		<path id="XMLID_333_" class="st1" d="M230.6,10.1c0,0.2,0,0.4,0,0.5s0,0.3-0.1,0.4h-7.8c0.1,1.3,0.4,2.3,1,3
			c0.6,0.7,1.3,1.1,2.3,1.1c0.7,0,1.3-0.1,1.7-0.3c0.5-0.2,1-0.5,1.5-0.8l0.8,1.2c-0.4,0.2-0.7,0.4-1,0.6c-0.3,0.2-0.6,0.3-1,0.4
			c-0.3,0.1-0.7,0.2-1,0.3c-0.4,0.1-0.8,0.1-1.2,0.1c-0.5,0-1.1-0.1-1.6-0.3c-0.6-0.2-1.1-0.6-1.5-1c-0.5-0.5-0.8-1.1-1.1-1.9
			s-0.5-1.8-0.5-2.9c0-0.9,0.1-1.8,0.4-2.5s0.6-1.4,1-1.9c0.4-0.5,0.9-0.9,1.5-1.2c0.6-0.3,1.2-0.4,1.9-0.4c0.8,0,1.4,0.1,2,0.4
			c0.6,0.3,1.1,0.7,1.5,1.2c0.4,0.5,0.7,1.1,0.9,1.8C230.5,8.5,230.6,9.2,230.6,10.1z M229,9.6c-0.1-1.2-0.4-2.1-0.9-2.8
			c-0.5-0.7-1.3-1.1-2.3-1.1c-0.9,0-1.6,0.3-2.1,1s-0.9,1.6-1,2.9H229z"/>
		<path id="XMLID_331_" class="st1" d="M240.4,16.3l-3-6.2l-2,2.8v3.4h-1.7V0.9l1.7-0.9v10.1v0.6l0.5-0.7l3.8-5.4h1.9l-3.1,4.1
			l3.7,7.6H240.4z"/>
		<path id="XMLID_329_" class="st1" d="M252.2,13.2c0,0.6-0.1,1.1-0.3,1.5c-0.2,0.4-0.5,0.8-0.9,1s-0.8,0.5-1.3,0.6s-1,0.2-1.5,0.2
			c-0.8,0-1.5-0.1-2.2-0.4c-0.7-0.3-1.3-0.6-1.9-1.1l1-1.2c0.5,0.4,1,0.7,1.5,1c0.5,0.2,1.1,0.3,1.7,0.3c0.8,0,1.4-0.2,1.8-0.5
			c0.4-0.3,0.6-0.8,0.6-1.3c0-0.2,0-0.5-0.1-0.6c-0.1-0.2-0.3-0.4-0.5-0.6c-0.2-0.2-0.5-0.4-0.8-0.6c-0.3-0.2-0.8-0.4-1.3-0.6
			c-0.6-0.3-1.1-0.5-1.5-0.7s-0.8-0.5-1-0.7s-0.5-0.6-0.6-0.9c-0.1-0.3-0.2-0.7-0.2-1.2c0-0.4,0.1-0.9,0.3-1.2
			c0.2-0.4,0.4-0.7,0.8-0.9c0.3-0.3,0.7-0.5,1.1-0.6c0.4-0.1,0.9-0.2,1.5-0.2c0.8,0,1.5,0.1,2.1,0.3c0.6,0.2,1.2,0.5,1.6,0.9
			L251,6.8c-0.5-0.4-0.9-0.6-1.3-0.8c-0.4-0.2-1-0.3-1.6-0.3s-1.1,0.1-1.4,0.4c-0.3,0.3-0.5,0.6-0.5,1c0,0.3,0,0.5,0.1,0.6
			s0.2,0.4,0.4,0.5s0.5,0.3,0.8,0.5c0.3,0.2,0.7,0.4,1.2,0.6c0.5,0.3,1,0.5,1.5,0.7c0.4,0.2,0.8,0.5,1.1,0.7s0.5,0.6,0.7,1
			C252.2,12.2,252.2,12.7,252.2,13.2z"/>
		<path id="XMLID_327_" class="st1" d="M273.2,16.3V5.7V4c0,0.1-0.1,0.3-0.2,0.5c-0.1,0.2-0.1,0.4-0.2,0.7c-0.1,0.2-0.2,0.5-0.3,0.7
			c-0.1,0.2-0.2,0.5-0.3,0.7l-4.2,10.1L264,6.6c-0.1-0.2-0.2-0.4-0.3-0.7c-0.1-0.2-0.2-0.5-0.3-0.7c-0.1-0.2-0.2-0.5-0.2-0.7
			c-0.1-0.2-0.1-0.4-0.2-0.5v1.7v10.6h-1.7V0.6h1.9L267,10c0.1,0.2,0.2,0.5,0.3,0.8c0.1,0.3,0.2,0.6,0.3,0.8s0.2,0.5,0.3,0.8
			c0.1,0.2,0.2,0.4,0.2,0.6c0-0.2,0.1-0.4,0.2-0.6c0.1-0.3,0.2-0.5,0.3-0.8c0.1-0.3,0.2-0.6,0.3-0.8c0.1-0.3,0.2-0.5,0.3-0.8
			l3.7-9.3h1.9v15.6H273.2z"/>
		<path id="XMLID_325_" class="st1" d="M286,16.3v-1.4c-0.3,0.5-0.8,0.9-1.3,1.2c-0.5,0.3-1.2,0.5-1.9,0.5c-0.6,0-1.2-0.1-1.7-0.3
			c-0.5-0.2-0.9-0.5-1.3-0.9c-0.4-0.4-0.6-0.9-0.8-1.5c-0.2-0.6-0.3-1.3-0.3-2.2V4.5h1.7v6.9c0,1.3,0.2,2.2,0.7,2.8
			c0.5,0.6,1.1,0.9,2.1,0.9c0.8,0,1.5-0.3,2.1-0.9s0.8-1.5,0.8-2.8V4.5h1.7v11.7H286z"/>
		<path id="XMLID_323_" class="st1" d="M291.5,16.3V0.9l1.7-0.9v16.3H291.5z"/>
		<path id="XMLID_321_" class="st1" d="M299.2,6v7.6c0,0.5,0.1,0.9,0.3,1.1c0.2,0.2,0.5,0.3,0.9,0.3c0.3,0,0.6,0,0.9-0.1
			c0.2-0.1,0.5-0.1,0.8-0.3l-0.1,1.4c-0.3,0.1-0.7,0.2-1,0.3s-0.7,0.1-1.2,0.1c-0.7,0-1.3-0.2-1.7-0.6c-0.4-0.4-0.6-1.1-0.6-2.1V6
			H296V4.5h1.4V0.9l1.7-0.9v4.5h2.9V6H299.2z"/>
		<path id="XMLID_318_" class="st1" d="M307.4,1.3c0,0.3-0.1,0.6-0.3,0.8s-0.5,0.3-0.8,0.3c-0.3,0-0.6-0.1-0.9-0.3
			c-0.2-0.2-0.4-0.5-0.4-0.8c0-0.3,0.1-0.6,0.4-0.9c0.2-0.2,0.5-0.3,0.9-0.3c0.3,0,0.6,0.1,0.8,0.3S307.4,0.9,307.4,1.3z
			 M305.4,16.3V4.5h1.7v11.7H305.4z"/>
		<path id="XMLID_316_" class="st1" d="M318,6.9c-0.4-0.4-0.9-0.7-1.3-0.9c-0.4-0.2-0.9-0.3-1.5-0.3c-0.5,0-0.9,0.1-1.3,0.3
			c-0.4,0.2-0.7,0.5-1,0.9c-0.3,0.4-0.5,0.9-0.7,1.4c-0.2,0.6-0.2,1.2-0.2,1.9c0,1.4,0.3,2.6,0.9,3.5s1.4,1.3,2.4,1.3
			c0.6,0,1.1-0.1,1.5-0.3c0.4-0.2,0.8-0.5,1.2-0.9l1,1.1c-0.5,0.5-1,0.9-1.6,1.2c-0.6,0.3-1.3,0.4-2.1,0.4c-0.6,0-1.3-0.1-1.9-0.4
			s-1.1-0.6-1.6-1.1c-0.5-0.5-0.8-1.1-1.1-1.9c-0.3-0.8-0.4-1.6-0.4-2.7c0-1.1,0.1-2,0.4-2.8c0.3-0.8,0.7-1.4,1.2-1.9s1-0.9,1.6-1.1
			s1.2-0.4,1.8-0.4c0.8,0,1.5,0.1,2.1,0.4c0.6,0.3,1.1,0.6,1.6,1L318,6.9z"/>
		<path id="XMLID_313_" class="st1" d="M330.8,10.1c0,0.2,0,0.4,0,0.5s0,0.3-0.1,0.4H323c0.1,1.3,0.4,2.3,1,3
			c0.6,0.7,1.3,1.1,2.3,1.1c0.7,0,1.3-0.1,1.7-0.3c0.5-0.2,1-0.5,1.5-0.8l0.8,1.2c-0.4,0.2-0.7,0.4-1,0.6c-0.3,0.2-0.6,0.3-1,0.4
			c-0.3,0.1-0.7,0.2-1,0.3c-0.4,0.1-0.8,0.1-1.2,0.1c-0.5,0-1.1-0.1-1.6-0.3c-0.6-0.2-1.1-0.6-1.5-1c-0.5-0.5-0.8-1.1-1.1-1.9
			s-0.5-1.8-0.5-2.9c0-0.9,0.1-1.8,0.4-2.5s0.6-1.4,1-1.9c0.4-0.5,0.9-0.9,1.5-1.2c0.6-0.3,1.2-0.4,1.9-0.4c0.8,0,1.4,0.1,2,0.4
			c0.6,0.3,1.1,0.7,1.5,1.2c0.4,0.5,0.7,1.1,0.9,1.8C330.7,8.5,330.8,9.2,330.8,10.1z M329.3,9.6c-0.1-1.2-0.4-2.1-0.9-2.8
			c-0.5-0.7-1.3-1.1-2.3-1.1c-0.9,0-1.6,0.3-2.1,1s-0.9,1.6-1,2.9H329.3z"/>
		<path id="XMLID_311_" class="st1" d="M341.3,16.3V9.4c0-1.3-0.2-2.2-0.7-2.8s-1.1-0.9-2.1-0.9c-0.8,0-1.5,0.3-2.1,0.9
			s-0.8,1.5-0.8,2.8v6.9H334V4.5h1.7l0,1.4c0.3-0.5,0.8-0.9,1.3-1.2c0.5-0.3,1.2-0.5,1.9-0.5c0.6,0,1.2,0.1,1.7,0.3
			c0.5,0.2,0.9,0.5,1.3,0.9c0.4,0.4,0.6,0.9,0.8,1.5c0.2,0.6,0.3,1.3,0.3,2.2v7.1H341.3z"/>
		<path id="XMLID_309_" class="st1" d="M348.8,6v7.6c0,0.5,0.1,0.9,0.3,1.1c0.2,0.2,0.5,0.3,0.9,0.3c0.3,0,0.6,0,0.9-0.1
			c0.2-0.1,0.5-0.1,0.8-0.3l-0.1,1.4c-0.3,0.1-0.7,0.2-1,0.3s-0.7,0.1-1.2,0.1c-0.7,0-1.3-0.2-1.7-0.6c-0.4-0.4-0.6-1.1-0.6-2.1V6
			h-1.4V4.5h1.4V0.9l1.7-0.9v4.5h2.9V6H348.8z"/>
		<path id="XMLID_306_" class="st1" d="M363.8,10.1c0,0.2,0,0.4,0,0.5s0,0.3-0.1,0.4H356c0.1,1.3,0.4,2.3,1,3
			c0.6,0.7,1.3,1.1,2.3,1.1c0.7,0,1.3-0.1,1.7-0.3c0.5-0.2,1-0.5,1.5-0.8l0.8,1.2c-0.4,0.2-0.7,0.4-1,0.6c-0.3,0.2-0.6,0.3-1,0.4
			c-0.3,0.1-0.7,0.2-1,0.3c-0.4,0.1-0.8,0.1-1.2,0.1c-0.5,0-1.1-0.1-1.6-0.3c-0.6-0.2-1.1-0.6-1.5-1c-0.5-0.5-0.8-1.1-1.1-1.9
			s-0.5-1.8-0.5-2.9c0-0.9,0.1-1.8,0.4-2.5s0.6-1.4,1-1.9c0.4-0.5,0.9-0.9,1.5-1.2c0.6-0.3,1.2-0.4,1.9-0.4c0.8,0,1.4,0.1,2,0.4
			c0.6,0.3,1.1,0.7,1.5,1.2c0.4,0.5,0.7,1.1,0.9,1.8C363.7,8.5,363.8,9.2,363.8,10.1z M362.2,9.6c-0.1-1.2-0.4-2.1-0.9-2.8
			c-0.5-0.7-1.3-1.1-2.3-1.1c-0.9,0-1.6,0.3-2.1,1s-0.9,1.6-1,2.9H362.2z"/>
		<path id="XMLID_304_" class="st1" d="M372.9,6.3c-0.2-0.1-0.5-0.2-0.8-0.3s-0.6-0.1-1-0.1c-0.8,0-1.4,0.3-1.9,0.9
			c-0.4,0.6-0.7,1.5-0.7,2.6v6.9h-1.7V4.5h1.7V6c0.3-0.5,0.7-0.9,1.2-1.2c0.5-0.3,1.1-0.5,1.7-0.5c0.4,0,0.8,0,1.1,0.1
			c0.3,0.1,0.5,0.1,0.7,0.2L372.9,6.3z"/>
		<path id="XMLID_301_" class="st1" d="M388.9,16.3v-1.4c-0.4,0.4-0.9,0.8-1.5,1.2c-0.6,0.3-1.2,0.5-2.1,0.5c-0.6,0-1.1-0.1-1.6-0.3
			c-0.5-0.2-1-0.6-1.3-1.1s-0.7-1.1-0.9-1.8c-0.2-0.8-0.3-1.6-0.3-2.7c0-1,0.1-2,0.3-2.7c0.2-0.8,0.5-1.4,0.9-2s0.9-0.9,1.4-1.2
			s1.1-0.4,1.7-0.4c0.7,0,1.4,0.1,1.9,0.4c0.5,0.3,1,0.7,1.4,1.1V0.9l1.7-0.9v16.3H388.9z M388.9,7.5c-0.3-0.5-0.8-0.9-1.3-1.3
			c-0.5-0.3-1.2-0.5-1.9-0.5c-1,0-1.7,0.4-2.2,1.2s-0.7,2-0.7,3.6c0,1.5,0.3,2.6,0.8,3.4c0.5,0.8,1.2,1.1,2.2,1.1
			c0.6,0,1.2-0.2,1.7-0.5s1-0.7,1.4-1.2V7.5z"/>
		<path id="XMLID_298_" class="st1" d="M403.8,10.3c0,1-0.1,1.9-0.4,2.6c-0.3,0.8-0.6,1.4-1.1,1.9c-0.5,0.5-1,0.9-1.6,1.2
			c-0.6,0.3-1.3,0.4-2,0.4c-0.7,0-1.4-0.1-2-0.4s-1.2-0.6-1.6-1.2c-0.4-0.5-0.8-1.1-1.1-1.9c-0.3-0.8-0.4-1.6-0.4-2.6
			s0.1-1.9,0.4-2.6c0.3-0.8,0.6-1.4,1.1-1.9s1-0.9,1.6-1.2s1.3-0.4,2-0.4s1.4,0.1,2,0.4c0.6,0.3,1.2,0.6,1.6,1.1
			c0.4,0.5,0.8,1.1,1.1,1.9C403.7,8.5,403.8,9.3,403.8,10.3z M402.1,10.4c0-1.6-0.3-2.7-0.9-3.5c-0.6-0.8-1.4-1.2-2.5-1.2
			s-1.8,0.4-2.5,1.2s-0.9,1.9-0.9,3.5s0.3,2.7,0.9,3.5c0.6,0.8,1.4,1.2,2.5,1.2s1.9-0.4,2.5-1.2C401.8,13.1,402.1,11.9,402.1,10.4z"
			/>
		<path id="XMLID_296_" class="st1" d="M414.1,16.3v-1.4c-0.3,0.5-0.8,0.9-1.3,1.2c-0.5,0.3-1.2,0.5-1.9,0.5c-0.6,0-1.2-0.1-1.7-0.3
			c-0.5-0.2-0.9-0.5-1.3-0.9c-0.4-0.4-0.6-0.9-0.8-1.5c-0.2-0.6-0.3-1.3-0.3-2.2V4.5h1.7v6.9c0,1.3,0.2,2.2,0.7,2.8
			c0.5,0.6,1.1,0.9,2.1,0.9c0.8,0,1.5-0.3,2.1-0.9s0.8-1.5,0.8-2.8V4.5h1.7v11.7H414.1z"/>
		<path id="XMLID_293_" class="st1" d="M428.9,10.2c0,1-0.1,2-0.3,2.7c-0.2,0.8-0.5,1.4-0.9,2c-0.4,0.5-0.9,0.9-1.4,1.2
			c-0.5,0.3-1.1,0.4-1.7,0.4c-0.7,0-1.4-0.1-1.9-0.4c-0.5-0.3-1-0.7-1.4-1.1v1.3h-1.7V0.9l1.7-0.9l0,6c0.4-0.4,0.9-0.8,1.5-1.2
			c0.6-0.3,1.2-0.5,2.1-0.5c0.6,0,1.1,0.1,1.6,0.3c0.5,0.2,1,0.6,1.3,1.1c0.4,0.5,0.7,1.1,0.9,1.8C428.8,8.3,428.9,9.2,428.9,10.2z
			 M427.2,10.2c0-1.5-0.3-2.6-0.8-3.4c-0.5-0.8-1.2-1.1-2.2-1.1c-0.6,0-1.2,0.2-1.7,0.5c-0.5,0.3-1,0.7-1.4,1.2v5.9
			c0.3,0.5,0.8,0.9,1.3,1.3c0.5,0.3,1.2,0.5,1.9,0.5c1,0,1.7-0.4,2.2-1.2S427.2,11.8,427.2,10.2z"/>
		<path id="XMLID_291_" class="st1" d="M432.1,16.3V0.9l1.7-0.9v16.3H432.1z"/>
		<path id="XMLID_288_" class="st1" d="M446.5,10.1c0,0.2,0,0.4,0,0.5s0,0.3-0.1,0.4h-7.8c0.1,1.3,0.4,2.3,1,3
			c0.6,0.7,1.3,1.1,2.3,1.1c0.7,0,1.3-0.1,1.7-0.3c0.5-0.2,1-0.5,1.5-0.8l0.8,1.2c-0.4,0.2-0.7,0.4-1,0.6c-0.3,0.2-0.6,0.3-1,0.4
			c-0.3,0.1-0.7,0.2-1,0.3c-0.4,0.1-0.8,0.1-1.2,0.1c-0.5,0-1.1-0.1-1.6-0.3c-0.6-0.2-1.1-0.6-1.5-1c-0.5-0.5-0.8-1.1-1.1-1.9
			s-0.5-1.8-0.5-2.9c0-0.9,0.1-1.8,0.4-2.5s0.6-1.4,1-1.9c0.4-0.5,0.9-0.9,1.5-1.2c0.6-0.3,1.2-0.4,1.9-0.4c0.8,0,1.4,0.1,2,0.4
			c0.6,0.3,1.1,0.7,1.5,1.2c0.4,0.5,0.7,1.1,0.9,1.8C446.4,8.5,446.5,9.2,446.5,10.1z M444.9,9.6c-0.1-1.2-0.4-2.1-0.9-2.8
			c-0.5-0.7-1.3-1.1-2.3-1.1c-0.9,0-1.6,0.3-2.1,1s-0.9,1.6-1,2.9H444.9z"/>
		<path id="XMLID_286_" class="st1" d="M448.9,8.9V7.3h4.9v1.6H448.9z"/>
		<path id="XMLID_283_" class="st1" d="M466.2,10.2c0,1-0.1,2-0.3,2.7c-0.2,0.8-0.5,1.4-0.9,2c-0.4,0.5-0.9,0.9-1.4,1.2
			c-0.5,0.3-1.1,0.4-1.7,0.4c-0.7,0-1.4-0.1-1.9-0.4c-0.5-0.3-1-0.7-1.4-1.1v1.3h-1.7V0.9l1.7-0.9l0,6c0.4-0.4,0.9-0.8,1.5-1.2
			c0.6-0.3,1.2-0.5,2.1-0.5c0.6,0,1.1,0.1,1.6,0.3c0.5,0.2,1,0.6,1.3,1.1c0.4,0.5,0.7,1.1,0.9,1.8C466.1,8.3,466.2,9.2,466.2,10.2z
			 M464.5,10.2c0-1.5-0.3-2.6-0.8-3.4c-0.5-0.8-1.2-1.1-2.2-1.1c-0.6,0-1.2,0.2-1.7,0.5c-0.5,0.3-1,0.7-1.4,1.2v5.9
			c0.3,0.5,0.8,0.9,1.3,1.3c0.5,0.3,1.2,0.5,1.9,0.5c1,0,1.7-0.4,2.2-1.2S464.5,11.8,464.5,10.2z"/>
		<path id="XMLID_281_" class="st1" d="M469.4,16.3V0.9L471,0v16.3H469.4z"/>
		<path id="XMLID_278_" class="st1" d="M477,1.3c0,0.3-0.1,0.6-0.3,0.8s-0.5,0.3-0.8,0.3c-0.3,0-0.6-0.1-0.9-0.3
			c-0.2-0.2-0.4-0.5-0.4-0.8c0-0.3,0.1-0.6,0.4-0.9c0.2-0.2,0.5-0.3,0.9-0.3c0.3,0,0.6,0.1,0.8,0.3S477,0.9,477,1.3z M474.9,16.3
			V4.5h1.7v11.7H474.9z"/>
		<path id="XMLID_276_" class="st1" d="M487.8,16.3V9.4c0-1.3-0.2-2.2-0.7-2.8s-1.1-0.9-2.1-0.9c-0.8,0-1.5,0.3-2.1,0.9
			s-0.8,1.5-0.8,2.8v6.9h-1.7V4.5h1.7l0,1.4c0.3-0.5,0.8-0.9,1.3-1.2c0.5-0.3,1.2-0.5,1.9-0.5c0.6,0,1.2,0.1,1.7,0.3
			c0.5,0.2,0.9,0.5,1.3,0.9c0.4,0.4,0.6,0.9,0.8,1.5c0.2,0.6,0.3,1.3,0.3,2.2v7.1H487.8z"/>
		<path id="XMLID_273_" class="st1" d="M500.2,16.3v-1.4c-0.4,0.4-0.9,0.8-1.5,1.2c-0.6,0.3-1.2,0.5-2.1,0.5c-0.6,0-1.1-0.1-1.6-0.3
			c-0.5-0.2-1-0.6-1.3-1.1s-0.7-1.1-0.9-1.8c-0.2-0.8-0.3-1.6-0.3-2.7c0-1,0.1-2,0.3-2.7c0.2-0.8,0.5-1.4,0.9-2s0.9-0.9,1.4-1.2
			s1.1-0.4,1.7-0.4c0.7,0,1.4,0.1,1.9,0.4c0.5,0.3,1,0.7,1.4,1.1V0.9l1.7-0.9v16.3H500.2z M500.2,7.5c-0.3-0.5-0.8-0.9-1.3-1.3
			c-0.5-0.3-1.2-0.5-1.9-0.5c-1,0-1.7,0.4-2.2,1.2s-0.7,2-0.7,3.6c0,1.5,0.3,2.6,0.8,3.4c0.5,0.8,1.2,1.1,2.2,1.1
			c0.6,0,1.2-0.2,1.7-0.5s1-0.7,1.4-1.2V7.5z"/>
		<path id="XMLID_271_" class="st1" d="M506.2,18.9H505l0.3-5.2h2.3L506.2,18.9z"/>
		<path id="XMLID_269_" class="st1" d="M522.7,6.3c-0.2-0.1-0.5-0.2-0.8-0.3s-0.6-0.1-1-0.1c-0.8,0-1.4,0.3-1.9,0.9
			c-0.4,0.6-0.7,1.5-0.7,2.6v6.9h-1.7V4.5h1.7V6c0.3-0.5,0.7-0.9,1.2-1.2c0.5-0.3,1.1-0.5,1.7-0.5c0.4,0,0.8,0,1.1,0.1
			c0.3,0.1,0.5,0.1,0.7,0.2L522.7,6.3z"/>
		<path id="XMLID_266_" class="st1" d="M532.5,16.3v-1.4c-0.4,0.4-0.9,0.8-1.5,1.2s-1.3,0.5-2.2,0.5c-0.5,0-0.9-0.1-1.4-0.2
			s-0.8-0.3-1.2-0.6c-0.4-0.3-0.6-0.7-0.9-1.1c-0.2-0.5-0.3-1.1-0.3-1.8c0-0.7,0.1-1.2,0.4-1.7c0.3-0.5,0.6-0.9,1-1.2
			c0.4-0.3,0.9-0.5,1.4-0.7c0.5-0.1,1.1-0.2,1.7-0.2c0.6,0,1.1,0.1,1.6,0.2c0.5,0.1,0.9,0.3,1.3,0.5V8.3c0-1.7-0.8-2.6-2.5-2.6
			c-0.6,0-1.2,0.1-1.7,0.2c-0.5,0.2-1,0.4-1.5,0.7l-0.6-1.4c0.5-0.3,1.1-0.5,1.8-0.7c0.7-0.2,1.4-0.3,2.1-0.3c1.3,0,2.3,0.3,3,0.9
			s1.1,1.6,1.1,2.9v8.2H532.5z M532.5,11c-0.4-0.2-0.8-0.4-1.3-0.5c-0.5-0.1-1-0.2-1.7-0.2c-0.9,0-1.5,0.2-2,0.6
			c-0.5,0.4-0.7,1-0.7,1.7c0,0.9,0.2,1.5,0.7,1.9c0.4,0.4,1,0.6,1.7,0.6c0.8,0,1.4-0.2,2-0.5c0.6-0.3,1-0.8,1.4-1.2V11z"/>
		<path id="XMLID_264_" class="st1" d="M545.1,16.3V9.4c0-1.3-0.2-2.2-0.7-2.8s-1.1-0.9-2.1-0.9c-0.8,0-1.5,0.3-2.1,0.9
			s-0.8,1.5-0.8,2.8v6.9h-1.7V4.5h1.7l0,1.4c0.3-0.5,0.8-0.9,1.3-1.2c0.5-0.3,1.2-0.5,1.9-0.5c0.6,0,1.2,0.1,1.7,0.3
			c0.5,0.2,0.9,0.5,1.3,0.9c0.4,0.4,0.6,0.9,0.8,1.5c0.2,0.6,0.3,1.3,0.3,2.2v7.1H545.1z"/>
		<path id="XMLID_261_" class="st1" d="M557.5,16.3v-1.4c-0.4,0.4-0.9,0.8-1.5,1.2c-0.6,0.3-1.2,0.5-2.1,0.5c-0.6,0-1.1-0.1-1.6-0.3
			c-0.5-0.2-1-0.6-1.3-1.1s-0.7-1.1-0.9-1.8c-0.2-0.8-0.3-1.6-0.3-2.7c0-1,0.1-2,0.3-2.7c0.2-0.8,0.5-1.4,0.9-2s0.9-0.9,1.4-1.2
			s1.1-0.4,1.7-0.4c0.7,0,1.4,0.1,1.9,0.4c0.5,0.3,1,0.7,1.4,1.1V0.9l1.7-0.9v16.3H557.5z M557.5,7.5c-0.3-0.5-0.8-0.9-1.3-1.3
			c-0.5-0.3-1.2-0.5-1.9-0.5c-1,0-1.7,0.4-2.2,1.2s-0.7,2-0.7,3.6c0,1.5,0.3,2.6,0.8,3.4c0.5,0.8,1.2,1.1,2.2,1.1
			c0.6,0,1.2-0.2,1.7-0.5s1-0.7,1.4-1.2V7.5z"/>
		<path id="XMLID_258_" class="st1" d="M572.4,10.3c0,1-0.1,1.9-0.4,2.6c-0.3,0.8-0.6,1.4-1.1,1.9c-0.5,0.5-1,0.9-1.6,1.2
			c-0.6,0.3-1.3,0.4-2,0.4c-0.7,0-1.4-0.1-2-0.4s-1.2-0.6-1.6-1.2c-0.4-0.5-0.8-1.1-1.1-1.9c-0.3-0.8-0.4-1.6-0.4-2.6
			s0.1-1.9,0.4-2.6c0.3-0.8,0.6-1.4,1.1-1.9s1-0.9,1.6-1.2s1.3-0.4,2-0.4s1.4,0.1,2,0.4c0.6,0.3,1.2,0.6,1.6,1.1
			c0.4,0.5,0.8,1.1,1.1,1.9C572.3,8.5,572.4,9.3,572.4,10.3z M570.7,10.4c0-1.6-0.3-2.7-0.9-3.5c-0.6-0.8-1.4-1.2-2.5-1.2
			s-1.8,0.4-2.5,1.2s-0.9,1.9-0.9,3.5s0.3,2.7,0.9,3.5c0.6,0.8,1.4,1.2,2.5,1.2s1.9-0.4,2.5-1.2C570.4,13.1,570.7,11.9,570.7,10.4z"
			/>
		<path id="XMLID_256_" class="st1" d="M589.1,16.3V9.4c0-1.3-0.2-2.3-0.6-2.8c-0.4-0.6-1-0.8-1.9-0.8c-0.8,0-1.4,0.3-1.9,0.9
			c-0.5,0.6-0.7,1.5-0.7,2.8v6.9h-1.7V9.4c0-1.3-0.2-2.3-0.6-2.8c-0.4-0.6-1.1-0.8-1.9-0.8c-0.8,0-1.4,0.3-1.9,0.9
			c-0.5,0.6-0.7,1.5-0.7,2.8v6.9h-1.7V4.5h1.7l0,1.4c0.3-0.5,0.7-0.9,1.2-1.2c0.5-0.3,1.1-0.5,1.8-0.5c0.8,0,1.5,0.2,2,0.6
			c0.5,0.4,0.9,0.9,1.2,1.4c0.2-0.3,0.4-0.5,0.6-0.8c0.2-0.2,0.5-0.5,0.7-0.6c0.3-0.2,0.6-0.3,1-0.4c0.4-0.1,0.8-0.2,1.3-0.2
			c1.2,0,2.1,0.4,2.8,1.1c0.7,0.8,1.1,2,1.1,3.7v7.1H589.1z"/>
		<path id="XMLID_253_" class="st1" d="M596.5,1.3c0,0.3-0.1,0.6-0.3,0.8s-0.5,0.3-0.8,0.3c-0.3,0-0.6-0.1-0.9-0.3
			c-0.2-0.2-0.4-0.5-0.4-0.8c0-0.3,0.1-0.6,0.4-0.9c0.2-0.2,0.5-0.3,0.9-0.3c0.3,0,0.6,0.1,0.8,0.3S596.5,0.9,596.5,1.3z
			 M594.5,16.3V4.5h1.7v11.7H594.5z"/>
		<path id="XMLID_251_" class="st1" d="M599.3,16.3V15l6.4-9.1h-5.9V4.5h7.8v1.2l-6.4,9.1h6.4v1.4H599.3z"/>
		<path id="XMLID_248_" class="st1" d="M619.8,10.1c0,0.2,0,0.4,0,0.5s0,0.3-0.1,0.4H612c0.1,1.3,0.4,2.3,1,3
			c0.6,0.7,1.3,1.1,2.3,1.1c0.7,0,1.3-0.1,1.7-0.3c0.5-0.2,1-0.5,1.5-0.8l0.8,1.2c-0.4,0.2-0.7,0.4-1,0.6c-0.3,0.2-0.6,0.3-1,0.4
			c-0.3,0.1-0.7,0.2-1,0.3c-0.4,0.1-0.8,0.1-1.2,0.1c-0.5,0-1.1-0.1-1.6-0.3c-0.6-0.2-1.1-0.6-1.5-1c-0.5-0.5-0.8-1.1-1.1-1.9
			s-0.5-1.8-0.5-2.9c0-0.9,0.1-1.8,0.4-2.5s0.6-1.4,1-1.9c0.4-0.5,0.9-0.9,1.5-1.2c0.6-0.3,1.2-0.4,1.9-0.4c0.8,0,1.4,0.1,2,0.4
			c0.6,0.3,1.1,0.7,1.5,1.2c0.4,0.5,0.7,1.1,0.9,1.8C619.7,8.5,619.8,9.2,619.8,10.1z M618.3,9.6c-0.1-1.2-0.4-2.1-0.9-2.8
			c-0.5-0.7-1.3-1.1-2.3-1.1c-0.9,0-1.6,0.3-2.1,1s-0.9,1.6-1,2.9H618.3z"/>
		<path id="XMLID_245_" class="st1" d="M630.1,16.3v-1.4c-0.4,0.4-0.9,0.8-1.5,1.2c-0.6,0.3-1.2,0.5-2.1,0.5c-0.6,0-1.1-0.1-1.6-0.3
			c-0.5-0.2-1-0.6-1.3-1.1s-0.7-1.1-0.9-1.8c-0.2-0.8-0.3-1.6-0.3-2.7c0-1,0.1-2,0.3-2.7c0.2-0.8,0.5-1.4,0.9-2s0.9-0.9,1.4-1.2
			s1.1-0.4,1.7-0.4c0.7,0,1.4,0.1,1.9,0.4c0.5,0.3,1,0.7,1.4,1.1V0.9l1.7-0.9v16.3H630.1z M630.1,7.5c-0.3-0.5-0.8-0.9-1.3-1.3
			c-0.5-0.3-1.2-0.5-1.9-0.5c-1,0-1.7,0.4-2.2,1.2s-0.7,2-0.7,3.6c0,1.5,0.3,2.6,0.8,3.4c0.5,0.8,1.2,1.1,2.2,1.1
			c0.6,0,1.2-0.2,1.7-0.5s1-0.7,1.4-1.2V7.5z"/>
		<path id="XMLID_243_" class="st1" d="M636.1,18.9h-1.2l0.3-5.2h2.3L636.1,18.9z"/>
		<path id="XMLID_240_" class="st1" d="M656,10.2c0,1-0.1,2-0.3,2.7c-0.2,0.8-0.5,1.4-0.9,2c-0.4,0.5-0.9,0.9-1.4,1.2
			c-0.5,0.3-1.1,0.4-1.7,0.4c-0.7,0-1.4-0.1-1.9-0.4c-0.5-0.3-1-0.7-1.4-1.1v4.7l-1.7,0.9v-16h1.7l0,1.4c0.4-0.4,0.9-0.8,1.5-1.2
			c0.6-0.3,1.2-0.5,2.1-0.5c0.6,0,1.1,0.1,1.6,0.3c0.5,0.2,1,0.6,1.3,1.1c0.4,0.5,0.7,1.1,0.9,1.8C655.9,8.3,656,9.2,656,10.2z
			 M654.3,10.2c0-1.5-0.3-2.6-0.8-3.4c-0.5-0.8-1.2-1.1-2.2-1.1c-0.6,0-1.2,0.2-1.7,0.5c-0.5,0.3-1,0.7-1.4,1.2v5.9
			c0.3,0.5,0.8,0.9,1.3,1.3c0.5,0.3,1.2,0.5,1.9,0.5c1,0,1.7-0.4,2.2-1.2S654.3,11.8,654.3,10.2z"/>
		<path id="XMLID_238_" class="st1" d="M659.2,16.3V0.9l1.7-0.9v16.3H659.2z"/>
		<path id="XMLID_235_" class="st1" d="M671.4,16.3v-1.4c-0.4,0.4-0.9,0.8-1.5,1.2s-1.3,0.5-2.2,0.5c-0.5,0-0.9-0.1-1.4-0.2
			s-0.8-0.3-1.2-0.6c-0.4-0.3-0.6-0.7-0.9-1.1c-0.2-0.5-0.3-1.1-0.3-1.8c0-0.7,0.1-1.2,0.4-1.7c0.3-0.5,0.6-0.9,1-1.2
			c0.4-0.3,0.9-0.5,1.4-0.7c0.5-0.1,1.1-0.2,1.7-0.2c0.6,0,1.1,0.1,1.6,0.2c0.5,0.1,0.9,0.3,1.3,0.5V8.3c0-1.7-0.8-2.6-2.5-2.6
			c-0.6,0-1.2,0.1-1.7,0.2c-0.5,0.2-1,0.4-1.5,0.7L665,5.3c0.5-0.3,1.1-0.5,1.8-0.7c0.7-0.2,1.4-0.3,2.1-0.3c1.3,0,2.3,0.3,3,0.9
			s1.1,1.6,1.1,2.9v8.2H671.4z M671.4,11c-0.4-0.2-0.8-0.4-1.3-0.5c-0.5-0.1-1-0.2-1.7-0.2c-0.9,0-1.5,0.2-2,0.6
			c-0.5,0.4-0.7,1-0.7,1.7c0,0.9,0.2,1.5,0.7,1.9c0.4,0.4,1,0.6,1.7,0.6c0.8,0,1.4-0.2,2-0.5c0.6-0.3,1-0.8,1.4-1.2V11z"/>
		<path id="XMLID_233_" class="st1" d="M683.8,6.9c-0.4-0.4-0.9-0.7-1.3-0.9c-0.4-0.2-0.9-0.3-1.5-0.3c-0.5,0-0.9,0.1-1.3,0.3
			c-0.4,0.2-0.7,0.5-1,0.9c-0.3,0.4-0.5,0.9-0.7,1.4c-0.2,0.6-0.2,1.2-0.2,1.9c0,1.4,0.3,2.6,0.9,3.5s1.4,1.3,2.4,1.3
			c0.6,0,1.1-0.1,1.5-0.3c0.4-0.2,0.8-0.5,1.2-0.9l1,1.1c-0.5,0.5-1,0.9-1.6,1.2c-0.6,0.3-1.3,0.4-2.1,0.4c-0.6,0-1.3-0.1-1.9-0.4
			s-1.1-0.6-1.6-1.1c-0.5-0.5-0.8-1.1-1.1-1.9c-0.3-0.8-0.4-1.6-0.4-2.7c0-1.1,0.1-2,0.4-2.8c0.3-0.8,0.7-1.4,1.2-1.9s1-0.9,1.6-1.1
			s1.2-0.4,1.8-0.4c0.8,0,1.5,0.1,2.1,0.4c0.6,0.3,1.1,0.6,1.6,1L683.8,6.9z"/>
		<path id="XMLID_230_" class="st1" d="M696.6,10.1c0,0.2,0,0.4,0,0.5s0,0.3-0.1,0.4h-7.8c0.1,1.3,0.4,2.3,1,3
			c0.6,0.7,1.3,1.1,2.3,1.1c0.7,0,1.3-0.1,1.7-0.3c0.5-0.2,1-0.5,1.5-0.8l0.8,1.2c-0.4,0.2-0.7,0.4-1,0.6c-0.3,0.2-0.6,0.3-1,0.4
			c-0.3,0.1-0.7,0.2-1,0.3c-0.4,0.1-0.8,0.1-1.2,0.1c-0.5,0-1.1-0.1-1.6-0.3c-0.6-0.2-1.1-0.6-1.5-1c-0.5-0.5-0.8-1.1-1.1-1.9
			s-0.5-1.8-0.5-2.9c0-0.9,0.1-1.8,0.4-2.5s0.6-1.4,1-1.9c0.4-0.5,0.9-0.9,1.5-1.2c0.6-0.3,1.2-0.4,1.9-0.4c0.8,0,1.4,0.1,2,0.4
			c0.6,0.3,1.1,0.7,1.5,1.2c0.4,0.5,0.7,1.1,0.9,1.8C696.5,8.5,696.6,9.2,696.6,10.1z M695.1,9.6c-0.1-1.2-0.4-2.1-0.9-2.8
			c-0.5-0.7-1.3-1.1-2.3-1.1c-0.9,0-1.6,0.3-2.1,1s-0.9,1.6-1,2.9H695.1z"/>
		<path id="XMLID_227_" class="st1" d="M709.1,10.2c0,1-0.1,2-0.3,2.7c-0.2,0.8-0.5,1.4-0.9,2c-0.4,0.5-0.9,0.9-1.4,1.2
			c-0.5,0.3-1.1,0.4-1.7,0.4c-0.7,0-1.4-0.1-1.9-0.4c-0.5-0.3-1-0.7-1.4-1.1v1.3h-1.7V0.9l1.7-0.9l0,6c0.4-0.4,0.9-0.8,1.5-1.2
			c0.6-0.3,1.2-0.5,2.1-0.5c0.6,0,1.1,0.1,1.6,0.3c0.5,0.2,1,0.6,1.3,1.1c0.4,0.5,0.7,1.1,0.9,1.8C709,8.3,709.1,9.2,709.1,10.2z
			 M707.5,10.2c0-1.5-0.3-2.6-0.8-3.4c-0.5-0.8-1.2-1.1-2.2-1.1c-0.6,0-1.2,0.2-1.7,0.5c-0.5,0.3-1,0.7-1.4,1.2v5.9
			c0.3,0.5,0.8,0.9,1.3,1.3c0.5,0.3,1.2,0.5,1.9,0.5c1,0,1.7-0.4,2.2-1.2S707.5,11.8,707.5,10.2z"/>
		<path id="XMLID_224_" class="st1" d="M721.8,10.3c0,1-0.1,1.9-0.4,2.6c-0.3,0.8-0.6,1.4-1.1,1.9c-0.5,0.5-1,0.9-1.6,1.2
			c-0.6,0.3-1.3,0.4-2,0.4s-1.4-0.1-2-0.4s-1.2-0.6-1.6-1.2c-0.4-0.5-0.8-1.1-1.1-1.9c-0.3-0.8-0.4-1.6-0.4-2.6s0.1-1.9,0.4-2.6
			c0.3-0.8,0.6-1.4,1.1-1.9s1-0.9,1.6-1.2c0.6-0.3,1.3-0.4,2-0.4s1.4,0.1,2,0.4c0.6,0.3,1.2,0.6,1.6,1.1c0.4,0.5,0.8,1.1,1.1,1.9
			S721.8,9.3,721.8,10.3z M720.1,10.4c0-1.6-0.3-2.7-0.9-3.5s-1.4-1.2-2.5-1.2s-1.8,0.4-2.5,1.2c-0.6,0.8-0.9,1.9-0.9,3.5
			s0.3,2.7,0.9,3.5c0.6,0.8,1.4,1.2,2.5,1.2s1.9-0.4,2.5-1.2C719.8,13.1,720.1,11.9,720.1,10.4z"/>
		<path id="XMLID_222_" class="st1" d="M724.1,8.9V7.3h4.9v1.6H724.1z"/>
		<path id="XMLID_220_" class="st1" d="M739.1,6.9c-0.4-0.4-0.9-0.7-1.3-0.9s-0.9-0.3-1.5-0.3c-0.5,0-0.9,0.1-1.3,0.3
			c-0.4,0.2-0.7,0.5-1,0.9c-0.3,0.4-0.5,0.9-0.7,1.4c-0.2,0.6-0.2,1.2-0.2,1.9c0,1.4,0.3,2.6,0.9,3.5c0.6,0.9,1.4,1.3,2.4,1.3
			c0.6,0,1.1-0.1,1.5-0.3c0.4-0.2,0.8-0.5,1.2-0.9l1,1.1c-0.5,0.5-1,0.9-1.6,1.2c-0.6,0.3-1.3,0.4-2.1,0.4c-0.6,0-1.3-0.1-1.8-0.4
			c-0.6-0.2-1.1-0.6-1.6-1.1c-0.5-0.5-0.8-1.1-1.1-1.9c-0.3-0.8-0.4-1.6-0.4-2.7c0-1.1,0.1-2,0.4-2.8c0.3-0.8,0.7-1.4,1.2-1.9
			s1-0.9,1.6-1.1s1.2-0.4,1.8-0.4c0.8,0,1.5,0.1,2.1,0.4c0.6,0.3,1.1,0.6,1.6,1L739.1,6.9z"/>
		<path id="XMLID_217_" class="st1" d="M752.6,10.3c0,1-0.1,1.9-0.4,2.6c-0.3,0.8-0.6,1.4-1.1,1.9c-0.5,0.5-1,0.9-1.6,1.2
			c-0.6,0.3-1.3,0.4-2,0.4s-1.4-0.1-2-0.4s-1.2-0.6-1.6-1.2c-0.4-0.5-0.8-1.1-1.1-1.9c-0.3-0.8-0.4-1.6-0.4-2.6s0.1-1.9,0.4-2.6
			c0.3-0.8,0.6-1.4,1.1-1.9s1-0.9,1.6-1.2c0.6-0.3,1.3-0.4,2-0.4s1.4,0.1,2,0.4c0.6,0.3,1.2,0.6,1.6,1.1c0.4,0.5,0.8,1.1,1.1,1.9
			S752.6,9.3,752.6,10.3z M750.9,10.4c0-1.6-0.3-2.7-0.9-3.5s-1.4-1.2-2.5-1.2s-1.8,0.4-2.5,1.2c-0.6,0.8-0.9,1.9-0.9,3.5
			s0.3,2.7,0.9,3.5c0.6,0.8,1.4,1.2,2.5,1.2s1.9-0.4,2.5-1.2C750.6,13.1,750.9,11.9,750.9,10.4z"/>
		<path id="XMLID_215_" class="st1" d="M763,16.3V9.4c0-1.3-0.2-2.2-0.7-2.8s-1.1-0.9-2.1-0.9c-0.8,0-1.5,0.3-2.1,0.9
			c-0.6,0.6-0.8,1.5-0.8,2.8v6.9h-1.7V4.5h1.7l0,1.4c0.3-0.5,0.8-0.9,1.3-1.2s1.2-0.5,1.9-0.5c0.6,0,1.2,0.1,1.7,0.3
			c0.5,0.2,0.9,0.5,1.3,0.9s0.6,0.9,0.8,1.5c0.2,0.6,0.3,1.3,0.3,2.2v7.1H763z"/>
		<path id="XMLID_213_" class="st1" d="M770.4,6v7.6c0,0.5,0.1,0.9,0.3,1.1s0.5,0.3,0.9,0.3c0.3,0,0.6,0,0.9-0.1
			c0.2-0.1,0.5-0.1,0.8-0.3l-0.1,1.4c-0.3,0.1-0.7,0.2-1,0.3s-0.7,0.1-1.2,0.1c-0.7,0-1.3-0.2-1.7-0.6s-0.6-1.1-0.6-2.1V6h-1.4V4.5
			h1.4V0.9l1.7-0.9v4.5h2.9V6H770.4z"/>
		<path id="XMLID_211_" class="st1" d="M782.6,6.3c-0.2-0.1-0.5-0.2-0.8-0.3c-0.3-0.1-0.6-0.1-1-0.1c-0.8,0-1.4,0.3-1.9,0.9
			s-0.7,1.5-0.7,2.6v6.9h-1.7V4.5h1.7V6c0.3-0.5,0.7-0.9,1.2-1.2c0.5-0.3,1.1-0.5,1.7-0.5c0.4,0,0.8,0,1.1,0.1
			c0.3,0.1,0.5,0.1,0.7,0.2L782.6,6.3z"/>
		<path id="XMLID_208_" class="st1" d="M795.2,10.3c0,1-0.1,1.9-0.4,2.6c-0.3,0.8-0.6,1.4-1.1,1.9c-0.5,0.5-1,0.9-1.6,1.2
			c-0.6,0.3-1.3,0.4-2,0.4s-1.4-0.1-2-0.4s-1.2-0.6-1.6-1.2c-0.4-0.5-0.8-1.1-1.1-1.9c-0.3-0.8-0.4-1.6-0.4-2.6s0.1-1.9,0.4-2.6
			c0.3-0.8,0.6-1.4,1.1-1.9s1-0.9,1.6-1.2c0.6-0.3,1.3-0.4,2-0.4s1.4,0.1,2,0.4c0.6,0.3,1.2,0.6,1.6,1.1c0.4,0.5,0.8,1.1,1.1,1.9
			S795.2,9.3,795.2,10.3z M793.5,10.4c0-1.6-0.3-2.7-0.9-3.5s-1.4-1.2-2.5-1.2s-1.8,0.4-2.5,1.2c-0.6,0.8-0.9,1.9-0.9,3.5
			s0.3,2.7,0.9,3.5c0.6,0.8,1.4,1.2,2.5,1.2s1.9-0.4,2.5-1.2C793.2,13.1,793.5,11.9,793.5,10.4z"/>
		<path id="XMLID_206_" class="st1" d="M798.4,16.3V0.9l1.7-0.9v16.3H798.4z"/>
		<path id="XMLID_204_" class="st1" d="M804,16.3V0.9l1.7-0.9v16.3H804z"/>
		<path id="XMLID_201_" class="st1" d="M818.3,10.1c0,0.2,0,0.4,0,0.5s0,0.3-0.1,0.4h-7.8c0.1,1.3,0.4,2.3,1,3
			c0.6,0.7,1.3,1.1,2.3,1.1c0.7,0,1.3-0.1,1.7-0.3c0.5-0.2,1-0.5,1.5-0.8l0.8,1.2c-0.4,0.2-0.7,0.4-1,0.6c-0.3,0.2-0.6,0.3-1,0.4
			c-0.3,0.1-0.7,0.2-1,0.3c-0.4,0.1-0.8,0.1-1.2,0.1c-0.5,0-1.1-0.1-1.6-0.3s-1.1-0.6-1.5-1c-0.5-0.5-0.8-1.1-1.1-1.9
			s-0.5-1.8-0.5-2.9c0-0.9,0.1-1.8,0.4-2.5s0.6-1.4,1-1.9c0.4-0.5,0.9-0.9,1.5-1.2s1.2-0.4,1.9-0.4c0.8,0,1.4,0.1,2,0.4
			s1.1,0.7,1.5,1.2s0.7,1.1,0.9,1.8C818.2,8.5,818.3,9.2,818.3,10.1z M816.8,9.6c-0.1-1.2-0.4-2.1-0.9-2.8c-0.5-0.7-1.3-1.1-2.3-1.1
			c-0.9,0-1.6,0.3-2.1,1c-0.6,0.6-0.9,1.6-1,2.9H816.8z"/>
		<path id="XMLID_198_" class="st1" d="M828.6,16.3v-1.4c-0.4,0.4-0.9,0.8-1.5,1.2s-1.2,0.5-2.1,0.5c-0.6,0-1.1-0.1-1.6-0.3
			c-0.5-0.2-1-0.6-1.3-1.1c-0.4-0.5-0.7-1.1-0.9-1.8c-0.2-0.8-0.3-1.6-0.3-2.7c0-1,0.1-2,0.3-2.7s0.5-1.4,0.9-2
			c0.4-0.5,0.9-0.9,1.4-1.2c0.5-0.3,1.1-0.4,1.7-0.4c0.7,0,1.4,0.1,1.9,0.4c0.5,0.3,1,0.7,1.4,1.1V0.9l1.7-0.9v16.3H828.6z
			 M828.6,7.5c-0.3-0.5-0.8-0.9-1.3-1.3c-0.5-0.3-1.2-0.5-1.9-0.5c-1,0-1.7,0.4-2.2,1.2s-0.7,2-0.7,3.6c0,1.5,0.3,2.6,0.8,3.4
			c0.5,0.8,1.2,1.1,2.2,1.1c0.6,0,1.2-0.2,1.7-0.5s1-0.7,1.4-1.2V7.5z"/>
		<path id="XMLID_196_" class="st1" d="M841.9,6v7.6c0,0.5,0.1,0.9,0.3,1.1s0.5,0.3,0.9,0.3c0.3,0,0.6,0,0.9-0.1
			c0.2-0.1,0.5-0.1,0.8-0.3l-0.1,1.4c-0.3,0.1-0.7,0.2-1,0.3s-0.7,0.1-1.2,0.1c-0.7,0-1.3-0.2-1.7-0.6s-0.6-1.1-0.6-2.1V6h-1.4V4.5
			h1.4V0.9l1.7-0.9v4.5h2.9V6H841.9z"/>
		<path id="XMLID_194_" class="st1" d="M854,6.3c-0.2-0.1-0.5-0.2-0.8-0.3c-0.3-0.1-0.6-0.1-1-0.1c-0.8,0-1.4,0.3-1.9,0.9
			s-0.7,1.5-0.7,2.6v6.9H848V4.5h1.7V6c0.3-0.5,0.7-0.9,1.2-1.2c0.5-0.3,1.1-0.5,1.7-0.5c0.4,0,0.8,0,1.1,0.1
			c0.3,0.1,0.5,0.1,0.7,0.2L854,6.3z"/>
		<path id="XMLID_191_" class="st1" d="M859.3,1.3c0,0.3-0.1,0.6-0.3,0.8s-0.5,0.3-0.8,0.3c-0.3,0-0.6-0.1-0.9-0.3
			c-0.2-0.2-0.4-0.5-0.4-0.8c0-0.3,0.1-0.6,0.4-0.9c0.2-0.2,0.5-0.3,0.9-0.3c0.3,0,0.6,0.1,0.8,0.3S859.3,0.9,859.3,1.3z
			 M857.2,16.3V4.5h1.7v11.7H857.2z"/>
		<path id="XMLID_188_" class="st1" d="M869.4,16.3v-1.4c-0.4,0.4-0.9,0.8-1.5,1.2c-0.6,0.3-1.3,0.5-2.2,0.5c-0.5,0-0.9-0.1-1.4-0.2
			c-0.4-0.1-0.8-0.3-1.2-0.6c-0.4-0.3-0.6-0.7-0.9-1.1c-0.2-0.5-0.3-1.1-0.3-1.8c0-0.7,0.1-1.2,0.4-1.7s0.6-0.9,1-1.2
			c0.4-0.3,0.9-0.5,1.4-0.7c0.5-0.1,1.1-0.2,1.7-0.2c0.6,0,1.1,0.1,1.6,0.2c0.5,0.1,0.9,0.3,1.3,0.5V8.3c0-1.7-0.8-2.6-2.5-2.6
			c-0.6,0-1.2,0.1-1.7,0.2c-0.5,0.2-1,0.4-1.5,0.7l-0.6-1.4c0.5-0.3,1.1-0.5,1.8-0.7s1.4-0.3,2.1-0.3c1.3,0,2.3,0.3,3,0.9
			c0.7,0.6,1.1,1.6,1.1,2.9v8.2H869.4z M869.4,11c-0.4-0.2-0.8-0.4-1.3-0.5c-0.5-0.1-1-0.2-1.7-0.2c-0.9,0-1.5,0.2-2,0.6
			c-0.5,0.4-0.7,1-0.7,1.7c0,0.9,0.2,1.5,0.7,1.9c0.4,0.4,1,0.6,1.7,0.6c0.8,0,1.4-0.2,2-0.5c0.6-0.3,1-0.8,1.4-1.2V11z"/>
		<path id="XMLID_186_" class="st1" d="M874.8,16.3V0.9l1.7-0.9v16.3H874.8z"/>
		<path id="XMLID_183_" class="st1" d="M895.7,10.3c0,1-0.1,1.9-0.4,2.6c-0.3,0.8-0.6,1.4-1.1,1.9c-0.5,0.5-1,0.9-1.6,1.2
			c-0.6,0.3-1.3,0.4-2,0.4s-1.4-0.1-2-0.4s-1.2-0.6-1.6-1.2c-0.4-0.5-0.8-1.1-1.1-1.9c-0.3-0.8-0.4-1.6-0.4-2.6s0.1-1.9,0.4-2.6
			c0.3-0.8,0.6-1.4,1.1-1.9s1-0.9,1.6-1.2c0.6-0.3,1.3-0.4,2-0.4s1.4,0.1,2,0.4c0.6,0.3,1.2,0.6,1.6,1.1c0.4,0.5,0.8,1.1,1.1,1.9
			S895.7,9.3,895.7,10.3z M894,10.4c0-1.6-0.3-2.7-0.9-3.5s-1.4-1.2-2.5-1.2s-1.8,0.4-2.5,1.2c-0.6,0.8-0.9,1.9-0.9,3.5
			s0.3,2.7,0.9,3.5c0.6,0.8,1.4,1.2,2.5,1.2s1.9-0.4,2.5-1.2C893.7,13.1,894,11.9,894,10.4z"/>
		<path id="XMLID_181_" class="st1" d="M902.4,1.6c-0.3,0-0.6,0.1-0.9,0.2s-0.3,0.5-0.3,1v1.7h2.3V6h-2.3v10.3h-1.7V6h-1.6V4.5h1.6
			V2.9c0-1,0.3-1.8,0.8-2.2c0.5-0.4,1.2-0.7,2-0.7c0.3,0,0.6,0,0.8,0c0.2,0,0.4,0.1,0.6,0.2v1.6C903.4,1.7,903,1.6,902.4,1.6z"/>
		<path id="XMLID_179_" class="st1" d="M0,43V27.7l1.7-0.9V43H0z"/>
		<path id="XMLID_176_" class="st1" d="M14.4,36.8c0,0.2,0,0.4,0,0.5s0,0.3-0.1,0.4H6.6c0.1,1.3,0.4,2.3,1,3
			c0.6,0.7,1.3,1.1,2.3,1.1c0.7,0,1.3-0.1,1.7-0.3c0.5-0.2,1-0.5,1.5-0.8l0.8,1.2c-0.4,0.2-0.7,0.4-1,0.6c-0.3,0.2-0.6,0.3-1,0.4
			c-0.3,0.1-0.7,0.2-1,0.3c-0.4,0.1-0.8,0.1-1.2,0.1c-0.5,0-1.1-0.1-1.6-0.3c-0.6-0.2-1.1-0.6-1.5-1C6,41.4,5.7,40.8,5.4,40
			s-0.5-1.8-0.5-2.9c0-0.9,0.1-1.8,0.4-2.5s0.6-1.4,1-1.9c0.4-0.5,0.9-0.9,1.5-1.2c0.6-0.3,1.2-0.4,1.9-0.4c0.8,0,1.4,0.1,2,0.4
			c0.6,0.3,1.1,0.7,1.5,1.2c0.4,0.5,0.7,1.1,0.9,1.8C14.3,35.2,14.4,36,14.4,36.8z M12.9,36.4c-0.1-1.2-0.4-2.1-0.9-2.8
			c-0.5-0.7-1.3-1.1-2.3-1.1c-0.9,0-1.6,0.3-2.1,1s-0.9,1.6-1,2.9H12.9z"/>
		<path id="XMLID_174_" class="st1" d="M22.3,43h-1.5l-4.2-11.7h1.8l3,9.2l0.2,0.6l0.2-0.6l3-9.2h1.7L22.3,43z"/>
		<path id="XMLID_171_" class="st1" d="M38.1,36.8c0,0.2,0,0.4,0,0.5s0,0.3-0.1,0.4h-7.8c0.1,1.3,0.4,2.3,1,3
			c0.6,0.7,1.3,1.1,2.3,1.1c0.7,0,1.3-0.1,1.7-0.3c0.5-0.2,1-0.5,1.5-0.8l0.8,1.2c-0.4,0.2-0.7,0.4-1,0.6c-0.3,0.2-0.6,0.3-1,0.4
			c-0.3,0.1-0.7,0.2-1,0.3c-0.4,0.1-0.8,0.1-1.2,0.1c-0.5,0-1.1-0.1-1.6-0.3c-0.6-0.2-1.1-0.6-1.5-1c-0.5-0.5-0.8-1.1-1.1-1.9
			s-0.5-1.8-0.5-2.9c0-0.9,0.1-1.8,0.4-2.5s0.6-1.4,1-1.9c0.4-0.5,0.9-0.9,1.5-1.2c0.6-0.3,1.2-0.4,1.9-0.4c0.8,0,1.4,0.1,2,0.4
			c0.6,0.3,1.1,0.7,1.5,1.2c0.4,0.5,0.7,1.1,0.9,1.8C38,35.2,38.1,36,38.1,36.8z M36.6,36.4c-0.1-1.2-0.4-2.1-0.9-2.8
			c-0.5-0.7-1.3-1.1-2.3-1.1c-0.9,0-1.6,0.3-2.1,1s-0.9,1.6-1,2.9H36.6z"/>
		<path id="XMLID_169_" class="st1" d="M43.4,32.7v7.6c0,0.5,0.1,0.9,0.3,1.1c0.2,0.2,0.5,0.3,0.9,0.3c0.3,0,0.6,0,0.9-0.1
			c0.2-0.1,0.5-0.1,0.8-0.3l-0.1,1.4c-0.3,0.1-0.7,0.2-1,0.3s-0.7,0.1-1.2,0.1c-0.7,0-1.3-0.2-1.7-0.6c-0.4-0.4-0.6-1.1-0.6-2.1
			v-7.9h-1.4v-1.4h1.4v-3.6l1.7-0.9v4.5h2.9v1.4H43.4z"/>
		<path id="XMLID_166_" class="st1" d="M51.7,28c0,0.3-0.1,0.6-0.3,0.8s-0.5,0.3-0.8,0.3c-0.3,0-0.6-0.1-0.9-0.3
			c-0.2-0.2-0.4-0.5-0.4-0.8c0-0.3,0.1-0.6,0.4-0.9c0.2-0.2,0.5-0.3,0.9-0.3c0.3,0,0.6,0.1,0.8,0.3S51.7,27.7,51.7,28z M49.6,43
			V31.3h1.7V43H49.6z"/>
		<path id="XMLID_164_" class="st1" d="M61.1,33c-0.2-0.1-0.5-0.2-0.8-0.3s-0.6-0.1-1-0.1c-0.8,0-1.4,0.3-1.9,0.9
			c-0.4,0.6-0.7,1.5-0.7,2.6V43h-1.7V31.3h1.7v1.4c0.3-0.5,0.7-0.9,1.2-1.2c0.5-0.3,1.1-0.5,1.7-0.5c0.4,0,0.8,0,1.1,0.1
			c0.3,0.1,0.5,0.1,0.7,0.2L61.1,33z"/>
		<path id="XMLID_161_" class="st1" d="M70.9,43v-1.4c-0.4,0.4-0.9,0.8-1.5,1.2s-1.3,0.5-2.2,0.5c-0.5,0-0.9-0.1-1.4-0.2
			s-0.8-0.3-1.2-0.6c-0.4-0.3-0.6-0.7-0.9-1.1c-0.2-0.5-0.3-1.1-0.3-1.8c0-0.7,0.1-1.2,0.4-1.7c0.3-0.5,0.6-0.9,1-1.2
			c0.4-0.3,0.9-0.5,1.4-0.7c0.5-0.1,1.1-0.2,1.7-0.2c0.6,0,1.1,0.1,1.6,0.2c0.5,0.1,0.9,0.3,1.3,0.5v-1.4c0-1.7-0.8-2.6-2.5-2.6
			c-0.6,0-1.2,0.1-1.7,0.2c-0.5,0.2-1,0.4-1.5,0.7L64.6,32c0.5-0.3,1.1-0.5,1.8-0.7c0.7-0.2,1.4-0.3,2.1-0.3c1.3,0,2.3,0.3,3,0.9
			s1.1,1.6,1.1,2.9V43H70.9z M70.9,37.8c-0.4-0.2-0.8-0.4-1.3-0.5c-0.5-0.1-1-0.2-1.7-0.2c-0.9,0-1.5,0.2-2,0.6
			c-0.5,0.4-0.7,1-0.7,1.7c0,0.9,0.2,1.5,0.7,1.9c0.4,0.4,1,0.6,1.7,0.6c0.8,0,1.4-0.2,2-0.5c0.6-0.3,1-0.8,1.4-1.2V37.8z"/>
		<path id="XMLID_159_" class="st1" d="M83.3,33.7c-0.4-0.4-0.9-0.7-1.3-0.9c-0.4-0.2-0.9-0.3-1.5-0.3c-0.5,0-0.9,0.1-1.3,0.3
			c-0.4,0.2-0.7,0.5-1,0.9c-0.3,0.4-0.5,0.9-0.7,1.4c-0.2,0.6-0.2,1.2-0.2,1.9c0,1.4,0.3,2.6,0.9,3.5s1.4,1.3,2.4,1.3
			c0.6,0,1.1-0.1,1.5-0.3c0.4-0.2,0.8-0.5,1.2-0.9l1,1.1c-0.5,0.5-1,0.9-1.6,1.2c-0.6,0.3-1.3,0.4-2.1,0.4c-0.6,0-1.3-0.1-1.9-0.4
			s-1.1-0.6-1.6-1.1c-0.5-0.5-0.8-1.1-1.1-1.9c-0.3-0.8-0.4-1.6-0.4-2.7c0-1.1,0.1-2,0.4-2.8c0.3-0.8,0.7-1.4,1.2-1.9s1-0.9,1.6-1.1
			s1.2-0.4,1.8-0.4c0.8,0,1.5,0.1,2.1,0.4c0.6,0.3,1.1,0.6,1.6,1L83.3,33.7z"/>
		<path id="XMLID_156_" class="st1" d="M96.1,36.8c0,0.2,0,0.4,0,0.5s0,0.3-0.1,0.4h-7.8c0.1,1.3,0.4,2.3,1,3
			c0.6,0.7,1.3,1.1,2.3,1.1c0.7,0,1.3-0.1,1.7-0.3c0.5-0.2,1-0.5,1.5-0.8l0.8,1.2c-0.4,0.2-0.7,0.4-1,0.6c-0.3,0.2-0.6,0.3-1,0.4
			c-0.3,0.1-0.7,0.2-1,0.3c-0.4,0.1-0.8,0.1-1.2,0.1c-0.5,0-1.1-0.1-1.6-0.3c-0.6-0.2-1.1-0.6-1.5-1c-0.5-0.5-0.8-1.1-1.1-1.9
			s-0.5-1.8-0.5-2.9c0-0.9,0.1-1.8,0.4-2.5s0.6-1.4,1-1.9c0.4-0.5,0.9-0.9,1.5-1.2c0.6-0.3,1.2-0.4,1.9-0.4c0.8,0,1.4,0.1,2,0.4
			c0.6,0.3,1.1,0.7,1.5,1.2c0.4,0.5,0.7,1.1,0.9,1.8C96,35.2,96.1,36,96.1,36.8z M94.6,36.4c-0.1-1.2-0.4-2.1-0.9-2.8
			c-0.5-0.7-1.3-1.1-2.3-1.1c-0.9,0-1.6,0.3-2.1,1s-0.9,1.6-1,2.9H94.6z"/>
		<path id="XMLID_154_" class="st1" d="M101.4,32.7v7.6c0,0.5,0.1,0.9,0.3,1.1c0.2,0.2,0.5,0.3,0.9,0.3c0.3,0,0.6,0,0.9-0.1
			c0.2-0.1,0.5-0.1,0.8-0.3l-0.1,1.4c-0.3,0.1-0.7,0.2-1,0.3s-0.7,0.1-1.2,0.1c-0.7,0-1.3-0.2-1.7-0.6c-0.4-0.4-0.6-1.1-0.6-2.1
			v-7.9h-1.4v-1.4h1.4v-3.6l1.7-0.9v4.5h2.9v1.4H101.4z"/>
		<path id="XMLID_151_" class="st1" d="M114.3,43v-1.4c-0.4,0.4-0.9,0.8-1.5,1.2s-1.3,0.5-2.2,0.5c-0.5,0-0.9-0.1-1.4-0.2
			s-0.8-0.3-1.2-0.6c-0.4-0.3-0.6-0.7-0.9-1.1c-0.2-0.5-0.3-1.1-0.3-1.8c0-0.7,0.1-1.2,0.4-1.7c0.3-0.5,0.6-0.9,1-1.2
			c0.4-0.3,0.9-0.5,1.4-0.7c0.5-0.1,1.1-0.2,1.7-0.2c0.6,0,1.1,0.1,1.6,0.2c0.5,0.1,0.9,0.3,1.3,0.5v-1.4c0-1.7-0.8-2.6-2.5-2.6
			c-0.6,0-1.2,0.1-1.7,0.2c-0.5,0.2-1,0.4-1.5,0.7L108,32c0.5-0.3,1.1-0.5,1.8-0.7c0.7-0.2,1.4-0.3,2.1-0.3c1.3,0,2.3,0.3,3,0.9
			s1.1,1.6,1.1,2.9V43H114.3z M114.3,37.8c-0.4-0.2-0.8-0.4-1.3-0.5c-0.5-0.1-1-0.2-1.7-0.2c-0.9,0-1.5,0.2-2,0.6
			c-0.5,0.4-0.7,1-0.7,1.7c0,0.9,0.2,1.5,0.7,1.9c0.4,0.4,1,0.6,1.7,0.6c0.8,0,1.4-0.2,2-0.5c0.6-0.3,1-0.8,1.4-1.2V37.8z"/>
		<path id="XMLID_149_" class="st1" d="M133.2,43v-6.9c0-1.3-0.2-2.3-0.6-2.8c-0.4-0.6-1-0.8-1.9-0.8c-0.8,0-1.4,0.3-1.9,0.9
			c-0.5,0.6-0.7,1.5-0.7,2.8V43h-1.7v-6.9c0-1.3-0.2-2.3-0.6-2.8c-0.4-0.6-1.1-0.8-1.9-0.8c-0.8,0-1.4,0.3-1.9,0.9
			c-0.5,0.6-0.7,1.5-0.7,2.8V43h-1.7V31.3h1.7l0,1.4c0.3-0.5,0.7-0.9,1.2-1.2c0.5-0.3,1.1-0.5,1.8-0.5c0.8,0,1.5,0.2,2,0.6
			c0.5,0.4,0.9,0.9,1.2,1.4c0.2-0.3,0.4-0.5,0.6-0.8c0.2-0.2,0.5-0.5,0.7-0.6c0.3-0.2,0.6-0.3,1-0.4c0.4-0.1,0.8-0.2,1.3-0.2
			c1.2,0,2.1,0.4,2.8,1.1c0.7,0.8,1.1,2,1.1,3.7V43H133.2z"/>
		<path id="XMLID_146_" class="st1" d="M151,43v-1.4c-0.4,0.4-0.9,0.8-1.5,1.2s-1.3,0.5-2.2,0.5c-0.5,0-0.9-0.1-1.4-0.2
			s-0.8-0.3-1.2-0.6c-0.4-0.3-0.6-0.7-0.9-1.1c-0.2-0.5-0.3-1.1-0.3-1.8c0-0.7,0.1-1.2,0.4-1.7c0.3-0.5,0.6-0.9,1-1.2
			c0.4-0.3,0.9-0.5,1.4-0.7c0.5-0.1,1.1-0.2,1.7-0.2c0.6,0,1.1,0.1,1.6,0.2c0.5,0.1,0.9,0.3,1.3,0.5v-1.4c0-1.7-0.8-2.6-2.5-2.6
			c-0.6,0-1.2,0.1-1.7,0.2c-0.5,0.2-1,0.4-1.5,0.7l-0.6-1.4c0.5-0.3,1.1-0.5,1.8-0.7c0.7-0.2,1.4-0.3,2.1-0.3c1.3,0,2.3,0.3,3,0.9
			s1.1,1.6,1.1,2.9V43H151z M151,37.8c-0.4-0.2-0.8-0.4-1.3-0.5c-0.5-0.1-1-0.2-1.7-0.2c-0.9,0-1.5,0.2-2,0.6
			c-0.5,0.4-0.7,1-0.7,1.7c0,0.9,0.2,1.5,0.7,1.9c0.4,0.4,1,0.6,1.7,0.6c0.8,0,1.4-0.2,2-0.5c0.6-0.3,1-0.8,1.4-1.2V37.8z"/>
		<path id="XMLID_144_" class="st1" d="M163.6,39.9c0,0.6-0.1,1.1-0.3,1.5c-0.2,0.4-0.5,0.8-0.9,1s-0.8,0.5-1.3,0.6s-1,0.2-1.5,0.2
			c-0.8,0-1.5-0.1-2.2-0.4c-0.7-0.3-1.3-0.6-1.9-1.1l1-1.2c0.5,0.4,1,0.7,1.5,1c0.5,0.2,1.1,0.3,1.7,0.3c0.8,0,1.4-0.2,1.8-0.5
			c0.4-0.3,0.6-0.8,0.6-1.3c0-0.2,0-0.5-0.1-0.6c-0.1-0.2-0.3-0.4-0.5-0.6c-0.2-0.2-0.5-0.4-0.8-0.6c-0.3-0.2-0.8-0.4-1.3-0.6
			c-0.6-0.3-1.1-0.5-1.5-0.7s-0.8-0.5-1-0.7s-0.5-0.6-0.6-0.9c-0.1-0.3-0.2-0.7-0.2-1.2c0-0.4,0.1-0.9,0.3-1.2
			c0.2-0.4,0.4-0.7,0.8-0.9c0.3-0.3,0.7-0.5,1.1-0.6c0.4-0.1,0.9-0.2,1.5-0.2c0.8,0,1.5,0.1,2.1,0.3c0.6,0.2,1.2,0.5,1.6,0.9
			l-0.9,1.2c-0.5-0.4-0.9-0.6-1.3-0.8c-0.4-0.2-1-0.3-1.6-0.3s-1.1,0.1-1.4,0.4c-0.3,0.3-0.5,0.6-0.5,1c0,0.3,0,0.5,0.1,0.6
			s0.2,0.4,0.4,0.5s0.5,0.3,0.8,0.5c0.3,0.2,0.7,0.4,1.2,0.6c0.5,0.3,1,0.5,1.5,0.7c0.4,0.2,0.8,0.5,1.1,0.7s0.5,0.6,0.7,1
			C163.5,39,163.6,39.4,163.6,39.9z"/>
		<path id="XMLID_141_" class="st1" d="M179.2,43v-1.4c-0.4,0.4-0.9,0.8-1.5,1.2s-1.3,0.5-2.2,0.5c-0.5,0-0.9-0.1-1.4-0.2
			s-0.8-0.3-1.2-0.6c-0.4-0.3-0.6-0.7-0.9-1.1c-0.2-0.5-0.3-1.1-0.3-1.8c0-0.7,0.1-1.2,0.4-1.7c0.3-0.5,0.6-0.9,1-1.2
			c0.4-0.3,0.9-0.5,1.4-0.7c0.5-0.1,1.1-0.2,1.7-0.2c0.6,0,1.1,0.1,1.6,0.2c0.5,0.1,0.9,0.3,1.3,0.5v-1.4c0-1.7-0.8-2.6-2.5-2.6
			c-0.6,0-1.2,0.1-1.7,0.2c-0.5,0.2-1,0.4-1.5,0.7l-0.6-1.4c0.5-0.3,1.1-0.5,1.8-0.7c0.7-0.2,1.4-0.3,2.1-0.3c1.3,0,2.3,0.3,3,0.9
			s1.1,1.6,1.1,2.9V43H179.2z M179.2,37.8c-0.4-0.2-0.8-0.4-1.3-0.5c-0.5-0.1-1-0.2-1.7-0.2c-0.9,0-1.5,0.2-2,0.6
			c-0.5,0.4-0.7,1-0.7,1.7c0,0.9,0.2,1.5,0.7,1.9c0.4,0.4,1,0.6,1.7,0.6c0.8,0,1.4-0.2,2-0.5c0.6-0.3,1-0.8,1.4-1.2V37.8z"/>
		<path id="XMLID_138_" class="st1" d="M191.6,43v-1.4c-0.4,0.4-0.9,0.8-1.5,1.2c-0.6,0.3-1.2,0.5-2.1,0.5c-0.6,0-1.1-0.1-1.6-0.3
			c-0.5-0.2-1-0.6-1.3-1.1s-0.7-1.1-0.9-1.8c-0.2-0.8-0.3-1.6-0.3-2.7c0-1,0.1-2,0.3-2.7c0.2-0.8,0.5-1.4,0.9-2s0.9-0.9,1.4-1.2
			s1.1-0.4,1.7-0.4c0.7,0,1.4,0.1,1.9,0.4c0.5,0.3,1,0.7,1.4,1.1v-4.9l1.7-0.9V43H191.6z M191.6,34.2c-0.3-0.5-0.8-0.9-1.3-1.3
			c-0.5-0.3-1.2-0.5-1.9-0.5c-1,0-1.7,0.4-2.2,1.2s-0.7,2-0.7,3.6c0,1.5,0.3,2.6,0.8,3.4c0.5,0.8,1.2,1.1,2.2,1.1
			c0.6,0,1.2-0.2,1.7-0.5s1-0.7,1.4-1.2V34.2z"/>
		<path id="XMLID_135_" class="st1" d="M204.1,43v-1.4c-0.4,0.4-0.9,0.8-1.5,1.2c-0.6,0.3-1.2,0.5-2.1,0.5c-0.6,0-1.1-0.1-1.6-0.3
			c-0.5-0.2-1-0.6-1.3-1.1s-0.7-1.1-0.9-1.8c-0.2-0.8-0.3-1.6-0.3-2.7c0-1,0.1-2,0.3-2.7c0.2-0.8,0.5-1.4,0.9-2s0.9-0.9,1.4-1.2
			s1.1-0.4,1.7-0.4c0.7,0,1.4,0.1,1.9,0.4c0.5,0.3,1,0.7,1.4,1.1v-4.9l1.7-0.9V43H204.1z M204.1,34.2c-0.3-0.5-0.8-0.9-1.3-1.3
			c-0.5-0.3-1.2-0.5-1.9-0.5c-1,0-1.7,0.4-2.2,1.2s-0.7,2-0.7,3.6c0,1.5,0.3,2.6,0.8,3.4c0.5,0.8,1.2,1.1,2.2,1.1
			c0.6,0,1.2-0.2,1.7-0.5s1-0.7,1.4-1.2V34.2z"/>
		<path id="XMLID_133_" class="st1" d="M208.7,35.7V34h4.9v1.6H208.7z"/>
		<path id="XMLID_130_" class="st1" d="M226.2,37.1c0,1-0.1,1.9-0.4,2.6c-0.3,0.8-0.6,1.4-1.1,1.9c-0.5,0.5-1,0.9-1.6,1.2
			c-0.6,0.3-1.3,0.4-2,0.4c-0.7,0-1.4-0.1-2-0.4s-1.2-0.6-1.6-1.2c-0.4-0.5-0.8-1.1-1.1-1.9c-0.3-0.8-0.4-1.6-0.4-2.6
			s0.1-1.9,0.4-2.6c0.3-0.8,0.6-1.4,1.1-1.9s1-0.9,1.6-1.2s1.3-0.4,2-0.4s1.4,0.1,2,0.4c0.6,0.3,1.2,0.6,1.6,1.1
			c0.4,0.5,0.8,1.1,1.1,1.9C226.1,35.2,226.2,36.1,226.2,37.1z M224.5,37.1c0-1.6-0.3-2.7-0.9-3.5c-0.6-0.8-1.4-1.2-2.5-1.2
			s-1.8,0.4-2.5,1.2s-0.9,1.9-0.9,3.5s0.3,2.7,0.9,3.5c0.6,0.8,1.4,1.2,2.5,1.2s1.9-0.4,2.5-1.2C224.2,39.8,224.5,38.7,224.5,37.1z"
			/>
		<path id="XMLID_128_" class="st1" d="M236.6,43v-6.9c0-1.3-0.2-2.2-0.7-2.8s-1.1-0.9-2.1-0.9c-0.8,0-1.5,0.3-2.1,0.9
			s-0.8,1.5-0.8,2.8V43h-1.7V31.3h1.7l0,1.4c0.3-0.5,0.8-0.9,1.3-1.2c0.5-0.3,1.2-0.5,1.9-0.5c0.6,0,1.2,0.1,1.7,0.3
			c0.5,0.2,0.9,0.5,1.3,0.9c0.4,0.4,0.6,0.9,0.8,1.5c0.2,0.6,0.3,1.3,0.3,2.2V43H236.6z"/>
		<path id="XMLID_126_" class="st1" d="M249.8,32.7v7.6c0,0.5,0.1,0.9,0.3,1.1c0.2,0.2,0.5,0.3,0.9,0.3c0.3,0,0.6,0,0.9-0.1
			c0.2-0.1,0.5-0.1,0.8-0.3l-0.1,1.4c-0.3,0.1-0.7,0.2-1,0.3s-0.7,0.1-1.2,0.1c-0.7,0-1.3-0.2-1.7-0.6c-0.4-0.4-0.6-1.1-0.6-2.1
			v-7.9h-1.4v-1.4h1.4v-3.6l1.7-0.9v4.5h2.9v1.4H249.8z"/>
		<path id="XMLID_124_" class="st1" d="M263.3,43v-6.9c0-1.3-0.2-2.2-0.7-2.8s-1.1-0.9-2.1-0.9c-0.8,0-1.5,0.3-2.1,0.9
			s-0.8,1.5-0.8,2.8V43H256V27.7l1.7-0.9l0,6c0.3-0.5,0.8-0.9,1.3-1.2c0.5-0.3,1.2-0.5,1.9-0.5c0.6,0,1.2,0.1,1.7,0.3
			c0.5,0.2,0.9,0.5,1.3,0.9c0.4,0.4,0.6,0.9,0.8,1.5c0.2,0.6,0.3,1.3,0.3,2.2V43H263.3z"/>
		<path id="XMLID_121_" class="st1" d="M277.5,36.8c0,0.2,0,0.4,0,0.5s0,0.3-0.1,0.4h-7.8c0.1,1.3,0.4,2.3,1,3
			c0.6,0.7,1.3,1.1,2.3,1.1c0.7,0,1.3-0.1,1.7-0.3c0.5-0.2,1-0.5,1.5-0.8l0.8,1.2c-0.4,0.2-0.7,0.4-1,0.6c-0.3,0.2-0.6,0.3-1,0.4
			c-0.3,0.1-0.7,0.2-1,0.3c-0.4,0.1-0.8,0.1-1.2,0.1c-0.5,0-1.1-0.1-1.6-0.3c-0.6-0.2-1.1-0.6-1.5-1c-0.5-0.5-0.8-1.1-1.1-1.9
			s-0.5-1.8-0.5-2.9c0-0.9,0.1-1.8,0.4-2.5s0.6-1.4,1-1.9c0.4-0.5,0.9-0.9,1.5-1.2c0.6-0.3,1.2-0.4,1.9-0.4c0.8,0,1.4,0.1,2,0.4
			c0.6,0.3,1.1,0.7,1.5,1.2c0.4,0.5,0.7,1.1,0.9,1.8C277.4,35.2,277.5,36,277.5,36.8z M276,36.4c-0.1-1.2-0.4-2.1-0.9-2.8
			c-0.5-0.7-1.3-1.1-2.3-1.1c-0.9,0-1.6,0.3-2.1,1s-0.9,1.6-1,2.9H276z"/>
		<path id="XMLID_119_" class="st1" d="M286.6,33c-0.2-0.1-0.5-0.2-0.8-0.3s-0.6-0.1-1-0.1c-0.8,0-1.4,0.3-1.9,0.9
			c-0.4,0.6-0.7,1.5-0.7,2.6V43h-1.7V31.3h1.7v1.4c0.3-0.5,0.7-0.9,1.2-1.2c0.5-0.3,1.1-0.5,1.7-0.5c0.4,0,0.8,0,1.1,0.1
			c0.3,0.1,0.5,0.1,0.7,0.2L286.6,33z"/>
		<path id="XMLID_116_" class="st1" d="M296.4,43v-1.4c-0.4,0.4-0.9,0.8-1.5,1.2s-1.3,0.5-2.2,0.5c-0.5,0-0.9-0.1-1.4-0.2
			s-0.8-0.3-1.2-0.6c-0.4-0.3-0.6-0.7-0.9-1.1c-0.2-0.5-0.3-1.1-0.3-1.8c0-0.7,0.1-1.2,0.4-1.7c0.3-0.5,0.6-0.9,1-1.2
			c0.4-0.3,0.9-0.5,1.4-0.7c0.5-0.1,1.1-0.2,1.7-0.2c0.6,0,1.1,0.1,1.6,0.2c0.5,0.1,0.9,0.3,1.3,0.5v-1.4c0-1.7-0.8-2.6-2.5-2.6
			c-0.6,0-1.2,0.1-1.7,0.2c-0.5,0.2-1,0.4-1.5,0.7l-0.6-1.4c0.5-0.3,1.1-0.5,1.8-0.7c0.7-0.2,1.4-0.3,2.1-0.3c1.3,0,2.3,0.3,3,0.9
			s1.1,1.6,1.1,2.9V43H296.4z M296.4,37.8c-0.4-0.2-0.8-0.4-1.3-0.5c-0.5-0.1-1-0.2-1.7-0.2c-0.9,0-1.5,0.2-2,0.6
			c-0.5,0.4-0.7,1-0.7,1.7c0,0.9,0.2,1.5,0.7,1.9c0.4,0.4,1,0.6,1.7,0.6c0.8,0,1.4-0.2,2-0.5c0.6-0.3,1-0.8,1.4-1.2V37.8z"/>
		<path id="XMLID_113_" class="st1" d="M311.1,37c0,1-0.1,2-0.3,2.7c-0.2,0.8-0.5,1.4-0.9,2c-0.4,0.5-0.9,0.9-1.4,1.2
			c-0.5,0.3-1.1,0.4-1.7,0.4c-0.7,0-1.4-0.1-1.9-0.4c-0.5-0.3-1-0.7-1.4-1.1v4.7l-1.7,0.9v-16h1.7l0,1.4c0.4-0.4,0.9-0.8,1.5-1.2
			c0.6-0.3,1.2-0.5,2.1-0.5c0.6,0,1.1,0.1,1.6,0.3c0.5,0.2,1,0.6,1.3,1.1c0.4,0.5,0.7,1.1,0.9,1.8C311,35,311.1,35.9,311.1,37z
			 M309.5,37c0-1.5-0.3-2.6-0.8-3.4c-0.5-0.8-1.2-1.1-2.2-1.1c-0.6,0-1.2,0.2-1.7,0.5c-0.5,0.3-1,0.7-1.4,1.2v5.9
			c0.3,0.5,0.8,0.9,1.3,1.3c0.5,0.3,1.2,0.5,1.9,0.5c1,0,1.7-0.4,2.2-1.2S309.5,38.6,309.5,37z"/>
		<path id="XMLID_111_" class="st1" d="M317.5,47.1h-1.7l1.6-4.3l-4.2-11.6h1.8l2.9,8.5l0.4,1.2l0.4-1.2l2.9-8.5h1.8L317.5,47.1z"/>
		<path id="XMLID_108_" class="st1" d="M334,28c0,0.3-0.1,0.6-0.3,0.8s-0.5,0.3-0.8,0.3c-0.3,0-0.6-0.1-0.9-0.3
			c-0.2-0.2-0.4-0.5-0.4-0.8c0-0.3,0.1-0.6,0.4-0.9c0.2-0.2,0.5-0.3,0.9-0.3c0.3,0,0.6,0.1,0.8,0.3S334,27.7,334,28z M331.9,43V31.3
			h1.7V43H331.9z"/>
		<path id="XMLID_106_" class="st1" d="M344.8,43v-6.9c0-1.3-0.2-2.2-0.7-2.8s-1.1-0.9-2.1-0.9c-0.8,0-1.5,0.3-2.1,0.9
			s-0.8,1.5-0.8,2.8V43h-1.7V31.3h1.7l0,1.4c0.3-0.5,0.8-0.9,1.3-1.2c0.5-0.3,1.2-0.5,1.9-0.5c0.6,0,1.2,0.1,1.7,0.3
			c0.5,0.2,0.9,0.5,1.3,0.9c0.4,0.4,0.6,0.9,0.8,1.5c0.2,0.6,0.3,1.3,0.3,2.2V43H344.8z"/>
		<path id="XMLID_104_" class="st1" d="M365.1,38.5c0,1.5-0.5,2.6-1.5,3.5c-1,0.8-2.3,1.2-4.1,1.2c-0.5,0-1-0.1-1.4-0.2
			c-0.5-0.1-0.9-0.3-1.3-0.5c-0.4-0.2-0.8-0.4-1.1-0.7c-0.3-0.3-0.7-0.5-0.9-0.8l1.2-1.2c0.5,0.5,1.1,0.9,1.7,1.3
			c0.6,0.3,1.3,0.5,2.1,0.5c1.3,0,2.2-0.3,2.8-0.8c0.6-0.5,0.9-1.3,0.9-2.3c0-1-0.3-1.7-1-2.2c-0.7-0.5-1.6-0.7-2.7-0.7h-1v-1.5h1.1
			c1,0,1.8-0.3,2.3-0.8c0.5-0.5,0.7-1.2,0.7-2c0-0.4-0.1-0.7-0.2-1c-0.1-0.3-0.3-0.6-0.5-0.8c-0.3-0.2-0.6-0.4-1-0.6
			c-0.4-0.1-0.9-0.2-1.5-0.2c-0.7,0-1.3,0.1-1.8,0.4c-0.5,0.3-1,0.6-1.4,1l-1.1-1.1c0.2-0.2,0.5-0.5,0.8-0.7c0.3-0.2,0.6-0.4,1-0.6
			c0.4-0.2,0.8-0.3,1.2-0.4c0.4-0.1,0.9-0.2,1.3-0.2c0.7,0,1.3,0.1,1.9,0.2c0.6,0.2,1.1,0.4,1.5,0.7c0.4,0.3,0.8,0.8,1,1.2
			c0.2,0.5,0.4,1.1,0.4,1.8c0,1-0.2,1.7-0.6,2.3s-0.9,1-1.6,1.4c0.4,0.1,0.7,0.2,1.1,0.4c0.3,0.2,0.6,0.4,0.9,0.7
			c0.3,0.3,0.5,0.7,0.6,1.1C365,37.4,365.1,37.9,365.1,38.5z"/>
		<path id="XMLID_102_" class="st1" d="M367.4,43c0-1,0.2-1.8,0.4-2.6c0.3-0.7,0.6-1.4,1-2c0.4-0.6,0.9-1.1,1.5-1.6
			c0.6-0.5,1.3-1,2-1.5c0.7-0.5,1.2-0.9,1.7-1.2c0.4-0.3,0.8-0.7,1-1c0.3-0.3,0.4-0.6,0.5-0.9c0.1-0.3,0.1-0.6,0.1-1
			c0-0.8-0.3-1.4-0.8-1.9c-0.5-0.5-1.3-0.7-2.4-0.7c-0.9,0-1.6,0.1-2.2,0.4c-0.6,0.3-1.1,0.6-1.6,1l-1-1.3c0.3-0.3,0.6-0.5,1-0.7
			s0.7-0.4,1.1-0.6c0.4-0.2,0.8-0.3,1.3-0.4c0.5-0.1,1-0.1,1.5-0.1c0.7,0,1.3,0.1,1.9,0.2c0.6,0.2,1.1,0.4,1.5,0.7
			c0.4,0.3,0.8,0.8,1,1.3s0.4,1.1,0.4,1.8c0,0.6-0.1,1.1-0.2,1.5c-0.1,0.4-0.4,0.8-0.7,1.2c-0.3,0.4-0.7,0.8-1.2,1.1
			c-0.5,0.4-1.1,0.8-1.8,1.3c-0.8,0.5-1.4,1-2,1.4c-0.5,0.4-0.9,0.8-1.2,1.2s-0.5,0.8-0.7,1.1c-0.1,0.4-0.3,0.8-0.3,1.2h8.3V43
			H367.4z"/>
		<path id="XMLID_99_" class="st1" d="M390.1,39.3V43h-1.6v-3.7h-8.3v-1.4l8.1-10.5h1.9v10.4h2.1v1.5H390.1z M388.5,30.9v-1.4
			c-0.1,0.2-0.3,0.4-0.4,0.6c-0.2,0.2-0.4,0.5-0.6,0.7c-0.2,0.3-0.4,0.5-0.6,0.8c-0.2,0.3-0.4,0.5-0.6,0.8l-2.1,2.7
			c-0.2,0.2-0.3,0.4-0.5,0.7c-0.2,0.2-0.4,0.5-0.6,0.7c-0.2,0.2-0.4,0.5-0.6,0.7c-0.2,0.2-0.3,0.4-0.5,0.6h1.4h5V30.9z"/>
		<path id="XMLID_96_" class="st1" d="M410.2,37c0,1-0.1,2-0.3,2.7c-0.2,0.8-0.5,1.4-0.9,2c-0.4,0.5-0.9,0.9-1.4,1.2
			c-0.5,0.3-1.1,0.4-1.7,0.4c-0.7,0-1.4-0.1-1.9-0.4c-0.5-0.3-1-0.7-1.4-1.1v4.7l-1.7,0.9v-16h1.7l0,1.4c0.4-0.4,0.9-0.8,1.5-1.2
			c0.6-0.3,1.2-0.5,2.1-0.5c0.6,0,1.1,0.1,1.6,0.3c0.5,0.2,1,0.6,1.3,1.1c0.4,0.5,0.7,1.1,0.9,1.8C410.1,35,410.2,35.9,410.2,37z
			 M408.6,37c0-1.5-0.3-2.6-0.8-3.4c-0.5-0.8-1.2-1.1-2.2-1.1c-0.6,0-1.2,0.2-1.7,0.5c-0.5,0.3-1,0.7-1.4,1.2v5.9
			c0.3,0.5,0.8,0.9,1.3,1.3c0.5,0.3,1.2,0.5,1.9,0.5c1,0,1.7-0.4,2.2-1.2S408.6,38.6,408.6,37z"/>
		<path id="XMLID_93_" class="st1" d="M420,43v-1.4c-0.4,0.4-0.9,0.8-1.5,1.2s-1.3,0.5-2.2,0.5c-0.5,0-0.9-0.1-1.4-0.2
			s-0.8-0.3-1.2-0.6c-0.4-0.3-0.6-0.7-0.9-1.1c-0.2-0.5-0.3-1.1-0.3-1.8c0-0.7,0.1-1.2,0.4-1.7c0.3-0.5,0.6-0.9,1-1.2
			c0.4-0.3,0.9-0.5,1.4-0.7c0.5-0.1,1.1-0.2,1.7-0.2c0.6,0,1.1,0.1,1.6,0.2c0.5,0.1,0.9,0.3,1.3,0.5v-1.4c0-1.7-0.8-2.6-2.5-2.6
			c-0.6,0-1.2,0.1-1.7,0.2c-0.5,0.2-1,0.4-1.5,0.7l-0.6-1.4c0.5-0.3,1.1-0.5,1.8-0.7c0.7-0.2,1.4-0.3,2.1-0.3c1.3,0,2.3,0.3,3,0.9
			s1.1,1.6,1.1,2.9V43H420z M420,37.8c-0.4-0.2-0.8-0.4-1.3-0.5c-0.5-0.1-1-0.2-1.7-0.2c-0.9,0-1.5,0.2-2,0.6
			c-0.5,0.4-0.7,1-0.7,1.7c0,0.9,0.2,1.5,0.7,1.9c0.4,0.4,1,0.6,1.7,0.6c0.8,0,1.4-0.2,2-0.5c0.6-0.3,1-0.8,1.4-1.2V37.8z"/>
		<path id="XMLID_91_" class="st1" d="M427.5,32.7v7.6c0,0.5,0.1,0.9,0.3,1.1c0.2,0.2,0.5,0.3,0.9,0.3c0.3,0,0.6,0,0.9-0.1
			c0.2-0.1,0.5-0.1,0.8-0.3l-0.1,1.4c-0.3,0.1-0.7,0.2-1,0.3s-0.7,0.1-1.2,0.1c-0.7,0-1.3-0.2-1.7-0.6c-0.4-0.4-0.6-1.1-0.6-2.1
			v-7.9h-1.4v-1.4h1.4v-3.6l1.7-0.9v4.5h2.9v1.4H427.5z"/>
		<path id="XMLID_88_" class="st1" d="M435.7,28c0,0.3-0.1,0.6-0.3,0.8s-0.5,0.3-0.8,0.3c-0.3,0-0.6-0.1-0.9-0.3
			c-0.2-0.2-0.4-0.5-0.4-0.8c0-0.3,0.1-0.6,0.4-0.9c0.2-0.2,0.5-0.3,0.9-0.3c0.3,0,0.6,0.1,0.8,0.3S435.7,27.7,435.7,28z M433.7,43
			V31.3h1.7V43H433.7z"/>
		<path id="XMLID_85_" class="st1" d="M448.1,36.8c0,0.2,0,0.4,0,0.5s0,0.3-0.1,0.4h-7.8c0.1,1.3,0.4,2.3,1,3
			c0.6,0.7,1.3,1.1,2.3,1.1c0.7,0,1.3-0.1,1.7-0.3c0.5-0.2,1-0.5,1.5-0.8l0.8,1.2c-0.4,0.2-0.7,0.4-1,0.6c-0.3,0.2-0.6,0.3-1,0.4
			c-0.3,0.1-0.7,0.2-1,0.3c-0.4,0.1-0.8,0.1-1.2,0.1c-0.5,0-1.1-0.1-1.6-0.3c-0.6-0.2-1.1-0.6-1.5-1c-0.5-0.5-0.8-1.1-1.1-1.9
			s-0.5-1.8-0.5-2.9c0-0.9,0.1-1.8,0.4-2.5s0.6-1.4,1-1.9c0.4-0.5,0.9-0.9,1.5-1.2c0.6-0.3,1.2-0.4,1.9-0.4c0.8,0,1.4,0.1,2,0.4
			c0.6,0.3,1.1,0.7,1.5,1.2c0.4,0.5,0.7,1.1,0.9,1.8C448,35.2,448.1,36,448.1,36.8z M446.5,36.4c-0.1-1.2-0.4-2.1-0.9-2.8
			c-0.5-0.7-1.3-1.1-2.3-1.1c-0.9,0-1.6,0.3-2.1,1s-0.9,1.6-1,2.9H446.5z"/>
		<path id="XMLID_83_" class="st1" d="M458.6,43v-6.9c0-1.3-0.2-2.2-0.7-2.8s-1.1-0.9-2.1-0.9c-0.8,0-1.5,0.3-2.1,0.9
			s-0.8,1.5-0.8,2.8V43h-1.7V31.3h1.7l0,1.4c0.3-0.5,0.8-0.9,1.3-1.2c0.5-0.3,1.2-0.5,1.9-0.5c0.6,0,1.2,0.1,1.7,0.3
			c0.5,0.2,0.9,0.5,1.3,0.9c0.4,0.4,0.6,0.9,0.8,1.5c0.2,0.6,0.3,1.3,0.3,2.2V43H458.6z"/>
		<path id="XMLID_81_" class="st1" d="M466,32.7v7.6c0,0.5,0.1,0.9,0.3,1.1c0.2,0.2,0.5,0.3,0.9,0.3c0.3,0,0.6,0,0.9-0.1
			c0.2-0.1,0.5-0.1,0.8-0.3l-0.1,1.4c-0.3,0.1-0.7,0.2-1,0.3s-0.7,0.1-1.2,0.1c-0.7,0-1.3-0.2-1.7-0.6c-0.4-0.4-0.6-1.1-0.6-2.1
			v-7.9h-1.4v-1.4h1.4v-3.6l1.7-0.9v4.5h2.9v1.4H466z"/>
		<path id="XMLID_79_" class="st1" d="M479.4,39.9c0,0.6-0.1,1.1-0.3,1.5c-0.2,0.4-0.5,0.8-0.9,1s-0.8,0.5-1.3,0.6s-1,0.2-1.5,0.2
			c-0.8,0-1.5-0.1-2.2-0.4c-0.7-0.3-1.3-0.6-1.9-1.1l1-1.2c0.5,0.4,1,0.7,1.5,1c0.5,0.2,1.1,0.3,1.7,0.3c0.8,0,1.4-0.2,1.8-0.5
			c0.4-0.3,0.6-0.8,0.6-1.3c0-0.2,0-0.5-0.1-0.6c-0.1-0.2-0.3-0.4-0.5-0.6c-0.2-0.2-0.5-0.4-0.8-0.6c-0.3-0.2-0.8-0.4-1.3-0.6
			c-0.6-0.3-1.1-0.5-1.5-0.7s-0.8-0.5-1-0.7s-0.5-0.6-0.6-0.9c-0.1-0.3-0.2-0.7-0.2-1.2c0-0.4,0.1-0.9,0.3-1.2
			c0.2-0.4,0.4-0.7,0.8-0.9c0.3-0.3,0.7-0.5,1.1-0.6c0.4-0.1,0.9-0.2,1.5-0.2c0.8,0,1.5,0.1,2.1,0.3c0.6,0.2,1.2,0.5,1.6,0.9
			l-0.9,1.2c-0.5-0.4-0.9-0.6-1.3-0.8c-0.4-0.2-1-0.3-1.6-0.3s-1.1,0.1-1.4,0.4c-0.3,0.3-0.5,0.6-0.5,1c0,0.3,0,0.5,0.1,0.6
			s0.2,0.4,0.4,0.5s0.5,0.3,0.8,0.5c0.3,0.2,0.7,0.4,1.2,0.6c0.5,0.3,1,0.5,1.5,0.7c0.4,0.2,0.8,0.5,1.1,0.7s0.5,0.6,0.7,1
			C479.3,39,479.4,39.4,479.4,39.9z"/>
		<path id="XMLID_77_" class="st1" d="M498.6,43h-1.5l-2.1-7.8c0-0.1-0.1-0.2-0.1-0.4s-0.1-0.3-0.1-0.4c0-0.2-0.1-0.3-0.1-0.5
			s-0.1-0.3-0.1-0.4c0,0.1,0,0.2-0.1,0.4s-0.1,0.3-0.1,0.5c0,0.2-0.1,0.3-0.1,0.4s-0.1,0.3-0.1,0.4l-2.1,7.8h-1.5l-3.1-11.7h1.7
			l1.8,7.7c0,0.1,0,0.2,0.1,0.4c0,0.1,0.1,0.3,0.1,0.4s0.1,0.3,0.1,0.5c0,0.1,0,0.3,0.1,0.4c0-0.1,0-0.2,0.1-0.4s0.1-0.3,0.1-0.5
			c0-0.2,0.1-0.3,0.1-0.4s0.1-0.3,0.1-0.4l2.1-7.7h1.5l2.1,7.7c0,0.1,0.1,0.2,0.1,0.4c0,0.1,0.1,0.3,0.1,0.4s0.1,0.3,0.1,0.5
			c0,0.1,0.1,0.3,0.1,0.4c0-0.1,0-0.2,0.1-0.4s0.1-0.3,0.1-0.5c0-0.2,0.1-0.3,0.1-0.4c0-0.1,0-0.3,0.1-0.4l1.8-7.7h1.7L498.6,43z"/>
		<path id="XMLID_74_" class="st1" d="M506.8,28c0,0.3-0.1,0.6-0.3,0.8s-0.5,0.3-0.8,0.3c-0.3,0-0.6-0.1-0.9-0.3
			c-0.2-0.2-0.4-0.5-0.4-0.8c0-0.3,0.1-0.6,0.4-0.9c0.2-0.2,0.5-0.3,0.9-0.3c0.3,0,0.6,0.1,0.8,0.3S506.8,27.7,506.8,28z M504.7,43
			V31.3h1.7V43H504.7z"/>
		<path id="XMLID_72_" class="st1" d="M512.4,32.7v7.6c0,0.5,0.1,0.9,0.3,1.1c0.2,0.2,0.5,0.3,0.9,0.3c0.3,0,0.6,0,0.9-0.1
			c0.2-0.1,0.5-0.1,0.8-0.3l-0.1,1.4c-0.3,0.1-0.7,0.2-1,0.3s-0.7,0.1-1.2,0.1c-0.7,0-1.3-0.2-1.7-0.6c-0.4-0.4-0.6-1.1-0.6-2.1
			v-7.9h-1.4v-1.4h1.4v-3.6l1.7-0.9v4.5h2.9v1.4H512.4z"/>
		<path id="XMLID_70_" class="st1" d="M525.9,43v-6.9c0-1.3-0.2-2.2-0.7-2.8s-1.1-0.9-2.1-0.9c-0.8,0-1.5,0.3-2.1,0.9
			s-0.8,1.5-0.8,2.8V43h-1.7V27.7l1.7-0.9l0,6c0.3-0.5,0.8-0.9,1.3-1.2c0.5-0.3,1.2-0.5,1.9-0.5c0.6,0,1.2,0.1,1.7,0.3
			c0.5,0.2,0.9,0.5,1.3,0.9c0.4,0.4,0.6,0.9,0.8,1.5c0.2,0.6,0.3,1.3,0.3,2.2V43H525.9z"/>
		<path id="XMLID_68_" class="st1" d="M543,33c-0.2-0.1-0.5-0.2-0.8-0.3s-0.6-0.1-1-0.1c-0.8,0-1.4,0.3-1.9,0.9
			c-0.4,0.6-0.7,1.5-0.7,2.6V43H537V31.3h1.7v1.4c0.3-0.5,0.7-0.9,1.2-1.2c0.5-0.3,1.1-0.5,1.7-0.5c0.4,0,0.8,0,1.1,0.1
			c0.3,0.1,0.5,0.1,0.7,0.2L543,33z"/>
		<path id="XMLID_65_" class="st1" d="M554.9,36.8c0,0.2,0,0.4,0,0.5s0,0.3-0.1,0.4h-7.8c0.1,1.3,0.4,2.3,1,3
			c0.6,0.7,1.3,1.1,2.3,1.1c0.7,0,1.3-0.1,1.7-0.3c0.5-0.2,1-0.5,1.5-0.8l0.8,1.2c-0.4,0.2-0.7,0.4-1,0.6c-0.3,0.2-0.6,0.3-1,0.4
			c-0.3,0.1-0.7,0.2-1,0.3c-0.4,0.1-0.8,0.1-1.2,0.1c-0.5,0-1.1-0.1-1.6-0.3c-0.6-0.2-1.1-0.6-1.5-1c-0.5-0.5-0.8-1.1-1.1-1.9
			s-0.5-1.8-0.5-2.9c0-0.9,0.1-1.8,0.4-2.5s0.6-1.4,1-1.9c0.4-0.5,0.9-0.9,1.5-1.2c0.6-0.3,1.2-0.4,1.9-0.4c0.8,0,1.4,0.1,2,0.4
			c0.6,0.3,1.1,0.7,1.5,1.2c0.4,0.5,0.7,1.1,0.9,1.8C554.8,35.2,554.9,36,554.9,36.8z M553.4,36.4c-0.1-1.2-0.4-2.1-0.9-2.8
			c-0.5-0.7-1.3-1.1-2.3-1.1c-0.9,0-1.6,0.3-2.1,1s-0.9,1.6-1,2.9H553.4z"/>
		<path id="XMLID_63_" class="st1" d="M561.8,28.3c-0.3,0-0.6,0.1-0.9,0.2s-0.3,0.5-0.3,1v1.7h2.3v1.4h-2.3V43h-1.7V32.7h-1.6v-1.4
			h1.6v-1.6c0-1,0.3-1.8,0.8-2.2c0.5-0.4,1.2-0.7,2-0.7c0.3,0,0.6,0,0.8,0c0.2,0,0.4,0.1,0.6,0.2v1.6
			C562.7,28.4,562.3,28.3,561.8,28.3z"/>
		<path id="XMLID_61_" class="st1" d="M572,33c-0.2-0.1-0.5-0.2-0.8-0.3s-0.6-0.1-1-0.1c-0.8,0-1.4,0.3-1.9,0.9
			c-0.4,0.6-0.7,1.5-0.7,2.6V43H566V31.3h1.7v1.4c0.3-0.5,0.7-0.9,1.2-1.2c0.5-0.3,1.1-0.5,1.7-0.5c0.4,0,0.8,0,1.1,0.1
			c0.3,0.1,0.5,0.1,0.7,0.2L572,33z"/>
		<path id="XMLID_58_" class="st1" d="M581.8,43v-1.4c-0.4,0.4-0.9,0.8-1.5,1.2s-1.3,0.5-2.2,0.5c-0.5,0-0.9-0.1-1.4-0.2
			s-0.8-0.3-1.2-0.6c-0.4-0.3-0.6-0.7-0.9-1.1c-0.2-0.5-0.3-1.1-0.3-1.8c0-0.7,0.1-1.2,0.4-1.7c0.3-0.5,0.6-0.9,1-1.2
			c0.4-0.3,0.9-0.5,1.4-0.7c0.5-0.1,1.1-0.2,1.7-0.2c0.6,0,1.1,0.1,1.6,0.2c0.5,0.1,0.9,0.3,1.3,0.5v-1.4c0-1.7-0.8-2.6-2.5-2.6
			c-0.6,0-1.2,0.1-1.7,0.2c-0.5,0.2-1,0.4-1.5,0.7l-0.6-1.4c0.5-0.3,1.1-0.5,1.8-0.7c0.7-0.2,1.4-0.3,2.1-0.3c1.3,0,2.3,0.3,3,0.9
			s1.1,1.6,1.1,2.9V43H581.8z M581.8,37.8c-0.4-0.2-0.8-0.4-1.3-0.5c-0.5-0.1-1-0.2-1.7-0.2c-0.9,0-1.5,0.2-2,0.6
			c-0.5,0.4-0.7,1-0.7,1.7c0,0.9,0.2,1.5,0.7,1.9c0.4,0.4,1,0.6,1.7,0.6c0.8,0,1.4-0.2,2-0.5c0.6-0.3,1-0.8,1.4-1.2V37.8z"/>
		<path id="XMLID_56_" class="st1" d="M594.2,33.7c-0.4-0.4-0.9-0.7-1.3-0.9c-0.4-0.2-0.9-0.3-1.5-0.3c-0.5,0-0.9,0.1-1.3,0.3
			c-0.4,0.2-0.7,0.5-1,0.9c-0.3,0.4-0.5,0.9-0.7,1.4c-0.2,0.6-0.2,1.2-0.2,1.9c0,1.4,0.3,2.6,0.9,3.5s1.4,1.3,2.4,1.3
			c0.6,0,1.1-0.1,1.5-0.3c0.4-0.2,0.8-0.5,1.2-0.9l1,1.1c-0.5,0.5-1,0.9-1.6,1.2c-0.6,0.3-1.3,0.4-2.1,0.4c-0.6,0-1.3-0.1-1.9-0.4
			s-1.1-0.6-1.6-1.1c-0.5-0.5-0.8-1.1-1.1-1.9c-0.3-0.8-0.4-1.6-0.4-2.7c0-1.1,0.1-2,0.4-2.8c0.3-0.8,0.7-1.4,1.2-1.9s1-0.9,1.6-1.1
			s1.2-0.4,1.8-0.4c0.8,0,1.5,0.1,2.1,0.4c0.6,0.3,1.1,0.6,1.6,1L594.2,33.7z"/>
		<path id="XMLID_54_" class="st1" d="M600.3,32.7v7.6c0,0.5,0.1,0.9,0.3,1.1c0.2,0.2,0.5,0.3,0.9,0.3c0.3,0,0.6,0,0.9-0.1
			c0.2-0.1,0.5-0.1,0.8-0.3l-0.1,1.4c-0.3,0.1-0.7,0.2-1,0.3s-0.7,0.1-1.2,0.1c-0.7,0-1.3-0.2-1.7-0.6c-0.4-0.4-0.6-1.1-0.6-2.1
			v-7.9h-1.4v-1.4h1.4v-3.6l1.7-0.9v4.5h2.9v1.4H600.3z"/>
		<path id="XMLID_51_" class="st1" d="M616,37.1c0,1-0.1,1.9-0.4,2.6c-0.3,0.8-0.6,1.4-1.1,1.9c-0.5,0.5-1,0.9-1.6,1.2
			c-0.6,0.3-1.3,0.4-2,0.4c-0.7,0-1.4-0.1-2-0.4s-1.2-0.6-1.6-1.2c-0.4-0.5-0.8-1.1-1.1-1.9c-0.3-0.8-0.4-1.6-0.4-2.6
			s0.1-1.9,0.4-2.6c0.3-0.8,0.6-1.4,1.1-1.9s1-0.9,1.6-1.2s1.3-0.4,2-0.4s1.4,0.1,2,0.4c0.6,0.3,1.2,0.6,1.6,1.1
			c0.4,0.5,0.8,1.1,1.1,1.9C615.9,35.2,616,36.1,616,37.1z M614.3,37.1c0-1.6-0.3-2.7-0.9-3.5c-0.6-0.8-1.4-1.2-2.5-1.2
			s-1.8,0.4-2.5,1.2s-0.9,1.9-0.9,3.5s0.3,2.7,0.9,3.5c0.6,0.8,1.4,1.2,2.5,1.2s1.9-0.4,2.5-1.2C614,39.8,614.3,38.7,614.3,37.1z"/>
		<path id="XMLID_49_" class="st1" d="M625,33c-0.2-0.1-0.5-0.2-0.8-0.3s-0.6-0.1-1-0.1c-0.8,0-1.4,0.3-1.9,0.9
			c-0.4,0.6-0.7,1.5-0.7,2.6V43H619V31.3h1.7v1.4c0.3-0.5,0.7-0.9,1.2-1.2c0.5-0.3,1.1-0.5,1.7-0.5c0.4,0,0.8,0,1.1,0.1
			c0.3,0.1,0.5,0.1,0.7,0.2L625,33z"/>
		<path id="XMLID_47_" class="st1" d="M631.4,47.1h-1.7l1.6-4.3l-4.2-11.6h1.8l2.9,8.5l0.4,1.2l0.4-1.2l2.9-8.5h1.8L631.4,47.1z"/>
		<path id="XMLID_44_" class="st1" d="M655.1,37c0,1-0.1,2-0.3,2.7c-0.2,0.8-0.5,1.4-0.9,2c-0.4,0.5-0.9,0.9-1.4,1.2
			c-0.5,0.3-1.1,0.4-1.7,0.4c-0.7,0-1.4-0.1-1.9-0.4c-0.5-0.3-1-0.7-1.4-1.1v4.7l-1.7,0.9v-16h1.7l0,1.4c0.4-0.4,0.9-0.8,1.5-1.2
			c0.6-0.3,1.2-0.5,2.1-0.5c0.6,0,1.1,0.1,1.6,0.3c0.5,0.2,1,0.6,1.3,1.1c0.4,0.5,0.7,1.1,0.9,1.8C655,35,655.1,35.9,655.1,37z
			 M653.5,37c0-1.5-0.3-2.6-0.8-3.4c-0.5-0.8-1.2-1.1-2.2-1.1c-0.6,0-1.2,0.2-1.7,0.5c-0.5,0.3-1,0.7-1.4,1.2v5.9
			c0.3,0.5,0.8,0.9,1.3,1.3c0.5,0.3,1.2,0.5,1.9,0.5c1,0,1.7-0.4,2.2-1.2S653.5,38.6,653.5,37z"/>
		<path id="XMLID_41_" class="st1" d="M664.9,43v-1.4c-0.4,0.4-0.9,0.8-1.5,1.2s-1.3,0.5-2.2,0.5c-0.5,0-0.9-0.1-1.4-0.2
			s-0.8-0.3-1.2-0.6c-0.4-0.3-0.6-0.7-0.9-1.1c-0.2-0.5-0.3-1.1-0.3-1.8c0-0.7,0.1-1.2,0.4-1.7c0.3-0.5,0.6-0.9,1-1.2
			c0.4-0.3,0.9-0.5,1.4-0.7c0.5-0.1,1.1-0.2,1.7-0.2c0.6,0,1.1,0.1,1.6,0.2c0.5,0.1,0.9,0.3,1.3,0.5v-1.4c0-1.7-0.8-2.6-2.5-2.6
			c-0.6,0-1.2,0.1-1.7,0.2c-0.5,0.2-1,0.4-1.5,0.7l-0.6-1.4c0.5-0.3,1.1-0.5,1.8-0.7c0.7-0.2,1.4-0.3,2.1-0.3c1.3,0,2.3,0.3,3,0.9
			s1.1,1.6,1.1,2.9V43H664.9z M664.9,37.8c-0.4-0.2-0.8-0.4-1.3-0.5c-0.5-0.1-1-0.2-1.7-0.2c-0.9,0-1.5,0.2-2,0.6
			c-0.5,0.4-0.7,1-0.7,1.7c0,0.9,0.2,1.5,0.7,1.9c0.4,0.4,1,0.6,1.7,0.6c0.8,0,1.4-0.2,2-0.5c0.6-0.3,1-0.8,1.4-1.2V37.8z"/>
		<path id="XMLID_39_" class="st1" d="M676.2,33c-0.2-0.1-0.5-0.2-0.8-0.3s-0.6-0.1-1-0.1c-0.8,0-1.4,0.3-1.9,0.9
			c-0.4,0.6-0.7,1.5-0.7,2.6V43h-1.7V31.3h1.7v1.4c0.3-0.5,0.7-0.9,1.2-1.2c0.5-0.3,1.1-0.5,1.7-0.5c0.4,0,0.8,0,1.1,0.1
			c0.3,0.1,0.5,0.1,0.7,0.2L676.2,33z"/>
		<path id="XMLID_37_" class="st1" d="M681.5,32.7v7.6c0,0.5,0.1,0.9,0.3,1.1c0.2,0.2,0.5,0.3,0.9,0.3c0.3,0,0.6,0,0.9-0.1
			c0.2-0.1,0.5-0.1,0.8-0.3l-0.1,1.4c-0.3,0.1-0.7,0.2-1,0.3s-0.7,0.1-1.2,0.1c-0.7,0-1.3-0.2-1.7-0.6c-0.4-0.4-0.6-1.1-0.6-2.1
			v-7.9h-1.4v-1.4h1.4v-3.6l1.7-0.9v4.5h2.9v1.4H681.5z"/>
		<path id="XMLID_34_" class="st1" d="M689.7,28c0,0.3-0.1,0.6-0.3,0.8s-0.5,0.3-0.8,0.3c-0.3,0-0.6-0.1-0.9-0.3
			c-0.2-0.2-0.4-0.5-0.4-0.8c0-0.3,0.1-0.6,0.4-0.9c0.2-0.2,0.5-0.3,0.9-0.3c0.3,0,0.6,0.1,0.8,0.3S689.7,27.7,689.7,28z M687.7,43
			V31.3h1.7V43H687.7z"/>
		<path id="XMLID_31_" class="st1" d="M699.9,43v-1.4c-0.4,0.4-0.9,0.8-1.5,1.2s-1.3,0.5-2.2,0.5c-0.5,0-0.9-0.1-1.4-0.2
			s-0.8-0.3-1.2-0.6c-0.4-0.3-0.6-0.7-0.9-1.1c-0.2-0.5-0.3-1.1-0.3-1.8c0-0.7,0.1-1.2,0.4-1.7c0.3-0.5,0.6-0.9,1-1.2
			c0.4-0.3,0.9-0.5,1.4-0.7c0.5-0.1,1.1-0.2,1.7-0.2c0.6,0,1.1,0.1,1.6,0.2c0.5,0.1,0.9,0.3,1.3,0.5v-1.4c0-1.7-0.8-2.6-2.5-2.6
			c-0.6,0-1.2,0.1-1.7,0.2c-0.5,0.2-1,0.4-1.5,0.7l-0.6-1.4c0.5-0.3,1.1-0.5,1.8-0.7c0.7-0.2,1.4-0.3,2.1-0.3c1.3,0,2.3,0.3,3,0.9
			s1.1,1.6,1.1,2.9V43H699.9z M699.9,37.8c-0.4-0.2-0.8-0.4-1.3-0.5c-0.5-0.1-1-0.2-1.7-0.2c-0.9,0-1.5,0.2-2,0.6
			c-0.5,0.4-0.7,1-0.7,1.7c0,0.9,0.2,1.5,0.7,1.9c0.4,0.4,1,0.6,1.7,0.6c0.8,0,1.4-0.2,2-0.5c0.6-0.3,1-0.8,1.4-1.2V37.8z"/>
		<path id="XMLID_29_" class="st1" d="M705.3,43V27.7l1.7-0.9V43H705.3z"/>
		<path id="XMLID_27_" class="st1" d="M723.8,39.9c0,0.6-0.1,1.1-0.3,1.5c-0.2,0.4-0.5,0.8-0.9,1s-0.8,0.5-1.3,0.6
			c-0.5,0.1-1,0.2-1.5,0.2c-0.8,0-1.5-0.1-2.2-0.4c-0.7-0.3-1.3-0.6-1.9-1.1l1-1.2c0.5,0.4,1,0.7,1.5,1c0.5,0.2,1.1,0.3,1.7,0.3
			c0.8,0,1.4-0.2,1.8-0.5c0.4-0.3,0.6-0.8,0.6-1.3c0-0.2,0-0.5-0.1-0.6c-0.1-0.2-0.3-0.4-0.5-0.6c-0.2-0.2-0.5-0.4-0.8-0.6
			c-0.3-0.2-0.8-0.4-1.3-0.6c-0.6-0.3-1.1-0.5-1.5-0.7c-0.4-0.2-0.8-0.5-1-0.7s-0.5-0.6-0.6-0.9s-0.2-0.7-0.2-1.2
			c0-0.4,0.1-0.9,0.3-1.2c0.2-0.4,0.4-0.7,0.8-0.9c0.3-0.3,0.7-0.5,1.1-0.6c0.4-0.1,0.9-0.2,1.5-0.2c0.8,0,1.5,0.1,2.1,0.3
			c0.6,0.2,1.2,0.5,1.6,0.9l-0.9,1.2c-0.5-0.4-0.9-0.6-1.3-0.8c-0.4-0.2-1-0.3-1.6-0.3c-0.6,0-1.1,0.1-1.4,0.4
			c-0.3,0.3-0.5,0.6-0.5,1c0,0.3,0,0.5,0.1,0.6s0.2,0.4,0.4,0.5c0.2,0.2,0.5,0.3,0.8,0.5c0.3,0.2,0.7,0.4,1.2,0.6
			c0.5,0.3,1,0.5,1.5,0.7c0.4,0.2,0.8,0.5,1.1,0.7s0.5,0.6,0.7,1C723.8,39,723.8,39.4,723.8,39.9z"/>
		<path id="XMLID_24_" class="st1" d="M735.9,36.8c0,0.2,0,0.4,0,0.5s0,0.3-0.1,0.4h-7.8c0.1,1.3,0.4,2.3,1,3
			c0.6,0.7,1.3,1.1,2.3,1.1c0.7,0,1.3-0.1,1.7-0.3c0.5-0.2,1-0.5,1.5-0.8l0.8,1.2c-0.4,0.2-0.7,0.4-1,0.6c-0.3,0.2-0.6,0.3-1,0.4
			c-0.3,0.1-0.7,0.2-1,0.3c-0.4,0.1-0.8,0.1-1.2,0.1c-0.5,0-1.1-0.1-1.6-0.3s-1.1-0.6-1.5-1c-0.5-0.5-0.8-1.1-1.1-1.9
			s-0.5-1.8-0.5-2.9c0-0.9,0.1-1.8,0.4-2.5s0.6-1.4,1-1.9c0.4-0.5,0.9-0.9,1.5-1.2s1.2-0.4,1.9-0.4c0.8,0,1.4,0.1,2,0.4
			s1.1,0.7,1.5,1.2s0.7,1.1,0.9,1.8C735.8,35.2,735.9,36,735.9,36.8z M734.4,36.4c-0.1-1.2-0.4-2.1-0.9-2.8
			c-0.5-0.7-1.3-1.1-2.3-1.1c-0.9,0-1.6,0.3-2.1,1c-0.6,0.6-0.9,1.6-1,2.9H734.4z"/>
		<path id="XMLID_21_" class="st1" d="M741.2,28c0,0.3-0.1,0.6-0.3,0.8s-0.5,0.3-0.8,0.3c-0.3,0-0.6-0.1-0.9-0.3
			c-0.2-0.2-0.4-0.5-0.4-0.8c0-0.3,0.1-0.6,0.4-0.9c0.2-0.2,0.5-0.3,0.9-0.3c0.3,0,0.6,0.1,0.8,0.3S741.2,27.7,741.2,28z M739.1,43
			V31.3h1.7V43H739.1z"/>
		<path id="XMLID_19_" class="st1" d="M744,43v-1.2l6.4-9.1h-5.9v-1.4h7.8v1.2l-6.4,9.1h6.4V43H744z"/>
		<path id="XMLID_17_" class="st1" d="M762.9,43v-1.4c-0.3,0.5-0.8,0.9-1.3,1.2c-0.5,0.3-1.2,0.5-1.9,0.5c-0.6,0-1.2-0.1-1.7-0.3
			c-0.5-0.2-0.9-0.5-1.3-0.9c-0.4-0.4-0.6-0.9-0.8-1.5c-0.2-0.6-0.3-1.3-0.3-2.2v-7.1h1.7v6.9c0,1.3,0.2,2.2,0.7,2.8
			c0.5,0.6,1.1,0.9,2.1,0.9c0.8,0,1.5-0.3,2.1-0.9c0.6-0.6,0.8-1.5,0.8-2.8v-6.9h1.7V43H762.9z"/>
		<path id="XMLID_15_" class="st1" d="M774.2,33c-0.2-0.1-0.5-0.2-0.8-0.3c-0.3-0.1-0.6-0.1-1-0.1c-0.8,0-1.4,0.3-1.9,0.9
			s-0.7,1.5-0.7,2.6V43h-1.7V31.3h1.7v1.4c0.3-0.5,0.7-0.9,1.2-1.2c0.5-0.3,1.1-0.5,1.7-0.5c0.4,0,0.8,0,1.1,0.1
			c0.3,0.1,0.5,0.1,0.7,0.2L774.2,33z"/>
		<path id="XMLID_12_" class="st1" d="M786.2,36.8c0,0.2,0,0.4,0,0.5s0,0.3-0.1,0.4h-7.8c0.1,1.3,0.4,2.3,1,3
			c0.6,0.7,1.3,1.1,2.3,1.1c0.7,0,1.3-0.1,1.7-0.3c0.5-0.2,1-0.5,1.5-0.8l0.8,1.2c-0.4,0.2-0.7,0.4-1,0.6c-0.3,0.2-0.6,0.3-1,0.4
			c-0.3,0.1-0.7,0.2-1,0.3c-0.4,0.1-0.8,0.1-1.2,0.1c-0.5,0-1.1-0.1-1.6-0.3s-1.1-0.6-1.5-1c-0.5-0.5-0.8-1.1-1.1-1.9
			s-0.5-1.8-0.5-2.9c0-0.9,0.1-1.8,0.4-2.5s0.6-1.4,1-1.9c0.4-0.5,0.9-0.9,1.5-1.2s1.2-0.4,1.9-0.4c0.8,0,1.4,0.1,2,0.4
			s1.1,0.7,1.5,1.2s0.7,1.1,0.9,1.8C786.1,35.2,786.2,36,786.2,36.8z M784.7,36.4c-0.1-1.2-0.4-2.1-0.9-2.8
			c-0.5-0.7-1.3-1.1-2.3-1.1c-0.9,0-1.6,0.3-2.1,1c-0.6,0.6-0.9,1.6-1,2.9H784.7z"/>
		<path id="XMLID_10_" class="st1" d="M796.6,39.9c0,0.6-0.1,1.1-0.3,1.5c-0.2,0.4-0.5,0.8-0.9,1s-0.8,0.5-1.3,0.6
			c-0.5,0.1-1,0.2-1.5,0.2c-0.8,0-1.5-0.1-2.2-0.4c-0.7-0.3-1.3-0.6-1.9-1.1l1-1.2c0.5,0.4,1,0.7,1.5,1c0.5,0.2,1.1,0.3,1.7,0.3
			c0.8,0,1.4-0.2,1.8-0.5c0.4-0.3,0.6-0.8,0.6-1.3c0-0.2,0-0.5-0.1-0.6c-0.1-0.2-0.3-0.4-0.5-0.6c-0.2-0.2-0.5-0.4-0.8-0.6
			c-0.3-0.2-0.8-0.4-1.3-0.6c-0.6-0.3-1.1-0.5-1.5-0.7c-0.4-0.2-0.8-0.5-1-0.7s-0.5-0.6-0.6-0.9s-0.2-0.7-0.2-1.2
			c0-0.4,0.1-0.9,0.3-1.2c0.2-0.4,0.4-0.7,0.8-0.9c0.3-0.3,0.7-0.5,1.1-0.6c0.4-0.1,0.9-0.2,1.5-0.2c0.8,0,1.5,0.1,2.1,0.3
			c0.6,0.2,1.2,0.5,1.6,0.9l-0.9,1.2c-0.5-0.4-0.9-0.6-1.3-0.8c-0.4-0.2-1-0.3-1.6-0.3c-0.6,0-1.1,0.1-1.4,0.4
			c-0.3,0.3-0.5,0.6-0.5,1c0,0.3,0,0.5,0.1,0.6s0.2,0.4,0.4,0.5c0.2,0.2,0.5,0.3,0.8,0.5c0.3,0.2,0.7,0.4,1.2,0.6
			c0.5,0.3,1,0.5,1.5,0.7c0.4,0.2,0.8,0.5,1.1,0.7s0.5,0.6,0.7,1C796.5,39,796.6,39.4,796.6,39.9z"/>
		<path id="XMLID_8_" class="st1" d="M801.4,37c-0.3-0.3-0.7-0.6-1-1s-0.6-0.8-0.8-1.2c-0.2-0.4-0.4-0.9-0.6-1.4
			c-0.1-0.5-0.2-1.1-0.2-1.7c0-0.6,0.1-1.2,0.2-1.7c0.1-0.5,0.3-1,0.6-1.5c0.2-0.4,0.5-0.9,0.8-1.2s0.6-0.7,1-1l0.4,0.4
			c-0.3,0.3-0.6,0.7-0.8,1c-0.3,0.4-0.5,0.7-0.7,1.1c-0.2,0.4-0.3,0.8-0.4,1.3c-0.1,0.5-0.1,1-0.1,1.5c0,0.5,0,1.1,0.1,1.5
			c0.1,0.5,0.2,0.9,0.4,1.3c0.2,0.4,0.4,0.8,0.7,1.1c0.3,0.4,0.5,0.7,0.8,1L801.4,37z"/>
		<path id="XMLID_6_" class="st1" d="M804.3,35.6v-7.3h-1.7v-0.6c0.5,0,0.9-0.1,1.3-0.3c0.3-0.2,0.5-0.5,0.6-0.9h0.8v9.1H804.3z"/>
		<path id="XMLID_4_" class="st1" d="M810.2,31.6c0,0.6-0.1,1.2-0.2,1.7c-0.2,0.5-0.3,1-0.6,1.5s-0.5,0.9-0.8,1.2
			c-0.3,0.4-0.6,0.7-1,1l-0.4-0.4c0.6-0.6,1.1-1.3,1.5-2.2c0.4-0.8,0.6-1.7,0.6-2.8c0-0.5,0-1.1-0.1-1.5s-0.2-0.9-0.4-1.3
			c-0.2-0.4-0.4-0.8-0.7-1.1c-0.3-0.4-0.5-0.7-0.8-1l0.4-0.4c0.3,0.3,0.7,0.6,1,1c0.3,0.4,0.6,0.8,0.8,1.2s0.4,0.9,0.6,1.4
			C810.1,30.4,810.2,31,810.2,31.6z"/>
	</g>
</g>
</svg>
