<!-- Generator: Adobe Illustrator 22.1.0, SVG Export Plug-In  -->
<svg version="1.1"
	 xmlns="http://www.w3.org/2000/svg" xmlns:xlink="http://www.w3.org/1999/xlink" xmlns:a="http://ns.adobe.com/AdobeSVGViewerExtensions/3.0/"
	 x="0px" y="0px" width="429.3px" height="248.9px" viewBox="0 0 429.3 248.9" style="enable-background:new 0 0 429.3 248.9;"
	 xml:space="preserve">
<style type="text/css">
	.st0{fill:#532D6D;}
	.st1{fill:#FFFFFF;}
	.st2{fill:#595A5C;}
	.st3{fill:url(#XMLID_603_);}
	.st4{fill:url(#XMLID_604_);}
	.st5{fill:none;stroke:#BDBEC1;stroke-width:0.1618;}
	.st6{fill:url(#XMLID_605_);}
	.st7{fill:url(#XMLID_606_);}
	.st8{fill:none;stroke:#532D6D;stroke-width:0.9187;}
	.st9{fill:url(#XMLID_607_);}
	.st10{fill:url(#XMLID_608_);}
	.st11{fill:url(#XMLID_609_);}
	.st12{fill:url(#XMLID_610_);}
</style>
<defs>
</defs>
<path id="XMLID_602_" class="st0" d="M362.3,13.6c0-7.5-6.1-13.6-13.6-13.6H28c-7.5,0-13.6,6.1-13.6,13.6l0,0
	c0,7.5,6.1,13.6,13.6,13.6h320.7C356.2,27.3,362.3,21.2,362.3,13.6L362.3,13.6z"/>
<g id="XMLID_458_">
	<g>
		<path id="XMLID_528_" class="st1" d="M76.8,13.4c0,0.8-0.1,1.6-0.3,2.2c-0.2,0.7-0.5,1.3-0.9,1.7c-0.4,0.5-0.9,0.9-1.5,1.1
			c-0.6,0.3-1.2,0.4-2,0.4s-1.4-0.1-2-0.4c-0.6-0.3-1.1-0.6-1.5-1.1c-0.4-0.5-0.7-1.1-0.9-1.7c-0.2-0.7-0.3-1.4-0.3-2.2
			s0.1-1.6,0.3-2.2c0.2-0.7,0.5-1.3,0.9-1.7c0.4-0.5,0.9-0.9,1.5-1.1s1.2-0.4,2-0.4s1.4,0.1,2,0.4s1.1,0.6,1.5,1.1
			c0.4,0.5,0.7,1.1,0.9,1.7C76.7,11.9,76.8,12.6,76.8,13.4z M74.6,13.4c0-0.5,0-0.9-0.1-1.3c-0.1-0.4-0.2-0.8-0.4-1.1
			c-0.2-0.3-0.5-0.5-0.8-0.7C73,10.1,72.6,10,72.2,10s-0.8,0.1-1.1,0.3c-0.3,0.2-0.6,0.4-0.8,0.7c-0.2,0.3-0.3,0.7-0.4,1.1
			c-0.1,0.4-0.1,0.9-0.1,1.3c0,0.5,0,0.9,0.1,1.3c0.1,0.4,0.2,0.8,0.4,1.1c0.2,0.3,0.5,0.5,0.8,0.7c0.3,0.2,0.7,0.3,1.1,0.3
			s0.8-0.1,1.1-0.3c0.3-0.2,0.6-0.4,0.8-0.7c0.2-0.3,0.3-0.7,0.4-1.1C74.6,14.3,74.6,13.9,74.6,13.4z"/>
		<path id="XMLID_526_" class="st1" d="M83,18.7h-2.2l-2.9-8h2.3l1.2,3.7c0.1,0.3,0.2,0.6,0.3,1c0.1,0.3,0.2,0.6,0.2,0.8
			c0.1-0.2,0.1-0.5,0.2-0.8c0.1-0.3,0.2-0.6,0.3-1l1.2-3.7h2.2L83,18.7z"/>
		<path id="XMLID_523_" class="st1" d="M93.8,14.8c0,0.2,0,0.3,0,0.4c0,0.1,0,0.2,0,0.3H89c0,0.3,0.1,0.5,0.2,0.7
			c0.1,0.2,0.2,0.3,0.4,0.5c0.2,0.1,0.3,0.2,0.5,0.3c0.2,0.1,0.4,0.1,0.6,0.1c0.3,0,0.6-0.1,0.8-0.2c0.2-0.1,0.4-0.2,0.6-0.4
			l1.5,1.2c-0.3,0.4-0.7,0.7-1.3,1c-0.5,0.2-1.1,0.3-1.6,0.3c-0.6,0-1.1-0.1-1.6-0.3c-0.5-0.2-0.9-0.5-1.2-0.8
			c-0.3-0.4-0.6-0.8-0.7-1.3s-0.3-1.1-0.3-1.7c0-0.6,0.1-1.2,0.3-1.7c0.2-0.5,0.4-1,0.8-1.3c0.3-0.4,0.7-0.7,1.1-0.9
			c0.4-0.2,0.9-0.3,1.4-0.3c0.5,0,1,0.1,1.4,0.3c0.4,0.2,0.8,0.5,1.1,0.9c0.3,0.4,0.5,0.8,0.7,1.3C93.7,13.7,93.8,14.2,93.8,14.8z
			 M91.8,13.8c0-0.2-0.1-0.4-0.1-0.5c-0.1-0.2-0.2-0.3-0.3-0.5c-0.1-0.1-0.3-0.2-0.4-0.3c-0.2-0.1-0.4-0.1-0.6-0.1
			c-0.4,0-0.7,0.1-0.9,0.4c-0.2,0.3-0.4,0.6-0.4,1H91.8z"/>
		<path id="XMLID_521_" class="st1" d="M100.1,13.2c-0.2-0.2-0.4-0.3-0.6-0.4c-0.2-0.1-0.4-0.1-0.7-0.1c-0.2,0-0.4,0-0.6,0.1
			c-0.2,0.1-0.3,0.1-0.4,0.3c-0.1,0.1-0.2,0.3-0.3,0.5c-0.1,0.2-0.1,0.5-0.1,0.9v4.3h-2.1v-8h2.1v0.5c0.2-0.2,0.4-0.4,0.7-0.5
			s0.6-0.2,1-0.2c0.3,0,0.6,0.1,0.9,0.2c0.2,0.1,0.4,0.2,0.6,0.4L100.1,13.2z"/>
		<path id="XMLID_518_" class="st1" d="M106.4,18.7v-0.5c-0.2,0.2-0.4,0.4-0.8,0.5c-0.3,0.1-0.7,0.2-1,0.2s-0.7-0.1-1.1-0.2
			c-0.4-0.1-0.7-0.3-1-0.5c-0.3-0.2-0.5-0.5-0.7-0.9c-0.2-0.4-0.3-0.8-0.3-1.3c0-0.4,0.1-0.8,0.3-1.2c0.2-0.3,0.4-0.6,0.7-0.8
			c0.3-0.2,0.6-0.4,1-0.5c0.4-0.1,0.8-0.2,1.3-0.2c0.4,0,0.7,0,0.9,0.1c0.2,0.1,0.5,0.1,0.6,0.2v-0.4c0-0.3-0.1-0.5-0.3-0.7
			c-0.2-0.2-0.5-0.3-0.9-0.3c-0.2,0-0.5,0-0.6,0c-0.2,0-0.4,0.1-0.5,0.1c-0.2,0-0.3,0.1-0.5,0.2c-0.2,0.1-0.3,0.1-0.5,0.3l-0.8-1.5
			c0.2-0.1,0.5-0.2,0.7-0.3s0.4-0.2,0.7-0.3s0.5-0.1,0.8-0.2c0.3,0,0.6-0.1,0.9-0.1c0.5,0,0.9,0.1,1.3,0.2c0.4,0.1,0.7,0.3,1,0.5
			c0.3,0.2,0.5,0.5,0.7,0.9s0.2,0.7,0.2,1.2v5.4H106.4z M106.4,15.4c-0.2-0.1-0.4-0.2-0.6-0.3c-0.2-0.1-0.5-0.1-0.9-0.1
			c-0.4,0-0.7,0.1-0.9,0.3c-0.2,0.2-0.3,0.4-0.3,0.7c0,0.3,0.1,0.5,0.3,0.7c0.2,0.2,0.5,0.3,0.9,0.3c0.3,0,0.6-0.1,0.9-0.2
			c0.3-0.1,0.4-0.3,0.6-0.5V15.4z"/>
		<path id="XMLID_516_" class="st1" d="M110.5,18.7v-10l2.1-1v11.1H110.5z"/>
		<path id="XMLID_514_" class="st1" d="M114.8,18.7v-10l2.1-1v11.1H114.8z"/>
		<path id="XMLID_512_" class="st1" d="M129.7,16.4c0,0.5-0.1,0.8-0.3,1.2c-0.2,0.3-0.4,0.6-0.7,0.8c-0.3,0.2-0.6,0.3-1,0.4
			c-0.4,0.1-0.8,0.1-1.3,0.1c-0.6,0-1.2-0.1-1.8-0.3c-0.6-0.2-1.1-0.4-1.5-0.7l0.7-1.6c0.4,0.2,0.9,0.4,1.3,0.5
			c0.5,0.1,0.9,0.2,1.5,0.2c0.4,0,0.7-0.1,0.8-0.2c0.1-0.1,0.2-0.3,0.2-0.5c0-0.2-0.1-0.3-0.3-0.4s-0.5-0.2-0.9-0.4
			c-0.5-0.1-0.9-0.3-1.3-0.4c-0.4-0.1-0.7-0.3-1-0.5c-0.3-0.2-0.5-0.4-0.6-0.7c-0.1-0.3-0.2-0.6-0.2-1.1c0-0.4,0.1-0.8,0.2-1.1
			c0.2-0.3,0.4-0.5,0.7-0.7c0.3-0.2,0.6-0.3,1-0.4s0.8-0.1,1.3-0.1c0.5,0,1,0.1,1.5,0.2c0.5,0.1,1,0.3,1.4,0.6l-0.7,1.7
			c-0.4-0.2-0.8-0.4-1.2-0.5c-0.4-0.1-0.8-0.2-1.1-0.2c-0.4,0-0.7,0-0.9,0.1c-0.1,0.1-0.2,0.2-0.2,0.4c0,0.1,0,0.2,0.1,0.2
			c0,0.1,0.1,0.1,0.2,0.2s0.3,0.1,0.5,0.2c0.2,0.1,0.5,0.2,0.9,0.3c0.4,0.1,0.7,0.2,1,0.4c0.3,0.1,0.6,0.3,0.9,0.5
			c0.2,0.2,0.4,0.4,0.6,0.7C129.6,15.7,129.7,16,129.7,16.4z"/>
		<path id="XMLID_509_" class="st1" d="M138.1,14.8c0,0.2,0,0.3,0,0.4c0,0.1,0,0.2,0,0.3h-4.8c0,0.3,0.1,0.5,0.2,0.7
			c0.1,0.2,0.2,0.3,0.4,0.5c0.2,0.1,0.3,0.2,0.5,0.3c0.2,0.1,0.4,0.1,0.6,0.1c0.3,0,0.6-0.1,0.8-0.2c0.2-0.1,0.4-0.2,0.6-0.4
			l1.5,1.2c-0.3,0.4-0.7,0.7-1.3,1c-0.5,0.2-1.1,0.3-1.6,0.3c-0.6,0-1.1-0.1-1.6-0.3c-0.5-0.2-0.9-0.5-1.2-0.8
			c-0.3-0.4-0.6-0.8-0.7-1.3s-0.3-1.1-0.3-1.7c0-0.6,0.1-1.2,0.3-1.7c0.2-0.5,0.4-1,0.8-1.3c0.3-0.4,0.7-0.7,1.1-0.9
			c0.4-0.2,0.9-0.3,1.4-0.3c0.5,0,1,0.1,1.4,0.3c0.4,0.2,0.8,0.5,1.1,0.9c0.3,0.4,0.5,0.8,0.7,1.3C138,13.7,138.1,14.2,138.1,14.8z
			 M136,13.8c0-0.2-0.1-0.4-0.1-0.5c-0.1-0.2-0.2-0.3-0.3-0.5c-0.1-0.1-0.3-0.2-0.4-0.3c-0.2-0.1-0.4-0.1-0.6-0.1
			c-0.4,0-0.7,0.1-0.9,0.4c-0.2,0.3-0.4,0.6-0.4,1H136z"/>
		<path id="XMLID_506_" class="st1" d="M142.1,8.9c0,0.3-0.1,0.6-0.4,0.8c-0.2,0.2-0.5,0.4-0.8,0.4s-0.6-0.1-0.8-0.4
			c-0.2-0.2-0.4-0.5-0.4-0.8s0.1-0.6,0.4-0.8c0.2-0.2,0.5-0.4,0.8-0.4s0.6,0.1,0.8,0.4C141.9,8.3,142.1,8.6,142.1,8.9z M139.8,18.7
			v-8h2.1v8H139.8z"/>
		<path id="XMLID_504_" class="st1" d="M143.9,18.7v-1.5l2.9-3.5c0.2-0.2,0.3-0.4,0.5-0.6c0.2-0.2,0.4-0.4,0.5-0.5
			c-0.1,0-0.2,0-0.3,0c-0.1,0-0.2,0-0.3,0c-0.1,0-0.2,0-0.4,0c-0.1,0-0.2,0-0.3,0h-2.3v-1.9h6.3v1.5l-2.8,3.5
			c-0.2,0.2-0.3,0.4-0.5,0.6s-0.3,0.4-0.5,0.5c0.1,0,0.2,0,0.3,0c0.1,0,0.2,0,0.3,0c0.1,0,0.2,0,0.4,0c0.1,0,0.2,0,0.3,0h2.5v1.9
			H143.9z"/>
		<path id="XMLID_502_" class="st1" d="M157.2,18.7v-0.5c-0.2,0.2-0.4,0.4-0.8,0.5s-0.7,0.2-1.1,0.2c-1,0-1.8-0.3-2.2-1
			c-0.5-0.7-0.7-1.5-0.7-2.7v-4.5h2.1v4.3c0,0.4,0,0.7,0.1,0.9c0.1,0.2,0.1,0.4,0.3,0.6c0.1,0.1,0.3,0.2,0.4,0.3
			c0.2,0.1,0.4,0.1,0.6,0.1c0.4,0,0.8-0.1,1-0.4s0.4-0.7,0.4-1.4v-4.4h2.1v8H157.2z"/>
		<path id="XMLID_500_" class="st1" d="M166,13.2c-0.2-0.2-0.4-0.3-0.6-0.4c-0.2-0.1-0.4-0.1-0.7-0.1c-0.2,0-0.4,0-0.6,0.1
			c-0.2,0.1-0.3,0.1-0.4,0.3c-0.1,0.1-0.2,0.3-0.3,0.5c-0.1,0.2-0.1,0.5-0.1,0.9v4.3h-2.1v-8h2.1v0.5c0.2-0.2,0.4-0.4,0.7-0.5
			s0.6-0.2,1-0.2c0.3,0,0.6,0.1,0.9,0.2c0.2,0.1,0.4,0.2,0.6,0.4L166,13.2z"/>
		<path id="XMLID_497_" class="st1" d="M174.3,14.8c0,0.2,0,0.3,0,0.4c0,0.1,0,0.2,0,0.3h-4.8c0,0.3,0.1,0.5,0.2,0.7
			c0.1,0.2,0.2,0.3,0.4,0.5c0.2,0.1,0.3,0.2,0.5,0.3c0.2,0.1,0.4,0.1,0.6,0.1c0.3,0,0.6-0.1,0.8-0.2c0.2-0.1,0.4-0.2,0.6-0.4
			l1.5,1.2c-0.3,0.4-0.7,0.7-1.3,1c-0.5,0.2-1.1,0.3-1.6,0.3c-0.6,0-1.1-0.1-1.6-0.3c-0.5-0.2-0.9-0.5-1.2-0.8
			c-0.3-0.4-0.6-0.8-0.7-1.3s-0.3-1.1-0.3-1.7c0-0.6,0.1-1.2,0.3-1.7c0.2-0.5,0.4-1,0.8-1.3c0.3-0.4,0.7-0.7,1.1-0.9
			c0.4-0.2,0.9-0.3,1.4-0.3c0.5,0,1,0.1,1.4,0.3c0.4,0.2,0.8,0.5,1.1,0.9c0.3,0.4,0.5,0.8,0.7,1.3C174.3,13.7,174.3,14.2,174.3,14.8
			z M172.3,13.8c0-0.2-0.1-0.4-0.1-0.5c-0.1-0.2-0.2-0.3-0.3-0.5c-0.1-0.1-0.3-0.2-0.4-0.3c-0.2-0.1-0.4-0.1-0.6-0.1
			c-0.4,0-0.7,0.1-0.9,0.4c-0.2,0.3-0.4,0.6-0.4,1H172.3z"/>
		<path id="XMLID_495_" class="st1" d="M184.2,9.5c-0.1,0-0.2,0-0.4,0c-0.3,0-0.5,0.1-0.6,0.2c-0.1,0.1-0.2,0.3-0.2,0.5v0.7h1.4v2
			H183v6h-2.1v-6h-1v-2h1v-1c0-0.7,0.2-1.3,0.6-1.6c0.4-0.3,1-0.5,1.7-0.5c0.5,0,1,0.1,1.3,0.2v1.7C184.4,9.6,184.3,9.5,184.2,9.5z"
			/>
		<path id="XMLID_493_" class="st1" d="M190.7,13.2c-0.2-0.2-0.4-0.3-0.6-0.4c-0.2-0.1-0.4-0.1-0.7-0.1c-0.2,0-0.4,0-0.6,0.1
			c-0.2,0.1-0.3,0.1-0.4,0.3c-0.1,0.1-0.2,0.3-0.3,0.5c-0.1,0.2-0.1,0.5-0.1,0.9v4.3H186v-8h2.1v0.5c0.2-0.2,0.4-0.4,0.7-0.5
			s0.6-0.2,1-0.2c0.3,0,0.6,0.1,0.9,0.2c0.2,0.1,0.4,0.2,0.6,0.4L190.7,13.2z"/>
		<path id="XMLID_490_" class="st1" d="M199,14.8c0,0.2,0,0.3,0,0.4c0,0.1,0,0.2,0,0.3h-4.8c0,0.3,0.1,0.5,0.2,0.7
			c0.1,0.2,0.2,0.3,0.4,0.5c0.2,0.1,0.3,0.2,0.5,0.3c0.2,0.1,0.4,0.1,0.6,0.1c0.3,0,0.6-0.1,0.8-0.2c0.2-0.1,0.4-0.2,0.6-0.4
			l1.5,1.2c-0.3,0.4-0.7,0.7-1.3,1c-0.5,0.2-1.1,0.3-1.6,0.3c-0.6,0-1.1-0.1-1.6-0.3c-0.5-0.2-0.9-0.5-1.2-0.8
			c-0.3-0.4-0.6-0.8-0.7-1.3s-0.3-1.1-0.3-1.7c0-0.6,0.1-1.2,0.3-1.7c0.2-0.5,0.4-1,0.8-1.3c0.3-0.4,0.7-0.7,1.1-0.9
			c0.4-0.2,0.9-0.3,1.4-0.3c0.5,0,1,0.1,1.4,0.3c0.4,0.2,0.8,0.5,1.1,0.9c0.3,0.4,0.5,0.8,0.7,1.3C199,13.7,199,14.2,199,14.8z
			 M197,13.8c0-0.2-0.1-0.4-0.1-0.5c-0.1-0.2-0.2-0.3-0.3-0.5c-0.1-0.1-0.3-0.2-0.4-0.3c-0.2-0.1-0.4-0.1-0.6-0.1
			c-0.4,0-0.7,0.1-0.9,0.4c-0.2,0.3-0.4,0.6-0.4,1H197z"/>
		<path id="XMLID_487_" class="st1" d="M207.2,14.8c0,0.2,0,0.3,0,0.4c0,0.1,0,0.2,0,0.3h-4.8c0,0.3,0.1,0.5,0.2,0.7
			c0.1,0.2,0.2,0.3,0.4,0.5c0.2,0.1,0.3,0.2,0.5,0.3c0.2,0.1,0.4,0.1,0.6,0.1c0.3,0,0.6-0.1,0.8-0.2c0.2-0.1,0.4-0.2,0.6-0.4
			l1.5,1.2c-0.3,0.4-0.7,0.7-1.3,1c-0.5,0.2-1.1,0.3-1.6,0.3c-0.6,0-1.1-0.1-1.6-0.3c-0.5-0.2-0.9-0.5-1.2-0.8
			c-0.3-0.4-0.6-0.8-0.7-1.3s-0.3-1.1-0.3-1.7c0-0.6,0.1-1.2,0.3-1.7c0.2-0.5,0.4-1,0.8-1.3c0.3-0.4,0.7-0.7,1.1-0.9
			c0.4-0.2,0.9-0.3,1.4-0.3c0.5,0,1,0.1,1.4,0.3c0.4,0.2,0.8,0.5,1.1,0.9c0.3,0.4,0.5,0.8,0.7,1.3C207.1,13.7,207.2,14.2,207.2,14.8
			z M205.2,13.8c0-0.2-0.1-0.4-0.1-0.5c-0.1-0.2-0.2-0.3-0.3-0.5c-0.1-0.1-0.3-0.2-0.4-0.3c-0.2-0.1-0.4-0.1-0.6-0.1
			c-0.4,0-0.7,0.1-0.9,0.4c-0.2,0.3-0.4,0.6-0.4,1H205.2z"/>
		<path id="XMLID_484_" class="st1" d="M213.3,18.7v-0.5c-0.2,0.2-0.4,0.3-0.7,0.5s-0.6,0.2-1,0.2c-0.4,0-0.8-0.1-1.2-0.2
			c-0.4-0.2-0.7-0.4-1-0.8c-0.3-0.3-0.5-0.8-0.7-1.3c-0.2-0.5-0.2-1.2-0.2-1.9c0-0.6,0.1-1.1,0.2-1.6c0.1-0.5,0.3-0.9,0.6-1.3
			c0.3-0.4,0.6-0.6,1-0.8c0.4-0.2,0.8-0.3,1.3-0.3c0.4,0,0.7,0.1,1,0.2c0.3,0.1,0.5,0.3,0.7,0.4V8.7l2.1-1v11.1H213.3z M213.3,13.3
			c-0.3-0.5-0.8-0.7-1.4-0.7c-0.8,0-1.2,0.7-1.2,2c0,0.8,0.1,1.4,0.4,1.8c0.2,0.4,0.6,0.5,1,0.5c0.3,0,0.6-0.1,0.8-0.2
			s0.4-0.3,0.5-0.5V13.3z"/>
		<path id="XMLID_481_" class="st1" d="M224.2,14.8c0,0.6-0.1,1.2-0.3,1.7c-0.2,0.5-0.4,1-0.8,1.3s-0.7,0.6-1.1,0.9
			c-0.4,0.2-0.9,0.3-1.4,0.3s-1-0.1-1.4-0.3c-0.4-0.2-0.8-0.5-1.1-0.9s-0.6-0.8-0.8-1.3c-0.2-0.5-0.3-1.1-0.3-1.7s0.1-1.2,0.3-1.7
			c0.2-0.5,0.4-1,0.8-1.3c0.3-0.4,0.7-0.7,1.1-0.9c0.4-0.2,0.9-0.3,1.4-0.3s1,0.1,1.4,0.3c0.4,0.2,0.8,0.5,1.1,0.9
			c0.3,0.4,0.6,0.8,0.8,1.3C224.2,13.6,224.2,14.2,224.2,14.8z M222.1,14.8c0-0.6-0.1-1.1-0.4-1.5c-0.2-0.4-0.6-0.6-1.1-0.6
			s-0.9,0.2-1.1,0.6c-0.2,0.4-0.4,0.9-0.4,1.5s0.1,1.1,0.4,1.5c0.2,0.4,0.6,0.6,1.1,0.6c0.3,0,0.5-0.1,0.7-0.2s0.3-0.3,0.5-0.5
			c0.1-0.2,0.2-0.4,0.3-0.7S222.1,15,222.1,14.8z"/>
		<path id="XMLID_479_" class="st1" d="M235.2,18.7v-4.3c0-0.7-0.1-1.2-0.3-1.5c-0.2-0.3-0.5-0.4-1-0.4s-0.8,0.1-1,0.4
			s-0.3,0.7-0.3,1.4v4.4h-2.1v-4.3c0-0.7-0.1-1.2-0.3-1.5c-0.2-0.3-0.5-0.4-1-0.4s-0.8,0.1-1,0.4s-0.3,0.7-0.3,1.4v4.4h-2.1v-8h2.1
			v0.5c0.2-0.2,0.4-0.4,0.7-0.5c0.3-0.1,0.6-0.2,1.1-0.2c0.5,0,0.9,0.1,1.3,0.2c0.3,0.2,0.6,0.4,0.9,0.8c0.3-0.3,0.6-0.5,1-0.7
			s0.9-0.3,1.6-0.3c0.5,0,0.9,0.1,1.3,0.3c0.4,0.2,0.7,0.4,0.9,0.7c0.2,0.3,0.4,0.7,0.5,1.2c0.1,0.5,0.2,1,0.2,1.5v4.5H235.2z"/>
		<path id="XMLID_476_" class="st1" d="M248.1,18.7v-0.5c-0.2,0.2-0.4,0.4-0.8,0.5c-0.3,0.1-0.7,0.2-1,0.2s-0.7-0.1-1.1-0.2
			c-0.4-0.1-0.7-0.3-1-0.5c-0.3-0.2-0.5-0.5-0.7-0.9c-0.2-0.4-0.3-0.8-0.3-1.3c0-0.4,0.1-0.8,0.3-1.2c0.2-0.3,0.4-0.6,0.7-0.8
			c0.3-0.2,0.6-0.4,1-0.5c0.4-0.1,0.8-0.2,1.3-0.2c0.4,0,0.7,0,0.9,0.1c0.2,0.1,0.5,0.1,0.6,0.2v-0.4c0-0.3-0.1-0.5-0.3-0.7
			c-0.2-0.2-0.5-0.3-0.9-0.3c-0.2,0-0.5,0-0.6,0c-0.2,0-0.4,0.1-0.5,0.1c-0.2,0-0.3,0.1-0.5,0.2c-0.2,0.1-0.3,0.1-0.5,0.3l-0.8-1.5
			c0.2-0.1,0.5-0.2,0.7-0.3s0.4-0.2,0.7-0.3s0.5-0.1,0.8-0.2c0.3,0,0.6-0.1,0.9-0.1c0.5,0,0.9,0.1,1.3,0.2c0.4,0.1,0.7,0.3,1,0.5
			c0.3,0.2,0.5,0.5,0.7,0.9s0.2,0.7,0.2,1.2v5.4H248.1z M248.1,15.4c-0.2-0.1-0.4-0.2-0.6-0.3c-0.2-0.1-0.5-0.1-0.9-0.1
			c-0.4,0-0.7,0.1-0.9,0.3c-0.2,0.2-0.3,0.4-0.3,0.7c0,0.3,0.1,0.5,0.3,0.7c0.2,0.2,0.5,0.3,0.9,0.3c0.3,0,0.6-0.1,0.9-0.2
			c0.3-0.1,0.4-0.3,0.6-0.5V15.4z"/>
		<path id="XMLID_474_" class="st1" d="M256.6,18.4c-0.2,0.1-0.4,0.3-0.7,0.3s-0.6,0.1-0.9,0.1c-0.3,0-0.6-0.1-0.9-0.2
			c-0.3-0.1-0.5-0.3-0.7-0.5s-0.3-0.5-0.4-0.8c-0.1-0.3-0.2-0.6-0.2-1v-3.8h-1.3v-2h1.3V8.7l2.1-1v3.1h1.9v2h-1.9v3.2
			c0,0.4,0.1,0.6,0.2,0.8c0.1,0.1,0.3,0.2,0.6,0.2c0.2,0,0.4,0,0.5-0.1c0.2-0.1,0.4-0.2,0.6-0.5L256.6,18.4z"/>
		<path id="XMLID_471_" class="st1" d="M271.7,15.3c0,0.6-0.1,1.1-0.3,1.6c-0.2,0.5-0.5,0.8-0.9,1.1c-0.4,0.3-0.9,0.5-1.4,0.7
			c-0.5,0.2-1.1,0.2-1.8,0.2c-0.6,0-1.2-0.1-1.7-0.3c-0.5-0.2-1-0.4-1.3-0.8s-0.7-0.8-0.9-1.3s-0.3-1.2-0.3-1.9c0-0.5,0-1,0.1-1.5
			c0.1-0.5,0.3-1,0.5-1.5c0.2-0.5,0.5-1,0.9-1.4c0.4-0.5,0.8-0.8,1.3-1.2c0.5-0.3,1.2-0.6,1.9-0.8c0.7-0.2,1.5-0.3,2.4-0.3V10
			c-1.2,0-2.2,0.2-3,0.6c-0.8,0.4-1.3,1-1.6,1.9c0.3-0.2,0.7-0.4,1.1-0.5c0.4-0.1,0.8-0.2,1.4-0.2c0.5,0,1,0.1,1.5,0.2
			c0.5,0.1,0.9,0.3,1.2,0.6c0.3,0.3,0.6,0.6,0.8,1.1C271.6,14.2,271.7,14.7,271.7,15.3z M269.5,15.3c0-0.5-0.2-0.9-0.6-1.2
			c-0.4-0.3-0.9-0.4-1.6-0.4c-0.7,0-1.3,0.1-1.7,0.4c-0.4,0.3-0.6,0.7-0.6,1.2c0,0.5,0.2,0.9,0.5,1.2s0.9,0.4,1.6,0.4
			c0.7,0,1.3-0.1,1.6-0.4C269.3,16.2,269.5,15.8,269.5,15.3z"/>
		<path id="XMLID_469_" class="st1" d="M285.9,18.7v-3.9c0-0.1,0-0.3,0-0.5c0-0.2,0-0.5,0-0.7c0-0.2,0-0.5,0-0.7s0-0.4,0-0.5
			c-0.1,0.2-0.2,0.5-0.3,0.8c-0.1,0.3-0.3,0.7-0.4,1L283,19l-2.1-4.7c-0.1-0.3-0.3-0.6-0.4-1c-0.1-0.3-0.2-0.6-0.3-0.8
			c0,0.1,0,0.3,0,0.5s0,0.4,0,0.7c0,0.2,0,0.5,0,0.7c0,0.2,0,0.4,0,0.5v3.9h-2.1V8.1h2.1l2.2,4.8c0.1,0.2,0.1,0.3,0.2,0.5
			c0.1,0.2,0.1,0.3,0.2,0.5c0.1,0.2,0.1,0.3,0.2,0.5c0.1,0.1,0.1,0.3,0.1,0.3c0.1-0.2,0.2-0.5,0.3-0.8s0.3-0.7,0.4-1l2.1-4.8h2.1
			v10.6H285.9z"/>
		<path id="XMLID_466_" class="st1" d="M297.2,14.8c0,0.6-0.1,1.2-0.3,1.7c-0.2,0.5-0.4,1-0.8,1.3s-0.7,0.6-1.1,0.9
			c-0.4,0.2-0.9,0.3-1.4,0.3s-1-0.1-1.4-0.3c-0.4-0.2-0.8-0.5-1.1-0.9s-0.6-0.8-0.8-1.3c-0.2-0.5-0.3-1.1-0.3-1.7s0.1-1.2,0.3-1.7
			c0.2-0.5,0.4-1,0.8-1.3c0.3-0.4,0.7-0.7,1.1-0.9c0.4-0.2,0.9-0.3,1.4-0.3s1,0.1,1.4,0.3c0.4,0.2,0.8,0.5,1.1,0.9
			c0.3,0.4,0.6,0.8,0.8,1.3C297.1,13.6,297.2,14.2,297.2,14.8z M295.1,14.8c0-0.6-0.1-1.1-0.4-1.5c-0.2-0.4-0.6-0.6-1.1-0.6
			s-0.9,0.2-1.1,0.6c-0.2,0.4-0.4,0.9-0.4,1.5s0.1,1.1,0.4,1.5c0.2,0.4,0.6,0.6,1.1,0.6c0.3,0,0.5-0.1,0.7-0.2s0.3-0.3,0.5-0.5
			c0.1-0.2,0.2-0.4,0.3-0.7S295.1,15,295.1,14.8z"/>
		<path id="XMLID_464_" class="st1" d="M303.7,18.7v-4.3c0-0.7-0.1-1.2-0.3-1.5c-0.2-0.3-0.6-0.4-1-0.4s-0.8,0.1-1,0.4
			s-0.4,0.7-0.4,1.4v4.4h-2.1v-8h2.1v0.5c0.2-0.2,0.4-0.4,0.8-0.5s0.7-0.2,1.1-0.2c1,0,1.8,0.3,2.2,1c0.5,0.7,0.7,1.5,0.7,2.7v4.5
			H303.7z"/>
		<path id="XMLID_462_" class="st1" d="M312.2,18.4c-0.2,0.1-0.4,0.3-0.7,0.3s-0.6,0.1-0.9,0.1c-0.3,0-0.6-0.1-0.9-0.2
			c-0.3-0.1-0.5-0.3-0.7-0.5s-0.3-0.5-0.4-0.8c-0.1-0.3-0.2-0.6-0.2-1v-3.8h-1.3v-2h1.3V8.7l2.1-1v3.1h1.9v2h-1.9v3.2
			c0,0.4,0.1,0.6,0.2,0.8c0.1,0.1,0.3,0.2,0.6,0.2c0.2,0,0.4,0,0.5-0.1c0.2-0.1,0.4-0.2,0.6-0.5L312.2,18.4z"/>
		<path id="XMLID_460_" class="st1" d="M319.3,18.7v-4.3c0-0.7-0.1-1.2-0.3-1.5c-0.2-0.3-0.6-0.4-1-0.4s-0.8,0.1-1,0.4
			s-0.4,0.7-0.4,1.4v4.4h-2.1v-10l2.1-1v3.6c0.2-0.2,0.4-0.4,0.8-0.5s0.7-0.2,1.1-0.2c1,0,1.8,0.3,2.2,1c0.5,0.7,0.7,1.5,0.7,2.7
			v4.5H319.3z"/>
	</g>
</g>
<g id="XMLID_392_">
	<g>
		<path id="XMLID_423_" class="st2" d="M349.8,42.2c0,0.3,0,0.5-0.1,0.7s-0.2,0.4-0.4,0.5c-0.2,0.1-0.3,0.2-0.5,0.3
			c-0.2,0.1-0.4,0.1-0.7,0.1h-1.3v1.9H346v-5.1h2.2c0.2,0,0.5,0,0.7,0.1c0.2,0.1,0.4,0.2,0.5,0.3c0.1,0.1,0.3,0.3,0.3,0.5
			S349.8,42,349.8,42.2z M349,42.2c0-0.3-0.1-0.5-0.2-0.7c-0.2-0.2-0.4-0.2-0.6-0.2h-1.4v1.8h1.4c0.3,0,0.5-0.1,0.7-0.2
			C348.9,42.7,349,42.5,349,42.2z"/>
		<path id="XMLID_421_" class="st2" d="M354.5,45.8h-0.8l-1.4-3.9h0.8l0.7,2.1c0.1,0.2,0.1,0.4,0.2,0.5c0.1,0.2,0.1,0.3,0.1,0.4
			c0-0.1,0.1-0.2,0.1-0.4c0-0.2,0.1-0.3,0.2-0.5l0.7-2.1h0.8L354.5,45.8z"/>
		<path id="XMLID_418_" class="st2" d="M358.8,45.8v-0.4c-0.1,0.1-0.3,0.2-0.5,0.3c-0.2,0.1-0.4,0.1-0.6,0.1c-0.2,0-0.3,0-0.5-0.1
			c-0.2,0-0.3-0.1-0.4-0.2s-0.2-0.2-0.3-0.4c-0.1-0.2-0.1-0.4-0.1-0.6c0-0.2,0-0.4,0.1-0.6c0.1-0.2,0.2-0.3,0.3-0.4
			c0.1-0.1,0.3-0.2,0.5-0.2c0.2,0,0.4-0.1,0.6-0.1c0.4,0,0.6,0,0.9,0.1v-0.3c0-0.2-0.1-0.4-0.2-0.5c-0.1-0.1-0.3-0.2-0.5-0.2
			c-0.2,0-0.4,0-0.5,0.1s-0.3,0.1-0.5,0.2l-0.3-0.6c0.2-0.1,0.4-0.2,0.6-0.3c0.2-0.1,0.5-0.1,0.7-0.1c0.4,0,0.8,0.1,1,0.3
			c0.3,0.2,0.4,0.5,0.4,1v2.6H358.8z M358.8,44.1c-0.1-0.1-0.2-0.1-0.4-0.1s-0.3,0-0.5,0c-0.2,0-0.4,0.1-0.6,0.2
			c-0.1,0.1-0.2,0.2-0.2,0.4c0,0.2,0.1,0.3,0.2,0.5c0.1,0.1,0.3,0.2,0.6,0.2c0.2,0,0.4-0.1,0.6-0.2c0.2-0.1,0.3-0.2,0.4-0.3V44.1z"
			/>
		<path id="XMLID_416_" class="st2" d="M360.7,45.8v-5l0.8-0.4v5.4H360.7z"/>
		<path id="XMLID_414_" class="st2" d="M364.9,45.8v-0.4c-0.1,0.1-0.2,0.3-0.4,0.3s-0.4,0.1-0.6,0.1c-0.5,0-0.8-0.1-1-0.4
			c-0.2-0.3-0.3-0.7-0.3-1.3v-2.2h0.8v2.2c0,0.4,0.1,0.7,0.2,0.8s0.3,0.2,0.6,0.2c0.3,0,0.5-0.1,0.6-0.3c0.1-0.2,0.2-0.4,0.2-0.7
			v-2.2h0.8v3.8H364.9z"/>
		<path id="XMLID_411_" class="st2" d="M369.9,43.8c0,0.1,0,0.1,0,0.2s0,0.1,0,0.2h-2.5c0,0.2,0.1,0.3,0.1,0.5
			c0.1,0.1,0.1,0.2,0.2,0.3c0.1,0.1,0.2,0.1,0.3,0.2c0.1,0,0.2,0.1,0.3,0.1c0.2,0,0.3,0,0.4-0.1s0.3-0.1,0.4-0.2l0.4,0.5
			c-0.2,0.2-0.4,0.3-0.6,0.4c-0.2,0.1-0.5,0.1-0.8,0.1c-0.2,0-0.4,0-0.6-0.1c-0.2-0.1-0.4-0.2-0.5-0.4c-0.2-0.2-0.3-0.4-0.4-0.6
			s-0.1-0.5-0.1-0.9c0-0.3,0-0.6,0.1-0.9c0.1-0.2,0.2-0.5,0.3-0.6c0.1-0.2,0.3-0.3,0.5-0.4c0.2-0.1,0.4-0.1,0.7-0.1
			c0.3,0,0.5,0.1,0.7,0.2c0.2,0.1,0.4,0.2,0.5,0.4c0.1,0.2,0.2,0.4,0.3,0.6C369.9,43.3,369.9,43.5,369.9,43.8z M369.1,43.5
			c0-0.1,0-0.3-0.1-0.4c0-0.1-0.1-0.2-0.2-0.3c-0.1-0.1-0.2-0.2-0.3-0.2c-0.1-0.1-0.2-0.1-0.4-0.1c-0.3,0-0.5,0.1-0.6,0.3
			c-0.1,0.2-0.2,0.4-0.3,0.7H369.1z"/>
		<path id="XMLID_408_" class="st2" d="M372.9,42.8V42h3.2v0.7H372.9z M372.9,44.5v-0.7h3.2v0.7H372.9z"/>
		<path id="XMLID_405_" class="st2" d="M383.1,43.2c0,0.4,0,0.8-0.1,1.1c-0.1,0.3-0.2,0.6-0.4,0.8c-0.2,0.2-0.4,0.4-0.6,0.5
			s-0.5,0.2-0.9,0.2c-0.3,0-0.6-0.1-0.9-0.2s-0.5-0.3-0.6-0.5c-0.2-0.2-0.3-0.5-0.4-0.8c-0.1-0.3-0.1-0.7-0.1-1.1
			c0-0.4,0-0.7,0.1-1.1c0.1-0.3,0.2-0.6,0.4-0.8c0.2-0.2,0.4-0.4,0.6-0.6c0.3-0.1,0.5-0.2,0.9-0.2c0.3,0,0.6,0.1,0.9,0.2
			c0.3,0.1,0.5,0.3,0.6,0.5c0.2,0.2,0.3,0.5,0.4,0.8C383,42.5,383.1,42.8,383.1,43.2z M382.3,43.2c0-0.3,0-0.5-0.1-0.8
			c0-0.2-0.1-0.4-0.2-0.6s-0.2-0.3-0.4-0.4c-0.2-0.1-0.4-0.1-0.6-0.1c-0.2,0-0.4,0-0.6,0.1c-0.2,0.1-0.3,0.2-0.4,0.4
			c-0.1,0.2-0.2,0.4-0.2,0.6s-0.1,0.5-0.1,0.8s0,0.5,0.1,0.8c0,0.2,0.1,0.4,0.2,0.6c0.1,0.2,0.2,0.3,0.4,0.4
			c0.2,0.1,0.4,0.1,0.6,0.1c0.2,0,0.4,0,0.6-0.1c0.2-0.1,0.3-0.2,0.4-0.4c0.1-0.2,0.2-0.4,0.2-0.6C382.3,43.7,382.3,43.5,382.3,43.2
			z"/>
		<path id="XMLID_403_" class="st2" d="M385,45.3c0,0.2-0.1,0.3-0.2,0.4s-0.3,0.2-0.4,0.2c-0.2,0-0.3-0.1-0.4-0.2
			c-0.1-0.1-0.2-0.3-0.2-0.4c0-0.1,0-0.2,0-0.2c0-0.1,0.1-0.1,0.1-0.2c0.1-0.1,0.1-0.1,0.2-0.1c0.1,0,0.1,0,0.2,0c0.1,0,0.2,0,0.2,0
			s0.1,0.1,0.2,0.1c0.1,0.1,0.1,0.1,0.1,0.2C385,45.1,385,45.2,385,45.3z"/>
		<path id="XMLID_401_" class="st2" d="M385.7,45.8c0-0.4,0.1-0.7,0.2-1c0.1-0.3,0.3-0.5,0.4-0.7c0.2-0.2,0.4-0.4,0.6-0.6
			c0.2-0.2,0.5-0.3,0.7-0.5c0.2-0.1,0.3-0.2,0.4-0.3c0.1-0.1,0.2-0.2,0.3-0.2c0.1-0.1,0.1-0.2,0.1-0.2c0-0.1,0-0.2,0-0.3
			c0-0.2-0.1-0.4-0.2-0.5c-0.2-0.1-0.4-0.2-0.8-0.2c-0.2,0-0.4,0-0.7,0.1c-0.2,0.1-0.4,0.2-0.6,0.4l-0.5-0.6
			c0.2-0.2,0.5-0.4,0.8-0.5c0.3-0.1,0.6-0.2,0.9-0.2c0.5,0,1,0.1,1.3,0.3s0.5,0.6,0.5,1.1c0,0.2,0,0.4-0.1,0.5
			c0,0.1-0.1,0.3-0.2,0.4s-0.2,0.2-0.4,0.4c-0.2,0.1-0.4,0.2-0.6,0.4c-0.2,0.1-0.4,0.3-0.6,0.4c-0.2,0.1-0.3,0.2-0.4,0.3
			c-0.1,0.1-0.2,0.2-0.2,0.3s-0.1,0.2-0.1,0.3h2.7v0.7H385.7z"/>
		<path id="XMLID_399_" class="st2" d="M394.2,44c0,0.3-0.1,0.6-0.2,0.8c-0.1,0.2-0.2,0.4-0.4,0.6s-0.4,0.3-0.6,0.3
			s-0.5,0.1-0.8,0.1c-0.3,0-0.6,0-0.9-0.1c-0.3-0.1-0.6-0.2-0.9-0.4l0.4-0.6c0.2,0.1,0.5,0.2,0.7,0.3s0.5,0.1,0.7,0.1
			c0.4,0,0.7-0.1,0.9-0.3c0.2-0.2,0.3-0.4,0.3-0.8c0-0.3-0.1-0.5-0.3-0.7c-0.2-0.2-0.4-0.2-0.8-0.2c-0.2,0-0.4,0-0.6,0.1
			s-0.3,0.1-0.4,0.2l-0.8-0.3l0.2-2.5h3.2v0.7h-2.5l-0.1,1.3c0.1-0.1,0.3-0.1,0.5-0.2c0.2,0,0.4-0.1,0.6-0.1c0.3,0,0.6,0,0.8,0.1
			c0.2,0.1,0.4,0.2,0.6,0.3s0.3,0.3,0.3,0.5S394.2,43.8,394.2,44z"/>
		<path id="XMLID_397_" class="st2" d="M395,45.8c0-0.4,0.1-0.7,0.2-1c0.1-0.3,0.3-0.5,0.4-0.7c0.2-0.2,0.4-0.4,0.6-0.6
			c0.2-0.2,0.5-0.3,0.7-0.5c0.2-0.1,0.3-0.2,0.4-0.3c0.1-0.1,0.2-0.2,0.3-0.2c0.1-0.1,0.1-0.2,0.1-0.2c0-0.1,0-0.2,0-0.3
			c0-0.2-0.1-0.4-0.2-0.5c-0.2-0.1-0.4-0.2-0.8-0.2c-0.2,0-0.4,0-0.7,0.1c-0.2,0.1-0.4,0.2-0.6,0.4l-0.5-0.6
			c0.2-0.2,0.5-0.4,0.8-0.5c0.3-0.1,0.6-0.2,0.9-0.2c0.5,0,1,0.1,1.3,0.3s0.5,0.6,0.5,1.1c0,0.2,0,0.4-0.1,0.5
			c0,0.1-0.1,0.3-0.2,0.4s-0.2,0.2-0.4,0.4c-0.2,0.1-0.4,0.2-0.6,0.4c-0.2,0.1-0.4,0.3-0.6,0.4c-0.2,0.1-0.3,0.2-0.4,0.3
			c-0.1,0.1-0.2,0.2-0.2,0.3S396,44.9,396,45h2.7v0.7H395z"/>
		<path id="XMLID_394_" class="st2" d="M403.6,42.6c0,0.2,0,0.5-0.1,0.7c0,0.2-0.1,0.5-0.2,0.7s-0.2,0.5-0.4,0.7s-0.4,0.4-0.6,0.6
			c-0.2,0.2-0.5,0.3-0.8,0.4s-0.7,0.2-1.1,0.2v-0.7c0.6,0,1.1-0.2,1.5-0.4c0.4-0.3,0.7-0.7,0.8-1.2c-0.2,0.1-0.4,0.2-0.6,0.3
			s-0.5,0.1-0.8,0.1c-0.2,0-0.5,0-0.7-0.1s-0.4-0.2-0.5-0.3c-0.2-0.1-0.3-0.3-0.4-0.5c-0.1-0.2-0.1-0.4-0.1-0.7
			c0-0.3,0.1-0.5,0.2-0.7c0.1-0.2,0.2-0.4,0.4-0.5c0.2-0.1,0.4-0.3,0.6-0.3c0.2-0.1,0.5-0.1,0.8-0.1c0.3,0,0.5,0,0.8,0.1
			c0.2,0.1,0.4,0.2,0.6,0.4c0.2,0.2,0.3,0.4,0.4,0.6C403.5,41.9,403.6,42.2,403.6,42.6z M402.8,42.2c0-0.1,0-0.2-0.1-0.4
			c0-0.1-0.1-0.2-0.2-0.3c-0.1-0.1-0.2-0.2-0.4-0.2s-0.3-0.1-0.5-0.1c-0.4,0-0.7,0.1-0.9,0.3c-0.2,0.2-0.3,0.4-0.3,0.7
			c0,0.3,0.1,0.5,0.3,0.7c0.2,0.1,0.5,0.2,0.9,0.2c0.4,0,0.7-0.1,0.9-0.2C402.7,42.8,402.8,42.5,402.8,42.2z"/>
	</g>
</g>
<g id="XMLID_355_">
	<g id="XMLID_376_">
		<g id="XMLID_378_">
			<g>
				<path id="XMLID_384_" class="st2" d="M45,239.5v-6.1h0.9v5.2h3v0.9H45z"/>
				<path id="XMLID_382_" class="st2" d="M50.1,239.5v-6.1h3.9v0.9h-3v1.5h1.8v0.9h-1.8v1.9h3.1v0.9H50.1z"/>
				<path id="XMLID_380_" class="st2" d="M58.2,239.5h-1l-2.1-6.1h1l1.3,3.9c0,0.1,0.1,0.2,0.1,0.3s0.1,0.2,0.1,0.3
					c0,0.1,0.1,0.2,0.1,0.3c0,0.1,0,0.2,0.1,0.2c0-0.1,0-0.1,0.1-0.2c0-0.1,0.1-0.2,0.1-0.3s0.1-0.2,0.1-0.3c0-0.1,0.1-0.2,0.1-0.3
					l1.3-3.9h1L58.2,239.5z"/>
			</g>
		</g>
		<linearGradient id="XMLID_603_" gradientUnits="userSpaceOnUse" x1="33.9242" y1="236.6718" x2="42.5597" y2="236.6718">
			<stop  offset="0" style="stop-color:#4B257A"/>
			<stop  offset="1" style="stop-color:#964C8E"/>
		</linearGradient>
		<rect id="XMLID_377_" x="33.9" y="232.9" class="st3" width="8.6" height="7.6"/>
	</g>
	<g id="XMLID_356_">
		<g id="XMLID_358_">
			<g>
				<path id="XMLID_366_" class="st2" d="M91.1,239.3c-0.4,0.2-0.8,0.3-1.2,0.3c-0.4,0-0.8-0.1-1.1-0.2s-0.6-0.4-0.8-0.6
					c-0.2-0.3-0.4-0.6-0.5-1s-0.2-0.8-0.2-1.3c0-0.5,0.1-0.9,0.2-1.3s0.3-0.7,0.5-1c0.2-0.3,0.5-0.5,0.8-0.6s0.7-0.2,1.1-0.2
					c0.5,0,0.9,0.1,1.3,0.3s0.6,0.5,0.8,0.8l-0.8,0.5c-0.2-0.2-0.3-0.4-0.5-0.6c-0.2-0.1-0.4-0.2-0.7-0.2c-0.5,0-0.9,0.2-1.2,0.6
					c-0.3,0.4-0.4,0.9-0.4,1.6c0,0.7,0.1,1.2,0.4,1.6c0.3,0.4,0.7,0.6,1.2,0.6c0.3,0,0.6-0.1,0.8-0.2c0.2-0.1,0.4-0.3,0.5-0.6
					l0.8,0.5C91.8,238.8,91.5,239.1,91.1,239.3z"/>
				<path id="XMLID_362_" class="st2" d="M97.8,237.7c0,0.6-0.2,1.1-0.5,1.4c-0.4,0.3-0.9,0.5-1.5,0.5h-2.4v-6.1h2.5
					c0.5,0,1,0.1,1.3,0.4s0.5,0.7,0.5,1.2c0,0.3-0.1,0.6-0.2,0.8c-0.1,0.2-0.3,0.3-0.6,0.5c0.1,0,0.2,0.1,0.4,0.2s0.2,0.2,0.3,0.3
					c0.1,0.1,0.2,0.3,0.2,0.4C97.8,237.3,97.8,237.4,97.8,237.7z M96.7,235.1c0-0.2-0.1-0.4-0.2-0.6c-0.1-0.2-0.3-0.2-0.7-0.2h-1.6
					v1.6h1.6c0.2,0,0.3,0,0.4-0.1s0.2-0.1,0.3-0.2c0.1-0.1,0.1-0.2,0.1-0.2C96.6,235.3,96.7,235.2,96.7,235.1z M96.9,237.7
					c0-0.3-0.1-0.6-0.3-0.7c-0.2-0.2-0.5-0.3-0.8-0.3h-1.7v2h1.6c0.4,0,0.7-0.1,0.9-0.3C96.8,238.2,96.9,238,96.9,237.7z"/>
				<path id="XMLID_360_" class="st2" d="M98.9,239.5v-0.9l3-3.6c0-0.1,0.1-0.1,0.2-0.2c0.1-0.1,0.1-0.1,0.2-0.2
					c0.1-0.1,0.1-0.1,0.2-0.2c0.1-0.1,0.1-0.1,0.1-0.2c-0.1,0-0.1,0-0.2,0s-0.2,0-0.3,0s-0.2,0-0.3,0s-0.2,0-0.3,0h-2.3v-0.9h4.5
					v0.9l-2.9,3.6c0,0.1-0.1,0.1-0.2,0.2c-0.1,0.1-0.1,0.1-0.2,0.2c-0.1,0.1-0.1,0.1-0.2,0.2c-0.1,0.1-0.1,0.1-0.1,0.2
					c0.1,0,0.1,0,0.2,0s0.2,0,0.3,0c0.1,0,0.2,0,0.3,0s0.2,0,0.3,0h2.4v0.9H98.9z"/>
			</g>
		</g>
		<linearGradient id="XMLID_604_" gradientUnits="userSpaceOnUse" x1="75.1118" y1="236.6727" x2="83.7473" y2="236.6727">
			<stop  offset="0" style="stop-color:#FFF200"/>
			<stop  offset="1" style="stop-color:#F2A41E"/>
		</linearGradient>
		<rect id="XMLID_357_" x="75.1" y="232.9" class="st4" width="8.6" height="7.6"/>
	</g>
</g>
<g id="XMLID_329_">
	<g>
		<path id="XMLID_341_" class="st2" d="M191.9,54.7c-0.3,0.4-0.5,0.9-0.8,1.5c-0.2,0.5-0.4,1.1-0.6,1.7c-0.1,0.6-0.2,1.3-0.2,2h-1.1
			c0-0.6,0.1-1.2,0.2-1.8s0.3-1.1,0.5-1.6c0.2-0.5,0.4-1,0.7-1.5s0.6-0.9,0.9-1.4h-3.9v-1.1h5.2v1.1
			C192.5,53.9,192.2,54.3,191.9,54.7z"/>
		<path id="XMLID_337_" class="st2" d="M200.2,57.7c0,0.4-0.1,0.7-0.2,1c-0.1,0.3-0.3,0.5-0.6,0.7c-0.3,0.2-0.6,0.3-0.9,0.4
			c-0.4,0.1-0.8,0.1-1.2,0.1c-0.9,0-1.6-0.2-2.1-0.6c-0.5-0.4-0.8-1-0.8-1.7c0-0.9,0.4-1.5,1.3-1.9c-0.2-0.1-0.4-0.2-0.5-0.3
			s-0.2-0.2-0.3-0.4s-0.1-0.3-0.2-0.4s0-0.3,0-0.4c0-0.4,0.1-0.7,0.2-0.9c0.1-0.3,0.3-0.5,0.6-0.7c0.2-0.2,0.5-0.3,0.8-0.4
			c0.3-0.1,0.7-0.1,1-0.1c0.3,0,0.7,0,1,0.1s0.6,0.2,0.8,0.4s0.4,0.4,0.6,0.6c0.1,0.3,0.2,0.6,0.2,0.9c0,0.1,0,0.2,0,0.4
			c0,0.1-0.1,0.3-0.2,0.4c-0.1,0.1-0.2,0.3-0.3,0.4s-0.3,0.2-0.5,0.3c0.4,0.1,0.7,0.4,1,0.7C200,56.8,200.2,57.2,200.2,57.7z
			 M199,57.7c0-0.4-0.1-0.7-0.4-0.9s-0.7-0.3-1.4-0.3c-0.6,0-1.1,0.1-1.3,0.3c-0.3,0.2-0.4,0.5-0.4,0.9c0,0.4,0.2,0.7,0.5,0.9
			c0.3,0.2,0.8,0.3,1.3,0.3c0.6,0,1.1-0.1,1.4-0.3C198.9,58.4,199,58.1,199,57.7z M198.7,54.4c0-0.1,0-0.3-0.1-0.4
			c-0.1-0.1-0.1-0.2-0.3-0.4s-0.3-0.2-0.5-0.2c-0.2-0.1-0.4-0.1-0.7-0.1c-0.3,0-0.5,0-0.7,0.1c-0.2,0.1-0.3,0.1-0.5,0.2
			s-0.2,0.2-0.3,0.3c0,0.1-0.1,0.3-0.1,0.4c0,0.3,0.1,0.5,0.4,0.7c0.3,0.2,0.6,0.3,1.1,0.3c0.5,0,0.8-0.1,1.1-0.3
			C198.6,54.9,198.7,54.7,198.7,54.4z"/>
		<path id="XMLID_335_" class="st2" d="M203,59.1c0,0.2-0.1,0.4-0.3,0.6c-0.2,0.2-0.4,0.3-0.6,0.3c-0.2,0-0.4-0.1-0.6-0.3
			c-0.2-0.2-0.3-0.4-0.3-0.6c0-0.1,0-0.2,0.1-0.3s0.1-0.2,0.2-0.3c0.1-0.1,0.2-0.1,0.3-0.2c0.1,0,0.2-0.1,0.3-0.1s0.2,0,0.3,0.1
			c0.1,0,0.2,0.1,0.3,0.2c0.1,0.1,0.1,0.2,0.2,0.3C203,58.9,203,59,203,59.1z"/>
		<path id="XMLID_333_" class="st2" d="M209.6,57.3c0,0.5-0.1,0.8-0.2,1.2c-0.1,0.3-0.3,0.6-0.6,0.8s-0.6,0.4-0.9,0.5
			c-0.4,0.1-0.8,0.2-1.2,0.2c-0.5,0-0.9-0.1-1.4-0.2s-0.8-0.3-1.2-0.6l0.5-0.9c0.3,0.2,0.7,0.3,1,0.4c0.4,0.1,0.7,0.2,1.1,0.2
			c0.6,0,1-0.1,1.3-0.4c0.3-0.3,0.4-0.6,0.4-1.1c0-0.4-0.1-0.8-0.4-1c-0.3-0.2-0.6-0.3-1.1-0.3c-0.3,0-0.6,0-0.8,0.1
			c-0.2,0.1-0.4,0.2-0.6,0.3l-1.2-0.5l0.3-3.6h4.6v1.1h-3.6l-0.1,1.9c0.2-0.1,0.4-0.2,0.7-0.3s0.6-0.1,0.9-0.1
			c0.4,0,0.8,0.1,1.1,0.2c0.3,0.1,0.6,0.3,0.8,0.5c0.2,0.2,0.4,0.5,0.5,0.7C209.6,56.7,209.6,57,209.6,57.3z"/>
		<path id="XMLID_331_" class="st2" d="M214.8,54.7c-0.3,0.4-0.5,0.9-0.8,1.5c-0.2,0.5-0.4,1.1-0.6,1.7c-0.1,0.6-0.2,1.3-0.2,2h-1.1
			c0-0.6,0.1-1.2,0.2-1.8s0.3-1.1,0.5-1.6c0.2-0.5,0.4-1,0.7-1.5s0.6-0.9,0.9-1.4h-3.9v-1.1h5.2v1.1
			C215.4,53.9,215.1,54.3,214.8,54.7z"/>
	</g>
</g>
<g id="XMLID_305_">
	<g>
		<path id="XMLID_316_" class="st2" d="M287.6,132.6c-0.3,0.4-0.5,0.9-0.8,1.5c-0.2,0.5-0.4,1.1-0.6,1.7c-0.1,0.6-0.2,1.3-0.2,2
			h-1.1c0-0.6,0.1-1.2,0.2-1.8s0.3-1.1,0.5-1.6c0.2-0.5,0.4-1,0.7-1.5s0.6-0.9,0.9-1.4h-3.9v-1.1h5.2v1.1
			C288.2,131.8,287.9,132.2,287.6,132.6z"/>
		<path id="XMLID_314_" class="st2" d="M290.9,137.8v-5.7h-1.3v-0.8c0.4,0,0.7-0.1,1-0.3c0.3-0.1,0.5-0.4,0.5-0.7h0.9v7.5H290.9z"/>
		<path id="XMLID_312_" class="st2" d="M295.2,137c0,0.2-0.1,0.4-0.3,0.6c-0.2,0.2-0.4,0.3-0.6,0.3c-0.2,0-0.4-0.1-0.6-0.3
			c-0.2-0.2-0.3-0.4-0.3-0.6c0-0.1,0-0.2,0.1-0.3s0.1-0.2,0.2-0.3c0.1-0.1,0.2-0.1,0.3-0.2c0.1,0,0.2-0.1,0.3-0.1s0.2,0,0.3,0.1
			c0.1,0,0.2,0.1,0.3,0.2c0.1,0.1,0.1,0.2,0.2,0.3C295.2,136.8,295.2,136.9,295.2,137z"/>
		<path id="XMLID_309_" class="st2" d="M304.1,136.1v1.7H303v-1.6h-4v-1.1l3.8-4.7h1.3v4.8h1v1H304.1z M303.1,131.6
			c-0.1,0.1-0.2,0.2-0.3,0.4c-0.1,0.2-0.3,0.3-0.4,0.5l-1.4,1.8c-0.1,0.1-0.2,0.3-0.4,0.5c-0.1,0.2-0.2,0.3-0.3,0.4
			c0.1,0,0.1,0,0.2,0s0.2,0,0.3,0s0.2,0,0.3,0c0.1,0,0.2,0,0.3,0h1.6v-2.2c0-0.1,0-0.2,0-0.4c0-0.1,0-0.3,0-0.4c0-0.1,0-0.2,0-0.4
			C303.1,131.7,303.1,131.6,303.1,131.6z"/>
		<path id="XMLID_307_" class="st2" d="M306.2,137.8c0-0.5,0.1-1,0.3-1.4c0.2-0.4,0.4-0.8,0.6-1.1c0.3-0.3,0.6-0.6,0.9-0.8
			s0.7-0.5,1.1-0.7c0.3-0.1,0.5-0.3,0.6-0.4s0.3-0.2,0.4-0.3s0.2-0.2,0.2-0.3c0-0.1,0.1-0.2,0.1-0.4c0-0.3-0.1-0.5-0.3-0.7
			c-0.2-0.2-0.6-0.3-1.1-0.3c-0.3,0-0.6,0.1-1,0.2c-0.3,0.1-0.6,0.3-0.8,0.5l-0.7-0.9c0.3-0.3,0.7-0.6,1.2-0.7
			c0.4-0.2,0.9-0.3,1.4-0.3c0.8,0,1.4,0.2,1.8,0.5c0.5,0.3,0.7,0.8,0.7,1.5c0,0.3,0,0.5-0.1,0.8c-0.1,0.2-0.2,0.4-0.3,0.6
			c-0.2,0.2-0.3,0.4-0.6,0.5c-0.2,0.2-0.5,0.4-0.8,0.5c-0.4,0.2-0.7,0.4-0.9,0.6c-0.2,0.2-0.4,0.3-0.6,0.5c-0.1,0.2-0.3,0.3-0.3,0.5
			c-0.1,0.2-0.1,0.3-0.2,0.5h3.9v1.1H306.2z"/>
	</g>
</g>
<g id="XMLID_275_">
	<g>
		<path id="XMLID_288_" class="st2" d="M41.7,208.5c0,0.4-0.1,0.8-0.2,1.1c-0.1,0.3-0.4,0.6-0.6,0.8c-0.3,0.2-0.6,0.4-0.9,0.5
			c-0.4,0.1-0.7,0.2-1.1,0.2c-0.4,0-0.8-0.1-1.1-0.2c-0.3-0.1-0.6-0.3-0.9-0.5s-0.5-0.5-0.6-0.9C36,209,36,208.5,36,208
			c0-0.3,0-0.7,0.1-1c0.1-0.4,0.2-0.7,0.3-1c0.1-0.3,0.3-0.7,0.6-1c0.2-0.3,0.5-0.6,0.9-0.8c0.3-0.2,0.7-0.4,1.2-0.6
			c0.5-0.1,1-0.2,1.6-0.3v1.1c-0.9,0-1.6,0.3-2.1,0.6s-1,1-1.2,1.8c0.3-0.2,0.5-0.4,0.8-0.5c0.3-0.1,0.7-0.1,1.1-0.1
			c0.3,0,0.7,0,1,0.1c0.3,0.1,0.6,0.2,0.8,0.4c0.2,0.2,0.4,0.4,0.5,0.7S41.7,208.1,41.7,208.5z M40.6,208.5c0-0.4-0.1-0.8-0.4-1
			c-0.3-0.2-0.7-0.3-1.2-0.3c-0.5,0-1,0.1-1.3,0.3c-0.3,0.2-0.5,0.5-0.5,1c0,0.2,0,0.4,0.1,0.5c0.1,0.2,0.2,0.3,0.3,0.4
			s0.3,0.2,0.5,0.3c0.2,0.1,0.5,0.1,0.7,0.1c0.6,0,1-0.1,1.3-0.4C40.4,209.3,40.6,208.9,40.6,208.5z"/>
		<path id="XMLID_285_" class="st2" d="M48.5,208.5c0,0.4-0.1,0.8-0.2,1.1c-0.1,0.3-0.4,0.6-0.6,0.8c-0.3,0.2-0.6,0.4-0.9,0.5
			c-0.4,0.1-0.7,0.2-1.1,0.2c-0.4,0-0.8-0.1-1.1-0.2c-0.3-0.1-0.6-0.3-0.9-0.5s-0.5-0.5-0.6-0.9c-0.1-0.4-0.2-0.8-0.2-1.4
			c0-0.3,0-0.7,0.1-1c0.1-0.4,0.2-0.7,0.3-1c0.1-0.3,0.3-0.7,0.6-1c0.2-0.3,0.5-0.6,0.9-0.8c0.3-0.2,0.7-0.4,1.2-0.6
			c0.5-0.1,1-0.2,1.6-0.3v1.1c-0.9,0-1.6,0.3-2.1,0.6s-1,1-1.2,1.8c0.3-0.2,0.5-0.4,0.8-0.5c0.3-0.1,0.7-0.1,1.1-0.1
			c0.3,0,0.7,0,1,0.1c0.3,0.1,0.6,0.2,0.8,0.4c0.2,0.2,0.4,0.4,0.5,0.7S48.5,208.1,48.5,208.5z M47.3,208.5c0-0.4-0.1-0.8-0.4-1
			c-0.3-0.2-0.7-0.3-1.2-0.3c-0.5,0-1,0.1-1.3,0.3c-0.3,0.2-0.5,0.5-0.5,1c0,0.2,0,0.4,0.1,0.5c0.1,0.2,0.2,0.3,0.3,0.4
			s0.3,0.2,0.5,0.3c0.2,0.1,0.5,0.1,0.7,0.1c0.6,0,1-0.1,1.3-0.4C47.2,209.3,47.3,208.9,47.3,208.5z"/>
		<path id="XMLID_283_" class="st2" d="M51.1,210.1c0,0.2-0.1,0.4-0.3,0.6c-0.2,0.2-0.4,0.3-0.6,0.3c-0.2,0-0.4-0.1-0.6-0.3
			c-0.2-0.2-0.3-0.4-0.3-0.6c0-0.1,0-0.2,0.1-0.3s0.1-0.2,0.2-0.3c0.1-0.1,0.2-0.1,0.3-0.2c0.1,0,0.2-0.1,0.3-0.1s0.2,0,0.3,0.1
			c0.1,0,0.2,0.1,0.3,0.2c0.1,0.1,0.1,0.2,0.2,0.3C51.1,209.9,51.1,210,51.1,210.1z"/>
		<path id="XMLID_280_" class="st2" d="M58.1,207.1c0,0.6-0.1,1.1-0.2,1.6c-0.1,0.5-0.3,0.9-0.6,1.2c-0.2,0.3-0.6,0.6-0.9,0.8
			c-0.4,0.2-0.8,0.3-1.3,0.3s-0.9-0.1-1.3-0.3c-0.4-0.2-0.7-0.5-0.9-0.8s-0.4-0.7-0.6-1.2c-0.1-0.5-0.2-1-0.2-1.6
			c0-0.6,0.1-1.1,0.2-1.5c0.1-0.5,0.3-0.9,0.6-1.2c0.2-0.3,0.6-0.6,0.9-0.8c0.4-0.2,0.8-0.3,1.3-0.3s0.9,0.1,1.3,0.3
			c0.4,0.2,0.7,0.5,0.9,0.8c0.2,0.3,0.4,0.7,0.6,1.2C58,206,58.1,206.6,58.1,207.1z M57,207.1c0-0.4,0-0.8-0.1-1.1
			c-0.1-0.3-0.2-0.6-0.3-0.9s-0.3-0.4-0.6-0.6c-0.2-0.1-0.5-0.2-0.8-0.2s-0.6,0.1-0.8,0.2c-0.2,0.1-0.4,0.3-0.6,0.6
			c-0.1,0.2-0.3,0.5-0.3,0.9s-0.1,0.7-0.1,1.1c0,0.4,0,0.8,0.1,1.1s0.2,0.6,0.3,0.9c0.1,0.2,0.3,0.4,0.6,0.6
			c0.2,0.1,0.5,0.2,0.8,0.2c0.3,0,0.6-0.1,0.8-0.2c0.2-0.1,0.4-0.3,0.6-0.6s0.3-0.5,0.3-0.9C56.9,207.9,57,207.5,57,207.1z"/>
		<path id="XMLID_277_" class="st2" d="M65.1,207.1c0,0.6-0.1,1.1-0.2,1.6c-0.1,0.5-0.3,0.9-0.6,1.2c-0.2,0.3-0.6,0.6-0.9,0.8
			c-0.4,0.2-0.8,0.3-1.3,0.3s-0.9-0.1-1.3-0.3c-0.4-0.2-0.7-0.5-0.9-0.8s-0.4-0.7-0.6-1.2c-0.1-0.5-0.2-1-0.2-1.6
			c0-0.6,0.1-1.1,0.2-1.5c0.1-0.5,0.3-0.9,0.6-1.2c0.2-0.3,0.6-0.6,0.9-0.8c0.4-0.2,0.8-0.3,1.3-0.3s0.9,0.1,1.3,0.3
			c0.4,0.2,0.7,0.5,0.9,0.8c0.2,0.3,0.4,0.7,0.6,1.2C65.1,206,65.1,206.6,65.1,207.1z M64,207.1c0-0.4,0-0.8-0.1-1.1
			c-0.1-0.3-0.2-0.6-0.3-0.9s-0.3-0.4-0.6-0.6c-0.2-0.1-0.5-0.2-0.8-0.2s-0.6,0.1-0.8,0.2c-0.2,0.1-0.4,0.3-0.6,0.6
			c-0.1,0.2-0.3,0.5-0.3,0.9s-0.1,0.7-0.1,1.1c0,0.4,0,0.8,0.1,1.1s0.2,0.6,0.3,0.9c0.1,0.2,0.3,0.4,0.6,0.6
			c0.2,0.1,0.5,0.2,0.8,0.2c0.3,0,0.6-0.1,0.8-0.2c0.2-0.1,0.4-0.3,0.6-0.6s0.3-0.5,0.3-0.9C64,207.9,64,207.5,64,207.1z"/>
	</g>
</g>
<g id="XMLID_243_">
	<g>
		<path id="XMLID_257_" class="st2" d="M41.7,186.9c0,0.4-0.1,0.8-0.2,1.1c-0.1,0.3-0.4,0.6-0.6,0.8c-0.3,0.2-0.6,0.4-0.9,0.5
			c-0.4,0.1-0.7,0.2-1.1,0.2c-0.4,0-0.8-0.1-1.1-0.2c-0.3-0.1-0.6-0.3-0.9-0.5s-0.5-0.5-0.6-0.9c-0.1-0.4-0.2-0.8-0.2-1.4
			c0-0.3,0-0.7,0.1-1c0.1-0.4,0.2-0.7,0.3-1c0.1-0.3,0.3-0.7,0.6-1c0.2-0.3,0.5-0.6,0.9-0.8c0.3-0.2,0.7-0.4,1.2-0.6
			c0.5-0.1,1-0.2,1.6-0.3v1.1c-0.9,0-1.6,0.3-2.1,0.6s-1,1-1.2,1.8c0.3-0.2,0.5-0.4,0.8-0.5c0.3-0.1,0.7-0.1,1.1-0.1
			c0.3,0,0.7,0,1,0.1c0.3,0.1,0.6,0.2,0.8,0.4c0.2,0.2,0.4,0.4,0.5,0.7S41.7,186.5,41.7,186.9z M40.6,186.9c0-0.4-0.1-0.8-0.4-1
			c-0.3-0.2-0.7-0.3-1.2-0.3c-0.5,0-1,0.1-1.3,0.3c-0.3,0.2-0.5,0.5-0.5,1c0,0.2,0,0.4,0.1,0.5c0.1,0.2,0.2,0.3,0.3,0.4
			s0.3,0.2,0.5,0.3c0.2,0.1,0.5,0.1,0.7,0.1c0.6,0,1-0.1,1.3-0.4C40.4,187.6,40.6,187.3,40.6,186.9z"/>
		<path id="XMLID_253_" class="st2" d="M48.6,187c0,0.4-0.1,0.7-0.2,1c-0.1,0.3-0.3,0.5-0.6,0.7c-0.3,0.2-0.6,0.3-0.9,0.4
			c-0.4,0.1-0.8,0.1-1.2,0.1c-0.9,0-1.6-0.2-2.1-0.6c-0.5-0.4-0.8-1-0.8-1.7c0-0.9,0.4-1.5,1.3-1.9c-0.2-0.1-0.4-0.2-0.5-0.3
			s-0.2-0.2-0.3-0.4s-0.1-0.3-0.2-0.4s0-0.3,0-0.4c0-0.4,0.1-0.7,0.2-0.9c0.1-0.3,0.3-0.5,0.6-0.7c0.2-0.2,0.5-0.3,0.8-0.4
			c0.3-0.1,0.7-0.1,1-0.1c0.3,0,0.7,0,1,0.1s0.6,0.2,0.8,0.4s0.4,0.4,0.6,0.6c0.1,0.3,0.2,0.6,0.2,0.9c0,0.1,0,0.2,0,0.4
			c0,0.1-0.1,0.3-0.2,0.4c-0.1,0.1-0.2,0.3-0.3,0.4s-0.3,0.2-0.5,0.3c0.4,0.1,0.7,0.4,1,0.7C48.5,186.2,48.6,186.6,48.6,187z
			 M47.5,187.1c0-0.4-0.1-0.7-0.4-0.9s-0.7-0.3-1.4-0.3c-0.6,0-1.1,0.1-1.3,0.3c-0.3,0.2-0.4,0.5-0.4,0.9c0,0.4,0.2,0.7,0.5,0.9
			c0.3,0.2,0.8,0.3,1.3,0.3c0.6,0,1.1-0.1,1.4-0.3C47.4,187.7,47.5,187.4,47.5,187.1z M47.2,183.8c0-0.1,0-0.3-0.1-0.4
			c-0.1-0.1-0.1-0.2-0.3-0.4s-0.3-0.2-0.5-0.2c-0.2-0.1-0.4-0.1-0.7-0.1c-0.3,0-0.5,0-0.7,0.1c-0.2,0.1-0.3,0.1-0.5,0.2
			s-0.2,0.2-0.3,0.3c0,0.1-0.1,0.3-0.1,0.4c0,0.3,0.1,0.5,0.4,0.7c0.3,0.2,0.6,0.3,1.1,0.3c0.5,0,0.8-0.1,1.1-0.3
			C47.1,184.3,47.2,184,47.2,183.8z"/>
		<path id="XMLID_251_" class="st2" d="M51.5,188.5c0,0.2-0.1,0.4-0.3,0.6c-0.2,0.2-0.4,0.3-0.6,0.3c-0.2,0-0.4-0.1-0.6-0.3
			c-0.2-0.2-0.3-0.4-0.3-0.6c0-0.1,0-0.2,0.1-0.3s0.1-0.2,0.2-0.3c0.1-0.1,0.2-0.1,0.3-0.2c0.1,0,0.2-0.1,0.3-0.1s0.2,0,0.3,0.1
			c0.1,0,0.2,0.1,0.3,0.2c0.1,0.1,0.1,0.2,0.2,0.3C51.5,188.3,51.5,188.4,51.5,188.5z"/>
		<path id="XMLID_248_" class="st2" d="M58.5,185.5c0,0.6-0.1,1.1-0.2,1.6c-0.1,0.5-0.3,0.9-0.6,1.2c-0.2,0.3-0.6,0.6-0.9,0.8
			c-0.4,0.2-0.8,0.3-1.3,0.3s-0.9-0.1-1.3-0.3c-0.4-0.2-0.7-0.5-0.9-0.8s-0.4-0.7-0.6-1.2c-0.1-0.5-0.2-1-0.2-1.6
			c0-0.6,0.1-1.1,0.2-1.5c0.1-0.5,0.3-0.9,0.6-1.2c0.2-0.3,0.6-0.6,0.9-0.8c0.4-0.2,0.8-0.3,1.3-0.3s0.9,0.1,1.3,0.3
			c0.4,0.2,0.7,0.5,0.9,0.8c0.2,0.3,0.4,0.7,0.6,1.2C58.4,184.4,58.5,184.9,58.5,185.5z M57.3,185.5c0-0.4,0-0.8-0.1-1.1
			c-0.1-0.3-0.2-0.6-0.3-0.9s-0.3-0.4-0.6-0.6c-0.2-0.1-0.5-0.2-0.8-0.2s-0.6,0.1-0.8,0.2c-0.2,0.1-0.4,0.3-0.6,0.6
			c-0.1,0.2-0.3,0.5-0.3,0.9s-0.1,0.7-0.1,1.1c0,0.4,0,0.8,0.1,1.1s0.2,0.6,0.3,0.9c0.1,0.2,0.3,0.4,0.6,0.6
			c0.2,0.1,0.5,0.2,0.8,0.2c0.3,0,0.6-0.1,0.8-0.2c0.2-0.1,0.4-0.3,0.6-0.6s0.3-0.5,0.3-0.9C57.3,186.3,57.3,185.9,57.3,185.5z"/>
		<path id="XMLID_245_" class="st2" d="M65.5,185.5c0,0.6-0.1,1.1-0.2,1.6c-0.1,0.5-0.3,0.9-0.6,1.2c-0.2,0.3-0.6,0.6-0.9,0.8
			c-0.4,0.2-0.8,0.3-1.3,0.3s-0.9-0.1-1.3-0.3c-0.4-0.2-0.7-0.5-0.9-0.8s-0.4-0.7-0.6-1.2c-0.1-0.5-0.2-1-0.2-1.6
			c0-0.6,0.1-1.1,0.2-1.5c0.1-0.5,0.3-0.9,0.6-1.2c0.2-0.3,0.6-0.6,0.9-0.8c0.4-0.2,0.8-0.3,1.3-0.3s0.9,0.1,1.3,0.3
			c0.4,0.2,0.7,0.5,0.9,0.8c0.2,0.3,0.4,0.7,0.6,1.2C65.4,184.4,65.5,184.9,65.5,185.5z M64.4,185.5c0-0.4,0-0.8-0.1-1.1
			c-0.1-0.3-0.2-0.6-0.3-0.9c-0.1-0.2-0.3-0.4-0.6-0.6c-0.2-0.1-0.5-0.2-0.8-0.2s-0.6,0.1-0.8,0.2c-0.2,0.1-0.4,0.3-0.6,0.6
			c-0.1,0.2-0.3,0.5-0.3,0.9s-0.1,0.7-0.1,1.1c0,0.4,0,0.8,0.1,1.1s0.2,0.6,0.3,0.9c0.1,0.2,0.3,0.4,0.6,0.6
			c0.2,0.1,0.5,0.2,0.8,0.2c0.3,0,0.6-0.1,0.8-0.2c0.2-0.1,0.4-0.3,0.6-0.6c0.1-0.2,0.2-0.5,0.3-0.9
			C64.3,186.3,64.4,185.9,64.4,185.5z"/>
	</g>
</g>
<g id="XMLID_215_">
	<g>
		<path id="XMLID_228_" class="st2" d="M39.9,162.4c-0.3,0.4-0.5,0.9-0.8,1.5c-0.2,0.5-0.4,1.1-0.6,1.7c-0.1,0.6-0.2,1.3-0.2,2h-1.1
			c0-0.6,0.1-1.2,0.2-1.8s0.3-1.1,0.5-1.6c0.2-0.5,0.4-1,0.7-1.5s0.6-0.9,0.9-1.4h-3.9v-1.1h5.2v1.1C40.5,161.6,40.2,162,39.9,162.4
			z"/>
		<path id="XMLID_225_" class="st2" d="M48.2,163.8c0,0.6-0.1,1.1-0.2,1.6c-0.1,0.5-0.3,0.9-0.6,1.2c-0.2,0.3-0.6,0.6-0.9,0.8
			c-0.4,0.2-0.8,0.3-1.3,0.3s-0.9-0.1-1.3-0.3c-0.4-0.2-0.7-0.5-0.9-0.8s-0.4-0.7-0.6-1.2c-0.1-0.5-0.2-1-0.2-1.6
			c0-0.6,0.1-1.1,0.2-1.5c0.1-0.5,0.3-0.9,0.6-1.2c0.2-0.3,0.6-0.6,0.9-0.8c0.4-0.2,0.8-0.3,1.3-0.3s0.9,0.1,1.3,0.3
			c0.4,0.2,0.7,0.5,0.9,0.8c0.2,0.3,0.4,0.7,0.6,1.2C48.1,162.8,48.2,163.3,48.2,163.8z M47,163.9c0-0.4,0-0.8-0.1-1.1
			c-0.1-0.3-0.2-0.6-0.3-0.9s-0.3-0.4-0.6-0.6c-0.2-0.1-0.5-0.2-0.8-0.2s-0.6,0.1-0.8,0.2c-0.2,0.1-0.4,0.3-0.6,0.6
			c-0.1,0.2-0.3,0.5-0.3,0.9s-0.1,0.7-0.1,1.1c0,0.4,0,0.8,0.1,1.1s0.2,0.6,0.3,0.9c0.1,0.2,0.3,0.4,0.6,0.6
			c0.2,0.1,0.5,0.2,0.8,0.2c0.3,0,0.6-0.1,0.8-0.2c0.2-0.1,0.4-0.3,0.6-0.6s0.3-0.5,0.3-0.9C47,164.6,47,164.2,47,163.9z"/>
		<path id="XMLID_223_" class="st2" d="M50.9,166.8c0,0.2-0.1,0.4-0.3,0.6c-0.2,0.2-0.4,0.3-0.6,0.3c-0.2,0-0.4-0.1-0.6-0.3
			c-0.2-0.2-0.3-0.4-0.3-0.6c0-0.1,0-0.2,0.1-0.3s0.1-0.2,0.2-0.3c0.1-0.1,0.2-0.1,0.3-0.2c0.1,0,0.2-0.1,0.3-0.1s0.2,0,0.3,0.1
			c0.1,0,0.2,0.1,0.3,0.2c0.1,0.1,0.1,0.2,0.2,0.3C50.9,166.6,50.9,166.7,50.9,166.8z"/>
		<path id="XMLID_220_" class="st2" d="M57.9,163.8c0,0.6-0.1,1.1-0.2,1.6c-0.1,0.5-0.3,0.9-0.6,1.2c-0.2,0.3-0.6,0.6-0.9,0.8
			c-0.4,0.2-0.8,0.3-1.3,0.3s-0.9-0.1-1.3-0.3c-0.4-0.2-0.7-0.5-0.9-0.8s-0.4-0.7-0.6-1.2c-0.1-0.5-0.2-1-0.2-1.6
			c0-0.6,0.1-1.1,0.2-1.5c0.1-0.5,0.3-0.9,0.6-1.2c0.2-0.3,0.6-0.6,0.9-0.8c0.4-0.2,0.8-0.3,1.3-0.3s0.9,0.1,1.3,0.3
			c0.4,0.2,0.7,0.5,0.9,0.8c0.2,0.3,0.4,0.7,0.6,1.2C57.9,162.8,57.9,163.3,57.9,163.8z M56.8,163.9c0-0.4,0-0.8-0.1-1.1
			c-0.1-0.3-0.2-0.6-0.3-0.9s-0.3-0.4-0.6-0.6c-0.2-0.1-0.5-0.2-0.8-0.2s-0.6,0.1-0.8,0.2c-0.2,0.1-0.4,0.3-0.6,0.6
			c-0.1,0.2-0.3,0.5-0.3,0.9s-0.1,0.7-0.1,1.1c0,0.4,0,0.8,0.1,1.1s0.2,0.6,0.3,0.9c0.1,0.2,0.3,0.4,0.6,0.6
			c0.2,0.1,0.5,0.2,0.8,0.2c0.3,0,0.6-0.1,0.8-0.2c0.2-0.1,0.4-0.3,0.6-0.6s0.3-0.5,0.3-0.9C56.8,164.6,56.8,164.2,56.8,163.9z"/>
		<path id="XMLID_217_" class="st2" d="M65,163.8c0,0.6-0.1,1.1-0.2,1.6c-0.1,0.5-0.3,0.9-0.6,1.2c-0.2,0.3-0.6,0.6-0.9,0.8
			c-0.4,0.2-0.8,0.3-1.3,0.3s-0.9-0.1-1.3-0.3c-0.4-0.2-0.7-0.5-0.9-0.8s-0.4-0.7-0.6-1.2c-0.1-0.5-0.2-1-0.2-1.6
			c0-0.6,0.1-1.1,0.2-1.5c0.1-0.5,0.3-0.9,0.6-1.2c0.2-0.3,0.6-0.6,0.9-0.8c0.4-0.2,0.8-0.3,1.3-0.3s0.9,0.1,1.3,0.3
			c0.4,0.2,0.7,0.5,0.9,0.8c0.2,0.3,0.4,0.7,0.6,1.2C64.9,162.8,65,163.3,65,163.8z M63.8,163.9c0-0.4,0-0.8-0.1-1.1
			c-0.1-0.3-0.2-0.6-0.3-0.9s-0.3-0.4-0.6-0.6c-0.2-0.1-0.5-0.2-0.8-0.2s-0.6,0.1-0.8,0.2c-0.2,0.1-0.4,0.3-0.6,0.6
			c-0.1,0.2-0.3,0.5-0.3,0.9s-0.1,0.7-0.1,1.1c0,0.4,0,0.8,0.1,1.1s0.2,0.6,0.3,0.9c0.1,0.2,0.3,0.4,0.6,0.6
			c0.2,0.1,0.5,0.2,0.8,0.2c0.3,0,0.6-0.1,0.8-0.2c0.2-0.1,0.4-0.3,0.6-0.6s0.3-0.5,0.3-0.9C63.8,164.6,63.8,164.2,63.8,163.9z"/>
	</g>
</g>
<g id="XMLID_189_">
	<g>
		<path id="XMLID_201_" class="st2" d="M39.9,140.8c-0.3,0.4-0.5,0.9-0.8,1.5c-0.2,0.5-0.4,1.1-0.6,1.7c-0.1,0.6-0.2,1.3-0.2,2h-1.1
			c0-0.6,0.1-1.2,0.2-1.8s0.3-1.1,0.5-1.6c0.2-0.5,0.4-1,0.7-1.5s0.6-0.9,0.9-1.4h-3.9v-1.1h5.2v1.1C40.5,140,40.2,140.4,39.9,140.8
			z"/>
		<path id="XMLID_199_" class="st2" d="M42.2,145.9c0-0.5,0.1-1,0.3-1.4c0.2-0.4,0.4-0.8,0.6-1.1c0.3-0.3,0.6-0.6,0.9-0.8
			s0.7-0.5,1.1-0.7c0.3-0.1,0.5-0.3,0.6-0.4s0.3-0.2,0.4-0.3s0.2-0.2,0.2-0.3c0-0.1,0.1-0.2,0.1-0.4c0-0.3-0.1-0.5-0.3-0.7
			c-0.2-0.2-0.6-0.3-1.1-0.3c-0.3,0-0.6,0.1-1,0.2c-0.3,0.1-0.6,0.3-0.8,0.5l-0.7-0.9c0.3-0.3,0.7-0.6,1.2-0.7
			c0.4-0.2,0.9-0.3,1.4-0.3c0.8,0,1.4,0.2,1.8,0.5c0.5,0.3,0.7,0.8,0.7,1.5c0,0.3,0,0.5-0.1,0.8c-0.1,0.2-0.2,0.4-0.3,0.6
			c-0.2,0.2-0.3,0.4-0.6,0.5c-0.2,0.2-0.5,0.4-0.8,0.5c-0.4,0.2-0.7,0.4-0.9,0.6c-0.2,0.2-0.4,0.3-0.6,0.5c-0.1,0.2-0.3,0.3-0.3,0.5
			c-0.1,0.2-0.1,0.3-0.2,0.5h3.9v1.1H42.2z"/>
		<path id="XMLID_197_" class="st2" d="M50.6,145.2c0,0.2-0.1,0.4-0.3,0.6c-0.2,0.2-0.4,0.3-0.6,0.3c-0.2,0-0.4-0.1-0.6-0.3
			c-0.2-0.2-0.3-0.4-0.3-0.6c0-0.1,0-0.2,0.1-0.3s0.1-0.2,0.2-0.3c0.1-0.1,0.2-0.1,0.3-0.2c0.1,0,0.2-0.1,0.3-0.1s0.2,0,0.3,0.1
			c0.1,0,0.2,0.1,0.3,0.2c0.1,0.1,0.1,0.2,0.2,0.3C50.6,145,50.6,145.1,50.6,145.2z"/>
		<path id="XMLID_194_" class="st2" d="M57.6,142.2c0,0.6-0.1,1.1-0.2,1.6c-0.1,0.5-0.3,0.9-0.6,1.2c-0.2,0.3-0.6,0.6-0.9,0.8
			c-0.4,0.2-0.8,0.3-1.3,0.3s-0.9-0.1-1.3-0.3c-0.4-0.2-0.7-0.5-0.9-0.8s-0.4-0.7-0.6-1.2c-0.1-0.5-0.2-1-0.2-1.6
			c0-0.6,0.1-1.1,0.2-1.5c0.1-0.5,0.3-0.9,0.6-1.2c0.2-0.3,0.6-0.6,0.9-0.8c0.4-0.2,0.8-0.3,1.3-0.3s0.9,0.1,1.3,0.3
			c0.4,0.2,0.7,0.5,0.9,0.8c0.2,0.3,0.4,0.7,0.6,1.2C57.6,141.1,57.6,141.6,57.6,142.2z M56.5,142.2c0-0.4,0-0.8-0.1-1.1
			c-0.1-0.3-0.2-0.6-0.3-0.9s-0.3-0.4-0.6-0.6c-0.2-0.1-0.5-0.2-0.8-0.2s-0.6,0.1-0.8,0.2c-0.2,0.1-0.4,0.3-0.6,0.6
			c-0.1,0.2-0.3,0.5-0.3,0.9s-0.1,0.7-0.1,1.1c0,0.4,0,0.8,0.1,1.1s0.2,0.6,0.3,0.9c0.1,0.2,0.3,0.4,0.6,0.6
			c0.2,0.1,0.5,0.2,0.8,0.2c0.3,0,0.6-0.1,0.8-0.2c0.2-0.1,0.4-0.3,0.6-0.6s0.3-0.5,0.3-0.9C56.5,143,56.5,142.6,56.5,142.2z"/>
		<path id="XMLID_191_" class="st2" d="M64.7,142.2c0,0.6-0.1,1.1-0.2,1.6c-0.1,0.5-0.3,0.9-0.6,1.2c-0.2,0.3-0.6,0.6-0.9,0.8
			c-0.4,0.2-0.8,0.3-1.3,0.3s-0.9-0.1-1.3-0.3c-0.4-0.2-0.7-0.5-0.9-0.8s-0.4-0.7-0.6-1.2c-0.1-0.5-0.2-1-0.2-1.6
			c0-0.6,0.1-1.1,0.2-1.5c0.1-0.5,0.3-0.9,0.6-1.2c0.2-0.3,0.6-0.6,0.9-0.8c0.4-0.2,0.8-0.3,1.3-0.3s0.9,0.1,1.3,0.3
			c0.4,0.2,0.7,0.5,0.9,0.8c0.2,0.3,0.4,0.7,0.6,1.2C64.6,141.1,64.7,141.6,64.7,142.2z M63.5,142.2c0-0.4,0-0.8-0.1-1.1
			c-0.1-0.3-0.2-0.6-0.3-0.9s-0.3-0.4-0.6-0.6c-0.2-0.1-0.5-0.2-0.8-0.2s-0.6,0.1-0.8,0.2c-0.2,0.1-0.4,0.3-0.6,0.6
			c-0.1,0.2-0.3,0.5-0.3,0.9s-0.1,0.7-0.1,1.1c0,0.4,0,0.8,0.1,1.1s0.2,0.6,0.3,0.9c0.1,0.2,0.3,0.4,0.6,0.6
			c0.2,0.1,0.5,0.2,0.8,0.2c0.3,0,0.6-0.1,0.8-0.2c0.2-0.1,0.4-0.3,0.6-0.6s0.3-0.5,0.3-0.9C63.5,143,63.5,142.6,63.5,142.2z"/>
	</g>
</g>
<g id="XMLID_161_">
	<g>
		<path id="XMLID_174_" class="st2" d="M39.9,119.2c-0.3,0.4-0.5,0.9-0.8,1.5c-0.2,0.5-0.4,1.1-0.6,1.7c-0.1,0.6-0.2,1.3-0.2,2h-1.1
			c0-0.6,0.1-1.2,0.2-1.8s0.3-1.1,0.5-1.6c0.2-0.5,0.4-1,0.7-1.5s0.6-0.9,0.9-1.4h-3.9v-1.1h5.2v1.1
			C40.5,118.3,40.2,118.7,39.9,119.2z"/>
		<path id="XMLID_171_" class="st2" d="M47.3,122.6v1.7h-1.1v-1.6h-4v-1.1l3.8-4.7h1.3v4.8h1v1H47.3z M46.2,118.1
			c-0.1,0.1-0.2,0.2-0.3,0.4c-0.1,0.2-0.3,0.3-0.4,0.5l-1.4,1.8c-0.1,0.1-0.2,0.3-0.4,0.5c-0.1,0.2-0.2,0.3-0.3,0.4
			c0.1,0,0.1,0,0.2,0s0.2,0,0.3,0s0.2,0,0.3,0c0.1,0,0.2,0,0.3,0h1.6v-2.2c0-0.1,0-0.2,0-0.4c0-0.1,0-0.3,0-0.4c0-0.1,0-0.2,0-0.4
			C46.2,118.3,46.2,118.2,46.2,118.1z"/>
		<path id="XMLID_169_" class="st2" d="M51,123.6c0,0.2-0.1,0.4-0.3,0.6c-0.2,0.2-0.4,0.3-0.6,0.3c-0.2,0-0.4-0.1-0.6-0.3
			c-0.2-0.2-0.3-0.4-0.3-0.6c0-0.1,0-0.2,0.1-0.3s0.1-0.2,0.2-0.3c0.1-0.1,0.2-0.1,0.3-0.2c0.1,0,0.2-0.1,0.3-0.1s0.2,0,0.3,0.1
			c0.1,0,0.2,0.1,0.3,0.2c0.1,0.1,0.1,0.2,0.2,0.3C51,123.3,51,123.5,51,123.6z"/>
		<path id="XMLID_166_" class="st2" d="M58,120.6c0,0.6-0.1,1.1-0.2,1.6c-0.1,0.5-0.3,0.9-0.6,1.2c-0.2,0.3-0.6,0.6-0.9,0.8
			c-0.4,0.2-0.8,0.3-1.3,0.3s-0.9-0.1-1.3-0.3c-0.4-0.2-0.7-0.5-0.9-0.8s-0.4-0.7-0.6-1.2c-0.1-0.5-0.2-1-0.2-1.6
			c0-0.6,0.1-1.1,0.2-1.5c0.1-0.5,0.3-0.9,0.6-1.2c0.2-0.3,0.6-0.6,0.9-0.8c0.4-0.2,0.8-0.3,1.3-0.3s0.9,0.1,1.3,0.3
			c0.4,0.2,0.7,0.5,0.9,0.8c0.2,0.3,0.4,0.7,0.6,1.2C57.9,119.5,58,120,58,120.6z M56.8,120.6c0-0.4,0-0.8-0.1-1.1
			c-0.1-0.3-0.2-0.6-0.3-0.9s-0.3-0.4-0.6-0.6c-0.2-0.1-0.5-0.2-0.8-0.2s-0.6,0.1-0.8,0.2c-0.2,0.1-0.4,0.3-0.6,0.6
			c-0.1,0.2-0.3,0.5-0.3,0.9s-0.1,0.7-0.1,1.1c0,0.4,0,0.8,0.1,1.1s0.2,0.6,0.3,0.9c0.1,0.2,0.3,0.4,0.6,0.6
			c0.2,0.1,0.5,0.2,0.8,0.2c0.3,0,0.6-0.1,0.8-0.2c0.2-0.1,0.4-0.3,0.6-0.6s0.3-0.5,0.3-0.9C56.8,121.3,56.8,121,56.8,120.6z"/>
		<path id="XMLID_163_" class="st2" d="M65,120.6c0,0.6-0.1,1.1-0.2,1.6c-0.1,0.5-0.3,0.9-0.6,1.2c-0.2,0.3-0.6,0.6-0.9,0.8
			c-0.4,0.2-0.8,0.3-1.3,0.3s-0.9-0.1-1.3-0.3c-0.4-0.2-0.7-0.5-0.9-0.8s-0.4-0.7-0.6-1.2c-0.1-0.5-0.2-1-0.2-1.6
			c0-0.6,0.1-1.1,0.2-1.5c0.1-0.5,0.3-0.9,0.6-1.2c0.2-0.3,0.6-0.6,0.9-0.8c0.4-0.2,0.8-0.3,1.3-0.3s0.9,0.1,1.3,0.3
			c0.4,0.2,0.7,0.5,0.9,0.8c0.2,0.3,0.4,0.7,0.6,1.2C65,119.5,65,120,65,120.6z M63.9,120.6c0-0.4,0-0.8-0.1-1.1
			c-0.1-0.3-0.2-0.6-0.3-0.9s-0.3-0.4-0.6-0.6c-0.2-0.1-0.5-0.2-0.8-0.2s-0.6,0.1-0.8,0.2c-0.2,0.1-0.4,0.3-0.6,0.6
			c-0.1,0.2-0.3,0.5-0.3,0.9s-0.1,0.7-0.1,1.1c0,0.4,0,0.8,0.1,1.1s0.2,0.6,0.3,0.9c0.1,0.2,0.3,0.4,0.6,0.6
			c0.2,0.1,0.5,0.2,0.8,0.2c0.3,0,0.6-0.1,0.8-0.2c0.2-0.1,0.4-0.3,0.6-0.6s0.3-0.5,0.3-0.9C63.9,121.3,63.9,121,63.9,120.6z"/>
	</g>
</g>
<g id="XMLID_133_">
	<g>
		<path id="XMLID_146_" class="st2" d="M39.9,97.5c-0.3,0.4-0.5,0.9-0.8,1.5c-0.2,0.5-0.4,1.1-0.6,1.7c-0.1,0.6-0.2,1.3-0.2,2h-1.1
			c0-0.6,0.1-1.2,0.2-1.8s0.3-1.1,0.5-1.6c0.2-0.5,0.4-1,0.7-1.5s0.6-0.9,0.9-1.4h-3.9v-1.1h5.2v1.1C40.5,96.7,40.2,97.1,39.9,97.5z
			"/>
		<path id="XMLID_143_" class="st2" d="M48,100.3c0,0.4-0.1,0.8-0.2,1.1c-0.1,0.3-0.4,0.6-0.6,0.8c-0.3,0.2-0.6,0.4-0.9,0.5
			c-0.4,0.1-0.7,0.2-1.1,0.2c-0.4,0-0.8-0.1-1.1-0.2c-0.3-0.1-0.6-0.3-0.9-0.5s-0.5-0.5-0.6-0.9c-0.1-0.4-0.2-0.8-0.2-1.4
			c0-0.3,0-0.7,0.1-1c0.1-0.4,0.2-0.7,0.3-1c0.1-0.3,0.3-0.7,0.6-1c0.2-0.3,0.5-0.6,0.9-0.8c0.3-0.2,0.7-0.4,1.2-0.6
			c0.5-0.1,1-0.2,1.6-0.3v1.1c-0.9,0-1.6,0.3-2.1,0.6s-1,1-1.2,1.8c0.3-0.2,0.5-0.4,0.8-0.5c0.3-0.1,0.7-0.1,1.1-0.1
			c0.3,0,0.7,0,1,0.1c0.3,0.1,0.6,0.2,0.8,0.4c0.2,0.2,0.4,0.4,0.5,0.7S48,99.9,48,100.3z M46.9,100.3c0-0.4-0.1-0.8-0.4-1
			c-0.3-0.2-0.7-0.3-1.2-0.3c-0.5,0-1,0.1-1.3,0.3c-0.3,0.2-0.5,0.5-0.5,1c0,0.2,0,0.4,0.1,0.5c0.1,0.2,0.2,0.3,0.3,0.4
			s0.3,0.2,0.5,0.3c0.2,0.1,0.5,0.1,0.7,0.1c0.6,0,1-0.1,1.3-0.4C46.7,101.1,46.9,100.7,46.9,100.3z"/>
		<path id="XMLID_141_" class="st2" d="M50.7,101.9c0,0.2-0.1,0.4-0.3,0.6c-0.2,0.2-0.4,0.3-0.6,0.3c-0.2,0-0.4-0.1-0.6-0.3
			c-0.2-0.2-0.3-0.4-0.3-0.6c0-0.1,0-0.2,0.1-0.3s0.1-0.2,0.2-0.3c0.1-0.1,0.2-0.1,0.3-0.2c0.1,0,0.2-0.1,0.3-0.1s0.2,0,0.3,0.1
			c0.1,0,0.2,0.1,0.3,0.2c0.1,0.1,0.1,0.2,0.2,0.3C50.6,101.7,50.7,101.8,50.7,101.9z"/>
		<path id="XMLID_138_" class="st2" d="M57.6,98.9c0,0.6-0.1,1.1-0.2,1.6c-0.1,0.5-0.3,0.9-0.6,1.2c-0.2,0.3-0.6,0.6-0.9,0.8
			c-0.4,0.2-0.8,0.3-1.3,0.3s-0.9-0.1-1.3-0.3c-0.4-0.2-0.7-0.5-0.9-0.8s-0.4-0.7-0.6-1.2c-0.1-0.5-0.2-1-0.2-1.6
			c0-0.6,0.1-1.1,0.2-1.5c0.1-0.5,0.3-0.9,0.6-1.2c0.2-0.3,0.6-0.6,0.9-0.8c0.4-0.2,0.8-0.3,1.3-0.3s0.9,0.1,1.3,0.3
			c0.4,0.2,0.7,0.5,0.9,0.8c0.2,0.3,0.4,0.7,0.6,1.2C57.6,97.8,57.6,98.4,57.6,98.9z M56.5,98.9c0-0.4,0-0.8-0.1-1.1
			c-0.1-0.3-0.2-0.6-0.3-0.9s-0.3-0.4-0.6-0.6c-0.2-0.1-0.5-0.2-0.8-0.2s-0.6,0.1-0.8,0.2c-0.2,0.1-0.4,0.3-0.6,0.6
			c-0.1,0.2-0.3,0.5-0.3,0.9s-0.1,0.7-0.1,1.1c0,0.4,0,0.8,0.1,1.1s0.2,0.6,0.3,0.9c0.1,0.2,0.3,0.4,0.6,0.6
			c0.2,0.1,0.5,0.2,0.8,0.2c0.3,0,0.6-0.1,0.8-0.2c0.2-0.1,0.4-0.3,0.6-0.6s0.3-0.5,0.3-0.9C56.5,99.7,56.5,99.3,56.5,98.9z"/>
		<path id="XMLID_135_" class="st2" d="M64.7,98.9c0,0.6-0.1,1.1-0.2,1.6c-0.1,0.5-0.3,0.9-0.6,1.2c-0.2,0.3-0.6,0.6-0.9,0.8
			c-0.4,0.2-0.8,0.3-1.3,0.3s-0.9-0.1-1.3-0.3c-0.4-0.2-0.7-0.5-0.9-0.8s-0.4-0.7-0.6-1.2c-0.1-0.5-0.2-1-0.2-1.6
			c0-0.6,0.1-1.1,0.2-1.5c0.1-0.5,0.3-0.9,0.6-1.2c0.2-0.3,0.6-0.6,0.9-0.8c0.4-0.2,0.8-0.3,1.3-0.3s0.9,0.1,1.3,0.3
			c0.4,0.2,0.7,0.5,0.9,0.8c0.2,0.3,0.4,0.7,0.6,1.2C64.6,97.8,64.7,98.4,64.7,98.9z M63.6,98.9c0-0.4,0-0.8-0.1-1.1
			c-0.1-0.3-0.2-0.6-0.3-0.9s-0.3-0.4-0.6-0.6c-0.2-0.1-0.5-0.2-0.8-0.2s-0.6,0.1-0.8,0.2c-0.2,0.1-0.4,0.3-0.6,0.6
			c-0.1,0.2-0.3,0.5-0.3,0.9s-0.1,0.7-0.1,1.1c0,0.4,0,0.8,0.1,1.1s0.2,0.6,0.3,0.9c0.1,0.2,0.3,0.4,0.6,0.6
			c0.2,0.1,0.5,0.2,0.8,0.2c0.3,0,0.6-0.1,0.8-0.2c0.2-0.1,0.4-0.3,0.6-0.6s0.3-0.5,0.3-0.9C63.5,99.7,63.6,99.3,63.6,98.9z"/>
	</g>
</g>
<g id="XMLID_103_">
	<g>
		<path id="XMLID_117_" class="st2" d="M39.9,75.9c-0.3,0.4-0.5,0.9-0.8,1.5c-0.2,0.5-0.4,1.1-0.6,1.7c-0.1,0.6-0.2,1.3-0.2,2h-1.1
			c0-0.6,0.1-1.2,0.2-1.8s0.3-1.1,0.5-1.6c0.2-0.5,0.4-1,0.7-1.5s0.6-0.9,0.9-1.4h-3.9v-1.1h5.2v1.1C40.5,75,40.2,75.4,39.9,75.9z"
			/>
		<path id="XMLID_113_" class="st2" d="M48.2,78.8c0,0.4-0.1,0.7-0.2,1c-0.1,0.3-0.3,0.5-0.6,0.7c-0.3,0.2-0.6,0.3-0.9,0.4
			c-0.4,0.1-0.8,0.1-1.2,0.1c-0.9,0-1.6-0.2-2.1-0.6c-0.5-0.4-0.8-1-0.8-1.7c0-0.9,0.4-1.5,1.3-1.9c-0.2-0.1-0.4-0.2-0.5-0.3
			s-0.2-0.2-0.3-0.4s-0.1-0.3-0.2-0.4s0-0.3,0-0.4c0-0.4,0.1-0.7,0.2-0.9c0.1-0.3,0.3-0.5,0.6-0.7c0.2-0.2,0.5-0.3,0.8-0.4
			c0.3-0.1,0.7-0.1,1-0.1c0.3,0,0.7,0,1,0.1s0.6,0.2,0.8,0.4s0.4,0.4,0.6,0.6c0.1,0.3,0.2,0.6,0.2,0.9c0,0.1,0,0.2,0,0.4
			c0,0.1-0.1,0.3-0.2,0.4c-0.1,0.1-0.2,0.3-0.3,0.4s-0.3,0.2-0.5,0.3c0.4,0.1,0.7,0.4,1,0.7C48.1,78,48.2,78.4,48.2,78.8z
			 M47.1,78.9c0-0.4-0.1-0.7-0.4-0.9s-0.7-0.3-1.4-0.3c-0.6,0-1.1,0.1-1.3,0.3c-0.3,0.2-0.4,0.5-0.4,0.9c0,0.4,0.2,0.7,0.5,0.9
			c0.3,0.2,0.8,0.3,1.3,0.3c0.6,0,1.1-0.1,1.4-0.3C46.9,79.5,47.1,79.2,47.1,78.9z M46.8,75.6c0-0.1,0-0.3-0.1-0.4
			c-0.1-0.1-0.1-0.2-0.3-0.4s-0.3-0.2-0.5-0.2c-0.2-0.1-0.4-0.1-0.7-0.1c-0.3,0-0.5,0-0.7,0.1c-0.2,0.1-0.3,0.1-0.5,0.2
			s-0.2,0.2-0.3,0.3c0,0.1-0.1,0.3-0.1,0.4c0,0.3,0.1,0.5,0.4,0.7c0.3,0.2,0.6,0.3,1.1,0.3c0.5,0,0.8-0.1,1.1-0.3
			C46.6,76.1,46.8,75.8,46.8,75.6z"/>
		<path id="XMLID_111_" class="st2" d="M51,80.3c0,0.2-0.1,0.4-0.3,0.6c-0.2,0.2-0.4,0.3-0.6,0.3c-0.2,0-0.4-0.1-0.6-0.3
			c-0.2-0.2-0.3-0.4-0.3-0.6c0-0.1,0-0.2,0.1-0.3s0.1-0.2,0.2-0.3c0.1-0.1,0.2-0.1,0.3-0.2c0.1,0,0.2-0.1,0.3-0.1s0.2,0,0.3,0.1
			c0.1,0,0.2,0.1,0.3,0.2c0.1,0.1,0.1,0.2,0.2,0.3C51,80.1,51,80.2,51,80.3z"/>
		<path id="XMLID_108_" class="st2" d="M58,77.3c0,0.6-0.1,1.1-0.2,1.6c-0.1,0.5-0.3,0.9-0.6,1.2c-0.2,0.3-0.6,0.6-0.9,0.8
			c-0.4,0.2-0.8,0.3-1.3,0.3s-0.9-0.1-1.3-0.3c-0.4-0.2-0.7-0.5-0.9-0.8s-0.4-0.7-0.6-1.2c-0.1-0.5-0.2-1-0.2-1.6
			c0-0.6,0.1-1.1,0.2-1.5c0.1-0.5,0.3-0.9,0.6-1.2c0.2-0.3,0.6-0.6,0.9-0.8c0.4-0.2,0.8-0.3,1.3-0.3s0.9,0.1,1.3,0.3
			c0.4,0.2,0.7,0.5,0.9,0.8c0.2,0.3,0.4,0.7,0.6,1.2C57.9,76.2,58,76.7,58,77.3z M56.9,77.3c0-0.4,0-0.8-0.1-1.1
			c-0.1-0.3-0.2-0.6-0.3-0.9s-0.3-0.4-0.6-0.6c-0.2-0.1-0.5-0.2-0.8-0.2s-0.6,0.1-0.8,0.2c-0.2,0.1-0.4,0.3-0.6,0.6
			c-0.1,0.2-0.3,0.5-0.3,0.9s-0.1,0.7-0.1,1.1c0,0.4,0,0.8,0.1,1.1s0.2,0.6,0.3,0.9c0.1,0.2,0.3,0.4,0.6,0.6
			c0.2,0.1,0.5,0.2,0.8,0.2c0.3,0,0.6-0.1,0.8-0.2c0.2-0.1,0.4-0.3,0.6-0.6s0.3-0.5,0.3-0.9C56.8,78,56.9,77.7,56.9,77.3z"/>
		<path id="XMLID_105_" class="st2" d="M65.1,77.3c0,0.6-0.1,1.1-0.2,1.6c-0.1,0.5-0.3,0.9-0.6,1.2c-0.2,0.3-0.6,0.6-0.9,0.8
			c-0.4,0.2-0.8,0.3-1.3,0.3s-0.9-0.1-1.3-0.3c-0.4-0.2-0.7-0.5-0.9-0.8s-0.4-0.7-0.6-1.2c-0.1-0.5-0.2-1-0.2-1.6
			c0-0.6,0.1-1.1,0.2-1.5c0.1-0.5,0.3-0.9,0.6-1.2c0.2-0.3,0.6-0.6,0.9-0.8c0.4-0.2,0.8-0.3,1.3-0.3s0.9,0.1,1.3,0.3
			c0.4,0.2,0.7,0.5,0.9,0.8c0.2,0.3,0.4,0.7,0.6,1.2C65,76.2,65.1,76.7,65.1,77.3z M63.9,77.3c0-0.4,0-0.8-0.1-1.1
			c-0.1-0.3-0.2-0.6-0.3-0.9s-0.3-0.4-0.6-0.6c-0.2-0.1-0.5-0.2-0.8-0.2s-0.6,0.1-0.8,0.2c-0.2,0.1-0.4,0.3-0.6,0.6
			c-0.1,0.2-0.3,0.5-0.3,0.9s-0.1,0.7-0.1,1.1c0,0.4,0,0.8,0.1,1.1s0.2,0.6,0.3,0.9c0.1,0.2,0.3,0.4,0.6,0.6
			c0.2,0.1,0.5,0.2,0.8,0.2c0.3,0,0.6-0.1,0.8-0.2c0.2-0.1,0.4-0.3,0.6-0.6s0.3-0.5,0.3-0.9C63.9,78,63.9,77.7,63.9,77.3z"/>
	</g>
</g>
<line id="XMLID_102_" class="st5" x1="405.5" y1="212.9" x2="72.7" y2="212.9"/>
<line id="XMLID_101_" class="st5" x1="405.5" y1="191.3" x2="72.7" y2="191.3"/>
<line id="XMLID_100_" class="st5" x1="405.5" y1="169.6" x2="72.7" y2="169.6"/>
<line id="XMLID_99_" class="st5" x1="405.5" y1="148" x2="72.7" y2="148"/>
<line id="XMLID_98_" class="st5" x1="405.5" y1="126.3" x2="72.7" y2="126.3"/>
<line id="XMLID_97_" class="st5" x1="405.5" y1="104.7" x2="72.7" y2="104.7"/>
<line id="XMLID_96_" class="st5" x1="405.5" y1="83.1" x2="72.7" y2="83.1"/>
<linearGradient id="XMLID_605_" gradientUnits="userSpaceOnUse" x1="160.8877" y1="139.8629" x2="255.9965" y2="139.8629">
	<stop  offset="0" style="stop-color:#4B257A"/>
	<stop  offset="1" style="stop-color:#964C8E"/>
</linearGradient>
<rect id="XMLID_95_" x="160.9" y="66.8" class="st6" width="95.1" height="146.1"/>
<linearGradient id="XMLID_606_" gradientUnits="userSpaceOnUse" x1="256.1688" y1="181.9751" x2="351.2777" y2="181.9751">
	<stop  offset="0" style="stop-color:#FFF200"/>
	<stop  offset="1" style="stop-color:#F2A41E"/>
</linearGradient>
<rect id="XMLID_94_" x="256.2" y="151" class="st7" width="95.1" height="61.9"/>
<path id="XMLID_93_" class="st8" d="M428.9,39.4c0-7.7-6.5-14-14.5-14H15c-8,0-14.5,6.3-14.5,14v195c0,7.7,6.5,14,14.5,14h399.4
	c8,0,14.5-6.3,14.5-14V39.4z"/>
<g id="XMLID_1_">
	<g>
		<path id="XMLID_46_" class="st2" d="M23.3,185.6c0.3,0,0.6,0.1,0.9,0.2c0.2,0.1,0.4,0.3,0.6,0.5c0.1,0.2,0.3,0.5,0.3,0.8
			c0.1,0.3,0.1,0.6,0.1,0.9c0,0.5-0.1,0.9-0.2,1.4s-0.3,0.8-0.5,1.1l-1.2-0.5c0.2-0.3,0.3-0.6,0.4-1c0.1-0.3,0.1-0.7,0.1-1.1
			c0-0.3,0-0.5-0.1-0.6c-0.1-0.1-0.2-0.2-0.3-0.2c-0.1,0-0.2,0.1-0.3,0.2c-0.1,0.1-0.2,0.4-0.3,0.7c-0.1,0.4-0.2,0.7-0.3,1
			c-0.1,0.3-0.2,0.5-0.4,0.7c-0.1,0.2-0.3,0.4-0.5,0.5c-0.2,0.1-0.5,0.2-0.8,0.2c-0.3,0-0.6-0.1-0.8-0.2s-0.4-0.3-0.6-0.5
			c-0.1-0.2-0.3-0.5-0.3-0.8c-0.1-0.3-0.1-0.6-0.1-1c0-0.4,0.1-0.8,0.2-1.2c0.1-0.4,0.2-0.7,0.4-1.1l1.2,0.5
			c-0.2,0.3-0.3,0.6-0.4,0.9c-0.1,0.3-0.1,0.6-0.1,0.8c0,0.3,0,0.5,0.1,0.6c0.1,0.1,0.2,0.2,0.3,0.2c0.1,0,0.1,0,0.2,0
			c0,0,0.1-0.1,0.1-0.2c0-0.1,0.1-0.2,0.2-0.4c0.1-0.2,0.1-0.4,0.2-0.6c0.1-0.3,0.2-0.5,0.3-0.8c0.1-0.2,0.2-0.5,0.4-0.6
			c0.1-0.2,0.3-0.3,0.5-0.4C22.7,185.6,23,185.6,23.3,185.6z"/>
		<path id="XMLID_43_" class="st2" d="M22,179.3c0.1,0,0.2,0,0.3,0c0.1,0,0.2,0,0.2,0v3.6c0.2,0,0.4-0.1,0.5-0.1
			c0.1-0.1,0.3-0.2,0.3-0.3c0.1-0.1,0.2-0.2,0.2-0.4c0-0.1,0.1-0.3,0.1-0.4c0-0.2,0-0.4-0.1-0.6s-0.2-0.3-0.3-0.4l0.9-1.1
			c0.3,0.2,0.6,0.6,0.7,1c0.2,0.4,0.3,0.8,0.3,1.2c0,0.4-0.1,0.8-0.2,1.2c-0.1,0.3-0.4,0.6-0.6,0.9s-0.6,0.4-1,0.6
			c-0.4,0.1-0.8,0.2-1.3,0.2c-0.5,0-0.9-0.1-1.3-0.2c-0.4-0.1-0.7-0.3-1-0.6s-0.5-0.5-0.6-0.8c-0.2-0.3-0.2-0.7-0.2-1.1
			c0-0.4,0.1-0.7,0.2-1.1s0.4-0.6,0.7-0.8c0.3-0.2,0.6-0.4,1-0.5S21.6,179.3,22,179.3z M21.3,180.8c-0.1,0-0.3,0-0.4,0.1
			s-0.2,0.1-0.3,0.2c-0.1,0.1-0.2,0.2-0.2,0.3s-0.1,0.3-0.1,0.5c0,0.3,0.1,0.5,0.3,0.7s0.5,0.3,0.8,0.3V180.8z"/>
		<path id="XMLID_40_" class="st2" d="M17.6,176.3c0.2,0,0.5,0.1,0.6,0.3c0.2,0.2,0.3,0.4,0.3,0.6s-0.1,0.5-0.3,0.6
			c-0.2,0.2-0.4,0.3-0.6,0.3s-0.5-0.1-0.6-0.3c-0.2-0.2-0.3-0.4-0.3-0.6s0.1-0.5,0.3-0.6C17.2,176.4,17.4,176.3,17.6,176.3z M25,178
			h-6v-1.6h6V178z"/>
		<path id="XMLID_38_" class="st2" d="M25,174.9h-1.1l-2.6-2.2c-0.1-0.1-0.3-0.3-0.5-0.4s-0.3-0.3-0.4-0.3c0,0.1,0,0.1,0,0.2
			c0,0.1,0,0.2,0,0.3c0,0.1,0,0.2,0,0.3c0,0.1,0,0.2,0,0.3v1.8H19V170h1.1l2.6,2.1c0.2,0.1,0.3,0.3,0.5,0.4c0.2,0.1,0.3,0.3,0.4,0.3
			c0-0.1,0-0.1,0-0.2c0-0.1,0-0.2,0-0.3s0-0.2,0-0.3c0-0.1,0-0.2,0-0.3V170H25V174.9z"/>
		<path id="XMLID_36_" class="st2" d="M25,165h-0.4c0.1,0.1,0.3,0.3,0.4,0.6s0.2,0.5,0.2,0.8c0,0.8-0.2,1.3-0.7,1.7
			c-0.5,0.4-1.2,0.5-2,0.5H19V167h3.2c0.3,0,0.5,0,0.7-0.1s0.3-0.1,0.4-0.2c0.1-0.1,0.2-0.2,0.2-0.3c0-0.1,0.1-0.3,0.1-0.4
			c0-0.3-0.1-0.6-0.3-0.8c-0.2-0.2-0.5-0.3-1.1-0.3H19v-1.6h6V165z"/>
		<path id="XMLID_34_" class="st2" d="M20.9,158.4c-0.1,0.1-0.2,0.3-0.3,0.4s-0.1,0.3-0.1,0.5c0,0.2,0,0.3,0.1,0.4s0.1,0.2,0.2,0.3
			c0.1,0.1,0.2,0.2,0.4,0.2s0.4,0.1,0.6,0.1H25v1.6h-6v-1.6h0.4c-0.1-0.1-0.3-0.3-0.4-0.5c-0.1-0.2-0.2-0.4-0.2-0.7
			c0-0.3,0-0.5,0.1-0.7c0.1-0.2,0.2-0.3,0.3-0.4L20.9,158.4z"/>
		<path id="XMLID_31_" class="st2" d="M22,152.1c0.1,0,0.2,0,0.3,0c0.1,0,0.2,0,0.2,0v3.6c0.2,0,0.4-0.1,0.5-0.1
			c0.1-0.1,0.3-0.2,0.3-0.3c0.1-0.1,0.2-0.2,0.2-0.4c0-0.1,0.1-0.3,0.1-0.4c0-0.2,0-0.4-0.1-0.6s-0.2-0.3-0.3-0.4l0.9-1.1
			c0.3,0.2,0.6,0.6,0.7,1c0.2,0.4,0.3,0.8,0.3,1.2c0,0.4-0.1,0.8-0.2,1.2c-0.1,0.3-0.4,0.6-0.6,0.9s-0.6,0.4-1,0.6
			c-0.4,0.1-0.8,0.2-1.3,0.2c-0.5,0-0.9-0.1-1.3-0.2c-0.4-0.1-0.7-0.3-1-0.6s-0.5-0.5-0.6-0.8c-0.2-0.3-0.2-0.7-0.2-1.1
			c0-0.4,0.1-0.7,0.2-1.1s0.4-0.6,0.7-0.8c0.3-0.2,0.6-0.4,1-0.5S21.6,152.1,22,152.1z M21.3,153.7c-0.1,0-0.3,0-0.4,0.1
			s-0.2,0.1-0.3,0.2c-0.1,0.1-0.2,0.2-0.2,0.3s-0.1,0.3-0.1,0.5c0,0.3,0.1,0.5,0.3,0.7s0.5,0.3,0.8,0.3V153.7z"/>
		<path id="XMLID_29_" class="st2" d="M18.1,144.8c0,0.1,0,0.2,0,0.3c0,0.2,0,0.4,0.1,0.5c0.1,0.1,0.2,0.1,0.4,0.1H19v-1h1.5v1H25
			v1.6h-4.5v0.7H19v-0.7h-0.7c-0.6,0-1-0.1-1.2-0.4s-0.4-0.7-0.4-1.3c0-0.4,0.1-0.7,0.2-1h1.3C18.1,144.6,18.1,144.7,18.1,144.8z"/>
		<path id="XMLID_27_" class="st2" d="M20.9,139.9c-0.1,0.1-0.2,0.3-0.3,0.4s-0.1,0.3-0.1,0.5c0,0.2,0,0.3,0.1,0.4s0.1,0.2,0.2,0.3
			c0.1,0.1,0.2,0.2,0.4,0.2s0.4,0.1,0.6,0.1H25v1.6h-6v-1.6h0.4c-0.1-0.1-0.3-0.3-0.4-0.5c-0.1-0.2-0.2-0.4-0.2-0.7
			c0-0.3,0-0.5,0.1-0.7c0.1-0.2,0.2-0.3,0.3-0.4L20.9,139.9z"/>
		<path id="XMLID_24_" class="st2" d="M22,133.6c0.1,0,0.2,0,0.3,0c0.1,0,0.2,0,0.2,0v3.6c0.2,0,0.4-0.1,0.5-0.1
			c0.1-0.1,0.3-0.2,0.3-0.3c0.1-0.1,0.2-0.2,0.2-0.4c0-0.1,0.1-0.3,0.1-0.4c0-0.2,0-0.4-0.1-0.6s-0.2-0.3-0.3-0.4l0.9-1.1
			c0.3,0.2,0.6,0.6,0.7,1c0.2,0.4,0.3,0.8,0.3,1.2c0,0.4-0.1,0.8-0.2,1.2c-0.1,0.3-0.4,0.6-0.6,0.9s-0.6,0.4-1,0.6
			c-0.4,0.1-0.8,0.2-1.3,0.2c-0.5,0-0.9-0.1-1.3-0.2c-0.4-0.1-0.7-0.3-1-0.6s-0.5-0.5-0.6-0.8c-0.2-0.3-0.2-0.7-0.2-1.1
			c0-0.4,0.1-0.7,0.2-1.1s0.4-0.6,0.7-0.8c0.3-0.2,0.6-0.4,1-0.5S21.6,133.6,22,133.6z M21.3,135.2c-0.1,0-0.3,0-0.4,0.1
			s-0.2,0.1-0.3,0.2c-0.1,0.1-0.2,0.2-0.2,0.3s-0.1,0.3-0.1,0.5c0,0.3,0.1,0.5,0.3,0.7s0.5,0.3,0.8,0.3V135.2z"/>
		<path id="XMLID_21_" class="st2" d="M22,127.5c0.1,0,0.2,0,0.3,0c0.1,0,0.2,0,0.2,0v3.6c0.2,0,0.4-0.1,0.5-0.1
			c0.1-0.1,0.3-0.2,0.3-0.3c0.1-0.1,0.2-0.2,0.2-0.4c0-0.1,0.1-0.3,0.1-0.4c0-0.2,0-0.4-0.1-0.6s-0.2-0.3-0.3-0.4l0.9-1.1
			c0.3,0.2,0.6,0.6,0.7,1c0.2,0.4,0.3,0.8,0.3,1.2c0,0.4-0.1,0.8-0.2,1.2c-0.1,0.3-0.4,0.6-0.6,0.9s-0.6,0.4-1,0.6
			c-0.4,0.1-0.8,0.2-1.3,0.2c-0.5,0-0.9-0.1-1.3-0.2c-0.4-0.1-0.7-0.3-1-0.6s-0.5-0.5-0.6-0.8c-0.2-0.3-0.2-0.7-0.2-1.1
			c0-0.4,0.1-0.7,0.2-1.1s0.4-0.6,0.7-0.8c0.3-0.2,0.6-0.4,1-0.5S21.6,127.5,22,127.5z M21.3,129c-0.1,0-0.3,0-0.4,0.1
			s-0.2,0.1-0.3,0.2c-0.1,0.1-0.2,0.2-0.2,0.3s-0.1,0.3-0.1,0.5c0,0.3,0.1,0.5,0.3,0.7s0.5,0.3,0.8,0.3V129z"/>
		<path id="XMLID_18_" class="st2" d="M25,123h-0.4c0.1,0.2,0.2,0.3,0.3,0.5s0.2,0.4,0.2,0.7c0,0.3-0.1,0.6-0.2,0.9
			c-0.1,0.3-0.3,0.5-0.6,0.7s-0.6,0.4-1,0.5c-0.4,0.1-0.9,0.2-1.4,0.2c-0.4,0-0.9-0.1-1.2-0.2s-0.7-0.3-1-0.4
			c-0.3-0.2-0.5-0.4-0.6-0.7c-0.1-0.3-0.2-0.6-0.2-1c0-0.3,0-0.5,0.1-0.7s0.2-0.4,0.3-0.5h-1.9l-0.8-1.6H25V123z M20.9,123
			c-0.3,0.3-0.5,0.6-0.5,1.1c0,0.6,0.5,0.9,1.5,0.9c0.6,0,1.1-0.1,1.3-0.3s0.4-0.4,0.4-0.7c0-0.2,0-0.4-0.1-0.6
			c-0.1-0.1-0.2-0.3-0.4-0.4H20.9z"/>
		<path id="XMLID_15_" class="st2" d="M22,114.8c0.5,0,0.9,0.1,1.3,0.2c0.4,0.1,0.7,0.3,1,0.6s0.5,0.5,0.6,0.9s0.2,0.7,0.2,1.1
			s-0.1,0.7-0.2,1.1s-0.4,0.6-0.6,0.9s-0.6,0.4-1,0.6c-0.4,0.1-0.8,0.2-1.3,0.2s-0.9-0.1-1.3-0.2c-0.4-0.1-0.7-0.3-1-0.6
			s-0.5-0.5-0.6-0.9c-0.2-0.3-0.2-0.7-0.2-1.1s0.1-0.7,0.2-1.1c0.2-0.3,0.4-0.6,0.6-0.9s0.6-0.4,1-0.6
			C21.1,114.8,21.6,114.8,22,114.8z M22,116.3c-0.5,0-0.8,0.1-1.2,0.3c-0.3,0.2-0.5,0.5-0.5,0.8c0,0.4,0.2,0.7,0.5,0.8
			c0.3,0.2,0.7,0.3,1.2,0.3c0.5,0,0.9-0.1,1.2-0.3c0.3-0.2,0.5-0.5,0.5-0.8c0-0.2,0-0.4-0.1-0.5s-0.2-0.3-0.4-0.3
			c-0.1-0.1-0.3-0.2-0.5-0.2C22.4,116.4,22.2,116.3,22,116.3z"/>
		<path id="XMLID_13_" class="st2" d="M25,106.5h-3.2c-0.5,0-0.9,0.1-1.1,0.2s-0.3,0.4-0.3,0.7c0,0.3,0.1,0.6,0.3,0.7
			c0.2,0.2,0.5,0.2,1.1,0.2H25v1.6h-3.2c-0.5,0-0.9,0.1-1.1,0.2c-0.2,0.2-0.3,0.4-0.3,0.7c0,0.3,0.1,0.6,0.3,0.7
			c0.2,0.2,0.5,0.2,1.1,0.2H25v1.6h-6V112h0.4c-0.1-0.1-0.3-0.3-0.4-0.5c-0.1-0.2-0.2-0.5-0.2-0.8c0-0.4,0.1-0.7,0.2-0.9
			c0.1-0.3,0.3-0.5,0.6-0.7c-0.2-0.2-0.4-0.4-0.5-0.7c-0.1-0.3-0.2-0.7-0.2-1.2c0-0.4,0.1-0.7,0.2-1c0.1-0.3,0.3-0.5,0.5-0.7
			s0.5-0.3,0.9-0.4c0.3-0.1,0.7-0.1,1.1-0.1H25V106.5z"/>
		<path id="XMLID_11_" class="st2" d="M26.3,101.6c-0.3,0.3-0.6,0.5-0.9,0.8c-0.3,0.2-0.7,0.4-1,0.6s-0.8,0.3-1.2,0.4
			c-0.4,0.1-0.9,0.2-1.5,0.2s-1,0-1.5-0.1c-0.4-0.1-0.8-0.2-1.2-0.4c-0.4-0.2-0.7-0.4-1.1-0.6c-0.3-0.2-0.7-0.5-1-0.8l0.7-1
			c0.3,0.2,0.5,0.4,0.8,0.6c0.3,0.2,0.6,0.3,0.9,0.4c0.3,0.1,0.7,0.2,1,0.3s0.8,0.1,1.2,0.1c0.4,0,0.9,0,1.2-0.1s0.7-0.2,1-0.3
			c0.3-0.1,0.6-0.3,0.9-0.4c0.3-0.2,0.6-0.4,0.8-0.6L26.3,101.6z"/>
		<path id="XMLID_5_" class="st2" d="M25.1,98l-7.6-4.3v-0.6l7.6,4.3V98z M19.7,96.2c1.6,0,2.3,0.8,2.3,1.8c0,0.9-0.7,1.7-2.2,1.7
			c-1.5,0-2.3-0.8-2.3-1.8C17.5,96.9,18.3,96.2,19.7,96.2z M19.8,98.9c0.9,0,1.7-0.3,1.7-1c0-0.7-0.7-1-1.7-1c-0.9,0-1.7,0.3-1.7,1
			C18.1,98.6,18.8,98.9,19.8,98.9z M22.7,91.4c1.6,0,2.3,0.8,2.3,1.8c0,0.9-0.7,1.7-2.2,1.7c-1.5,0-2.3-0.8-2.3-1.8
			C20.5,92.1,21.3,91.4,22.7,91.4z M22.8,94.1c0.9,0,1.7-0.4,1.7-1c0-0.7-0.7-1-1.7-1c-0.9,0-1.7,0.3-1.7,1
			C21.1,93.8,21.9,94.1,22.8,94.1z"/>
		<path id="XMLID_3_" class="st2" d="M21.5,87.5c0.5,0,1,0,1.5,0.1c0.4,0.1,0.9,0.2,1.2,0.4c0.4,0.2,0.7,0.4,1.1,0.6
			c0.3,0.2,0.7,0.5,1,0.8l-0.7,1c-0.3-0.2-0.5-0.4-0.8-0.6c-0.3-0.2-0.6-0.3-0.9-0.4c-0.3-0.1-0.7-0.2-1-0.3
			c-0.4-0.1-0.8-0.1-1.2-0.1c-0.4,0-0.9,0-1.2,0.1c-0.4,0.1-0.7,0.2-1,0.3c-0.3,0.1-0.6,0.3-0.9,0.4c-0.3,0.2-0.6,0.4-0.8,0.6
			l-0.7-1c0.3-0.3,0.6-0.5,0.9-0.8c0.3-0.2,0.7-0.4,1.1-0.6c0.4-0.2,0.8-0.3,1.2-0.4S21,87.5,21.5,87.5z"/>
	</g>
</g>
</svg>
