<!-- Generator: Adobe Illustrator 22.1.0, SVG Export Plug-In  -->
<svg version="1.1"
	 xmlns="http://www.w3.org/2000/svg" xmlns:xlink="http://www.w3.org/1999/xlink" xmlns:a="http://ns.adobe.com/AdobeSVGViewerExtensions/3.0/"
	 x="0px" y="0px" width="494.3px" height="180.9px" viewBox="0 0 494.3 180.9" style="enable-background:new 0 0 494.3 180.9;"
	 xml:space="preserve">
<style type="text/css">
	.st0{fill:url(#XMLID_406_);}
	.st1{fill:#FFFFFF;}
	.st2{fill:url(#XMLID_407_);}
</style>
<defs>
</defs>
<linearGradient id="XMLID_406_" gradientUnits="userSpaceOnUse" x1="1878.1243" y1="90.4535" x2="2372.4431" y2="90.4535" gradientTransform="matrix(-1 0 0 1 2372.4431 0)">
	<stop  offset="0" style="stop-color:#4B257A"/>
	<stop  offset="1" style="stop-color:#954C8D"/>
</linearGradient>
<path id="XMLID_405_" class="st0" d="M68.7,113.2V31.2C68.7,14,82.9,0,100.4,0h362.2c17.5,0,31.7,14,31.7,31.2v81.9
	c0,37.4-30.8,67.7-68.7,67.7H0C37.9,180.9,68.7,150.6,68.7,113.2z"/>
<g id="XMLID_340_">
	<path id="XMLID_402_" class="st1" d="M181.9,41.8c0,0.8-0.1,1.6-0.3,2.3c-0.2,0.7-0.5,1.3-0.8,1.8c-0.4,0.5-0.8,0.9-1.3,1.1
		c-0.5,0.3-1.1,0.4-1.8,0.4c-0.5,0-0.9-0.1-1.3-0.3c-0.4-0.2-0.7-0.4-1-0.6v0.6h-2.9V33.4l2.9-1.4v4.9c0.3-0.2,0.6-0.4,1-0.6
		c0.4-0.2,0.8-0.3,1.3-0.3c0.6,0,1.1,0.1,1.6,0.3c0.5,0.2,1,0.6,1.4,1.1c0.4,0.5,0.7,1.1,0.9,1.8C181.8,39.9,181.9,40.8,181.9,41.8z
		 M179,41.9c0-1.1-0.2-1.9-0.5-2.4s-0.8-0.8-1.4-0.8c-0.4,0-0.8,0.1-1.1,0.3c-0.3,0.2-0.5,0.4-0.7,0.7v4.1c0.5,0.6,1.1,0.9,1.9,0.9
		C178.4,44.7,179,43.7,179,41.9z"/>
	<path id="XMLID_399_" class="st1" d="M187.3,33.7c0,0.4-0.2,0.8-0.5,1.2c-0.3,0.3-0.7,0.5-1.2,0.5c-0.4,0-0.8-0.2-1.2-0.5
		c-0.3-0.3-0.5-0.7-0.5-1.2c0-0.4,0.2-0.8,0.5-1.2c0.3-0.3,0.7-0.5,1.2-0.5c0.4,0,0.8,0.2,1.2,0.5C187.2,32.8,187.3,33.2,187.3,33.7
		z M184.3,47.2V36.2h2.9v10.9H184.3z"/>
	<path id="XMLID_397_" class="st1" d="M196.6,47.2v-5.9c0-1-0.2-1.6-0.5-2c-0.3-0.4-0.8-0.5-1.4-0.5c-0.6,0-1.1,0.2-1.4,0.5
		c-0.3,0.4-0.5,1-0.5,1.9v6H190V36.2h2.9v0.7c0.3-0.3,0.6-0.5,1-0.7s0.9-0.3,1.5-0.3c1.4,0,2.4,0.4,3.1,1.3s1,2.1,1,3.7v6.2H196.6z"
		/>
	<path id="XMLID_394_" class="st1" d="M208.2,47.2v-0.7c-0.3,0.2-0.6,0.4-1,0.6c-0.4,0.2-0.8,0.3-1.3,0.3c-0.6,0-1.1-0.1-1.6-0.3
		c-0.5-0.2-1-0.6-1.4-1.1c-0.4-0.5-0.7-1.1-0.9-1.8c-0.2-0.7-0.3-1.6-0.3-2.6c0-0.8,0.1-1.6,0.3-2.3c0.2-0.7,0.5-1.3,0.8-1.8
		s0.8-0.9,1.3-1.1s1.1-0.4,1.8-0.4c0.5,0,0.9,0.1,1.3,0.3c0.4,0.2,0.7,0.4,1,0.6v-3.4l2.9-1.4v15.2H208.2z M208.2,39.6
		c-0.5-0.6-1.1-0.9-1.9-0.9c-1.1,0-1.7,0.9-1.7,2.8c0,1.1,0.2,1.9,0.5,2.4s0.8,0.8,1.4,0.8c0.4,0,0.8-0.1,1.1-0.3
		c0.3-0.2,0.5-0.4,0.7-0.7V39.6z"/>
	<path id="XMLID_391_" class="st1" d="M217.1,33.7c0,0.4-0.2,0.8-0.5,1.2c-0.3,0.3-0.7,0.5-1.2,0.5c-0.4,0-0.8-0.2-1.2-0.5
		c-0.3-0.3-0.5-0.7-0.5-1.2c0-0.4,0.2-0.8,0.5-1.2c0.3-0.3,0.7-0.5,1.2-0.5c0.4,0,0.8,0.2,1.2,0.5C216.9,32.8,217.1,33.2,217.1,33.7
		z M214,47.2V36.2h2.9v10.9H214z"/>
	<path id="XMLID_389_" class="st1" d="M226.4,47.2v-5.9c0-1-0.2-1.6-0.5-2c-0.3-0.4-0.8-0.5-1.4-0.5c-0.6,0-1.1,0.2-1.4,0.5
		c-0.3,0.4-0.5,1-0.5,1.9v6h-2.9V36.2h2.9v0.7c0.3-0.3,0.6-0.5,1-0.7s0.9-0.3,1.5-0.3c1.4,0,2.4,0.4,3.1,1.3s1,2.1,1,3.7v6.2H226.4z
		"/>
	<path id="XMLID_386_" class="st1" d="M240.8,45.3c0,0.9-0.1,1.7-0.2,2.4c-0.1,0.7-0.4,1.3-0.7,1.8c-0.3,0.5-0.8,0.9-1.4,1.2
		c-0.6,0.3-1.4,0.5-2.4,0.6l-1-2.2c0.6-0.1,1-0.2,1.4-0.3c0.4-0.1,0.7-0.3,0.9-0.5c0.2-0.2,0.4-0.4,0.5-0.7s0.1-0.6,0.1-1.1
		c-0.3,0.2-0.6,0.4-1,0.6c-0.4,0.2-0.8,0.3-1.3,0.3c-0.6,0-1.1-0.1-1.6-0.3c-0.5-0.2-1-0.6-1.4-1.1c-0.4-0.5-0.7-1.1-0.9-1.8
		c-0.2-0.7-0.3-1.6-0.3-2.6c0-0.8,0.1-1.6,0.3-2.3c0.2-0.7,0.5-1.3,0.8-1.8s0.8-0.9,1.3-1.1s1.1-0.4,1.8-0.4c0.5,0,0.9,0.1,1.3,0.3
		c0.4,0.2,0.7,0.4,1,0.6v-0.6h2.9V45.3z M237.9,39.6c-0.5-0.6-1.1-0.9-1.9-0.9c-1.1,0-1.7,0.9-1.7,2.8c0,1.1,0.2,1.9,0.5,2.4
		s0.8,0.8,1.4,0.8c0.4,0,0.8-0.1,1.1-0.3c0.3-0.2,0.5-0.4,0.7-0.7V39.6z"/>
	<path id="XMLID_383_" class="st1" d="M258.6,41.7c0,0.2,0,0.4,0,0.5c0,0.1,0,0.3,0,0.4H252c0,0.4,0.1,0.7,0.3,1s0.3,0.5,0.5,0.6
		c0.2,0.2,0.4,0.3,0.7,0.4c0.3,0.1,0.5,0.1,0.8,0.1c0.4,0,0.8-0.1,1.1-0.2c0.3-0.1,0.6-0.3,0.8-0.6l2,1.7c-0.4,0.6-1,1-1.7,1.3
		c-0.7,0.3-1.4,0.5-2.2,0.5c-0.8,0-1.5-0.1-2.1-0.4c-0.6-0.3-1.2-0.7-1.6-1.1c-0.4-0.5-0.8-1.1-1-1.8c-0.2-0.7-0.4-1.5-0.4-2.3
		c0-0.8,0.1-1.6,0.4-2.3c0.3-0.7,0.6-1.3,1-1.8c0.4-0.5,1-0.9,1.5-1.2c0.6-0.3,1.2-0.4,1.9-0.4c0.7,0,1.4,0.1,1.9,0.4
		c0.6,0.3,1.1,0.7,1.4,1.2c0.4,0.5,0.7,1.1,0.9,1.8C258.5,40.2,258.6,40.9,258.6,41.7z M255.8,40.4c0-0.3-0.1-0.5-0.2-0.7
		c-0.1-0.2-0.2-0.4-0.4-0.6s-0.4-0.3-0.6-0.4c-0.2-0.1-0.5-0.2-0.8-0.2c-0.5,0-1,0.2-1.3,0.6s-0.5,0.8-0.5,1.4H255.8z"/>
	<path id="XMLID_381_" class="st1" d="M267.5,47.2v-5.9c0-1-0.2-1.6-0.5-2c-0.3-0.4-0.8-0.5-1.4-0.5c-0.6,0-1.1,0.2-1.4,0.5
		c-0.3,0.4-0.5,1-0.5,1.9v6h-2.9V36.2h2.9v0.7c0.3-0.3,0.6-0.5,1-0.7s0.9-0.3,1.5-0.3c1.4,0,2.4,0.4,3.1,1.3s1,2.1,1,3.7v6.2H267.5z
		"/>
	<path id="XMLID_379_" class="st1" d="M279.7,47.2v-5.9c0-1-0.2-1.6-0.5-2c-0.3-0.4-0.8-0.5-1.4-0.5c-0.6,0-1.1,0.2-1.4,0.5
		c-0.3,0.4-0.5,1-0.5,1.9v6h-2.9V33.4l2.9-1.4v5c0.3-0.3,0.6-0.5,1-0.7s0.9-0.3,1.5-0.3c1.4,0,2.4,0.4,3.1,1.3s1,2.1,1,3.7v6.2
		H279.7z"/>
	<path id="XMLID_376_" class="st1" d="M291.3,47.2v-0.7c-0.3,0.3-0.6,0.5-1,0.7c-0.4,0.2-0.9,0.3-1.4,0.3c-0.5,0-1-0.1-1.5-0.2
		c-0.5-0.2-0.9-0.4-1.3-0.7c-0.4-0.3-0.7-0.7-0.9-1.2c-0.2-0.5-0.4-1.1-0.4-1.7c0-0.6,0.1-1.1,0.3-1.6c0.2-0.5,0.5-0.8,0.9-1.1
		c0.4-0.3,0.9-0.5,1.4-0.7s1.1-0.2,1.7-0.2c0.5,0,0.9,0,1.3,0.1s0.6,0.2,0.9,0.3v-0.5c0-0.4-0.1-0.7-0.4-1c-0.3-0.3-0.6-0.4-1.2-0.4
		c-0.3,0-0.6,0-0.9,0c-0.3,0-0.5,0.1-0.7,0.1c-0.2,0.1-0.5,0.1-0.7,0.2c-0.2,0.1-0.5,0.2-0.7,0.3l-1.1-2c0.3-0.2,0.6-0.3,0.9-0.5
		c0.3-0.1,0.6-0.3,0.9-0.3s0.7-0.2,1-0.2c0.4,0,0.8-0.1,1.2-0.1c0.7,0,1.3,0.1,1.8,0.3c0.5,0.2,1,0.4,1.4,0.7
		c0.4,0.3,0.7,0.7,0.9,1.2c0.2,0.5,0.3,1,0.3,1.6v7.3H291.3z M291.3,42.6c-0.3-0.2-0.5-0.3-0.8-0.3c-0.3-0.1-0.7-0.1-1.2-0.1
		c-0.5,0-1,0.1-1.2,0.4c-0.3,0.2-0.4,0.6-0.4,1c0,0.4,0.1,0.7,0.4,1c0.3,0.3,0.7,0.4,1.3,0.4c0.5,0,0.9-0.1,1.2-0.3
		c0.4-0.2,0.6-0.4,0.8-0.7V42.6z"/>
	<path id="XMLID_374_" class="st1" d="M303.4,47.2v-5.9c0-1-0.2-1.6-0.5-2c-0.3-0.4-0.8-0.5-1.4-0.5c-0.6,0-1.1,0.2-1.4,0.5
		c-0.3,0.4-0.5,1-0.5,1.9v6h-2.9V36.2h2.9v0.7c0.3-0.3,0.6-0.5,1-0.7s0.9-0.3,1.5-0.3c1.4,0,2.4,0.4,3.1,1.3s1,2.1,1,3.7v6.2H303.4z
		"/>
	<path id="XMLID_372_" class="st1" d="M317.2,45.9c-0.3,0.3-0.6,0.5-1,0.8c-0.4,0.2-0.8,0.4-1.2,0.5s-0.9,0.2-1.5,0.2
		c-0.7,0-1.4-0.1-2-0.4s-1.2-0.7-1.6-1.2c-0.5-0.5-0.8-1.1-1.1-1.8c-0.3-0.7-0.4-1.5-0.4-2.3c0-0.8,0.1-1.6,0.4-2.3
		c0.3-0.7,0.6-1.3,1.1-1.8c0.5-0.5,1-0.9,1.7-1.2c0.6-0.3,1.3-0.4,2.1-0.4c1,0,1.9,0.2,2.6,0.7c0.7,0.4,1.3,1,1.7,1.7l-1.9,1.9
		c-0.3-0.5-0.7-0.8-1.1-1.1c-0.4-0.3-0.9-0.4-1.4-0.4c-0.7,0-1.2,0.3-1.7,0.8c-0.4,0.5-0.6,1.3-0.6,2.2c0,0.9,0.2,1.6,0.6,2.1
		s1,0.8,1.7,0.8c0.6,0,1-0.1,1.4-0.4c0.4-0.2,0.8-0.6,1.1-1L318,45C317.8,45.3,317.5,45.6,317.2,45.9z"/>
	<path id="XMLID_369_" class="st1" d="M328.8,41.7c0,0.2,0,0.4,0,0.5c0,0.1,0,0.3,0,0.4h-6.6c0,0.4,0.1,0.7,0.3,1s0.3,0.5,0.5,0.6
		c0.2,0.2,0.4,0.3,0.7,0.4c0.3,0.1,0.5,0.1,0.8,0.1c0.4,0,0.8-0.1,1.1-0.2c0.3-0.1,0.6-0.3,0.8-0.6l2,1.7c-0.4,0.6-1,1-1.7,1.3
		c-0.7,0.3-1.4,0.5-2.2,0.5c-0.8,0-1.5-0.1-2.1-0.4c-0.6-0.3-1.2-0.7-1.6-1.1c-0.4-0.5-0.8-1.1-1-1.8c-0.2-0.7-0.4-1.5-0.4-2.3
		c0-0.8,0.1-1.6,0.4-2.3c0.3-0.7,0.6-1.3,1-1.8c0.4-0.5,1-0.9,1.5-1.2c0.6-0.3,1.2-0.4,1.9-0.4c0.7,0,1.4,0.1,1.9,0.4
		c0.6,0.3,1.1,0.7,1.4,1.2c0.4,0.5,0.7,1.1,0.9,1.8C328.7,40.2,328.8,40.9,328.8,41.7z M326.1,40.4c0-0.3-0.1-0.5-0.2-0.7
		c-0.1-0.2-0.2-0.4-0.4-0.6s-0.4-0.3-0.6-0.4c-0.2-0.1-0.5-0.2-0.8-0.2c-0.5,0-1,0.2-1.3,0.6s-0.5,0.8-0.5,1.4H326.1z"/>
	<path id="XMLID_367_" class="st1" d="M339.6,44c0,0.6-0.1,1.2-0.4,1.6c-0.2,0.4-0.6,0.8-1,1.1c-0.4,0.3-0.9,0.5-1.4,0.6
		c-0.5,0.1-1.1,0.2-1.7,0.2c-0.9,0-1.7-0.1-2.5-0.3c-0.8-0.2-1.5-0.5-2.1-0.9l1-2.2c0.6,0.3,1.2,0.6,1.8,0.7c0.6,0.2,1.3,0.3,2,0.3
		c0.6,0,1-0.1,1.2-0.2c0.2-0.1,0.3-0.3,0.3-0.6c0-0.3-0.1-0.5-0.3-0.6c-0.2-0.2-0.6-0.3-1.3-0.5c-0.7-0.2-1.2-0.4-1.8-0.6
		c-0.5-0.2-1-0.4-1.4-0.7s-0.7-0.6-0.9-1c-0.2-0.4-0.3-0.9-0.3-1.5c0-0.6,0.1-1.1,0.3-1.5s0.5-0.7,0.9-1c0.4-0.3,0.9-0.5,1.4-0.6
		c0.5-0.1,1.1-0.2,1.8-0.2c0.7,0,1.4,0.1,2.1,0.3c0.7,0.2,1.4,0.5,1.9,0.8l-0.9,2.3c-0.5-0.3-1.1-0.5-1.7-0.7
		c-0.6-0.1-1.1-0.2-1.5-0.2c-0.6,0-1,0.1-1.2,0.2s-0.3,0.3-0.3,0.5c0,0.1,0,0.2,0.1,0.3c0.1,0.1,0.2,0.2,0.3,0.3
		c0.2,0.1,0.4,0.2,0.7,0.3c0.3,0.1,0.7,0.2,1.2,0.4c0.5,0.2,1,0.3,1.4,0.5c0.4,0.2,0.8,0.4,1.2,0.7s0.6,0.6,0.8,1
		C339.5,43,339.6,43.4,339.6,44z"/>
	<path id="XMLID_364_" class="st1" d="M354.2,47.2v-0.7c-0.3,0.3-0.6,0.5-1,0.7c-0.4,0.2-0.9,0.3-1.4,0.3c-0.5,0-1-0.1-1.5-0.2
		c-0.5-0.2-0.9-0.4-1.3-0.7c-0.4-0.3-0.7-0.7-0.9-1.2c-0.2-0.5-0.4-1.1-0.4-1.7c0-0.6,0.1-1.1,0.3-1.6c0.2-0.5,0.5-0.8,0.9-1.1
		c0.4-0.3,0.9-0.5,1.4-0.7s1.1-0.2,1.7-0.2c0.5,0,0.9,0,1.3,0.1s0.6,0.2,0.9,0.3v-0.5c0-0.4-0.1-0.7-0.4-1c-0.3-0.3-0.6-0.4-1.2-0.4
		c-0.3,0-0.6,0-0.9,0c-0.3,0-0.5,0.1-0.7,0.1c-0.2,0.1-0.5,0.1-0.7,0.2c-0.2,0.1-0.5,0.2-0.7,0.3l-1.1-2c0.3-0.2,0.6-0.3,0.9-0.5
		c0.3-0.1,0.6-0.3,0.9-0.3s0.7-0.2,1-0.2c0.4,0,0.8-0.1,1.2-0.1c0.7,0,1.3,0.1,1.8,0.3c0.5,0.2,1,0.4,1.4,0.7
		c0.4,0.3,0.7,0.7,0.9,1.2c0.2,0.5,0.3,1,0.3,1.6v7.3H354.2z M354.2,42.6c-0.3-0.2-0.5-0.3-0.8-0.3c-0.3-0.1-0.7-0.1-1.2-0.1
		c-0.5,0-1,0.1-1.2,0.4c-0.3,0.2-0.4,0.6-0.4,1c0,0.4,0.1,0.7,0.4,1c0.3,0.3,0.7,0.4,1.3,0.4c0.5,0,0.9-0.1,1.2-0.3
		c0.4-0.2,0.6-0.4,0.8-0.7V42.6z"/>
	<path id="XMLID_362_" class="st1" d="M371,34.5c-0.2,0-0.3-0.1-0.5-0.1c-0.4,0-0.7,0.1-0.9,0.2c-0.1,0.1-0.2,0.4-0.2,0.7v0.9h1.9
		v2.7h-1.9v8.2h-2.9v-8.2h-1.3v-2.7h1.3v-1.3c0-1,0.3-1.8,0.8-2.2c0.5-0.4,1.3-0.7,2.3-0.7c0.7,0,1.3,0.1,1.8,0.3v2.3
		C371.3,34.6,371.1,34.5,371,34.5z"/>
	<path id="XMLID_360_" class="st1" d="M380,47.2v-0.7c-0.3,0.3-0.6,0.5-1,0.7s-0.9,0.3-1.5,0.3c-1.4,0-2.4-0.4-3.1-1.3
		c-0.6-0.9-1-2.1-1-3.7v-6.2h2.9v5.9c0,0.5,0,0.9,0.1,1.2s0.2,0.6,0.4,0.8c0.2,0.2,0.3,0.3,0.6,0.4c0.2,0.1,0.5,0.1,0.8,0.1
		c0.6,0,1.1-0.2,1.4-0.5c0.3-0.4,0.5-1,0.5-1.9v-6h2.9v10.9H380z"/>
	<path id="XMLID_358_" class="st1" d="M392.3,47.2v-5.9c0-1-0.2-1.6-0.5-2c-0.3-0.4-0.8-0.5-1.4-0.5c-0.6,0-1.1,0.2-1.4,0.5
		c-0.3,0.4-0.5,1-0.5,1.9v6h-2.9V36.2h2.9v0.7c0.3-0.3,0.6-0.5,1-0.7s0.9-0.3,1.5-0.3c1.4,0,2.4,0.4,3.1,1.3s1,2.1,1,3.7v6.2H392.3z
		"/>
	<path id="XMLID_356_" class="st1" d="M406,45.9c-0.3,0.3-0.6,0.5-1,0.8c-0.4,0.2-0.8,0.4-1.2,0.5s-0.9,0.2-1.5,0.2
		c-0.7,0-1.4-0.1-2-0.4s-1.2-0.7-1.6-1.2c-0.5-0.5-0.8-1.1-1.1-1.8c-0.3-0.7-0.4-1.5-0.4-2.3c0-0.8,0.1-1.6,0.4-2.3
		c0.3-0.7,0.6-1.3,1.1-1.8c0.5-0.5,1-0.9,1.7-1.2c0.6-0.3,1.3-0.4,2.1-0.4c1,0,1.9,0.2,2.6,0.7c0.7,0.4,1.3,1,1.7,1.7l-1.9,1.9
		c-0.3-0.5-0.7-0.8-1.1-1.1c-0.4-0.3-0.9-0.4-1.4-0.4c-0.7,0-1.2,0.3-1.7,0.8c-0.4,0.5-0.6,1.3-0.6,2.2c0,0.9,0.2,1.6,0.6,2.1
		s1,0.8,1.7,0.8c0.6,0,1-0.1,1.4-0.4c0.4-0.2,0.8-0.6,1.1-1l1.8,1.7C406.6,45.3,406.3,45.6,406,45.9z"/>
	<path id="XMLID_354_" class="st1" d="M415.1,46.7c-0.2,0.2-0.6,0.4-1,0.5s-0.8,0.2-1.3,0.2c-0.4,0-0.8-0.1-1.2-0.2
		c-0.4-0.2-0.7-0.4-0.9-0.7c-0.3-0.3-0.4-0.6-0.6-1c-0.1-0.4-0.2-0.8-0.2-1.3v-5.2h-1.8v-2.7h1.8v-2.8l2.9-1.4v4.3h2.6v2.7h-2.6v4.4
		c0,0.5,0.1,0.9,0.3,1.1c0.2,0.2,0.4,0.3,0.8,0.3c0.3,0,0.5-0.1,0.7-0.2c0.2-0.1,0.5-0.3,0.9-0.6L415.1,46.7z"/>
	<path id="XMLID_351_" class="st1" d="M421.4,33.7c0,0.4-0.2,0.8-0.5,1.2c-0.3,0.3-0.7,0.5-1.2,0.5c-0.4,0-0.8-0.2-1.2-0.5
		c-0.3-0.3-0.5-0.7-0.5-1.2c0-0.4,0.2-0.8,0.5-1.2c0.3-0.3,0.7-0.5,1.2-0.5c0.4,0,0.8,0.2,1.2,0.5C421.3,32.8,421.4,33.2,421.4,33.7
		z M418.4,47.2V36.2h2.9v10.9H418.4z"/>
	<path id="XMLID_348_" class="st1" d="M433.5,41.7c0,0.8-0.1,1.6-0.4,2.3c-0.3,0.7-0.6,1.3-1,1.8c-0.4,0.5-1,0.9-1.6,1.2
		s-1.3,0.4-2,0.4c-0.7,0-1.4-0.1-2-0.4c-0.6-0.3-1.1-0.7-1.6-1.2c-0.4-0.5-0.8-1.1-1-1.8c-0.3-0.7-0.4-1.5-0.4-2.3
		c0-0.8,0.1-1.6,0.4-2.3c0.3-0.7,0.6-1.3,1-1.8c0.4-0.5,1-0.9,1.6-1.2c0.6-0.3,1.3-0.4,2-0.4c0.7,0,1.4,0.1,2,0.4
		c0.6,0.3,1.1,0.7,1.6,1.2c0.4,0.5,0.8,1.1,1,1.8C433.3,40.1,433.5,40.9,433.5,41.7z M430.5,41.7c0-0.8-0.2-1.5-0.5-2.1
		c-0.3-0.6-0.8-0.9-1.5-0.9c-0.7,0-1.2,0.3-1.5,0.8c-0.3,0.6-0.5,1.3-0.5,2.1c0,0.9,0.2,1.6,0.5,2.1c0.3,0.6,0.8,0.8,1.5,0.8
		c0.3,0,0.6-0.1,0.9-0.2c0.3-0.2,0.5-0.4,0.6-0.7c0.2-0.3,0.3-0.6,0.4-0.9C430.5,42.4,430.5,42.1,430.5,41.7z"/>
	<path id="XMLID_346_" class="st1" d="M442.3,47.2v-5.9c0-1-0.2-1.6-0.5-2c-0.3-0.4-0.8-0.5-1.4-0.5c-0.6,0-1.1,0.2-1.4,0.5
		c-0.3,0.4-0.5,1-0.5,1.9v6h-2.9V36.2h2.9v0.7c0.3-0.3,0.6-0.5,1-0.7s0.9-0.3,1.5-0.3c1.4,0,2.4,0.4,3.1,1.3s1,2.1,1,3.7v6.2H442.3z
		"/>
	<path id="XMLID_343_" class="st1" d="M463.2,41.7c0,0.8-0.1,1.6-0.4,2.3c-0.3,0.7-0.6,1.3-1,1.8c-0.4,0.5-1,0.9-1.6,1.2
		s-1.3,0.4-2,0.4c-0.7,0-1.4-0.1-2-0.4c-0.6-0.3-1.1-0.7-1.6-1.2c-0.4-0.5-0.8-1.1-1-1.8c-0.3-0.7-0.4-1.5-0.4-2.3
		c0-0.8,0.1-1.6,0.4-2.3c0.3-0.7,0.6-1.3,1-1.8c0.4-0.5,1-0.9,1.6-1.2c0.6-0.3,1.3-0.4,2-0.4c0.7,0,1.4,0.1,2,0.4
		c0.6,0.3,1.1,0.7,1.6,1.2c0.4,0.5,0.8,1.1,1,1.8C463.1,40.1,463.2,40.9,463.2,41.7z M460.3,41.7c0-0.8-0.2-1.5-0.5-2.1
		c-0.3-0.6-0.8-0.9-1.5-0.9c-0.7,0-1.2,0.3-1.5,0.8c-0.3,0.6-0.5,1.3-0.5,2.1c0,0.9,0.2,1.6,0.5,2.1c0.3,0.6,0.8,0.8,1.5,0.8
		c0.3,0,0.6-0.1,0.9-0.2c0.3-0.2,0.5-0.4,0.6-0.7c0.2-0.3,0.3-0.6,0.4-0.9C460.3,42.4,460.3,42.1,460.3,41.7z"/>
	<path id="XMLID_341_" class="st1" d="M470.4,34.5c-0.2,0-0.3-0.1-0.5-0.1c-0.4,0-0.7,0.1-0.9,0.2c-0.1,0.1-0.2,0.4-0.2,0.7v0.9h1.9
		v2.7h-1.9v8.2h-2.9v-8.2h-1.3v-2.7h1.3v-1.3c0-1,0.3-1.8,0.8-2.2c0.5-0.4,1.3-0.7,2.3-0.7c0.7,0,1.3,0.1,1.8,0.3v2.3
		C470.7,34.6,470.5,34.5,470.4,34.5z"/>
</g>
<g id="XMLID_320_">
	<path id="XMLID_338_" class="st1" d="M91.4,67.7c0,0.7-0.1,1.3-0.3,1.9c-0.2,0.6-0.6,1.1-1,1.5c-0.5,0.4-1.1,0.7-1.8,0.9
		c-0.7,0.2-1.6,0.3-2.6,0.3c-1.2,0-2.3-0.2-3.3-0.7c-1-0.5-1.8-1.1-2.3-1.9l2.1-1.9c0.5,0.6,1.1,1,1.7,1.3c0.6,0.3,1.3,0.4,2,0.4
		c0.9,0,1.5-0.1,1.9-0.4c0.4-0.3,0.6-0.7,0.6-1.2c0-0.2,0-0.4-0.1-0.6S88,67,87.8,66.8c-0.2-0.2-0.6-0.3-1-0.4
		c-0.4-0.1-1-0.3-1.7-0.4c-0.7-0.2-1.3-0.3-1.8-0.5c-0.6-0.2-1-0.5-1.4-0.8c-0.4-0.3-0.7-0.7-0.9-1.2c-0.2-0.5-0.3-1.1-0.3-1.8
		c0-0.7,0.1-1.3,0.4-1.8c0.3-0.5,0.6-1,1.1-1.3c0.5-0.4,1-0.6,1.7-0.8c0.6-0.2,1.3-0.3,2-0.3c1.1,0,2.1,0.2,3,0.6
		c0.9,0.4,1.6,1,2.3,1.7l-2.1,2c-0.5-0.5-1-0.9-1.5-1.1c-0.5-0.3-1.1-0.4-1.8-0.4c-0.4,0-0.7,0-1,0.1c-0.3,0.1-0.5,0.2-0.6,0.3
		c-0.2,0.1-0.3,0.3-0.4,0.4c-0.1,0.2-0.1,0.3-0.1,0.5c0,0.2,0,0.4,0.1,0.6s0.2,0.3,0.5,0.4s0.5,0.2,0.9,0.4c0.4,0.1,0.9,0.2,1.4,0.4
		c0.6,0.1,1.2,0.3,1.7,0.5s1.1,0.4,1.6,0.8c0.5,0.3,0.8,0.8,1.1,1.3C91.3,66.3,91.4,66.9,91.4,67.7z"/>
	<path id="XMLID_336_" class="st1" d="M98,76h-2.8l1.5-3.9l-4.3-10.9h3.2l1.8,5.3c0.2,0.4,0.3,0.9,0.4,1.3s0.2,0.8,0.3,1.1
		c0.1-0.3,0.2-0.6,0.3-1.1c0.1-0.4,0.3-0.9,0.4-1.3l1.8-5.3h3.1L98,76z"/>
	<path id="XMLID_334_" class="st1" d="M112.1,72.2v-5.9c0-1-0.2-1.6-0.5-2c-0.3-0.4-0.8-0.5-1.4-0.5c-0.6,0-1.1,0.2-1.4,0.5
		c-0.3,0.4-0.5,1-0.5,1.9v6h-2.9V61.2h2.9v0.7c0.3-0.3,0.6-0.5,1-0.7s0.9-0.3,1.5-0.3c1.4,0,2.4,0.4,3.1,1.3s1,2.1,1,3.7v6.2H112.1z
		"/>
	<path id="XMLID_331_" class="st1" d="M123.7,72.2v-0.7c-0.3,0.3-0.6,0.5-1,0.7c-0.4,0.2-0.9,0.3-1.4,0.3c-0.5,0-1-0.1-1.5-0.2
		c-0.5-0.2-0.9-0.4-1.3-0.7c-0.4-0.3-0.7-0.7-0.9-1.2c-0.2-0.5-0.4-1.1-0.4-1.7c0-0.6,0.1-1.1,0.3-1.6c0.2-0.5,0.5-0.8,0.9-1.1
		c0.4-0.3,0.9-0.5,1.4-0.7s1.1-0.2,1.7-0.2c0.5,0,0.9,0,1.3,0.1s0.6,0.2,0.9,0.3v-0.5c0-0.4-0.1-0.7-0.4-1c-0.3-0.3-0.6-0.4-1.2-0.4
		c-0.3,0-0.6,0-0.9,0c-0.3,0-0.5,0.1-0.7,0.1c-0.2,0.1-0.5,0.1-0.7,0.2c-0.2,0.1-0.5,0.2-0.7,0.3l-1.1-2c0.3-0.2,0.6-0.3,0.9-0.5
		c0.3-0.1,0.6-0.3,0.9-0.3s0.7-0.2,1-0.2c0.4,0,0.8-0.1,1.2-0.1c0.7,0,1.3,0.1,1.8,0.3c0.5,0.2,1,0.4,1.4,0.7
		c0.4,0.3,0.7,0.7,0.9,1.2c0.2,0.5,0.3,1,0.3,1.6v7.3H123.7z M123.7,67.6c-0.3-0.2-0.5-0.3-0.8-0.3c-0.3-0.1-0.7-0.1-1.2-0.1
		c-0.5,0-1,0.1-1.2,0.4c-0.3,0.2-0.4,0.6-0.4,1c0,0.4,0.1,0.7,0.4,1c0.3,0.3,0.7,0.4,1.3,0.4c0.5,0,0.9-0.1,1.2-0.3
		c0.4-0.2,0.6-0.4,0.8-0.7V67.6z"/>
	<path id="XMLID_328_" class="st1" d="M138.7,66.8c0,0.8-0.1,1.6-0.3,2.3c-0.2,0.7-0.5,1.3-0.8,1.8c-0.4,0.5-0.8,0.9-1.3,1.1
		c-0.5,0.3-1.1,0.4-1.8,0.4c-0.5,0-0.9-0.1-1.3-0.3c-0.4-0.2-0.7-0.4-1-0.6v3.2l-2.9,1.4v-15h2.9v0.7c0.3-0.2,0.6-0.4,1-0.6
		c0.4-0.2,0.8-0.3,1.3-0.3c0.6,0,1.1,0.1,1.6,0.3c0.5,0.2,1,0.6,1.4,1.1c0.4,0.5,0.7,1.1,0.9,1.8C138.6,64.9,138.7,65.8,138.7,66.8z
		 M135.8,66.9c0-1.1-0.2-1.9-0.5-2.4c-0.3-0.5-0.8-0.7-1.4-0.7c-0.4,0-0.8,0.1-1.1,0.3c-0.3,0.2-0.5,0.4-0.7,0.7v4.1
		c0.5,0.6,1.1,0.9,1.9,0.9C135.2,69.7,135.8,68.7,135.8,66.9z"/>
	<path id="XMLID_326_" class="st1" d="M147,71.7c-0.2,0.2-0.6,0.4-1,0.5s-0.8,0.2-1.3,0.2c-0.4,0-0.8-0.1-1.2-0.2
		c-0.4-0.2-0.7-0.4-0.9-0.7c-0.3-0.3-0.4-0.6-0.6-1c-0.1-0.4-0.2-0.8-0.2-1.3v-5.2H140v-2.7h1.8v-2.8l2.9-1.4v4.3h2.6v2.7h-2.6v4.4
		c0,0.5,0.1,0.9,0.3,1.1c0.2,0.2,0.4,0.3,0.8,0.3c0.3,0,0.5-0.1,0.7-0.2c0.2-0.1,0.5-0.3,0.9-0.6L147,71.7z"/>
	<path id="XMLID_323_" class="st1" d="M153.3,58.7c0,0.4-0.2,0.8-0.5,1.2c-0.3,0.3-0.7,0.5-1.2,0.5c-0.4,0-0.8-0.2-1.2-0.5
		c-0.3-0.3-0.5-0.7-0.5-1.2c0-0.4,0.2-0.8,0.5-1.2c0.3-0.3,0.7-0.5,1.2-0.5c0.4,0,0.8,0.2,1.2,0.5C153.1,57.8,153.3,58.2,153.3,58.7
		z M150.2,72.2V61.2h2.9v10.9H150.2z"/>
	<path id="XMLID_321_" class="st1" d="M164.2,70.9c-0.3,0.3-0.6,0.5-1,0.8c-0.4,0.2-0.8,0.4-1.2,0.5s-0.9,0.2-1.5,0.2
		c-0.7,0-1.4-0.1-2-0.4s-1.2-0.7-1.6-1.2c-0.5-0.5-0.8-1.1-1.1-1.8c-0.3-0.7-0.4-1.5-0.4-2.3c0-0.8,0.1-1.6,0.4-2.3
		c0.3-0.7,0.6-1.3,1.1-1.8c0.5-0.5,1-0.9,1.7-1.2c0.6-0.3,1.3-0.4,2.1-0.4c1,0,1.9,0.2,2.6,0.7c0.7,0.4,1.3,1,1.7,1.7l-1.9,1.9
		c-0.3-0.5-0.7-0.8-1.1-1.1c-0.4-0.3-0.9-0.4-1.4-0.4c-0.7,0-1.2,0.3-1.7,0.8c-0.4,0.5-0.6,1.3-0.6,2.2c0,0.9,0.2,1.6,0.6,2.1
		s1,0.8,1.7,0.8c0.6,0,1-0.1,1.4-0.4c0.4-0.2,0.8-0.6,1.1-1L165,70C164.8,70.3,164.5,70.6,164.2,70.9z"/>
</g>
<g id="XMLID_276_">
	<path id="XMLID_318_" class="st1" d="M180.7,72.2h-2.8l-5.2-14.6h3.2l2.8,8.4c0.1,0.2,0.1,0.4,0.2,0.6c0.1,0.2,0.1,0.4,0.2,0.7
		c0.1,0.2,0.1,0.4,0.2,0.6c0,0.2,0.1,0.4,0.1,0.5c0.1-0.3,0.2-0.6,0.3-1.1c0.1-0.4,0.2-0.9,0.4-1.3l2.7-8.4h3.2L180.7,72.2z"/>
	<path id="XMLID_315_" class="st1" d="M195.4,66.7c0,0.2,0,0.4,0,0.5c0,0.1,0,0.3,0,0.4h-6.6c0,0.4,0.1,0.7,0.3,1s0.3,0.5,0.5,0.6
		c0.2,0.2,0.4,0.3,0.7,0.4c0.3,0.1,0.5,0.1,0.8,0.1c0.4,0,0.8-0.1,1.1-0.2c0.3-0.1,0.6-0.3,0.8-0.6l2,1.7c-0.4,0.6-1,1-1.7,1.3
		c-0.7,0.3-1.4,0.5-2.2,0.5c-0.8,0-1.5-0.1-2.1-0.4c-0.6-0.3-1.2-0.7-1.6-1.1c-0.4-0.5-0.8-1.1-1-1.8c-0.2-0.7-0.4-1.5-0.4-2.3
		c0-0.8,0.1-1.6,0.4-2.3c0.3-0.7,0.6-1.3,1-1.8c0.4-0.5,1-0.9,1.5-1.2c0.6-0.3,1.2-0.4,1.9-0.4c0.7,0,1.4,0.1,1.9,0.4
		c0.6,0.3,1.1,0.7,1.4,1.2c0.4,0.5,0.7,1.1,0.9,1.8C195.3,65.2,195.4,65.9,195.4,66.7z M192.6,65.4c0-0.3-0.1-0.5-0.2-0.7
		c-0.1-0.2-0.2-0.4-0.4-0.6c-0.2-0.2-0.4-0.3-0.6-0.4c-0.2-0.1-0.5-0.2-0.8-0.2c-0.5,0-1,0.2-1.3,0.6c-0.3,0.4-0.5,0.8-0.5,1.4
		H192.6z"/>
	<path id="XMLID_313_" class="st1" d="M206.1,69c0,0.6-0.1,1.2-0.4,1.6c-0.2,0.4-0.6,0.8-1,1.1c-0.4,0.3-0.9,0.5-1.4,0.6
		c-0.5,0.1-1.1,0.2-1.7,0.2c-0.9,0-1.7-0.1-2.5-0.3c-0.8-0.2-1.5-0.5-2.1-0.9l1-2.2c0.6,0.3,1.2,0.6,1.8,0.7c0.6,0.2,1.3,0.3,2,0.3
		c0.6,0,1-0.1,1.2-0.2c0.2-0.1,0.3-0.3,0.3-0.6c0-0.3-0.1-0.5-0.3-0.6c-0.2-0.2-0.6-0.3-1.3-0.5c-0.7-0.2-1.2-0.4-1.8-0.6
		c-0.5-0.2-1-0.4-1.4-0.7s-0.7-0.6-0.9-1c-0.2-0.4-0.3-0.9-0.3-1.5c0-0.6,0.1-1.1,0.3-1.5s0.5-0.7,0.9-1c0.4-0.3,0.9-0.5,1.4-0.6
		c0.5-0.1,1.1-0.2,1.8-0.2c0.7,0,1.4,0.1,2.1,0.3c0.7,0.2,1.4,0.5,1.9,0.8l-0.9,2.3c-0.5-0.3-1.1-0.5-1.7-0.7
		c-0.6-0.1-1.1-0.2-1.5-0.2c-0.6,0-1,0.1-1.2,0.2s-0.3,0.3-0.3,0.5c0,0.1,0,0.2,0.1,0.3c0.1,0.1,0.2,0.2,0.3,0.3
		c0.2,0.1,0.4,0.2,0.7,0.3c0.3,0.1,0.7,0.2,1.2,0.4c0.5,0.2,1,0.3,1.4,0.5c0.4,0.2,0.8,0.4,1.2,0.7s0.6,0.6,0.8,1
		C206,68,206.1,68.4,206.1,69z"/>
	<path id="XMLID_310_" class="st1" d="M211.8,58.7c0,0.4-0.2,0.8-0.5,1.2c-0.3,0.3-0.7,0.5-1.2,0.5c-0.4,0-0.8-0.2-1.2-0.5
		c-0.3-0.3-0.5-0.7-0.5-1.2c0-0.4,0.2-0.8,0.5-1.2c0.3-0.3,0.7-0.5,1.2-0.5c0.4,0,0.8,0.2,1.2,0.5C211.7,57.8,211.8,58.2,211.8,58.7
		z M208.7,72.2V61.2h2.9v10.9H208.7z"/>
	<path id="XMLID_308_" class="st1" d="M222.7,70.9c-0.3,0.3-0.6,0.5-1,0.8c-0.4,0.2-0.8,0.4-1.2,0.5s-0.9,0.2-1.5,0.2
		c-0.7,0-1.4-0.1-2-0.4s-1.2-0.7-1.6-1.2c-0.5-0.5-0.8-1.1-1.1-1.8c-0.3-0.7-0.4-1.5-0.4-2.3c0-0.8,0.1-1.6,0.4-2.3
		c0.3-0.7,0.6-1.3,1.1-1.8c0.5-0.5,1-0.9,1.7-1.2c0.6-0.3,1.3-0.4,2.1-0.4c1,0,1.9,0.2,2.6,0.7c0.7,0.4,1.3,1,1.7,1.7l-1.9,1.9
		c-0.3-0.5-0.7-0.8-1.1-1.1c-0.4-0.3-0.9-0.4-1.4-0.4c-0.7,0-1.2,0.3-1.7,0.8c-0.4,0.5-0.6,1.3-0.6,2.2c0,0.9,0.2,1.6,0.6,2.1
		s1,0.8,1.7,0.8c0.6,0,1-0.1,1.4-0.4c0.4-0.2,0.8-0.6,1.1-1l1.8,1.7C223.3,70.3,223,70.6,222.7,70.9z"/>
	<path id="XMLID_306_" class="st1" d="M225.8,72.2V58.4l2.9-1.4v15.2H225.8z"/>
	<path id="XMLID_302_" class="st1" d="M240.5,66.7c0,0.2,0,0.4,0,0.5c0,0.1,0,0.3,0,0.4h-6.6c0,0.4,0.1,0.7,0.3,1s0.3,0.5,0.5,0.6
		c0.2,0.2,0.4,0.3,0.7,0.4c0.3,0.1,0.5,0.1,0.8,0.1c0.4,0,0.8-0.1,1.1-0.2c0.3-0.1,0.6-0.3,0.8-0.6l2,1.7c-0.4,0.6-1,1-1.7,1.3
		c-0.7,0.3-1.4,0.5-2.2,0.5c-0.8,0-1.5-0.1-2.1-0.4c-0.6-0.3-1.2-0.7-1.6-1.1c-0.4-0.5-0.8-1.1-1-1.8c-0.2-0.7-0.4-1.5-0.4-2.3
		c0-0.8,0.1-1.6,0.4-2.3c0.3-0.7,0.6-1.3,1-1.8c0.4-0.5,1-0.9,1.5-1.2c0.6-0.3,1.2-0.4,1.9-0.4c0.7,0,1.4,0.1,1.9,0.4
		c0.6,0.3,1.1,0.7,1.4,1.2c0.4,0.5,0.7,1.1,0.9,1.8C240.4,65.2,240.5,65.9,240.5,66.7z M237.7,65.4c0-0.3-0.1-0.5-0.2-0.7
		c-0.1-0.2-0.2-0.4-0.4-0.6c-0.2-0.2-0.4-0.3-0.6-0.4c-0.2-0.1-0.5-0.2-0.8-0.2c-0.5,0-1,0.2-1.3,0.6c-0.3,0.4-0.5,0.8-0.5,1.4
		H237.7z"/>
	<path id="XMLID_299_" class="st1" d="M260.7,62.2c0,0.8-0.1,1.6-0.4,2.2c-0.3,0.6-0.6,1.1-1.1,1.5c-0.5,0.4-1,0.7-1.7,0.9
		c-0.6,0.2-1.3,0.3-2.1,0.3h-3.2v5.2h-2.9V57.6h6.4c0.7,0,1.3,0.1,1.9,0.3c0.6,0.2,1.1,0.5,1.6,0.9c0.5,0.4,0.8,0.9,1.1,1.4
		C260.6,60.7,260.7,61.4,260.7,62.2z M257.7,62.3c0-0.6-0.2-1.1-0.6-1.4c-0.4-0.3-0.9-0.4-1.6-0.4h-3.4v3.8h3.4
		C257,64.2,257.7,63.5,257.7,62.3z"/>
	<path id="XMLID_297_" class="st1" d="M269.4,64.6c-0.2-0.2-0.5-0.4-0.8-0.5c-0.3-0.1-0.6-0.2-0.9-0.2c-0.3,0-0.5,0-0.8,0.1
		c-0.2,0.1-0.4,0.2-0.6,0.4c-0.2,0.2-0.3,0.4-0.4,0.7c-0.1,0.3-0.1,0.7-0.1,1.2v5.9H263V61.2h2.9v0.7c0.3-0.3,0.6-0.5,0.9-0.7
		s0.8-0.3,1.3-0.3c0.5,0,0.9,0.1,1.2,0.2c0.3,0.2,0.6,0.3,0.8,0.5L269.4,64.6z"/>
	<path id="XMLID_293_" class="st1" d="M280.9,66.7c0,0.8-0.1,1.6-0.4,2.3c-0.3,0.7-0.6,1.3-1,1.8c-0.4,0.5-1,0.9-1.6,1.2
		s-1.3,0.4-2,0.4c-0.7,0-1.4-0.1-2-0.4c-0.6-0.3-1.1-0.7-1.6-1.2c-0.4-0.5-0.8-1.1-1-1.8c-0.3-0.7-0.4-1.5-0.4-2.3
		c0-0.8,0.1-1.6,0.4-2.3c0.3-0.7,0.6-1.3,1-1.8c0.4-0.5,1-0.9,1.6-1.2c0.6-0.3,1.3-0.4,2-0.4c0.7,0,1.4,0.1,2,0.4
		c0.6,0.3,1.1,0.7,1.6,1.2c0.4,0.5,0.8,1.1,1,1.8C280.8,65.1,280.9,65.9,280.9,66.7z M278,66.7c0-0.8-0.2-1.5-0.5-2.1
		c-0.3-0.6-0.8-0.9-1.5-0.9c-0.7,0-1.2,0.3-1.5,0.8c-0.3,0.6-0.5,1.3-0.5,2.1c0,0.9,0.2,1.6,0.5,2.1c0.3,0.6,0.8,0.8,1.5,0.8
		c0.3,0,0.6-0.1,0.9-0.2c0.3-0.2,0.5-0.4,0.6-0.7c0.2-0.3,0.3-0.6,0.4-0.9C278,67.4,278,67.1,278,66.7z"/>
	<path id="XMLID_291_" class="st1" d="M289.2,71.7c-0.2,0.2-0.6,0.4-1,0.5s-0.8,0.2-1.3,0.2c-0.4,0-0.8-0.1-1.2-0.2
		c-0.4-0.2-0.7-0.4-0.9-0.7c-0.3-0.3-0.4-0.6-0.6-1c-0.1-0.4-0.2-0.8-0.2-1.3v-5.2h-1.8v-2.7h1.8v-2.8l2.9-1.4v4.3h2.6v2.7h-2.6v4.4
		c0,0.5,0.1,0.9,0.3,1.1c0.2,0.2,0.4,0.3,0.8,0.3c0.3,0,0.5-0.1,0.7-0.2c0.2-0.1,0.5-0.3,0.9-0.6L289.2,71.7z"/>
	<path id="XMLID_288_" class="st1" d="M300.8,66.7c0,0.2,0,0.4,0,0.5c0,0.1,0,0.3,0,0.4h-6.6c0,0.4,0.1,0.7,0.3,1s0.3,0.5,0.5,0.6
		c0.2,0.2,0.4,0.3,0.7,0.4c0.3,0.1,0.5,0.1,0.8,0.1c0.4,0,0.8-0.1,1.1-0.2c0.3-0.1,0.6-0.3,0.8-0.6l2,1.7c-0.4,0.6-1,1-1.7,1.3
		c-0.7,0.3-1.4,0.5-2.2,0.5c-0.8,0-1.5-0.1-2.1-0.4c-0.6-0.3-1.2-0.7-1.6-1.1c-0.4-0.5-0.8-1.1-1-1.8c-0.2-0.7-0.4-1.5-0.4-2.3
		c0-0.8,0.1-1.6,0.4-2.3c0.3-0.7,0.6-1.3,1-1.8c0.4-0.5,1-0.9,1.5-1.2c0.6-0.3,1.2-0.4,1.9-0.4c0.7,0,1.4,0.1,1.9,0.4
		c0.6,0.3,1.1,0.7,1.4,1.2c0.4,0.5,0.7,1.1,0.9,1.8C300.7,65.2,300.8,65.9,300.8,66.7z M298,65.4c0-0.3-0.1-0.5-0.2-0.7
		c-0.1-0.2-0.2-0.4-0.4-0.6c-0.2-0.2-0.4-0.3-0.6-0.4c-0.2-0.1-0.5-0.2-0.8-0.2c-0.5,0-1,0.2-1.3,0.6c-0.3,0.4-0.5,0.8-0.5,1.4H298z
		"/>
	<path id="XMLID_285_" class="st1" d="M306.3,58.7c0,0.4-0.2,0.8-0.5,1.2c-0.3,0.3-0.7,0.5-1.2,0.5c-0.4,0-0.8-0.2-1.2-0.5
		c-0.3-0.3-0.5-0.7-0.5-1.2c0-0.4,0.2-0.8,0.5-1.2c0.3-0.3,0.7-0.5,1.2-0.5c0.4,0,0.8,0.2,1.2,0.5C306.1,57.8,306.3,58.2,306.3,58.7
		z M303.2,72.2V61.2h2.9v10.9H303.2z"/>
	<path id="XMLID_283_" class="st1" d="M315.5,72.2v-5.9c0-1-0.2-1.6-0.5-2c-0.3-0.4-0.8-0.5-1.4-0.5c-0.6,0-1.1,0.2-1.4,0.5
		c-0.3,0.4-0.5,1-0.5,1.9v6h-2.9V61.2h2.9v0.7c0.3-0.3,0.6-0.5,1-0.7s0.9-0.3,1.5-0.3c1.4,0,2.4,0.4,3.1,1.3s1,2.1,1,3.7v6.2H315.5z
		"/>
	<path id="XMLID_281_" class="st1" d="M330.7,74.4c-0.5-0.6-1-1.1-1.4-1.7c-0.4-0.6-0.8-1.2-1.1-1.9c-0.3-0.7-0.6-1.4-0.8-2.2
		s-0.3-1.7-0.3-2.7s0.1-1.9,0.3-2.7c0.2-0.8,0.4-1.6,0.7-2.3c0.3-0.7,0.7-1.3,1.1-2c0.4-0.6,0.9-1.2,1.5-1.8l1.9,1.3
		c-0.4,0.5-0.7,1-1,1.5c-0.3,0.5-0.6,1.1-0.8,1.7c-0.2,0.6-0.4,1.2-0.5,1.9c-0.1,0.7-0.2,1.4-0.2,2.2c0,0.8,0.1,1.6,0.2,2.3
		c0.1,0.7,0.3,1.3,0.5,1.9s0.5,1.1,0.8,1.7c0.3,0.5,0.6,1,1,1.5L330.7,74.4z"/>
	<path id="XMLID_279_" class="st1" d="M346,67.7c0,0.7-0.1,1.3-0.3,1.9c-0.2,0.6-0.6,1.1-1,1.5c-0.5,0.4-1.1,0.7-1.8,0.9
		c-0.7,0.2-1.6,0.3-2.6,0.3c-1.2,0-2.3-0.2-3.3-0.7c-1-0.5-1.8-1.1-2.3-1.9l2.1-1.9c0.5,0.6,1.1,1,1.7,1.3c0.6,0.3,1.3,0.4,2,0.4
		c0.9,0,1.5-0.1,1.9-0.4c0.4-0.3,0.6-0.7,0.6-1.2c0-0.2,0-0.4-0.1-0.6s-0.2-0.3-0.5-0.5c-0.2-0.2-0.6-0.3-1-0.4
		c-0.4-0.1-1-0.3-1.7-0.4c-0.7-0.2-1.3-0.3-1.8-0.5c-0.6-0.2-1-0.5-1.4-0.8c-0.4-0.3-0.7-0.7-0.9-1.2c-0.2-0.5-0.3-1.1-0.3-1.8
		c0-0.7,0.1-1.3,0.4-1.8c0.3-0.5,0.6-1,1.1-1.3c0.5-0.4,1-0.6,1.7-0.8c0.6-0.2,1.3-0.3,2-0.3c1.1,0,2.1,0.2,3,0.6
		c0.9,0.4,1.6,1,2.3,1.7l-2.1,2c-0.5-0.5-1-0.9-1.5-1.1c-0.5-0.3-1.1-0.4-1.8-0.4c-0.4,0-0.7,0-1,0.1c-0.3,0.1-0.5,0.2-0.6,0.3
		c-0.2,0.1-0.3,0.3-0.4,0.4c-0.1,0.2-0.1,0.3-0.1,0.5c0,0.2,0,0.4,0.1,0.6s0.2,0.3,0.5,0.4s0.5,0.2,0.9,0.4c0.4,0.1,0.9,0.2,1.4,0.4
		c0.6,0.1,1.2,0.3,1.7,0.5s1.1,0.4,1.6,0.8c0.5,0.3,0.8,0.8,1.1,1.3C345.9,66.3,346,66.9,346,67.7z"/>
	<path id="XMLID_277_" class="st1" d="M355.3,72.2h-2.8l-5.2-14.6h3.2l2.8,8.4c0.1,0.2,0.1,0.4,0.2,0.6c0.1,0.2,0.1,0.4,0.2,0.7
		c0.1,0.2,0.1,0.4,0.2,0.6c0,0.2,0.1,0.4,0.1,0.5c0.1-0.3,0.2-0.6,0.3-1.1c0.1-0.4,0.2-0.9,0.4-1.3l2.7-8.4h3.2L355.3,72.2z"/>
</g>
<g>
	<path class="st1" d="M362.2,72.2V71l1.4-1.4c3.5-3.3,5-5,5-7.1c0-1.4-0.7-2.6-2.7-2.6c-1.2,0-2.2,0.6-2.9,1.1l-0.6-1.3
		c0.9-0.8,2.3-1.4,3.8-1.4c2.9,0,4.1,2,4.1,3.9c0,2.5-1.8,4.5-4.7,7.3l-1.1,1v0h6.1v1.5H362.2z"/>
</g>
<g>
	<path class="st1" d="M379.3,67.7l-1.5,4.4H376l4.8-14h2.2l4.8,14h-1.9l-1.5-4.4H379.3z M383.9,66.3l-1.4-4
		c-0.3-0.9-0.5-1.7-0.7-2.6h0c-0.2,0.8-0.4,1.7-0.7,2.5l-1.4,4.1H383.9z"/>
	<path class="st1" d="M388.2,74.7c1.5-2.1,2.6-4.8,2.6-8.5c0-3.7-1.1-6.4-2.6-8.5h1.4c1.3,1.7,2.7,4.4,2.7,8.5
		c0,4.1-1.4,6.7-2.7,8.5H388.2z"/>
	<path class="st1" d="M401.9,59.2v2.9h2.6v1.4h-2.6v5.4c0,1.2,0.4,2,1.4,2c0.5,0,0.8-0.1,1.1-0.1l0.1,1.4c-0.4,0.1-0.9,0.3-1.6,0.3
		c-0.9,0-1.5-0.3-2-0.8c-0.5-0.5-0.7-1.4-0.7-2.6v-5.5h-1.6v-1.4h1.6v-2.4L401.9,59.2z"/>
	<path class="st1" d="M406.6,57.4h1.8v6.3h0c0.3-0.5,0.8-1,1.3-1.3c0.5-0.3,1.2-0.5,1.9-0.5c1.4,0,3.5,0.8,3.5,4.3v6h-1.8v-5.8
		c0-1.6-0.6-3-2.3-3c-1.2,0-2.1,0.8-2.5,1.8c-0.1,0.3-0.1,0.5-0.1,0.9v6.1h-1.8V57.4z"/>
	<path class="st1" d="M423.7,72.2l-0.1-1.3h-0.1c-0.6,0.8-1.6,1.5-3.1,1.5c-2,0-3.1-1.4-3.1-2.9c0-2.4,2.2-3.8,6.1-3.7v-0.2
		c0-0.8-0.2-2.3-2.3-2.3c-0.9,0-1.9,0.3-2.6,0.7l-0.4-1.2c0.8-0.5,2-0.9,3.3-0.9c3.1,0,3.8,2.1,3.8,4.1v3.8c0,0.9,0,1.7,0.2,2.4
		H423.7z M423.4,67c-2,0-4.3,0.3-4.3,2.3c0,1.2,0.8,1.8,1.7,1.8c1.3,0,2.1-0.8,2.4-1.7c0.1-0.2,0.1-0.4,0.1-0.6V67z"/>
	<path class="st1" d="M430.4,59.2v2.9h2.6v1.4h-2.6v5.4c0,1.2,0.4,2,1.4,2c0.5,0,0.8-0.1,1.1-0.1l0.1,1.4c-0.4,0.1-0.9,0.3-1.6,0.3
		c-0.9,0-1.5-0.3-2-0.8c-0.5-0.5-0.7-1.4-0.7-2.6v-5.5H427v-1.4h1.6v-2.4L430.4,59.2z"/>
</g>
<g id="XMLID_133_">
	<path id="XMLID_273_" class="st1" d="M83.4,83.7c0,0.4-0.2,0.8-0.5,1.2c-0.3,0.3-0.7,0.5-1.2,0.5c-0.4,0-0.8-0.2-1.2-0.5
		c-0.3-0.3-0.5-0.7-0.5-1.2c0-0.4,0.2-0.8,0.5-1.2c0.3-0.3,0.7-0.5,1.2-0.5c0.4,0,0.8,0.2,1.2,0.5C83.3,82.8,83.4,83.2,83.4,83.7z
		 M80.3,97.2V86.2h2.9v10.9H80.3z"/>
	<path id="XMLID_271_" class="st1" d="M92.7,97.2v-5.9c0-1-0.2-1.6-0.5-2c-0.3-0.4-0.8-0.5-1.4-0.5c-0.6,0-1.1,0.2-1.4,0.5
		c-0.3,0.4-0.5,1-0.5,1.9v6h-2.9V86.2H89V87c0.3-0.3,0.6-0.5,1-0.7S91,86,91.6,86c1.4,0,2.4,0.4,3.1,1.3s1,2.1,1,3.7v6.2H92.7z"/>
	<path id="XMLID_269_" class="st1" d="M104.9,97.2v-5.9c0-1-0.2-1.6-0.5-2c-0.3-0.4-0.8-0.5-1.4-0.5c-0.6,0-1.1,0.2-1.4,0.5
		c-0.3,0.4-0.5,1-0.5,1.9v6h-2.9V83.4l2.9-1.4v5c0.3-0.3,0.6-0.5,1-0.7s0.9-0.3,1.5-0.3c1.4,0,2.4,0.4,3.1,1.3s1,2.1,1,3.7v6.2
		H104.9z"/>
	<path id="XMLID_266_" class="st1" d="M113.6,83.7c0,0.4-0.2,0.8-0.5,1.2c-0.3,0.3-0.7,0.5-1.2,0.5c-0.4,0-0.8-0.2-1.2-0.5
		c-0.3-0.3-0.5-0.7-0.5-1.2c0-0.4,0.2-0.8,0.5-1.2c0.3-0.3,0.7-0.5,1.2-0.5c0.4,0,0.8,0.2,1.2,0.5C113.5,82.8,113.6,83.2,113.6,83.7
		z M110.6,97.2V86.2h2.9v10.9H110.6z"/>
	<path id="XMLID_263_" class="st1" d="M125.8,91.8c0,0.8-0.1,1.6-0.3,2.3c-0.2,0.7-0.5,1.3-0.8,1.8c-0.4,0.5-0.8,0.9-1.3,1.1
		c-0.5,0.3-1.1,0.4-1.8,0.4c-0.5,0-0.9-0.1-1.3-0.3c-0.4-0.2-0.7-0.4-1-0.6v0.6h-2.9V83.4l2.9-1.4v4.9c0.3-0.2,0.6-0.4,1-0.6
		c0.4-0.2,0.8-0.3,1.3-0.3c0.6,0,1.1,0.1,1.6,0.3c0.5,0.2,1,0.6,1.4,1.1c0.4,0.5,0.7,1.1,0.9,1.8C125.7,89.9,125.8,90.8,125.8,91.8z
		 M122.8,91.9c0-1.1-0.2-1.9-0.5-2.4s-0.8-0.8-1.4-0.8c-0.4,0-0.8,0.1-1.1,0.3c-0.3,0.2-0.5,0.4-0.7,0.7v4.1
		c0.5,0.6,1.1,0.9,1.9,0.9C122.3,94.7,122.8,93.7,122.8,91.9z"/>
	<path id="XMLID_260_" class="st1" d="M131.2,83.7c0,0.4-0.2,0.8-0.5,1.2c-0.3,0.3-0.7,0.5-1.2,0.5c-0.4,0-0.8-0.2-1.2-0.5
		c-0.3-0.3-0.5-0.7-0.5-1.2c0-0.4,0.2-0.8,0.5-1.2c0.3-0.3,0.7-0.5,1.2-0.5c0.4,0,0.8,0.2,1.2,0.5C131.1,82.8,131.2,83.2,131.2,83.7
		z M128.1,97.2V86.2h2.9v10.9H128.1z"/>
	<path id="XMLID_258_" class="st1" d="M140,96.7c-0.2,0.2-0.6,0.4-1,0.5s-0.8,0.2-1.3,0.2c-0.4,0-0.8-0.1-1.2-0.2
		c-0.4-0.2-0.7-0.4-0.9-0.7c-0.3-0.3-0.4-0.6-0.6-1c-0.1-0.4-0.2-0.8-0.2-1.3v-5.2H133v-2.7h1.8v-2.8l2.9-1.4v4.3h2.6v2.7h-2.6v4.4
		c0,0.5,0.1,0.9,0.3,1.1c0.2,0.2,0.4,0.3,0.8,0.3c0.3,0,0.5-0.1,0.7-0.2c0.2-0.1,0.5-0.3,0.9-0.6L140,96.7z"/>
	<path id="XMLID_256_" class="st1" d="M151.6,94c0,0.6-0.1,1.2-0.4,1.6c-0.2,0.4-0.6,0.8-1,1.1c-0.4,0.3-0.9,0.5-1.4,0.6
		c-0.5,0.1-1.1,0.2-1.7,0.2c-0.9,0-1.7-0.1-2.5-0.3c-0.8-0.2-1.5-0.5-2.1-0.9l1-2.2c0.6,0.3,1.2,0.6,1.8,0.7c0.6,0.2,1.3,0.3,2,0.3
		c0.6,0,1-0.1,1.2-0.2c0.2-0.1,0.3-0.3,0.3-0.6c0-0.3-0.1-0.5-0.3-0.6c-0.2-0.2-0.6-0.3-1.3-0.5c-0.7-0.2-1.2-0.4-1.8-0.6
		c-0.5-0.2-1-0.4-1.4-0.7s-0.7-0.6-0.9-1c-0.2-0.4-0.3-0.9-0.3-1.5c0-0.6,0.1-1.1,0.3-1.5s0.5-0.7,0.9-1c0.4-0.3,0.9-0.5,1.4-0.6
		c0.5-0.1,1.1-0.2,1.8-0.2c0.7,0,1.4,0.1,2.1,0.3c0.7,0.2,1.4,0.5,1.9,0.8l-0.9,2.3c-0.5-0.3-1.1-0.5-1.7-0.7
		c-0.6-0.1-1.1-0.2-1.5-0.2c-0.6,0-1,0.1-1.2,0.2s-0.3,0.3-0.3,0.5c0,0.1,0,0.2,0.1,0.3c0.1,0.1,0.2,0.2,0.3,0.3
		c0.2,0.1,0.4,0.2,0.7,0.3c0.3,0.1,0.7,0.2,1.2,0.4c0.5,0.2,1,0.3,1.4,0.5c0.4,0.2,0.8,0.4,1.2,0.7s0.6,0.6,0.8,1
		C151.5,93,151.6,93.4,151.6,94z"/>
	<path id="XMLID_253_" class="st1" d="M166.2,97.2v-0.7c-0.3,0.3-0.6,0.5-1,0.7c-0.4,0.2-0.9,0.3-1.4,0.3c-0.5,0-1-0.1-1.5-0.2
		c-0.5-0.2-0.9-0.4-1.3-0.7c-0.4-0.3-0.7-0.7-0.9-1.2c-0.2-0.5-0.4-1.1-0.4-1.7c0-0.6,0.1-1.1,0.3-1.6c0.2-0.5,0.5-0.8,0.9-1.1
		c0.4-0.3,0.9-0.5,1.4-0.7s1.1-0.2,1.7-0.2c0.5,0,0.9,0,1.3,0.1s0.6,0.2,0.9,0.3v-0.5c0-0.4-0.1-0.7-0.4-1c-0.3-0.3-0.6-0.4-1.2-0.4
		c-0.3,0-0.6,0-0.9,0c-0.3,0-0.5,0.1-0.7,0.1c-0.2,0.1-0.5,0.1-0.7,0.2c-0.2,0.1-0.5,0.2-0.7,0.3l-1.1-2c0.3-0.2,0.6-0.3,0.9-0.5
		c0.3-0.1,0.6-0.3,0.9-0.3s0.7-0.2,1-0.2c0.4,0,0.8-0.1,1.2-0.1c0.7,0,1.3,0.1,1.8,0.3c0.5,0.2,1,0.4,1.4,0.7
		c0.4,0.3,0.7,0.7,0.9,1.2c0.2,0.5,0.3,1,0.3,1.6v7.3H166.2z M166.2,92.6c-0.3-0.2-0.5-0.3-0.8-0.3c-0.3-0.1-0.7-0.1-1.2-0.1
		c-0.5,0-1,0.1-1.2,0.4c-0.3,0.2-0.4,0.6-0.4,1c0,0.4,0.1,0.7,0.4,1c0.3,0.3,0.7,0.4,1.3,0.4c0.5,0,0.9-0.1,1.2-0.3
		c0.4-0.2,0.6-0.4,0.8-0.7V92.6z"/>
	<path id="XMLID_250_" class="st1" d="M181.2,91.8c0,0.8-0.1,1.6-0.3,2.3c-0.2,0.7-0.5,1.3-0.8,1.8c-0.4,0.5-0.8,0.9-1.3,1.1
		c-0.5,0.3-1.1,0.4-1.8,0.4c-0.5,0-0.9-0.1-1.3-0.3c-0.4-0.2-0.7-0.4-1-0.6v0.6h-2.9V83.4l2.9-1.4v4.9c0.3-0.2,0.6-0.4,1-0.6
		c0.4-0.2,0.8-0.3,1.3-0.3c0.6,0,1.1,0.1,1.6,0.3c0.5,0.2,1,0.6,1.4,1.1c0.4,0.5,0.7,1.1,0.9,1.8C181.1,89.9,181.2,90.8,181.2,91.8z
		 M178.3,91.9c0-1.1-0.2-1.9-0.5-2.4s-0.8-0.8-1.4-0.8c-0.4,0-0.8,0.1-1.1,0.3c-0.3,0.2-0.5,0.4-0.7,0.7v4.1
		c0.5,0.6,1.1,0.9,1.9,0.9C177.8,94.7,178.3,93.7,178.3,91.9z"/>
	<path id="XMLID_248_" class="st1" d="M190.1,97.2v-5.9c0-1-0.2-1.6-0.5-2c-0.3-0.4-0.8-0.5-1.4-0.5c-0.6,0-1.1,0.2-1.4,0.5
		c-0.3,0.4-0.5,1-0.5,1.9v6h-2.9V86.2h2.9V87c0.3-0.3,0.6-0.5,1-0.7s0.9-0.3,1.5-0.3c1.4,0,2.4,0.4,3.1,1.3s1,2.1,1,3.7v6.2H190.1z"
		/>
	<path id="XMLID_245_" class="st1" d="M205,91.7c0,0.8-0.1,1.6-0.4,2.3c-0.3,0.7-0.6,1.3-1,1.8c-0.4,0.5-1,0.9-1.6,1.2
		s-1.3,0.4-2,0.4c-0.7,0-1.4-0.1-2-0.4c-0.6-0.3-1.1-0.7-1.6-1.2c-0.4-0.5-0.8-1.1-1-1.8c-0.3-0.7-0.4-1.5-0.4-2.3
		c0-0.8,0.1-1.6,0.4-2.3c0.3-0.7,0.6-1.3,1-1.8c0.4-0.5,1-0.9,1.6-1.2c0.6-0.3,1.3-0.4,2-0.4c0.7,0,1.4,0.1,2,0.4
		c0.6,0.3,1.1,0.7,1.6,1.2c0.4,0.5,0.8,1.1,1,1.8C204.9,90.1,205,90.9,205,91.7z M202.1,91.7c0-0.8-0.2-1.5-0.5-2.1
		c-0.3-0.6-0.8-0.9-1.5-0.9c-0.7,0-1.2,0.3-1.5,0.8c-0.3,0.6-0.5,1.3-0.5,2.1c0,0.9,0.2,1.6,0.5,2.1c0.3,0.6,0.8,0.8,1.5,0.8
		c0.3,0,0.6-0.1,0.9-0.2c0.3-0.2,0.5-0.4,0.6-0.7c0.2-0.3,0.3-0.6,0.4-0.9C202.1,92.4,202.1,92.1,202.1,91.7z"/>
	<path id="XMLID_243_" class="st1" d="M213.6,89.6c-0.2-0.2-0.5-0.4-0.8-0.5c-0.3-0.1-0.6-0.2-0.9-0.2c-0.3,0-0.5,0-0.8,0.1
		c-0.2,0.1-0.4,0.2-0.6,0.4c-0.2,0.2-0.3,0.4-0.4,0.7c-0.1,0.3-0.1,0.7-0.1,1.2v5.9h-2.9V86.2h2.9V87c0.3-0.3,0.6-0.5,0.9-0.7
		s0.8-0.3,1.3-0.3c0.5,0,0.9,0.1,1.2,0.2c0.3,0.2,0.6,0.3,0.8,0.5L213.6,89.6z"/>
	<path id="XMLID_241_" class="st1" d="M229,97.2v-5.9c0-1-0.1-1.6-0.4-2c-0.3-0.4-0.7-0.5-1.3-0.5s-1,0.2-1.3,0.5
		c-0.3,0.4-0.4,1-0.4,1.9v6h-2.9v-5.9c0-1-0.1-1.6-0.4-2c-0.3-0.4-0.7-0.5-1.3-0.5s-1,0.2-1.3,0.5c-0.3,0.4-0.4,1-0.4,1.9v6h-2.9
		V86.2h2.9V87c0.3-0.3,0.6-0.5,0.9-0.7c0.4-0.2,0.9-0.3,1.4-0.3c0.7,0,1.3,0.1,1.7,0.3c0.5,0.2,0.9,0.6,1.3,1.1
		c0.4-0.4,0.8-0.7,1.3-1s1.2-0.4,2.1-0.4c0.7,0,1.3,0.1,1.8,0.3c0.5,0.2,0.9,0.6,1.2,1s0.5,1,0.7,1.6s0.2,1.3,0.2,2.1v6.2H229z"/>
	<path id="XMLID_238_" class="st1" d="M240.5,97.2v-0.7c-0.3,0.3-0.6,0.5-1,0.7c-0.4,0.2-0.9,0.3-1.4,0.3c-0.5,0-1-0.1-1.5-0.2
		c-0.5-0.2-0.9-0.4-1.3-0.7c-0.4-0.3-0.7-0.7-0.9-1.2c-0.2-0.5-0.4-1.1-0.4-1.7c0-0.6,0.1-1.1,0.3-1.6c0.2-0.5,0.5-0.8,0.9-1.1
		c0.4-0.3,0.9-0.5,1.4-0.7s1.1-0.2,1.7-0.2c0.5,0,0.9,0,1.3,0.1s0.6,0.2,0.9,0.3v-0.5c0-0.4-0.1-0.7-0.4-1c-0.3-0.3-0.6-0.4-1.2-0.4
		c-0.3,0-0.6,0-0.9,0c-0.3,0-0.5,0.1-0.7,0.1c-0.2,0.1-0.5,0.1-0.7,0.2c-0.2,0.1-0.5,0.2-0.7,0.3l-1.1-2c0.3-0.2,0.6-0.3,0.9-0.5
		c0.3-0.1,0.6-0.3,0.9-0.3s0.7-0.2,1-0.2c0.4,0,0.8-0.1,1.2-0.1c0.7,0,1.3,0.1,1.8,0.3c0.5,0.2,1,0.4,1.4,0.7
		c0.4,0.3,0.7,0.7,0.9,1.2c0.2,0.5,0.3,1,0.3,1.6v7.3H240.5z M240.5,92.6c-0.3-0.2-0.5-0.3-0.8-0.3c-0.3-0.1-0.7-0.1-1.2-0.1
		c-0.5,0-1,0.1-1.2,0.4c-0.3,0.2-0.4,0.6-0.4,1c0,0.4,0.1,0.7,0.4,1c0.3,0.3,0.7,0.4,1.3,0.4c0.5,0,0.9-0.1,1.2-0.3
		c0.4-0.2,0.6-0.4,0.8-0.7V92.6z"/>
	<path id="XMLID_183_" class="st1" d="M246.2,97.2V83.4l2.9-1.4v15.2H246.2z"/>
	<path id="XMLID_180_" class="st1" d="M267.5,91.8c0,0.8-0.1,1.6-0.3,2.3c-0.2,0.7-0.5,1.3-0.8,1.8c-0.4,0.5-0.8,0.9-1.3,1.1
		c-0.5,0.3-1.1,0.4-1.8,0.4c-0.5,0-0.9-0.1-1.3-0.3c-0.4-0.2-0.7-0.4-1-0.6v0.6H258V83.4l2.9-1.4v4.9c0.3-0.2,0.6-0.4,1-0.6
		c0.4-0.2,0.8-0.3,1.3-0.3c0.6,0,1.1,0.1,1.6,0.3c0.5,0.2,1,0.6,1.4,1.1c0.4,0.5,0.7,1.1,0.9,1.8C267.4,89.9,267.5,90.8,267.5,91.8z
		 M264.5,91.9c0-1.1-0.2-1.9-0.5-2.4s-0.8-0.8-1.4-0.8c-0.4,0-0.8,0.1-1.1,0.3c-0.3,0.2-0.5,0.4-0.7,0.7v4.1
		c0.5,0.6,1.1,0.9,1.9,0.9C264,94.7,264.5,93.7,264.5,91.9z"/>
	<path id="XMLID_178_" class="st1" d="M276.2,97.2v-0.7c-0.3,0.3-0.6,0.5-1,0.7s-0.9,0.3-1.5,0.3c-1.4,0-2.4-0.4-3.1-1.3
		c-0.6-0.9-1-2.1-1-3.7v-6.2h2.9v5.9c0,0.5,0,0.9,0.1,1.2s0.2,0.6,0.4,0.8c0.2,0.2,0.3,0.3,0.6,0.4c0.2,0.1,0.5,0.1,0.8,0.1
		c0.6,0,1.1-0.2,1.4-0.5c0.3-0.4,0.5-1,0.5-1.9v-6h2.9v10.9H276.2z"/>
	<path id="XMLID_176_" class="st1" d="M288.3,89.6c-0.2-0.2-0.5-0.4-0.8-0.5c-0.3-0.1-0.6-0.2-0.9-0.2c-0.3,0-0.5,0-0.8,0.1
		c-0.2,0.1-0.4,0.2-0.6,0.4c-0.2,0.2-0.3,0.4-0.4,0.7c-0.1,0.3-0.1,0.7-0.1,1.2v5.9h-2.9V86.2h2.9V87c0.3-0.3,0.6-0.5,0.9-0.7
		s0.8-0.3,1.3-0.3c0.5,0,0.9,0.1,1.2,0.2c0.3,0.2,0.6,0.3,0.8,0.5L288.3,89.6z"/>
	<path id="XMLID_174_" class="st1" d="M299,94c0,0.6-0.1,1.2-0.4,1.6c-0.2,0.4-0.6,0.8-1,1.1c-0.4,0.3-0.9,0.5-1.4,0.6
		c-0.5,0.1-1.1,0.2-1.7,0.2c-0.9,0-1.7-0.1-2.5-0.3c-0.8-0.2-1.5-0.5-2.1-0.9l1-2.2c0.6,0.3,1.2,0.6,1.8,0.7c0.6,0.2,1.3,0.3,2,0.3
		c0.6,0,1-0.1,1.2-0.2c0.2-0.1,0.3-0.3,0.3-0.6c0-0.3-0.1-0.5-0.3-0.6c-0.2-0.2-0.6-0.3-1.3-0.5c-0.7-0.2-1.2-0.4-1.8-0.6
		c-0.5-0.2-1-0.4-1.4-0.7s-0.7-0.6-0.9-1c-0.2-0.4-0.3-0.9-0.3-1.5c0-0.6,0.1-1.1,0.3-1.5s0.5-0.7,0.9-1c0.4-0.3,0.9-0.5,1.4-0.6
		c0.5-0.1,1.1-0.2,1.8-0.2c0.7,0,1.4,0.1,2.1,0.3c0.7,0.2,1.4,0.5,1.9,0.8l-0.9,2.3c-0.5-0.3-1.1-0.5-1.7-0.7
		c-0.6-0.1-1.1-0.2-1.5-0.2c-0.6,0-1,0.1-1.2,0.2s-0.3,0.3-0.3,0.5c0,0.1,0,0.2,0.1,0.3c0.1,0.1,0.2,0.2,0.3,0.3
		c0.2,0.1,0.4,0.2,0.7,0.3c0.3,0.1,0.7,0.2,1.2,0.4c0.5,0.2,1,0.3,1.4,0.5c0.4,0.2,0.8,0.4,1.2,0.7s0.6,0.6,0.8,1
		C298.9,93,299,93.4,299,94z"/>
	<path id="XMLID_172_" class="st1" d="M307.5,96.7c-0.2,0.2-0.6,0.4-1,0.5s-0.8,0.2-1.3,0.2c-0.4,0-0.8-0.1-1.2-0.2
		c-0.4-0.2-0.7-0.4-0.9-0.7c-0.3-0.3-0.4-0.6-0.6-1c-0.1-0.4-0.2-0.8-0.2-1.3v-5.2h-1.8v-2.7h1.8v-2.8l2.9-1.4v4.3h2.6v2.7h-2.6v4.4
		c0,0.5,0.1,0.9,0.3,1.1c0.2,0.2,0.4,0.3,0.8,0.3c0.3,0,0.5-0.1,0.7-0.2c0.2-0.1,0.5-0.3,0.9-0.6L307.5,96.7z"/>
	<path id="XMLID_169_" class="st1" d="M313.8,83.7c0,0.4-0.2,0.8-0.5,1.2c-0.3,0.3-0.7,0.5-1.2,0.5c-0.4,0-0.8-0.2-1.2-0.5
		c-0.3-0.3-0.5-0.7-0.5-1.2c0-0.4,0.2-0.8,0.5-1.2c0.3-0.3,0.7-0.5,1.2-0.5c0.4,0,0.8,0.2,1.2,0.5C313.6,82.8,313.8,83.2,313.8,83.7
		z M310.7,97.2V86.2h2.9v10.9H310.7z"/>
	<path id="XMLID_167_" class="st1" d="M323.1,97.2v-5.9c0-1-0.2-1.6-0.5-2c-0.3-0.4-0.8-0.5-1.4-0.5c-0.6,0-1.1,0.2-1.4,0.5
		c-0.3,0.4-0.5,1-0.5,1.9v6h-2.9V86.2h2.9V87c0.3-0.3,0.6-0.5,1-0.7s0.9-0.3,1.5-0.3c1.4,0,2.4,0.4,3.1,1.3s1,2.1,1,3.7v6.2H323.1z"
		/>
	<path id="XMLID_164_" class="st1" d="M337.5,95.3c0,0.9-0.1,1.7-0.2,2.4c-0.1,0.7-0.4,1.3-0.7,1.8c-0.3,0.5-0.8,0.9-1.4,1.2
		c-0.6,0.3-1.4,0.5-2.4,0.6l-1-2.2c0.6-0.1,1-0.2,1.4-0.3c0.4-0.1,0.7-0.3,0.9-0.5c0.2-0.2,0.4-0.4,0.5-0.7s0.1-0.6,0.1-1.1
		c-0.3,0.2-0.6,0.4-1,0.6c-0.4,0.2-0.8,0.3-1.3,0.3c-0.6,0-1.1-0.1-1.6-0.3c-0.5-0.2-1-0.6-1.4-1.1c-0.4-0.5-0.7-1.1-0.9-1.8
		c-0.2-0.7-0.3-1.6-0.3-2.6c0-0.8,0.1-1.6,0.3-2.3c0.2-0.7,0.5-1.3,0.8-1.8s0.8-0.9,1.3-1.1s1.1-0.4,1.8-0.4c0.5,0,0.9,0.1,1.3,0.3
		c0.4,0.2,0.7,0.4,1,0.6v-0.6h2.9V95.3z M334.6,89.6c-0.5-0.6-1.1-0.9-1.9-0.9c-1.1,0-1.7,0.9-1.7,2.8c0,1.1,0.2,1.9,0.5,2.4
		s0.8,0.8,1.4,0.8c0.4,0,0.8-0.1,1.1-0.3c0.3-0.2,0.5-0.4,0.7-0.7V89.6z"/>
	<path id="XMLID_161_" class="st1" d="M349.6,83.7c0,0.4-0.2,0.8-0.5,1.2c-0.3,0.3-0.7,0.5-1.2,0.5c-0.4,0-0.8-0.2-1.2-0.5
		c-0.3-0.3-0.5-0.7-0.5-1.2c0-0.4,0.2-0.8,0.5-1.2c0.3-0.3,0.7-0.5,1.2-0.5c0.4,0,0.8,0.2,1.2,0.5C349.4,82.8,349.6,83.2,349.6,83.7
		z M346.5,97.2V86.2h2.9v10.9H346.5z"/>
	<path id="XMLID_159_" class="st1" d="M358.9,97.2v-5.9c0-1-0.2-1.6-0.5-2c-0.3-0.4-0.8-0.5-1.4-0.5c-0.6,0-1.1,0.2-1.4,0.5
		c-0.3,0.4-0.5,1-0.5,1.9v6h-2.9V86.2h2.9V87c0.3-0.3,0.6-0.5,1-0.7s0.9-0.3,1.5-0.3c1.4,0,2.4,0.4,3.1,1.3s1,2.1,1,3.7v6.2H358.9z"
		/>
	<path id="XMLID_155_" class="st1" d="M379.4,91.7c0,0.2,0,0.4,0,0.5c0,0.1,0,0.3,0,0.4h-6.6c0,0.4,0.1,0.7,0.3,1s0.3,0.5,0.5,0.6
		c0.2,0.2,0.4,0.3,0.7,0.4c0.3,0.1,0.5,0.1,0.8,0.1c0.4,0,0.8-0.1,1.1-0.2c0.3-0.1,0.6-0.3,0.8-0.6l2,1.7c-0.4,0.6-1,1-1.7,1.3
		c-0.7,0.3-1.4,0.5-2.2,0.5c-0.8,0-1.5-0.1-2.1-0.4c-0.6-0.3-1.2-0.7-1.6-1.1c-0.4-0.5-0.8-1.1-1-1.8c-0.2-0.7-0.4-1.5-0.4-2.3
		c0-0.8,0.1-1.6,0.4-2.3c0.3-0.7,0.6-1.3,1-1.8c0.4-0.5,1-0.9,1.5-1.2c0.6-0.3,1.2-0.4,1.9-0.4c0.7,0,1.4,0.1,1.9,0.4
		c0.6,0.3,1.1,0.7,1.4,1.2c0.4,0.5,0.7,1.1,0.9,1.8C379.3,90.2,379.4,90.9,379.4,91.7z M376.6,90.5c0-0.3-0.1-0.5-0.2-0.7
		c-0.1-0.2-0.2-0.4-0.4-0.6s-0.4-0.3-0.6-0.4c-0.2-0.1-0.5-0.2-0.8-0.2c-0.5,0-1,0.2-1.3,0.6s-0.5,0.8-0.5,1.4H376.6z"/>
	<path id="XMLID_152_" class="st1" d="M391.1,91.8c0,0.8-0.1,1.6-0.3,2.3c-0.2,0.7-0.5,1.3-0.8,1.8c-0.4,0.5-0.8,0.9-1.3,1.1
		c-0.5,0.3-1.1,0.4-1.8,0.4c-0.5,0-0.9-0.1-1.3-0.3c-0.4-0.2-0.7-0.4-1-0.6v3.2l-2.9,1.4v-15h2.9v0.7c0.3-0.2,0.6-0.4,1-0.6
		c0.4-0.2,0.8-0.3,1.3-0.3c0.6,0,1.1,0.1,1.6,0.3c0.5,0.2,1,0.6,1.4,1.1c0.4,0.5,0.7,1.1,0.9,1.8C391,89.9,391.1,90.8,391.1,91.8z
		 M388.2,91.9c0-1.1-0.2-1.9-0.5-2.4s-0.8-0.8-1.4-0.8c-0.4,0-0.8,0.1-1.1,0.3c-0.3,0.2-0.5,0.4-0.7,0.7v4.1
		c0.5,0.6,1.1,0.9,1.9,0.9C387.6,94.7,388.2,93.7,388.2,91.9z"/>
	<path id="XMLID_149_" class="st1" d="M396.6,83.7c0,0.4-0.2,0.8-0.5,1.2c-0.3,0.3-0.7,0.5-1.2,0.5c-0.4,0-0.8-0.2-1.2-0.5
		c-0.3-0.3-0.5-0.7-0.5-1.2c0-0.4,0.2-0.8,0.5-1.2c0.3-0.3,0.7-0.5,1.2-0.5c0.4,0,0.8,0.2,1.2,0.5C396.4,82.8,396.6,83.2,396.6,83.7
		z M393.5,97.2V86.2h2.9v10.9H393.5z"/>
	<path id="XMLID_147_" class="st1" d="M399.4,97.2V83.4l2.9-1.4v15.2H399.4z"/>
	<path id="XMLID_144_" class="st1" d="M414.1,91.7c0,0.2,0,0.4,0,0.5c0,0.1,0,0.3,0,0.4h-6.6c0,0.4,0.1,0.7,0.3,1s0.3,0.5,0.5,0.6
		c0.2,0.2,0.4,0.3,0.7,0.4c0.3,0.1,0.5,0.1,0.8,0.1c0.4,0,0.8-0.1,1.1-0.2c0.3-0.1,0.6-0.3,0.8-0.6l2,1.7c-0.4,0.6-1,1-1.7,1.3
		c-0.7,0.3-1.4,0.5-2.2,0.5c-0.8,0-1.5-0.1-2.1-0.4c-0.6-0.3-1.2-0.7-1.6-1.1c-0.4-0.5-0.8-1.1-1-1.8c-0.2-0.7-0.4-1.5-0.4-2.3
		c0-0.8,0.1-1.6,0.4-2.3c0.3-0.7,0.6-1.3,1-1.8c0.4-0.5,1-0.9,1.5-1.2c0.6-0.3,1.2-0.4,1.9-0.4c0.7,0,1.4,0.1,1.9,0.4
		c0.6,0.3,1.1,0.7,1.4,1.2c0.4,0.5,0.7,1.1,0.9,1.8C414,90.2,414.1,90.9,414.1,91.7z M411.3,90.5c0-0.3-0.1-0.5-0.2-0.7
		c-0.1-0.2-0.2-0.4-0.4-0.6s-0.4-0.3-0.6-0.4c-0.2-0.1-0.5-0.2-0.8-0.2c-0.5,0-1,0.2-1.3,0.6s-0.5,0.8-0.5,1.4H411.3z"/>
	<path id="XMLID_141_" class="st1" d="M425.8,91.8c0,0.8-0.1,1.6-0.3,2.3c-0.2,0.7-0.5,1.3-0.8,1.8c-0.4,0.5-0.8,0.9-1.3,1.1
		c-0.5,0.3-1.1,0.4-1.8,0.4c-0.5,0-0.9-0.1-1.3-0.3c-0.4-0.2-0.7-0.4-1-0.6v3.2l-2.9,1.4v-15h2.9v0.7c0.3-0.2,0.6-0.4,1-0.6
		c0.4-0.2,0.8-0.3,1.3-0.3c0.6,0,1.1,0.1,1.6,0.3c0.5,0.2,1,0.6,1.4,1.1c0.4,0.5,0.7,1.1,0.9,1.8C425.7,89.9,425.8,90.8,425.8,91.8z
		 M422.9,91.9c0-1.1-0.2-1.9-0.5-2.4s-0.8-0.8-1.4-0.8c-0.4,0-0.8,0.1-1.1,0.3c-0.3,0.2-0.5,0.4-0.7,0.7v4.1
		c0.5,0.6,1.1,0.9,1.9,0.9C422.3,94.7,422.9,93.7,422.9,91.9z"/>
	<path id="XMLID_139_" class="st1" d="M434.1,96.7c-0.2,0.2-0.6,0.4-1,0.5s-0.8,0.2-1.3,0.2c-0.4,0-0.8-0.1-1.2-0.2
		c-0.4-0.2-0.7-0.4-0.9-0.7c-0.3-0.3-0.4-0.6-0.6-1c-0.1-0.4-0.2-0.8-0.2-1.3v-5.2h-1.8v-2.7h1.8v-2.8l2.9-1.4v4.3h2.6v2.7h-2.6v4.4
		c0,0.5,0.1,0.9,0.3,1.1c0.2,0.2,0.4,0.3,0.8,0.3c0.3,0,0.5-0.1,0.7-0.2c0.2-0.1,0.5-0.3,0.9-0.6L434.1,96.7z"/>
	<path id="XMLID_136_" class="st1" d="M440.4,83.7c0,0.4-0.2,0.8-0.5,1.2c-0.3,0.3-0.7,0.5-1.2,0.5c-0.4,0-0.8-0.2-1.2-0.5
		c-0.3-0.3-0.5-0.7-0.5-1.2c0-0.4,0.2-0.8,0.5-1.2c0.3-0.3,0.7-0.5,1.2-0.5c0.4,0,0.8,0.2,1.2,0.5C440.2,82.8,440.4,83.2,440.4,83.7
		z M437.3,97.2V86.2h2.9v10.9H437.3z"/>
	<path id="XMLID_134_" class="st1" d="M451.3,95.9c-0.3,0.3-0.6,0.5-1,0.8c-0.4,0.2-0.8,0.4-1.2,0.5s-0.9,0.2-1.5,0.2
		c-0.7,0-1.4-0.1-2-0.4s-1.2-0.7-1.6-1.2c-0.5-0.5-0.8-1.1-1.1-1.8c-0.3-0.7-0.4-1.5-0.4-2.3c0-0.8,0.1-1.6,0.4-2.3
		c0.3-0.7,0.6-1.3,1.1-1.8c0.5-0.5,1-0.9,1.7-1.2c0.6-0.3,1.3-0.4,2.1-0.4c1,0,1.9,0.2,2.6,0.7c0.7,0.4,1.3,1,1.7,1.7l-1.9,1.9
		c-0.3-0.5-0.7-0.8-1.1-1.1c-0.4-0.3-0.9-0.4-1.4-0.4c-0.7,0-1.2,0.3-1.7,0.8c-0.4,0.5-0.6,1.3-0.6,2.2c0,0.9,0.2,1.6,0.6,2.1
		s1,0.8,1.7,0.8c0.6,0,1-0.1,1.4-0.4c0.4-0.2,0.8-0.6,1.1-1l1.8,1.7C451.8,95.3,451.6,95.7,451.3,95.9z"/>
</g>
<g id="XMLID_111_">
	<path id="XMLID_131_" class="st1" d="M88.4,120.9c-0.3,0.3-0.6,0.5-1,0.8c-0.4,0.2-0.8,0.4-1.2,0.5s-0.9,0.2-1.5,0.2
		c-0.7,0-1.4-0.1-2-0.4s-1.2-0.7-1.6-1.2c-0.5-0.5-0.8-1.1-1.1-1.8c-0.3-0.7-0.4-1.5-0.4-2.3c0-0.8,0.1-1.6,0.4-2.3
		c0.3-0.7,0.6-1.3,1.1-1.8c0.5-0.5,1-0.9,1.7-1.2c0.6-0.3,1.3-0.4,2.1-0.4c1,0,1.9,0.2,2.6,0.7c0.7,0.4,1.3,1,1.7,1.7l-1.9,1.9
		c-0.3-0.5-0.7-0.8-1.1-1.1c-0.4-0.3-0.9-0.4-1.4-0.4c-0.7,0-1.2,0.3-1.7,0.8c-0.4,0.5-0.6,1.3-0.6,2.2c0,0.9,0.2,1.6,0.6,2.1
		s1,0.8,1.7,0.8c0.6,0,1-0.1,1.4-0.4c0.4-0.2,0.8-0.6,1.1-1l1.8,1.7C89,120.3,88.7,120.7,88.4,120.9z"/>
	<path id="XMLID_127_" class="st1" d="M94.6,108.7c0,0.4-0.2,0.8-0.5,1.2c-0.3,0.3-0.7,0.5-1.2,0.5c-0.4,0-0.8-0.2-1.2-0.5
		c-0.3-0.3-0.5-0.7-0.5-1.2c0-0.4,0.2-0.8,0.5-1.2c0.3-0.3,0.7-0.5,1.2-0.5c0.4,0,0.8,0.2,1.2,0.5C94.5,107.9,94.6,108.2,94.6,108.7
		z M91.5,122.2v-10.9h2.9v10.9H91.5z"/>
	<path id="XMLID_125_" class="st1" d="M103.7,114.6c-0.2-0.2-0.5-0.4-0.8-0.5c-0.3-0.1-0.6-0.2-0.9-0.2c-0.3,0-0.5,0-0.8,0.1
		c-0.2,0.1-0.4,0.2-0.6,0.4c-0.2,0.2-0.3,0.4-0.4,0.7c-0.1,0.3-0.1,0.7-0.1,1.2v5.9h-2.9v-10.9h2.9v0.7c0.3-0.3,0.6-0.5,0.9-0.7
		s0.8-0.3,1.3-0.3c0.5,0,0.9,0.1,1.2,0.2c0.3,0.2,0.6,0.3,0.8,0.5L103.7,114.6z"/>
	<path id="XMLID_123_" class="st1" d="M114.1,120.9c-0.3,0.3-0.6,0.5-1,0.8c-0.4,0.2-0.8,0.4-1.2,0.5s-0.9,0.2-1.5,0.2
		c-0.7,0-1.4-0.1-2-0.4s-1.2-0.7-1.6-1.2c-0.5-0.5-0.8-1.1-1.1-1.8c-0.3-0.7-0.4-1.5-0.4-2.3c0-0.8,0.1-1.6,0.4-2.3
		c0.3-0.7,0.6-1.3,1.1-1.8c0.5-0.5,1-0.9,1.7-1.2c0.6-0.3,1.3-0.4,2.1-0.4c1,0,1.9,0.2,2.6,0.7c0.7,0.4,1.3,1,1.7,1.7l-1.9,1.9
		c-0.3-0.5-0.7-0.8-1.1-1.1c-0.4-0.3-0.9-0.4-1.4-0.4c-0.7,0-1.2,0.3-1.7,0.8c-0.4,0.5-0.6,1.3-0.6,2.2c0,0.9,0.2,1.6,0.6,2.1
		s1,0.8,1.7,0.8c0.6,0,1-0.1,1.4-0.4c0.4-0.2,0.8-0.6,1.1-1l1.8,1.7C114.7,120.3,114.4,120.7,114.1,120.9z"/>
	<path id="XMLID_121_" class="st1" d="M123.5,122.2v-0.7c-0.3,0.3-0.6,0.5-1,0.7s-0.9,0.3-1.5,0.3c-1.4,0-2.4-0.4-3.1-1.3
		c-0.6-0.9-1-2.1-1-3.7v-6.2h2.9v5.9c0,0.5,0,0.9,0.1,1.2s0.2,0.6,0.4,0.8c0.2,0.2,0.3,0.3,0.6,0.4c0.2,0.1,0.5,0.1,0.8,0.1
		c0.6,0,1.1-0.2,1.4-0.5c0.3-0.4,0.5-1,0.5-1.9v-6h2.9v10.9H123.5z"/>
	<path id="XMLID_118_" class="st1" d="M132.4,108.7c0,0.4-0.2,0.8-0.5,1.2c-0.3,0.3-0.7,0.5-1.2,0.5c-0.4,0-0.8-0.2-1.2-0.5
		c-0.3-0.3-0.5-0.7-0.5-1.2c0-0.4,0.2-0.8,0.5-1.2c0.3-0.3,0.7-0.5,1.2-0.5c0.4,0,0.8,0.2,1.2,0.5
		C132.2,107.9,132.4,108.2,132.4,108.7z M129.3,122.2v-10.9h2.9v10.9H129.3z"/>
	<path id="XMLID_116_" class="st1" d="M141.2,121.7c-0.2,0.2-0.6,0.4-1,0.5s-0.8,0.2-1.3,0.2c-0.4,0-0.8-0.1-1.2-0.2
		c-0.4-0.2-0.7-0.4-0.9-0.7c-0.3-0.3-0.4-0.6-0.6-1c-0.1-0.4-0.2-0.8-0.2-1.3v-5.2h-1.8v-2.7h1.8v-2.8l2.9-1.4v4.3h2.6v2.7h-2.6v4.4
		c0,0.5,0.1,0.9,0.3,1.1c0.2,0.2,0.4,0.3,0.8,0.3c0.3,0,0.5-0.1,0.7-0.2c0.2-0.1,0.5-0.3,0.9-0.6L141.2,121.7z"/>
	<path id="XMLID_114_" class="st1" d="M152.8,119c0,0.6-0.1,1.2-0.4,1.6c-0.2,0.4-0.6,0.8-1,1.1c-0.4,0.3-0.9,0.5-1.4,0.6
		c-0.5,0.1-1.1,0.2-1.7,0.2c-0.9,0-1.7-0.1-2.5-0.3c-0.8-0.2-1.5-0.5-2.1-0.9l1-2.2c0.6,0.3,1.2,0.6,1.8,0.7c0.6,0.2,1.3,0.3,2,0.3
		c0.6,0,1-0.1,1.2-0.2c0.2-0.1,0.3-0.3,0.3-0.6c0-0.3-0.1-0.5-0.3-0.6c-0.2-0.2-0.6-0.3-1.3-0.5c-0.7-0.2-1.2-0.4-1.8-0.6
		c-0.5-0.2-1-0.4-1.4-0.7s-0.7-0.6-0.9-1c-0.2-0.4-0.3-0.9-0.3-1.5c0-0.6,0.1-1.1,0.3-1.5s0.5-0.7,0.9-1c0.4-0.3,0.9-0.5,1.4-0.6
		c0.5-0.1,1.1-0.2,1.8-0.2c0.7,0,1.4,0.1,2.1,0.3c0.7,0.2,1.4,0.5,1.9,0.8l-0.9,2.3c-0.5-0.3-1.1-0.5-1.7-0.7
		c-0.6-0.1-1.1-0.2-1.5-0.2c-0.6,0-1,0.1-1.2,0.2s-0.3,0.3-0.3,0.5c0,0.1,0,0.2,0.1,0.3c0.1,0.1,0.2,0.2,0.3,0.3
		c0.2,0.1,0.4,0.2,0.7,0.3c0.3,0.1,0.7,0.2,1.2,0.4c0.5,0.2,1,0.3,1.4,0.5c0.4,0.2,0.8,0.4,1.2,0.7s0.6,0.6,0.8,1
		C152.7,118,152.8,118.4,152.8,119z"/>
	<path id="XMLID_112_" class="st1" d="M158.7,120.4c0,0.3-0.1,0.5-0.2,0.8c-0.1,0.2-0.2,0.4-0.4,0.6s-0.4,0.3-0.6,0.4
		c-0.2,0.1-0.5,0.2-0.8,0.2c-0.3,0-0.5-0.1-0.8-0.2c-0.2-0.1-0.4-0.2-0.6-0.4c-0.2-0.2-0.3-0.4-0.4-0.6c-0.1-0.2-0.2-0.5-0.2-0.8
		c0-0.3,0.1-0.5,0.2-0.8c0.1-0.2,0.2-0.4,0.4-0.6c0.2-0.2,0.4-0.3,0.6-0.4c0.2-0.1,0.5-0.2,0.8-0.2c0.3,0,0.5,0.1,0.8,0.2
		c0.2,0.1,0.4,0.2,0.6,0.4c0.2,0.2,0.3,0.4,0.4,0.6C158.7,119.9,158.7,120.2,158.7,120.4z"/>
</g>
<g>
	<path class="st1" d="M158.4,115.2v-0.5l0.6-0.6c1.5-1.5,2.2-2.2,2.2-3.1c0-0.6-0.3-1.2-1.2-1.2c-0.5,0-1,0.3-1.3,0.5l-0.3-0.6
		c0.4-0.4,1-0.6,1.7-0.6c1.3,0,1.8,0.9,1.8,1.8c0,1.1-0.8,2-2.1,3.2l-0.5,0.4v0h2.7v0.7H158.4z"/>
</g>
<g id="XMLID_1_">
	<g id="XMLID_3_">
		<polygon id="XMLID_57_" class="st1" points="80.3,39.1 81.2,39.1 81.2,46.9 86.7,46.9 86.7,47.7 80.3,47.7 		"/>
		<path id="XMLID_54_" class="st1" d="M93.3,44.1C93,42.5,91.9,42,90.7,42c-1.2,0-2.4,0.6-2.6,2.1H93.3z M94,45.7
			c-0.4,1.1-1.3,2.2-3.4,2.2c-2.6,0-3.4-1.8-3.4-3.3c0-1.7,1.1-3.3,3.4-3.3c1.6,0,3.6,0.7,3.6,3.5h-6.1c0,1.3,0.9,2.4,2.5,2.4
			c1.5,0,2.2-0.5,2.5-1.4H94z"/>
		<polygon id="XMLID_53_" class="st1" points="100.4,41.4 101.4,41.4 98.4,47.7 97.4,47.7 94.5,41.4 95.5,41.4 97.9,46.7 		"/>
		<path id="XMLID_50_" class="st1" d="M107.9,44.1c-0.3-1.5-1.4-2.1-2.6-2.1c-1.2,0-2.4,0.6-2.6,2.1H107.9z M108.6,45.7
			c-0.4,1.1-1.3,2.2-3.4,2.2c-2.6,0-3.4-1.8-3.4-3.3c0-1.7,1.1-3.3,3.4-3.3c1.6,0,3.6,0.7,3.6,3.5h-6.1c0,1.3,0.9,2.4,2.5,2.4
			c1.5,0,2.2-0.5,2.5-1.4H108.6z"/>
		<path id="XMLID_49_" class="st1" d="M110.5,39.4h0.9v2h1.8v0.7h-1.8v4.1c0,0.5,0.2,0.8,0.9,0.8c0.4,0,0.7,0,0.9-0.1v0.7
			c-0.3,0-0.7,0.1-1,0.1c-1.4,0-1.7-0.5-1.7-1.6v-4.1h-1.4v-0.7h1.4V39.4z"/>
		<path id="XMLID_45_" class="st1" d="M114.1,41.4h0.9v6.3h-0.9V41.4z M114.1,39h0.9v1.3h-0.9V39z"/>
		<path id="XMLID_44_" class="st1" d="M116.4,41.4h0.9v1.4h0c0.3-0.7,0.9-1.6,2.4-1.6c0.3,0,0.4,0,0.5,0v0.9c-0.3,0-0.5-0.1-0.8-0.1
			c-1,0-2.1,0.6-2.1,2.4v3.2h-0.9V41.4z"/>
		<path id="XMLID_41_" class="st1" d="M125.9,44.3c-0.4,0.2-1,0.3-2.8,0.5c-1,0.1-1.7,0.4-1.7,1.2c0,1,0.9,1.3,1.8,1.3
			c1.2,0,2.6-0.7,2.6-1.9V44.3z M120.8,43.3c0.1-1.3,0.8-2.1,3-2.1c2.1,0,2.9,0.7,2.9,1.9v3.3c0,0.5,0.1,0.7,0.5,0.7
			c0.2,0,0.3,0,0.5,0v0.6c-0.2,0-0.5,0.1-0.8,0.1c-0.9,0-1-0.6-1-1.1h0c-0.3,0.4-0.9,1.2-3,1.2c-1.1,0-2.5-0.5-2.5-1.9
			c0-1.7,1.8-1.9,3.1-2c2-0.1,2.2-0.2,2.2-0.8c0-0.9-0.6-1.2-2.1-1.2c-1.4,0-2.1,0.4-2.2,1.4H120.8z"/>
		<path id="XMLID_40_" class="st1" d="M134.7,45.4c-0.2,0.8-0.9,2.4-3.2,2.4c-2.3,0-3.6-1.4-3.6-3.3c0-1.9,1.2-3.3,3.6-3.3
			c2.2,0,3,1.3,3.1,2.2h-0.9c-0.3-1.1-1.1-1.5-2.2-1.5c-1.8,0-2.7,1.1-2.7,2.6c0,1.6,0.9,2.6,2.7,2.6c1.3,0,2.1-0.7,2.3-1.7H134.7z"
			/>
		<path id="XMLID_37_" class="st1" d="M141.6,44.1c-0.3-1.5-1.4-2.1-2.6-2.1c-1.2,0-2.4,0.6-2.6,2.1H141.6z M142.3,45.7
			c-0.4,1.1-1.3,2.2-3.4,2.2c-2.6,0-3.4-1.8-3.4-3.3c0-1.7,1.1-3.3,3.4-3.3c1.6,0,3.6,0.7,3.6,3.5h-6.1c0,1.3,0.9,2.4,2.5,2.4
			c1.5,0,2.2-0.5,2.5-1.4H142.3z"/>
		<path id="XMLID_36_" class="st1" d="M144.2,39.4h0.9v2h1.8v0.7h-1.8v4.1c0,0.5,0.2,0.8,0.9,0.8c0.4,0,0.7,0,0.9-0.1v0.7
			c-0.3,0-0.7,0.1-1,0.1c-1.4,0-1.7-0.5-1.7-1.6v-4.1h-1.4v-0.7h1.4V39.4z"/>
		<path id="XMLID_33_" class="st1" d="M152.9,44.3c-0.4,0.2-1,0.3-2.8,0.5c-1,0.1-1.7,0.4-1.7,1.2c0,1,0.9,1.3,1.8,1.3
			c1.2,0,2.6-0.7,2.6-1.9V44.3z M147.8,43.3c0.1-1.3,0.9-2.1,3-2.1c2.1,0,2.9,0.7,2.9,1.9v3.3c0,0.5,0.1,0.7,0.5,0.7
			c0.2,0,0.3,0,0.5,0v0.6c-0.2,0-0.5,0.1-0.8,0.1c-0.9,0-1-0.6-1-1.1h0c-0.3,0.4-0.9,1.2-3,1.2c-1.1,0-2.5-0.5-2.5-1.9
			c0-1.7,1.8-1.9,3.1-2c2-0.1,2.2-0.2,2.2-0.8c0-0.9-0.6-1.2-2.1-1.2c-1.4,0-2.1,0.4-2.2,1.4H147.8z"/>
		<path id="XMLID_32_" class="st1" d="M165.1,43.7c0-1.1-0.6-1.7-1.9-1.7c-1.4,0-2.2,0.8-2.2,2v3.7h-0.9v-4.2c0-0.8-0.6-1.5-1.8-1.5
			c-1.3,0-2.2,0.7-2.2,2.2v3.5h-0.9v-6.3h0.9v1.2h0c0.4-0.7,1.1-1.4,2.5-1.4c1.4,0,2.1,0.8,2.3,1.4c0.3-0.6,1.2-1.4,2.5-1.4
			c1.8,0,2.6,0.9,2.6,2.2v4.3h-0.9V43.7z"/>
		<polygon id="XMLID_31_" class="st1" points="156.4,37.4 153.8,37.4 151.9,34 149.8,37.4 147.4,37.4 150.6,32.3 147.6,27.4 
			150.1,27.4 151.9,30.7 153.7,27.4 156.1,27.4 153.1,32.2 		"/>
		<path id="XMLID_28_" class="st1" d="M162.2,31.8c1.1,0,1.6-0.4,1.6-1.4c0-0.5-0.2-1.3-1.5-1.3h-2.6v2.7H162.2z M157.6,27.4h5.1
			c2.7,0,3.2,2,3.2,2.8c0,1.1-0.6,2-1.6,2.4c0.8,0.4,1.3,0.7,1.3,2.5c0,1.5,0,1.8,0.4,2v0.3h-2.3c-0.1-0.5-0.2-1-0.2-2
			c0-1.4-0.1-1.9-1.6-1.9h-2.2v3.9h-2.1V27.4z"/>
		<polygon id="XMLID_27_" class="st1" points="85.7,37.3 83.1,32.8 81.8,34.3 81.8,37.3 79.9,37.3 79.9,27.4 81.8,27.4 81.8,31.7 
			85.4,27.4 87.7,27.4 84.4,31.4 88,37.3 		"/>
		<path id="XMLID_24_" class="st1" d="M101.4,29.1h-1.8v2.7h1.8c0.9,0,1.4-0.5,1.4-1.3C102.9,29.7,102.3,29.1,101.4,29.1
			 M101.5,33.6h-1.9v3.7h-1.9v-9.9h3.9c2.1,0,3.3,1.4,3.3,3.1C104.8,32.2,103.6,33.6,101.5,33.6"/>
		<path id="XMLID_21_" class="st1" d="M110.2,29.1h-1.8v2.6h1.8c0.9,0,1.4-0.5,1.4-1.3C111.6,29.7,111.1,29.1,110.2,29.1
			 M111.7,37.3l-1.9-3.9h-1.4v3.9h-1.9v-9.9h3.9c2,0,3.2,1.4,3.2,3c0,1.4-0.9,2.3-1.8,2.6l2.2,4.3H111.7z"/>
		<path id="XMLID_18_" class="st1" d="M119,30.3l-1.3,3.6h2.5L119,30.3z M121.3,37.3l-0.6-1.7h-3.5l-0.6,1.7h-2l3.6-9.9h1.5l3.6,9.9
			H121.3z"/>
		<path id="XMLID_15_" class="st1" d="M129.4,29.8c-0.3-0.4-0.8-0.6-1.5-0.6h-1.5v6.4h1.5c0.7,0,1.1-0.2,1.5-0.6
			c0.4-0.4,0.4-1.2,0.4-2.6C129.8,30.8,129.8,30.2,129.4,29.8 M130.8,36.4c-0.7,0.6-1.6,0.9-2.6,0.9h-3.6v-9.9h3.6
			c1,0,2,0.3,2.6,0.9c1.1,1.1,1,2.5,1,4C131.8,33.8,131.9,35.3,130.8,36.4"/>
		<rect id="XMLID_14_" x="133.8" y="27.4" class="st1" width="1.9" height="9.9"/>
		<polygon id="XMLID_13_" class="st1" points="138,37.3 138,27.4 140,27.4 140,35.6 144.5,35.6 144.5,37.3 		"/>
		<path id="XMLID_8_" class="st1" d="M142.6,29c0.2,0,0.4,0,0.4-0.2c0-0.2-0.2-0.2-0.3-0.2h-0.3V29H142.6z M142.1,28.3h0.6
			c0.3,0,0.5,0.1,0.5,0.4c0,0.3-0.2,0.4-0.4,0.4l0.4,0.7H143l-0.4-0.6h-0.3v0.6h-0.2V28.3z M143.7,29.1c0-0.6-0.5-1.1-1.1-1.1
			c-0.6,0-1.1,0.5-1.1,1.1c0,0.6,0.5,1.1,1.1,1.1C143.3,30.2,143.7,29.7,143.7,29.1 M142.7,27.8c0.7,0,1.3,0.6,1.3,1.3
			c0,0.7-0.6,1.3-1.3,1.3c-0.7,0-1.3-0.6-1.3-1.3C141.4,28.4,141.9,27.8,142.7,27.8"/>
		<polygon id="XMLID_7_" class="st1" points="89.2,37.3 95.8,37.3 95.8,35.6 91.2,35.6 91.2,33.6 89.2,33.6 		"/>
		<path id="XMLID_6_" class="st1" d="M88.4,32.8c0,0,0.8-1.8,4-1.8c3.1,0,4.9-1.1,4.9-1.1s-2.2,2.3-4.4,2.3
			C90.6,32.2,89.3,32.2,88.4,32.8"/>
		<path id="XMLID_5_" class="st1" d="M87.5,34.5c0,0,0.8-1.8,3.9-1.8c3.1,0,4.9-1.1,4.9-1.1s-2.2,2.3-4.4,2.3
			C89.7,33.9,88.4,33.9,87.5,34.5"/>
		<polygon id="XMLID_4_" class="st1" points="89.2,31.8 91.2,31.8 91.2,29.2 95.8,29.2 95.8,27.4 89.2,27.4 		"/>
	</g>
</g>
</svg>
