<!-- Generator: Adobe Illustrator 22.1.0, SVG Export Plug-In  -->
<svg version="1.1"
	 xmlns="http://www.w3.org/2000/svg" xmlns:xlink="http://www.w3.org/1999/xlink" xmlns:a="http://ns.adobe.com/AdobeSVGViewerExtensions/3.0/"
	 x="0px" y="0px" width="755.1px" height="90.3px" viewBox="0 0 755.1 90.3" style="enable-background:new 0 0 755.1 90.3;"
	 xml:space="preserve">
<style type="text/css">
	.st0{fill:#532D6D;}
	.st1{fill:#266093;}
	.st2{fill:url(#XMLID_213_);}
	.st3{fill:#FFFFFF;}
	.st4{fill:url(#XMLID_214_);}
</style>
<defs>
</defs>
<g id="XMLID_86_">
	<path id="XMLID_211_" class="st0" d="M8.2,3.5v15.9H5.4V3.5H0V0.8h13.7v2.7H8.2z"/>
	<path id="XMLID_209_" class="st0" d="M25,19.4v-7.9c0-1.4-0.3-2.4-0.8-3c-0.5-0.6-1.2-0.9-2.1-0.9c-0.9,0-1.6,0.3-2.1,0.9
		c-0.5,0.6-0.7,1.5-0.7,2.6v8.2h-2.7v-18L19.3,0v6.8c0.4-0.5,0.8-0.9,1.5-1.2c0.6-0.3,1.3-0.4,2-0.4c1.6,0,2.9,0.5,3.7,1.6
		c0.8,1,1.3,2.6,1.3,4.7v8H25z"/>
	<path id="XMLID_206_" class="st0" d="M43.1,12.2c0,0.2,0,0.5,0,0.7c0,0.2,0,0.4-0.1,0.5h-9.2c0.1,0.7,0.2,1.3,0.4,1.7
		c0.2,0.5,0.5,0.9,0.8,1.2c0.3,0.3,0.7,0.5,1.1,0.7c0.4,0.2,0.8,0.2,1.2,0.2c0.6,0,1.1-0.1,1.6-0.3c0.5-0.2,1-0.5,1.4-0.8l1.6,1.8
		c-0.6,0.6-1.3,1-2.1,1.4c-0.8,0.3-1.7,0.5-2.7,0.5c-0.8,0-1.6-0.2-2.3-0.5c-0.7-0.3-1.4-0.8-1.9-1.4c-0.6-0.6-1-1.4-1.3-2.3
		S31,13.6,31,12.4c0-1.2,0.2-2.2,0.5-3.1s0.7-1.7,1.3-2.3c0.5-0.6,1.2-1.1,1.9-1.4c0.8-0.3,1.6-0.5,2.5-0.5c1,0,1.9,0.2,2.6,0.6
		s1.4,0.9,1.8,1.5c0.5,0.6,0.9,1.4,1.1,2.2C42.9,10.3,43.1,11.2,43.1,12.2z M40.3,11.1c0-0.5-0.1-0.9-0.3-1.4
		c-0.1-0.4-0.3-0.8-0.6-1.1c-0.3-0.3-0.6-0.6-1-0.8c-0.4-0.2-0.9-0.3-1.5-0.3c-0.9,0-1.7,0.3-2.2,0.9c-0.5,0.6-0.9,1.5-1,2.6H40.3z"
		/>
	<path id="XMLID_203_" class="st0" d="M66.4,19.4L64.8,15h-7.5l-1.5,4.4h-2.9l6.7-18.7h3l6.8,18.7H66.4z M62.5,8.2
		c-0.1-0.3-0.2-0.7-0.4-1.1c-0.1-0.4-0.3-0.8-0.4-1.2c-0.1-0.4-0.3-0.8-0.4-1.1c-0.1-0.3-0.2-0.6-0.3-0.8c-0.1,0.2-0.1,0.5-0.2,0.8
		c-0.1,0.3-0.2,0.7-0.3,1.1c-0.1,0.4-0.3,0.8-0.4,1.2c-0.1,0.4-0.3,0.8-0.4,1.1l-1.5,4.3H64L62.5,8.2z"/>
	<path id="XMLID_200_" class="st0" d="M80.7,19.4v-1.3c-0.5,0.5-1.1,0.9-1.7,1.2c-0.6,0.3-1.3,0.5-2,0.5s-1.4-0.1-2.1-0.4
		c-0.7-0.3-1.2-0.7-1.7-1.3c-0.5-0.6-0.9-1.4-1.1-2.3s-0.4-2.1-0.4-3.4c0-1.2,0.2-2.2,0.5-3.1c0.3-0.9,0.7-1.6,1.2-2.2
		s1.1-1,1.8-1.3s1.4-0.4,2.1-0.4c0.7,0,1.4,0.2,2,0.5c0.6,0.3,1.1,0.7,1.5,1.1V1.4L83.4,0v19.4H80.7z M80.7,9.5
		c-0.2-0.2-0.4-0.4-0.6-0.6c-0.2-0.2-0.5-0.4-0.8-0.6S78.8,8,78.4,7.9c-0.3-0.1-0.7-0.2-1-0.2c-1,0-1.8,0.4-2.3,1.1
		c-0.5,0.7-0.8,1.8-0.8,3.3c0,1.8,0.3,3,0.8,3.8c0.5,0.8,1.3,1.2,2.3,1.2c0.7,0,1.3-0.2,1.8-0.5c0.6-0.4,1-0.8,1.4-1.2V9.5z"/>
	<path id="XMLID_198_" class="st0" d="M94.1,19.4h-2.7l-5-14h2.9l2.5,7.6c0.2,0.7,0.4,1.3,0.6,1.9c0.2,0.6,0.3,1.1,0.4,1.5
		c0.1-0.4,0.2-0.9,0.4-1.5c0.2-0.6,0.4-1.3,0.6-1.9l2.4-7.6H99L94.1,19.4z"/>
	<path id="XMLID_195_" class="st0" d="M112.7,12.2c0,0.2,0,0.5,0,0.7c0,0.2,0,0.4-0.1,0.5h-9.2c0.1,0.7,0.2,1.3,0.4,1.7
		c0.2,0.5,0.5,0.9,0.8,1.2c0.3,0.3,0.7,0.5,1.1,0.7c0.4,0.2,0.8,0.2,1.2,0.2c0.6,0,1.1-0.1,1.6-0.3c0.5-0.2,1-0.5,1.4-0.8l1.6,1.8
		c-0.6,0.6-1.3,1-2.1,1.4c-0.8,0.3-1.7,0.5-2.7,0.5c-0.8,0-1.6-0.2-2.3-0.5c-0.7-0.3-1.4-0.8-1.9-1.4c-0.6-0.6-1-1.4-1.3-2.3
		s-0.5-1.9-0.5-3.1c0-1.2,0.2-2.2,0.5-3.1s0.7-1.7,1.3-2.3c0.5-0.6,1.2-1.1,1.9-1.4c0.8-0.3,1.6-0.5,2.5-0.5c1,0,1.9,0.2,2.6,0.6
		s1.4,0.9,1.8,1.5c0.5,0.6,0.9,1.4,1.1,2.2C112.6,10.3,112.7,11.2,112.7,12.2z M110,11.1c0-0.5-0.1-0.9-0.3-1.4
		c-0.1-0.4-0.3-0.8-0.6-1.1c-0.3-0.3-0.6-0.6-1-0.8c-0.4-0.2-0.9-0.3-1.5-0.3c-0.9,0-1.7,0.3-2.2,0.9c-0.5,0.6-0.9,1.5-1,2.6H110z"
		/>
	<path id="XMLID_193_" class="st0" d="M123.8,8.3c-0.3-0.2-0.6-0.3-0.9-0.4s-0.7-0.1-1.2-0.1c-0.9,0-1.5,0.3-2,0.9
		c-0.5,0.6-0.7,1.5-0.7,2.7v8h-2.7v-14h2.7v1.3c0.3-0.5,0.8-0.8,1.3-1.2s1.2-0.5,1.9-0.5c0.6,0,1,0,1.4,0.1c0.4,0.1,0.7,0.2,1,0.4
		L123.8,8.3z"/>
	<path id="XMLID_191_" class="st0" d="M136.6,15.6c0,0.8-0.1,1.4-0.4,2c-0.3,0.5-0.7,0.9-1.2,1.3c-0.5,0.3-1,0.6-1.7,0.7
		c-0.6,0.1-1.3,0.2-2,0.2c-1,0-1.9-0.2-2.9-0.5c-1-0.3-1.8-0.8-2.5-1.3l1.3-2.1c0.7,0.5,1.3,0.8,2,1c0.7,0.2,1.4,0.3,2,0.3
		c1.7,0,2.6-0.5,2.6-1.5c0-0.5-0.3-1-0.9-1.3c-0.6-0.3-1.4-0.7-2.4-1.1c-0.7-0.3-1.4-0.6-1.9-0.9c-0.5-0.3-1-0.6-1.3-0.9
		c-0.3-0.3-0.6-0.7-0.7-1.1c-0.1-0.4-0.2-0.9-0.2-1.5c0-0.6,0.1-1.2,0.3-1.7c0.2-0.5,0.6-0.9,1-1.2c0.4-0.3,0.9-0.6,1.5-0.7
		c0.6-0.2,1.2-0.2,1.9-0.2c0.9,0,1.7,0.1,2.6,0.4c0.8,0.3,1.5,0.7,2.2,1.1l-1.2,2.1c-0.6-0.4-1.1-0.7-1.7-0.9
		c-0.6-0.2-1.2-0.3-1.9-0.3c-0.7,0-1.2,0.1-1.5,0.4c-0.3,0.2-0.5,0.5-0.5,0.9c0,0.2,0,0.3,0.1,0.5c0.1,0.2,0.2,0.3,0.4,0.5
		c0.2,0.2,0.5,0.3,0.8,0.5s0.8,0.4,1.3,0.6c0.8,0.3,1.5,0.6,2.1,0.9s1.1,0.6,1.5,0.9c0.4,0.3,0.7,0.8,0.9,1.2
		C136.5,14.4,136.6,14.9,136.6,15.6z"/>
	<path id="XMLID_188_" class="st0" d="M151.1,12.2c0,0.2,0,0.5,0,0.7c0,0.2,0,0.4-0.1,0.5h-9.2c0.1,0.7,0.2,1.3,0.4,1.7
		c0.2,0.5,0.5,0.9,0.8,1.2c0.3,0.3,0.7,0.5,1.1,0.7c0.4,0.2,0.8,0.2,1.2,0.2c0.6,0,1.1-0.1,1.6-0.3c0.5-0.2,1-0.5,1.4-0.8l1.6,1.8
		c-0.6,0.6-1.3,1-2.1,1.4c-0.8,0.3-1.7,0.5-2.7,0.5c-0.8,0-1.6-0.2-2.3-0.5c-0.7-0.3-1.4-0.8-1.9-1.4c-0.6-0.6-1-1.4-1.3-2.3
		s-0.5-1.9-0.5-3.1c0-1.2,0.2-2.2,0.5-3.1s0.7-1.7,1.3-2.3c0.5-0.6,1.2-1.1,1.9-1.4c0.8-0.3,1.6-0.5,2.5-0.5c1,0,1.9,0.2,2.6,0.6
		s1.4,0.9,1.8,1.5c0.5,0.6,0.9,1.4,1.1,2.2C151,10.3,151.1,11.2,151.1,12.2z M148.4,11.1c0-0.5-0.1-0.9-0.3-1.4
		c-0.1-0.4-0.3-0.8-0.6-1.1c-0.3-0.3-0.6-0.6-1-0.8c-0.4-0.2-0.9-0.3-1.5-0.3c-0.9,0-1.7,0.3-2.2,0.9c-0.5,0.6-0.9,1.5-1,2.6H148.4z
		"/>
	<path id="XMLID_186_" class="st0" d="M162.2,19.4V0.8h12v2.7H165v4.6h5.4v2.7H165v5.9h9.6v2.7H162.2z"/>
	<path id="XMLID_184_" class="st0" d="M183.4,19.4h-2.7l-5-14h2.9l2.5,7.6c0.2,0.7,0.4,1.3,0.6,1.9c0.2,0.6,0.3,1.1,0.4,1.5
		c0.1-0.4,0.2-0.9,0.4-1.5c0.2-0.6,0.4-1.3,0.6-1.9l2.4-7.6h2.9L183.4,19.4z"/>
	<path id="XMLID_181_" class="st0" d="M202.1,12.2c0,0.2,0,0.5,0,0.7c0,0.2,0,0.4-0.1,0.5h-9.2c0.1,0.7,0.2,1.3,0.4,1.7
		c0.2,0.5,0.5,0.9,0.8,1.2c0.3,0.3,0.7,0.5,1.1,0.7c0.4,0.2,0.8,0.2,1.2,0.2c0.6,0,1.1-0.1,1.6-0.3c0.5-0.2,1-0.5,1.4-0.8l1.6,1.8
		c-0.6,0.6-1.3,1-2.1,1.4c-0.8,0.3-1.7,0.5-2.7,0.5c-0.8,0-1.6-0.2-2.3-0.5c-0.7-0.3-1.4-0.8-1.9-1.4c-0.6-0.6-1-1.4-1.3-2.3
		s-0.5-1.9-0.5-3.1c0-1.2,0.2-2.2,0.5-3.1s0.7-1.7,1.3-2.3c0.5-0.6,1.2-1.1,1.9-1.4c0.8-0.3,1.6-0.5,2.5-0.5c1,0,1.9,0.2,2.6,0.6
		s1.4,0.9,1.8,1.5c0.5,0.6,0.9,1.4,1.1,2.2C202,10.3,202.1,11.2,202.1,12.2z M199.4,11.1c0-0.5-0.1-0.9-0.3-1.4
		c-0.1-0.4-0.3-0.8-0.6-1.1c-0.3-0.3-0.6-0.6-1-0.8c-0.4-0.2-0.9-0.3-1.5-0.3c-0.9,0-1.7,0.3-2.2,0.9c-0.5,0.6-0.9,1.5-1,2.6H199.4z
		"/>
	<path id="XMLID_179_" class="st0" d="M214.1,19.4v-7.9c0-1.4-0.3-2.4-0.8-3c-0.5-0.6-1.2-0.9-2.1-0.9c-0.9,0-1.6,0.3-2.1,0.9
		c-0.5,0.6-0.7,1.5-0.7,2.6v8.2h-2.7v-14h2.7v1.3c0.4-0.5,0.8-0.9,1.5-1.2c0.6-0.3,1.3-0.4,2-0.4c1.6,0,2.9,0.5,3.7,1.6
		c0.8,1,1.3,2.6,1.3,4.7v8H214.1z"/>
	<path id="XMLID_177_" class="st0" d="M227.3,19.1c-0.3,0.2-0.7,0.4-1.2,0.5c-0.5,0.1-1,0.2-1.5,0.2c-1,0-1.7-0.3-2.3-0.9
		c-0.6-0.6-0.8-1.5-0.8-2.8V7.9h-2V5.4h2v-4l2.7-1.4v5.4h3.5v2.5h-3.5v7.6c0,0.7,0.1,1.1,0.3,1.3c0.2,0.2,0.6,0.3,1.1,0.3
		c0.4,0,0.7-0.1,1.1-0.2s0.7-0.2,0.9-0.4L227.3,19.1z"/>
	<path id="XMLID_175_" class="st0" d="M241,15.6c0,0.8-0.1,1.4-0.4,2c-0.3,0.5-0.7,0.9-1.2,1.3c-0.5,0.3-1,0.6-1.7,0.7
		c-0.6,0.1-1.3,0.2-2,0.2c-1,0-1.9-0.2-2.9-0.5c-1-0.3-1.8-0.8-2.5-1.3l1.3-2.1c0.7,0.5,1.3,0.8,2,1c0.7,0.2,1.4,0.3,2,0.3
		c1.7,0,2.6-0.5,2.6-1.5c0-0.5-0.3-1-0.9-1.3c-0.6-0.3-1.4-0.7-2.4-1.1c-0.7-0.3-1.4-0.6-1.9-0.9c-0.5-0.3-1-0.6-1.3-0.9
		c-0.3-0.3-0.6-0.7-0.7-1.1c-0.1-0.4-0.2-0.9-0.2-1.5c0-0.6,0.1-1.2,0.3-1.7c0.2-0.5,0.6-0.9,1-1.2c0.4-0.3,0.9-0.6,1.5-0.7
		c0.6-0.2,1.2-0.2,1.9-0.2c0.9,0,1.7,0.1,2.6,0.4c0.8,0.3,1.5,0.7,2.2,1.1l-1.2,2.1c-0.6-0.4-1.1-0.7-1.7-0.9
		c-0.6-0.2-1.2-0.3-1.9-0.3c-0.7,0-1.2,0.1-1.5,0.4c-0.3,0.2-0.5,0.5-0.5,0.9c0,0.2,0,0.3,0.1,0.5c0.1,0.2,0.2,0.3,0.4,0.5
		c0.2,0.2,0.5,0.3,0.8,0.5s0.8,0.4,1.3,0.6c0.8,0.3,1.5,0.6,2.1,0.9s1.1,0.6,1.5,0.9c0.4,0.3,0.7,0.8,0.9,1.2
		C240.9,14.4,241,14.9,241,15.6z"/>
	<path id="XMLID_173_" class="st0" d="M267.5,19.4h-2.8l-2.9-12c0-0.2-0.1-0.4-0.1-0.6c-0.1-0.2-0.1-0.5-0.2-0.7
		c-0.1-0.2-0.1-0.5-0.1-0.7s-0.1-0.4-0.1-0.5c0,0.1,0,0.3-0.1,0.5S261,5.8,261,6.1c-0.1,0.2-0.1,0.5-0.2,0.7
		c-0.1,0.2-0.1,0.4-0.1,0.6l-3,12h-2.8l-3.8-18.7h2.8l2.2,11.8c0,0.1,0,0.3,0.1,0.5c0,0.2,0.1,0.4,0.1,0.7c0,0.2,0.1,0.5,0.1,0.7
		s0.1,0.4,0.1,0.6c0-0.2,0-0.3,0.1-0.6c0-0.2,0.1-0.4,0.1-0.7c0.1-0.2,0.1-0.5,0.1-0.7s0.1-0.4,0.1-0.5l3-11.8h2.4l3,12.1
		c0.1,0.2,0.2,0.6,0.2,1c0.1,0.4,0.2,0.8,0.2,1.1c0.1-0.4,0.1-0.8,0.2-1.2c0.1-0.4,0.1-0.8,0.2-1l2.3-12h2.7L267.5,19.4z"/>
	<path id="XMLID_170_" class="st0" d="M284.8,12.2c0,0.2,0,0.5,0,0.7c0,0.2,0,0.4-0.1,0.5h-9.2c0.1,0.7,0.2,1.3,0.4,1.7
		c0.2,0.5,0.5,0.9,0.8,1.2c0.3,0.3,0.7,0.5,1.1,0.7c0.4,0.2,0.8,0.2,1.2,0.2c0.6,0,1.1-0.1,1.6-0.3c0.5-0.2,1-0.5,1.4-0.8l1.6,1.8
		c-0.6,0.6-1.3,1-2.1,1.4c-0.8,0.3-1.7,0.5-2.7,0.5c-0.8,0-1.6-0.2-2.3-0.5c-0.7-0.3-1.4-0.8-1.9-1.4c-0.6-0.6-1-1.4-1.3-2.3
		s-0.5-1.9-0.5-3.1c0-1.2,0.2-2.2,0.5-3.1s0.7-1.7,1.3-2.3c0.5-0.6,1.2-1.1,1.9-1.4c0.8-0.3,1.6-0.5,2.5-0.5c1,0,1.9,0.2,2.6,0.6
		s1.4,0.9,1.8,1.5c0.5,0.6,0.9,1.4,1.1,2.2C284.7,10.3,284.8,11.2,284.8,12.2z M282,11.1c0-0.5-0.1-0.9-0.3-1.4
		c-0.1-0.4-0.3-0.8-0.6-1.1c-0.3-0.3-0.6-0.6-1-0.8c-0.4-0.2-0.9-0.3-1.5-0.3c-0.9,0-1.7,0.3-2.2,0.9c-0.5,0.6-0.9,1.5-1,2.6H282z"
		/>
	<path id="XMLID_168_" class="st0" d="M295.8,8.3c-0.3-0.2-0.6-0.3-0.9-0.4s-0.7-0.1-1.2-0.1c-0.9,0-1.5,0.3-2,0.9
		c-0.5,0.6-0.7,1.5-0.7,2.7v8h-2.7v-14h2.7v1.3c0.3-0.5,0.8-0.8,1.3-1.2s1.2-0.5,1.9-0.5c0.6,0,1,0,1.4,0.1c0.4,0.1,0.7,0.2,1,0.4
		L295.8,8.3z"/>
	<path id="XMLID_165_" class="st0" d="M310,12.2c0,0.2,0,0.5,0,0.7c0,0.2,0,0.4-0.1,0.5h-9.2c0.1,0.7,0.2,1.3,0.4,1.7
		c0.2,0.5,0.5,0.9,0.8,1.2c0.3,0.3,0.7,0.5,1.1,0.7c0.4,0.2,0.8,0.2,1.2,0.2c0.6,0,1.1-0.1,1.6-0.3c0.5-0.2,1-0.5,1.4-0.8l1.6,1.8
		c-0.6,0.6-1.3,1-2.1,1.4c-0.8,0.3-1.7,0.5-2.7,0.5c-0.8,0-1.6-0.2-2.3-0.5c-0.7-0.3-1.4-0.8-1.9-1.4c-0.6-0.6-1-1.4-1.3-2.3
		s-0.5-1.9-0.5-3.1c0-1.2,0.2-2.2,0.5-3.1s0.7-1.7,1.3-2.3c0.5-0.6,1.2-1.1,1.9-1.4c0.8-0.3,1.6-0.5,2.5-0.5c1,0,1.9,0.2,2.6,0.6
		s1.4,0.9,1.8,1.5c0.5,0.6,0.9,1.4,1.1,2.2C309.9,10.3,310,11.2,310,12.2z M307.3,11.1c0-0.5-0.1-0.9-0.3-1.4
		c-0.1-0.4-0.3-0.8-0.6-1.1c-0.3-0.3-0.6-0.6-1-0.8c-0.4-0.2-0.9-0.3-1.5-0.3c-0.9,0-1.7,0.3-2.2,0.9c-0.5,0.6-0.9,1.5-1,2.6H307.3z
		"/>
	<path id="XMLID_163_" class="st1" d="M327.3,19.1c-0.3,0.2-0.7,0.4-1.2,0.5c-0.5,0.1-1,0.2-1.5,0.2c-1,0-1.7-0.3-2.3-0.9
		c-0.6-0.6-0.8-1.5-0.8-2.8V7.9h-2V5.4h2v-4l2.7-1.4v5.4h3.5v2.5h-3.5v7.6c0,0.7,0.1,1.1,0.3,1.3c0.2,0.2,0.6,0.3,1.1,0.3
		c0.4,0,0.7-0.1,1.1-0.2s0.7-0.2,0.9-0.4L327.3,19.1z"/>
	<path id="XMLID_161_" class="st1" d="M339,8.3c-0.3-0.2-0.6-0.3-0.9-0.4s-0.7-0.1-1.2-0.1c-0.9,0-1.5,0.3-2,0.9
		c-0.5,0.6-0.7,1.5-0.7,2.7v8h-2.7v-14h2.7v1.3c0.3-0.5,0.8-0.8,1.3-1.2s1.2-0.5,1.9-0.5c0.6,0,1,0,1.4,0.1c0.4,0.1,0.7,0.2,1,0.4
		L339,8.3z"/>
	<path id="XMLID_158_" class="st1" d="M349.6,19.4V18c-0.5,0.5-1,0.9-1.7,1.2s-1.4,0.5-2.1,0.5c-0.6,0-1.1-0.1-1.7-0.3
		c-0.6-0.2-1.1-0.4-1.6-0.8s-0.8-0.9-1.1-1.5c-0.3-0.6-0.4-1.3-0.4-2.2c0-0.8,0.1-1.5,0.4-2s0.7-1,1.2-1.4c0.5-0.4,1.1-0.6,1.8-0.8
		s1.4-0.3,2.2-0.3c1.3,0,2.3,0.2,3.1,0.5v-1c0-0.8-0.2-1.3-0.7-1.8c-0.5-0.4-1.1-0.6-2-0.6c-0.7,0-1.4,0.1-2,0.2
		c-0.6,0.1-1.1,0.4-1.7,0.7l-1.1-2.1c0.7-0.4,1.4-0.7,2.2-0.9s1.6-0.3,2.6-0.3c1.6,0,2.8,0.4,3.8,1.2c1,0.8,1.5,2,1.5,3.5v9.6H349.6
		z M349.6,13.5c-0.4-0.2-0.8-0.3-1.3-0.5s-1.1-0.2-1.9-0.2c-0.9,0-1.6,0.2-2.1,0.6c-0.5,0.4-0.8,0.9-0.8,1.5c0,0.7,0.2,1.3,0.7,1.7
		c0.4,0.4,1.1,0.6,2,0.6c0.7,0,1.4-0.2,2-0.6c0.6-0.4,1.1-0.8,1.4-1.2V13.5z"/>
	<path id="XMLID_156_" class="st1" d="M364.7,19.4v-7.9c0-1.4-0.3-2.4-0.8-3c-0.5-0.6-1.2-0.9-2.1-0.9c-0.9,0-1.6,0.3-2.1,0.9
		c-0.5,0.6-0.7,1.5-0.7,2.6v8.2h-2.7v-14h2.7v1.3c0.4-0.5,0.8-0.9,1.5-1.2c0.6-0.3,1.3-0.4,2-0.4c1.6,0,2.9,0.5,3.7,1.6
		c0.8,1,1.3,2.6,1.3,4.7v8H364.7z"/>
	<path id="XMLID_154_" class="st1" d="M381.2,15.6c0,0.8-0.1,1.4-0.4,2c-0.3,0.5-0.7,0.9-1.2,1.3c-0.5,0.3-1,0.6-1.7,0.7
		c-0.6,0.1-1.3,0.2-2,0.2c-1,0-1.9-0.2-2.9-0.5c-1-0.3-1.8-0.8-2.5-1.3l1.3-2.1c0.7,0.5,1.3,0.8,2,1c0.7,0.2,1.4,0.3,2,0.3
		c1.7,0,2.6-0.5,2.6-1.5c0-0.5-0.3-1-0.9-1.3c-0.6-0.3-1.4-0.7-2.4-1.1c-0.7-0.3-1.4-0.6-1.9-0.9c-0.5-0.3-1-0.6-1.3-0.9
		c-0.3-0.3-0.6-0.7-0.7-1.1c-0.1-0.4-0.2-0.9-0.2-1.5c0-0.6,0.1-1.2,0.3-1.7c0.2-0.5,0.6-0.9,1-1.2c0.4-0.3,0.9-0.6,1.5-0.7
		c0.6-0.2,1.2-0.2,1.9-0.2c0.9,0,1.7,0.1,2.6,0.4c0.8,0.3,1.5,0.7,2.2,1.1l-1.2,2.1c-0.6-0.4-1.1-0.7-1.7-0.9
		c-0.6-0.2-1.2-0.3-1.9-0.3c-0.7,0-1.2,0.1-1.5,0.4c-0.3,0.2-0.5,0.5-0.5,0.9c0,0.2,0,0.3,0.1,0.5c0.1,0.2,0.2,0.3,0.4,0.5
		c0.2,0.2,0.5,0.3,0.8,0.5s0.8,0.4,1.3,0.6c0.8,0.3,1.5,0.6,2.1,0.9s1.1,0.6,1.5,0.9c0.4,0.3,0.7,0.8,0.9,1.2
		C381.1,14.4,381.2,14.9,381.2,15.6z"/>
	<path id="XMLID_151_" class="st1" d="M388,1.9c0,0.5-0.2,0.9-0.5,1.2c-0.3,0.3-0.8,0.5-1.2,0.5c-0.5,0-0.9-0.2-1.3-0.5
		s-0.5-0.8-0.5-1.2c0-0.5,0.2-0.9,0.5-1.3s0.8-0.5,1.3-0.5c0.5,0,0.9,0.2,1.2,0.5C387.8,0.9,388,1.4,388,1.9z M384.9,19.4v-14h2.7
		v14H384.9z"/>
	<path id="XMLID_148_" class="st1" d="M403.1,12.2c0,0.2,0,0.5,0,0.7c0,0.2,0,0.4-0.1,0.5h-9.2c0.1,0.7,0.2,1.3,0.4,1.7
		c0.2,0.5,0.5,0.9,0.8,1.2c0.3,0.3,0.7,0.5,1.1,0.7c0.4,0.2,0.8,0.2,1.2,0.2c0.6,0,1.1-0.1,1.6-0.3c0.5-0.2,1-0.5,1.4-0.8l1.6,1.8
		c-0.6,0.6-1.3,1-2.1,1.4c-0.8,0.3-1.7,0.5-2.7,0.5c-0.8,0-1.6-0.2-2.3-0.5c-0.7-0.3-1.4-0.8-1.9-1.4c-0.6-0.6-1-1.4-1.3-2.3
		s-0.5-1.9-0.5-3.1c0-1.2,0.2-2.2,0.5-3.1s0.7-1.7,1.3-2.3c0.5-0.6,1.2-1.1,1.9-1.4c0.8-0.3,1.6-0.5,2.5-0.5c1,0,1.9,0.2,2.6,0.6
		s1.4,0.9,1.8,1.5c0.5,0.6,0.9,1.4,1.1,2.2C403,10.3,403.1,11.2,403.1,12.2z M400.4,11.1c0-0.5-0.1-0.9-0.3-1.4
		c-0.1-0.4-0.3-0.8-0.6-1.1c-0.3-0.3-0.6-0.6-1-0.8c-0.4-0.2-0.9-0.3-1.5-0.3c-0.9,0-1.7,0.3-2.2,0.9c-0.5,0.6-0.9,1.5-1,2.6H400.4z
		"/>
	<path id="XMLID_146_" class="st1" d="M415,19.4v-7.9c0-1.4-0.3-2.4-0.8-3c-0.5-0.6-1.2-0.9-2.1-0.9c-0.9,0-1.6,0.3-2.1,0.9
		c-0.5,0.6-0.7,1.5-0.7,2.6v8.2h-2.7v-14h2.7v1.3c0.4-0.5,0.8-0.9,1.5-1.2c0.6-0.3,1.3-0.4,2-0.4c1.6,0,2.9,0.5,3.7,1.6
		c0.8,1,1.3,2.6,1.3,4.7v8H415z"/>
	<path id="XMLID_144_" class="st1" d="M428.3,19.1c-0.3,0.2-0.7,0.4-1.2,0.5c-0.5,0.1-1,0.2-1.5,0.2c-1,0-1.7-0.3-2.3-0.9
		c-0.6-0.6-0.8-1.5-0.8-2.8V7.9h-2V5.4h2v-4l2.7-1.4v5.4h3.5v2.5h-3.5v7.6c0,0.7,0.1,1.1,0.3,1.3c0.2,0.2,0.6,0.3,1.1,0.3
		c0.4,0,0.7-0.1,1.1-0.2s0.7-0.2,0.9-0.4L428.3,19.1z"/>
	<path id="XMLID_141_" class="st0" d="M447.6,19.4V18c-0.5,0.5-1,0.9-1.7,1.2s-1.4,0.5-2.1,0.5c-0.6,0-1.1-0.1-1.7-0.3
		c-0.6-0.2-1.1-0.4-1.6-0.8s-0.8-0.9-1.1-1.5c-0.3-0.6-0.4-1.3-0.4-2.2c0-0.8,0.1-1.5,0.4-2s0.7-1,1.2-1.4c0.5-0.4,1.1-0.6,1.8-0.8
		s1.4-0.3,2.2-0.3c1.3,0,2.3,0.2,3.1,0.5v-1c0-0.8-0.2-1.3-0.7-1.8c-0.5-0.4-1.1-0.6-2-0.6c-0.7,0-1.4,0.1-2,0.2
		c-0.6,0.1-1.1,0.4-1.7,0.7l-1.1-2.1c0.7-0.4,1.4-0.7,2.2-0.9s1.6-0.3,2.6-0.3c1.6,0,2.8,0.4,3.8,1.2c1,0.8,1.5,2,1.5,3.5v9.6H447.6
		z M447.6,13.5c-0.4-0.2-0.8-0.3-1.3-0.5s-1.1-0.2-1.9-0.2c-0.9,0-1.6,0.2-2.1,0.6c-0.5,0.4-0.8,0.9-0.8,1.5c0,0.7,0.2,1.3,0.7,1.7
		c0.4,0.4,1.1,0.6,2,0.6c0.7,0,1.4-0.2,2-0.6c0.6-0.4,1.1-0.8,1.4-1.2V13.5z"/>
	<path id="XMLID_139_" class="st0" d="M462.7,19.4v-7.9c0-1.4-0.3-2.4-0.8-3c-0.5-0.6-1.2-0.9-2.1-0.9c-0.9,0-1.6,0.3-2.1,0.9
		c-0.5,0.6-0.7,1.5-0.7,2.6v8.2h-2.7v-14h2.7v1.3c0.4-0.5,0.8-0.9,1.5-1.2c0.6-0.3,1.3-0.4,2-0.4c1.6,0,2.9,0.5,3.7,1.6
		c0.8,1,1.3,2.6,1.3,4.7v8H462.7z"/>
	<path id="XMLID_136_" class="st0" d="M477.8,19.4v-1.3c-0.5,0.5-1.1,0.9-1.7,1.2c-0.6,0.3-1.3,0.5-2,0.5s-1.4-0.1-2.1-0.4
		c-0.7-0.3-1.2-0.7-1.7-1.3c-0.5-0.6-0.9-1.4-1.1-2.3s-0.4-2.1-0.4-3.4c0-1.2,0.2-2.2,0.5-3.1c0.3-0.9,0.7-1.6,1.2-2.2
		s1.1-1,1.8-1.3s1.4-0.4,2.1-0.4c0.7,0,1.4,0.2,2,0.5c0.6,0.3,1.1,0.7,1.5,1.1V1.4l2.7-1.4v19.4H477.8z M477.8,9.5
		c-0.2-0.2-0.4-0.4-0.6-0.6c-0.2-0.2-0.5-0.4-0.8-0.6s-0.6-0.3-0.9-0.4c-0.3-0.1-0.7-0.2-1-0.2c-1,0-1.8,0.4-2.3,1.1
		c-0.5,0.7-0.8,1.8-0.8,3.3c0,1.8,0.3,3,0.8,3.8c0.5,0.8,1.3,1.2,2.3,1.2c0.7,0,1.3-0.2,1.8-0.5c0.6-0.4,1-0.8,1.4-1.2V9.5z"/>
	<path id="XMLID_134_" class="st0" d="M508,19.4v-7.9c0-1.4-0.2-2.4-0.7-3c-0.4-0.6-1.1-0.9-2-0.9c-0.9,0-1.6,0.3-2,0.9
		c-0.4,0.6-0.7,1.5-0.7,2.6v8.2h-2.7v-7.9c0-1.4-0.2-2.4-0.7-3c-0.4-0.6-1.1-0.9-2-0.9c-0.9,0-1.6,0.3-2,0.9
		c-0.4,0.6-0.7,1.5-0.7,2.6v8.2h-2.7v-14h2.7v1.3c0.4-0.5,0.8-0.9,1.4-1.2c0.6-0.3,1.2-0.4,1.9-0.4c1,0,1.7,0.2,2.4,0.5
		c0.6,0.4,1.1,0.9,1.5,1.5c0.2-0.3,0.5-0.6,0.8-0.9c0.3-0.3,0.6-0.5,0.9-0.6c0.3-0.2,0.7-0.3,1.1-0.4c0.4-0.1,0.9-0.1,1.5-0.1
		c1.6,0,2.8,0.5,3.6,1.6c0.8,1,1.2,2.6,1.2,4.7v8H508z"/>
	<path id="XMLID_131_" class="st0" d="M526.5,12.4c0,1.2-0.2,2.2-0.5,3.1s-0.8,1.7-1.3,2.3c-0.6,0.6-1.2,1.1-2,1.4
		c-0.8,0.3-1.6,0.5-2.5,0.5c-0.9,0-1.7-0.2-2.4-0.5c-0.7-0.3-1.4-0.8-1.9-1.5c-0.5-0.6-1-1.4-1.3-2.3c-0.3-0.9-0.5-1.9-0.5-3
		c0-1.1,0.2-2.2,0.5-3.1s0.8-1.7,1.3-2.3c0.6-0.6,1.2-1.1,2-1.4c0.8-0.3,1.6-0.5,2.5-0.5s1.7,0.2,2.5,0.5c0.8,0.3,1.4,0.8,2,1.5
		s1,1.4,1.3,2.3C526.3,10.3,526.5,11.3,526.5,12.4z M523.7,12.4c0-1.4-0.3-2.6-0.9-3.4s-1.5-1.3-2.6-1.3c-1.1,0-1.9,0.4-2.5,1.3
		s-0.9,2-0.9,3.3c0,1.5,0.3,2.7,1,3.5c0.6,0.8,1.5,1.2,2.5,1.2c0.5,0,1-0.1,1.4-0.4c0.4-0.2,0.8-0.6,1.1-1s0.5-0.9,0.7-1.5
		C523.7,13.7,523.7,13.1,523.7,12.4z"/>
	<path id="XMLID_129_" class="st0" d="M539.4,15.6c0,0.8-0.1,1.4-0.4,2c-0.3,0.5-0.7,0.9-1.2,1.3c-0.5,0.3-1,0.6-1.7,0.7
		c-0.6,0.1-1.3,0.2-2,0.2c-1,0-1.9-0.2-2.9-0.5c-1-0.3-1.8-0.8-2.5-1.3l1.3-2.1c0.7,0.5,1.3,0.8,2,1c0.7,0.2,1.4,0.3,2,0.3
		c1.7,0,2.6-0.5,2.6-1.5c0-0.5-0.3-1-0.9-1.3c-0.6-0.3-1.4-0.7-2.4-1.1c-0.7-0.3-1.4-0.6-1.9-0.9c-0.5-0.3-1-0.6-1.3-0.9
		c-0.3-0.3-0.6-0.7-0.7-1.1c-0.1-0.4-0.2-0.9-0.2-1.5c0-0.6,0.1-1.2,0.3-1.7c0.2-0.5,0.6-0.9,1-1.2c0.4-0.3,0.9-0.6,1.5-0.7
		c0.6-0.2,1.2-0.2,1.9-0.2c0.9,0,1.7,0.1,2.6,0.4c0.8,0.3,1.5,0.7,2.2,1.1l-1.2,2.1c-0.6-0.4-1.1-0.7-1.7-0.9
		c-0.6-0.2-1.2-0.3-1.9-0.3c-0.7,0-1.2,0.1-1.5,0.4c-0.3,0.2-0.5,0.5-0.5,0.9c0,0.2,0,0.3,0.1,0.5c0.1,0.2,0.2,0.3,0.4,0.5
		c0.2,0.2,0.5,0.3,0.8,0.5s0.8,0.4,1.3,0.6c0.8,0.3,1.5,0.6,2.1,0.9s1.1,0.6,1.5,0.9c0.4,0.3,0.7,0.8,0.9,1.2
		C539.3,14.4,539.4,14.9,539.4,15.6z"/>
	<path id="XMLID_127_" class="st0" d="M549.3,19.1c-0.3,0.2-0.7,0.4-1.2,0.5c-0.5,0.1-1,0.2-1.5,0.2c-1,0-1.7-0.3-2.3-0.9
		c-0.6-0.6-0.8-1.5-0.8-2.8V7.9h-2V5.4h2v-4l2.7-1.4v5.4h3.5v2.5h-3.5v7.6c0,0.7,0.1,1.1,0.3,1.3c0.2,0.2,0.6,0.3,1.1,0.3
		c0.4,0,0.7-0.1,1.1-0.2s0.7-0.2,0.9-0.4L549.3,19.1z"/>
	<path id="XMLID_125_" class="st0" d="M560.7,19.4v-18l2.7-1.4v19.4H560.7z"/>
	<path id="XMLID_122_" class="st0" d="M570.9,1.9c0,0.5-0.2,0.9-0.5,1.2c-0.3,0.3-0.8,0.5-1.2,0.5c-0.5,0-0.9-0.2-1.3-0.5
		s-0.5-0.8-0.5-1.2c0-0.5,0.2-0.9,0.5-1.3s0.8-0.5,1.3-0.5c0.5,0,0.9,0.2,1.2,0.5C570.8,0.9,570.9,1.4,570.9,1.9z M567.8,19.4v-14
		h2.7v14H567.8z"/>
	<path id="XMLID_120_" class="st0" d="M582.7,19.4l-3.1-7l-2.1,2.8v4.1h-2.7v-18l2.7-1.4v8.8c0,0.2,0,0.5,0,0.7c0,0.3,0,0.6,0,0.8
		s0,0.5,0,0.8c0,0.2,0,0.5,0,0.6c0.2-0.3,0.4-0.7,0.7-1.1c0.3-0.5,0.6-0.8,0.8-1.2l2.9-4.1h3.1l-3.5,4.7l4.2,9.3H582.7z"/>
	<path id="XMLID_117_" class="st0" d="M599.5,12.2c0,0.2,0,0.5,0,0.7c0,0.2,0,0.4-0.1,0.5h-9.2c0.1,0.7,0.2,1.3,0.4,1.7
		c0.2,0.5,0.5,0.9,0.8,1.2c0.3,0.3,0.7,0.5,1.1,0.7c0.4,0.2,0.8,0.2,1.2,0.2c0.6,0,1.1-0.1,1.6-0.3c0.5-0.2,1-0.5,1.4-0.8l1.6,1.8
		c-0.6,0.6-1.3,1-2.1,1.4c-0.8,0.3-1.7,0.5-2.7,0.5c-0.8,0-1.6-0.2-2.3-0.5c-0.7-0.3-1.4-0.8-1.9-1.4c-0.6-0.6-1-1.4-1.3-2.3
		s-0.5-1.9-0.5-3.1c0-1.2,0.2-2.2,0.5-3.1s0.7-1.7,1.3-2.3c0.5-0.6,1.2-1.1,1.9-1.4c0.8-0.3,1.6-0.5,2.5-0.5c1,0,1.9,0.2,2.6,0.6
		s1.4,0.9,1.8,1.5c0.5,0.6,0.9,1.4,1.1,2.2C599.4,10.3,599.5,11.2,599.5,12.2z M596.7,11.1c0-0.5-0.1-0.9-0.3-1.4
		c-0.1-0.4-0.3-0.8-0.6-1.1c-0.3-0.3-0.6-0.6-1-0.8c-0.4-0.2-0.9-0.3-1.5-0.3c-0.9,0-1.7,0.3-2.2,0.9c-0.5,0.6-0.9,1.5-1,2.6H596.7z
		"/>
	<path id="XMLID_115_" class="st0" d="M603,19.4v-18l2.7-1.4v19.4H603z"/>
	<path id="XMLID_113_" class="st0" d="M614.8,24.4h-2.9l2-5.2l-5.1-13.7h3l2.3,6.8c0.1,0.3,0.2,0.6,0.3,1c0.1,0.4,0.2,0.8,0.4,1.2
		c0.1,0.4,0.2,0.8,0.3,1.1c0.1,0.3,0.2,0.6,0.2,0.8c0.1-0.2,0.1-0.5,0.2-0.8s0.2-0.7,0.3-1.1c0.1-0.4,0.2-0.8,0.4-1.1
		c0.1-0.4,0.2-0.7,0.3-1l2.4-6.9h2.9L614.8,24.4z"/>
	<path id="XMLID_111_" class="st0" d="M639.6,8.3c-0.3-0.2-0.6-0.3-0.9-0.4s-0.7-0.1-1.2-0.1c-0.9,0-1.5,0.3-2,0.9
		c-0.5,0.6-0.7,1.5-0.7,2.7v8H632v-14h2.7v1.3c0.3-0.5,0.8-0.8,1.3-1.2s1.2-0.5,1.9-0.5c0.6,0,1,0,1.4,0.1c0.4,0.1,0.7,0.2,1,0.4
		L639.6,8.3z"/>
	<path id="XMLID_108_" class="st0" d="M653.8,12.2c0,0.2,0,0.5,0,0.7c0,0.2,0,0.4-0.1,0.5h-9.2c0.1,0.7,0.2,1.3,0.4,1.7
		c0.2,0.5,0.5,0.9,0.8,1.2c0.3,0.3,0.7,0.5,1.1,0.7c0.4,0.2,0.8,0.2,1.2,0.2c0.6,0,1.1-0.1,1.6-0.3c0.5-0.2,1-0.5,1.4-0.8l1.6,1.8
		c-0.6,0.6-1.3,1-2.1,1.4c-0.8,0.3-1.7,0.5-2.7,0.5c-0.8,0-1.6-0.2-2.3-0.5c-0.7-0.3-1.4-0.8-1.9-1.4c-0.6-0.6-1-1.4-1.3-2.3
		s-0.5-1.9-0.5-3.1c0-1.2,0.2-2.2,0.5-3.1s0.7-1.7,1.3-2.3c0.5-0.6,1.2-1.1,1.9-1.4c0.8-0.3,1.6-0.5,2.5-0.5c1,0,1.9,0.2,2.6,0.6
		s1.4,0.9,1.8,1.5c0.5,0.6,0.9,1.4,1.1,2.2C653.7,10.3,653.8,11.2,653.8,12.2z M651,11.1c0-0.5-0.1-0.9-0.3-1.4
		c-0.1-0.4-0.3-0.8-0.6-1.1c-0.3-0.3-0.6-0.6-1-0.8c-0.4-0.2-0.9-0.3-1.5-0.3c-0.9,0-1.7,0.3-2.2,0.9c-0.5,0.6-0.9,1.5-1,2.6H651z"
		/>
	<path id="XMLID_106_" class="st0" d="M657.3,19.4v-18l2.7-1.4v19.4H657.3z"/>
	<path id="XMLID_103_" class="st0" d="M672.3,19.4V18c-0.5,0.5-1,0.9-1.7,1.2s-1.4,0.5-2.1,0.5c-0.6,0-1.1-0.1-1.7-0.3
		c-0.6-0.2-1.1-0.4-1.6-0.8s-0.8-0.9-1.1-1.5c-0.3-0.6-0.4-1.3-0.4-2.2c0-0.8,0.1-1.5,0.4-2s0.7-1,1.2-1.4c0.5-0.4,1.1-0.6,1.8-0.8
		s1.4-0.3,2.2-0.3c1.3,0,2.3,0.2,3.1,0.5v-1c0-0.8-0.2-1.3-0.7-1.8c-0.5-0.4-1.1-0.6-2-0.6c-0.7,0-1.4,0.1-2,0.2
		c-0.6,0.1-1.1,0.4-1.7,0.7l-1.1-2.1c0.7-0.4,1.4-0.7,2.2-0.9s1.6-0.3,2.6-0.3c1.6,0,2.8,0.4,3.8,1.2c1,0.8,1.5,2,1.5,3.5v9.6H672.3
		z M672.3,13.5c-0.4-0.2-0.8-0.3-1.3-0.5s-1.1-0.2-1.9-0.2c-0.9,0-1.6,0.2-2.1,0.6c-0.5,0.4-0.8,0.9-0.8,1.5c0,0.7,0.2,1.3,0.7,1.7
		c0.4,0.4,1.1,0.6,2,0.6c0.7,0,1.4-0.2,2-0.6c0.6-0.4,1.1-0.8,1.4-1.2V13.5z"/>
	<path id="XMLID_101_" class="st0" d="M685.6,19.1c-0.3,0.2-0.7,0.4-1.2,0.5c-0.5,0.1-1,0.2-1.5,0.2c-1,0-1.7-0.3-2.3-0.9
		c-0.6-0.6-0.8-1.5-0.8-2.8V7.9h-2V5.4h2v-4l2.7-1.4v5.4h3.5v2.5h-3.5v7.6c0,0.7,0.1,1.1,0.3,1.3c0.2,0.2,0.6,0.3,1.1,0.3
		c0.4,0,0.7-0.1,1.1-0.2s0.7-0.2,0.9-0.4L685.6,19.1z"/>
	<path id="XMLID_98_" class="st0" d="M700.5,12.2c0,0.2,0,0.5,0,0.7c0,0.2,0,0.4-0.1,0.5h-9.2c0.1,0.7,0.2,1.3,0.4,1.7
		c0.2,0.5,0.5,0.9,0.8,1.2c0.3,0.3,0.7,0.5,1.1,0.7c0.4,0.2,0.8,0.2,1.2,0.2c0.6,0,1.1-0.1,1.6-0.3c0.5-0.2,1-0.5,1.4-0.8l1.6,1.8
		c-0.6,0.6-1.3,1-2.1,1.4c-0.8,0.3-1.7,0.5-2.7,0.5c-0.8,0-1.6-0.2-2.3-0.5c-0.7-0.3-1.4-0.8-1.9-1.4c-0.6-0.6-1-1.4-1.3-2.3
		s-0.5-1.9-0.5-3.1c0-1.2,0.2-2.2,0.5-3.1s0.7-1.7,1.3-2.3c0.5-0.6,1.2-1.1,1.9-1.4c0.8-0.3,1.6-0.5,2.5-0.5c1,0,1.9,0.2,2.6,0.6
		s1.4,0.9,1.8,1.5c0.5,0.6,0.9,1.4,1.1,2.2C700.3,10.3,700.5,11.2,700.5,12.2z M697.7,11.1c0-0.5-0.1-0.9-0.3-1.4
		c-0.1-0.4-0.3-0.8-0.6-1.1c-0.3-0.3-0.6-0.6-1-0.8c-0.4-0.2-0.9-0.3-1.5-0.3c-0.9,0-1.7,0.3-2.2,0.9c-0.5,0.6-0.9,1.5-1,2.6H697.7z
		"/>
	<path id="XMLID_95_" class="st0" d="M712.3,19.4v-1.3c-0.5,0.5-1.1,0.9-1.7,1.2c-0.6,0.3-1.3,0.5-2,0.5s-1.4-0.1-2.1-0.4
		c-0.7-0.3-1.2-0.7-1.7-1.3c-0.5-0.6-0.9-1.4-1.1-2.3s-0.4-2.1-0.4-3.4c0-1.2,0.2-2.2,0.5-3.1c0.3-0.9,0.7-1.6,1.2-2.2
		s1.1-1,1.8-1.3s1.4-0.4,2.1-0.4c0.7,0,1.4,0.2,2,0.5c0.6,0.3,1.1,0.7,1.5,1.1V1.4l2.7-1.4v19.4H712.3z M712.3,9.5
		c-0.2-0.2-0.4-0.4-0.6-0.6c-0.2-0.2-0.5-0.4-0.8-0.6s-0.6-0.3-0.9-0.4c-0.3-0.1-0.7-0.2-1-0.2c-1,0-1.8,0.4-2.3,1.1
		c-0.5,0.7-0.8,1.8-0.8,3.3c0,1.8,0.3,3,0.8,3.8c0.5,0.8,1.3,1.2,2.3,1.2c0.7,0,1.3-0.2,1.8-0.5c0.6-0.4,1-0.8,1.4-1.2V9.5z"/>
	<path id="XMLID_93_" class="st0" d="M733,19.1c-0.3,0.2-0.7,0.4-1.2,0.5c-0.5,0.1-1,0.2-1.5,0.2c-1,0-1.7-0.3-2.3-0.9
		c-0.6-0.6-0.8-1.5-0.8-2.8V7.9h-2V5.4h2v-4l2.7-1.4v5.4h3.5v2.5h-3.5v7.6c0,0.7,0.1,1.1,0.3,1.3c0.2,0.2,0.6,0.3,1.1,0.3
		c0.4,0,0.7-0.1,1.1-0.2s0.7-0.2,0.9-0.4L733,19.1z"/>
	<path id="XMLID_90_" class="st0" d="M748.3,12.4c0,1.2-0.2,2.2-0.5,3.1s-0.8,1.7-1.3,2.3c-0.6,0.6-1.2,1.1-2,1.4
		c-0.8,0.3-1.6,0.5-2.5,0.5c-0.9,0-1.7-0.2-2.4-0.5c-0.7-0.3-1.4-0.8-1.9-1.5c-0.5-0.6-1-1.4-1.3-2.3c-0.3-0.9-0.5-1.9-0.5-3
		c0-1.1,0.2-2.2,0.5-3.1s0.8-1.7,1.3-2.3c0.6-0.6,1.2-1.1,2-1.4c0.8-0.3,1.6-0.5,2.5-0.5s1.7,0.2,2.5,0.5c0.8,0.3,1.4,0.8,2,1.5
		s1,1.4,1.3,2.3C748.1,10.3,748.3,11.3,748.3,12.4z M745.5,12.4c0-1.4-0.3-2.6-0.9-3.4s-1.5-1.3-2.6-1.3c-1.1,0-1.9,0.4-2.5,1.3
		s-0.9,2-0.9,3.3c0,1.5,0.3,2.7,1,3.5c0.6,0.8,1.5,1.2,2.5,1.2c0.5,0,1-0.1,1.4-0.4c0.4-0.2,0.8-0.6,1.1-1s0.5-0.9,0.7-1.5
		C745.4,13.7,745.5,13.1,745.5,12.4z"/>
	<path id="XMLID_87_" class="st0" d="M755.1,7.3c0,0.6-0.2,1.1-0.6,1.5c-0.4,0.4-0.9,0.6-1.5,0.6c-0.6,0-1.1-0.2-1.5-0.6
		c-0.4-0.4-0.6-0.9-0.6-1.5c0-0.3,0.1-0.6,0.2-0.8c0.1-0.3,0.3-0.5,0.5-0.7c0.2-0.2,0.4-0.4,0.7-0.5c0.3-0.1,0.5-0.2,0.8-0.2
		c0.3,0,0.6,0.1,0.8,0.2c0.3,0.1,0.5,0.3,0.7,0.5c0.2,0.2,0.3,0.4,0.5,0.7C755.1,6.7,755.1,7,755.1,7.3z M755.1,17.6
		c0,0.6-0.2,1.1-0.6,1.5c-0.4,0.4-0.9,0.6-1.5,0.6c-0.6,0-1.1-0.2-1.5-0.6c-0.4-0.4-0.6-0.9-0.6-1.5c0-0.3,0.1-0.6,0.2-0.8
		c0.1-0.3,0.3-0.5,0.5-0.7c0.2-0.2,0.4-0.4,0.7-0.5c0.3-0.1,0.5-0.2,0.8-0.2c0.3,0,0.6,0.1,0.8,0.2c0.3,0.1,0.5,0.3,0.7,0.5
		c0.2,0.2,0.3,0.4,0.5,0.7C755.1,17.1,755.1,17.3,755.1,17.6z"/>
</g>
<g id="XMLID_84_">
	<linearGradient id="XMLID_213_" gradientUnits="userSpaceOnUse" x1="30.3687" y1="65.8934" x2="709.7559" y2="65.8934">
		<stop  offset="0" style="stop-color:#4B257A"/>
		<stop  offset="1" style="stop-color:#964C8E"/>
	</linearGradient>
	<rect id="XMLID_85_" x="30.4" y="41.5" class="st2" width="679.4" height="48.9"/>
</g>
<g id="XMLID_1_">
	<path id="XMLID_81_" class="st3" d="M74,77.4l-4.7-9.4H64v9.4h-5.2V51.1H71c1.2,0,2.4,0.2,3.5,0.5s2.1,0.9,2.9,1.6
		c0.8,0.7,1.5,1.6,1.9,2.6c0.5,1,0.7,2.3,0.7,3.7c0,2-0.4,3.6-1.3,4.8c-0.8,1.3-2.1,2.2-3.8,2.9l5,10.2H74z M74.6,59.6
		c0-1.2-0.3-2.1-1-2.6c-0.7-0.5-1.6-0.8-2.8-0.8H64V63h6.9C73.4,63,74.6,61.8,74.6,59.6z"/>
	<path id="XMLID_78_" class="st3" d="M94.4,77.4V76c-0.5,0.5-1.1,0.9-1.9,1.2c-0.8,0.3-1.6,0.5-2.5,0.5c-0.9,0-1.8-0.1-2.7-0.4
		c-0.9-0.3-1.7-0.7-2.3-1.3c-0.7-0.6-1.2-1.3-1.7-2.2c-0.4-0.9-0.6-1.9-0.6-3.1c0-1.1,0.2-2,0.6-2.8c0.4-0.8,1-1.5,1.7-2
		c0.7-0.5,1.6-0.9,2.5-1.2c1-0.3,2-0.4,3.1-0.4c0.9,0,1.6,0.1,2.2,0.2c0.6,0.2,1.1,0.3,1.5,0.5v-1c0-0.7-0.2-1.3-0.7-1.8
		c-0.5-0.5-1.2-0.7-2.1-0.7c-0.6,0-1.1,0-1.6,0.1c-0.5,0-0.9,0.1-1.3,0.2s-0.8,0.2-1.2,0.4c-0.4,0.2-0.8,0.4-1.3,0.6l-2-3.6
		c0.6-0.3,1.1-0.6,1.7-0.9c0.5-0.2,1.1-0.5,1.7-0.6c0.6-0.2,1.2-0.3,1.9-0.4c0.6-0.1,1.4-0.1,2.2-0.1c1.2,0,2.3,0.2,3.3,0.5
		c1,0.3,1.8,0.7,2.5,1.3c0.7,0.6,1.2,1.3,1.6,2.2c0.4,0.9,0.6,1.8,0.6,2.9v13.2H94.4z M94.4,69.1c-0.4-0.3-0.9-0.5-1.4-0.6
		c-0.5-0.1-1.2-0.2-2.2-0.2c-1,0-1.7,0.2-2.2,0.6c-0.5,0.4-0.8,1-0.8,1.8c0,0.7,0.2,1.3,0.7,1.8s1.2,0.8,2.3,0.8
		c0.8,0,1.6-0.2,2.2-0.5c0.6-0.4,1.1-0.8,1.4-1.3V69.1z"/>
	<path id="XMLID_75_" class="st3" d="M121.3,67.8c0,1.5-0.2,2.8-0.5,4c-0.3,1.2-0.8,2.3-1.5,3.2c-0.6,0.9-1.4,1.6-2.4,2.1
		c-0.9,0.5-2,0.7-3.3,0.7c-0.9,0-1.7-0.2-2.4-0.4c-0.7-0.3-1.3-0.7-1.8-1.1V82l-5.2,2.6V57.7h5.2v1.2c0.5-0.4,1.1-0.8,1.7-1.1
		c0.7-0.3,1.5-0.5,2.4-0.5c1,0,2,0.2,3,0.6c0.9,0.4,1.7,1,2.4,1.9c0.7,0.9,1.2,2,1.6,3.3C121.1,64.4,121.3,66,121.3,67.8z
		 M116.1,67.9c0-2-0.3-3.5-0.9-4.4c-0.6-0.9-1.4-1.3-2.5-1.3c-0.8,0-1.4,0.2-1.9,0.5c-0.5,0.3-0.9,0.7-1.3,1.2v7.4
		c0.8,1.1,2,1.7,3.5,1.7C115.1,72.9,116.1,71.2,116.1,67.9z"/>
	<path id="XMLID_72_" class="st3" d="M131.2,53.1c0,0.8-0.3,1.5-0.9,2.1c-0.6,0.6-1.3,0.9-2.1,0.9c-0.8,0-1.5-0.3-2.1-0.9
		c-0.6-0.6-0.9-1.3-0.9-2.1s0.3-1.5,0.9-2.1c0.6-0.6,1.3-0.9,2.1-0.9c0.8,0,1.5,0.3,2.1,0.9C130.9,51.6,131.2,52.3,131.2,53.1z
		 M125.6,77.4V57.7h5.2v19.7H125.6z"/>
	<path id="XMLID_69_" class="st3" d="M146.8,77.4v-1.2c-0.5,0.4-1.1,0.8-1.7,1.1c-0.7,0.3-1.5,0.5-2.4,0.5c-1,0-2-0.2-3-0.6
		c-0.9-0.4-1.7-1-2.4-1.9c-0.7-0.9-1.2-1.9-1.6-3.3c-0.4-1.3-0.6-2.9-0.6-4.7c0-1.5,0.2-2.8,0.5-4c0.3-1.2,0.8-2.3,1.5-3.2
		c0.6-0.9,1.4-1.6,2.4-2.1c0.9-0.5,2-0.7,3.3-0.7c0.9,0,1.7,0.2,2.4,0.5c0.7,0.3,1.3,0.7,1.8,1.1v-6.2l5.2-2.6v27.3H146.8z
		 M146.8,63.8c-0.8-1.1-2-1.7-3.5-1.7c-2,0-3.1,1.7-3.1,5c0,2,0.3,3.5,0.9,4.4c0.6,0.9,1.4,1.3,2.5,1.3c0.8,0,1.4-0.2,1.9-0.4
		c0.5-0.3,0.9-0.7,1.3-1.2V63.8z"/>
	<path id="XMLID_67_" class="st3" d="M187,74.6c-1.9,2.1-4.5,3.1-7.8,3.1c-1.6,0-3-0.3-4.3-0.8c-1.3-0.5-2.4-1.3-3.4-2.3
		c-0.9-1-1.6-2.3-2.2-3.7c-0.5-1.5-0.8-3.2-0.8-5.1V51.1h5.2v14.6c0,2.1,0.5,3.8,1.4,5c0.9,1.2,2.3,1.8,3.9,1.8c1.7,0,3-0.6,4-1.8
		c1-1.2,1.4-2.9,1.4-5V51.1h5.2v14.6C189.8,69.6,188.9,72.6,187,74.6z"/>
	<path id="XMLID_64_" class="st3" d="M212.5,67.8c0,1.5-0.2,2.8-0.5,4c-0.3,1.2-0.8,2.3-1.5,3.2c-0.6,0.9-1.4,1.6-2.4,2.1
		c-0.9,0.5-2,0.7-3.3,0.7c-0.9,0-1.7-0.2-2.4-0.4c-0.7-0.3-1.3-0.7-1.8-1.1V82l-5.2,2.6V57.7h5.2v1.2c0.5-0.4,1.1-0.8,1.7-1.1
		c0.7-0.3,1.5-0.5,2.4-0.5c1,0,2,0.2,3,0.6c0.9,0.4,1.7,1,2.4,1.9c0.7,0.9,1.2,2,1.6,3.3C212.3,64.4,212.5,66,212.5,67.8z
		 M207.2,67.9c0-2-0.3-3.5-0.9-4.4c-0.6-0.9-1.4-1.3-2.5-1.3c-0.8,0-1.4,0.2-1.9,0.5c-0.5,0.3-0.9,0.7-1.3,1.2v7.4
		c0.8,1.1,2,1.7,3.5,1.7C206.2,72.9,207.2,71.2,207.2,67.9z"/>
	<path id="XMLID_62_" class="st3" d="M216.3,66.4v-5.2H227v5.2H216.3z"/>
	<path id="XMLID_60_" class="st3" d="M242.7,76.6c-0.4,0.3-1,0.6-1.7,0.9s-1.5,0.3-2.3,0.3c-0.8,0-1.5-0.1-2.2-0.4
		c-0.6-0.3-1.2-0.7-1.6-1.2c-0.4-0.5-0.8-1.1-1-1.9c-0.3-0.7-0.4-1.5-0.4-2.4v-9.3h-3.3v-4.9h3.3v-5.1l5.2-2.6v7.6h4.7v4.9h-4.7v7.9
		c0,0.9,0.2,1.6,0.5,1.9c0.3,0.3,0.8,0.5,1.4,0.5c0.5,0,0.9-0.1,1.3-0.3c0.4-0.2,0.9-0.6,1.6-1.2L242.7,76.6z"/>
	<path id="XMLID_57_" class="st3" d="M254.1,53.1c0,0.8-0.3,1.5-0.9,2.1c-0.6,0.6-1.3,0.9-2.1,0.9c-0.8,0-1.5-0.3-2.1-0.9
		c-0.6-0.6-0.9-1.3-0.9-2.1s0.3-1.5,0.9-2.1c0.6-0.6,1.3-0.9,2.1-0.9c0.8,0,1.5,0.3,2.1,0.9C253.8,51.6,254.1,52.3,254.1,53.1z
		 M248.5,77.4V57.7h5.2v19.7H248.5z"/>
	<path id="XMLID_55_" class="st3" d="M269.9,76.6c-0.4,0.3-1,0.6-1.7,0.9s-1.5,0.3-2.3,0.3c-0.8,0-1.5-0.1-2.2-0.4
		c-0.6-0.3-1.2-0.7-1.6-1.2c-0.4-0.5-0.8-1.1-1-1.9c-0.3-0.7-0.4-1.5-0.4-2.4v-9.3h-3.3v-4.9h3.3v-5.1l5.2-2.6v7.6h4.7v4.9h-4.7v7.9
		c0,0.9,0.2,1.6,0.5,1.9c0.3,0.3,0.8,0.5,1.4,0.5c0.5,0,0.9-0.1,1.3-0.3c0.4-0.2,0.9-0.6,1.6-1.2L269.9,76.6z"/>
	<path id="XMLID_53_" class="st3" d="M286.9,63.7c-0.4-0.4-0.9-0.7-1.4-0.9c-0.5-0.2-1-0.4-1.6-0.4c-0.5,0-1,0.1-1.4,0.2
		c-0.4,0.1-0.8,0.3-1,0.7c-0.3,0.3-0.5,0.8-0.7,1.3c-0.2,0.5-0.2,1.2-0.2,2.1v10.6h-5.2V57.7h5.2V59c0.4-0.5,1-0.9,1.7-1.2
		c0.7-0.3,1.5-0.5,2.4-0.5c0.8,0,1.6,0.1,2.2,0.4c0.6,0.3,1.1,0.6,1.4,1L286.9,63.7z"/>
	<path id="XMLID_50_" class="st3" d="M301.3,77.4V76c-0.5,0.5-1.1,0.9-1.9,1.2c-0.8,0.3-1.6,0.5-2.5,0.5c-0.9,0-1.8-0.1-2.7-0.4
		c-0.9-0.3-1.7-0.7-2.3-1.3c-0.7-0.6-1.2-1.3-1.7-2.2c-0.4-0.9-0.6-1.9-0.6-3.1c0-1.1,0.2-2,0.6-2.8c0.4-0.8,1-1.5,1.7-2
		c0.7-0.5,1.6-0.9,2.5-1.2c1-0.3,2-0.4,3.1-0.4c0.9,0,1.6,0.1,2.2,0.2c0.6,0.2,1.1,0.3,1.5,0.5v-1c0-0.7-0.2-1.3-0.7-1.8
		c-0.5-0.5-1.2-0.7-2.1-0.7c-0.6,0-1.1,0-1.6,0.1c-0.5,0-0.9,0.1-1.3,0.2s-0.8,0.2-1.2,0.4c-0.4,0.2-0.8,0.4-1.3,0.6l-2-3.6
		c0.6-0.3,1.1-0.6,1.7-0.9c0.5-0.2,1.1-0.5,1.7-0.6c0.6-0.2,1.2-0.3,1.9-0.4c0.6-0.1,1.4-0.1,2.2-0.1c1.2,0,2.3,0.2,3.3,0.5
		c1,0.3,1.8,0.7,2.5,1.3c0.7,0.6,1.2,1.3,1.6,2.2c0.4,0.9,0.6,1.8,0.6,2.9v13.2H301.3z M301.3,69.1c-0.4-0.3-0.9-0.5-1.4-0.6
		c-0.5-0.1-1.2-0.2-2.2-0.2c-1,0-1.7,0.2-2.2,0.6c-0.5,0.4-0.8,1-0.8,1.8c0,0.7,0.2,1.3,0.7,1.8s1.2,0.8,2.3,0.8
		c0.8,0,1.6-0.2,2.2-0.5c0.6-0.4,1.1-0.8,1.4-1.3V69.1z"/>
	<path id="XMLID_48_" class="st3" d="M322.3,76.6c-0.4,0.3-1,0.6-1.7,0.9s-1.5,0.3-2.3,0.3c-0.8,0-1.5-0.1-2.2-0.4
		c-0.6-0.3-1.2-0.7-1.6-1.2c-0.4-0.5-0.8-1.1-1-1.9c-0.3-0.7-0.4-1.5-0.4-2.4v-9.3h-3.3v-4.9h3.3v-5.1l5.2-2.6v7.6h4.7v4.9h-4.7v7.9
		c0,0.9,0.2,1.6,0.5,1.9c0.3,0.3,0.8,0.5,1.4,0.5c0.5,0,0.9-0.1,1.3-0.3c0.4-0.2,0.9-0.6,1.6-1.2L322.3,76.6z"/>
	<path id="XMLID_45_" class="st3" d="M333.6,53.1c0,0.8-0.3,1.5-0.9,2.1c-0.6,0.6-1.3,0.9-2.1,0.9c-0.8,0-1.5-0.3-2.1-0.9
		c-0.6-0.6-0.9-1.3-0.9-2.1s0.3-1.5,0.9-2.1c0.6-0.6,1.3-0.9,2.1-0.9c0.8,0,1.5,0.3,2.1,0.9C333.3,51.6,333.6,52.3,333.6,53.1z
		 M328.1,77.4V57.7h5.2v19.7H328.1z"/>
	<path id="XMLID_42_" class="st3" d="M355.2,67.5c0,1.5-0.2,2.9-0.7,4.1s-1.1,2.3-1.9,3.2c-0.8,0.9-1.7,1.6-2.8,2.1
		c-1.1,0.5-2.3,0.7-3.6,0.7c-1.3,0-2.5-0.3-3.5-0.7s-2-1.2-2.8-2.1c-0.8-0.9-1.4-2-1.9-3.2s-0.7-2.6-0.7-4.1s0.2-2.9,0.7-4.1
		s1.1-2.3,1.9-3.3c0.8-0.9,1.7-1.6,2.8-2.1c1.1-0.5,2.3-0.7,3.5-0.7c1.3,0,2.5,0.3,3.6,0.7c1.1,0.5,2,1.2,2.8,2.1
		c0.8,0.9,1.4,2,1.9,3.3S355.2,66.1,355.2,67.5z M350,67.5c0-1.5-0.3-2.8-0.9-3.8c-0.6-1-1.5-1.5-2.8-1.5c-1.2,0-2.2,0.5-2.8,1.5
		c-0.6,1-0.9,2.3-0.9,3.8c0,1.5,0.3,2.8,0.9,3.8c0.6,1,1.5,1.5,2.8,1.5c0.6,0,1.2-0.1,1.6-0.4c0.5-0.3,0.8-0.7,1.1-1.2
		s0.5-1.1,0.7-1.7C349.9,68.9,350,68.2,350,67.5z"/>
	<path id="XMLID_40_" class="st3" d="M371.1,77.4V66.7c0-1.7-0.3-2.9-0.9-3.6c-0.6-0.6-1.4-1-2.5-1c-1.1,0-1.9,0.3-2.5,1
		c-0.6,0.6-0.9,1.8-0.9,3.5v10.7h-5.2V57.7h5.2V59c0.4-0.5,1.1-0.9,1.9-1.2c0.8-0.3,1.7-0.5,2.8-0.5c2.5,0,4.3,0.8,5.5,2.4
		c1.2,1.6,1.8,3.8,1.8,6.6v11.1H371.1z"/>
	<path id="XMLID_37_" class="st3" d="M408.7,67.5c0,1.5-0.2,2.9-0.7,4.1s-1.1,2.3-1.9,3.2c-0.8,0.9-1.7,1.6-2.8,2.1
		c-1.1,0.5-2.3,0.7-3.6,0.7c-1.3,0-2.5-0.3-3.5-0.7s-2-1.2-2.8-2.1c-0.8-0.9-1.4-2-1.9-3.2S391,69,391,67.5s0.2-2.9,0.7-4.1
		s1.1-2.3,1.9-3.3c0.8-0.9,1.7-1.6,2.8-2.1c1.1-0.5,2.3-0.7,3.5-0.7c1.3,0,2.5,0.3,3.6,0.7c1.1,0.5,2,1.2,2.8,2.1
		c0.8,0.9,1.4,2,1.9,3.3S408.7,66.1,408.7,67.5z M403.5,67.5c0-1.5-0.3-2.8-0.9-3.8c-0.6-1-1.5-1.5-2.8-1.5c-1.2,0-2.2,0.5-2.8,1.5
		c-0.6,1-0.9,2.3-0.9,3.8c0,1.5,0.3,2.8,0.9,3.8c0.6,1,1.5,1.5,2.8,1.5c0.6,0,1.2-0.1,1.6-0.4c0.5-0.3,0.8-0.7,1.1-1.2
		s0.5-1.1,0.7-1.7C403.4,68.9,403.5,68.2,403.5,67.5z"/>
	<path id="XMLID_35_" class="st3" d="M421.5,54.6c-0.3-0.1-0.6-0.1-1-0.1c-0.8,0-1.3,0.1-1.5,0.4c-0.2,0.3-0.4,0.6-0.4,1.2v1.6h3.3
		v4.9h-3.3v14.8h-5.2V62.6h-2.4v-4.9h2.4v-2.4c0-1.8,0.5-3.2,1.5-4s2.4-1.2,4.2-1.2c1.3,0,2.4,0.2,3.3,0.6v4.2
		C422.1,54.8,421.8,54.7,421.5,54.6z"/>
	<path id="XMLID_33_" class="st3" d="M437.1,77.4V52.6l5.2-2.6v27.3H437.1z"/>
	<path id="XMLID_30_" class="st3" d="M463.5,67.5c0,0.4,0,0.7,0,1c0,0.3,0,0.5-0.1,0.7h-11.8c0,0.7,0.2,1.2,0.4,1.7
		c0.2,0.5,0.6,0.9,0.9,1.1s0.8,0.5,1.3,0.6c0.5,0.1,0.9,0.2,1.4,0.2c0.7,0,1.4-0.1,1.9-0.4c0.6-0.2,1-0.6,1.4-1l3.7,3.1
		c-0.8,1-1.8,1.8-3.1,2.4c-1.3,0.5-2.6,0.8-3.9,0.8c-1.4,0-2.7-0.2-3.8-0.7c-1.1-0.5-2.1-1.2-2.9-2.1c-0.8-0.9-1.4-2-1.8-3.2
		c-0.4-1.3-0.7-2.7-0.7-4.2c0-1.5,0.2-2.9,0.7-4.1s1.1-2.3,1.9-3.3c0.8-0.9,1.7-1.6,2.8-2.1c1.1-0.5,2.2-0.7,3.5-0.7
		c1.3,0,2.5,0.3,3.5,0.8c1,0.5,1.9,1.3,2.6,2.2c0.7,0.9,1.2,2,1.6,3.3S463.5,66.2,463.5,67.5z M458.5,65.3c-0.1-0.5-0.2-0.9-0.3-1.3
		c-0.2-0.4-0.4-0.8-0.7-1.1c-0.3-0.3-0.6-0.6-1.1-0.8c-0.4-0.2-0.9-0.3-1.5-0.3c-1,0-1.7,0.3-2.3,1c-0.6,0.7-0.9,1.5-1,2.5H458.5z"
		/>
	<path id="XMLID_28_" class="st3" d="M477.5,77.4h-5.3l-7.1-19.7h5.7l2.9,9.1c0.2,0.7,0.5,1.5,0.7,2.4c0.2,0.8,0.4,1.5,0.5,1.9
		c0.1-0.5,0.3-1.1,0.5-1.9c0.2-0.8,0.5-1.6,0.7-2.4l2.9-9.1h5.5L477.5,77.4z"/>
	<path id="XMLID_25_" class="st3" d="M503.4,67.5c0,0.4,0,0.7,0,1c0,0.3,0,0.5-0.1,0.7h-11.8c0,0.7,0.2,1.2,0.4,1.7
		c0.2,0.5,0.6,0.9,0.9,1.1s0.8,0.5,1.3,0.6c0.5,0.1,0.9,0.2,1.4,0.2c0.7,0,1.4-0.1,1.9-0.4c0.6-0.2,1-0.6,1.4-1l3.7,3.1
		c-0.8,1-1.8,1.8-3.1,2.4c-1.3,0.5-2.6,0.8-3.9,0.8c-1.4,0-2.7-0.2-3.8-0.7c-1.1-0.5-2.1-1.2-2.9-2.1c-0.8-0.9-1.4-2-1.8-3.2
		c-0.4-1.3-0.7-2.7-0.7-4.2c0-1.5,0.2-2.9,0.7-4.1s1.1-2.3,1.9-3.3c0.8-0.9,1.7-1.6,2.8-2.1c1.1-0.5,2.2-0.7,3.5-0.7
		c1.3,0,2.5,0.3,3.5,0.8c1,0.5,1.9,1.3,2.6,2.2c0.7,0.9,1.2,2,1.6,3.3S503.4,66.2,503.4,67.5z M498.4,65.3c-0.1-0.5-0.2-0.9-0.3-1.3
		c-0.2-0.4-0.4-0.8-0.7-1.1c-0.3-0.3-0.6-0.6-1.1-0.8c-0.4-0.2-0.9-0.3-1.5-0.3c-1,0-1.7,0.3-2.3,1c-0.6,0.7-0.9,1.5-1,2.5H498.4z"
		/>
	<path id="XMLID_23_" class="st3" d="M518.2,76.6c-0.4,0.3-1,0.6-1.7,0.9s-1.5,0.3-2.3,0.3c-0.8,0-1.5-0.1-2.2-0.4
		c-0.6-0.3-1.2-0.7-1.6-1.2c-0.4-0.5-0.8-1.1-1-1.9c-0.3-0.7-0.4-1.5-0.4-2.4v-9.3h-3.3v-4.9h3.3v-5.1l5.2-2.6v7.6h4.7v4.9h-4.7v7.9
		c0,0.9,0.2,1.6,0.5,1.9c0.3,0.3,0.8,0.5,1.4,0.5c0.5,0,0.9-0.1,1.3-0.3c0.4-0.2,0.9-0.6,1.6-1.2L518.2,76.6z"/>
	<path id="XMLID_19_" class="st3" d="M529.5,53.1c0,0.8-0.3,1.5-0.9,2.1c-0.6,0.6-1.3,0.9-2.1,0.9c-0.8,0-1.5-0.3-2.1-0.9
		c-0.6-0.6-0.9-1.3-0.9-2.1s0.3-1.5,0.9-2.1c0.6-0.6,1.3-0.9,2.1-0.9c0.8,0,1.5,0.3,2.1,0.9C529.2,51.6,529.5,52.3,529.5,53.1z
		 M524,77.4V57.7h5.2v19.7H524z"/>
	<path id="XMLID_17_" class="st3" d="M545.8,63.7c-0.4-0.4-0.9-0.7-1.4-0.9c-0.5-0.2-1-0.4-1.6-0.4c-0.5,0-1,0.1-1.4,0.2
		c-0.4,0.1-0.8,0.3-1,0.7c-0.3,0.3-0.5,0.8-0.7,1.3c-0.2,0.5-0.2,1.2-0.2,2.1v10.6h-5.2V57.7h5.2V59c0.4-0.5,1-0.9,1.7-1.2
		c0.7-0.3,1.5-0.5,2.4-0.5c0.8,0,1.6,0.1,2.2,0.4c0.6,0.3,1.1,0.6,1.4,1L545.8,63.7z"/>
	<path id="XMLID_14_" class="st3" d="M560.3,77.4V76c-0.5,0.5-1.1,0.9-1.9,1.2c-0.8,0.3-1.6,0.5-2.5,0.5c-0.9,0-1.8-0.1-2.7-0.4
		c-0.9-0.3-1.7-0.7-2.3-1.3c-0.7-0.6-1.2-1.3-1.7-2.2c-0.4-0.9-0.6-1.9-0.6-3.1c0-1.1,0.2-2,0.6-2.8c0.4-0.8,1-1.5,1.7-2
		c0.7-0.5,1.6-0.9,2.5-1.2c1-0.3,2-0.4,3.1-0.4c0.9,0,1.6,0.1,2.2,0.2c0.6,0.2,1.1,0.3,1.5,0.5v-1c0-0.7-0.2-1.3-0.7-1.8
		c-0.5-0.5-1.2-0.7-2.1-0.7c-0.6,0-1.1,0-1.6,0.1c-0.5,0-0.9,0.1-1.3,0.2s-0.8,0.2-1.2,0.4c-0.4,0.2-0.8,0.4-1.3,0.6l-2-3.6
		c0.6-0.3,1.1-0.6,1.7-0.9c0.5-0.2,1.1-0.5,1.7-0.6c0.6-0.2,1.2-0.3,1.9-0.4c0.6-0.1,1.4-0.1,2.2-0.1c1.2,0,2.3,0.2,3.3,0.5
		c1,0.3,1.8,0.7,2.5,1.3c0.7,0.6,1.2,1.3,1.6,2.2c0.4,0.9,0.6,1.8,0.6,2.9v13.2H560.3z M560.3,69.1c-0.4-0.3-0.9-0.5-1.4-0.6
		c-0.5-0.1-1.2-0.2-2.2-0.2c-1,0-1.7,0.2-2.2,0.6c-0.5,0.4-0.8,1-0.8,1.8c0,0.7,0.2,1.3,0.7,1.8s1.2,0.8,2.3,0.8
		c0.8,0,1.6-0.2,2.2-0.5c0.6-0.4,1.1-0.8,1.4-1.3V69.1z"/>
	<path id="XMLID_12_" class="st3" d="M585,75.2c-0.5,0.5-1.1,1-1.8,1.4c-0.6,0.4-1.3,0.7-2.1,0.9c-0.8,0.2-1.7,0.3-2.6,0.3
		c-1.3,0-2.5-0.3-3.6-0.7c-1.1-0.5-2.1-1.2-2.9-2.1c-0.8-0.9-1.5-2-2-3.2c-0.5-1.3-0.7-2.6-0.7-4.1s0.2-2.9,0.7-4.1
		c0.5-1.3,1.1-2.3,2-3.3s1.8-1.6,3-2.1c1.1-0.5,2.4-0.7,3.8-0.7c1.9,0,3.4,0.4,4.7,1.2c1.2,0.8,2.3,1.8,3.1,3.1l-3.4,3.4
		c-0.6-0.8-1.2-1.5-1.9-2c-0.7-0.5-1.6-0.8-2.6-0.8c-1.2,0-2.2,0.5-3,1.4c-0.7,1-1.1,2.3-1.1,3.9c0,1.6,0.4,2.9,1.1,3.8
		c0.7,1,1.7,1.5,3,1.5c1,0,1.9-0.2,2.6-0.7c0.7-0.4,1.4-1.1,2.1-1.9l3.3,3.1C586,74.1,585.5,74.7,585,75.2z"/>
	<path id="XMLID_9_" class="st3" d="M605.9,67.5c0,0.4,0,0.7,0,1c0,0.3,0,0.5-0.1,0.7h-11.8c0,0.7,0.2,1.2,0.4,1.7
		c0.2,0.5,0.6,0.9,0.9,1.1s0.8,0.5,1.3,0.6c0.5,0.1,0.9,0.2,1.4,0.2c0.7,0,1.4-0.1,1.9-0.4c0.6-0.2,1-0.6,1.4-1l3.7,3.1
		c-0.8,1-1.8,1.8-3.1,2.4c-1.3,0.5-2.6,0.8-3.9,0.8c-1.4,0-2.7-0.2-3.8-0.7c-1.1-0.5-2.1-1.2-2.9-2.1c-0.8-0.9-1.4-2-1.8-3.2
		c-0.4-1.3-0.7-2.7-0.7-4.2c0-1.5,0.2-2.9,0.7-4.1s1.1-2.3,1.9-3.3c0.8-0.9,1.7-1.6,2.8-2.1c1.1-0.5,2.2-0.7,3.5-0.7
		c1.3,0,2.5,0.3,3.5,0.8c1,0.5,1.9,1.3,2.6,2.2c0.7,0.9,1.2,2,1.6,3.3S605.9,66.2,605.9,67.5z M600.9,65.3c-0.1-0.5-0.2-0.9-0.3-1.3
		c-0.2-0.4-0.4-0.8-0.7-1.1c-0.3-0.3-0.6-0.6-1.1-0.8c-0.4-0.2-0.9-0.3-1.5-0.3c-1,0-1.7,0.3-2.3,1c-0.6,0.7-0.9,1.5-1,2.5H600.9z"
		/>
	<path id="XMLID_7_" class="st3" d="M620.7,76.6c-0.4,0.3-1,0.6-1.7,0.9s-1.5,0.3-2.3,0.3c-0.8,0-1.5-0.1-2.2-0.4
		c-0.6-0.3-1.2-0.7-1.6-1.2c-0.4-0.5-0.8-1.1-1-1.9c-0.3-0.7-0.4-1.5-0.4-2.4v-9.3h-3.3v-4.9h3.3v-5.1l5.2-2.6v7.6h4.7v4.9h-4.7v7.9
		c0,0.9,0.2,1.6,0.5,1.9c0.3,0.3,0.8,0.5,1.4,0.5c0.5,0,0.9-0.1,1.3-0.3c0.4-0.2,0.9-0.6,1.6-1.2L620.7,76.6z"/>
	<path id="XMLID_4_" class="st3" d="M636.6,77.4V76c-0.5,0.5-1.1,0.9-1.9,1.2c-0.8,0.3-1.6,0.5-2.5,0.5c-0.9,0-1.8-0.1-2.7-0.4
		c-0.9-0.3-1.7-0.7-2.3-1.3c-0.7-0.6-1.2-1.3-1.7-2.2c-0.4-0.9-0.6-1.9-0.6-3.1c0-1.1,0.2-2,0.6-2.8c0.4-0.8,1-1.5,1.7-2
		c0.7-0.5,1.6-0.9,2.5-1.2c1-0.3,2-0.4,3.1-0.4c0.9,0,1.6,0.1,2.2,0.2c0.6,0.2,1.1,0.3,1.5,0.5v-1c0-0.7-0.2-1.3-0.7-1.8
		c-0.5-0.5-1.2-0.7-2.1-0.7c-0.6,0-1.1,0-1.6,0.1c-0.5,0-0.9,0.1-1.3,0.2s-0.8,0.2-1.2,0.4c-0.4,0.2-0.8,0.4-1.3,0.6l-2-3.6
		c0.6-0.3,1.1-0.6,1.7-0.9c0.5-0.2,1.1-0.5,1.7-0.6c0.6-0.2,1.2-0.3,1.9-0.4c0.6-0.1,1.4-0.1,2.2-0.1c1.2,0,2.3,0.2,3.3,0.5
		c1,0.3,1.8,0.7,2.5,1.3c0.7,0.6,1.2,1.3,1.6,2.2c0.4,0.9,0.6,1.8,0.6,2.9v13.2H636.6z M636.6,69.1c-0.4-0.3-0.9-0.5-1.4-0.6
		c-0.5-0.1-1.2-0.2-2.2-0.2c-1,0-1.7,0.2-2.2,0.6c-0.5,0.4-0.8,1-0.8,1.8c0,0.7,0.2,1.3,0.7,1.8s1.2,0.8,2.3,0.8
		c0.8,0,1.6-0.2,2.2-0.5c0.6-0.4,1.1-0.8,1.4-1.3V69.1z"/>
	<path id="XMLID_2_" class="st3" d="M669.6,77.4V66.7c0-1.7-0.3-2.9-0.8-3.6c-0.5-0.6-1.3-1-2.4-1c-1.1,0-1.9,0.3-2.4,1
		s-0.8,1.8-0.8,3.5v10.7h-5.2V66.7c0-1.7-0.3-2.9-0.8-3.6c-0.5-0.6-1.3-1-2.4-1c-1.1,0-1.9,0.3-2.4,1c-0.5,0.6-0.8,1.8-0.8,3.5v10.7
		h-5.2V57.7h5.2V59c0.4-0.5,1-0.9,1.7-1.2s1.6-0.5,2.6-0.5c1.2,0,2.3,0.2,3.1,0.6s1.6,1,2.3,1.9c0.7-0.7,1.5-1.3,2.4-1.8
		c0.9-0.5,2.2-0.7,3.8-0.7c1.2,0,2.3,0.2,3.2,0.6c0.9,0.4,1.6,1,2.2,1.8s1,1.7,1.2,2.8c0.3,1.1,0.4,2.4,0.4,3.7v11.1H669.6z"/>
</g>
</svg>
