<!-- Generator: Adobe Illustrator 22.1.0, SVG Export Plug-In  -->
<svg version="1.1"
	 xmlns="http://www.w3.org/2000/svg" xmlns:xlink="http://www.w3.org/1999/xlink" xmlns:a="http://ns.adobe.com/AdobeSVGViewerExtensions/3.0/"
	 x="0px" y="0px" width="494px" height="182px" viewBox="0 0 494 182" style="enable-background:new 0 0 494 182;"
	 xml:space="preserve">
<style type="text/css">
	.st0{fill:url(#XMLID_395_);}
	.st1{fill:#FFFFFF;}
	.st2{fill:url(#XMLID_396_);}
</style>
<defs>
</defs>
<linearGradient id="XMLID_395_" gradientUnits="userSpaceOnUse" x1="-228.1683" y1="90.9904" x2="265.8617" y2="90.9904" gradientTransform="matrix(-1 0 0 1 265.8617 0)">
	<stop  offset="0" style="stop-color:#4B257A"/>
	<stop  offset="1" style="stop-color:#964C8E"/>
</linearGradient>
<path id="XMLID_394_" class="st0" d="M68.7,113.9V31.4C68.7,14.1,82.9,0,100.4,0h361.9C479.8,0,494,14.1,494,31.4v82.4
	c0,37.6-30.8,68.1-68.7,68.1H0C37.9,182,68.7,151.5,68.7,113.9z"/>
<g id="XMLID_333_">
	<path id="XMLID_391_" class="st1" d="M212,42.1c0,0.8-0.1,1.6-0.3,2.3c-0.2,0.7-0.5,1.3-0.8,1.8c-0.4,0.5-0.8,0.9-1.3,1.2
		s-1.1,0.4-1.8,0.4c-0.5,0-0.9-0.1-1.3-0.3s-0.7-0.4-1-0.6v0.6h-2.9V33.6l2.9-1.4v5c0.3-0.2,0.6-0.5,1-0.6c0.4-0.2,0.8-0.3,1.4-0.3
		c0.6,0,1.1,0.1,1.7,0.3c0.5,0.2,1,0.6,1.4,1.1c0.4,0.5,0.7,1.1,0.9,1.8C211.9,40.2,212,41,212,42.1z M209.1,42.1
		c0-1.1-0.2-1.9-0.5-2.5c-0.3-0.5-0.8-0.8-1.4-0.8c-0.4,0-0.8,0.1-1.1,0.3s-0.5,0.4-0.7,0.7V44c0.5,0.6,1.1,0.9,1.9,0.9
		C208.5,44.9,209.1,44,209.1,42.1z"/>
	<path id="XMLID_388_" class="st1" d="M217.5,33.9c0,0.4-0.2,0.8-0.5,1.2c-0.3,0.3-0.7,0.5-1.2,0.5s-0.8-0.2-1.2-0.5
		c-0.3-0.3-0.5-0.7-0.5-1.2c0-0.4,0.2-0.8,0.5-1.2c0.3-0.3,0.7-0.5,1.2-0.5s0.8,0.2,1.2,0.5C217.4,33,217.5,33.4,217.5,33.9z
		 M214.4,47.4v-11h2.9v11H214.4z"/>
	<path id="XMLID_386_" class="st1" d="M226.9,47.4v-6c0-1-0.2-1.6-0.5-2c-0.3-0.4-0.8-0.5-1.4-0.5s-1.1,0.2-1.4,0.5
		c-0.3,0.4-0.5,1-0.5,2v6h-2.9v-11h2.9v0.7c0.3-0.3,0.6-0.5,1-0.7c0.4-0.2,1-0.3,1.5-0.3c1.4,0,2.4,0.5,3.1,1.4c0.7,0.9,1,2.1,1,3.7
		v6.2H226.9z"/>
	<path id="XMLID_383_" class="st1" d="M238.5,47.4v-0.7c-0.3,0.2-0.6,0.5-1,0.6c-0.4,0.2-0.8,0.3-1.4,0.3c-0.6,0-1.1-0.1-1.7-0.3
		c-0.5-0.2-1-0.6-1.4-1.1c-0.4-0.5-0.7-1.1-0.9-1.8c-0.2-0.7-0.3-1.6-0.3-2.7c0-0.8,0.1-1.6,0.3-2.3s0.5-1.3,0.8-1.8
		s0.8-0.9,1.3-1.2c0.5-0.3,1.1-0.4,1.8-0.4c0.5,0,0.9,0.1,1.3,0.3c0.4,0.2,0.7,0.4,1,0.6v-3.5l2.9-1.4v15.3H238.5z M238.5,39.9
		c-0.5-0.6-1.1-0.9-1.9-0.9c-1.1,0-1.7,0.9-1.7,2.8c0,1.1,0.2,1.9,0.5,2.5c0.3,0.5,0.8,0.8,1.4,0.8c0.4,0,0.8-0.1,1.1-0.3
		s0.5-0.4,0.7-0.7V39.9z"/>
	<path id="XMLID_380_" class="st1" d="M247.5,33.9c0,0.4-0.2,0.8-0.5,1.2c-0.3,0.3-0.7,0.5-1.2,0.5s-0.8-0.2-1.2-0.5
		c-0.3-0.3-0.5-0.7-0.5-1.2c0-0.4,0.2-0.8,0.5-1.2c0.3-0.3,0.7-0.5,1.2-0.5s0.8,0.2,1.2,0.5C247.3,33,247.5,33.4,247.5,33.9z
		 M244.4,47.4v-11h2.9v11H244.4z"/>
	<path id="XMLID_378_" class="st1" d="M256.8,47.4v-6c0-1-0.2-1.6-0.5-2c-0.3-0.4-0.8-0.5-1.4-0.5s-1.1,0.2-1.4,0.5
		c-0.3,0.4-0.5,1-0.5,2v6h-2.9v-11h2.9v0.7c0.3-0.3,0.6-0.5,1-0.7c0.4-0.2,1-0.3,1.5-0.3c1.4,0,2.4,0.5,3.1,1.4c0.7,0.9,1,2.1,1,3.7
		v6.2H256.8z"/>
	<path id="XMLID_375_" class="st1" d="M271.3,45.6c0,0.9-0.1,1.7-0.2,2.4c-0.1,0.7-0.4,1.3-0.7,1.8c-0.3,0.5-0.8,0.9-1.4,1.2
		c-0.6,0.3-1.4,0.5-2.4,0.6l-1-2.2c0.6-0.1,1-0.2,1.4-0.3s0.7-0.3,0.9-0.5c0.2-0.2,0.4-0.4,0.5-0.7s0.1-0.6,0.1-1.1
		c-0.3,0.2-0.6,0.5-1,0.6c-0.4,0.2-0.8,0.3-1.4,0.3c-0.6,0-1.1-0.1-1.7-0.3c-0.5-0.2-1-0.6-1.4-1.1c-0.4-0.5-0.7-1.1-0.9-1.8
		c-0.2-0.7-0.3-1.6-0.3-2.7c0-0.8,0.1-1.6,0.3-2.3s0.5-1.3,0.8-1.8s0.8-0.9,1.3-1.2c0.5-0.3,1.1-0.4,1.8-0.4c0.5,0,0.9,0.1,1.3,0.3
		c0.4,0.2,0.7,0.4,1,0.6v-0.6h2.9V45.6z M268.4,39.9c-0.5-0.6-1.1-0.9-1.9-0.9c-1.1,0-1.7,0.9-1.7,2.8c0,1.1,0.2,1.9,0.5,2.5
		c0.3,0.5,0.8,0.8,1.4,0.8c0.4,0,0.8-0.1,1.1-0.3s0.5-0.4,0.7-0.7V39.9z"/>
	<path id="XMLID_372_" class="st1" d="M289.2,41.9c0,0.2,0,0.4,0,0.5c0,0.1,0,0.3,0,0.4h-6.6c0,0.4,0.1,0.7,0.3,1
		c0.1,0.3,0.3,0.5,0.5,0.6c0.2,0.2,0.4,0.3,0.7,0.4c0.3,0.1,0.5,0.1,0.8,0.1c0.4,0,0.8-0.1,1.1-0.2s0.6-0.3,0.8-0.6l2.1,1.7
		c-0.4,0.6-1,1-1.8,1.3s-1.5,0.5-2.2,0.5c-0.8,0-1.5-0.1-2.1-0.4s-1.2-0.7-1.6-1.2c-0.4-0.5-0.8-1.1-1-1.8c-0.2-0.7-0.4-1.5-0.4-2.4
		c0-0.8,0.1-1.6,0.4-2.3c0.3-0.7,0.6-1.3,1-1.8c0.4-0.5,1-0.9,1.6-1.2c0.6-0.3,1.2-0.4,1.9-0.4c0.7,0,1.4,0.2,2,0.5s1.1,0.7,1.5,1.2
		c0.4,0.5,0.7,1.1,0.9,1.8C289.1,40.4,289.2,41.2,289.2,41.9z M286.4,40.7c0-0.3-0.1-0.5-0.2-0.7c-0.1-0.2-0.2-0.4-0.4-0.6
		c-0.2-0.2-0.4-0.3-0.6-0.5c-0.2-0.1-0.5-0.2-0.8-0.2c-0.5,0-1,0.2-1.3,0.6c-0.3,0.4-0.5,0.8-0.5,1.4H286.4z"/>
	<path id="XMLID_370_" class="st1" d="M298.2,47.4v-6c0-1-0.2-1.6-0.5-2c-0.3-0.4-0.8-0.5-1.4-0.5s-1.1,0.2-1.4,0.5
		c-0.3,0.4-0.5,1-0.5,2v6h-2.9v-11h2.9v0.7c0.3-0.3,0.6-0.5,1-0.7c0.4-0.2,1-0.3,1.5-0.3c1.4,0,2.4,0.5,3.1,1.4c0.7,0.9,1,2.1,1,3.7
		v6.2H298.2z"/>
	<path id="XMLID_368_" class="st1" d="M310.4,47.4v-6c0-1-0.2-1.6-0.5-2c-0.3-0.4-0.8-0.5-1.4-0.5s-1.1,0.2-1.4,0.5
		c-0.3,0.4-0.5,1-0.5,2v6h-2.9V33.6l2.9-1.4v5c0.3-0.3,0.6-0.5,1-0.7c0.4-0.2,1-0.3,1.5-0.3c1.4,0,2.4,0.5,3.1,1.4
		c0.7,0.9,1,2.1,1,3.7v6.2H310.4z"/>
	<path id="XMLID_365_" class="st1" d="M322.1,47.4v-0.7c-0.3,0.3-0.6,0.5-1,0.7c-0.4,0.2-0.9,0.3-1.4,0.3c-0.5,0-1-0.1-1.5-0.2
		c-0.5-0.2-0.9-0.4-1.3-0.7c-0.4-0.3-0.7-0.7-0.9-1.2c-0.2-0.5-0.4-1.1-0.4-1.7c0-0.6,0.1-1.1,0.3-1.6c0.2-0.5,0.5-0.8,1-1.1
		s0.9-0.5,1.4-0.7c0.5-0.2,1.1-0.2,1.8-0.2c0.5,0,0.9,0,1.3,0.1c0.3,0.1,0.6,0.2,0.9,0.3V40c0-0.4-0.1-0.7-0.4-1
		c-0.3-0.3-0.7-0.4-1.2-0.4c-0.3,0-0.6,0-0.9,0c-0.3,0-0.5,0.1-0.7,0.1c-0.2,0.1-0.5,0.1-0.7,0.2c-0.2,0.1-0.5,0.2-0.7,0.3l-1.1-2
		c0.3-0.2,0.6-0.3,0.9-0.5c0.3-0.1,0.6-0.3,0.9-0.3c0.3-0.1,0.7-0.2,1-0.2c0.4,0,0.8-0.1,1.2-0.1c0.7,0,1.3,0.1,1.8,0.3
		c0.5,0.2,1,0.4,1.4,0.7c0.4,0.3,0.7,0.7,0.9,1.2c0.2,0.5,0.3,1,0.3,1.6v7.4H322.1z M322.1,42.8c-0.3-0.2-0.5-0.3-0.8-0.3
		c-0.3-0.1-0.7-0.1-1.2-0.1c-0.5,0-1,0.1-1.2,0.4c-0.3,0.2-0.4,0.6-0.4,1c0,0.4,0.1,0.7,0.4,1c0.3,0.3,0.7,0.4,1.3,0.4
		c0.5,0,0.9-0.1,1.2-0.3s0.6-0.4,0.8-0.7V42.8z"/>
	<path id="XMLID_363_" class="st1" d="M334.3,47.4v-6c0-1-0.2-1.6-0.5-2c-0.3-0.4-0.8-0.5-1.4-0.5s-1.1,0.2-1.4,0.5
		c-0.3,0.4-0.5,1-0.5,2v6h-2.9v-11h2.9v0.7c0.3-0.3,0.6-0.5,1-0.7c0.4-0.2,1-0.3,1.5-0.3c1.4,0,2.4,0.5,3.1,1.4c0.7,0.9,1,2.1,1,3.7
		v6.2H334.3z"/>
	<path id="XMLID_361_" class="st1" d="M348.2,46.2c-0.3,0.3-0.6,0.5-1,0.8c-0.4,0.2-0.8,0.4-1.2,0.5s-0.9,0.2-1.5,0.2
		c-0.7,0-1.4-0.1-2-0.4s-1.2-0.7-1.6-1.2c-0.5-0.5-0.8-1.1-1.1-1.8s-0.4-1.5-0.4-2.3s0.1-1.6,0.4-2.3s0.6-1.3,1.1-1.8
		c0.5-0.5,1-0.9,1.7-1.2c0.6-0.3,1.3-0.4,2.1-0.4c1,0,1.9,0.2,2.6,0.7c0.7,0.5,1.3,1,1.7,1.7l-1.9,1.9c-0.3-0.5-0.7-0.8-1.1-1.1
		c-0.4-0.3-0.9-0.4-1.5-0.4c-0.7,0-1.3,0.3-1.7,0.8s-0.6,1.3-0.6,2.2c0,0.9,0.2,1.6,0.6,2.1c0.4,0.5,1,0.8,1.7,0.8
		c0.6,0,1.1-0.1,1.4-0.4c0.4-0.2,0.8-0.6,1.2-1l1.8,1.7C348.7,45.6,348.5,45.9,348.2,46.2z"/>
	<path id="XMLID_358_" class="st1" d="M359.9,41.9c0,0.2,0,0.4,0,0.5c0,0.1,0,0.3,0,0.4h-6.6c0,0.4,0.1,0.7,0.3,1
		c0.1,0.3,0.3,0.5,0.5,0.6c0.2,0.2,0.4,0.3,0.7,0.4c0.3,0.1,0.5,0.1,0.8,0.1c0.4,0,0.8-0.1,1.1-0.2s0.6-0.3,0.8-0.6l2.1,1.7
		c-0.4,0.6-1,1-1.8,1.3s-1.5,0.5-2.2,0.5c-0.8,0-1.5-0.1-2.1-0.4s-1.2-0.7-1.6-1.2c-0.4-0.5-0.8-1.1-1-1.8c-0.2-0.7-0.4-1.5-0.4-2.4
		c0-0.8,0.1-1.6,0.4-2.3c0.3-0.7,0.6-1.3,1-1.8c0.4-0.5,1-0.9,1.6-1.2c0.6-0.3,1.2-0.4,1.9-0.4c0.7,0,1.4,0.2,2,0.5s1.1,0.7,1.5,1.2
		c0.4,0.5,0.7,1.1,0.9,1.8C359.8,40.4,359.9,41.2,359.9,41.9z M357.1,40.7c0-0.3-0.1-0.5-0.2-0.7c-0.1-0.2-0.2-0.4-0.4-0.6
		c-0.2-0.2-0.4-0.3-0.6-0.5c-0.2-0.1-0.5-0.2-0.8-0.2c-0.5,0-1,0.2-1.3,0.6c-0.3,0.4-0.5,0.8-0.5,1.4H357.1z"/>
	<path id="XMLID_356_" class="st1" d="M370.7,44.2c0,0.6-0.1,1.2-0.4,1.6c-0.2,0.4-0.6,0.8-1,1.1c-0.4,0.3-0.9,0.5-1.4,0.6
		c-0.5,0.1-1.1,0.2-1.7,0.2c-0.9,0-1.7-0.1-2.5-0.3c-0.8-0.2-1.5-0.5-2.1-0.9l1-2.2c0.6,0.3,1.2,0.6,1.8,0.7c0.6,0.2,1.3,0.3,2,0.3
		c0.6,0,1-0.1,1.2-0.2c0.2-0.1,0.3-0.3,0.3-0.6c0-0.3-0.1-0.5-0.3-0.6c-0.2-0.2-0.7-0.3-1.3-0.5c-0.7-0.2-1.3-0.4-1.8-0.6
		s-1-0.4-1.4-0.7c-0.4-0.3-0.7-0.6-0.9-1c-0.2-0.4-0.3-0.9-0.3-1.5c0-0.6,0.1-1.1,0.3-1.5s0.5-0.8,0.9-1c0.4-0.3,0.9-0.5,1.4-0.6
		c0.5-0.1,1.1-0.2,1.8-0.2c0.7,0,1.4,0.1,2.1,0.3c0.7,0.2,1.4,0.5,1.9,0.8l-0.9,2.3c-0.5-0.3-1.1-0.5-1.7-0.7
		c-0.6-0.1-1.1-0.2-1.5-0.2c-0.6,0-1,0.1-1.2,0.2c-0.2,0.1-0.3,0.3-0.3,0.5c0,0.1,0,0.2,0.1,0.3s0.2,0.2,0.3,0.3
		c0.2,0.1,0.4,0.2,0.7,0.3s0.7,0.2,1.2,0.4c0.5,0.2,1,0.3,1.4,0.5s0.8,0.4,1.2,0.7c0.3,0.3,0.6,0.6,0.8,1
		C370.6,43.2,370.7,43.7,370.7,44.2z"/>
	<path id="XMLID_353_" class="st1" d="M385.4,47.4v-0.7c-0.3,0.3-0.6,0.5-1,0.7c-0.4,0.2-0.9,0.3-1.4,0.3c-0.5,0-1-0.1-1.5-0.2
		c-0.5-0.2-0.9-0.4-1.3-0.7c-0.4-0.3-0.7-0.7-0.9-1.2c-0.2-0.5-0.4-1.1-0.4-1.7c0-0.6,0.1-1.1,0.3-1.6c0.2-0.5,0.5-0.8,1-1.1
		s0.9-0.5,1.4-0.7c0.5-0.2,1.1-0.2,1.8-0.2c0.5,0,0.9,0,1.3,0.1c0.3,0.1,0.6,0.2,0.9,0.3V40c0-0.4-0.1-0.7-0.4-1
		c-0.3-0.3-0.7-0.4-1.2-0.4c-0.3,0-0.6,0-0.9,0c-0.3,0-0.5,0.1-0.7,0.1c-0.2,0.1-0.5,0.1-0.7,0.2c-0.2,0.1-0.5,0.2-0.7,0.3l-1.1-2
		c0.3-0.2,0.6-0.3,0.9-0.5c0.3-0.1,0.6-0.3,0.9-0.3c0.3-0.1,0.7-0.2,1-0.2c0.4,0,0.8-0.1,1.2-0.1c0.7,0,1.3,0.1,1.8,0.3
		c0.5,0.2,1,0.4,1.4,0.7c0.4,0.3,0.7,0.7,0.9,1.2c0.2,0.5,0.3,1,0.3,1.6v7.4H385.4z M385.4,42.8c-0.3-0.2-0.5-0.3-0.8-0.3
		c-0.3-0.1-0.7-0.1-1.2-0.1c-0.5,0-1,0.1-1.2,0.4c-0.3,0.2-0.4,0.6-0.4,1c0,0.4,0.1,0.7,0.4,1c0.3,0.3,0.7,0.4,1.3,0.4
		c0.5,0,0.9-0.1,1.2-0.3s0.6-0.4,0.8-0.7V42.8z"/>
	<path id="XMLID_351_" class="st1" d="M402.3,34.7c-0.2,0-0.3-0.1-0.5-0.1c-0.4,0-0.7,0.1-0.9,0.2s-0.2,0.4-0.2,0.7v0.9h1.9v2.7
		h-1.9v8.3h-2.9v-8.3h-1.3v-2.7h1.3v-1.3c0-1,0.3-1.8,0.8-2.2s1.3-0.7,2.3-0.7c0.7,0,1.3,0.1,1.8,0.3v2.3
		C402.6,34.8,402.4,34.7,402.3,34.7z"/>
	<path id="XMLID_349_" class="st1" d="M411.4,47.4v-0.7c-0.3,0.3-0.6,0.5-1,0.7c-0.4,0.2-1,0.3-1.5,0.3c-1.4,0-2.4-0.5-3.1-1.4
		c-0.7-0.9-1-2.1-1-3.7v-6.2h2.9v6c0,0.5,0,0.9,0.1,1.2c0.1,0.3,0.2,0.6,0.4,0.8c0.2,0.2,0.3,0.3,0.6,0.4c0.2,0.1,0.5,0.1,0.8,0.1
		c0.6,0,1.1-0.2,1.4-0.5c0.3-0.4,0.5-1,0.5-2v-6h2.9v11H411.4z"/>
	<path id="XMLID_347_" class="st1" d="M423.7,47.4v-6c0-1-0.2-1.6-0.5-2c-0.3-0.4-0.8-0.5-1.4-0.5s-1.1,0.2-1.4,0.5
		c-0.3,0.4-0.5,1-0.5,2v6h-2.9v-11h2.9v0.7c0.3-0.3,0.6-0.5,1-0.7c0.4-0.2,1-0.3,1.5-0.3c1.4,0,2.4,0.5,3.1,1.4c0.7,0.9,1,2.1,1,3.7
		v6.2H423.7z"/>
	<path id="XMLID_345_" class="st1" d="M437.5,46.2c-0.3,0.3-0.6,0.5-1,0.8c-0.4,0.2-0.8,0.4-1.2,0.5s-0.9,0.2-1.5,0.2
		c-0.7,0-1.4-0.1-2-0.4s-1.2-0.7-1.6-1.2c-0.5-0.5-0.8-1.1-1.1-1.8s-0.4-1.5-0.4-2.3s0.1-1.6,0.4-2.3s0.6-1.3,1.1-1.8
		c0.5-0.5,1-0.9,1.7-1.2c0.6-0.3,1.3-0.4,2.1-0.4c1,0,1.9,0.2,2.6,0.7c0.7,0.5,1.3,1,1.7,1.7l-1.9,1.9c-0.3-0.5-0.7-0.8-1.1-1.1
		c-0.4-0.3-0.9-0.4-1.5-0.4c-0.7,0-1.3,0.3-1.7,0.8s-0.6,1.3-0.6,2.2c0,0.9,0.2,1.6,0.6,2.1c0.4,0.5,1,0.8,1.7,0.8
		c0.6,0,1.1-0.1,1.4-0.4c0.4-0.2,0.8-0.6,1.2-1l1.8,1.7C438.1,45.6,437.8,45.9,437.5,46.2z"/>
	<path id="XMLID_343_" class="st1" d="M446.7,47c-0.2,0.2-0.6,0.4-1,0.5c-0.4,0.1-0.8,0.2-1.3,0.2s-0.9-0.1-1.2-0.2
		c-0.4-0.2-0.7-0.4-0.9-0.7c-0.3-0.3-0.4-0.6-0.6-1c-0.1-0.4-0.2-0.9-0.2-1.3v-5.2h-1.8v-2.7h1.8v-2.8l2.9-1.4v4.3h2.6v2.7h-2.6v4.4
		c0,0.5,0.1,0.9,0.3,1.1s0.4,0.3,0.8,0.3c0.3,0,0.5-0.1,0.7-0.2c0.2-0.1,0.5-0.3,0.9-0.6L446.7,47z"/>
	<path id="XMLID_340_" class="st1" d="M453,33.9c0,0.4-0.2,0.8-0.5,1.2c-0.3,0.3-0.7,0.5-1.2,0.5s-0.8-0.2-1.2-0.5
		c-0.3-0.3-0.5-0.7-0.5-1.2c0-0.4,0.2-0.8,0.5-1.2c0.3-0.3,0.7-0.5,1.2-0.5s0.8,0.2,1.2,0.5C452.9,33,453,33.4,453,33.9z
		 M449.9,47.4v-11h2.9v11H449.9z"/>
	<path id="XMLID_337_" class="st1" d="M465.1,41.9c0,0.8-0.1,1.6-0.4,2.3c-0.3,0.7-0.6,1.3-1,1.8c-0.4,0.5-1,0.9-1.6,1.2
		c-0.6,0.3-1.3,0.4-2,0.4s-1.4-0.1-2-0.4c-0.6-0.3-1.1-0.7-1.6-1.2s-0.8-1.1-1-1.8c-0.3-0.7-0.4-1.5-0.4-2.3s0.1-1.6,0.4-2.3
		c0.3-0.7,0.6-1.3,1-1.8c0.4-0.5,1-0.9,1.6-1.2c0.6-0.3,1.3-0.4,2-0.4s1.4,0.1,2,0.4c0.6,0.3,1.1,0.7,1.6,1.2c0.4,0.5,0.8,1.1,1,1.8
		C465,40.3,465.1,41.1,465.1,41.9z M462.2,41.9c0-0.8-0.2-1.6-0.5-2.1c-0.3-0.6-0.9-0.9-1.6-0.9c-0.7,0-1.2,0.3-1.5,0.8
		c-0.3,0.6-0.5,1.3-0.5,2.1s0.2,1.6,0.5,2.1c0.3,0.6,0.8,0.8,1.5,0.8c0.3,0,0.7-0.1,0.9-0.2c0.3-0.2,0.5-0.4,0.6-0.7
		s0.3-0.6,0.4-0.9C462.1,42.7,462.2,42.3,462.2,41.9z"/>
	<path id="XMLID_334_" class="st1" d="M474,47.4v-6c0-1-0.2-1.6-0.5-2c-0.3-0.4-0.8-0.5-1.4-0.5s-1.1,0.2-1.4,0.5
		c-0.3,0.4-0.5,1-0.5,2v6h-2.9v-11h2.9v0.7c0.3-0.3,0.6-0.5,1-0.7c0.4-0.2,1-0.3,1.5-0.3c1.4,0,2.4,0.5,3.1,1.4c0.7,0.9,1,2.1,1,3.7
		v6.2H474z"/>
</g>
<g id="XMLID_250_">
	<path id="XMLID_330_" class="st1" d="M92.6,67.1c0,0.8-0.1,1.6-0.4,2.3c-0.3,0.7-0.6,1.3-1,1.8c-0.4,0.5-1,0.9-1.6,1.2
		c-0.6,0.3-1.3,0.4-2,0.4s-1.4-0.1-2-0.4c-0.6-0.3-1.1-0.7-1.6-1.2s-0.8-1.1-1-1.8c-0.3-0.7-0.4-1.5-0.4-2.3s0.1-1.6,0.4-2.3
		c0.3-0.7,0.6-1.3,1-1.8c0.4-0.5,1-0.9,1.6-1.2c0.6-0.3,1.3-0.4,2-0.4s1.4,0.1,2,0.4c0.6,0.3,1.1,0.7,1.6,1.2c0.4,0.5,0.8,1.1,1,1.8
		C92.5,65.5,92.6,66.3,92.6,67.1z M89.7,67.1c0-0.8-0.2-1.6-0.5-2.1c-0.3-0.6-0.9-0.9-1.6-0.9c-0.7,0-1.2,0.3-1.5,0.8
		c-0.3,0.6-0.5,1.3-0.5,2.1s0.2,1.6,0.5,2.1c0.3,0.6,0.8,0.8,1.5,0.8c0.3,0,0.7-0.1,0.9-0.2c0.3-0.2,0.5-0.4,0.6-0.7
		s0.3-0.6,0.4-0.9C89.6,67.8,89.7,67.5,89.7,67.1z"/>
	<path id="XMLID_328_" class="st1" d="M99.8,59.8c-0.2,0-0.3-0.1-0.5-0.1c-0.4,0-0.7,0.1-0.9,0.2s-0.2,0.4-0.2,0.7v0.9h1.9v2.7h-1.9
		v8.3h-2.9v-8.3h-1.3v-2.7h1.3v-1.3c0-1,0.3-1.8,0.8-2.2s1.3-0.7,2.3-0.7c0.7,0,1.3,0.1,1.8,0.3V60C100.1,59.9,99.9,59.9,99.8,59.8z
		"/>
	<path id="XMLID_326_" class="st1" d="M119.6,68.1c0,0.7-0.1,1.3-0.3,1.9c-0.2,0.6-0.6,1.1-1,1.5c-0.5,0.4-1.1,0.7-1.8,1
		c-0.7,0.2-1.6,0.3-2.6,0.3c-1.2,0-2.3-0.2-3.4-0.7c-1-0.5-1.8-1.1-2.3-1.9l2.1-1.9c0.5,0.6,1.1,1,1.7,1.3c0.6,0.3,1.3,0.4,2,0.4
		c0.9,0,1.5-0.1,1.9-0.4s0.6-0.7,0.6-1.2c0-0.2,0-0.4-0.1-0.6c-0.1-0.2-0.2-0.3-0.5-0.5c-0.2-0.2-0.6-0.3-1-0.4
		c-0.4-0.1-1-0.3-1.7-0.4c-0.7-0.2-1.3-0.3-1.9-0.5c-0.6-0.2-1.1-0.5-1.5-0.8c-0.4-0.3-0.7-0.7-0.9-1.2c-0.2-0.5-0.3-1.1-0.3-1.8
		c0-0.7,0.1-1.3,0.4-1.8c0.3-0.5,0.6-1,1.1-1.4c0.5-0.4,1-0.7,1.7-0.8c0.6-0.2,1.3-0.3,2-0.3c1.1,0,2.1,0.2,3,0.6s1.6,1,2.3,1.7
		l-2.1,2.1c-0.5-0.5-1-0.9-1.5-1.1c-0.5-0.3-1.1-0.4-1.8-0.4c-0.4,0-0.7,0-1,0.1c-0.3,0.1-0.5,0.2-0.7,0.3c-0.2,0.1-0.3,0.3-0.4,0.4
		c-0.1,0.2-0.1,0.3-0.1,0.5c0,0.2,0,0.4,0.1,0.6c0.1,0.2,0.2,0.3,0.5,0.4c0.2,0.1,0.5,0.2,0.9,0.4c0.4,0.1,0.9,0.2,1.4,0.4
		c0.6,0.1,1.2,0.3,1.8,0.5c0.6,0.2,1.1,0.5,1.6,0.8s0.8,0.8,1.1,1.3C119.5,66.7,119.6,67.3,119.6,68.1z"/>
	<path id="XMLID_324_" class="st1" d="M126.2,76.5h-2.9l1.5-3.9l-4.3-11h3.2l1.8,5.3c0.2,0.4,0.3,0.9,0.4,1.3s0.2,0.8,0.3,1.1
		c0.1-0.3,0.2-0.6,0.3-1.1c0.1-0.4,0.3-0.9,0.4-1.3l1.8-5.3h3.1L126.2,76.5z"/>
	<path id="XMLID_322_" class="st1" d="M140.5,72.6v-6c0-1-0.2-1.6-0.5-2c-0.3-0.4-0.8-0.5-1.4-0.5s-1.1,0.2-1.4,0.5
		c-0.3,0.4-0.5,1-0.5,2v6h-2.9v-11h2.9v0.7c0.3-0.3,0.6-0.5,1-0.7c0.4-0.2,1-0.3,1.5-0.3c1.4,0,2.4,0.5,3.1,1.4c0.7,0.9,1,2.1,1,3.7
		v6.2H140.5z"/>
	<path id="XMLID_319_" class="st1" d="M152.1,72.6v-0.7c-0.3,0.3-0.6,0.5-1,0.7c-0.4,0.2-0.9,0.3-1.4,0.3c-0.5,0-1-0.1-1.5-0.2
		c-0.5-0.2-0.9-0.4-1.3-0.7c-0.4-0.3-0.7-0.7-0.9-1.2c-0.2-0.5-0.4-1.1-0.4-1.7c0-0.6,0.1-1.1,0.3-1.6c0.2-0.5,0.5-0.8,1-1.1
		s0.9-0.5,1.4-0.7c0.5-0.2,1.1-0.2,1.8-0.2c0.5,0,0.9,0,1.3,0.1c0.3,0.1,0.6,0.2,0.9,0.3v-0.5c0-0.4-0.1-0.7-0.4-1
		c-0.3-0.3-0.7-0.4-1.2-0.4c-0.3,0-0.6,0-0.9,0c-0.3,0-0.5,0.1-0.7,0.1c-0.2,0.1-0.5,0.1-0.7,0.2c-0.2,0.1-0.5,0.2-0.7,0.3l-1.1-2
		c0.3-0.2,0.6-0.3,0.9-0.5c0.3-0.1,0.6-0.3,0.9-0.3c0.3-0.1,0.7-0.2,1-0.2c0.4,0,0.8-0.1,1.2-0.1c0.7,0,1.3,0.1,1.8,0.3
		c0.5,0.2,1,0.4,1.4,0.7c0.4,0.3,0.7,0.7,0.9,1.2c0.2,0.5,0.3,1,0.3,1.6v7.4H152.1z M152.1,68c-0.3-0.2-0.5-0.3-0.8-0.3
		c-0.3-0.1-0.7-0.1-1.2-0.1c-0.5,0-1,0.1-1.2,0.4c-0.3,0.2-0.4,0.6-0.4,1c0,0.4,0.1,0.7,0.4,1c0.3,0.3,0.7,0.4,1.3,0.4
		c0.5,0,0.9-0.1,1.2-0.3s0.6-0.4,0.8-0.7V68z"/>
	<path id="XMLID_316_" class="st1" d="M167.2,67.2c0,0.8-0.1,1.6-0.3,2.3c-0.2,0.7-0.5,1.3-0.8,1.8c-0.4,0.5-0.8,0.9-1.3,1.2
		s-1.1,0.4-1.8,0.4c-0.5,0-0.9-0.1-1.3-0.3s-0.7-0.4-1-0.6v3.2l-2.9,1.4v-15h2.9v0.7c0.3-0.2,0.6-0.5,1-0.6c0.4-0.2,0.8-0.3,1.4-0.3
		c0.6,0,1.1,0.1,1.7,0.3c0.5,0.2,1,0.6,1.4,1.1c0.4,0.5,0.7,1.1,0.9,1.8C167.1,65.3,167.2,66.2,167.2,67.2z M164.3,67.3
		c0-1.1-0.2-1.9-0.5-2.5c-0.3-0.5-0.8-0.8-1.4-0.8c-0.4,0-0.8,0.1-1.1,0.3s-0.5,0.4-0.7,0.7v4.1c0.5,0.6,1.1,0.9,1.9,0.9
		C163.7,70.1,164.3,69.2,164.3,67.3z"/>
	<path id="XMLID_314_" class="st1" d="M175.6,72.1c-0.2,0.2-0.6,0.4-1,0.5c-0.4,0.1-0.8,0.2-1.3,0.2s-0.9-0.1-1.2-0.2
		c-0.4-0.2-0.7-0.4-0.9-0.7c-0.3-0.3-0.4-0.6-0.6-1c-0.1-0.4-0.2-0.9-0.2-1.3v-5.2h-1.8v-2.7h1.8v-2.8l2.9-1.4v4.3h2.6v2.7h-2.6v4.4
		c0,0.5,0.1,0.9,0.3,1.1s0.4,0.3,0.8,0.3c0.3,0,0.5-0.1,0.7-0.2c0.2-0.1,0.5-0.3,0.9-0.6L175.6,72.1z"/>
	<path id="XMLID_311_" class="st1" d="M181.9,59c0,0.4-0.2,0.8-0.5,1.2c-0.3,0.3-0.7,0.5-1.2,0.5s-0.8-0.2-1.2-0.5
		c-0.3-0.3-0.5-0.7-0.5-1.2c0-0.4,0.2-0.8,0.5-1.2c0.3-0.3,0.7-0.5,1.2-0.5s0.8,0.2,1.2,0.5C181.7,58.2,181.9,58.6,181.9,59z
		 M178.8,72.6v-11h2.9v11H178.8z"/>
	<path id="XMLID_309_" class="st1" d="M192.8,71.4c-0.3,0.3-0.6,0.5-1,0.8c-0.4,0.2-0.8,0.4-1.2,0.5s-0.9,0.2-1.5,0.2
		c-0.7,0-1.4-0.1-2-0.4s-1.2-0.7-1.6-1.2c-0.5-0.5-0.8-1.1-1.1-1.8s-0.4-1.5-0.4-2.3s0.1-1.6,0.4-2.3s0.6-1.3,1.1-1.8
		c0.5-0.5,1-0.9,1.7-1.2c0.6-0.3,1.3-0.4,2.1-0.4c1,0,1.9,0.2,2.6,0.7c0.7,0.5,1.3,1,1.7,1.7l-1.9,1.9c-0.3-0.5-0.7-0.8-1.1-1.1
		c-0.4-0.3-0.9-0.4-1.5-0.4c-0.7,0-1.3,0.3-1.7,0.8s-0.6,1.3-0.6,2.2c0,0.9,0.2,1.6,0.6,2.1c0.4,0.5,1,0.8,1.7,0.8
		c0.6,0,1.1-0.1,1.4-0.4c0.4-0.2,0.8-0.6,1.2-1l1.8,1.7C193.4,70.7,193.1,71.1,192.8,71.4z"/>
	<path id="XMLID_307_" class="st1" d="M209.4,72.6h-2.8l-5.2-14.7h3.2l2.8,8.5c0.1,0.2,0.1,0.4,0.2,0.6c0.1,0.2,0.1,0.4,0.2,0.7
		c0.1,0.2,0.1,0.4,0.2,0.6c0,0.2,0.1,0.4,0.1,0.5c0.1-0.3,0.2-0.6,0.3-1.1c0.1-0.4,0.2-0.9,0.4-1.3l2.7-8.5h3.2L209.4,72.6z"/>
	<path id="XMLID_304_" class="st1" d="M224.2,67.1c0,0.2,0,0.4,0,0.5c0,0.1,0,0.3,0,0.4h-6.6c0,0.4,0.1,0.7,0.3,1
		c0.1,0.3,0.3,0.5,0.5,0.6c0.2,0.2,0.4,0.3,0.7,0.4c0.3,0.1,0.5,0.1,0.8,0.1c0.4,0,0.8-0.1,1.1-0.2s0.6-0.3,0.8-0.6l2.1,1.7
		c-0.4,0.6-1,1-1.8,1.3s-1.5,0.5-2.2,0.5c-0.8,0-1.5-0.1-2.1-0.4s-1.2-0.7-1.6-1.2c-0.4-0.5-0.8-1.1-1-1.8c-0.2-0.7-0.4-1.5-0.4-2.4
		c0-0.8,0.1-1.6,0.4-2.3c0.3-0.7,0.6-1.3,1-1.8c0.4-0.5,1-0.9,1.6-1.2c0.6-0.3,1.2-0.4,1.9-0.4c0.7,0,1.4,0.2,2,0.5s1.1,0.7,1.5,1.2
		c0.4,0.5,0.7,1.1,0.9,1.8C224.1,65.6,224.2,66.3,224.2,67.1z M221.4,65.8c0-0.3-0.1-0.5-0.2-0.7c-0.1-0.2-0.2-0.4-0.4-0.6
		c-0.2-0.2-0.4-0.3-0.6-0.5c-0.2-0.1-0.5-0.2-0.8-0.2c-0.5,0-1,0.2-1.3,0.6c-0.3,0.4-0.5,0.8-0.5,1.4H221.4z"/>
	<path id="XMLID_302_" class="st1" d="M235,69.4c0,0.6-0.1,1.2-0.4,1.6c-0.2,0.4-0.6,0.8-1,1.1c-0.4,0.3-0.9,0.5-1.4,0.6
		c-0.5,0.1-1.1,0.2-1.7,0.2c-0.9,0-1.7-0.1-2.5-0.3c-0.8-0.2-1.5-0.5-2.1-0.9l1-2.2c0.6,0.3,1.2,0.6,1.8,0.7c0.6,0.2,1.3,0.3,2,0.3
		c0.6,0,1-0.1,1.2-0.2c0.2-0.1,0.3-0.3,0.3-0.6c0-0.3-0.1-0.5-0.3-0.6c-0.2-0.2-0.7-0.3-1.3-0.5c-0.7-0.2-1.3-0.4-1.8-0.6
		s-1-0.4-1.4-0.7c-0.4-0.3-0.7-0.6-0.9-1c-0.2-0.4-0.3-0.9-0.3-1.5c0-0.6,0.1-1.1,0.3-1.5s0.5-0.8,0.9-1c0.4-0.3,0.9-0.5,1.4-0.6
		c0.5-0.1,1.1-0.2,1.8-0.2c0.7,0,1.4,0.1,2.1,0.3c0.7,0.2,1.4,0.5,1.9,0.8l-0.9,2.3c-0.5-0.3-1.1-0.5-1.7-0.7
		c-0.6-0.1-1.1-0.2-1.5-0.2c-0.6,0-1,0.1-1.2,0.2c-0.2,0.1-0.3,0.3-0.3,0.5c0,0.1,0,0.2,0.1,0.3s0.2,0.2,0.3,0.3
		c0.2,0.1,0.4,0.2,0.7,0.3s0.7,0.2,1.2,0.4c0.5,0.2,1,0.3,1.4,0.5s0.8,0.4,1.2,0.7c0.3,0.3,0.6,0.6,0.8,1
		C234.9,68.4,235,68.8,235,69.4z"/>
	<path id="XMLID_299_" class="st1" d="M240.8,59c0,0.4-0.2,0.8-0.5,1.2c-0.3,0.3-0.7,0.5-1.2,0.5s-0.8-0.2-1.2-0.5
		c-0.3-0.3-0.5-0.7-0.5-1.2c0-0.4,0.2-0.8,0.5-1.2c0.3-0.3,0.7-0.5,1.2-0.5s0.8,0.2,1.2,0.5C240.6,58.2,240.8,58.6,240.8,59z
		 M237.7,72.6v-11h2.9v11H237.7z"/>
	<path id="XMLID_297_" class="st1" d="M251.7,71.4c-0.3,0.3-0.6,0.5-1,0.8c-0.4,0.2-0.8,0.4-1.2,0.5s-0.9,0.2-1.5,0.2
		c-0.7,0-1.4-0.1-2-0.4s-1.2-0.7-1.6-1.2c-0.5-0.5-0.8-1.1-1.1-1.8s-0.4-1.5-0.4-2.3s0.1-1.6,0.4-2.3s0.6-1.3,1.1-1.8
		c0.5-0.5,1-0.9,1.7-1.2c0.6-0.3,1.3-0.4,2.1-0.4c1,0,1.9,0.2,2.6,0.7c0.7,0.5,1.3,1,1.7,1.7l-1.9,1.9c-0.3-0.5-0.7-0.8-1.1-1.1
		c-0.4-0.3-0.9-0.4-1.5-0.4c-0.7,0-1.3,0.3-1.7,0.8s-0.6,1.3-0.6,2.2c0,0.9,0.2,1.6,0.6,2.1c0.4,0.5,1,0.8,1.7,0.8
		c0.6,0,1.1-0.1,1.4-0.4c0.4-0.2,0.8-0.6,1.2-1l1.8,1.7C252.3,70.7,252,71.1,251.7,71.4z"/>
	<path id="XMLID_295_" class="st1" d="M254.8,72.6V58.8l2.9-1.4v15.3H254.8z"/>
	<path id="XMLID_292_" class="st1" d="M269.6,67.1c0,0.2,0,0.4,0,0.5c0,0.1,0,0.3,0,0.4H263c0,0.4,0.1,0.7,0.3,1
		c0.1,0.3,0.3,0.5,0.5,0.6c0.2,0.2,0.4,0.3,0.7,0.4c0.3,0.1,0.5,0.1,0.8,0.1c0.4,0,0.8-0.1,1.1-0.2s0.6-0.3,0.8-0.6l2.1,1.7
		c-0.4,0.6-1,1-1.8,1.3s-1.5,0.5-2.2,0.5c-0.8,0-1.5-0.1-2.1-0.4s-1.2-0.7-1.6-1.2c-0.4-0.5-0.8-1.1-1-1.8c-0.2-0.7-0.4-1.5-0.4-2.4
		c0-0.8,0.1-1.6,0.4-2.3c0.3-0.7,0.6-1.3,1-1.8c0.4-0.5,1-0.9,1.6-1.2c0.6-0.3,1.2-0.4,1.9-0.4c0.7,0,1.4,0.2,2,0.5s1.1,0.7,1.5,1.2
		c0.4,0.5,0.7,1.1,0.9,1.8C269.5,65.6,269.6,66.3,269.6,67.1z M266.8,65.8c0-0.3-0.1-0.5-0.2-0.7c-0.1-0.2-0.2-0.4-0.4-0.6
		c-0.2-0.2-0.4-0.3-0.6-0.5c-0.2-0.1-0.5-0.2-0.8-0.2c-0.5,0-1,0.2-1.3,0.6c-0.3,0.4-0.5,0.8-0.5,1.4H266.8z"/>
	<path id="XMLID_289_" class="st1" d="M289.9,62.6c0,0.9-0.1,1.6-0.4,2.2c-0.3,0.6-0.6,1.1-1.1,1.5c-0.5,0.4-1,0.7-1.7,0.9
		c-0.6,0.2-1.4,0.3-2.1,0.3h-3.2v5.2h-2.9V57.9h6.4c0.7,0,1.3,0.1,1.9,0.3c0.6,0.2,1.2,0.5,1.6,0.9c0.5,0.4,0.8,0.9,1.1,1.5
		C289.8,61.1,289.9,61.8,289.9,62.6z M286.9,62.6c0-0.6-0.2-1.1-0.6-1.4c-0.4-0.3-0.9-0.5-1.6-0.5h-3.4v3.8h3.4
		C286.2,64.5,286.9,63.9,286.9,62.6z"/>
	<path id="XMLID_287_" class="st1" d="M298.7,65c-0.2-0.2-0.5-0.4-0.8-0.5c-0.3-0.1-0.6-0.2-0.9-0.2c-0.3,0-0.5,0-0.8,0.1
		c-0.2,0.1-0.4,0.2-0.6,0.4c-0.2,0.2-0.3,0.4-0.4,0.7c-0.1,0.3-0.1,0.7-0.1,1.2v6h-2.9v-11h2.9v0.7c0.3-0.3,0.6-0.5,0.9-0.7
		c0.4-0.2,0.8-0.3,1.3-0.3c0.5,0,0.9,0.1,1.2,0.2c0.3,0.2,0.6,0.3,0.8,0.5L298.7,65z"/>
	<path id="XMLID_284_" class="st1" d="M310.3,67.1c0,0.8-0.1,1.6-0.4,2.3c-0.3,0.7-0.6,1.3-1,1.8c-0.4,0.5-1,0.9-1.6,1.2
		c-0.6,0.3-1.3,0.4-2,0.4s-1.4-0.1-2-0.4c-0.6-0.3-1.1-0.7-1.6-1.2s-0.8-1.1-1-1.8c-0.3-0.7-0.4-1.5-0.4-2.3s0.1-1.6,0.4-2.3
		c0.3-0.7,0.6-1.3,1-1.8c0.4-0.5,1-0.9,1.6-1.2c0.6-0.3,1.3-0.4,2-0.4s1.4,0.1,2,0.4c0.6,0.3,1.1,0.7,1.6,1.2c0.4,0.5,0.8,1.1,1,1.8
		C310.2,65.5,310.3,66.3,310.3,67.1z M307.4,67.1c0-0.8-0.2-1.6-0.5-2.1c-0.3-0.6-0.9-0.9-1.6-0.9c-0.7,0-1.2,0.3-1.5,0.8
		c-0.3,0.6-0.5,1.3-0.5,2.1s0.2,1.6,0.5,2.1c0.3,0.6,0.8,0.8,1.5,0.8c0.3,0,0.7-0.1,0.9-0.2c0.3-0.2,0.5-0.4,0.6-0.7
		s0.3-0.6,0.4-0.9C307.3,67.8,307.4,67.5,307.4,67.1z"/>
	<path id="XMLID_282_" class="st1" d="M318.6,72.1c-0.2,0.2-0.6,0.4-1,0.5c-0.4,0.1-0.8,0.2-1.3,0.2s-0.9-0.1-1.2-0.2
		c-0.4-0.2-0.7-0.4-0.9-0.7c-0.3-0.3-0.4-0.6-0.6-1c-0.1-0.4-0.2-0.9-0.2-1.3v-5.2h-1.8v-2.7h1.8v-2.8l2.9-1.4v4.3h2.6v2.7h-2.6v4.4
		c0,0.5,0.1,0.9,0.3,1.1s0.4,0.3,0.8,0.3c0.3,0,0.5-0.1,0.7-0.2c0.2-0.1,0.5-0.3,0.9-0.6L318.6,72.1z"/>
	<path id="XMLID_279_" class="st1" d="M330.2,67.1c0,0.2,0,0.4,0,0.5c0,0.1,0,0.3,0,0.4h-6.6c0,0.4,0.1,0.7,0.3,1
		c0.1,0.3,0.3,0.5,0.5,0.6c0.2,0.2,0.4,0.3,0.7,0.4c0.3,0.1,0.5,0.1,0.8,0.1c0.4,0,0.8-0.1,1.1-0.2s0.6-0.3,0.8-0.6l2.1,1.7
		c-0.4,0.6-1,1-1.8,1.3s-1.5,0.5-2.2,0.5c-0.8,0-1.5-0.1-2.1-0.4s-1.2-0.7-1.6-1.2c-0.4-0.5-0.8-1.1-1-1.8c-0.2-0.7-0.4-1.5-0.4-2.4
		c0-0.8,0.1-1.6,0.4-2.3c0.3-0.7,0.6-1.3,1-1.8c0.4-0.5,1-0.9,1.6-1.2c0.6-0.3,1.2-0.4,1.9-0.4c0.7,0,1.4,0.2,2,0.5s1.1,0.7,1.5,1.2
		c0.4,0.5,0.7,1.1,0.9,1.8C330.1,65.6,330.2,66.3,330.2,67.1z M327.4,65.8c0-0.3-0.1-0.5-0.2-0.7c-0.1-0.2-0.2-0.4-0.4-0.6
		c-0.2-0.2-0.4-0.3-0.6-0.5c-0.2-0.1-0.5-0.2-0.8-0.2c-0.5,0-1,0.2-1.3,0.6c-0.3,0.4-0.5,0.8-0.5,1.4H327.4z"/>
	<path id="XMLID_275_" class="st1" d="M335.8,59c0,0.4-0.2,0.8-0.5,1.2c-0.3,0.3-0.7,0.5-1.2,0.5s-0.8-0.2-1.2-0.5
		c-0.3-0.3-0.5-0.7-0.5-1.2c0-0.4,0.2-0.8,0.5-1.2c0.3-0.3,0.7-0.5,1.2-0.5s0.8,0.2,1.2,0.5C335.6,58.2,335.8,58.6,335.8,59z
		 M332.7,72.6v-11h2.9v11H332.7z"/>
	<path id="XMLID_273_" class="st1" d="M345.1,72.6v-6c0-1-0.2-1.6-0.5-2c-0.3-0.4-0.8-0.5-1.4-0.5s-1.1,0.2-1.4,0.5
		c-0.3,0.4-0.5,1-0.5,2v6h-2.9v-11h2.9v0.7c0.3-0.3,0.6-0.5,1-0.7c0.4-0.2,1-0.3,1.5-0.3c1.4,0,2.4,0.5,3.1,1.4c0.7,0.9,1,2.1,1,3.7
		v6.2H345.1z"/>
	<path id="XMLID_271_" class="st1" d="M360.3,74.9c-0.5-0.6-1-1.1-1.4-1.7s-0.8-1.2-1.2-1.9c-0.3-0.7-0.6-1.4-0.8-2.3
		c-0.2-0.8-0.3-1.7-0.3-2.7s0.1-1.9,0.3-2.7c0.2-0.8,0.4-1.6,0.7-2.3c0.3-0.7,0.7-1.4,1.2-2s0.9-1.2,1.5-1.8l1.9,1.3
		c-0.4,0.5-0.7,1-1,1.5c-0.3,0.5-0.6,1.1-0.8,1.7s-0.4,1.2-0.5,1.9c-0.1,0.7-0.2,1.4-0.2,2.2c0,0.8,0.1,1.6,0.2,2.3
		c0.1,0.7,0.3,1.3,0.5,1.9c0.2,0.6,0.5,1.2,0.8,1.7c0.3,0.5,0.7,1,1,1.5L360.3,74.9z"/>
	<path id="XMLID_269_" class="st1" d="M375.8,68.1c0,0.7-0.1,1.3-0.3,1.9c-0.2,0.6-0.6,1.1-1,1.5c-0.5,0.4-1.1,0.7-1.8,1
		c-0.7,0.2-1.6,0.3-2.6,0.3c-1.2,0-2.3-0.2-3.4-0.7c-1-0.5-1.8-1.1-2.3-1.9l2.1-1.9c0.5,0.6,1.1,1,1.7,1.3c0.6,0.3,1.3,0.4,2,0.4
		c0.9,0,1.5-0.1,1.9-0.4s0.6-0.7,0.6-1.2c0-0.2,0-0.4-0.1-0.6c-0.1-0.2-0.2-0.3-0.5-0.5c-0.2-0.2-0.6-0.3-1-0.4
		c-0.4-0.1-1-0.3-1.7-0.4c-0.7-0.2-1.3-0.3-1.9-0.5c-0.6-0.2-1.1-0.5-1.5-0.8c-0.4-0.3-0.7-0.7-0.9-1.2c-0.2-0.5-0.3-1.1-0.3-1.8
		c0-0.7,0.1-1.3,0.4-1.8c0.3-0.5,0.6-1,1.1-1.4c0.5-0.4,1-0.7,1.7-0.8c0.6-0.2,1.3-0.3,2-0.3c1.1,0,2.1,0.2,3,0.6s1.6,1,2.3,1.7
		l-2.1,2.1c-0.5-0.5-1-0.9-1.5-1.1c-0.5-0.3-1.1-0.4-1.8-0.4c-0.4,0-0.7,0-1,0.1c-0.3,0.1-0.5,0.2-0.7,0.3c-0.2,0.1-0.3,0.3-0.4,0.4
		c-0.1,0.2-0.1,0.3-0.1,0.5c0,0.2,0,0.4,0.1,0.6c0.1,0.2,0.2,0.3,0.5,0.4c0.2,0.1,0.5,0.2,0.9,0.4c0.4,0.1,0.9,0.2,1.4,0.4
		c0.6,0.1,1.2,0.3,1.8,0.5c0.6,0.2,1.1,0.5,1.6,0.8s0.8,0.8,1.1,1.3C375.6,66.7,375.8,67.3,375.8,68.1z"/>
	<path id="XMLID_267_" class="st1" d="M385.1,72.6h-2.8L377,57.9h3.2l2.8,8.5c0.1,0.2,0.1,0.4,0.2,0.6c0.1,0.2,0.1,0.4,0.2,0.7
		c0.1,0.2,0.1,0.4,0.2,0.6c0,0.2,0.1,0.4,0.1,0.5c0.1-0.3,0.2-0.6,0.3-1.1c0.1-0.4,0.2-0.9,0.4-1.3l2.7-8.5h3.2L385.1,72.6z"/>
	<path id="XMLID_265_" class="st1" d="M392.2,72.6c0-1.3,0.2-2.3,0.6-3.3c0.4-0.9,0.9-1.7,1.5-2.4c0.6-0.7,1.3-1.3,2.1-1.8
		s1.7-0.9,2.6-1.3c0.6-0.3,1.1-0.6,1.3-0.8c0.2-0.3,0.4-0.6,0.4-0.9c0-0.4-0.2-0.7-0.5-1c-0.4-0.3-1-0.5-1.9-0.5
		c-0.9,0-1.7,0.2-2.4,0.5c-0.7,0.3-1.3,0.8-1.8,1.2l-1.9-2.2c0.8-0.8,1.7-1.4,2.7-1.8c1-0.4,2.1-0.6,3.3-0.6c1.7,0,3.1,0.3,4,1
		c0.9,0.7,1.4,1.8,1.4,3.2c0,0.6-0.1,1.1-0.2,1.5c-0.2,0.4-0.4,0.8-0.7,1.2c-0.3,0.3-0.7,0.7-1.2,1c-0.5,0.3-1,0.6-1.6,0.9
		c-0.7,0.3-1.2,0.6-1.7,0.9c-0.5,0.3-0.8,0.6-1.1,0.8c-0.3,0.3-0.5,0.5-0.7,0.8c-0.2,0.3-0.3,0.5-0.4,0.8h7.8v2.8H392.2z"/>
	<path id="XMLID_262_" class="st1" d="M422.8,72.6l-1.2-3.3h-5.4l-1.2,3.3h-3.1l5.6-14.7h2.9l5.6,14.7H422.8z M419.7,63.9
		c-0.2-0.4-0.3-0.9-0.4-1.3c-0.1-0.4-0.2-0.8-0.3-1c-0.1,0.3-0.2,0.6-0.3,1c-0.1,0.4-0.3,0.8-0.4,1.3l-0.9,2.7h3.4L419.7,63.9z"/>
	<path id="XMLID_260_" class="st1" d="M432.8,66.2c0,1-0.1,1.9-0.3,2.7c-0.2,0.8-0.4,1.6-0.7,2.3c-0.3,0.7-0.7,1.4-1.2,2
		s-0.9,1.2-1.5,1.8l-1.9-1.3c0.4-0.5,0.7-1,1-1.5c0.3-0.5,0.6-1.1,0.8-1.7c0.2-0.6,0.4-1.2,0.5-1.9c0.1-0.7,0.2-1.4,0.2-2.2
		c0-0.8-0.1-1.6-0.2-2.3c-0.1-0.7-0.3-1.3-0.5-1.9s-0.5-1.2-0.8-1.7c-0.3-0.5-0.7-1-1-1.5l1.9-1.3c0.5,0.6,1,1.1,1.4,1.7
		c0.4,0.6,0.8,1.2,1.2,1.9c0.3,0.7,0.6,1.4,0.8,2.2C432.7,64.3,432.8,65.2,432.8,66.2z"/>
	<path id="XMLID_258_" class="st1" d="M447.8,72.1c-0.2,0.2-0.6,0.4-1,0.5c-0.4,0.1-0.8,0.2-1.3,0.2s-0.9-0.1-1.2-0.2
		c-0.4-0.2-0.7-0.4-0.9-0.7c-0.3-0.3-0.4-0.6-0.6-1c-0.1-0.4-0.2-0.9-0.2-1.3v-5.2h-1.8v-2.7h1.8v-2.8l2.9-1.4v4.3h2.6v2.7h-2.6v4.4
		c0,0.5,0.1,0.9,0.3,1.1s0.4,0.3,0.8,0.3c0.3,0,0.5-0.1,0.7-0.2c0.2-0.1,0.5-0.3,0.9-0.6L447.8,72.1z"/>
	<path id="XMLID_256_" class="st1" d="M457.5,72.6v-6c0-1-0.2-1.6-0.5-2c-0.3-0.4-0.8-0.5-1.4-0.5s-1.1,0.2-1.4,0.5
		c-0.3,0.4-0.5,1-0.5,2v6h-2.9V58.8l2.9-1.4v5c0.3-0.3,0.6-0.5,1-0.7c0.4-0.2,1-0.3,1.5-0.3c1.4,0,2.4,0.5,3.1,1.4
		c0.7,0.9,1,2.1,1,3.7v6.2H457.5z"/>
	<path id="XMLID_253_" class="st1" d="M469.2,72.6v-0.7c-0.3,0.3-0.6,0.5-1,0.7c-0.4,0.2-0.9,0.3-1.4,0.3c-0.5,0-1-0.1-1.5-0.2
		c-0.5-0.2-0.9-0.4-1.3-0.7c-0.4-0.3-0.7-0.7-0.9-1.2c-0.2-0.5-0.4-1.1-0.4-1.7c0-0.6,0.1-1.1,0.3-1.6c0.2-0.5,0.5-0.8,1-1.1
		s0.9-0.5,1.4-0.7c0.5-0.2,1.1-0.2,1.8-0.2c0.5,0,0.9,0,1.3,0.1c0.3,0.1,0.6,0.2,0.9,0.3v-0.5c0-0.4-0.1-0.7-0.4-1
		c-0.3-0.3-0.7-0.4-1.2-0.4c-0.3,0-0.6,0-0.9,0c-0.3,0-0.5,0.1-0.7,0.1c-0.2,0.1-0.5,0.1-0.7,0.2c-0.2,0.1-0.5,0.2-0.7,0.3l-1.1-2
		c0.3-0.2,0.6-0.3,0.9-0.5c0.3-0.1,0.6-0.3,0.9-0.3c0.3-0.1,0.7-0.2,1-0.2c0.4,0,0.8-0.1,1.2-0.1c0.7,0,1.3,0.1,1.8,0.3
		c0.5,0.2,1,0.4,1.4,0.7c0.4,0.3,0.7,0.7,0.9,1.2c0.2,0.5,0.3,1,0.3,1.6v7.4H469.2z M469.2,68c-0.3-0.2-0.5-0.3-0.8-0.3
		c-0.3-0.1-0.7-0.1-1.2-0.1c-0.5,0-1,0.1-1.2,0.4c-0.3,0.2-0.4,0.6-0.4,1c0,0.4,0.1,0.7,0.4,1c0.3,0.3,0.7,0.4,1.3,0.4
		c0.5,0,0.9-0.1,1.2-0.3s0.6-0.4,0.8-0.7V68z"/>
	<path id="XMLID_251_" class="st1" d="M480.9,72.1c-0.2,0.2-0.6,0.4-1,0.5c-0.4,0.1-0.8,0.2-1.3,0.2s-0.9-0.1-1.2-0.2
		c-0.4-0.2-0.7-0.4-0.9-0.7c-0.3-0.3-0.4-0.6-0.6-1c-0.1-0.4-0.2-0.9-0.2-1.3v-5.2h-1.8v-2.7h1.8v-2.8l2.9-1.4v4.3h2.6v2.7h-2.6v4.4
		c0,0.5,0.1,0.9,0.3,1.1s0.4,0.3,0.8,0.3c0.3,0,0.5-0.1,0.7-0.2c0.2-0.1,0.5-0.3,0.9-0.6L480.9,72.1z"/>
</g>
<g id="XMLID_123_">
	<path id="XMLID_247_" class="st1" d="M86.7,84.2c0,0.4-0.2,0.8-0.5,1.2c-0.3,0.3-0.7,0.5-1.2,0.5s-0.8-0.2-1.2-0.5
		c-0.3-0.3-0.5-0.7-0.5-1.2c0-0.4,0.2-0.8,0.5-1.2c0.3-0.3,0.7-0.5,1.2-0.5s0.8,0.2,1.2,0.5C86.5,83.3,86.7,83.7,86.7,84.2z
		 M83.6,97.7v-11h2.9v11H83.6z"/>
	<path id="XMLID_245_" class="st1" d="M96,97.7v-6c0-1-0.2-1.6-0.5-2c-0.3-0.4-0.8-0.5-1.4-0.5s-1.1,0.2-1.4,0.5
		c-0.3,0.4-0.5,1-0.5,2v6h-2.9v-11h2.9v0.7c0.3-0.3,0.6-0.5,1-0.7c0.4-0.2,1-0.3,1.5-0.3c1.4,0,2.4,0.5,3.1,1.4c0.7,0.9,1,2.1,1,3.7
		v6.2H96z"/>
	<path id="XMLID_243_" class="st1" d="M108.3,97.7v-6c0-1-0.2-1.6-0.5-2c-0.3-0.4-0.8-0.5-1.4-0.5s-1.1,0.2-1.4,0.5
		c-0.3,0.4-0.5,1-0.5,2v6h-2.9V83.9l2.9-1.4v5c0.3-0.3,0.6-0.5,1-0.7c0.4-0.2,1-0.3,1.5-0.3c1.4,0,2.4,0.5,3.1,1.4
		c0.7,0.9,1,2.1,1,3.7v6.2H108.3z"/>
	<path id="XMLID_240_" class="st1" d="M117.1,84.2c0,0.4-0.2,0.8-0.5,1.2c-0.3,0.3-0.7,0.5-1.2,0.5s-0.8-0.2-1.2-0.5
		c-0.3-0.3-0.5-0.7-0.5-1.2c0-0.4,0.2-0.8,0.5-1.2c0.3-0.3,0.7-0.5,1.2-0.5s0.8,0.2,1.2,0.5C116.9,83.3,117.1,83.7,117.1,84.2z
		 M114,97.7v-11h2.9v11H114z"/>
	<path id="XMLID_237_" class="st1" d="M129.3,92.4c0,0.8-0.1,1.6-0.3,2.3c-0.2,0.7-0.5,1.3-0.8,1.8c-0.4,0.5-0.8,0.9-1.3,1.2
		S125.7,98,125,98c-0.5,0-0.9-0.1-1.3-0.3s-0.7-0.4-1-0.6v0.6h-2.9V83.9l2.9-1.4v5c0.3-0.2,0.6-0.5,1-0.6c0.4-0.2,0.8-0.3,1.4-0.3
		c0.6,0,1.1,0.1,1.7,0.3c0.5,0.2,1,0.6,1.4,1.1c0.4,0.5,0.7,1.1,0.9,1.8C129.2,90.5,129.3,91.4,129.3,92.4z M126.3,92.4
		c0-1.1-0.2-1.9-0.5-2.5c-0.3-0.5-0.8-0.8-1.4-0.8c-0.4,0-0.8,0.1-1.1,0.3s-0.5,0.4-0.7,0.7v4.1c0.5,0.6,1.1,0.9,1.9,0.9
		C125.8,95.2,126.3,94.3,126.3,92.4z"/>
	<path id="XMLID_234_" class="st1" d="M134.8,84.2c0,0.4-0.2,0.8-0.5,1.2c-0.3,0.3-0.7,0.5-1.2,0.5s-0.8-0.2-1.2-0.5
		c-0.3-0.3-0.5-0.7-0.5-1.2c0-0.4,0.2-0.8,0.5-1.2c0.3-0.3,0.7-0.5,1.2-0.5s0.8,0.2,1.2,0.5C134.6,83.3,134.8,83.7,134.8,84.2z
		 M131.7,97.7v-11h2.9v11H131.7z"/>
	<path id="XMLID_232_" class="st1" d="M143.6,97.3c-0.2,0.2-0.6,0.4-1,0.5c-0.4,0.1-0.8,0.2-1.3,0.2s-0.9-0.1-1.2-0.2
		c-0.4-0.2-0.7-0.4-0.9-0.7c-0.3-0.3-0.4-0.6-0.6-1c-0.1-0.4-0.2-0.9-0.2-1.3v-5.2h-1.8v-2.7h1.8v-2.8l2.9-1.4v4.3h2.6v2.7h-2.6v4.4
		c0,0.5,0.1,0.9,0.3,1.1s0.4,0.3,0.8,0.3c0.3,0,0.5-0.1,0.7-0.2c0.2-0.1,0.5-0.3,0.9-0.6L143.6,97.3z"/>
	<path id="XMLID_230_" class="st1" d="M155.3,94.5c0,0.6-0.1,1.2-0.4,1.6c-0.2,0.4-0.6,0.8-1,1.1c-0.4,0.3-0.9,0.5-1.4,0.6
		c-0.5,0.1-1.1,0.2-1.7,0.2c-0.9,0-1.7-0.1-2.5-0.3c-0.8-0.2-1.5-0.5-2.1-0.9l1-2.2c0.6,0.3,1.2,0.6,1.8,0.7c0.6,0.2,1.3,0.3,2,0.3
		c0.6,0,1-0.1,1.2-0.2c0.2-0.1,0.3-0.3,0.3-0.6c0-0.3-0.1-0.5-0.3-0.6c-0.2-0.2-0.7-0.3-1.3-0.5c-0.7-0.2-1.3-0.4-1.8-0.6
		s-1-0.4-1.4-0.7c-0.4-0.3-0.7-0.6-0.9-1c-0.2-0.4-0.3-0.9-0.3-1.5c0-0.6,0.1-1.1,0.3-1.5s0.5-0.8,0.9-1c0.4-0.3,0.9-0.5,1.4-0.6
		c0.5-0.1,1.1-0.2,1.8-0.2c0.7,0,1.4,0.1,2.1,0.3c0.7,0.2,1.4,0.5,1.9,0.8l-0.9,2.3c-0.5-0.3-1.1-0.5-1.7-0.7
		c-0.6-0.1-1.1-0.2-1.5-0.2c-0.6,0-1,0.1-1.2,0.2c-0.2,0.1-0.3,0.3-0.3,0.5c0,0.1,0,0.2,0.1,0.3s0.2,0.2,0.3,0.3
		c0.2,0.1,0.4,0.2,0.7,0.3s0.7,0.2,1.2,0.4c0.5,0.2,1,0.3,1.4,0.5s0.8,0.4,1.2,0.7c0.3,0.3,0.6,0.6,0.8,1
		C155.2,93.5,155.3,94,155.3,94.5z"/>
	<path id="XMLID_227_" class="st1" d="M170,97.7V97c-0.3,0.3-0.6,0.5-1,0.7c-0.4,0.2-0.9,0.3-1.4,0.3c-0.5,0-1-0.1-1.5-0.2
		c-0.5-0.2-0.9-0.4-1.3-0.7c-0.4-0.3-0.7-0.7-0.9-1.2c-0.2-0.5-0.4-1.1-0.4-1.7c0-0.6,0.1-1.1,0.3-1.6c0.2-0.5,0.5-0.8,1-1.1
		s0.9-0.5,1.4-0.7c0.5-0.2,1.1-0.2,1.8-0.2c0.5,0,0.9,0,1.3,0.1c0.3,0.1,0.6,0.2,0.9,0.3v-0.5c0-0.4-0.1-0.7-0.4-1
		c-0.3-0.3-0.7-0.4-1.2-0.4c-0.3,0-0.6,0-0.9,0c-0.3,0-0.5,0.1-0.7,0.1c-0.2,0.1-0.5,0.1-0.7,0.2c-0.2,0.1-0.5,0.2-0.7,0.3l-1.1-2
		c0.3-0.2,0.6-0.3,0.9-0.5c0.3-0.1,0.6-0.3,0.9-0.3c0.3-0.1,0.7-0.2,1-0.2c0.4,0,0.8-0.1,1.2-0.1c0.7,0,1.3,0.1,1.8,0.3
		c0.5,0.2,1,0.4,1.4,0.7c0.4,0.3,0.7,0.7,0.9,1.2c0.2,0.5,0.3,1,0.3,1.6v7.4H170z M170,93.1c-0.3-0.2-0.5-0.3-0.8-0.3
		c-0.3-0.1-0.7-0.1-1.2-0.1c-0.5,0-1,0.1-1.2,0.4c-0.3,0.2-0.4,0.6-0.4,1c0,0.4,0.1,0.7,0.4,1c0.3,0.3,0.7,0.4,1.3,0.4
		c0.5,0,0.9-0.1,1.2-0.3s0.6-0.4,0.8-0.7V93.1z"/>
	<path id="XMLID_224_" class="st1" d="M185.1,92.4c0,0.8-0.1,1.6-0.3,2.3c-0.2,0.7-0.5,1.3-0.8,1.8c-0.4,0.5-0.8,0.9-1.3,1.2
		s-1.1,0.4-1.8,0.4c-0.5,0-0.9-0.1-1.3-0.3s-0.7-0.4-1-0.6v0.6h-2.9V83.9l2.9-1.4v5c0.3-0.2,0.6-0.5,1-0.6c0.4-0.2,0.8-0.3,1.4-0.3
		c0.6,0,1.1,0.1,1.7,0.3c0.5,0.2,1,0.6,1.4,1.1c0.4,0.5,0.7,1.1,0.9,1.8C185,90.5,185.1,91.4,185.1,92.4z M182.2,92.4
		c0-1.1-0.2-1.9-0.5-2.5c-0.3-0.5-0.8-0.8-1.4-0.8c-0.4,0-0.8,0.1-1.1,0.3s-0.5,0.4-0.7,0.7v4.1c0.5,0.6,1.1,0.9,1.9,0.9
		C181.6,95.2,182.2,94.3,182.2,92.4z"/>
	<path id="XMLID_218_" class="st1" d="M194,97.7v-6c0-1-0.2-1.6-0.5-2c-0.3-0.4-0.8-0.5-1.4-0.5s-1.1,0.2-1.4,0.5
		c-0.3,0.4-0.5,1-0.5,2v6h-2.9v-11h2.9v0.7c0.3-0.3,0.6-0.5,1-0.7c0.4-0.2,1-0.3,1.5-0.3c1.4,0,2.4,0.5,3.1,1.4c0.7,0.9,1,2.1,1,3.7
		v6.2H194z"/>
	<path id="XMLID_206_" class="st1" d="M209,92.2c0,0.8-0.1,1.6-0.4,2.3c-0.3,0.7-0.6,1.3-1,1.8c-0.4,0.5-1,0.9-1.6,1.2
		c-0.6,0.3-1.3,0.4-2,0.4s-1.4-0.1-2-0.4c-0.6-0.3-1.1-0.7-1.6-1.2s-0.8-1.1-1-1.8c-0.3-0.7-0.4-1.5-0.4-2.3s0.1-1.6,0.4-2.3
		c0.3-0.7,0.6-1.3,1-1.8c0.4-0.5,1-0.9,1.6-1.2c0.6-0.3,1.3-0.4,2-0.4s1.4,0.1,2,0.4c0.6,0.3,1.1,0.7,1.6,1.2c0.4,0.5,0.8,1.1,1,1.8
		C208.9,90.6,209,91.4,209,92.2z M206.1,92.2c0-0.8-0.2-1.6-0.5-2.1c-0.3-0.6-0.9-0.9-1.6-0.9c-0.7,0-1.2,0.3-1.5,0.8
		c-0.3,0.6-0.5,1.3-0.5,2.1s0.2,1.6,0.5,2.1c0.3,0.6,0.8,0.8,1.5,0.8c0.3,0,0.7-0.1,0.9-0.2c0.3-0.2,0.5-0.4,0.6-0.7
		s0.3-0.6,0.4-0.9C206,93,206.1,92.6,206.1,92.2z"/>
	<path id="XMLID_200_" class="st1" d="M217.7,90.1c-0.2-0.2-0.5-0.4-0.8-0.5c-0.3-0.1-0.6-0.2-0.9-0.2c-0.3,0-0.5,0-0.8,0.1
		c-0.2,0.1-0.4,0.2-0.6,0.4c-0.2,0.2-0.3,0.4-0.4,0.7c-0.1,0.3-0.1,0.7-0.1,1.2v6h-2.9v-11h2.9v0.7c0.3-0.3,0.6-0.5,0.9-0.7
		c0.4-0.2,0.8-0.3,1.3-0.3c0.5,0,0.9,0.1,1.2,0.2c0.3,0.2,0.6,0.3,0.8,0.5L217.7,90.1z"/>
	<path id="XMLID_190_" class="st1" d="M233.1,97.7v-6c0-1-0.1-1.6-0.4-2c-0.3-0.4-0.7-0.5-1.3-0.5c-0.6,0-1,0.2-1.3,0.5
		c-0.3,0.4-0.4,1-0.4,2v6h-2.9v-6c0-1-0.1-1.6-0.4-2c-0.3-0.4-0.7-0.5-1.3-0.5s-1,0.2-1.3,0.5c-0.3,0.4-0.4,1-0.4,2v6h-2.9v-11h2.9
		v0.7c0.3-0.3,0.6-0.5,1-0.7c0.4-0.2,0.9-0.3,1.5-0.3c0.7,0,1.3,0.1,1.7,0.3c0.5,0.2,0.9,0.6,1.3,1.1c0.4-0.4,0.8-0.7,1.4-1
		c0.5-0.3,1.2-0.4,2.1-0.4c0.7,0,1.3,0.1,1.8,0.3s0.9,0.6,1.2,1c0.3,0.4,0.5,1,0.7,1.6s0.2,1.3,0.2,2.1v6.2H233.1z"/>
	<path id="XMLID_178_" class="st1" d="M244.7,97.7V97c-0.3,0.3-0.6,0.5-1,0.7c-0.4,0.2-0.9,0.3-1.4,0.3c-0.5,0-1-0.1-1.5-0.2
		c-0.5-0.2-0.9-0.4-1.3-0.7c-0.4-0.3-0.7-0.7-0.9-1.2c-0.2-0.5-0.4-1.1-0.4-1.7c0-0.6,0.1-1.1,0.3-1.6c0.2-0.5,0.5-0.8,1-1.1
		s0.9-0.5,1.4-0.7c0.5-0.2,1.1-0.2,1.8-0.2c0.5,0,0.9,0,1.3,0.1c0.3,0.1,0.6,0.2,0.9,0.3v-0.5c0-0.4-0.1-0.7-0.4-1
		c-0.3-0.3-0.7-0.4-1.2-0.4c-0.3,0-0.6,0-0.9,0c-0.3,0-0.5,0.1-0.7,0.1c-0.2,0.1-0.5,0.1-0.7,0.2c-0.2,0.1-0.5,0.2-0.7,0.3l-1.1-2
		c0.3-0.2,0.6-0.3,0.9-0.5c0.3-0.1,0.6-0.3,0.9-0.3c0.3-0.1,0.7-0.2,1-0.2c0.4,0,0.8-0.1,1.2-0.1c0.7,0,1.3,0.1,1.8,0.3
		c0.5,0.2,1,0.4,1.4,0.7c0.4,0.3,0.7,0.7,0.9,1.2c0.2,0.5,0.3,1,0.3,1.6v7.4H244.7z M244.7,93.1c-0.3-0.2-0.5-0.3-0.8-0.3
		c-0.3-0.1-0.7-0.1-1.2-0.1c-0.5,0-1,0.1-1.2,0.4c-0.3,0.2-0.4,0.6-0.4,1c0,0.4,0.1,0.7,0.4,1c0.3,0.3,0.7,0.4,1.3,0.4
		c0.5,0,0.9-0.1,1.2-0.3s0.6-0.4,0.8-0.7V93.1z"/>
	<path id="XMLID_173_" class="st1" d="M250.4,97.7V83.9l2.9-1.4v15.3H250.4z"/>
	<path id="XMLID_169_" class="st1" d="M271.8,92.4c0,0.8-0.1,1.6-0.3,2.3c-0.2,0.7-0.5,1.3-0.8,1.8c-0.4,0.5-0.8,0.9-1.3,1.2
		s-1.1,0.4-1.8,0.4c-0.5,0-0.9-0.1-1.3-0.3s-0.7-0.4-1-0.6v0.6h-2.9V83.9l2.9-1.4v5c0.3-0.2,0.6-0.5,1-0.6c0.4-0.2,0.8-0.3,1.4-0.3
		c0.6,0,1.1,0.1,1.7,0.3c0.5,0.2,1,0.6,1.4,1.1c0.4,0.5,0.7,1.1,0.9,1.8C271.7,90.5,271.8,91.4,271.8,92.4z M268.9,92.4
		c0-1.1-0.2-1.9-0.5-2.5c-0.3-0.5-0.8-0.8-1.4-0.8c-0.4,0-0.8,0.1-1.1,0.3s-0.5,0.4-0.7,0.7v4.1c0.5,0.6,1.1,0.9,1.9,0.9
		C268.3,95.2,268.9,94.3,268.9,92.4z"/>
	<path id="XMLID_167_" class="st1" d="M280.6,97.7V97c-0.3,0.3-0.6,0.5-1,0.7c-0.4,0.2-1,0.3-1.5,0.3c-1.4,0-2.4-0.5-3.1-1.4
		c-0.7-0.9-1-2.1-1-3.7v-6.2h2.9v6c0,0.5,0,0.9,0.1,1.2c0.1,0.3,0.2,0.6,0.4,0.8c0.2,0.2,0.3,0.3,0.6,0.4c0.2,0.1,0.5,0.1,0.8,0.1
		c0.6,0,1.1-0.2,1.4-0.5c0.3-0.4,0.5-1,0.5-2v-6h2.9v11H280.6z"/>
	<path id="XMLID_165_" class="st1" d="M292.8,90.1c-0.2-0.2-0.5-0.4-0.8-0.5c-0.3-0.1-0.6-0.2-0.9-0.2c-0.3,0-0.5,0-0.8,0.1
		c-0.2,0.1-0.4,0.2-0.6,0.4c-0.2,0.2-0.3,0.4-0.4,0.7c-0.1,0.3-0.1,0.7-0.1,1.2v6h-2.9v-11h2.9v0.7c0.3-0.3,0.6-0.5,0.9-0.7
		c0.4-0.2,0.8-0.3,1.3-0.3c0.5,0,0.9,0.1,1.2,0.2c0.3,0.2,0.6,0.3,0.8,0.5L292.8,90.1z"/>
	<path id="XMLID_163_" class="st1" d="M303.6,94.5c0,0.6-0.1,1.2-0.4,1.6c-0.2,0.4-0.6,0.8-1,1.1c-0.4,0.3-0.9,0.5-1.4,0.6
		c-0.5,0.1-1.1,0.2-1.7,0.2c-0.9,0-1.7-0.1-2.5-0.3c-0.8-0.2-1.5-0.5-2.1-0.9l1-2.2c0.6,0.3,1.2,0.6,1.8,0.7c0.6,0.2,1.3,0.3,2,0.3
		c0.6,0,1-0.1,1.2-0.2c0.2-0.1,0.3-0.3,0.3-0.6c0-0.3-0.1-0.5-0.3-0.6c-0.2-0.2-0.7-0.3-1.3-0.5c-0.7-0.2-1.3-0.4-1.8-0.6
		s-1-0.4-1.4-0.7c-0.4-0.3-0.7-0.6-0.9-1c-0.2-0.4-0.3-0.9-0.3-1.5c0-0.6,0.1-1.1,0.3-1.5s0.5-0.8,0.9-1c0.4-0.3,0.9-0.5,1.4-0.6
		c0.5-0.1,1.1-0.2,1.8-0.2c0.7,0,1.4,0.1,2.1,0.3c0.7,0.2,1.4,0.5,1.9,0.8l-0.9,2.3c-0.5-0.3-1.1-0.5-1.7-0.7
		c-0.6-0.1-1.1-0.2-1.5-0.2c-0.6,0-1,0.1-1.2,0.2c-0.2,0.1-0.3,0.3-0.3,0.5c0,0.1,0,0.2,0.1,0.3s0.2,0.2,0.3,0.3
		c0.2,0.1,0.4,0.2,0.7,0.3s0.7,0.2,1.2,0.4c0.5,0.2,1,0.3,1.4,0.5s0.8,0.4,1.2,0.7c0.3,0.3,0.6,0.6,0.8,1
		C303.5,93.5,303.6,94,303.6,94.5z"/>
	<path id="XMLID_161_" class="st1" d="M312.1,97.3c-0.2,0.2-0.6,0.4-1,0.5c-0.4,0.1-0.8,0.2-1.3,0.2s-0.9-0.1-1.2-0.2
		c-0.4-0.2-0.7-0.4-0.9-0.7c-0.3-0.3-0.4-0.6-0.6-1c-0.1-0.4-0.2-0.9-0.2-1.3v-5.2h-1.8v-2.7h1.8v-2.8l2.9-1.4v4.3h2.6v2.7h-2.6v4.4
		c0,0.5,0.1,0.9,0.3,1.1s0.4,0.3,0.8,0.3c0.3,0,0.5-0.1,0.7-0.2c0.2-0.1,0.5-0.3,0.9-0.6L312.1,97.3z"/>
	<path id="XMLID_158_" class="st1" d="M318.4,84.2c0,0.4-0.2,0.8-0.5,1.2c-0.3,0.3-0.7,0.5-1.2,0.5s-0.8-0.2-1.2-0.5
		c-0.3-0.3-0.5-0.7-0.5-1.2c0-0.4,0.2-0.8,0.5-1.2c0.3-0.3,0.7-0.5,1.2-0.5s0.8,0.2,1.2,0.5C318.2,83.3,318.4,83.7,318.4,84.2z
		 M315.3,97.7v-11h2.9v11H315.3z"/>
	<path id="XMLID_156_" class="st1" d="M327.8,97.7v-6c0-1-0.2-1.6-0.5-2c-0.3-0.4-0.8-0.5-1.4-0.5s-1.1,0.2-1.4,0.5
		c-0.3,0.4-0.5,1-0.5,2v6h-2.9v-11h2.9v0.7c0.3-0.3,0.6-0.5,1-0.7c0.4-0.2,1-0.3,1.5-0.3c1.4,0,2.4,0.5,3.1,1.4c0.7,0.9,1,2.1,1,3.7
		v6.2H327.8z"/>
	<path id="XMLID_153_" class="st1" d="M342.3,95.9c0,0.9-0.1,1.7-0.2,2.4c-0.1,0.7-0.4,1.3-0.7,1.8c-0.3,0.5-0.8,0.9-1.4,1.2
		c-0.6,0.3-1.4,0.5-2.4,0.6l-1-2.2c0.6-0.1,1-0.2,1.4-0.3s0.7-0.3,0.9-0.5c0.2-0.2,0.4-0.4,0.5-0.7s0.1-0.6,0.1-1.1
		c-0.3,0.2-0.6,0.5-1,0.6c-0.4,0.2-0.8,0.3-1.4,0.3c-0.6,0-1.1-0.1-1.7-0.3c-0.5-0.2-1-0.6-1.4-1.1c-0.4-0.5-0.7-1.1-0.9-1.8
		c-0.2-0.7-0.3-1.6-0.3-2.7c0-0.8,0.1-1.6,0.3-2.3s0.5-1.3,0.8-1.8s0.8-0.9,1.3-1.2c0.5-0.3,1.1-0.4,1.8-0.4c0.5,0,0.9,0.1,1.3,0.3
		c0.4,0.2,0.7,0.4,1,0.6v-0.6h2.9V95.9z M339.4,90.2c-0.5-0.6-1.1-0.9-1.9-0.9c-1.1,0-1.7,0.9-1.7,2.8c0,1.1,0.2,1.9,0.5,2.5
		c0.3,0.5,0.8,0.8,1.4,0.8c0.4,0,0.8-0.1,1.1-0.3s0.5-0.4,0.7-0.7V90.2z"/>
	<path id="XMLID_150_" class="st1" d="M354.4,84.2c0,0.4-0.2,0.8-0.5,1.2c-0.3,0.3-0.7,0.5-1.2,0.5s-0.8-0.2-1.2-0.5
		c-0.3-0.3-0.5-0.7-0.5-1.2c0-0.4,0.2-0.8,0.5-1.2c0.3-0.3,0.7-0.5,1.2-0.5s0.8,0.2,1.2,0.5C354.2,83.3,354.4,83.7,354.4,84.2z
		 M351.3,97.7v-11h2.9v11H351.3z"/>
	<path id="XMLID_148_" class="st1" d="M363.8,97.7v-6c0-1-0.2-1.6-0.5-2c-0.3-0.4-0.8-0.5-1.4-0.5s-1.1,0.2-1.4,0.5
		c-0.3,0.4-0.5,1-0.5,2v6h-2.9v-11h2.9v0.7c0.3-0.3,0.6-0.5,1-0.7c0.4-0.2,1-0.3,1.5-0.3c1.4,0,2.4,0.5,3.1,1.4c0.7,0.9,1,2.1,1,3.7
		v6.2H363.8z"/>
	<path id="XMLID_145_" class="st1" d="M384.4,92.2c0,0.2,0,0.4,0,0.5c0,0.1,0,0.3,0,0.4h-6.6c0,0.4,0.1,0.7,0.3,1
		c0.1,0.3,0.3,0.5,0.5,0.6c0.2,0.2,0.4,0.3,0.7,0.4c0.3,0.1,0.5,0.1,0.8,0.1c0.4,0,0.8-0.1,1.1-0.2s0.6-0.3,0.8-0.6l2.1,1.7
		c-0.4,0.6-1,1-1.8,1.3S380.8,98,380,98c-0.8,0-1.5-0.1-2.1-0.4s-1.2-0.7-1.6-1.2c-0.4-0.5-0.8-1.1-1-1.8c-0.2-0.7-0.4-1.5-0.4-2.4
		c0-0.8,0.1-1.6,0.4-2.3c0.3-0.7,0.6-1.3,1-1.8c0.4-0.5,1-0.9,1.6-1.2c0.6-0.3,1.2-0.4,1.9-0.4c0.7,0,1.4,0.2,2,0.5s1.1,0.7,1.5,1.2
		c0.4,0.5,0.7,1.1,0.9,1.8C384.3,90.7,384.4,91.5,384.4,92.2z M381.6,91c0-0.3-0.1-0.5-0.2-0.7c-0.1-0.2-0.2-0.4-0.4-0.6
		c-0.2-0.2-0.4-0.3-0.6-0.5c-0.2-0.1-0.5-0.2-0.8-0.2c-0.5,0-1,0.2-1.3,0.6c-0.3,0.4-0.5,0.8-0.5,1.4H381.6z"/>
	<path id="XMLID_142_" class="st1" d="M396.2,92.4c0,0.8-0.1,1.6-0.3,2.3c-0.2,0.7-0.5,1.3-0.8,1.8c-0.4,0.5-0.8,0.9-1.3,1.2
		s-1.1,0.4-1.8,0.4c-0.5,0-0.9-0.1-1.3-0.3s-0.7-0.4-1-0.6v3.2l-2.9,1.4v-15h2.9v0.7c0.3-0.2,0.6-0.5,1-0.6c0.4-0.2,0.8-0.3,1.4-0.3
		c0.6,0,1.1,0.1,1.7,0.3c0.5,0.2,1,0.6,1.4,1.1c0.4,0.5,0.7,1.1,0.9,1.8C396.1,90.5,396.2,91.4,396.2,92.4z M393.3,92.4
		c0-1.1-0.2-1.9-0.5-2.5c-0.3-0.5-0.8-0.8-1.4-0.8c-0.4,0-0.8,0.1-1.1,0.3s-0.5,0.4-0.7,0.7v4.1c0.5,0.6,1.1,0.9,1.9,0.9
		C392.7,95.2,393.3,94.3,393.3,92.4z"/>
	<path id="XMLID_139_" class="st1" d="M401.7,84.2c0,0.4-0.2,0.8-0.5,1.2c-0.3,0.3-0.7,0.5-1.2,0.5s-0.8-0.2-1.2-0.5
		c-0.3-0.3-0.5-0.7-0.5-1.2c0-0.4,0.2-0.8,0.5-1.2c0.3-0.3,0.7-0.5,1.2-0.5s0.8,0.2,1.2,0.5C401.5,83.3,401.7,83.7,401.7,84.2z
		 M398.6,97.7v-11h2.9v11H398.6z"/>
	<path id="XMLID_137_" class="st1" d="M404.5,97.7V83.9l2.9-1.4v15.3H404.5z"/>
	<path id="XMLID_134_" class="st1" d="M419.3,92.2c0,0.2,0,0.4,0,0.5c0,0.1,0,0.3,0,0.4h-6.6c0,0.4,0.1,0.7,0.3,1
		c0.1,0.3,0.3,0.5,0.5,0.6c0.2,0.2,0.4,0.3,0.7,0.4c0.3,0.1,0.5,0.1,0.8,0.1c0.4,0,0.8-0.1,1.1-0.2s0.6-0.3,0.8-0.6l2.1,1.7
		c-0.4,0.6-1,1-1.8,1.3s-1.5,0.5-2.2,0.5c-0.8,0-1.5-0.1-2.1-0.4s-1.2-0.7-1.6-1.2c-0.4-0.5-0.8-1.1-1-1.8c-0.2-0.7-0.4-1.5-0.4-2.4
		c0-0.8,0.1-1.6,0.4-2.3c0.3-0.7,0.6-1.3,1-1.8c0.4-0.5,1-0.9,1.6-1.2c0.6-0.3,1.2-0.4,1.9-0.4c0.7,0,1.4,0.2,2,0.5s1.1,0.7,1.5,1.2
		c0.4,0.5,0.7,1.1,0.9,1.8C419.2,90.7,419.3,91.5,419.3,92.2z M416.5,91c0-0.3-0.1-0.5-0.2-0.7c-0.1-0.2-0.2-0.4-0.4-0.6
		c-0.2-0.2-0.4-0.3-0.6-0.5c-0.2-0.1-0.5-0.2-0.8-0.2c-0.5,0-1,0.2-1.3,0.6c-0.3,0.4-0.5,0.8-0.5,1.4H416.5z"/>
	<path id="XMLID_131_" class="st1" d="M431.1,92.4c0,0.8-0.1,1.6-0.3,2.3c-0.2,0.7-0.5,1.3-0.8,1.8c-0.4,0.5-0.8,0.9-1.3,1.2
		s-1.1,0.4-1.8,0.4c-0.5,0-0.9-0.1-1.3-0.3s-0.7-0.4-1-0.6v3.2l-2.9,1.4v-15h2.9v0.7c0.3-0.2,0.6-0.5,1-0.6c0.4-0.2,0.8-0.3,1.4-0.3
		c0.6,0,1.1,0.1,1.7,0.3c0.5,0.2,1,0.6,1.4,1.1c0.4,0.5,0.7,1.1,0.9,1.8C431,90.5,431.1,91.4,431.1,92.4z M428.1,92.4
		c0-1.1-0.2-1.9-0.5-2.5c-0.3-0.5-0.8-0.8-1.4-0.8c-0.4,0-0.8,0.1-1.1,0.3s-0.5,0.4-0.7,0.7v4.1c0.5,0.6,1.1,0.9,1.9,0.9
		C427.6,95.2,428.1,94.3,428.1,92.4z"/>
	<path id="XMLID_129_" class="st1" d="M439.4,97.3c-0.2,0.2-0.6,0.4-1,0.5c-0.4,0.1-0.8,0.2-1.3,0.2s-0.9-0.1-1.2-0.2
		c-0.4-0.2-0.7-0.4-0.9-0.7c-0.3-0.3-0.4-0.6-0.6-1c-0.1-0.4-0.2-0.9-0.2-1.3v-5.2h-1.8v-2.7h1.8v-2.8l2.9-1.4v4.3h2.6v2.7h-2.6v4.4
		c0,0.5,0.1,0.9,0.3,1.1s0.4,0.3,0.8,0.3c0.3,0,0.5-0.1,0.7-0.2c0.2-0.1,0.5-0.3,0.9-0.6L439.4,97.3z"/>
	<path id="XMLID_126_" class="st1" d="M445.7,84.2c0,0.4-0.2,0.8-0.5,1.2c-0.3,0.3-0.7,0.5-1.2,0.5s-0.8-0.2-1.2-0.5
		c-0.3-0.3-0.5-0.7-0.5-1.2c0-0.4,0.2-0.8,0.5-1.2c0.3-0.3,0.7-0.5,1.2-0.5s0.8,0.2,1.2,0.5C445.6,83.3,445.7,83.7,445.7,84.2z
		 M442.6,97.7v-11h2.9v11H442.6z"/>
	<path id="XMLID_124_" class="st1" d="M456.7,96.5c-0.3,0.3-0.6,0.5-1,0.8c-0.4,0.2-0.8,0.4-1.2,0.5S453.6,98,453,98
		c-0.7,0-1.4-0.1-2-0.4s-1.2-0.7-1.6-1.2c-0.5-0.5-0.8-1.1-1.1-1.8s-0.4-1.5-0.4-2.3s0.1-1.6,0.4-2.3s0.6-1.3,1.1-1.8
		c0.5-0.5,1-0.9,1.7-1.2c0.6-0.3,1.3-0.4,2.1-0.4c1,0,1.9,0.2,2.6,0.7c0.7,0.5,1.3,1,1.7,1.7l-1.9,1.9c-0.3-0.5-0.7-0.8-1.1-1.1
		c-0.4-0.3-0.9-0.4-1.5-0.4c-0.7,0-1.3,0.3-1.7,0.8s-0.6,1.3-0.6,2.2c0,0.9,0.2,1.6,0.6,2.1c0.4,0.5,1,0.8,1.7,0.8
		c0.6,0,1.1-0.1,1.4-0.4c0.4-0.2,0.8-0.6,1.2-1l1.8,1.7C457.3,95.9,457,96.2,456.7,96.5z"/>
</g>
<g id="XMLID_102_">
	<path id="XMLID_121_" class="st1" d="M91.7,121.7c-0.3,0.3-0.6,0.5-1,0.8c-0.4,0.2-0.8,0.4-1.2,0.5s-0.9,0.2-1.5,0.2
		c-0.7,0-1.4-0.1-2-0.4s-1.2-0.7-1.6-1.2c-0.5-0.5-0.8-1.1-1.1-1.8s-0.4-1.5-0.4-2.3s0.1-1.6,0.4-2.3s0.6-1.3,1.1-1.8
		c0.5-0.5,1-0.9,1.7-1.2c0.6-0.3,1.3-0.4,2.1-0.4c1,0,1.9,0.2,2.6,0.7c0.7,0.5,1.3,1,1.7,1.7l-1.9,1.9c-0.3-0.5-0.7-0.8-1.1-1.1
		c-0.4-0.3-0.9-0.4-1.5-0.4c-0.7,0-1.3,0.3-1.7,0.8s-0.6,1.3-0.6,2.2c0,0.9,0.2,1.6,0.6,2.1c0.4,0.5,1,0.8,1.7,0.8
		c0.6,0,1.1-0.1,1.4-0.4c0.4-0.2,0.8-0.6,1.2-1l1.8,1.7C92.3,121,92,121.4,91.7,121.7z"/>
	<path id="XMLID_118_" class="st1" d="M97.9,109.3c0,0.4-0.2,0.8-0.5,1.2c-0.3,0.3-0.7,0.5-1.2,0.5s-0.8-0.2-1.2-0.5
		c-0.3-0.3-0.5-0.7-0.5-1.2c0-0.4,0.2-0.8,0.5-1.2c0.3-0.3,0.7-0.5,1.2-0.5s0.8,0.2,1.2,0.5C97.8,108.5,97.9,108.9,97.9,109.3z
		 M94.8,122.9v-11h2.9v11H94.8z"/>
	<path id="XMLID_116_" class="st1" d="M107.1,115.3c-0.2-0.2-0.5-0.4-0.8-0.5c-0.3-0.1-0.6-0.2-0.9-0.2c-0.3,0-0.5,0-0.8,0.1
		c-0.2,0.1-0.4,0.2-0.6,0.4c-0.2,0.2-0.3,0.4-0.4,0.7c-0.1,0.3-0.1,0.7-0.1,1.2v6h-2.9v-11h2.9v0.7c0.3-0.3,0.6-0.5,0.9-0.7
		c0.4-0.2,0.8-0.3,1.3-0.3c0.5,0,0.9,0.1,1.2,0.2c0.3,0.2,0.6,0.3,0.8,0.5L107.1,115.3z"/>
	<path id="XMLID_114_" class="st1" d="M117.5,121.7c-0.3,0.3-0.6,0.5-1,0.8c-0.4,0.2-0.8,0.4-1.2,0.5s-0.9,0.2-1.5,0.2
		c-0.7,0-1.4-0.1-2-0.4s-1.2-0.7-1.6-1.2c-0.5-0.5-0.8-1.1-1.1-1.8s-0.4-1.5-0.4-2.3s0.1-1.6,0.4-2.3s0.6-1.3,1.1-1.8
		c0.5-0.5,1-0.9,1.7-1.2c0.6-0.3,1.3-0.4,2.1-0.4c1,0,1.9,0.2,2.6,0.7c0.7,0.5,1.3,1,1.7,1.7l-1.9,1.9c-0.3-0.5-0.7-0.8-1.1-1.1
		c-0.4-0.3-0.9-0.4-1.5-0.4c-0.7,0-1.3,0.3-1.7,0.8s-0.6,1.3-0.6,2.2c0,0.9,0.2,1.6,0.6,2.1c0.4,0.5,1,0.8,1.7,0.8
		c0.6,0,1.1-0.1,1.4-0.4c0.4-0.2,0.8-0.6,1.2-1l1.8,1.7C118.1,121,117.8,121.4,117.5,121.7z"/>
	<path id="XMLID_112_" class="st1" d="M127,122.9v-0.7c-0.3,0.3-0.6,0.5-1,0.7c-0.4,0.2-1,0.3-1.5,0.3c-1.4,0-2.4-0.5-3.1-1.4
		c-0.7-0.9-1-2.1-1-3.7v-6.2h2.9v6c0,0.5,0,0.9,0.1,1.2c0.1,0.3,0.2,0.6,0.4,0.8c0.2,0.2,0.3,0.3,0.6,0.4c0.2,0.1,0.5,0.1,0.8,0.1
		c0.6,0,1.1-0.2,1.4-0.5c0.3-0.4,0.5-1,0.5-2v-6h2.9v11H127z"/>
	<path id="XMLID_109_" class="st1" d="M135.9,109.3c0,0.4-0.2,0.8-0.5,1.2c-0.3,0.3-0.7,0.5-1.2,0.5s-0.8-0.2-1.2-0.5
		c-0.3-0.3-0.5-0.7-0.5-1.2c0-0.4,0.2-0.8,0.5-1.2c0.3-0.3,0.7-0.5,1.2-0.5s0.8,0.2,1.2,0.5C135.7,108.5,135.9,108.9,135.9,109.3z
		 M132.8,122.9v-11h2.9v11H132.8z"/>
	<path id="XMLID_107_" class="st1" d="M144.8,122.4c-0.2,0.2-0.6,0.4-1,0.5c-0.4,0.1-0.8,0.2-1.3,0.2s-0.9-0.1-1.2-0.2
		c-0.4-0.2-0.7-0.4-0.9-0.7c-0.3-0.3-0.4-0.6-0.6-1c-0.1-0.4-0.2-0.9-0.2-1.3v-5.2h-1.8v-2.7h1.8v-2.8l2.9-1.4v4.3h2.6v2.7h-2.6v4.4
		c0,0.5,0.1,0.9,0.3,1.1s0.4,0.3,0.8,0.3c0.3,0,0.5-0.1,0.7-0.2c0.2-0.1,0.5-0.3,0.9-0.6L144.8,122.4z"/>
	<path id="XMLID_105_" class="st1" d="M156.5,119.7c0,0.6-0.1,1.2-0.4,1.6c-0.2,0.4-0.6,0.8-1,1.1c-0.4,0.3-0.9,0.5-1.4,0.6
		c-0.5,0.1-1.1,0.2-1.7,0.2c-0.9,0-1.7-0.1-2.5-0.3c-0.8-0.2-1.5-0.5-2.1-0.9l1-2.2c0.6,0.3,1.2,0.6,1.8,0.7c0.6,0.2,1.3,0.3,2,0.3
		c0.6,0,1-0.1,1.2-0.2c0.2-0.1,0.3-0.3,0.3-0.6c0-0.3-0.1-0.5-0.3-0.6c-0.2-0.2-0.7-0.3-1.3-0.5c-0.7-0.2-1.3-0.4-1.8-0.6
		s-1-0.4-1.4-0.7c-0.4-0.3-0.7-0.6-0.9-1c-0.2-0.4-0.3-0.9-0.3-1.5c0-0.6,0.1-1.1,0.3-1.5s0.5-0.8,0.9-1c0.4-0.3,0.9-0.5,1.4-0.6
		c0.5-0.1,1.1-0.2,1.8-0.2c0.7,0,1.4,0.1,2.1,0.3c0.7,0.2,1.4,0.5,1.9,0.8l-0.9,2.3c-0.5-0.3-1.1-0.5-1.7-0.7
		c-0.6-0.1-1.1-0.2-1.5-0.2c-0.6,0-1,0.1-1.2,0.2c-0.2,0.1-0.3,0.3-0.3,0.5c0,0.1,0,0.2,0.1,0.3s0.2,0.2,0.3,0.3
		c0.2,0.1,0.4,0.2,0.7,0.3s0.7,0.2,1.2,0.4c0.5,0.2,1,0.3,1.4,0.5s0.8,0.4,1.2,0.7c0.3,0.3,0.6,0.6,0.8,1
		C156.4,118.7,156.5,119.1,156.5,119.7z"/>
	<path id="XMLID_103_" class="st1" d="M162.4,121.1c0,0.3-0.1,0.5-0.2,0.8c-0.1,0.2-0.2,0.4-0.4,0.6c-0.2,0.2-0.4,0.3-0.6,0.4
		c-0.2,0.1-0.5,0.2-0.8,0.2c-0.3,0-0.5-0.1-0.8-0.2c-0.2-0.1-0.4-0.2-0.6-0.4c-0.2-0.2-0.3-0.4-0.4-0.6c-0.1-0.2-0.2-0.5-0.2-0.8
		c0-0.3,0.1-0.5,0.2-0.8c0.1-0.2,0.2-0.4,0.4-0.6c0.2-0.2,0.4-0.3,0.6-0.4c0.2-0.1,0.5-0.2,0.8-0.2c0.3,0,0.5,0.1,0.8,0.2
		c0.2,0.1,0.4,0.2,0.6,0.4c0.2,0.2,0.3,0.4,0.4,0.6C162.4,120.6,162.4,120.9,162.4,121.1z"/>
</g>
<g id="XMLID_1_">
	<g id="XMLID_3_">
		<polygon id="XMLID_52_" class="st1" points="94.9,36.9 90.6,29.3 88.4,31.9 88.4,36.9 85.1,36.9 85.1,20.2 88.4,20.2 88.4,27.5 
			94.3,20.2 98.3,20.2 92.7,26.8 98.7,36.9 		"/>
		<path id="XMLID_49_" class="st1" d="M121.3,23.1h-3.1v4.6h3.1c1.5,0,2.4-0.9,2.4-2.3C123.7,24,122.8,23.1,121.3,23.1 M121.4,30.6
			h-3.2v6.3H115V20.2h6.5c3.5,0,5.5,2.4,5.5,5.2C127,28.2,124.9,30.6,121.4,30.6"/>
		<path id="XMLID_46_" class="st1" d="M136.1,23.1H133v4.4h3.1c1.4,0,2.4-0.9,2.4-2.2C138.4,24,137.5,23.1,136.1,23.1 M138.6,36.9
			l-3.3-6.7H133v6.7h-3.3V20.2h6.6c3.4,0,5.4,2.3,5.4,5.1c0,2.3-1.4,3.8-3.1,4.4l3.7,7.2H138.6z"/>
		<path id="XMLID_43_" class="st1" d="M150.7,25.1l-2.1,6.1h4.2L150.7,25.1z M154.6,36.9l-1-3h-5.9l-1,3h-3.4l6.1-16.7h2.6l6.1,16.7
			H154.6z"/>
		<path id="XMLID_40_" class="st1" d="M168.2,24.1c-0.6-0.7-1.3-1-2.4-1h-2.5V34h2.5c1.1,0,1.9-0.4,2.4-1c0.6-0.8,0.7-1.9,0.7-4.5
			C168.9,25.9,168.8,24.9,168.2,24.1 M170.5,35.3c-1.1,1.1-2.7,1.6-4.4,1.6h-6V20.2h6c1.7,0,3.3,0.5,4.4,1.6
			c1.9,1.9,1.7,4.2,1.7,6.7C172.2,31,172.4,33.4,170.5,35.3"/>
		<rect id="XMLID_39_" x="175.5" y="20.2" class="st1" width="3.3" height="16.7"/>
		<polygon id="XMLID_38_" class="st1" points="182.7,36.9 182.7,20.2 186,20.2 186,34 193.5,34 193.5,36.9 		"/>
		<polygon id="XMLID_37_" class="st1" points="84.7,39.3 85.9,39.3 85.9,49.2 92.8,49.2 92.8,50.3 84.7,50.3 		"/>
		<path id="XMLID_34_" class="st1" d="M101.1,45.7c-0.3-2-1.8-2.7-3.3-2.7c-1.5,0-3,0.8-3.3,2.7H101.1z M102,47.7
			c-0.5,1.4-1.7,2.8-4.3,2.8c-3.3,0-4.3-2.3-4.3-4.2c0-2.2,1.4-4.2,4.3-4.2c2.1,0,4.5,0.9,4.5,4.5h-7.7c0,1.7,1.2,3,3.2,3
			c1.9,0,2.8-0.6,3.2-1.8H102z"/>
		<polygon id="XMLID_33_" class="st1" points="110.1,42.3 111.4,42.3 107.6,50.3 106.4,50.3 102.7,42.3 103.9,42.3 107,49 		"/>
		<path id="XMLID_30_" class="st1" d="M119.6,45.7c-0.3-2-1.8-2.7-3.3-2.7c-1.5,0-3,0.8-3.3,2.7H119.6z M120.5,47.7
			c-0.5,1.4-1.7,2.8-4.3,2.8c-3.3,0-4.3-2.3-4.3-4.2c0-2.2,1.4-4.2,4.3-4.2c2.1,0,4.5,0.9,4.5,4.5H113c0,1.7,1.2,3,3.2,3
			c1.9,0,2.8-0.6,3.2-1.8H120.5z"/>
		<path id="XMLID_29_" class="st1" d="M122.9,39.8h1.1v2.5h2.3v0.9H124v5.3c0,0.7,0.2,1,1.1,1c0.6,0,0.9,0,1.1-0.1v1
			c-0.4,0.1-0.9,0.1-1.2,0.1c-1.8,0-2.1-0.7-2.1-2v-5.3h-1.7v-0.9h1.7V39.8z"/>
		<path id="XMLID_26_" class="st1" d="M127.5,42.3h1.1v8h-1.1V42.3z M127.5,39.2h1.1v1.7h-1.1V39.2z"/>
		<path id="XMLID_25_" class="st1" d="M130.3,42.3h1.1v1.8h0c0.4-1,1.2-2.1,3.1-2.1c0.3,0,0.5,0,0.7,0.1v1.2c-0.4-0.1-0.7-0.1-1-0.1
			c-1.2,0-2.7,0.8-2.7,3v4.1h-1.1V42.3z"/>
		<path id="XMLID_22_" class="st1" d="M142.3,46c-0.5,0.3-1.3,0.4-3.5,0.6c-1.3,0.1-2.1,0.5-2.1,1.5c0,1.2,1.1,1.6,2.3,1.6
			c1.5,0,3.3-0.8,3.3-2.5V46z M135.9,44.8c0.2-1.7,1.1-2.7,3.8-2.7c2.7,0,3.7,0.8,3.7,2.4v4.2c0,0.7,0.2,0.9,0.6,0.9
			c0.2,0,0.4,0,0.6,0v0.8c-0.2,0-0.6,0.1-1,0.1c-1.2,0-1.2-0.8-1.2-1.4h0c-0.4,0.5-1.1,1.6-3.7,1.6c-1.4,0-3.1-0.6-3.1-2.4
			c0-2.2,2.2-2.4,4-2.5c2.5-0.1,2.8-0.3,2.8-1.1c0-1.2-0.8-1.6-2.6-1.6c-1.8,0-2.7,0.5-2.7,1.7H135.9z"/>
		<path id="XMLID_21_" class="st1" d="M153.5,47.4c-0.2,1-1.1,3.1-4,3.1c-2.9,0-4.5-1.7-4.5-4.2c0-2.4,1.5-4.2,4.5-4.2
			c2.7,0,3.8,1.7,4,2.9h-1.1c-0.4-1.4-1.4-1.9-2.8-1.9c-2.3,0-3.4,1.4-3.4,3.3c0,2,1.2,3.3,3.4,3.3c1.7,0,2.6-0.9,2.9-2.1H153.5z"/>
		<path id="XMLID_18_" class="st1" d="M162.2,45.7c-0.3-2-1.8-2.7-3.3-2.7c-1.5,0-3,0.8-3.3,2.7H162.2z M163.1,47.7
			c-0.5,1.4-1.7,2.8-4.3,2.8c-3.3,0-4.3-2.3-4.3-4.2c0-2.2,1.4-4.2,4.3-4.2c2.1,0,4.5,0.9,4.5,4.5h-7.7c0,1.7,1.2,3,3.2,3
			c1.9,0,2.8-0.6,3.2-1.8H163.1z"/>
		<path id="XMLID_17_" class="st1" d="M165.4,39.8h1.1v2.5h2.3v0.9h-2.3v5.3c0,0.7,0.2,1,1.1,1c0.6,0,0.9,0,1.1-0.1v1
			c-0.4,0.1-0.9,0.1-1.2,0.1c-1.8,0-2.1-0.7-2.1-2v-5.3h-1.7v-0.9h1.7V39.8z"/>
		<path id="XMLID_14_" class="st1" d="M176.4,46c-0.5,0.3-1.3,0.4-3.5,0.6c-1.3,0.1-2.1,0.5-2.1,1.5c0,1.2,1.1,1.6,2.3,1.6
			c1.5,0,3.3-0.8,3.3-2.5V46z M170,44.8c0.2-1.7,1.1-2.7,3.8-2.7c2.7,0,3.7,0.8,3.7,2.4v4.2c0,0.7,0.2,0.9,0.6,0.9
			c0.2,0,0.4,0,0.6,0v0.8c-0.2,0-0.6,0.1-1,0.1c-1.2,0-1.2-0.8-1.2-1.4h0c-0.4,0.5-1.1,1.6-3.7,1.6c-1.4,0-3.1-0.6-3.1-2.4
			c0-2.2,2.2-2.4,4-2.5c2.5-0.1,2.8-0.3,2.8-1.1c0-1.2-0.8-1.6-2.6-1.6c-1.8,0-2.7,0.5-2.7,1.7H170z"/>
		<path id="XMLID_13_" class="st1" d="M191.9,45.2c0-1.5-0.7-2.2-2.4-2.2c-1.7,0-2.7,1-2.7,2.6v4.7h-1.1v-5.4c0-1-0.7-1.9-2.3-1.9
			c-1.6,0-2.8,0.9-2.8,2.8v4.5h-1.1v-8h1.1v1.5h0c0.5-0.8,1.3-1.7,3.2-1.7c1.8,0,2.6,1,2.9,1.7c0.4-0.8,1.5-1.7,3.1-1.7
			c2.2,0,3.3,1.1,3.3,2.8v5.4h-1.1V45.2z"/>
		<path id="XMLID_8_" class="st1" d="M190.4,22.8c0.4,0,0.7,0,0.7-0.4c0-0.3-0.3-0.4-0.6-0.4H190v0.8H190.4z M189.6,21.7h1
			c0.6,0,0.9,0.2,0.9,0.7c0,0.5-0.3,0.7-0.7,0.7l0.7,1.1h-0.4l-0.7-1.1H190v1.1h-0.4V21.7z M192.3,23c0-1-0.8-1.8-1.8-1.8
			s-1.8,0.8-1.8,1.8c0,1,0.8,1.8,1.8,1.8S192.3,24,192.3,23 M190.5,20.8c1.2,0,2.2,1,2.2,2.2c0,1.2-1,2.2-2.2,2.2
			c-1.2,0-2.2-1-2.2-2.2C188.3,21.8,189.3,20.8,190.5,20.8"/>
		<polygon id="XMLID_7_" class="st1" points="100.8,36.9 111.8,36.9 111.8,34 104.1,34 104.1,30.6 100.8,30.6 		"/>
		<path id="XMLID_6_" class="st1" d="M99.4,29.3c0,0,1.4-3,6.6-3c5.2,0,8.1-1.8,8.1-1.8s-3.7,3.9-7.4,3.9
			C103.1,28.3,100.9,28.3,99.4,29.3"/>
		<path id="XMLID_5_" class="st1" d="M97.9,32.1c0,0,1.4-3,6.6-3s8.1-1.8,8.1-1.8s-3.7,3.8-7.4,3.8C101.6,31.1,99.4,31.1,97.9,32.1"
			/>
		<polygon id="XMLID_4_" class="st1" points="100.8,27.7 104.1,27.7 104.1,23.1 111.8,23.1 111.8,20.2 100.8,20.2 		"/>
	</g>
</g>
</svg>
