<!-- Generator: Adobe Illustrator 22.1.0, SVG Export Plug-In  -->
<svg version="1.1"
	 xmlns="http://www.w3.org/2000/svg" xmlns:xlink="http://www.w3.org/1999/xlink" xmlns:a="http://ns.adobe.com/AdobeSVGViewerExtensions/3.0/"
	 x="0px" y="0px" width="595.7px" height="347.4px" viewBox="0 0 595.7 347.4" style="enable-background:new 0 0 595.7 347.4;"
	 xml:space="preserve">
<style type="text/css">
	.st0{fill:none;stroke:#532D6D;stroke-width:1.4639;}
	.st1{fill:#595A5C;}
	.st2{fill:none;stroke:#BDBEC1;stroke-width:0.4094;}
	.st3{fill:none;stroke:#BDBEC1;stroke-width:0.2047;}
	.st4{fill:url(#XMLID_367_);}
	.st5{fill:url(#XMLID_368_);}
	.st6{fill:url(#XMLID_369_);}
	.st7{fill:url(#XMLID_370_);}
	.st8{fill:url(#XMLID_371_);}
	.st9{fill:url(#XMLID_372_);}
	.st10{fill:none;stroke:#BDBEC1;stroke-width:0.4799;}
	.st11{fill:url(#XMLID_373_);}
	.st12{fill:url(#XMLID_374_);}
	.st13{fill:url(#XMLID_375_);}
	.st14{fill:url(#XMLID_376_);}
	.st15{fill:url(#XMLID_377_);}
	.st16{fill:url(#XMLID_378_);}
	.st17{fill:url(#XMLID_379_);}
	.st18{fill:url(#XMLID_380_);}
	.st19{fill:url(#XMLID_381_);}
	.st20{fill:url(#XMLID_382_);}
</style>
<defs>
</defs>
<polygon id="XMLID_366_" class="st0" points="0.7,0.7 0.7,33 0.7,54.8 0.7,346.6 594.9,346.6 594.9,0.7 "/>
<g id="XMLID_362_">
	<path id="XMLID_363_" class="st1" d="M45.5,323.1c0,0.6-0.1,1.2-0.2,1.7s-0.3,0.9-0.6,1.3c-0.3,0.4-0.6,0.6-1,0.8
		c-0.4,0.2-0.8,0.3-1.4,0.3s-1-0.1-1.4-0.3c-0.4-0.2-0.7-0.5-1-0.8c-0.3-0.4-0.5-0.8-0.6-1.3c-0.1-0.5-0.2-1-0.2-1.7
		c0-0.6,0.1-1.1,0.2-1.6c0.1-0.5,0.3-0.9,0.6-1.3c0.3-0.4,0.6-0.6,1-0.8s0.8-0.3,1.4-0.3c0.5,0,1,0.1,1.4,0.3c0.4,0.2,0.7,0.5,1,0.8
		c0.3,0.4,0.5,0.8,0.6,1.3C45.4,322,45.5,322.5,45.5,323.1z M44.3,323.1c0-0.4,0-0.8-0.1-1.2c-0.1-0.4-0.2-0.7-0.3-0.9
		c-0.2-0.3-0.4-0.5-0.6-0.6c-0.2-0.2-0.5-0.2-0.9-0.2s-0.6,0.1-0.9,0.2c-0.2,0.1-0.4,0.4-0.6,0.6c-0.2,0.3-0.3,0.6-0.3,0.9
		c-0.1,0.4-0.1,0.7-0.1,1.2c0,0.4,0,0.8,0.1,1.2c0.1,0.4,0.2,0.7,0.3,0.9c0.2,0.3,0.4,0.5,0.6,0.6c0.2,0.2,0.5,0.2,0.9,0.2
		c0.3,0,0.6-0.1,0.9-0.2c0.2-0.1,0.4-0.4,0.6-0.6c0.2-0.3,0.3-0.6,0.3-0.9C44.3,323.9,44.3,323.5,44.3,323.1z"/>
</g>
<g id="XMLID_314_">
	<path id="XMLID_360_" class="st1" d="M89.1,339.9c0,0.4-0.1,0.7-0.2,1c-0.1,0.3-0.3,0.5-0.5,0.8c-0.2,0.2-0.5,0.4-0.9,0.5
		c-0.4,0.1-0.8,0.2-1.3,0.2c-0.6,0-1.1-0.1-1.6-0.3c-0.5-0.2-0.9-0.5-1.2-0.9l0.8-0.8c0.3,0.3,0.6,0.5,0.9,0.7
		c0.4,0.2,0.7,0.3,1.1,0.3c1.1,0,1.6-0.4,1.6-1.2c0-0.2,0-0.3-0.1-0.4c-0.1-0.1-0.2-0.2-0.3-0.3c-0.1-0.1-0.3-0.2-0.6-0.3
		c-0.2-0.1-0.5-0.2-0.8-0.3c-0.4-0.1-0.8-0.2-1.1-0.4c-0.3-0.1-0.6-0.3-0.8-0.4s-0.4-0.4-0.5-0.6c-0.1-0.2-0.2-0.5-0.2-0.9
		c0-0.3,0.1-0.6,0.2-0.9c0.1-0.3,0.3-0.5,0.6-0.7c0.2-0.2,0.5-0.3,0.8-0.4c0.3-0.1,0.7-0.2,1-0.2c0.5,0,1,0.1,1.4,0.3
		s0.8,0.5,1.2,0.8L88,336c-0.2-0.3-0.5-0.4-0.8-0.6c-0.3-0.1-0.6-0.2-1-0.2c-0.5,0-0.8,0.1-1,0.3c-0.2,0.2-0.3,0.4-0.3,0.7
		c0,0.1,0,0.3,0.1,0.4s0.1,0.2,0.3,0.3c0.1,0.1,0.3,0.2,0.5,0.3c0.2,0.1,0.5,0.2,0.8,0.3c0.4,0.1,0.7,0.2,1.1,0.4
		c0.3,0.1,0.6,0.3,0.8,0.5s0.4,0.4,0.5,0.6C89.1,339.2,89.1,339.5,89.1,339.9z"/>
	<path id="XMLID_357_" class="st1" d="M95.4,339.1c0,0.1,0,0.2,0,0.3c0,0.1,0,0.2,0,0.2h-3.9c0,0.3,0.1,0.5,0.2,0.7
		c0.1,0.2,0.2,0.4,0.3,0.5s0.3,0.2,0.5,0.3c0.2,0.1,0.3,0.1,0.5,0.1c0.2,0,0.5,0,0.7-0.1c0.2-0.1,0.4-0.2,0.6-0.3l0.7,0.7
		c-0.3,0.2-0.6,0.4-0.9,0.6c-0.3,0.1-0.7,0.2-1.2,0.2c-0.3,0-0.7-0.1-1-0.2c-0.3-0.1-0.6-0.3-0.8-0.6c-0.2-0.3-0.4-0.6-0.6-1
		c-0.1-0.4-0.2-0.8-0.2-1.3c0-0.5,0.1-0.9,0.2-1.3s0.3-0.7,0.5-1c0.2-0.3,0.5-0.5,0.8-0.6c0.3-0.1,0.7-0.2,1.1-0.2
		c0.4,0,0.8,0.1,1.1,0.2c0.3,0.2,0.6,0.4,0.8,0.6c0.2,0.3,0.4,0.6,0.5,1C95.4,338.3,95.4,338.7,95.4,339.1z M94.3,338.6
		c0-0.2-0.1-0.4-0.1-0.6c-0.1-0.2-0.1-0.3-0.3-0.5c-0.1-0.1-0.3-0.2-0.4-0.3c-0.2-0.1-0.4-0.1-0.6-0.1c-0.4,0-0.7,0.1-0.9,0.4
		c-0.2,0.3-0.4,0.6-0.4,1.1H94.3z"/>
	<path id="XMLID_354_" class="st1" d="M98.3,334.7c0,0.2-0.1,0.4-0.2,0.5c-0.1,0.1-0.3,0.2-0.5,0.2c-0.2,0-0.4-0.1-0.5-0.2
		c-0.1-0.1-0.2-0.3-0.2-0.5c0-0.2,0.1-0.4,0.2-0.5c0.1-0.1,0.3-0.2,0.5-0.2c0.2,0,0.4,0.1,0.5,0.2C98.2,334.3,98.3,334.5,98.3,334.7
		z M97,342.2v-5.9h1.2v5.9H97z"/>
	<path id="XMLID_352_" class="st1" d="M99.7,342.2v-0.9l2.5-3.1c0.1-0.2,0.2-0.3,0.4-0.5s0.2-0.3,0.3-0.4c-0.1,0-0.1,0-0.2,0
		s-0.2,0-0.3,0c-0.1,0-0.2,0-0.3,0c-0.1,0-0.2,0-0.3,0h-2v-1h4.4v0.9l-2.5,3.1c-0.1,0.2-0.2,0.3-0.4,0.5c-0.1,0.2-0.2,0.3-0.3,0.4
		c0.1,0,0.1,0,0.2,0s0.2,0,0.3,0c0.1,0,0.2,0,0.3,0s0.2,0,0.3,0h2.1v1H99.7z"/>
	<path id="XMLID_350_" class="st1" d="M109.3,342.2v-0.6c-0.2,0.2-0.4,0.4-0.6,0.5c-0.3,0.1-0.6,0.2-0.9,0.2c-0.7,0-1.2-0.2-1.6-0.7
		c-0.4-0.4-0.5-1.1-0.5-2v-3.4h1.2v3.4c0,0.6,0.1,1,0.3,1.3c0.2,0.2,0.5,0.4,0.9,0.4c0.4,0,0.7-0.1,0.9-0.4c0.2-0.3,0.3-0.6,0.3-1.1
		v-3.5h1.2v5.9H109.3z"/>
	<path id="XMLID_348_" class="st1" d="M115.4,337.5c-0.1-0.1-0.3-0.1-0.4-0.2c-0.1,0-0.3-0.1-0.5-0.1c-0.4,0-0.7,0.1-0.9,0.4
		c-0.2,0.3-0.3,0.6-0.3,1.1v3.4h-1.2v-5.9h1.2v0.6c0.1-0.2,0.3-0.4,0.6-0.5c0.2-0.1,0.5-0.2,0.8-0.2c0.2,0,0.4,0,0.6,0.1
		s0.3,0.1,0.4,0.2L115.4,337.5z"/>
	<path id="XMLID_345_" class="st1" d="M121.4,339.1c0,0.1,0,0.2,0,0.3c0,0.1,0,0.2,0,0.2h-3.9c0,0.3,0.1,0.5,0.2,0.7
		c0.1,0.2,0.2,0.4,0.3,0.5s0.3,0.2,0.5,0.3c0.2,0.1,0.3,0.1,0.5,0.1c0.2,0,0.5,0,0.7-0.1c0.2-0.1,0.4-0.2,0.6-0.3l0.7,0.7
		c-0.3,0.2-0.6,0.4-0.9,0.6c-0.3,0.1-0.7,0.2-1.2,0.2c-0.3,0-0.7-0.1-1-0.2c-0.3-0.1-0.6-0.3-0.8-0.6c-0.2-0.3-0.4-0.6-0.6-1
		c-0.1-0.4-0.2-0.8-0.2-1.3c0-0.5,0.1-0.9,0.2-1.3s0.3-0.7,0.5-1c0.2-0.3,0.5-0.5,0.8-0.6c0.3-0.1,0.7-0.2,1.1-0.2
		c0.4,0,0.8,0.1,1.1,0.2c0.3,0.2,0.6,0.4,0.8,0.6c0.2,0.3,0.4,0.6,0.5,1C121.4,338.3,121.4,338.7,121.4,339.1z M120.3,338.6
		c0-0.2-0.1-0.4-0.1-0.6c-0.1-0.2-0.1-0.3-0.3-0.5c-0.1-0.1-0.3-0.2-0.4-0.3c-0.2-0.1-0.4-0.1-0.6-0.1c-0.4,0-0.7,0.1-0.9,0.4
		c-0.2,0.3-0.4,0.6-0.4,1.1H120.3z"/>
	<path id="XMLID_343_" class="st1" d="M128.1,335c-0.2,0-0.3,0-0.4,0.1s-0.1,0.2-0.1,0.5v0.7h1.1v1.1h-1.1v4.8h-1.2v-4.8h-0.8v-1.1
		h0.8v-0.8c0-0.3,0-0.5,0.1-0.7s0.2-0.3,0.3-0.5c0.1-0.1,0.3-0.2,0.5-0.3c0.2-0.1,0.4-0.1,0.6-0.1c0.2,0,0.3,0,0.5,0
		c0.2,0,0.3,0,0.4,0.1v1C128.5,335,128.2,335,128.1,335z"/>
	<path id="XMLID_341_" class="st1" d="M133.3,337.5c-0.1-0.1-0.3-0.1-0.4-0.2c-0.1,0-0.3-0.1-0.5-0.1c-0.4,0-0.7,0.1-0.9,0.4
		c-0.2,0.3-0.3,0.6-0.3,1.1v3.4H130v-5.9h1.2v0.6c0.1-0.2,0.3-0.4,0.6-0.5c0.2-0.1,0.5-0.2,0.8-0.2c0.2,0,0.4,0,0.6,0.1
		s0.3,0.1,0.4,0.2L133.3,337.5z"/>
	<path id="XMLID_338_" class="st1" d="M139.3,339.1c0,0.1,0,0.2,0,0.3c0,0.1,0,0.2,0,0.2h-3.9c0,0.3,0.1,0.5,0.2,0.7
		c0.1,0.2,0.2,0.4,0.3,0.5s0.3,0.2,0.5,0.3c0.2,0.1,0.3,0.1,0.5,0.1c0.2,0,0.5,0,0.7-0.1c0.2-0.1,0.4-0.2,0.6-0.3l0.7,0.7
		c-0.3,0.2-0.6,0.4-0.9,0.6c-0.3,0.1-0.7,0.2-1.2,0.2c-0.3,0-0.7-0.1-1-0.2c-0.3-0.1-0.6-0.3-0.8-0.6c-0.2-0.3-0.4-0.6-0.6-1
		c-0.1-0.4-0.2-0.8-0.2-1.3c0-0.5,0.1-0.9,0.2-1.3s0.3-0.7,0.5-1c0.2-0.3,0.5-0.5,0.8-0.6c0.3-0.1,0.7-0.2,1.1-0.2
		c0.4,0,0.8,0.1,1.1,0.2c0.3,0.2,0.6,0.4,0.8,0.6c0.2,0.3,0.4,0.6,0.5,1C139.3,338.3,139.3,338.7,139.3,339.1z M138.1,338.6
		c0-0.2-0.1-0.4-0.1-0.6c-0.1-0.2-0.1-0.3-0.3-0.5c-0.1-0.1-0.3-0.2-0.4-0.3c-0.2-0.1-0.4-0.1-0.6-0.1c-0.4,0-0.7,0.1-0.9,0.4
		c-0.2,0.3-0.4,0.6-0.4,1.1H138.1z"/>
	<path id="XMLID_335_" class="st1" d="M145.6,339.1c0,0.1,0,0.2,0,0.3c0,0.1,0,0.2,0,0.2h-3.9c0,0.3,0.1,0.5,0.2,0.7
		c0.1,0.2,0.2,0.4,0.3,0.5s0.3,0.2,0.5,0.3c0.2,0.1,0.3,0.1,0.5,0.1c0.2,0,0.5,0,0.7-0.1c0.2-0.1,0.4-0.2,0.6-0.3l0.7,0.7
		c-0.3,0.2-0.6,0.4-0.9,0.6c-0.3,0.1-0.7,0.2-1.2,0.2c-0.3,0-0.7-0.1-1-0.2c-0.3-0.1-0.6-0.3-0.8-0.6c-0.2-0.3-0.4-0.6-0.6-1
		c-0.1-0.4-0.2-0.8-0.2-1.3c0-0.5,0.1-0.9,0.2-1.3s0.3-0.7,0.5-1c0.2-0.3,0.5-0.5,0.8-0.6c0.3-0.1,0.7-0.2,1.1-0.2
		c0.4,0,0.8,0.1,1.1,0.2c0.3,0.2,0.6,0.4,0.8,0.6c0.2,0.3,0.4,0.6,0.5,1C145.5,338.3,145.6,338.7,145.6,339.1z M144.4,338.6
		c0-0.2-0.1-0.4-0.1-0.6c-0.1-0.2-0.1-0.3-0.3-0.5c-0.1-0.1-0.3-0.2-0.4-0.3c-0.2-0.1-0.4-0.1-0.6-0.1c-0.4,0-0.7,0.1-0.9,0.4
		c-0.2,0.3-0.4,0.6-0.4,1.1H144.4z"/>
	<path id="XMLID_332_" class="st1" d="M155.1,339.3c0,0.5-0.1,1-0.2,1.3s-0.3,0.7-0.5,0.9c-0.2,0.2-0.5,0.4-0.7,0.6
		s-0.6,0.2-0.9,0.2c-0.3,0-0.6-0.1-0.8-0.2c-0.3-0.1-0.5-0.3-0.6-0.5v2.1l-1.2,0.6v-8.1h1.2l0,0.6c0.2-0.2,0.5-0.4,0.7-0.5
		c0.2-0.1,0.5-0.2,0.8-0.2s0.6,0.1,0.9,0.2c0.3,0.1,0.5,0.3,0.7,0.6c0.2,0.3,0.4,0.6,0.5,1C155,338.2,155.1,338.7,155.1,339.3z
		 M153.9,339.3c0-0.8-0.1-1.3-0.3-1.6c-0.2-0.3-0.6-0.5-1-0.5c-0.3,0-0.5,0.1-0.8,0.2c-0.2,0.2-0.4,0.3-0.6,0.5v2.5
		c0.1,0.1,0.2,0.2,0.2,0.3c0.1,0.1,0.2,0.2,0.3,0.2c0.1,0.1,0.2,0.1,0.4,0.2c0.1,0,0.3,0.1,0.4,0.1c0.4,0,0.7-0.2,1-0.5
		C153.8,340.4,153.9,339.9,153.9,339.3z"/>
	<path id="XMLID_329_" class="st1" d="M159.8,342.2v-0.6c-0.2,0.2-0.4,0.4-0.7,0.5c-0.3,0.1-0.6,0.2-0.9,0.2c-0.2,0-0.5,0-0.7-0.1
		c-0.2-0.1-0.5-0.2-0.7-0.3c-0.2-0.2-0.4-0.4-0.5-0.6c-0.1-0.3-0.2-0.6-0.2-0.9c0-0.3,0.1-0.6,0.2-0.9s0.3-0.4,0.5-0.6
		s0.5-0.3,0.7-0.4c0.3-0.1,0.6-0.1,0.9-0.1c0.5,0,1,0.1,1.3,0.2v-0.4c0-0.3-0.1-0.6-0.3-0.7c-0.2-0.2-0.5-0.3-0.8-0.3
		c-0.3,0-0.6,0-0.8,0.1c-0.2,0.1-0.5,0.2-0.7,0.3l-0.5-0.9c0.3-0.2,0.6-0.3,0.9-0.4c0.3-0.1,0.7-0.1,1.1-0.1c0.7,0,1.2,0.2,1.6,0.5
		c0.4,0.3,0.6,0.8,0.6,1.5v4.1H159.8z M159.8,339.6c-0.2-0.1-0.3-0.1-0.6-0.2c-0.2,0-0.5-0.1-0.8-0.1c-0.4,0-0.7,0.1-0.9,0.2
		s-0.3,0.4-0.3,0.6c0,0.3,0.1,0.5,0.3,0.7c0.2,0.2,0.5,0.3,0.9,0.3c0.3,0,0.6-0.1,0.9-0.2s0.4-0.3,0.6-0.5V339.6z"/>
	<path id="XMLID_327_" class="st1" d="M165.5,342c-0.1,0.1-0.3,0.1-0.5,0.2c-0.2,0-0.4,0.1-0.6,0.1c-0.4,0-0.7-0.1-1-0.4
		c-0.2-0.3-0.4-0.7-0.4-1.2v-3.4h-0.8v-1.1h0.8v-1.7l1.1-0.6v2.3h1.5v1.1h-1.5v3.2c0,0.3,0,0.5,0.1,0.6c0.1,0.1,0.3,0.1,0.5,0.1
		c0.2,0,0.3,0,0.5-0.1s0.3-0.1,0.4-0.2L165.5,342z"/>
	<path id="XMLID_324_" class="st1" d="M168.6,334.7c0,0.2-0.1,0.4-0.2,0.5c-0.1,0.1-0.3,0.2-0.5,0.2c-0.2,0-0.4-0.1-0.5-0.2
		c-0.1-0.1-0.2-0.3-0.2-0.5c0-0.2,0.1-0.4,0.2-0.5c0.1-0.1,0.3-0.2,0.5-0.2c0.2,0,0.4,0.1,0.5,0.2
		C168.5,334.3,168.6,334.5,168.6,334.7z M167.3,342.2v-5.9h1.2v5.9H167.3z"/>
	<path id="XMLID_321_" class="st1" d="M175,339.1c0,0.1,0,0.2,0,0.3c0,0.1,0,0.2,0,0.2H171c0,0.3,0.1,0.5,0.2,0.7
		c0.1,0.2,0.2,0.4,0.3,0.5s0.3,0.2,0.5,0.3c0.2,0.1,0.3,0.1,0.5,0.1c0.2,0,0.5,0,0.7-0.1c0.2-0.1,0.4-0.2,0.6-0.3l0.7,0.7
		c-0.3,0.2-0.6,0.4-0.9,0.6c-0.3,0.1-0.7,0.2-1.2,0.2c-0.3,0-0.7-0.1-1-0.2c-0.3-0.1-0.6-0.3-0.8-0.6c-0.2-0.3-0.4-0.6-0.6-1
		c-0.1-0.4-0.2-0.8-0.2-1.3c0-0.5,0.1-0.9,0.2-1.3s0.3-0.7,0.5-1c0.2-0.3,0.5-0.5,0.8-0.6c0.3-0.1,0.7-0.2,1.1-0.2
		c0.4,0,0.8,0.1,1.1,0.2c0.3,0.2,0.6,0.4,0.8,0.6c0.2,0.3,0.4,0.6,0.5,1C175,338.3,175,338.7,175,339.1z M173.8,338.6
		c0-0.2-0.1-0.4-0.1-0.6c-0.1-0.2-0.1-0.3-0.3-0.5c-0.1-0.1-0.3-0.2-0.4-0.3c-0.2-0.1-0.4-0.1-0.6-0.1c-0.4,0-0.7,0.1-0.9,0.4
		c-0.2,0.3-0.4,0.6-0.4,1.1H173.8z"/>
	<path id="XMLID_319_" class="st1" d="M180.1,342.2v-3.3c0-0.6-0.1-1-0.3-1.3c-0.2-0.2-0.5-0.4-0.9-0.4c-0.4,0-0.7,0.1-0.9,0.4
		c-0.2,0.3-0.3,0.6-0.3,1.1v3.5h-1.2v-5.9h1.2v0.6c0.2-0.2,0.4-0.4,0.6-0.5c0.3-0.1,0.6-0.2,0.9-0.2c0.7,0,1.2,0.2,1.6,0.7
		c0.4,0.4,0.5,1.1,0.5,2v3.4H180.1z"/>
	<path id="XMLID_317_" class="st1" d="M185.7,342c-0.1,0.1-0.3,0.1-0.5,0.2c-0.2,0-0.4,0.1-0.6,0.1c-0.4,0-0.7-0.1-1-0.4
		c-0.2-0.3-0.4-0.7-0.4-1.2v-3.4h-0.8v-1.1h0.8v-1.7l1.1-0.6v2.3h1.5v1.1h-1.5v3.2c0,0.3,0,0.5,0.1,0.6c0.1,0.1,0.3,0.1,0.5,0.1
		c0.2,0,0.3,0,0.5-0.1s0.3-0.1,0.4-0.2L185.7,342z"/>
	<path id="XMLID_315_" class="st1" d="M191.5,340.5c0,0.3-0.1,0.6-0.2,0.8c-0.1,0.2-0.3,0.4-0.5,0.5c-0.2,0.1-0.4,0.2-0.7,0.3
		c-0.3,0.1-0.5,0.1-0.8,0.1c-0.4,0-0.8-0.1-1.2-0.2c-0.4-0.1-0.8-0.3-1.1-0.5l0.5-0.9c0.3,0.2,0.6,0.3,0.9,0.4
		c0.3,0.1,0.6,0.1,0.9,0.1c0.7,0,1.1-0.2,1.1-0.7c0-0.2-0.1-0.4-0.4-0.5c-0.2-0.1-0.6-0.3-1-0.5c-0.3-0.1-0.6-0.2-0.8-0.4
		c-0.2-0.1-0.4-0.3-0.5-0.4c-0.1-0.1-0.2-0.3-0.3-0.5c-0.1-0.2-0.1-0.4-0.1-0.6c0-0.3,0-0.5,0.1-0.7c0.1-0.2,0.2-0.4,0.4-0.5
		s0.4-0.2,0.6-0.3c0.2-0.1,0.5-0.1,0.8-0.1c0.4,0,0.7,0.1,1.1,0.2c0.4,0.1,0.7,0.3,0.9,0.5l-0.5,0.9c-0.2-0.2-0.5-0.3-0.7-0.4
		c-0.2-0.1-0.5-0.1-0.8-0.1c-0.3,0-0.5,0.1-0.6,0.2c-0.1,0.1-0.2,0.2-0.2,0.4c0,0.1,0,0.1,0,0.2c0,0.1,0.1,0.1,0.2,0.2
		c0.1,0.1,0.2,0.1,0.3,0.2c0.1,0.1,0.3,0.2,0.6,0.2c0.3,0.1,0.6,0.3,0.9,0.4s0.5,0.2,0.6,0.4c0.2,0.1,0.3,0.3,0.4,0.5
		S191.5,340.3,191.5,340.5z"/>
</g>
<g id="XMLID_307_">
	<path id="XMLID_312_" class="st1" d="M276.8,341.5c-0.5,0.5-1.2,0.8-2.1,0.8c-0.7,0-1.3-0.2-1.8-0.6s-0.8-0.9-1-1.5l1.2-0.3
		c0.2,0.4,0.4,0.7,0.6,0.9c0.3,0.2,0.6,0.3,1,0.3c0.6,0,1-0.2,1.2-0.5c0.2-0.3,0.4-0.9,0.4-1.6v-4.7h1.2v4.8
		C277.4,340.1,277.2,340.9,276.8,341.5z"/>
	<path id="XMLID_310_" class="st1" d="M285.4,342.2V338c0-0.1,0-0.2,0-0.4s0-0.3,0-0.4s0-0.3,0-0.4s0-0.2,0-0.2
		c0,0.1-0.1,0.3-0.2,0.5c-0.1,0.2-0.2,0.5-0.3,0.7l-1.9,4.5l-1.9-4.5c-0.1-0.2-0.2-0.5-0.3-0.7c-0.1-0.2-0.2-0.4-0.2-0.5
		c0,0.1,0,0.1,0,0.2s0,0.2,0,0.4s0,0.3,0,0.4s0,0.3,0,0.4v4.2h-1.1v-7.9h1.2l1.8,4.2c0.1,0.2,0.2,0.5,0.3,0.7
		c0.1,0.3,0.2,0.5,0.2,0.6c0.1-0.2,0.1-0.4,0.2-0.6c0.1-0.3,0.2-0.5,0.3-0.7l1.7-4.2h1.3v7.9H285.4z"/>
	<path id="XMLID_308_" class="st1" d="M288.6,342.2v-7.9h5.1v1.2h-3.9v2h2.3v1.2h-2.3v2.5h4.1v1.2H288.6z"/>
</g>
<g id="XMLID_298_">
	<path id="XMLID_305_" class="st1" d="M420.2,340.4c-0.1,0.4-0.4,0.7-0.6,1c-0.3,0.3-0.6,0.5-1,0.6c-0.4,0.1-0.8,0.2-1.2,0.2
		c-0.5,0-1-0.1-1.4-0.3c-0.4-0.2-0.8-0.5-1.1-0.8c-0.3-0.4-0.5-0.8-0.7-1.3c-0.2-0.5-0.2-1-0.2-1.7c0-0.6,0.1-1.1,0.2-1.6
		s0.4-0.9,0.7-1.3c0.3-0.4,0.6-0.6,1.1-0.8c0.4-0.2,0.9-0.3,1.4-0.3c0.6,0,1.2,0.1,1.6,0.4c0.4,0.3,0.8,0.6,1.1,1.1l-1,0.6
		c-0.2-0.3-0.4-0.6-0.7-0.7c-0.2-0.2-0.6-0.2-1-0.2c-0.7,0-1.2,0.3-1.6,0.8c-0.4,0.5-0.5,1.2-0.5,2.1c0,0.9,0.2,1.6,0.5,2.1
		c0.4,0.5,0.9,0.8,1.6,0.8c0.3,0,0.6,0,0.8-0.1c0.2-0.1,0.4-0.2,0.6-0.4c0.1-0.2,0.2-0.4,0.3-0.6s0.1-0.4,0.1-0.7v0H418v-1.1h2.5
		v0.9C420.5,339.6,420.4,340,420.2,340.4z"/>
	<path id="XMLID_303_" class="st1" d="M424.8,335.4v6.7h-1.2v-6.7h-2.3v-1.2h5.8v1.2H424.8z"/>
	<path id="XMLID_301_" class="st1" d="M432.9,341.9c-0.5,0.3-1,0.4-1.6,0.4c-0.5,0-1-0.1-1.4-0.3c-0.4-0.2-0.8-0.5-1.1-0.8
		c-0.3-0.4-0.5-0.8-0.7-1.3c-0.2-0.5-0.2-1-0.2-1.7c0-0.6,0.1-1.1,0.2-1.6s0.4-0.9,0.7-1.3c0.3-0.4,0.6-0.6,1.1-0.8
		c0.4-0.2,0.9-0.3,1.4-0.3c0.6,0,1.2,0.1,1.6,0.4c0.4,0.3,0.8,0.6,1.1,1.1l-1.1,0.7c-0.2-0.3-0.4-0.6-0.7-0.7s-0.6-0.2-1-0.2
		c-0.7,0-1.2,0.3-1.6,0.8c-0.4,0.5-0.5,1.2-0.5,2.1c0,0.9,0.2,1.6,0.5,2.1c0.4,0.5,0.9,0.8,1.6,0.8c0.4,0,0.8-0.1,1-0.2
		c0.3-0.2,0.5-0.4,0.7-0.7l1,0.7C433.7,341.3,433.4,341.6,432.9,341.9z"/>
	<path id="XMLID_299_" class="st1" d="M440.9,339.9c0,0.4-0.1,0.7-0.2,1c-0.1,0.3-0.3,0.5-0.5,0.8c-0.2,0.2-0.5,0.4-0.9,0.5
		c-0.4,0.1-0.8,0.2-1.3,0.2c-0.6,0-1.1-0.1-1.6-0.3c-0.5-0.2-0.9-0.5-1.2-0.9l0.8-0.8c0.3,0.3,0.6,0.5,0.9,0.7
		c0.4,0.2,0.7,0.3,1.1,0.3c1.1,0,1.6-0.4,1.6-1.2c0-0.2,0-0.3-0.1-0.4c-0.1-0.1-0.2-0.2-0.3-0.3c-0.1-0.1-0.3-0.2-0.6-0.3
		c-0.2-0.1-0.5-0.2-0.8-0.3c-0.4-0.1-0.8-0.2-1.1-0.4c-0.3-0.1-0.6-0.3-0.8-0.4s-0.4-0.4-0.5-0.6c-0.1-0.2-0.2-0.5-0.2-0.9
		c0-0.3,0.1-0.6,0.2-0.9c0.1-0.3,0.3-0.5,0.6-0.7c0.2-0.2,0.5-0.3,0.8-0.4c0.3-0.1,0.7-0.2,1-0.2c0.5,0,1,0.1,1.4,0.3
		s0.8,0.5,1.2,0.8l-0.8,0.8c-0.2-0.3-0.5-0.4-0.8-0.6c-0.3-0.1-0.6-0.2-1-0.2c-0.5,0-0.8,0.1-1,0.3c-0.2,0.2-0.3,0.4-0.3,0.7
		c0,0.1,0,0.3,0.1,0.4s0.1,0.2,0.3,0.3c0.1,0.1,0.3,0.2,0.5,0.3c0.2,0.1,0.5,0.2,0.8,0.3c0.4,0.1,0.7,0.2,1.1,0.4
		c0.3,0.1,0.6,0.3,0.8,0.5s0.4,0.4,0.5,0.6C440.8,339.2,440.9,339.5,440.9,339.9z"/>
</g>
<g id="XMLID_292_">
	<path id="XMLID_296_" class="st1" d="M36.4,294.6v-6.1H35v-0.8c0.4,0,0.8-0.1,1.1-0.3c0.3-0.2,0.5-0.4,0.6-0.8h1v7.9H36.4z"/>
	<path id="XMLID_293_" class="st1" d="M45.5,290.6c0,0.6-0.1,1.2-0.2,1.7s-0.3,0.9-0.6,1.3c-0.3,0.4-0.6,0.6-1,0.8
		c-0.4,0.2-0.8,0.3-1.4,0.3s-1-0.1-1.4-0.3c-0.4-0.2-0.7-0.5-1-0.8c-0.3-0.4-0.5-0.8-0.6-1.3c-0.1-0.5-0.2-1-0.2-1.7
		c0-0.6,0.1-1.1,0.2-1.6c0.1-0.5,0.3-0.9,0.6-1.3c0.3-0.4,0.6-0.6,1-0.8s0.8-0.3,1.4-0.3c0.5,0,1,0.1,1.4,0.3c0.4,0.2,0.7,0.5,1,0.8
		c0.3,0.4,0.5,0.8,0.6,1.3C45.4,289.5,45.5,290,45.5,290.6z M44.3,290.6c0-0.4,0-0.8-0.1-1.2c-0.1-0.4-0.2-0.7-0.3-0.9
		c-0.2-0.3-0.4-0.5-0.6-0.6c-0.2-0.2-0.5-0.2-0.9-0.2s-0.6,0.1-0.9,0.2c-0.2,0.1-0.4,0.4-0.6,0.6c-0.2,0.3-0.3,0.6-0.3,0.9
		c-0.1,0.4-0.1,0.7-0.1,1.2c0,0.4,0,0.8,0.1,1.2c0.1,0.4,0.2,0.7,0.3,0.9c0.2,0.3,0.4,0.5,0.6,0.6c0.2,0.2,0.5,0.2,0.9,0.2
		c0.3,0,0.6-0.1,0.9-0.2c0.2-0.1,0.4-0.4,0.6-0.6c0.2-0.3,0.3-0.6,0.3-0.9C44.3,291.4,44.3,291,44.3,290.6z"/>
</g>
<g id="XMLID_286_">
	<path id="XMLID_290_" class="st1" d="M32.2,262.1c0-0.6,0.1-1.1,0.3-1.5s0.4-0.8,0.7-1.1c0.3-0.3,0.6-0.6,0.9-0.9
		c0.4-0.3,0.7-0.5,1.1-0.7c0.3-0.2,0.5-0.3,0.7-0.4c0.2-0.1,0.3-0.3,0.4-0.4c0.1-0.1,0.2-0.2,0.2-0.4c0-0.1,0.1-0.2,0.1-0.4
		c0-0.3-0.1-0.6-0.4-0.8c-0.2-0.2-0.6-0.3-1.2-0.3c-0.3,0-0.7,0.1-1,0.2c-0.3,0.1-0.6,0.3-0.9,0.6l-0.8-0.9c0.4-0.3,0.8-0.6,1.2-0.8
		c0.5-0.2,1-0.3,1.5-0.3c0.8,0,1.5,0.2,2,0.5c0.5,0.4,0.7,0.9,0.7,1.6c0,0.3,0,0.6-0.1,0.8c-0.1,0.2-0.2,0.4-0.4,0.6
		s-0.4,0.4-0.6,0.6c-0.3,0.2-0.6,0.4-0.9,0.6c-0.4,0.2-0.7,0.4-0.9,0.6c-0.3,0.2-0.5,0.4-0.6,0.5s-0.3,0.3-0.4,0.5
		c-0.1,0.2-0.2,0.3-0.2,0.5h4.2v1.2H32.2z"/>
	<path id="XMLID_287_" class="st1" d="M45.5,258.1c0,0.6-0.1,1.2-0.2,1.7s-0.3,0.9-0.6,1.3c-0.3,0.4-0.6,0.6-1,0.8
		c-0.4,0.2-0.8,0.3-1.4,0.3s-1-0.1-1.4-0.3c-0.4-0.2-0.7-0.5-1-0.8c-0.3-0.4-0.5-0.8-0.6-1.3c-0.1-0.5-0.2-1-0.2-1.7
		c0-0.6,0.1-1.1,0.2-1.6c0.1-0.5,0.3-0.9,0.6-1.3c0.3-0.4,0.6-0.6,1-0.8s0.8-0.3,1.4-0.3c0.5,0,1,0.1,1.4,0.3c0.4,0.2,0.7,0.5,1,0.8
		c0.3,0.4,0.5,0.8,0.6,1.3C45.4,257,45.5,257.5,45.5,258.1z M44.3,258.2c0-0.4,0-0.8-0.1-1.2c-0.1-0.4-0.2-0.7-0.3-0.9
		c-0.2-0.3-0.4-0.5-0.6-0.6c-0.2-0.2-0.5-0.2-0.9-0.2s-0.6,0.1-0.9,0.2c-0.2,0.1-0.4,0.4-0.6,0.6c-0.2,0.3-0.3,0.6-0.3,0.9
		c-0.1,0.4-0.1,0.7-0.1,1.2c0,0.4,0,0.8,0.1,1.2c0.1,0.4,0.2,0.7,0.3,0.9c0.2,0.3,0.4,0.5,0.6,0.6c0.2,0.2,0.5,0.2,0.9,0.2
		c0.3,0,0.6-0.1,0.9-0.2c0.2-0.1,0.4-0.4,0.6-0.6c0.2-0.3,0.3-0.6,0.3-0.9C44.3,259,44.3,258.6,44.3,258.2z"/>
</g>
<g id="XMLID_280_">
	<path id="XMLID_284_" class="st1" d="M38,227.3c0,0.8-0.3,1.4-0.8,1.8s-1.2,0.6-2.2,0.6c-0.3,0-0.6,0-0.8-0.1
		c-0.3-0.1-0.5-0.1-0.8-0.3c-0.3-0.1-0.5-0.3-0.7-0.4s-0.4-0.3-0.5-0.5l0.9-0.8c0.2,0.3,0.5,0.5,0.9,0.7c0.3,0.1,0.7,0.2,1.1,0.2
		c0.6,0,1.1-0.1,1.3-0.3c0.3-0.2,0.4-0.5,0.4-1s-0.1-0.7-0.4-0.9c-0.3-0.2-0.6-0.3-1-0.3h-0.7v-1.2h0.7c0.4,0,0.6-0.1,0.8-0.3
		c0.2-0.2,0.3-0.5,0.3-0.8c0-0.1,0-0.2-0.1-0.4c0-0.1-0.1-0.2-0.2-0.4c-0.1-0.1-0.3-0.2-0.5-0.3c-0.2-0.1-0.4-0.1-0.7-0.1
		c-0.3,0-0.6,0.1-0.9,0.2s-0.5,0.3-0.7,0.5l-0.9-0.8c0.3-0.3,0.7-0.6,1.1-0.8c0.4-0.2,0.9-0.3,1.4-0.3c0.4,0,0.7,0,1.1,0.1
		c0.3,0.1,0.6,0.2,0.9,0.4c0.2,0.2,0.4,0.4,0.6,0.7s0.2,0.6,0.2,0.9c0,0.5-0.1,0.8-0.3,1.1c-0.2,0.3-0.4,0.5-0.7,0.6
		c0.4,0.1,0.7,0.3,0.9,0.6C37.8,226.4,38,226.8,38,227.3z"/>
	<path id="XMLID_281_" class="st1" d="M45.5,225.6c0,0.6-0.1,1.2-0.2,1.7s-0.3,0.9-0.6,1.3c-0.3,0.4-0.6,0.6-1,0.8
		c-0.4,0.2-0.8,0.3-1.4,0.3s-1-0.1-1.4-0.3c-0.4-0.2-0.7-0.5-1-0.8c-0.3-0.4-0.5-0.8-0.6-1.3c-0.1-0.5-0.2-1-0.2-1.7
		c0-0.6,0.1-1.1,0.2-1.6c0.1-0.5,0.3-0.9,0.6-1.3c0.3-0.4,0.6-0.6,1-0.8c0.4-0.2,0.8-0.3,1.4-0.3c0.5,0,1,0.1,1.4,0.3
		c0.4,0.2,0.7,0.5,1,0.8c0.3,0.4,0.5,0.8,0.6,1.3C45.4,224.5,45.5,225,45.5,225.6z M44.3,225.7c0-0.4,0-0.8-0.1-1.2
		c-0.1-0.4-0.2-0.7-0.3-0.9c-0.2-0.3-0.4-0.5-0.6-0.6c-0.2-0.2-0.5-0.2-0.9-0.2s-0.6,0.1-0.9,0.2c-0.2,0.1-0.4,0.4-0.6,0.6
		c-0.2,0.3-0.3,0.6-0.3,0.9c-0.1,0.4-0.1,0.7-0.1,1.2c0,0.4,0,0.8,0.1,1.2c0.1,0.4,0.2,0.7,0.3,0.9c0.2,0.3,0.4,0.5,0.6,0.6
		c0.2,0.2,0.5,0.2,0.9,0.2c0.3,0,0.6-0.1,0.9-0.2c0.2-0.1,0.4-0.4,0.6-0.6c0.2-0.3,0.3-0.6,0.3-0.9
		C44.3,226.5,44.3,226.1,44.3,225.7z"/>
</g>
<g id="XMLID_273_">
	<path id="XMLID_277_" class="st1" d="M37,195.4v1.8h-1.2v-1.7h-4.3v-1.1l4.1-5H37v5.1H38v1.1H37z M35.9,190.6
		c-0.1,0.1-0.2,0.2-0.3,0.4s-0.3,0.3-0.4,0.5l-1.5,1.9c-0.1,0.2-0.3,0.3-0.4,0.5c-0.1,0.2-0.3,0.3-0.3,0.4c0.1,0,0.2,0,0.3,0
		c0.1,0,0.2,0,0.3,0s0.2,0,0.4,0c0.1,0,0.2,0,0.3,0h1.7V192c0-0.1,0-0.2,0-0.4c0-0.1,0-0.3,0-0.4c0-0.1,0-0.3,0-0.4
		C35.9,190.7,35.9,190.6,35.9,190.6z"/>
	<path id="XMLID_274_" class="st1" d="M45.5,193.2c0,0.6-0.1,1.2-0.2,1.7s-0.3,0.9-0.6,1.3c-0.3,0.4-0.6,0.6-1,0.8
		c-0.4,0.2-0.8,0.3-1.4,0.3s-1-0.1-1.4-0.3c-0.4-0.2-0.7-0.5-1-0.8c-0.3-0.4-0.5-0.8-0.6-1.3c-0.1-0.5-0.2-1-0.2-1.7
		c0-0.6,0.1-1.1,0.2-1.6c0.1-0.5,0.3-0.9,0.6-1.3c0.3-0.4,0.6-0.6,1-0.8s0.8-0.3,1.4-0.3c0.5,0,1,0.1,1.4,0.3c0.4,0.2,0.7,0.5,1,0.8
		c0.3,0.4,0.5,0.8,0.6,1.3C45.4,192,45.5,192.6,45.5,193.2z M44.3,193.2c0-0.4,0-0.8-0.1-1.2c-0.1-0.4-0.2-0.7-0.3-0.9
		c-0.2-0.3-0.4-0.5-0.6-0.6c-0.2-0.2-0.5-0.2-0.9-0.2s-0.6,0.1-0.9,0.2c-0.2,0.1-0.4,0.4-0.6,0.6c-0.2,0.3-0.3,0.6-0.3,0.9
		c-0.1,0.4-0.1,0.7-0.1,1.2c0,0.4,0,0.8,0.1,1.2c0.1,0.4,0.2,0.7,0.3,0.9c0.2,0.3,0.4,0.5,0.6,0.6c0.2,0.2,0.5,0.2,0.9,0.2
		c0.3,0,0.6-0.1,0.9-0.2c0.2-0.1,0.4-0.4,0.6-0.6c0.2-0.3,0.3-0.6,0.3-0.9C44.3,194,44.3,193.6,44.3,193.2z"/>
</g>
<g id="XMLID_267_">
	<path id="XMLID_271_" class="st1" d="M37.9,162c0,0.5-0.1,0.9-0.2,1.3c-0.2,0.4-0.4,0.6-0.6,0.9s-0.6,0.4-1,0.5
		c-0.4,0.1-0.8,0.2-1.3,0.2c-0.5,0-1-0.1-1.4-0.2c-0.5-0.1-0.9-0.3-1.3-0.6l0.6-1c0.3,0.2,0.7,0.3,1.1,0.4s0.8,0.2,1.1,0.2
		c0.6,0,1.1-0.1,1.4-0.4c0.3-0.3,0.5-0.7,0.5-1.2c0-0.5-0.1-0.8-0.4-1.1c-0.3-0.2-0.7-0.4-1.2-0.4c-0.3,0-0.6,0-0.9,0.1
		c-0.2,0.1-0.5,0.2-0.7,0.4l-1.3-0.5l0.3-3.9h4.9v1.1h-3.8l-0.2,2c0.2-0.1,0.5-0.2,0.7-0.3c0.3-0.1,0.6-0.1,1-0.1
		c0.5,0,0.8,0.1,1.2,0.2c0.3,0.1,0.6,0.3,0.9,0.5c0.2,0.2,0.4,0.5,0.5,0.8C37.9,161.3,37.9,161.6,37.9,162z"/>
	<path id="XMLID_268_" class="st1" d="M45.5,160.7c0,0.6-0.1,1.2-0.2,1.7s-0.3,0.9-0.6,1.3c-0.3,0.4-0.6,0.6-1,0.8
		c-0.4,0.2-0.8,0.3-1.4,0.3s-1-0.1-1.4-0.3c-0.4-0.2-0.7-0.5-1-0.8c-0.3-0.4-0.5-0.8-0.6-1.3c-0.1-0.5-0.2-1-0.2-1.7
		c0-0.6,0.1-1.1,0.2-1.6c0.1-0.5,0.3-0.9,0.6-1.3c0.3-0.4,0.6-0.6,1-0.8s0.8-0.3,1.4-0.3c0.5,0,1,0.1,1.4,0.3c0.4,0.2,0.7,0.5,1,0.8
		c0.3,0.4,0.5,0.8,0.6,1.3C45.4,159.5,45.5,160.1,45.5,160.7z M44.3,160.7c0-0.4,0-0.8-0.1-1.2c-0.1-0.4-0.2-0.7-0.3-0.9
		c-0.2-0.3-0.4-0.5-0.6-0.6c-0.2-0.2-0.5-0.2-0.9-0.2s-0.6,0.1-0.9,0.2c-0.2,0.1-0.4,0.4-0.6,0.6c-0.2,0.3-0.3,0.6-0.3,0.9
		c-0.1,0.4-0.1,0.7-0.1,1.2c0,0.4,0,0.8,0.1,1.2c0.1,0.4,0.2,0.7,0.3,0.9c0.2,0.3,0.4,0.5,0.6,0.6c0.2,0.2,0.5,0.2,0.9,0.2
		c0.3,0,0.6-0.1,0.9-0.2c0.2-0.1,0.4-0.4,0.6-0.6c0.2-0.3,0.3-0.6,0.3-0.9C44.3,161.5,44.3,161.1,44.3,160.7z"/>
</g>
<g id="XMLID_260_">
	<path id="XMLID_264_" class="st1" d="M38.1,129.7c0,0.4-0.1,0.8-0.2,1.1c-0.2,0.3-0.4,0.6-0.7,0.8c-0.3,0.2-0.6,0.4-1,0.5
		c-0.4,0.1-0.8,0.2-1.2,0.2c-0.4,0-0.8-0.1-1.2-0.2c-0.4-0.1-0.7-0.3-0.9-0.6c-0.3-0.3-0.5-0.6-0.6-1c-0.2-0.4-0.2-0.9-0.2-1.4
		c0-0.3,0-0.7,0.1-1.1s0.2-0.7,0.3-1.1c0.2-0.4,0.4-0.7,0.6-1s0.6-0.6,0.9-0.9s0.8-0.5,1.3-0.6c0.5-0.2,1-0.2,1.7-0.3v1.1
		c-0.9,0-1.7,0.3-2.3,0.7c-0.6,0.4-1,1-1.3,1.9c0.3-0.2,0.6-0.4,0.9-0.5c0.3-0.1,0.7-0.2,1.2-0.2c0.4,0,0.7,0.1,1,0.2
		c0.3,0.1,0.6,0.3,0.8,0.5c0.2,0.2,0.4,0.5,0.6,0.8C38.1,128.9,38.1,129.2,38.1,129.7z M36.9,129.7c0-0.5-0.2-0.8-0.5-1
		c-0.3-0.2-0.8-0.3-1.3-0.3c-0.6,0-1,0.1-1.4,0.3s-0.5,0.6-0.5,1c0,0.2,0,0.4,0.1,0.6c0.1,0.2,0.2,0.3,0.3,0.5
		c0.2,0.1,0.3,0.2,0.6,0.3s0.5,0.1,0.8,0.1c0.6,0,1.1-0.1,1.4-0.4C36.8,130.5,36.9,130.1,36.9,129.7z"/>
	<path id="XMLID_261_" class="st1" d="M45.5,128.2c0,0.6-0.1,1.2-0.2,1.7c-0.1,0.5-0.3,0.9-0.6,1.3c-0.3,0.4-0.6,0.6-1,0.8
		c-0.4,0.2-0.8,0.3-1.4,0.3s-1-0.1-1.4-0.3c-0.4-0.2-0.7-0.5-1-0.8c-0.3-0.4-0.5-0.8-0.6-1.3c-0.1-0.5-0.2-1-0.2-1.7
		c0-0.6,0.1-1.1,0.2-1.6c0.1-0.5,0.3-0.9,0.6-1.3s0.6-0.6,1-0.8s0.8-0.3,1.4-0.3c0.5,0,1,0.1,1.4,0.3s0.7,0.5,1,0.8
		c0.3,0.4,0.5,0.8,0.6,1.3C45.4,127.1,45.5,127.6,45.5,128.2z M44.3,128.2c0-0.4,0-0.8-0.1-1.2c-0.1-0.4-0.2-0.7-0.3-0.9
		c-0.2-0.3-0.4-0.5-0.6-0.6c-0.2-0.2-0.5-0.2-0.9-0.2s-0.6,0.1-0.9,0.2s-0.4,0.4-0.6,0.6c-0.2,0.3-0.3,0.6-0.3,0.9
		c-0.1,0.4-0.1,0.7-0.1,1.2s0,0.8,0.1,1.2c0.1,0.4,0.2,0.7,0.3,0.9c0.2,0.3,0.4,0.5,0.6,0.6c0.2,0.2,0.5,0.2,0.9,0.2
		c0.3,0,0.6-0.1,0.9-0.2c0.2-0.1,0.4-0.4,0.6-0.6c0.2-0.3,0.3-0.6,0.3-0.9S44.3,128.6,44.3,128.2z"/>
</g>
<g id="XMLID_254_">
	<path id="XMLID_258_" class="st1" d="M37.3,94.2c-0.3,0.5-0.6,1-0.8,1.5S36,97,35.9,97.6s-0.2,1.3-0.2,2.1h-1.2
		c0-0.7,0.1-1.3,0.2-1.9s0.3-1.2,0.5-1.8c0.2-0.6,0.5-1.1,0.8-1.6c0.3-0.5,0.6-1,1-1.5h-4.1v-1.2h5.5V93
		C37.9,93.3,37.6,93.8,37.3,94.2z"/>
	<path id="XMLID_255_" class="st1" d="M45.5,95.7c0,0.6-0.1,1.2-0.2,1.7c-0.1,0.5-0.3,0.9-0.6,1.3c-0.3,0.4-0.6,0.6-1,0.8
		s-0.8,0.3-1.4,0.3s-1-0.1-1.4-0.3c-0.4-0.2-0.7-0.5-1-0.8c-0.3-0.4-0.5-0.8-0.6-1.3c-0.1-0.5-0.2-1-0.2-1.7c0-0.6,0.1-1.1,0.2-1.6
		c0.1-0.5,0.3-0.9,0.6-1.3s0.6-0.6,1-0.8s0.8-0.3,1.4-0.3c0.5,0,1,0.1,1.4,0.3s0.7,0.5,1,0.8c0.3,0.4,0.5,0.8,0.6,1.3
		C45.4,94.6,45.5,95.1,45.5,95.7z M44.3,95.7c0-0.4,0-0.8-0.1-1.2c-0.1-0.4-0.2-0.7-0.3-0.9c-0.2-0.3-0.4-0.5-0.6-0.6
		c-0.2-0.2-0.5-0.2-0.9-0.2s-0.6,0.1-0.9,0.2s-0.4,0.4-0.6,0.6c-0.2,0.3-0.3,0.6-0.3,0.9c-0.1,0.4-0.1,0.7-0.1,1.2s0,0.8,0.1,1.2
		c0.1,0.4,0.2,0.7,0.3,0.9s0.4,0.5,0.6,0.6c0.2,0.2,0.5,0.2,0.9,0.2c0.3,0,0.6-0.1,0.9-0.2s0.4-0.4,0.6-0.6c0.2-0.3,0.3-0.6,0.3-0.9
		S44.3,96.2,44.3,95.7z"/>
</g>
<g id="XMLID_243_">
	<path id="XMLID_252_" class="st1" d="M93.5,136.6c0,0.6-0.1,1.1-0.3,1.5c-0.2,0.4-0.5,0.8-0.8,1.1s-0.8,0.5-1.3,0.7
		c-0.5,0.1-1,0.2-1.6,0.2c-0.7,0-1.3-0.1-1.9-0.2c-0.6-0.1-1.2-0.4-1.8-0.8l0.9-1.6c0.4,0.3,0.9,0.5,1.4,0.6
		c0.5,0.1,0.9,0.2,1.4,0.2c0.7,0,1.2-0.1,1.5-0.4c0.4-0.3,0.5-0.7,0.5-1.2c0-0.2,0-0.5-0.1-0.6c-0.1-0.2-0.2-0.3-0.3-0.4
		c-0.1-0.1-0.3-0.2-0.5-0.3c-0.2-0.1-0.4-0.1-0.6-0.1c-0.4,0-0.8,0.1-1.1,0.2s-0.6,0.2-0.8,0.4l-1.8-0.7l0.3-4.7h6.3v1.8h-4.6
		l-0.1,1.6c0.3-0.1,0.5-0.3,0.9-0.3c0.3-0.1,0.7-0.1,1.1-0.1c0.5,0,1,0.1,1.4,0.2c0.4,0.2,0.7,0.4,1,0.7c0.3,0.3,0.5,0.6,0.6,1
		C93.4,135.7,93.5,136.1,93.5,136.6z"/>
	<path id="XMLID_249_" class="st1" d="M101.5,138v1.9h-1.8V138h-5.2v-1.7l5-5.8h2v5.8h1.2v1.8H101.5z M99.7,132.6
		c-0.1,0.1-0.2,0.3-0.4,0.5c-0.2,0.2-0.3,0.4-0.5,0.6l-1.4,1.6c-0.1,0.1-0.2,0.2-0.2,0.3s-0.2,0.2-0.3,0.3s-0.2,0.2-0.2,0.2
		s-0.1,0.1-0.2,0.2c0.1,0,0.2,0,0.4,0c0.2,0,0.3,0,0.5,0c0.2,0,0.4,0,0.5,0c0.2,0,0.3,0,0.5,0h1.2v-1.5c0-0.1,0-0.3,0-0.5
		c0-0.2,0-0.4,0-0.6c0-0.2,0-0.4,0-0.6C99.7,132.8,99.7,132.7,99.7,132.6z"/>
	<path id="XMLID_247_" class="st1" d="M106.2,138.8c0,0.2,0,0.3-0.1,0.5c-0.1,0.2-0.2,0.3-0.3,0.4s-0.3,0.2-0.4,0.3
		c-0.2,0.1-0.3,0.1-0.5,0.1s-0.3,0-0.5-0.1c-0.2-0.1-0.3-0.2-0.4-0.3c-0.1-0.1-0.2-0.3-0.3-0.4c-0.1-0.2-0.1-0.3-0.1-0.5
		s0-0.3,0.1-0.5c0.1-0.2,0.2-0.3,0.3-0.4c0.1-0.1,0.3-0.2,0.4-0.3c0.2-0.1,0.3-0.1,0.5-0.1s0.3,0,0.5,0.1c0.2,0.1,0.3,0.2,0.4,0.3
		c0.1,0.1,0.2,0.3,0.3,0.4C106.2,138.4,106.2,138.6,106.2,138.8z"/>
	<path id="XMLID_244_" class="st1" d="M114.1,138v1.9h-1.8V138h-5.2v-1.7l5-5.8h2v5.8h1.2v1.8H114.1z M112.3,132.6
		c-0.1,0.1-0.2,0.3-0.4,0.5c-0.2,0.2-0.3,0.4-0.5,0.6l-1.4,1.6c-0.1,0.1-0.2,0.2-0.2,0.3s-0.2,0.2-0.3,0.3s-0.2,0.2-0.2,0.2
		s-0.1,0.1-0.2,0.2c0.1,0,0.2,0,0.4,0c0.2,0,0.3,0,0.5,0c0.2,0,0.4,0,0.5,0c0.2,0,0.3,0,0.5,0h1.2v-1.5c0-0.1,0-0.3,0-0.5
		c0-0.2,0-0.4,0-0.6c0-0.2,0-0.4,0-0.6C112.3,132.8,112.3,132.7,112.3,132.6z"/>
</g>
<g id="XMLID_239_">
	<path id="XMLID_240_" class="st1" d="M250.2,311.7c0,0.7-0.1,1.4-0.3,2c-0.2,0.6-0.4,1.1-0.8,1.6c-0.3,0.4-0.8,0.8-1.3,1
		c-0.5,0.2-1.1,0.4-1.7,0.4c-0.7,0-1.2-0.1-1.7-0.4c-0.5-0.2-0.9-0.6-1.2-1s-0.6-0.9-0.8-1.5c-0.2-0.6-0.3-1.3-0.3-2s0.1-1.4,0.3-2
		c0.2-0.6,0.4-1.1,0.8-1.5c0.3-0.4,0.8-0.8,1.2-1c0.5-0.2,1.1-0.4,1.7-0.4c0.7,0,1.2,0.1,1.7,0.4c0.5,0.2,0.9,0.6,1.2,1
		c0.3,0.4,0.6,0.9,0.8,1.5S250.2,311,250.2,311.7z M248.3,311.7c0-0.4,0-0.8-0.1-1.2c-0.1-0.4-0.2-0.7-0.4-1
		c-0.2-0.3-0.4-0.5-0.6-0.6c-0.3-0.2-0.6-0.2-0.9-0.2s-0.7,0.1-0.9,0.2c-0.3,0.2-0.5,0.4-0.6,0.6c-0.2,0.3-0.3,0.6-0.4,1
		c-0.1,0.4-0.1,0.8-0.1,1.2c0,0.4,0,0.8,0.1,1.2c0.1,0.4,0.2,0.7,0.4,1s0.4,0.5,0.6,0.7c0.3,0.2,0.6,0.2,0.9,0.2
		c0.4,0,0.7-0.1,0.9-0.2s0.5-0.4,0.6-0.6c0.2-0.3,0.3-0.6,0.4-1C248.2,312.6,248.3,312.2,248.3,311.7z"/>
</g>
<g id="XMLID_235_">
	<path id="XMLID_236_" class="st1" d="M394.7,311.7c0,0.7-0.1,1.4-0.3,2c-0.2,0.6-0.4,1.1-0.8,1.6c-0.3,0.4-0.8,0.8-1.3,1
		c-0.5,0.2-1.1,0.4-1.7,0.4c-0.7,0-1.2-0.1-1.7-0.4c-0.5-0.2-0.9-0.6-1.2-1s-0.6-0.9-0.8-1.5c-0.2-0.6-0.3-1.3-0.3-2s0.1-1.4,0.3-2
		c0.2-0.6,0.4-1.1,0.8-1.5c0.3-0.4,0.8-0.8,1.2-1c0.5-0.2,1.1-0.4,1.7-0.4c0.7,0,1.2,0.1,1.7,0.4c0.5,0.2,0.9,0.6,1.2,1
		c0.3,0.4,0.6,0.9,0.8,1.5S394.7,311,394.7,311.7z M392.8,311.7c0-0.4,0-0.8-0.1-1.2c-0.1-0.4-0.2-0.7-0.4-1
		c-0.2-0.3-0.4-0.5-0.6-0.6c-0.3-0.2-0.6-0.2-0.9-0.2s-0.7,0.1-0.9,0.2c-0.3,0.2-0.5,0.4-0.6,0.6c-0.2,0.3-0.3,0.6-0.4,1
		c-0.1,0.4-0.1,0.8-0.1,1.2c0,0.4,0,0.8,0.1,1.2c0.1,0.4,0.2,0.7,0.4,1s0.4,0.5,0.6,0.7c0.3,0.2,0.6,0.2,0.9,0.2
		c0.4,0,0.7-0.1,0.9-0.2s0.5-0.4,0.6-0.6c0.2-0.3,0.3-0.6,0.4-1C392.7,312.6,392.8,312.2,392.8,311.7z"/>
</g>
<g id="XMLID_225_">
	<path id="XMLID_233_" class="st1" d="M153.7,141.2c0,0.6-0.1,1.1-0.3,1.5c-0.2,0.4-0.5,0.8-0.8,1.1s-0.8,0.5-1.3,0.7
		c-0.5,0.1-1,0.2-1.6,0.2c-0.7,0-1.3-0.1-1.9-0.2c-0.6-0.1-1.2-0.4-1.8-0.8l0.9-1.6c0.4,0.3,0.9,0.5,1.4,0.6
		c0.5,0.1,0.9,0.2,1.4,0.2c0.7,0,1.2-0.1,1.5-0.4c0.4-0.3,0.5-0.7,0.5-1.2c0-0.2,0-0.5-0.1-0.6c-0.1-0.2-0.2-0.3-0.3-0.4
		c-0.1-0.1-0.3-0.2-0.5-0.3c-0.2-0.1-0.4-0.1-0.6-0.1c-0.4,0-0.8,0.1-1.1,0.2s-0.6,0.2-0.8,0.4l-1.8-0.7l0.3-4.7h6.3v1.8h-4.6
		l-0.1,1.6c0.3-0.1,0.5-0.3,0.9-0.3c0.3-0.1,0.7-0.1,1.1-0.1c0.5,0,1,0.1,1.4,0.2c0.4,0.2,0.7,0.4,1,0.7c0.3,0.3,0.5,0.6,0.6,1
		C153.6,140.3,153.7,140.7,153.7,141.2z"/>
	<path id="XMLID_231_" class="st1" d="M155.1,144.5c0-0.8,0.1-1.5,0.4-2.1c0.2-0.6,0.6-1.1,1-1.6c0.4-0.4,0.9-0.8,1.4-1.1
		c0.5-0.3,1.1-0.6,1.7-0.9c0.4-0.2,0.7-0.4,0.8-0.5s0.2-0.4,0.2-0.6c0-0.2-0.1-0.5-0.4-0.7c-0.2-0.2-0.6-0.3-1.2-0.3
		c-0.6,0-1.1,0.1-1.5,0.3s-0.8,0.5-1.2,0.8l-1.2-1.4c0.5-0.5,1.1-0.9,1.7-1.2c0.7-0.3,1.4-0.4,2.1-0.4c1.1,0,2,0.2,2.6,0.7
		c0.6,0.5,0.9,1.1,0.9,2c0,0.4-0.1,0.7-0.2,1c-0.1,0.3-0.3,0.5-0.5,0.8c-0.2,0.2-0.5,0.4-0.8,0.6c-0.3,0.2-0.7,0.4-1.1,0.6
		c-0.4,0.2-0.8,0.4-1.1,0.6c-0.3,0.2-0.5,0.4-0.7,0.5s-0.4,0.3-0.5,0.5c-0.1,0.2-0.2,0.4-0.2,0.5h5v1.8H155.1z"/>
	<path id="XMLID_229_" class="st1" d="M166.5,143.3c0,0.2,0,0.3-0.1,0.5c-0.1,0.2-0.2,0.3-0.3,0.4s-0.3,0.2-0.4,0.3
		c-0.2,0.1-0.3,0.1-0.5,0.1s-0.3,0-0.5-0.1c-0.2-0.1-0.3-0.2-0.4-0.3c-0.1-0.1-0.2-0.3-0.3-0.4c-0.1-0.2-0.1-0.3-0.1-0.5
		s0-0.3,0.1-0.5c0.1-0.2,0.2-0.3,0.3-0.4c0.1-0.1,0.3-0.2,0.4-0.3c0.2-0.1,0.3-0.1,0.5-0.1s0.3,0,0.5,0.1c0.2,0.1,0.3,0.2,0.4,0.3
		c0.1,0.1,0.2,0.3,0.3,0.4C166.4,143,166.5,143.2,166.5,143.3z"/>
	<path id="XMLID_226_" class="st1" d="M174.8,138.7c0,0.4,0,0.9-0.1,1.3s-0.2,0.9-0.4,1.3c-0.2,0.4-0.5,0.9-0.8,1.3
		c-0.3,0.4-0.7,0.8-1.2,1.1s-1,0.5-1.7,0.7c-0.6,0.2-1.4,0.3-2.2,0.3v-1.8c1.1,0,2-0.2,2.7-0.6s1.2-0.9,1.4-1.7
		c-0.3,0.2-0.6,0.4-0.9,0.5c-0.3,0.1-0.7,0.1-1.2,0.1c-0.5,0-0.9-0.1-1.3-0.2c-0.4-0.1-0.8-0.3-1.1-0.6c-0.3-0.3-0.5-0.6-0.7-1
		c-0.2-0.4-0.3-0.8-0.3-1.4s0.1-1,0.3-1.4c0.2-0.4,0.5-0.7,0.8-1c0.4-0.3,0.8-0.5,1.3-0.6c0.5-0.1,1-0.2,1.6-0.2
		c0.5,0,1,0.1,1.5,0.2c0.5,0.1,0.9,0.4,1.2,0.7c0.3,0.3,0.6,0.7,0.8,1.2C174.7,137.4,174.8,138,174.8,138.7z M172.8,138
		c0-0.4-0.2-0.8-0.5-1s-0.8-0.4-1.4-0.4c-0.6,0-1.1,0.1-1.5,0.4s-0.5,0.6-0.5,1c0,0.5,0.2,0.8,0.5,1.1c0.3,0.2,0.8,0.3,1.4,0.3
		c0.7,0,1.1-0.1,1.5-0.3C172.6,138.9,172.8,138.5,172.8,138z"/>
</g>
<g id="XMLID_217_">
	<path id="XMLID_221_" class="st1" d="M38,63.8c0,0.4-0.1,0.7-0.2,1c-0.1,0.3-0.4,0.6-0.6,0.8c-0.3,0.2-0.6,0.4-1,0.5
		c-0.4,0.1-0.8,0.2-1.3,0.2c-1,0-1.7-0.2-2.3-0.6c-0.6-0.4-0.8-1-0.8-1.8c0-1,0.5-1.6,1.4-2c-0.2-0.1-0.4-0.2-0.5-0.3
		c-0.1-0.1-0.2-0.3-0.3-0.4c-0.1-0.1-0.1-0.3-0.2-0.4c0-0.1-0.1-0.3-0.1-0.4c0-0.4,0.1-0.7,0.2-1c0.1-0.3,0.3-0.5,0.6-0.7
		s0.5-0.3,0.9-0.4c0.3-0.1,0.7-0.1,1.1-0.1c0.4,0,0.7,0,1,0.1c0.3,0.1,0.6,0.2,0.9,0.4c0.3,0.2,0.5,0.4,0.6,0.7
		c0.2,0.3,0.2,0.6,0.2,1c0,0.1,0,0.2-0.1,0.4c0,0.1-0.1,0.3-0.2,0.4s-0.2,0.3-0.3,0.4c-0.1,0.1-0.3,0.2-0.5,0.3
		c0.4,0.2,0.8,0.4,1,0.7S38,63.3,38,63.8z M36.8,63.9c0-0.4-0.2-0.8-0.5-1c-0.3-0.2-0.8-0.4-1.5-0.4c-0.6,0-1.1,0.1-1.4,0.3
		c-0.3,0.2-0.5,0.5-0.5,1c0,0.4,0.2,0.8,0.5,1c0.3,0.2,0.8,0.4,1.4,0.4c0.6,0,1.1-0.1,1.4-0.4C36.6,64.6,36.8,64.2,36.8,63.9z
		 M36.4,60.3c0-0.2,0-0.3-0.1-0.4c-0.1-0.1-0.1-0.3-0.3-0.4s-0.3-0.2-0.5-0.3s-0.4-0.1-0.7-0.1c-0.3,0-0.5,0-0.7,0.1
		c-0.2,0.1-0.4,0.1-0.5,0.2c-0.1,0.1-0.2,0.2-0.3,0.4c-0.1,0.1-0.1,0.3-0.1,0.4c0,0.3,0.1,0.6,0.4,0.8c0.3,0.2,0.7,0.3,1.2,0.3
		c0.5,0,0.9-0.1,1.2-0.3C36.3,60.9,36.4,60.6,36.4,60.3z"/>
	<path id="XMLID_218_" class="st1" d="M45.5,62.2c0,0.6-0.1,1.2-0.2,1.7c-0.1,0.5-0.3,0.9-0.6,1.3c-0.3,0.4-0.6,0.6-1,0.8
		s-0.8,0.3-1.4,0.3s-1-0.1-1.4-0.3c-0.4-0.2-0.7-0.5-1-0.8c-0.3-0.4-0.5-0.8-0.6-1.3c-0.1-0.5-0.2-1-0.2-1.7c0-0.6,0.1-1.1,0.2-1.6
		c0.1-0.5,0.3-0.9,0.6-1.3s0.6-0.6,1-0.8s0.8-0.3,1.4-0.3c0.5,0,1,0.1,1.4,0.3s0.7,0.5,1,0.8c0.3,0.4,0.5,0.8,0.6,1.3
		C45.4,61,45.5,61.6,45.5,62.2z M44.3,62.2c0-0.4,0-0.8-0.1-1.2c-0.1-0.4-0.2-0.7-0.3-0.9c-0.2-0.3-0.4-0.5-0.6-0.6
		c-0.2-0.2-0.5-0.2-0.9-0.2s-0.6,0.1-0.9,0.2s-0.4,0.4-0.6,0.6c-0.2,0.3-0.3,0.6-0.3,0.9c-0.1,0.4-0.1,0.7-0.1,1.2s0,0.8,0.1,1.2
		c0.1,0.4,0.2,0.7,0.3,0.9s0.4,0.5,0.6,0.6c0.2,0.2,0.5,0.2,0.9,0.2c0.3,0,0.6-0.1,0.9-0.2s0.4-0.4,0.6-0.6c0.2-0.3,0.3-0.6,0.3-0.9
		S44.3,62.6,44.3,62.2z"/>
</g>
<g id="XMLID_210_">
	<path id="XMLID_214_" class="st1" d="M38,26.6c0,0.3,0,0.7-0.1,1.1s-0.2,0.7-0.3,1.1s-0.4,0.7-0.6,1s-0.6,0.6-0.9,0.9
		s-0.8,0.5-1.3,0.6c-0.5,0.2-1,0.3-1.7,0.3v-1.1c0.9,0,1.7-0.3,2.3-0.7c0.6-0.4,1-1,1.3-1.9c-0.3,0.2-0.6,0.4-0.9,0.5
		c-0.3,0.1-0.7,0.2-1.2,0.2c-0.4,0-0.7-0.1-1-0.2s-0.6-0.3-0.8-0.5c-0.2-0.2-0.4-0.5-0.6-0.8c-0.1-0.3-0.2-0.7-0.2-1.1
		c0-0.4,0.1-0.8,0.2-1.1s0.4-0.6,0.7-0.8c0.3-0.2,0.6-0.4,1-0.5c0.4-0.1,0.8-0.2,1.2-0.2c0.4,0,0.8,0.1,1.2,0.2s0.7,0.3,0.9,0.6
		c0.3,0.3,0.5,0.6,0.6,1C37.9,25.5,38,26,38,26.6z M36.8,26c0-0.2,0-0.4-0.1-0.5c-0.1-0.2-0.2-0.3-0.3-0.5c-0.2-0.1-0.3-0.2-0.6-0.3
		s-0.5-0.1-0.8-0.1c-0.6,0-1.1,0.1-1.4,0.4c-0.3,0.3-0.5,0.6-0.5,1.1c0,0.5,0.2,0.8,0.5,1c0.3,0.2,0.8,0.3,1.3,0.3
		c0.6,0,1-0.1,1.4-0.3C36.6,26.8,36.8,26.5,36.8,26z"/>
	<path id="XMLID_211_" class="st1" d="M45.5,27.5c0,0.6-0.1,1.2-0.2,1.7c-0.1,0.5-0.3,0.9-0.6,1.3c-0.3,0.4-0.6,0.6-1,0.8
		s-0.8,0.3-1.4,0.3s-1-0.1-1.4-0.3c-0.4-0.2-0.7-0.5-1-0.8c-0.3-0.4-0.5-0.8-0.6-1.3c-0.1-0.5-0.2-1-0.2-1.7c0-0.6,0.1-1.1,0.2-1.6
		c0.1-0.5,0.3-0.9,0.6-1.3s0.6-0.6,1-0.8s0.8-0.3,1.4-0.3c0.5,0,1,0.1,1.4,0.3s0.7,0.5,1,0.8c0.3,0.4,0.5,0.8,0.6,1.3
		C45.4,26.3,45.5,26.9,45.5,27.5z M44.3,27.5c0-0.4,0-0.8-0.1-1.2c-0.1-0.4-0.2-0.7-0.3-0.9c-0.2-0.3-0.4-0.5-0.6-0.6
		c-0.2-0.2-0.5-0.2-0.9-0.2s-0.6,0.1-0.9,0.2s-0.4,0.4-0.6,0.6c-0.2,0.3-0.3,0.6-0.3,0.9c-0.1,0.4-0.1,0.7-0.1,1.2s0,0.8,0.1,1.2
		c0.1,0.4,0.2,0.7,0.3,0.9s0.4,0.5,0.6,0.6c0.2,0.2,0.5,0.2,0.9,0.2c0.3,0,0.6-0.1,0.9-0.2s0.4-0.4,0.6-0.6c0.2-0.3,0.3-0.6,0.3-0.9
		S44.3,27.9,44.3,27.5z"/>
</g>
<line id="XMLID_209_" class="st2" x1="65.1" y1="323.8" x2="593.9" y2="323.8"/>
<line id="XMLID_208_" class="st3" x1="65.1" y1="291.3" x2="593.9" y2="291.3"/>
<line id="XMLID_207_" class="st3" x1="65.1" y1="258.7" x2="593.9" y2="258.7"/>
<line id="XMLID_206_" class="st3" x1="65.1" y1="226.1" x2="593.9" y2="226.1"/>
<line id="XMLID_205_" class="st3" x1="65.1" y1="193.6" x2="593.9" y2="193.6"/>
<line id="XMLID_204_" class="st3" x1="65.1" y1="161" x2="593.9" y2="161"/>
<line id="XMLID_203_" class="st3" x1="65.1" y1="128.4" x2="593.9" y2="128.4"/>
<line id="XMLID_202_" class="st3" x1="65.1" y1="95.9" x2="593.9" y2="95.9"/>
<line id="XMLID_201_" class="st3" x1="65.1" y1="63.3" x2="593.9" y2="63.3"/>
<line id="XMLID_200_" class="st3" x1="65.1" y1="28.6" x2="593.9" y2="28.6"/>
<linearGradient id="XMLID_367_" gradientUnits="userSpaceOnUse" x1="81.7979" y1="233.4617" x2="134.2889" y2="233.4617">
	<stop  offset="0" style="stop-color:#95CDEA"/>
	<stop  offset="1" style="stop-color:#70CEEB"/>
</linearGradient>
<rect id="XMLID_199_" x="81.8" y="143.4" class="st4" width="52.5" height="180.1"/>
<linearGradient id="XMLID_368_" gradientUnits="userSpaceOnUse" x1="227.3173" y1="322.73" x2="279.8071" y2="322.73">
	<stop  offset="0" style="stop-color:#4A7BB3"/>
	<stop  offset="1" style="stop-color:#27AAE1"/>
</linearGradient>
<rect id="XMLID_198_" x="227.3" y="322.2" class="st5" width="52.5" height="1"/>
<linearGradient id="XMLID_369_" gradientUnits="userSpaceOnUse" x1="371.7944" y1="322.73" x2="424.2838" y2="322.73">
	<stop  offset="0" style="stop-color:#4A7BB3"/>
	<stop  offset="1" style="stop-color:#27AAE1"/>
</linearGradient>
<rect id="XMLID_197_" x="371.8" y="322.2" class="st6" width="52.5" height="1"/>
<linearGradient id="XMLID_370_" gradientUnits="userSpaceOnUse" x1="140.5904" y1="237.032" x2="193.0785" y2="237.032">
	<stop  offset="0" style="stop-color:#4B257A"/>
	<stop  offset="1" style="stop-color:#964C8E"/>
</linearGradient>
<rect id="XMLID_196_" x="140.6" y="150.8" class="st7" width="52.5" height="172.4"/>
<g id="XMLID_172_">
	<path id="XMLID_194_" class="st1" d="M516.7,38.5v-7.9h1.2v6.7h3.9v1.2H516.7z"/>
	<path id="XMLID_192_" class="st1" d="M523.4,38.5v-7.9h5.1v1.2h-3.9v2h2.3v1.2h-2.3v2.5h4.1v1.2H523.4z"/>
	<path id="XMLID_190_" class="st1" d="M533.8,38.5h-1.3l-2.7-7.9h1.3l1.7,5c0,0.1,0.1,0.2,0.1,0.4c0,0.1,0.1,0.3,0.1,0.4
		c0,0.1,0.1,0.3,0.1,0.4c0,0.1,0.1,0.2,0.1,0.3c0-0.1,0-0.2,0.1-0.3c0-0.1,0.1-0.2,0.1-0.4c0-0.1,0.1-0.3,0.1-0.4
		c0-0.1,0.1-0.3,0.1-0.4l1.6-5h1.3L533.8,38.5z"/>
	<path id="XMLID_188_" class="st1" d="M539.9,39.7c-0.3-0.3-0.6-0.6-0.8-0.9c-0.3-0.3-0.5-0.7-0.7-1.1c-0.2-0.4-0.4-0.8-0.5-1.2
		s-0.2-0.9-0.2-1.4c0-0.5,0.1-1,0.2-1.5c0.1-0.5,0.3-0.9,0.5-1.3s0.4-0.7,0.7-1.1c0.3-0.3,0.5-0.6,0.8-0.9l0.6,0.5
		c-0.5,0.6-0.9,1.2-1.2,1.8s-0.4,1.4-0.4,2.3c0,0.5,0,0.9,0.1,1.3c0.1,0.4,0.2,0.8,0.3,1.1c0.1,0.3,0.3,0.7,0.5,0.9
		c0.2,0.3,0.4,0.6,0.6,0.8L539.9,39.7z"/>
	<path id="XMLID_186_" class="st1" d="M545.5,38.5v-3.4c0-0.6-0.1-1-0.3-1.3c-0.2-0.2-0.5-0.4-0.9-0.4c-0.4,0-0.7,0.1-0.9,0.4
		c-0.2,0.3-0.3,0.6-0.3,1.1v3.5h-1.2v-5.9h1.2v0.6c0.2-0.2,0.4-0.4,0.6-0.5c0.3-0.1,0.6-0.2,0.9-0.2c0.7,0,1.2,0.2,1.6,0.7
		c0.4,0.4,0.5,1.1,0.5,2v3.4H545.5z"/>
	<path id="XMLID_183_" class="st1" d="M548.4,33.9v-1.1h4.9v1.1H548.4z M548.4,36.5v-1.1h4.9v1.1H548.4z"/>
	<path id="XMLID_181_" class="st1" d="M558.8,38.5v-6.1h-1.4v-0.8c0.4,0,0.8-0.1,1.1-0.3c0.3-0.2,0.5-0.4,0.6-0.8h1v7.9H558.8z"/>
	<path id="XMLID_179_" class="st1" d="M562.7,38.5v-6.1h-1.4v-0.8c0.4,0,0.8-0.1,1.1-0.3c0.3-0.2,0.5-0.4,0.6-0.8h1v7.9H562.7z"/>
	<path id="XMLID_175_" class="st1" d="M571.8,36.2c0,0.4-0.1,0.7-0.2,1c-0.1,0.3-0.4,0.6-0.6,0.8c-0.3,0.2-0.6,0.4-1,0.5
		c-0.4,0.1-0.8,0.2-1.3,0.2c-1,0-1.7-0.2-2.3-0.6c-0.6-0.4-0.8-1-0.8-1.8c0-1,0.5-1.6,1.4-2c-0.2-0.1-0.4-0.2-0.5-0.3
		c-0.1-0.1-0.2-0.3-0.3-0.4c-0.1-0.1-0.1-0.3-0.2-0.4c0-0.1-0.1-0.3-0.1-0.4c0-0.4,0.1-0.7,0.2-1c0.1-0.3,0.3-0.5,0.6-0.7
		s0.5-0.3,0.9-0.4c0.3-0.1,0.7-0.1,1.1-0.1c0.4,0,0.7,0,1,0.1c0.3,0.1,0.6,0.2,0.9,0.4c0.3,0.2,0.5,0.4,0.6,0.7
		c0.2,0.3,0.2,0.6,0.2,1c0,0.1,0,0.2-0.1,0.4c0,0.1-0.1,0.3-0.2,0.4s-0.2,0.3-0.3,0.4c-0.1,0.1-0.3,0.2-0.5,0.3
		c0.4,0.2,0.8,0.4,1,0.7S571.8,35.7,571.8,36.2z M570.7,36.2c0-0.4-0.2-0.8-0.5-1c-0.3-0.2-0.8-0.4-1.5-0.4c-0.6,0-1.1,0.1-1.4,0.3
		c-0.3,0.2-0.5,0.5-0.5,1c0,0.4,0.2,0.8,0.5,1c0.3,0.2,0.8,0.4,1.4,0.4c0.6,0,1.1-0.1,1.4-0.4C570.5,36.9,570.7,36.6,570.7,36.2z
		 M570.3,32.7c0-0.2,0-0.3-0.1-0.4c-0.1-0.1-0.1-0.3-0.3-0.4s-0.3-0.2-0.5-0.3s-0.4-0.1-0.7-0.1c-0.3,0-0.5,0-0.7,0.1
		c-0.2,0.1-0.4,0.1-0.5,0.2c-0.1,0.1-0.2,0.2-0.3,0.4c-0.1,0.1-0.1,0.3-0.1,0.4c0,0.3,0.1,0.6,0.4,0.8c0.3,0.2,0.7,0.3,1.2,0.3
		c0.5,0,0.9-0.1,1.2-0.3C570.2,33.2,570.3,33,570.3,32.7z"/>
	<path id="XMLID_173_" class="st1" d="M575.9,35c0,0.5-0.1,1-0.2,1.5c-0.1,0.5-0.3,0.9-0.5,1.3s-0.4,0.7-0.7,1.1s-0.5,0.6-0.8,0.9
		l-0.6-0.5c0.5-0.6,0.9-1.2,1.2-1.8s0.4-1.4,0.4-2.3c0-0.5,0-0.9-0.1-1.3c-0.1-0.4-0.2-0.8-0.3-1.1s-0.3-0.7-0.5-1
		c-0.2-0.3-0.4-0.6-0.7-0.9l0.6-0.5c0.3,0.3,0.6,0.6,0.8,0.9c0.3,0.3,0.5,0.7,0.7,1.1s0.4,0.8,0.5,1.2S575.9,34.5,575.9,35z"/>
</g>
<g id="XMLID_145_">
	<path id="XMLID_169_" class="st1" d="M523,18.1c0,0.6-0.1,1.2-0.2,1.7s-0.4,0.9-0.7,1.3s-0.6,0.6-1.1,0.8c-0.4,0.2-0.9,0.3-1.4,0.3
		c-0.5,0-1-0.1-1.4-0.3c-0.4-0.2-0.8-0.5-1.1-0.8c-0.3-0.4-0.5-0.8-0.7-1.3s-0.2-1-0.2-1.7c0-0.6,0.1-1.1,0.2-1.6
		c0.2-0.5,0.4-0.9,0.7-1.3c0.3-0.4,0.6-0.6,1.1-0.8c0.4-0.2,0.9-0.3,1.4-0.3c0.5,0,1,0.1,1.4,0.3c0.4,0.2,0.8,0.5,1.1,0.8
		s0.5,0.8,0.7,1.3C523,17,523,17.5,523,18.1z M521.8,18.1c0-0.9-0.2-1.6-0.5-2.1c-0.4-0.5-0.9-0.8-1.6-0.8c-0.7,0-1.2,0.3-1.6,0.8
		c-0.4,0.5-0.5,1.2-0.5,2.1s0.2,1.6,0.5,2.1s0.9,0.8,1.6,0.8c0.7,0,1.2-0.3,1.6-0.8C521.6,19.7,521.8,19,521.8,18.1z"/>
	<path id="XMLID_167_" class="st1" d="M529.3,21.8c-0.5,0.3-1,0.4-1.6,0.4c-0.5,0-1-0.1-1.4-0.3c-0.4-0.2-0.8-0.5-1.1-0.8
		c-0.3-0.4-0.5-0.8-0.7-1.3s-0.2-1-0.2-1.7c0-0.6,0.1-1.1,0.2-1.6c0.2-0.5,0.4-0.9,0.7-1.3c0.3-0.4,0.6-0.6,1.1-0.8
		c0.4-0.2,0.9-0.3,1.4-0.3c0.6,0,1.2,0.1,1.6,0.4c0.4,0.3,0.8,0.6,1.1,1.1l-1.1,0.7c-0.2-0.3-0.4-0.6-0.7-0.7
		c-0.2-0.2-0.6-0.2-1-0.2c-0.7,0-1.2,0.3-1.6,0.8c-0.4,0.5-0.5,1.2-0.5,2.1s0.2,1.6,0.5,2.1c0.4,0.5,0.9,0.8,1.6,0.8
		c0.4,0,0.8-0.1,1-0.2c0.3-0.2,0.5-0.4,0.7-0.7l1,0.7C530.1,21.2,529.8,21.5,529.3,21.8z"/>
	<path id="XMLID_163_" class="st1" d="M538,19.6c0,0.8-0.2,1.4-0.7,1.8c-0.5,0.4-1.1,0.6-2,0.6h-3.1v-7.9h3.3c0.7,0,1.2,0.2,1.7,0.5
		c0.4,0.4,0.6,0.9,0.6,1.5c0,0.4-0.1,0.7-0.3,1s-0.4,0.4-0.7,0.6c0.2,0,0.3,0.1,0.5,0.2s0.3,0.2,0.4,0.4c0.1,0.2,0.2,0.3,0.3,0.5
		C537.9,19.1,538,19.4,538,19.6z M536.5,16.3c0-0.3-0.1-0.5-0.2-0.7c-0.2-0.2-0.4-0.3-0.8-0.3h-2.1v2h2.1c0.2,0,0.4,0,0.5-0.1
		c0.1-0.1,0.3-0.1,0.3-0.2c0.1-0.1,0.2-0.2,0.2-0.3S536.5,16.4,536.5,16.3z M536.8,19.7c0-0.4-0.1-0.7-0.4-1c-0.2-0.2-0.6-0.4-1-0.4
		h-2.1V21h2.1c0.5,0,0.9-0.1,1.1-0.4C536.7,20.4,536.8,20.1,536.8,19.7z"/>
	<path id="XMLID_161_" class="st1" d="M544.6,23.3c-0.3-0.3-0.6-0.6-0.8-0.9c-0.3-0.3-0.5-0.7-0.7-1.1c-0.2-0.4-0.4-0.8-0.5-1.2
		s-0.2-0.9-0.2-1.4c0-0.5,0.1-1,0.2-1.5c0.1-0.5,0.3-0.9,0.5-1.3c0.2-0.4,0.4-0.7,0.7-1.1c0.3-0.3,0.5-0.6,0.8-0.9l0.6,0.5
		c-0.5,0.6-0.9,1.2-1.2,1.8c-0.3,0.7-0.4,1.4-0.4,2.3c0,0.5,0,0.9,0.1,1.3c0.1,0.4,0.2,0.8,0.3,1.1c0.1,0.3,0.3,0.7,0.5,0.9
		c0.2,0.3,0.4,0.6,0.6,0.8L544.6,23.3z"/>
	<path id="XMLID_159_" class="st1" d="M550.2,22.1v-3.4c0-0.6-0.1-1-0.3-1.3c-0.2-0.2-0.5-0.4-0.9-0.4c-0.4,0-0.7,0.1-0.9,0.4
		c-0.2,0.3-0.3,0.6-0.3,1.1v3.5h-1.2v-5.9h1.2v0.6c0.2-0.2,0.4-0.4,0.6-0.5c0.3-0.1,0.6-0.2,0.9-0.2c0.7,0,1.2,0.2,1.6,0.7
		c0.4,0.4,0.5,1.1,0.5,2v3.4H550.2z"/>
	<path id="XMLID_156_" class="st1" d="M553.1,17.5v-1.1h4.9v1.1H553.1z M553.1,20.1v-1.1h4.9v1.1H553.1z"/>
	<path id="XMLID_154_" class="st1" d="M563.6,22.1V16h-1.4v-0.8c0.4,0,0.8-0.1,1.1-0.3c0.3-0.2,0.5-0.4,0.6-0.8h1v7.9H563.6z"/>
	<path id="XMLID_152_" class="st1" d="M566.4,22.1c0-0.6,0.1-1.1,0.3-1.5c0.2-0.4,0.4-0.8,0.7-1.1c0.3-0.3,0.6-0.6,0.9-0.9
		c0.4-0.3,0.7-0.5,1.1-0.7c0.3-0.2,0.5-0.3,0.7-0.4c0.2-0.1,0.3-0.3,0.4-0.4c0.1-0.1,0.2-0.2,0.2-0.4c0-0.1,0.1-0.2,0.1-0.4
		c0-0.3-0.1-0.6-0.4-0.8c-0.2-0.2-0.6-0.3-1.2-0.3c-0.3,0-0.7,0.1-1,0.2c-0.3,0.1-0.6,0.3-0.9,0.6l-0.8-0.9c0.4-0.3,0.8-0.6,1.2-0.8
		c0.5-0.2,1-0.3,1.5-0.3c0.8,0,1.5,0.2,2,0.5c0.5,0.4,0.7,0.9,0.7,1.6c0,0.3,0,0.6-0.1,0.8s-0.2,0.4-0.4,0.6
		c-0.2,0.2-0.4,0.4-0.6,0.6c-0.3,0.2-0.6,0.4-0.9,0.6c-0.4,0.2-0.7,0.4-0.9,0.6c-0.3,0.2-0.5,0.4-0.6,0.5c-0.2,0.2-0.3,0.3-0.4,0.5
		c-0.1,0.2-0.2,0.3-0.2,0.5h4.2v1.2H566.4z"/>
	<path id="XMLID_148_" class="st1" d="M579.9,19.8c0,0.4-0.1,0.7-0.2,1c-0.1,0.3-0.4,0.6-0.6,0.8c-0.3,0.2-0.6,0.4-1,0.5
		c-0.4,0.1-0.8,0.2-1.3,0.2c-1,0-1.7-0.2-2.3-0.6c-0.6-0.4-0.8-1-0.8-1.8c0-1,0.5-1.6,1.4-2c-0.2-0.1-0.4-0.2-0.5-0.3
		c-0.1-0.1-0.2-0.3-0.3-0.4c-0.1-0.1-0.1-0.3-0.2-0.4c0-0.1-0.1-0.3-0.1-0.4c0-0.4,0.1-0.7,0.2-1c0.1-0.3,0.3-0.5,0.6-0.7
		s0.5-0.3,0.9-0.4c0.3-0.1,0.7-0.1,1.1-0.1c0.4,0,0.7,0,1,0.1c0.3,0.1,0.6,0.2,0.9,0.4c0.3,0.2,0.5,0.4,0.6,0.7
		c0.2,0.3,0.2,0.6,0.2,1c0,0.1,0,0.2-0.1,0.4c0,0.1-0.1,0.3-0.2,0.4s-0.2,0.3-0.3,0.4c-0.1,0.1-0.3,0.2-0.5,0.3
		c0.4,0.2,0.8,0.4,1,0.7S579.9,19.3,579.9,19.8z M578.7,19.8c0-0.4-0.2-0.8-0.5-1c-0.3-0.2-0.8-0.4-1.5-0.4c-0.6,0-1.1,0.1-1.4,0.3
		c-0.3,0.2-0.5,0.5-0.5,1c0,0.4,0.2,0.8,0.5,1c0.3,0.2,0.8,0.4,1.4,0.4c0.6,0,1.1-0.1,1.4-0.4C578.5,20.5,578.7,20.2,578.7,19.8z
		 M578.3,16.3c0-0.2,0-0.3-0.1-0.4c-0.1-0.1-0.1-0.3-0.3-0.4s-0.3-0.2-0.5-0.3s-0.4-0.1-0.7-0.1c-0.3,0-0.5,0-0.7,0.1
		c-0.2,0.1-0.4,0.1-0.5,0.2c-0.1,0.1-0.2,0.2-0.3,0.4c-0.1,0.1-0.1,0.3-0.1,0.4c0,0.3,0.1,0.6,0.4,0.8c0.3,0.2,0.7,0.3,1.2,0.3
		c0.5,0,0.9-0.1,1.2-0.3C578.2,16.8,578.3,16.6,578.3,16.3z"/>
	<path id="XMLID_146_" class="st1" d="M583.9,18.6c0,0.5-0.1,1-0.2,1.5c-0.1,0.5-0.3,0.9-0.5,1.3s-0.4,0.7-0.7,1.1s-0.5,0.6-0.8,0.9
		l-0.6-0.5c0.5-0.6,0.9-1.2,1.2-1.8s0.4-1.4,0.4-2.3c0-0.5,0-0.9-0.1-1.3c-0.1-0.4-0.2-0.8-0.3-1.1c-0.1-0.3-0.3-0.7-0.5-1
		c-0.2-0.3-0.4-0.6-0.7-0.9l0.6-0.5c0.3,0.3,0.6,0.6,0.8,0.9c0.3,0.3,0.5,0.7,0.7,1.1c0.2,0.4,0.4,0.8,0.5,1.2
		S583.9,18.1,583.9,18.6z"/>
</g>
<linearGradient id="XMLID_371_" gradientUnits="userSpaceOnUse" x1="503.6693" y1="18.3622" x2="512.7923" y2="18.3622">
	<stop  offset="0" style="stop-color:#95CDEA"/>
	<stop  offset="1" style="stop-color:#70CEEB"/>
</linearGradient>
<rect id="XMLID_144_" x="503.7" y="13.8" class="st8" width="9.1" height="9.1"/>
<linearGradient id="XMLID_372_" gradientUnits="userSpaceOnUse" x1="503.6693" y1="34.8654" x2="512.7923" y2="34.8654">
	<stop  offset="0" style="stop-color:#4B257A"/>
	<stop  offset="1" style="stop-color:#964C8E"/>
</linearGradient>
<rect id="XMLID_143_" x="503.7" y="30.3" class="st9" width="9.1" height="9.1"/>
<line id="XMLID_142_" class="st10" x1="64.8" y1="322.5" x2="64.8" y2="327.1"/>
<line id="XMLID_141_" class="st10" x1="210.1" y1="322.5" x2="210.1" y2="327.1"/>
<line id="XMLID_140_" class="st10" x1="355.4" y1="322.5" x2="355.4" y2="327.1"/>
<line id="XMLID_139_" class="st10" x1="500.8" y1="322.5" x2="500.8" y2="327.1"/>
<g id="XMLID_130_">
	<path id="XMLID_137_" class="st1" d="M301.5,130c0,0.6-0.1,1.1-0.3,1.5c-0.2,0.4-0.5,0.8-0.8,1.1s-0.8,0.5-1.3,0.7
		c-0.5,0.1-1,0.2-1.6,0.2c-0.7,0-1.3-0.1-1.9-0.2c-0.6-0.1-1.2-0.4-1.8-0.8l0.9-1.6c0.4,0.3,0.9,0.5,1.4,0.6
		c0.5,0.1,0.9,0.2,1.4,0.2c0.7,0,1.2-0.1,1.5-0.4c0.4-0.3,0.5-0.7,0.5-1.2c0-0.2,0-0.5-0.1-0.6c-0.1-0.2-0.2-0.3-0.3-0.4
		c-0.1-0.1-0.3-0.2-0.5-0.3s-0.4-0.1-0.6-0.1c-0.4,0-0.8,0.1-1.1,0.2s-0.6,0.2-0.8,0.4l-1.8-0.7l0.3-4.7h6.3v1.8h-4.6l-0.1,1.6
		c0.3-0.1,0.5-0.3,0.9-0.3c0.3-0.1,0.7-0.1,1.1-0.1c0.5,0,1,0.1,1.4,0.2c0.4,0.2,0.7,0.4,1,0.7s0.5,0.6,0.6,1S301.5,129.6,301.5,130
		z"/>
	<path id="XMLID_135_" class="st1" d="M307.8,128.9c-0.6,1.3-0.8,2.7-0.8,4.4H305c0-1.5,0.2-3,0.7-4.3c0.5-1.3,1.2-2.4,2.1-3.5h-4.8
		v-1.8h7.1v1.8C309.1,126.6,308.3,127.7,307.8,128.9z"/>
	<path id="XMLID_133_" class="st1" d="M314.2,132.2c0,0.2,0,0.3-0.1,0.5c-0.1,0.2-0.2,0.3-0.3,0.4s-0.3,0.2-0.4,0.3
		c-0.2,0.1-0.3,0.1-0.5,0.1s-0.3,0-0.5-0.1c-0.2-0.1-0.3-0.2-0.4-0.3c-0.1-0.1-0.2-0.3-0.3-0.4c-0.1-0.2-0.1-0.3-0.1-0.5
		s0-0.3,0.1-0.5c0.1-0.2,0.2-0.3,0.3-0.4c0.1-0.1,0.3-0.2,0.4-0.3c0.2-0.1,0.3-0.1,0.5-0.1s0.3,0,0.5,0.1c0.2,0.1,0.3,0.2,0.4,0.3
		c0.1,0.1,0.2,0.3,0.3,0.4C314.2,131.8,314.2,132,314.2,132.2z"/>
	<path id="XMLID_131_" class="st1" d="M318.2,133.3v-6.9h-1.6V125c0.5,0,1-0.1,1.3-0.3c0.3-0.2,0.5-0.5,0.6-0.9h1.6v9.5H318.2z"/>
</g>
<g id="XMLID_120_">
	<path id="XMLID_127_" class="st1" d="M443.5,108.1c0,0.5-0.1,1-0.3,1.4c-0.2,0.4-0.5,0.7-0.8,1c-0.4,0.3-0.8,0.5-1.3,0.6
		s-1,0.2-1.6,0.2c-0.5,0-1-0.1-1.5-0.2c-0.5-0.1-0.9-0.4-1.2-0.7c-0.3-0.3-0.6-0.7-0.8-1.2c-0.2-0.5-0.3-1.1-0.3-1.7
		c0-0.4,0-0.9,0.1-1.3c0.1-0.5,0.2-0.9,0.4-1.3c0.2-0.4,0.5-0.9,0.8-1.3s0.7-0.8,1.2-1.1c0.5-0.3,1-0.5,1.7-0.7
		c0.6-0.2,1.4-0.3,2.2-0.3v1.8c-1.1,0-2,0.2-2.7,0.6s-1.2,0.9-1.4,1.7c0.3-0.2,0.6-0.4,0.9-0.5c0.3-0.1,0.7-0.1,1.2-0.1
		c0.5,0,0.9,0.1,1.3,0.2c0.4,0.1,0.8,0.3,1.1,0.6c0.3,0.3,0.5,0.6,0.7,1C443.4,107.1,443.5,107.6,443.5,108.1z M441.5,108.1
		c0-0.5-0.2-0.8-0.5-1.1s-0.8-0.3-1.4-0.3c-0.7,0-1.1,0.1-1.5,0.3s-0.5,0.6-0.5,1.1c0,0.4,0.2,0.8,0.5,1c0.3,0.2,0.8,0.4,1.4,0.4
		c0.6,0,1.1-0.1,1.5-0.4C441.4,108.9,441.5,108.6,441.5,108.1z"/>
	<path id="XMLID_125_" class="st1" d="M444.8,111.2c0-0.8,0.1-1.5,0.4-2.1c0.2-0.6,0.6-1.1,1-1.6c0.4-0.4,0.9-0.8,1.4-1.1
		c0.5-0.3,1.1-0.6,1.7-0.9c0.4-0.2,0.7-0.4,0.8-0.5s0.2-0.4,0.2-0.6c0-0.2-0.1-0.5-0.4-0.7c-0.2-0.2-0.6-0.3-1.2-0.3
		c-0.6,0-1.1,0.1-1.5,0.3c-0.4,0.2-0.8,0.5-1.2,0.8l-1.2-1.4c0.5-0.5,1.1-0.9,1.7-1.2c0.7-0.3,1.4-0.4,2.1-0.4c1.1,0,2,0.2,2.6,0.7
		c0.6,0.5,0.9,1.1,0.9,2c0,0.4-0.1,0.7-0.2,1c-0.1,0.3-0.3,0.5-0.5,0.8s-0.5,0.4-0.8,0.6c-0.3,0.2-0.7,0.4-1.1,0.6
		c-0.4,0.2-0.8,0.4-1.1,0.6c-0.3,0.2-0.5,0.4-0.7,0.5c-0.2,0.2-0.4,0.3-0.5,0.5c-0.1,0.2-0.2,0.4-0.2,0.5h5v1.8H444.8z"/>
	<path id="XMLID_123_" class="st1" d="M456.2,110.1c0,0.2,0,0.3-0.1,0.5s-0.2,0.3-0.3,0.4s-0.3,0.2-0.4,0.3
		c-0.2,0.1-0.3,0.1-0.5,0.1s-0.3,0-0.5-0.1s-0.3-0.2-0.4-0.3c-0.1-0.1-0.2-0.3-0.3-0.4s-0.1-0.3-0.1-0.5s0-0.3,0.1-0.5
		s0.2-0.3,0.3-0.4c0.1-0.1,0.3-0.2,0.4-0.3s0.3-0.1,0.5-0.1s0.3,0,0.5,0.1c0.2,0.1,0.3,0.2,0.4,0.3c0.1,0.1,0.2,0.3,0.3,0.4
		S456.2,109.9,456.2,110.1z"/>
	<path id="XMLID_121_" class="st1" d="M465.1,107.9c0,0.6-0.1,1.1-0.3,1.5s-0.5,0.8-0.8,1.1s-0.8,0.5-1.3,0.7
		c-0.5,0.1-1,0.2-1.6,0.2c-0.7,0-1.3-0.1-1.9-0.2c-0.6-0.1-1.2-0.4-1.8-0.8l0.9-1.6c0.4,0.3,0.9,0.4,1.4,0.6
		c0.5,0.1,0.9,0.2,1.4,0.2c0.7,0,1.2-0.1,1.5-0.4c0.4-0.3,0.5-0.7,0.5-1.2c0-0.2,0-0.5-0.1-0.6c-0.1-0.2-0.2-0.3-0.3-0.4
		c-0.1-0.1-0.3-0.2-0.5-0.3s-0.4-0.1-0.6-0.1c-0.4,0-0.8,0.1-1.1,0.2s-0.6,0.2-0.8,0.4l-1.8-0.7l0.3-4.7h6.3v1.8h-4.6l-0.1,1.6
		c0.3-0.1,0.5-0.3,0.9-0.3c0.3-0.1,0.7-0.1,1.1-0.1c0.5,0,1,0.1,1.4,0.2c0.4,0.2,0.7,0.4,1,0.7s0.5,0.6,0.6,1
		S465.1,107.4,465.1,107.9z"/>
</g>
<linearGradient id="XMLID_373_" gradientUnits="userSpaceOnUse" x1="286.1068" y1="231.5889" x2="338.5978" y2="231.5889">
	<stop  offset="0" style="stop-color:#4B257A"/>
	<stop  offset="1" style="stop-color:#964C8E"/>
</linearGradient>
<rect id="XMLID_119_" x="286.1" y="139.6" class="st11" width="52.5" height="183.9"/>
<linearGradient id="XMLID_374_" gradientUnits="userSpaceOnUse" x1="430.5863" y1="220.1278" x2="483.0763" y2="220.1278">
	<stop  offset="0" style="stop-color:#4B257A"/>
	<stop  offset="1" style="stop-color:#964C8E"/>
</linearGradient>
<rect id="XMLID_118_" x="430.6" y="117.5" class="st12" width="52.5" height="205.2"/>
<g id="XMLID_1_">
	<g id="XMLID_3_">
		<path id="XMLID_59_" class="st1" d="M19.9,242.6c-0.3,0.3-0.6,0.5-1,0.8c-0.3,0.2-0.7,0.5-1.1,0.6s-0.8,0.3-1.2,0.4
			c-0.4,0.1-0.9,0.2-1.5,0.2s-1,0-1.5-0.1c-0.4-0.1-0.9-0.2-1.2-0.4c-0.4-0.2-0.7-0.4-1.1-0.6c-0.3-0.2-0.7-0.5-1-0.8l0.7-1
			c0.3,0.2,0.5,0.4,0.8,0.6s0.6,0.3,0.9,0.4c0.3,0.1,0.7,0.2,1.1,0.3s0.8,0.1,1.2,0.1c0.5,0,0.9,0,1.3-0.1c0.4-0.1,0.7-0.2,1.1-0.3
			c0.3-0.1,0.6-0.3,0.9-0.4s0.6-0.4,0.8-0.6L19.9,242.6z"/>
		<path id="XMLID_53_" class="st1" d="M18.8,239.1l-7.7-4.4V234l7.7,4.4V239.1z M13.3,237.2c1.6,0,2.4,0.8,2.4,1.8
			c0,0.9-0.7,1.7-2.3,1.8c-1.5,0-2.3-0.8-2.3-1.8C11,237.9,11.8,237.2,13.3,237.2z M13.3,240c1,0,1.7-0.3,1.7-1c0-0.7-0.7-1-1.7-1
			c-0.9,0-1.7,0.3-1.7,1C11.6,239.6,12.4,240,13.3,240z M16.4,232.3c1.6,0,2.4,0.8,2.4,1.8c0,0.9-0.7,1.7-2.2,1.8
			c-1.5,0-2.4-0.8-2.4-1.8C14.1,233,14.9,232.3,16.4,232.3z M16.4,235.1c1,0,1.7-0.4,1.7-1c0-0.7-0.7-1-1.7-1c-0.9,0-1.7,0.3-1.7,1
			C14.7,234.7,15.5,235.1,16.4,235.1z"/>
		<path id="XMLID_51_" class="st1" d="M15.1,228.5c0.5,0,1,0,1.5,0.1c0.4,0.1,0.9,0.2,1.2,0.4c0.4,0.2,0.7,0.4,1.1,0.6
			s0.7,0.5,1,0.8l-0.7,1c-0.3-0.2-0.5-0.4-0.8-0.6c-0.3-0.2-0.6-0.3-0.9-0.4s-0.7-0.2-1.1-0.3s-0.8-0.1-1.2-0.1
			c-0.5,0-0.9,0-1.3,0.1c-0.4,0.1-0.7,0.2-1.1,0.3c-0.3,0.1-0.6,0.3-0.9,0.4s-0.6,0.4-0.8,0.6l-0.7-1c0.3-0.3,0.6-0.5,1-0.8
			c0.3-0.2,0.7-0.5,1.1-0.6c0.4-0.2,0.8-0.3,1.2-0.4C14.1,228.5,14.6,228.5,15.1,228.5z"/>
		<path id="XMLID_49_" class="st1" d="M16.2,217.6c0.4,0,0.7,0.1,1,0.2s0.6,0.3,0.8,0.6c0.2,0.3,0.4,0.6,0.5,1
			c0.1,0.4,0.2,0.9,0.2,1.4c0,0.6-0.1,1.2-0.4,1.7c-0.2,0.5-0.6,0.9-1,1.3l-0.9-0.9c0.3-0.3,0.5-0.6,0.7-1c0.2-0.4,0.3-0.8,0.3-1.2
			c0-1.2-0.4-1.7-1.2-1.7c-0.2,0-0.3,0-0.4,0.1s-0.2,0.2-0.4,0.3c-0.1,0.2-0.2,0.3-0.3,0.6c-0.1,0.2-0.2,0.5-0.3,0.9
			c-0.1,0.5-0.3,0.8-0.4,1.2s-0.3,0.6-0.5,0.8c-0.2,0.2-0.4,0.4-0.7,0.5s-0.6,0.2-1,0.2c-0.4,0-0.7-0.1-1-0.2
			c-0.3-0.1-0.5-0.3-0.7-0.6c-0.2-0.2-0.4-0.5-0.5-0.9s-0.2-0.7-0.2-1.1c0-0.6,0.1-1.1,0.3-1.5c0.2-0.4,0.5-0.9,0.8-1.2l0.9,0.9
			c-0.3,0.3-0.5,0.6-0.6,0.9s-0.2,0.7-0.2,1.1c0,0.5,0.1,0.9,0.3,1.1c0.2,0.2,0.5,0.3,0.7,0.3c0.1,0,0.3,0,0.4-0.1
			c0.1-0.1,0.2-0.2,0.3-0.3s0.2-0.3,0.3-0.6c0.1-0.2,0.2-0.5,0.3-0.9c0.1-0.4,0.3-0.8,0.4-1.1c0.1-0.3,0.3-0.6,0.5-0.9
			c0.2-0.2,0.4-0.4,0.7-0.5C15.5,217.7,15.8,217.6,16.2,217.6z"/>
		<path id="XMLID_46_" class="st1" d="M15.3,210.9c0.1,0,0.2,0,0.3,0s0.2,0,0.2,0v4.2c0.3,0,0.6-0.1,0.8-0.2
			c0.2-0.1,0.4-0.2,0.5-0.4c0.1-0.1,0.2-0.3,0.3-0.5c0.1-0.2,0.1-0.4,0.1-0.6c0-0.3,0-0.5-0.1-0.7c-0.1-0.2-0.2-0.4-0.4-0.6l0.8-0.7
			c0.3,0.3,0.5,0.6,0.6,0.9c0.1,0.3,0.2,0.8,0.2,1.2c0,0.4-0.1,0.7-0.2,1.1c-0.1,0.3-0.4,0.6-0.6,0.9c-0.3,0.2-0.6,0.4-1,0.6
			s-0.9,0.2-1.4,0.2c-0.5,0-1-0.1-1.4-0.2s-0.8-0.3-1-0.6c-0.3-0.2-0.5-0.5-0.6-0.9c-0.1-0.3-0.2-0.7-0.2-1.1c0-0.5,0.1-0.8,0.3-1.2
			s0.4-0.6,0.7-0.8c0.3-0.2,0.6-0.4,1-0.5C14.5,210.9,14.9,210.9,15.3,210.9z M14.9,212.1c-0.2,0-0.4,0.1-0.6,0.1
			c-0.2,0.1-0.4,0.2-0.5,0.3c-0.1,0.1-0.3,0.3-0.3,0.5s-0.1,0.4-0.1,0.7c0,0.4,0.1,0.8,0.4,1c0.3,0.2,0.7,0.4,1.2,0.5V212.1z"/>
		<path id="XMLID_43_" class="st1" d="M10.7,207.9c0.2,0,0.4,0.1,0.6,0.2c0.2,0.2,0.2,0.3,0.2,0.6c0,0.2-0.1,0.4-0.2,0.6
			c-0.2,0.2-0.3,0.2-0.6,0.2c-0.2,0-0.4-0.1-0.6-0.2c-0.2-0.2-0.2-0.3-0.2-0.6c0-0.2,0.1-0.4,0.2-0.6
			C10.3,207.9,10.5,207.9,10.7,207.9z M18.6,209.3h-6.3V208h6.3V209.3z"/>
		<path id="XMLID_41_" class="st1" d="M18.6,206.4h-1l-3.3-2.7c-0.2-0.1-0.3-0.3-0.5-0.4c-0.2-0.1-0.3-0.3-0.4-0.3
			c0,0.1,0,0.1,0,0.2s0,0.2,0,0.3s0,0.2,0,0.3s0,0.2,0,0.3v2.1h-1.1v-4.6h1l3.3,2.7c0.2,0.1,0.3,0.3,0.5,0.4
			c0.2,0.1,0.3,0.3,0.4,0.4c0-0.1,0-0.1,0-0.2s0-0.2,0-0.3c0-0.1,0-0.2,0-0.3s0-0.2,0-0.3v-2.3h1.1V206.4z"/>
		<path id="XMLID_39_" class="st1" d="M18.6,196.1H18c0.2,0.2,0.4,0.4,0.5,0.7c0.1,0.3,0.2,0.6,0.2,0.9c0,0.7-0.2,1.3-0.7,1.7
			c-0.5,0.4-1.2,0.6-2.1,0.6h-3.6v-1.2h3.6c0.6,0,1.1-0.1,1.3-0.3c0.3-0.2,0.4-0.5,0.4-1c0-0.4-0.1-0.7-0.4-1
			c-0.3-0.2-0.7-0.3-1.2-0.3h-3.7v-1.2h6.3V196.1z"/>
		<path id="XMLID_37_" class="st1" d="M13.6,189.6c-0.1,0.1-0.1,0.3-0.2,0.4s-0.1,0.3-0.1,0.5c0,0.4,0.1,0.7,0.4,0.9
			c0.3,0.2,0.7,0.3,1.2,0.3h3.6v1.2h-6.3v-1.2h0.6c-0.2-0.1-0.4-0.3-0.5-0.6c-0.1-0.3-0.2-0.5-0.2-0.8c0-0.3,0-0.5,0.1-0.6
			c0-0.2,0.1-0.3,0.2-0.4L13.6,189.6z"/>
		<path id="XMLID_34_" class="st1" d="M15.3,183.1c0.1,0,0.2,0,0.3,0s0.2,0,0.2,0v4.2c0.3,0,0.6-0.1,0.8-0.2
			c0.2-0.1,0.4-0.2,0.5-0.4c0.1-0.1,0.2-0.3,0.3-0.5c0.1-0.2,0.1-0.4,0.1-0.6c0-0.3,0-0.5-0.1-0.7c-0.1-0.2-0.2-0.4-0.4-0.6l0.8-0.7
			c0.3,0.3,0.5,0.6,0.6,0.9c0.1,0.3,0.2,0.8,0.2,1.2c0,0.4-0.1,0.7-0.2,1.1c-0.1,0.3-0.4,0.6-0.6,0.9c-0.3,0.2-0.6,0.4-1,0.6
			s-0.9,0.2-1.4,0.2c-0.5,0-1-0.1-1.4-0.2s-0.8-0.3-1-0.6c-0.3-0.2-0.5-0.5-0.6-0.9c-0.1-0.3-0.2-0.7-0.2-1.1c0-0.5,0.1-0.8,0.3-1.2
			s0.4-0.6,0.7-0.8c0.3-0.2,0.6-0.4,1-0.5C14.5,183.2,14.9,183.1,15.3,183.1z M14.9,184.4c-0.2,0-0.4,0.1-0.6,0.1
			c-0.2,0.1-0.4,0.2-0.5,0.3c-0.1,0.1-0.3,0.3-0.3,0.5s-0.1,0.4-0.1,0.7c0,0.4,0.1,0.8,0.4,1c0.3,0.2,0.7,0.4,1.2,0.5V184.4z"/>
		<path id="XMLID_32_" class="st1" d="M11,176.1c0,0.2,0,0.4,0.1,0.4c0.1,0.1,0.2,0.1,0.5,0.1h0.7v-1.2h1.2v1.2h5.2v1.2h-5.2v0.8
			h-1.2v-0.8h-0.8c-0.3,0-0.5,0-0.7-0.1c-0.2-0.1-0.4-0.2-0.5-0.3c-0.1-0.1-0.2-0.3-0.3-0.5c-0.1-0.2-0.1-0.4-0.1-0.6
			c0-0.2,0-0.3,0-0.5s0.1-0.3,0.1-0.5h1.1C11,175.6,11,175.9,11,176.1z"/>
		<path id="XMLID_30_" class="st1" d="M13.6,170.5c-0.1,0.1-0.1,0.3-0.2,0.4s-0.1,0.3-0.1,0.5c0,0.4,0.1,0.7,0.4,0.9
			c0.3,0.2,0.7,0.3,1.2,0.3h3.6v1.2h-6.3v-1.2h0.6c-0.2-0.1-0.4-0.3-0.5-0.6c-0.1-0.3-0.2-0.5-0.2-0.8c0-0.3,0-0.5,0.1-0.6
			c0-0.2,0.1-0.3,0.2-0.4L13.6,170.5z"/>
		<path id="XMLID_27_" class="st1" d="M15.3,164.1c0.1,0,0.2,0,0.3,0s0.2,0,0.2,0v4.2c0.3,0,0.6-0.1,0.8-0.2
			c0.2-0.1,0.4-0.2,0.5-0.4c0.1-0.1,0.2-0.3,0.3-0.5c0.1-0.2,0.1-0.4,0.1-0.6c0-0.3,0-0.5-0.1-0.7c-0.1-0.2-0.2-0.4-0.4-0.6l0.8-0.7
			c0.3,0.3,0.5,0.6,0.6,0.9c0.1,0.3,0.2,0.8,0.2,1.2c0,0.4-0.1,0.7-0.2,1.1c-0.1,0.3-0.4,0.6-0.6,0.9c-0.3,0.2-0.6,0.4-1,0.6
			s-0.9,0.2-1.4,0.2c-0.5,0-1-0.1-1.4-0.2s-0.8-0.3-1-0.6c-0.3-0.2-0.5-0.5-0.6-0.9c-0.1-0.3-0.2-0.7-0.2-1.1c0-0.5,0.1-0.8,0.3-1.2
			s0.4-0.6,0.7-0.8c0.3-0.2,0.6-0.4,1-0.5C14.5,164.1,14.9,164.1,15.3,164.1z M14.9,165.3c-0.2,0-0.4,0.1-0.6,0.1
			c-0.2,0.1-0.4,0.2-0.5,0.3c-0.1,0.1-0.3,0.3-0.3,0.5s-0.1,0.4-0.1,0.7c0,0.4,0.1,0.8,0.4,1c0.3,0.2,0.7,0.4,1.2,0.5V165.3z"/>
		<path id="XMLID_24_" class="st1" d="M15.3,157.4c0.1,0,0.2,0,0.3,0s0.2,0,0.2,0v4.2c0.3,0,0.6-0.1,0.8-0.2
			c0.2-0.1,0.4-0.2,0.5-0.4c0.1-0.1,0.2-0.3,0.3-0.5c0.1-0.2,0.1-0.4,0.1-0.6c0-0.3,0-0.5-0.1-0.7c-0.1-0.2-0.2-0.4-0.4-0.6l0.8-0.7
			c0.3,0.3,0.5,0.6,0.6,0.9c0.1,0.3,0.2,0.8,0.2,1.2c0,0.4-0.1,0.7-0.2,1.1c-0.1,0.3-0.4,0.6-0.6,0.9c-0.3,0.2-0.6,0.4-1,0.6
			s-0.9,0.2-1.4,0.2c-0.5,0-1-0.1-1.4-0.2s-0.8-0.3-1-0.6c-0.3-0.2-0.5-0.5-0.6-0.9c-0.1-0.3-0.2-0.7-0.2-1.1c0-0.5,0.1-0.8,0.3-1.2
			s0.4-0.6,0.7-0.8c0.3-0.2,0.6-0.4,1-0.5C14.5,157.5,14.9,157.4,15.3,157.4z M14.9,158.6c-0.2,0-0.4,0.1-0.6,0.1
			c-0.2,0.1-0.4,0.2-0.5,0.3c-0.1,0.1-0.3,0.3-0.3,0.5s-0.1,0.4-0.1,0.7c0,0.4,0.1,0.8,0.4,1c0.3,0.2,0.7,0.4,1.2,0.5V158.6z"/>
		<path id="XMLID_21_" class="st1" d="M15.6,147.3c0.5,0,1,0.1,1.4,0.2c0.4,0.1,0.7,0.3,1,0.5c0.3,0.2,0.5,0.5,0.6,0.8
			c0.1,0.3,0.2,0.6,0.2,0.9c0,0.3-0.1,0.6-0.2,0.9c-0.1,0.3-0.3,0.5-0.5,0.7h2.3l0.6,1.2h-8.6v-1.2l0.6,0c-0.2-0.2-0.4-0.5-0.5-0.7
			c-0.1-0.3-0.2-0.6-0.2-0.9s0.1-0.7,0.2-1c0.1-0.3,0.3-0.6,0.6-0.8c0.3-0.2,0.6-0.4,1.1-0.5C14.5,147.3,15,147.3,15.6,147.3z
			 M15.6,148.5c-0.8,0-1.4,0.1-1.7,0.4c-0.4,0.2-0.5,0.6-0.5,1.1c0,0.3,0.1,0.6,0.2,0.8c0.2,0.2,0.4,0.5,0.6,0.6h2.7
			c0.1-0.1,0.2-0.2,0.3-0.3c0.1-0.1,0.2-0.2,0.3-0.3c0.1-0.1,0.1-0.3,0.2-0.4c0.1-0.1,0.1-0.3,0.1-0.5c0-0.4-0.2-0.8-0.5-1
			C16.8,148.6,16.3,148.5,15.6,148.5z"/>
		<path id="XMLID_18_" class="st1" d="M18.6,142.2H18c0.2,0.2,0.4,0.5,0.5,0.8c0.1,0.3,0.2,0.6,0.2,1c0,0.3,0,0.5-0.1,0.8
			c-0.1,0.3-0.2,0.5-0.4,0.7c-0.2,0.2-0.4,0.4-0.7,0.5s-0.6,0.2-1,0.2c-0.4,0-0.7-0.1-0.9-0.2c-0.3-0.1-0.5-0.3-0.6-0.5
			s-0.3-0.5-0.4-0.8c-0.1-0.3-0.1-0.6-0.1-1c0-0.6,0.1-1,0.2-1.4h-0.5c-0.3,0-0.6,0.1-0.8,0.3s-0.3,0.5-0.3,0.9c0,0.3,0,0.6,0.1,0.9
			s0.2,0.5,0.3,0.8l-0.9,0.5c-0.2-0.3-0.3-0.6-0.4-1c-0.1-0.3-0.1-0.7-0.1-1.2c0-0.7,0.2-1.3,0.5-1.7c0.3-0.4,0.9-0.7,1.6-0.7h4.3
			V142.2z M15.9,142.2c-0.1,0.2-0.2,0.4-0.2,0.6c0,0.2-0.1,0.5-0.1,0.8c0,0.4,0.1,0.7,0.3,1c0.2,0.2,0.4,0.3,0.7,0.3
			c0.3,0,0.6-0.1,0.8-0.3c0.2-0.2,0.3-0.5,0.3-0.9c0-0.3-0.1-0.6-0.3-0.9s-0.4-0.5-0.6-0.6H15.9z"/>
		<path id="XMLID_16_" class="st1" d="M18.5,136.1c0.1,0.2,0.2,0.3,0.2,0.5s0.1,0.4,0.1,0.7c0,0.4-0.1,0.8-0.4,1
			c-0.3,0.3-0.7,0.4-1.3,0.4h-3.7v0.9h-1.1v-0.9h-1.8l-0.7-1.2h2.5V136h1.1v1.6h3.4c0.3,0,0.5,0,0.6-0.2c0.1-0.1,0.2-0.3,0.2-0.5
			c0-0.2,0-0.3-0.1-0.5s-0.1-0.3-0.2-0.4L18.5,136.1z"/>
		<path id="XMLID_13_" class="st1" d="M10.7,132.8c0.2,0,0.4,0.1,0.6,0.2c0.2,0.2,0.2,0.3,0.2,0.6c0,0.2-0.1,0.4-0.2,0.6
			c-0.2,0.2-0.3,0.2-0.6,0.2c-0.2,0-0.4-0.1-0.6-0.2c-0.2-0.2-0.2-0.3-0.2-0.6c0-0.2,0.1-0.4,0.2-0.6
			C10.3,132.9,10.5,132.8,10.7,132.8z M18.6,134.3h-6.3V133h6.3V134.3z"/>
		<path id="XMLID_10_" class="st1" d="M15.3,126c0.1,0,0.2,0,0.3,0c0.1,0,0.2,0,0.2,0v4.2c0.3,0,0.6-0.1,0.8-0.2
			c0.2-0.1,0.4-0.2,0.5-0.4c0.1-0.1,0.2-0.3,0.3-0.5c0.1-0.2,0.1-0.4,0.1-0.6c0-0.3,0-0.5-0.1-0.7c-0.1-0.2-0.2-0.4-0.4-0.6l0.8-0.7
			c0.3,0.3,0.5,0.6,0.6,0.9c0.1,0.3,0.2,0.8,0.2,1.2c0,0.4-0.1,0.7-0.2,1.1c-0.1,0.3-0.4,0.6-0.6,0.9c-0.3,0.2-0.6,0.4-1,0.6
			s-0.9,0.2-1.4,0.2c-0.5,0-1-0.1-1.4-0.2s-0.8-0.3-1-0.6c-0.3-0.2-0.5-0.5-0.6-0.9c-0.1-0.3-0.2-0.7-0.2-1.1c0-0.5,0.1-0.8,0.3-1.2
			s0.4-0.6,0.7-0.8s0.6-0.4,1-0.5C14.5,126,14.9,126,15.3,126z M14.9,127.2c-0.2,0-0.4,0.1-0.6,0.1c-0.2,0.1-0.4,0.2-0.5,0.3
			c-0.1,0.1-0.3,0.3-0.3,0.5c-0.1,0.2-0.1,0.4-0.1,0.7c0,0.4,0.1,0.7,0.4,1c0.3,0.2,0.7,0.4,1.2,0.5V127.2z"/>
		<path id="XMLID_8_" class="st1" d="M18.6,120.6h-3.6c-0.6,0-1.1,0.1-1.3,0.3c-0.3,0.2-0.4,0.5-0.4,1c0,0.4,0.1,0.7,0.4,1
			c0.3,0.2,0.7,0.3,1.2,0.3h3.7v1.2h-6.3v-1.2h0.6c-0.2-0.2-0.4-0.4-0.5-0.7c-0.1-0.3-0.2-0.6-0.2-0.9c0-0.7,0.2-1.3,0.7-1.7
			c0.5-0.4,1.2-0.6,2.1-0.6h3.6V120.6z"/>
		<path id="XMLID_6_" class="st1" d="M18.5,114.6c0.1,0.2,0.2,0.3,0.2,0.5s0.1,0.4,0.1,0.7c0,0.4-0.1,0.8-0.4,1
			c-0.3,0.3-0.7,0.4-1.3,0.4h-3.7v0.9h-1.1v-0.9h-1.8L9.8,116h2.5v-1.6h1.1v1.6h3.4c0.3,0,0.5-0.1,0.6-0.2c0.1-0.1,0.2-0.3,0.2-0.5
			c0-0.2,0-0.3-0.1-0.5c-0.1-0.2-0.1-0.3-0.2-0.4L18.5,114.6z"/>
		<path id="XMLID_4_" class="st1" d="M16.9,108.4c0.4,0,0.6,0.1,0.9,0.2c0.2,0.1,0.4,0.3,0.6,0.5c0.1,0.2,0.2,0.5,0.3,0.8
			s0.1,0.6,0.1,0.9c0,0.4-0.1,0.9-0.2,1.3c-0.2,0.4-0.3,0.8-0.6,1.1l-0.9-0.6c0.2-0.3,0.4-0.6,0.5-0.9c0.1-0.3,0.2-0.6,0.2-0.9
			c0-0.8-0.2-1.2-0.7-1.2c-0.2,0-0.4,0.1-0.6,0.4c-0.1,0.3-0.3,0.6-0.5,1.1c-0.1,0.3-0.3,0.6-0.4,0.9c-0.1,0.2-0.3,0.4-0.4,0.6
			c-0.2,0.1-0.3,0.3-0.5,0.3s-0.4,0.1-0.7,0.1c-0.3,0-0.5-0.1-0.7-0.2s-0.4-0.3-0.5-0.4c-0.1-0.2-0.3-0.4-0.3-0.7
			c-0.1-0.3-0.1-0.6-0.1-0.9c0-0.4,0.1-0.8,0.2-1.2c0.1-0.4,0.3-0.7,0.5-1l1,0.5c-0.2,0.3-0.3,0.5-0.4,0.8c-0.1,0.3-0.1,0.6-0.1,0.9
			s0.1,0.5,0.2,0.7c0.1,0.1,0.2,0.2,0.4,0.2c0.1,0,0.2,0,0.2,0s0.1-0.1,0.2-0.2c0.1-0.1,0.1-0.2,0.2-0.4c0.1-0.1,0.2-0.3,0.3-0.6
			c0.1-0.4,0.3-0.7,0.4-0.9c0.1-0.3,0.3-0.5,0.4-0.7c0.2-0.2,0.3-0.3,0.5-0.4C16.4,108.4,16.6,108.4,16.9,108.4z"/>
	</g>
</g>
</svg>
