<!-- Generator: Adobe Illustrator 22.1.0, SVG Export Plug-In  -->
<svg version="1.1"
	 xmlns="http://www.w3.org/2000/svg" xmlns:xlink="http://www.w3.org/1999/xlink" xmlns:a="http://ns.adobe.com/AdobeSVGViewerExtensions/3.0/"
	 x="0px" y="0px" width="875.1px" height="74.3px" viewBox="0 0 875.1 74.3" style="enable-background:new 0 0 875.1 74.3;"
	 xml:space="preserve">
<style type="text/css">
	.st0{fill:#266093;}
	.st1{fill:#532D6D;}
</style>
<defs>
</defs>
<g id="XMLID_1_">
	<g id="XMLID_3_">
		<path id="XMLID_443_" class="st0" d="M13,12.2c0,0.8-0.1,1.5-0.4,2.1C12.4,15,12,15.5,11.5,16c-0.5,0.5-1.2,0.8-2,1.1
			c-0.8,0.3-1.8,0.4-2.9,0.4c-1.4,0-2.6-0.3-3.8-0.8c-1.1-0.5-2-1.3-2.6-2.2l2.4-2.1c0.6,0.7,1.2,1.2,1.9,1.4
			c0.7,0.3,1.5,0.4,2.3,0.4c1,0,1.7-0.1,2.2-0.4s0.7-0.7,0.7-1.4c0-0.3,0-0.5-0.1-0.7S9.2,11.3,9,11.2c-0.3-0.2-0.6-0.3-1.1-0.5
			c-0.5-0.2-1.1-0.3-1.9-0.5C5.2,10,4.5,9.8,3.9,9.6C3.2,9.3,2.7,9,2.2,8.7S1.4,7.9,1.2,7.3c-0.3-0.5-0.4-1.2-0.4-2
			c0-0.8,0.2-1.4,0.5-2S2,2.1,2.5,1.7C3,1.3,3.7,1,4.4,0.8c0.7-0.2,1.5-0.3,2.3-0.3c1.3,0,2.4,0.2,3.4,0.7s1.8,1.1,2.6,1.9l-2.4,2.3
			c-0.5-0.5-1.1-1-1.7-1.3C8,3.8,7.3,3.6,6.6,3.6c-0.4,0-0.8,0-1.1,0.1C5.2,3.8,4.9,4,4.7,4.1C4.5,4.2,4.4,4.4,4.3,4.6
			C4.2,4.7,4.2,4.9,4.2,5.1c0,0.3,0.1,0.5,0.2,0.7C4.5,6,4.6,6.1,4.9,6.3c0.3,0.1,0.6,0.3,1,0.4c0.4,0.1,1,0.3,1.6,0.4
			c0.7,0.2,1.3,0.3,2,0.6c0.7,0.2,1.2,0.5,1.8,0.9c0.5,0.4,1,0.9,1.3,1.4C12.9,10.5,13,11.3,13,12.2z"/>
		<path id="XMLID_441_" class="st0" d="M22.9,16.7c-0.3,0.2-0.6,0.4-1.1,0.5c-0.5,0.1-0.9,0.2-1.4,0.2c-0.5,0-1-0.1-1.4-0.3
			c-0.4-0.2-0.8-0.4-1-0.8s-0.5-0.7-0.7-1.2c-0.2-0.5-0.2-1-0.2-1.5V7.9H15V4.8h2.1V1.6L20.3,0v4.8h3v3.1h-3v5c0,0.6,0.1,1,0.3,1.2
			c0.2,0.2,0.5,0.3,0.9,0.3c0.3,0,0.6-0.1,0.8-0.2c0.3-0.1,0.6-0.4,1-0.7L22.9,16.7z"/>
		<path id="XMLID_439_" class="st0" d="M33.7,17.2v-0.8c-0.3,0.3-0.7,0.6-1.2,0.8c-0.5,0.2-1.1,0.3-1.7,0.3c-1.6,0-2.7-0.5-3.5-1.5
			c-0.7-1-1.1-2.4-1.1-4.1v-7h3.3v6.7c0,0.5,0,1,0.1,1.4c0.1,0.4,0.2,0.7,0.4,0.9s0.4,0.4,0.7,0.5c0.3,0.1,0.6,0.1,0.9,0.1
			c0.7,0,1.2-0.2,1.6-0.6c0.4-0.4,0.6-1.1,0.6-2.2V4.8H37v12.4H33.7z"/>
		<path id="XMLID_436_" class="st0" d="M46.9,17.2v-0.8c-0.3,0.3-0.7,0.5-1.1,0.7c-0.4,0.2-0.9,0.3-1.5,0.3c-0.7,0-1.3-0.1-1.9-0.4
			s-1.1-0.6-1.5-1.2c-0.4-0.5-0.8-1.2-1-2c-0.3-0.8-0.4-1.8-0.4-3c0-0.9,0.1-1.8,0.3-2.5c0.2-0.8,0.5-1.4,0.9-2
			c0.4-0.6,0.9-1,1.5-1.3s1.3-0.5,2-0.5c0.5,0,1,0.1,1.5,0.3s0.8,0.4,1.1,0.7V1.6L50.2,0v17.2H46.9z M46.9,8.7
			c-0.5-0.7-1.2-1.1-2.2-1.1c-1.3,0-1.9,1.1-1.9,3.2c0,1.3,0.2,2.2,0.6,2.8c0.4,0.6,0.9,0.8,1.5,0.8c0.5,0,0.9-0.1,1.2-0.3
			s0.6-0.4,0.8-0.8V8.7z"/>
		<path id="XMLID_434_" class="st0" d="M58.8,21.5h-3.2l1.6-4.4L52.4,4.8H56l2,6c0.2,0.5,0.3,1,0.5,1.5s0.3,0.9,0.3,1.2
			c0.1-0.3,0.2-0.7,0.3-1.2c0.1-0.5,0.3-1,0.5-1.5l2-6h3.5L58.8,21.5z"/>
		<path id="XMLID_431_" class="st0" d="M80.9,17.2v-0.8c-0.3,0.3-0.7,0.5-1.1,0.7c-0.4,0.2-0.9,0.3-1.5,0.3c-0.7,0-1.3-0.1-1.9-0.4
			s-1.1-0.6-1.5-1.2c-0.4-0.5-0.8-1.2-1-2c-0.3-0.8-0.4-1.8-0.4-3c0-0.9,0.1-1.8,0.3-2.5c0.2-0.8,0.5-1.4,0.9-2
			c0.4-0.6,0.9-1,1.5-1.3s1.3-0.5,2-0.5c0.5,0,1,0.1,1.5,0.3s0.8,0.4,1.1,0.7V1.6L84.2,0v17.2H80.9z M80.9,8.7
			c-0.5-0.7-1.2-1.1-2.2-1.1c-1.3,0-1.9,1.1-1.9,3.2c0,1.3,0.2,2.2,0.6,2.8c0.4,0.6,0.9,0.8,1.5,0.8c0.5,0,0.9-0.1,1.2-0.3
			s0.6-0.4,0.8-0.8V8.7z"/>
		<path id="XMLID_428_" class="st0" d="M97.4,11c0,0.2,0,0.4,0,0.6c0,0.2,0,0.3,0,0.4H90c0,0.4,0.1,0.8,0.3,1.1
			c0.2,0.3,0.4,0.5,0.6,0.7c0.2,0.2,0.5,0.3,0.8,0.4c0.3,0.1,0.6,0.1,0.9,0.1c0.5,0,0.9-0.1,1.2-0.2c0.4-0.2,0.7-0.4,0.9-0.6
			l2.3,1.9c-0.5,0.6-1.2,1.1-2,1.5c-0.8,0.3-1.6,0.5-2.5,0.5c-0.9,0-1.7-0.2-2.4-0.5c-0.7-0.3-1.3-0.7-1.8-1.3
			c-0.5-0.6-0.9-1.2-1.2-2S86.7,12,86.7,11c0-0.9,0.1-1.8,0.4-2.6c0.3-0.8,0.7-1.5,1.2-2s1.1-1,1.7-1.3c0.7-0.3,1.4-0.5,2.2-0.5
			c0.8,0,1.6,0.2,2.2,0.5c0.7,0.3,1.2,0.8,1.6,1.4c0.4,0.6,0.8,1.3,1,2.1C97.3,9.3,97.4,10.1,97.4,11z M94.3,9.6
			c0-0.3-0.1-0.6-0.2-0.8c-0.1-0.3-0.2-0.5-0.4-0.7S93.3,7.7,93,7.6c-0.3-0.1-0.6-0.2-0.9-0.2c-0.6,0-1.1,0.2-1.4,0.6
			c-0.3,0.4-0.6,1-0.6,1.6H94.3z"/>
		<path id="XMLID_426_" class="st0" d="M109.8,13.6c0,0.7-0.1,1.3-0.4,1.8s-0.6,0.9-1.1,1.2s-1,0.5-1.6,0.7c-0.6,0.1-1.3,0.2-2,0.2
			c-1,0-1.9-0.1-2.8-0.4c-0.9-0.3-1.7-0.6-2.3-1l1.1-2.5c0.7,0.4,1.3,0.6,2,0.8s1.4,0.3,2.2,0.3c0.6,0,1.1-0.1,1.3-0.2
			c0.2-0.2,0.3-0.4,0.3-0.7c0-0.3-0.1-0.5-0.4-0.7c-0.3-0.2-0.7-0.4-1.4-0.6c-0.7-0.2-1.4-0.4-2-0.7c-0.6-0.2-1.1-0.5-1.5-0.8
			c-0.4-0.3-0.8-0.7-1-1.1c-0.2-0.4-0.3-1-0.3-1.6c0-0.6,0.1-1.2,0.4-1.7c0.2-0.5,0.6-0.8,1-1.1c0.4-0.3,1-0.5,1.6-0.7
			c0.6-0.1,1.3-0.2,2-0.2c0.8,0,1.6,0.1,2.4,0.3s1.5,0.5,2.2,0.9l-1,2.6c-0.6-0.3-1.2-0.6-1.9-0.7c-0.6-0.2-1.2-0.2-1.7-0.2
			c-0.7,0-1.1,0.1-1.3,0.2c-0.2,0.1-0.3,0.3-0.3,0.6c0,0.1,0,0.2,0.1,0.3c0.1,0.1,0.2,0.2,0.4,0.3c0.2,0.1,0.4,0.2,0.8,0.3
			c0.3,0.1,0.8,0.3,1.3,0.4c0.5,0.2,1.1,0.4,1.6,0.6c0.5,0.2,0.9,0.5,1.3,0.8c0.4,0.3,0.7,0.7,0.9,1.1
			C109.7,12.4,109.8,13,109.8,13.6z"/>
		<path id="XMLID_423_" class="st0" d="M116.3,1.9c0,0.5-0.2,0.9-0.6,1.3c-0.4,0.4-0.8,0.6-1.3,0.6s-0.9-0.2-1.3-0.6
			c-0.4-0.4-0.6-0.8-0.6-1.3c0-0.5,0.2-0.9,0.6-1.3c0.4-0.4,0.8-0.6,1.3-0.6s0.9,0.2,1.3,0.6C116.1,1,116.3,1.4,116.3,1.9z
			 M112.8,17.2V4.8h3.3v12.4H112.8z"/>
		<path id="XMLID_420_" class="st0" d="M129.4,15.1c0,1-0.1,1.9-0.2,2.7c-0.1,0.8-0.4,1.4-0.8,2c-0.4,0.5-0.9,1-1.6,1.3
			c-0.7,0.3-1.6,0.5-2.7,0.7l-1.2-2.4c0.6-0.1,1.2-0.2,1.6-0.3c0.4-0.1,0.8-0.3,1-0.5c0.3-0.2,0.4-0.5,0.5-0.8
			c0.1-0.3,0.1-0.7,0.1-1.2c-0.3,0.3-0.7,0.5-1.1,0.7c-0.4,0.2-0.9,0.3-1.5,0.3c-0.7,0-1.3-0.1-1.9-0.4s-1.1-0.6-1.5-1.2
			c-0.4-0.5-0.8-1.2-1-2c-0.3-0.8-0.4-1.8-0.4-3c0-0.9,0.1-1.8,0.3-2.5c0.2-0.8,0.5-1.4,0.9-2c0.4-0.6,0.9-1,1.5-1.3s1.3-0.5,2-0.5
			c0.5,0,1,0.1,1.5,0.3s0.8,0.4,1.1,0.7V4.8h3.3V15.1z M126.1,8.7c-0.5-0.7-1.2-1.1-2.2-1.1c-1.3,0-1.9,1.1-1.9,3.2
			c0,1.3,0.2,2.2,0.6,2.8c0.4,0.6,0.9,0.8,1.5,0.8c0.5,0,0.9-0.1,1.2-0.3s0.6-0.4,0.8-0.8V8.7z"/>
		<path id="XMLID_418_" class="st0" d="M140,17.2v-6.7c0-1.1-0.2-1.9-0.5-2.3c-0.4-0.4-0.9-0.6-1.6-0.6c-0.7,0-1.2,0.2-1.6,0.6
			c-0.4,0.4-0.6,1.1-0.6,2.2v6.8h-3.3V4.8h3.3v0.8c0.3-0.3,0.7-0.6,1.2-0.8c0.5-0.2,1.1-0.3,1.7-0.3c1.6,0,2.7,0.5,3.5,1.5
			c0.7,1,1.1,2.4,1.1,4.1v7H140z"/>
		<path id="XMLID_415_" class="st0" d="M150.2,6.8c0,0.3-0.1,0.6-0.2,0.8s-0.3,0.5-0.5,0.7c-0.2,0.2-0.4,0.4-0.7,0.5
			c-0.3,0.1-0.5,0.2-0.8,0.2s-0.6-0.1-0.8-0.2c-0.3-0.1-0.5-0.3-0.7-0.5c-0.2-0.2-0.4-0.4-0.5-0.7s-0.2-0.5-0.2-0.8
			c0-0.3,0.1-0.6,0.2-0.8c0.1-0.3,0.3-0.5,0.5-0.7c0.2-0.2,0.4-0.4,0.7-0.5s0.5-0.2,0.8-0.2s0.6,0.1,0.8,0.2
			c0.3,0.1,0.5,0.3,0.7,0.5c0.2,0.2,0.4,0.4,0.5,0.7C150.1,6.2,150.2,6.5,150.2,6.8z M150.2,15.2c0,0.3-0.1,0.6-0.2,0.8
			s-0.3,0.5-0.5,0.7s-0.4,0.4-0.7,0.5c-0.3,0.1-0.5,0.2-0.8,0.2s-0.6-0.1-0.8-0.2s-0.5-0.3-0.7-0.5s-0.4-0.4-0.5-0.7
			s-0.2-0.5-0.2-0.8s0.1-0.6,0.2-0.8s0.3-0.5,0.5-0.7s0.4-0.4,0.7-0.5c0.3-0.1,0.5-0.2,0.8-0.2s0.6,0.1,0.8,0.2
			c0.3,0.1,0.5,0.3,0.7,0.5s0.4,0.4,0.5,0.7S150.2,14.9,150.2,15.2z"/>
		<path id="XMLID_412_" class="st1" d="M175.2,11.3c0,1-0.1,1.9-0.4,2.6c-0.3,0.8-0.6,1.4-1.1,1.9c-0.5,0.5-1,0.9-1.6,1.2
			c-0.6,0.3-1.3,0.4-2,0.4c-0.7,0-1.4-0.1-2-0.4c-0.6-0.3-1.1-0.6-1.6-1.1c-0.4-0.5-0.8-1.1-1-1.9c-0.3-0.7-0.4-1.6-0.4-2.6
			c0-1,0.1-1.9,0.4-2.6c0.3-0.7,0.6-1.4,1.1-1.9c0.5-0.5,1-0.9,1.6-1.2s1.3-0.4,2-0.4s1.4,0.1,2,0.4c0.6,0.2,1.1,0.6,1.6,1.1
			c0.4,0.5,0.8,1.1,1,1.9C175.1,9.5,175.2,10.3,175.2,11.3z M173.5,11.4c0-1.5-0.3-2.7-0.9-3.4c-0.6-0.8-1.4-1.1-2.4-1.1
			s-1.8,0.4-2.4,1.1c-0.6,0.8-0.9,1.9-0.9,3.4s0.3,2.7,0.9,3.5s1.4,1.2,2.4,1.2s1.8-0.4,2.4-1.2C173.2,14.1,173.5,12.9,173.5,11.4z"
			/>
		<path id="XMLID_409_" class="st1" d="M187.5,11.2c0,1-0.1,1.9-0.3,2.7c-0.2,0.8-0.5,1.4-0.9,1.9c-0.4,0.5-0.9,0.9-1.4,1.2
			c-0.5,0.3-1.1,0.4-1.7,0.4c-0.7,0-1.4-0.1-1.9-0.4c-0.5-0.3-1-0.7-1.4-1.1v4.6l-1.7,0.9V5.6h1.7l0,1.4c0.4-0.4,0.9-0.8,1.5-1.2
			c0.6-0.3,1.2-0.5,2-0.5c0.6,0,1.1,0.1,1.6,0.3c0.5,0.2,0.9,0.6,1.3,1c0.4,0.5,0.7,1.1,0.9,1.8C187.4,9.3,187.5,10.2,187.5,11.2z
			 M185.9,11.2c0-1.5-0.3-2.6-0.8-3.3c-0.5-0.7-1.2-1.1-2.2-1.1c-0.6,0-1.2,0.2-1.7,0.5c-0.5,0.3-1,0.7-1.4,1.2v5.8
			c0.3,0.5,0.7,0.9,1.3,1.2s1.1,0.5,1.8,0.5c1,0,1.7-0.4,2.1-1.2C185.6,14,185.9,12.8,185.9,11.2z"/>
		<path id="XMLID_406_" class="st1" d="M199.3,11.1c0,0.2,0,0.4,0,0.5c0,0.1,0,0.3-0.1,0.4h-7.7c0.1,1.3,0.4,2.2,0.9,3
			c0.6,0.7,1.3,1.1,2.3,1.1c0.7,0,1.2-0.1,1.7-0.3c0.5-0.2,1-0.5,1.5-0.8l0.8,1.2c-0.4,0.2-0.7,0.4-1,0.6c-0.3,0.2-0.6,0.3-0.9,0.4
			c-0.3,0.1-0.7,0.2-1,0.2c-0.4,0.1-0.7,0.1-1.2,0.1c-0.5,0-1.1-0.1-1.6-0.3c-0.6-0.2-1.1-0.5-1.5-1c-0.5-0.5-0.8-1.1-1.1-1.9
			c-0.3-0.8-0.4-1.7-0.4-2.9c0-0.9,0.1-1.8,0.4-2.5c0.2-0.7,0.6-1.4,1-1.9c0.4-0.5,0.9-0.9,1.5-1.2c0.6-0.3,1.2-0.4,1.9-0.4
			c0.7,0,1.4,0.1,2,0.4s1.1,0.7,1.5,1.2c0.4,0.5,0.7,1.1,0.9,1.8C199.2,9.5,199.3,10.2,199.3,11.1z M197.8,10.6
			c-0.1-1.1-0.4-2.1-0.9-2.8c-0.5-0.7-1.3-1.1-2.3-1.1c-0.9,0-1.6,0.3-2.1,0.9c-0.5,0.6-0.9,1.6-1,2.9H197.8z"/>
		<path id="XMLID_404_" class="st1" d="M209.7,17.2v-6.8c0-1.3-0.2-2.2-0.7-2.7c-0.4-0.6-1.1-0.9-2.1-0.9c-0.8,0-1.5,0.3-2,0.9
			c-0.5,0.6-0.8,1.5-0.8,2.8v6.8h-1.7V5.6h1.7l0,1.4c0.3-0.5,0.8-0.9,1.3-1.2s1.2-0.5,1.9-0.5c0.6,0,1.2,0.1,1.7,0.3
			s0.9,0.5,1.3,0.9s0.6,0.9,0.8,1.5c0.2,0.6,0.3,1.3,0.3,2.1v7H209.7z"/>
		<path id="XMLID_402_" class="st1" d="M220.7,17.2V2l1.7-0.9v16.1H220.7z"/>
		<path id="XMLID_399_" class="st1" d="M232.8,17.2v-1.4c-0.4,0.4-0.9,0.8-1.5,1.2c-0.6,0.3-1.3,0.5-2.1,0.5c-0.5,0-0.9-0.1-1.3-0.2
			s-0.8-0.3-1.2-0.6c-0.4-0.3-0.6-0.7-0.8-1.1c-0.2-0.5-0.3-1.1-0.3-1.8c0-0.6,0.1-1.2,0.4-1.7c0.2-0.5,0.6-0.9,1-1.2
			c0.4-0.3,0.9-0.5,1.4-0.7c0.5-0.1,1.1-0.2,1.7-0.2c0.6,0,1.1,0.1,1.6,0.2c0.5,0.1,0.9,0.3,1.3,0.5V9.3c0-1.7-0.8-2.5-2.5-2.5
			c-0.6,0-1.2,0.1-1.7,0.2c-0.5,0.2-1,0.4-1.5,0.6l-0.6-1.4c0.5-0.3,1.1-0.5,1.8-0.7c0.7-0.2,1.4-0.3,2.1-0.3c1.2,0,2.2,0.3,3,0.9
			c0.7,0.6,1.1,1.5,1.1,2.9v8.1H232.8z M232.8,12c-0.4-0.2-0.8-0.4-1.2-0.5s-1-0.2-1.7-0.2c-0.8,0-1.5,0.2-2,0.6
			c-0.5,0.4-0.7,1-0.7,1.7c0,0.9,0.2,1.5,0.6,1.9s1,0.6,1.7,0.6c0.7,0,1.4-0.2,2-0.5c0.6-0.3,1-0.7,1.4-1.2V12z"/>
		<path id="XMLID_396_" class="st1" d="M247.3,11.2c0,1-0.1,1.9-0.3,2.7c-0.2,0.8-0.5,1.4-0.9,1.9c-0.4,0.5-0.9,0.9-1.4,1.2
			c-0.5,0.3-1.1,0.4-1.7,0.4c-0.7,0-1.4-0.1-1.9-0.4c-0.5-0.3-1-0.7-1.4-1.1v1.3H238V2l1.7-0.9l0,5.9c0.4-0.4,0.9-0.8,1.5-1.2
			c0.6-0.3,1.2-0.5,2-0.5c0.6,0,1.1,0.1,1.6,0.3c0.5,0.2,0.9,0.6,1.3,1c0.4,0.5,0.7,1.1,0.9,1.8C247.2,9.3,247.3,10.2,247.3,11.2z
			 M245.7,11.2c0-1.5-0.3-2.6-0.8-3.3c-0.5-0.7-1.2-1.1-2.2-1.1c-0.6,0-1.2,0.2-1.7,0.5c-0.5,0.3-1,0.7-1.4,1.2v5.8
			c0.3,0.5,0.7,0.9,1.3,1.2s1.1,0.5,1.8,0.5c1,0,1.7-0.4,2.1-1.2C245.4,14,245.7,12.8,245.7,11.2z"/>
		<path id="XMLID_393_" class="st1" d="M259.1,11.1c0,0.2,0,0.4,0,0.5c0,0.1,0,0.3-0.1,0.4h-7.7c0.1,1.3,0.4,2.2,0.9,3
			c0.6,0.7,1.3,1.1,2.3,1.1c0.7,0,1.2-0.1,1.7-0.3c0.5-0.2,1-0.5,1.5-0.8l0.8,1.2c-0.4,0.2-0.7,0.4-1,0.6c-0.3,0.2-0.6,0.3-0.9,0.4
			c-0.3,0.1-0.7,0.2-1,0.2c-0.4,0.1-0.7,0.1-1.2,0.1c-0.5,0-1.1-0.1-1.6-0.3c-0.6-0.2-1.1-0.5-1.5-1c-0.5-0.5-0.8-1.1-1.1-1.9
			c-0.3-0.8-0.4-1.7-0.4-2.9c0-0.9,0.1-1.8,0.4-2.5c0.2-0.7,0.6-1.4,1-1.9c0.4-0.5,0.9-0.9,1.5-1.2c0.6-0.3,1.2-0.4,1.9-0.4
			c0.7,0,1.4,0.1,2,0.4s1.1,0.7,1.5,1.2c0.4,0.5,0.7,1.1,0.9,1.8C259,9.5,259.1,10.2,259.1,11.1z M257.6,10.6
			c-0.1-1.1-0.4-2.1-0.9-2.8c-0.5-0.7-1.3-1.1-2.3-1.1c-0.9,0-1.6,0.3-2.1,0.9c-0.5,0.6-0.9,1.6-1,2.9H257.6z"/>
		<path id="XMLID_391_" class="st1" d="M262.3,17.2V2l1.7-0.9v16.1H262.3z"/>
		<path id="XMLID_389_" class="st1" d="M268.4,19.8h-1.1l0.3-5.1h2.2L268.4,19.8z"/>
		<path id="XMLID_387_" class="st1" d="M292.2,17.2v-6.8c0-1.3-0.2-2.3-0.6-2.8c-0.4-0.5-1-0.8-1.9-0.8c-0.8,0-1.4,0.3-1.9,0.8
			c-0.5,0.6-0.7,1.5-0.7,2.8v6.8h-1.7v-6.8c0-1.3-0.2-2.3-0.6-2.8c-0.4-0.5-1-0.8-1.8-0.8c-0.8,0-1.4,0.3-1.9,0.8s-0.7,1.5-0.7,2.8
			v6.8h-1.7V5.6h1.7l0,1.4c0.3-0.5,0.7-0.9,1.2-1.2c0.5-0.3,1.1-0.5,1.8-0.5c0.8,0,1.5,0.2,2,0.6c0.5,0.4,0.9,0.9,1.2,1.4
			c0.2-0.3,0.4-0.5,0.6-0.8c0.2-0.2,0.4-0.5,0.7-0.6c0.3-0.2,0.6-0.3,1-0.4c0.4-0.1,0.8-0.2,1.2-0.2c1.2,0,2.1,0.4,2.8,1.1
			c0.7,0.7,1,2,1,3.6v7H292.2z"/>
		<path id="XMLID_385_" class="st1" d="M304.6,17.2v-1.4c-0.3,0.5-0.8,0.9-1.3,1.2s-1.2,0.5-1.9,0.5c-0.6,0-1.2-0.1-1.7-0.3
			c-0.5-0.2-0.9-0.5-1.3-0.9c-0.4-0.4-0.6-0.9-0.8-1.5c-0.2-0.6-0.3-1.3-0.3-2.1v-7h1.7v6.8c0,1.3,0.2,2.2,0.7,2.7
			c0.4,0.6,1.1,0.9,2.1,0.9c0.8,0,1.5-0.3,2-0.9c0.5-0.6,0.8-1.5,0.8-2.8V5.6h1.7v11.6H304.6z"/>
		<path id="XMLID_383_" class="st1" d="M310,17.2V2l1.7-0.9v16.1H310z"/>
		<path id="XMLID_381_" class="st1" d="M317.6,7v7.5c0,0.5,0.1,0.9,0.3,1.1s0.5,0.3,0.9,0.3c0.3,0,0.6,0,0.9-0.1
			c0.2-0.1,0.5-0.1,0.8-0.3l-0.1,1.4c-0.3,0.1-0.6,0.2-1,0.3s-0.7,0.1-1.2,0.1c-0.7,0-1.3-0.2-1.7-0.6c-0.4-0.4-0.6-1.1-0.6-2V7
			h-1.4V5.6h1.4V2l1.7-0.9v4.5h2.9V7H317.6z"/>
		<path id="XMLID_378_" class="st1" d="M325.8,2.4c0,0.3-0.1,0.6-0.3,0.8c-0.2,0.2-0.5,0.3-0.8,0.3c-0.3,0-0.6-0.1-0.9-0.3
			c-0.2-0.2-0.4-0.5-0.4-0.8c0-0.3,0.1-0.6,0.4-0.8c0.2-0.2,0.5-0.3,0.9-0.3c0.3,0,0.6,0.1,0.8,0.3C325.6,1.8,325.8,2,325.8,2.4z
			 M323.8,17.2V5.6h1.7v11.6H323.8z"/>
		<path id="XMLID_376_" class="st1" d="M336.2,7.9c-0.4-0.4-0.8-0.7-1.3-0.9s-0.9-0.3-1.5-0.3c-0.5,0-0.9,0.1-1.3,0.3
			c-0.4,0.2-0.7,0.5-1,0.9c-0.3,0.4-0.5,0.9-0.7,1.4c-0.2,0.6-0.2,1.2-0.2,1.9c0,1.4,0.3,2.6,0.9,3.4c0.6,0.8,1.4,1.3,2.4,1.3
			c0.6,0,1-0.1,1.5-0.3s0.8-0.5,1.2-0.9l1,1.1c-0.5,0.5-1,0.9-1.6,1.2s-1.3,0.4-2.1,0.4c-0.6,0-1.2-0.1-1.8-0.4
			c-0.6-0.2-1.1-0.6-1.6-1.1c-0.4-0.5-0.8-1.1-1.1-1.9c-0.3-0.7-0.4-1.6-0.4-2.6c0-1.1,0.1-2,0.4-2.8c0.3-0.8,0.7-1.4,1.1-1.9
			c0.5-0.5,1-0.9,1.6-1.1s1.2-0.4,1.8-0.4c0.8,0,1.5,0.1,2.1,0.4c0.6,0.3,1.1,0.6,1.6,1L336.2,7.9z"/>
		<path id="XMLID_373_" class="st1" d="M348.9,11.1c0,0.2,0,0.4,0,0.5c0,0.1,0,0.3-0.1,0.4h-7.7c0.1,1.3,0.4,2.2,0.9,3
			c0.6,0.7,1.3,1.1,2.3,1.1c0.7,0,1.2-0.1,1.7-0.3c0.5-0.2,1-0.5,1.5-0.8l0.8,1.2c-0.4,0.2-0.7,0.4-1,0.6c-0.3,0.2-0.6,0.3-0.9,0.4
			c-0.3,0.1-0.7,0.2-1,0.2c-0.4,0.1-0.7,0.1-1.2,0.1c-0.5,0-1.1-0.1-1.6-0.3c-0.6-0.2-1.1-0.5-1.5-1c-0.5-0.5-0.8-1.1-1.1-1.9
			c-0.3-0.8-0.4-1.7-0.4-2.9c0-0.9,0.1-1.8,0.4-2.5c0.2-0.7,0.6-1.4,1-1.9c0.4-0.5,0.9-0.9,1.5-1.2c0.6-0.3,1.2-0.4,1.9-0.4
			c0.7,0,1.4,0.1,2,0.4s1.1,0.7,1.5,1.2c0.4,0.5,0.7,1.1,0.9,1.8C348.8,9.5,348.9,10.2,348.9,11.1z M347.3,10.6
			c-0.1-1.1-0.4-2.1-0.9-2.8c-0.5-0.7-1.3-1.1-2.3-1.1c-0.9,0-1.6,0.3-2.1,0.9c-0.5,0.6-0.9,1.6-1,2.9H347.3z"/>
		<path id="XMLID_371_" class="st1" d="M359.2,17.2v-6.8c0-1.3-0.2-2.2-0.7-2.7c-0.4-0.6-1.1-0.9-2.1-0.9c-0.8,0-1.5,0.3-2,0.9
			c-0.5,0.6-0.8,1.5-0.8,2.8v6.8H352V5.6h1.7l0,1.4c0.3-0.5,0.8-0.9,1.3-1.2s1.2-0.5,1.9-0.5c0.6,0,1.2,0.1,1.7,0.3s0.9,0.5,1.3,0.9
			s0.6,0.9,0.8,1.5c0.2,0.6,0.3,1.3,0.3,2.1v7H359.2z"/>
		<path id="XMLID_369_" class="st1" d="M366.6,7v7.5c0,0.5,0.1,0.9,0.3,1.1s0.5,0.3,0.9,0.3c0.3,0,0.6,0,0.9-0.1
			c0.2-0.1,0.5-0.1,0.8-0.3l-0.1,1.4c-0.3,0.1-0.6,0.2-1,0.3s-0.7,0.1-1.2,0.1c-0.7,0-1.3-0.2-1.7-0.6c-0.4-0.4-0.6-1.1-0.6-2V7
			h-1.4V5.6h1.4V2l1.7-0.9v4.5h2.9V7H366.6z"/>
		<path id="XMLID_366_" class="st1" d="M381.4,11.1c0,0.2,0,0.4,0,0.5c0,0.1,0,0.3-0.1,0.4h-7.7c0.1,1.3,0.4,2.2,0.9,3
			c0.6,0.7,1.3,1.1,2.3,1.1c0.7,0,1.2-0.1,1.7-0.3c0.5-0.2,1-0.5,1.5-0.8l0.8,1.2c-0.4,0.2-0.7,0.4-1,0.6c-0.3,0.2-0.6,0.3-0.9,0.4
			c-0.3,0.1-0.7,0.2-1,0.2c-0.4,0.1-0.7,0.1-1.2,0.1c-0.5,0-1.1-0.1-1.6-0.3c-0.6-0.2-1.1-0.5-1.5-1c-0.5-0.5-0.8-1.1-1.1-1.9
			c-0.3-0.8-0.4-1.7-0.4-2.9c0-0.9,0.1-1.8,0.4-2.5c0.2-0.7,0.6-1.4,1-1.9c0.4-0.5,0.9-0.9,1.5-1.2c0.6-0.3,1.2-0.4,1.9-0.4
			c0.7,0,1.4,0.1,2,0.4s1.1,0.7,1.5,1.2c0.4,0.5,0.7,1.1,0.9,1.8C381.3,9.5,381.4,10.2,381.4,11.1z M379.9,10.6
			c-0.1-1.1-0.4-2.1-0.9-2.8c-0.5-0.7-1.3-1.1-2.3-1.1c-0.9,0-1.6,0.3-2.1,0.9c-0.5,0.6-0.9,1.6-1,2.9H379.9z"/>
		<path id="XMLID_364_" class="st1" d="M390.5,7.3c-0.2-0.1-0.5-0.2-0.8-0.3c-0.3-0.1-0.6-0.1-1-0.1c-0.8,0-1.4,0.3-1.9,0.9
			c-0.4,0.6-0.6,1.5-0.6,2.6v6.8h-1.7V5.6h1.7V7c0.3-0.5,0.7-0.9,1.2-1.2c0.5-0.3,1.1-0.5,1.7-0.5c0.4,0,0.8,0,1.1,0.1
			c0.3,0.1,0.5,0.1,0.7,0.2L390.5,7.3z"/>
		<path id="XMLID_362_" class="st1" d="M394.1,19.8H393l0.3-5.1h2.2L394.1,19.8z"/>
		<path id="XMLID_360_" class="st1" d="M410.4,7.3c-0.2-0.1-0.5-0.2-0.8-0.3c-0.3-0.1-0.6-0.1-1-0.1c-0.8,0-1.4,0.3-1.9,0.9
			c-0.4,0.6-0.6,1.5-0.6,2.6v6.8h-1.7V5.6h1.7V7c0.3-0.5,0.7-0.9,1.2-1.2c0.5-0.3,1.1-0.5,1.7-0.5c0.4,0,0.8,0,1.1,0.1
			c0.3,0.1,0.5,0.1,0.7,0.2L410.4,7.3z"/>
		<path id="XMLID_357_" class="st1" d="M420.1,17.2v-1.4c-0.4,0.4-0.9,0.8-1.5,1.2c-0.6,0.3-1.3,0.5-2.1,0.5c-0.5,0-0.9-0.1-1.3-0.2
			s-0.8-0.3-1.2-0.6c-0.4-0.3-0.6-0.7-0.8-1.1c-0.2-0.5-0.3-1.1-0.3-1.8c0-0.6,0.1-1.2,0.4-1.7c0.2-0.5,0.6-0.9,1-1.2
			c0.4-0.3,0.9-0.5,1.4-0.7c0.5-0.1,1.1-0.2,1.7-0.2c0.6,0,1.1,0.1,1.6,0.2c0.5,0.1,0.9,0.3,1.3,0.5V9.3c0-1.7-0.8-2.5-2.5-2.5
			c-0.6,0-1.2,0.1-1.7,0.2c-0.5,0.2-1,0.4-1.5,0.6l-0.6-1.4c0.5-0.3,1.1-0.5,1.8-0.7c0.7-0.2,1.4-0.3,2.1-0.3c1.2,0,2.2,0.3,3,0.9
			c0.7,0.6,1.1,1.5,1.1,2.9v8.1H420.1z M420.1,12c-0.4-0.2-0.8-0.4-1.2-0.5s-1-0.2-1.7-0.2c-0.8,0-1.5,0.2-2,0.6
			c-0.5,0.4-0.7,1-0.7,1.7c0,0.9,0.2,1.5,0.6,1.9s1,0.6,1.7,0.6c0.7,0,1.4-0.2,2-0.5c0.6-0.3,1-0.7,1.4-1.2V12z"/>
		<path id="XMLID_355_" class="st1" d="M432.6,17.2v-6.8c0-1.3-0.2-2.2-0.7-2.7c-0.4-0.6-1.1-0.9-2.1-0.9c-0.8,0-1.5,0.3-2,0.9
			c-0.5,0.6-0.8,1.5-0.8,2.8v6.8h-1.7V5.6h1.7l0,1.4c0.3-0.5,0.8-0.9,1.3-1.2s1.2-0.5,1.9-0.5c0.6,0,1.2,0.1,1.7,0.3
			s0.9,0.5,1.3,0.9s0.6,0.9,0.8,1.5c0.2,0.6,0.3,1.3,0.3,2.1v7H432.6z"/>
		<path id="XMLID_352_" class="st1" d="M444.8,17.2v-1.4c-0.4,0.4-0.9,0.8-1.5,1.2c-0.6,0.3-1.2,0.5-2,0.5c-0.6,0-1.1-0.1-1.6-0.3
			s-0.9-0.6-1.3-1s-0.7-1.1-0.9-1.8c-0.2-0.7-0.3-1.6-0.3-2.6c0-1,0.1-1.9,0.3-2.7c0.2-0.8,0.5-1.4,0.9-1.9c0.4-0.5,0.9-0.9,1.4-1.2
			c0.5-0.3,1.1-0.4,1.7-0.4c0.7,0,1.4,0.1,1.9,0.4c0.5,0.3,1,0.7,1.4,1.1V2l1.7-0.9v16.1H444.8z M444.8,8.5
			c-0.3-0.5-0.8-0.9-1.3-1.2c-0.5-0.3-1.1-0.5-1.8-0.5c-1,0-1.7,0.4-2.2,1.2c-0.5,0.8-0.7,2-0.7,3.6c0,1.5,0.3,2.6,0.8,3.3
			c0.5,0.7,1.2,1.1,2.2,1.1c0.6,0,1.2-0.2,1.7-0.5c0.5-0.3,1-0.7,1.4-1.2V8.5z"/>
		<path id="XMLID_349_" class="st1" d="M459.6,11.3c0,1-0.1,1.9-0.4,2.6c-0.3,0.8-0.6,1.4-1.1,1.9c-0.5,0.5-1,0.9-1.6,1.2
			c-0.6,0.3-1.3,0.4-2,0.4c-0.7,0-1.4-0.1-2-0.4c-0.6-0.3-1.1-0.6-1.6-1.1c-0.4-0.5-0.8-1.1-1-1.9c-0.3-0.7-0.4-1.6-0.4-2.6
			c0-1,0.1-1.9,0.4-2.6c0.3-0.7,0.6-1.4,1.1-1.9c0.5-0.5,1-0.9,1.6-1.2s1.3-0.4,2-0.4s1.4,0.1,2,0.4c0.6,0.2,1.1,0.6,1.6,1.1
			c0.4,0.5,0.8,1.1,1,1.9C459.5,9.5,459.6,10.3,459.6,11.3z M457.9,11.4c0-1.5-0.3-2.7-0.9-3.4c-0.6-0.8-1.4-1.1-2.4-1.1
			s-1.8,0.4-2.4,1.1c-0.6,0.8-0.9,1.9-0.9,3.4s0.3,2.7,0.9,3.5s1.4,1.2,2.4,1.2s1.8-0.4,2.4-1.2C457.6,14.1,457.9,12.9,457.9,11.4z"
			/>
		<path id="XMLID_347_" class="st1" d="M476,17.2v-6.8c0-1.3-0.2-2.3-0.6-2.8c-0.4-0.5-1-0.8-1.9-0.8c-0.8,0-1.4,0.3-1.9,0.8
			c-0.5,0.6-0.7,1.5-0.7,2.8v6.8h-1.7v-6.8c0-1.3-0.2-2.3-0.6-2.8c-0.4-0.5-1-0.8-1.8-0.8c-0.8,0-1.4,0.3-1.9,0.8s-0.7,1.5-0.7,2.8
			v6.8h-1.7V5.6h1.7l0,1.4c0.3-0.5,0.7-0.9,1.2-1.2c0.5-0.3,1.1-0.5,1.8-0.5c0.8,0,1.5,0.2,2,0.6c0.5,0.4,0.9,0.9,1.2,1.4
			c0.2-0.3,0.4-0.5,0.6-0.8c0.2-0.2,0.4-0.5,0.7-0.6c0.3-0.2,0.6-0.3,1-0.4c0.4-0.1,0.8-0.2,1.2-0.2c1.2,0,2.1,0.4,2.8,1.1
			c0.7,0.7,1,2,1,3.6v7H476z"/>
		<path id="XMLID_344_" class="st1" d="M483.4,2.4c0,0.3-0.1,0.6-0.3,0.8c-0.2,0.2-0.5,0.3-0.8,0.3c-0.3,0-0.6-0.1-0.9-0.3
			C481.2,3,481,2.7,481,2.4c0-0.3,0.1-0.6,0.4-0.8c0.2-0.2,0.5-0.3,0.9-0.3c0.3,0,0.6,0.1,0.8,0.3C483.3,1.8,483.4,2,483.4,2.4z
			 M481.4,17.2V5.6h1.7v11.6H481.4z"/>
		<path id="XMLID_342_" class="st1" d="M486.2,17.2V16l6.3-8.9h-5.8V5.6h7.7v1.2l-6.3,8.9h6.3v1.4H486.2z"/>
		<path id="XMLID_339_" class="st1" d="M506.4,11.1c0,0.2,0,0.4,0,0.5c0,0.1,0,0.3-0.1,0.4h-7.7c0.1,1.3,0.4,2.2,0.9,3
			c0.6,0.7,1.3,1.1,2.3,1.1c0.7,0,1.2-0.1,1.7-0.3c0.5-0.2,1-0.5,1.5-0.8l0.8,1.2c-0.4,0.2-0.7,0.4-1,0.6c-0.3,0.2-0.6,0.3-0.9,0.4
			c-0.3,0.1-0.7,0.2-1,0.2c-0.4,0.1-0.7,0.1-1.2,0.1c-0.5,0-1.1-0.1-1.6-0.3c-0.6-0.2-1.1-0.5-1.5-1c-0.5-0.5-0.8-1.1-1.1-1.9
			c-0.3-0.8-0.4-1.7-0.4-2.9c0-0.9,0.1-1.8,0.4-2.5c0.2-0.7,0.6-1.4,1-1.9c0.4-0.5,0.9-0.9,1.5-1.2c0.6-0.3,1.2-0.4,1.9-0.4
			c0.7,0,1.4,0.1,2,0.4s1.1,0.7,1.5,1.2c0.4,0.5,0.7,1.1,0.9,1.8C506.3,9.5,506.4,10.2,506.4,11.1z M504.9,10.6
			c-0.1-1.1-0.4-2.1-0.9-2.8c-0.5-0.7-1.3-1.1-2.3-1.1c-0.9,0-1.6,0.3-2.1,0.9c-0.5,0.6-0.9,1.6-1,2.9H504.9z"/>
		<path id="XMLID_336_" class="st1" d="M516.5,17.2v-1.4c-0.4,0.4-0.9,0.8-1.5,1.2c-0.6,0.3-1.2,0.5-2,0.5c-0.6,0-1.1-0.1-1.6-0.3
			s-0.9-0.6-1.3-1s-0.7-1.1-0.9-1.8c-0.2-0.7-0.3-1.6-0.3-2.6c0-1,0.1-1.9,0.3-2.7c0.2-0.8,0.5-1.4,0.9-1.9c0.4-0.5,0.9-0.9,1.4-1.2
			c0.5-0.3,1.1-0.4,1.7-0.4c0.7,0,1.4,0.1,1.9,0.4c0.5,0.3,1,0.7,1.4,1.1V2l1.7-0.9v16.1H516.5z M516.5,8.5
			c-0.3-0.5-0.8-0.9-1.3-1.2c-0.5-0.3-1.1-0.5-1.8-0.5c-1,0-1.7,0.4-2.2,1.2c-0.5,0.8-0.7,2-0.7,3.6c0,1.5,0.3,2.6,0.8,3.3
			c0.5,0.7,1.2,1.1,2.2,1.1c0.6,0,1.2-0.2,1.7-0.5c0.5-0.3,1-0.7,1.4-1.2V8.5z"/>
		<path id="XMLID_334_" class="st1" d="M529.7,7v7.5c0,0.5,0.1,0.9,0.3,1.1s0.5,0.3,0.9,0.3c0.3,0,0.6,0,0.9-0.1
			c0.2-0.1,0.5-0.1,0.8-0.3l-0.1,1.4c-0.3,0.1-0.6,0.2-1,0.3s-0.7,0.1-1.2,0.1c-0.7,0-1.3-0.2-1.7-0.6c-0.4-0.4-0.6-1.1-0.6-2V7
			h-1.4V5.6h1.4V2l1.7-0.9v4.5h2.9V7H529.7z"/>
		<path id="XMLID_332_" class="st1" d="M541.7,7.3c-0.2-0.1-0.5-0.2-0.8-0.3c-0.3-0.1-0.6-0.1-1-0.1c-0.8,0-1.4,0.3-1.9,0.9
			c-0.4,0.6-0.6,1.5-0.6,2.6v6.8h-1.7V5.6h1.7V7c0.3-0.5,0.7-0.9,1.2-1.2c0.5-0.3,1.1-0.5,1.7-0.5c0.4,0,0.8,0,1.1,0.1
			c0.3,0.1,0.5,0.1,0.7,0.2L541.7,7.3z"/>
		<path id="XMLID_329_" class="st1" d="M546.8,2.4c0,0.3-0.1,0.6-0.3,0.8c-0.2,0.2-0.5,0.3-0.8,0.3c-0.3,0-0.6-0.1-0.9-0.3
			c-0.2-0.2-0.4-0.5-0.4-0.8c0-0.3,0.1-0.6,0.4-0.8c0.2-0.2,0.5-0.3,0.9-0.3c0.3,0,0.6,0.1,0.8,0.3C546.7,1.8,546.8,2,546.8,2.4z
			 M544.8,17.2V5.6h1.7v11.6H544.8z"/>
		<path id="XMLID_326_" class="st1" d="M556.9,17.2v-1.4c-0.4,0.4-0.9,0.8-1.5,1.2c-0.6,0.3-1.3,0.5-2.1,0.5c-0.5,0-0.9-0.1-1.3-0.2
			s-0.8-0.3-1.2-0.6c-0.4-0.3-0.6-0.7-0.8-1.1c-0.2-0.5-0.3-1.1-0.3-1.8c0-0.6,0.1-1.2,0.4-1.7c0.2-0.5,0.6-0.9,1-1.2
			c0.4-0.3,0.9-0.5,1.4-0.7c0.5-0.1,1.1-0.2,1.7-0.2c0.6,0,1.1,0.1,1.6,0.2c0.5,0.1,0.9,0.3,1.3,0.5V9.3c0-1.7-0.8-2.5-2.5-2.5
			c-0.6,0-1.2,0.1-1.7,0.2c-0.5,0.2-1,0.4-1.5,0.6l-0.6-1.4c0.5-0.3,1.1-0.5,1.8-0.7c0.7-0.2,1.4-0.3,2.1-0.3c1.2,0,2.2,0.3,3,0.9
			c0.7,0.6,1.1,1.5,1.1,2.9v8.1H556.9z M556.9,12c-0.4-0.2-0.8-0.4-1.2-0.5s-1-0.2-1.7-0.2c-0.8,0-1.5,0.2-2,0.6
			c-0.5,0.4-0.7,1-0.7,1.7c0,0.9,0.2,1.5,0.6,1.9s1,0.6,1.7,0.6c0.7,0,1.4-0.2,2-0.5c0.6-0.3,1-0.7,1.4-1.2V12z"/>
		<path id="XMLID_324_" class="st1" d="M562.2,17.2V2l1.7-0.9v16.1H562.2z"/>
		<path id="XMLID_322_" class="st1" d="M580.4,7.9c-0.4-0.4-0.8-0.7-1.3-0.9s-0.9-0.3-1.5-0.3c-0.5,0-0.9,0.1-1.3,0.3
			c-0.4,0.2-0.7,0.5-1,0.9c-0.3,0.4-0.5,0.9-0.7,1.4c-0.2,0.6-0.2,1.2-0.2,1.9c0,1.4,0.3,2.6,0.9,3.4c0.6,0.8,1.4,1.3,2.4,1.3
			c0.6,0,1-0.1,1.5-0.3s0.8-0.5,1.2-0.9l1,1.1c-0.5,0.5-1,0.9-1.6,1.2s-1.3,0.4-2.1,0.4c-0.6,0-1.2-0.1-1.8-0.4
			c-0.6-0.2-1.1-0.6-1.6-1.1c-0.4-0.5-0.8-1.1-1.1-1.9c-0.3-0.7-0.4-1.6-0.4-2.6c0-1.1,0.1-2,0.4-2.8c0.3-0.8,0.7-1.4,1.1-1.9
			c0.5-0.5,1-0.9,1.6-1.1s1.2-0.4,1.8-0.4c0.8,0,1.5,0.1,2.1,0.4c0.6,0.3,1.1,0.6,1.6,1L580.4,7.9z"/>
		<path id="XMLID_319_" class="st1" d="M593.7,11.3c0,1-0.1,1.9-0.4,2.6c-0.3,0.8-0.6,1.4-1.1,1.9c-0.5,0.5-1,0.9-1.6,1.2
			c-0.6,0.3-1.3,0.4-2,0.4c-0.7,0-1.4-0.1-2-0.4c-0.6-0.3-1.1-0.6-1.6-1.1c-0.4-0.5-0.8-1.1-1-1.9c-0.3-0.7-0.4-1.6-0.4-2.6
			c0-1,0.1-1.9,0.4-2.6c0.3-0.7,0.6-1.4,1.1-1.9c0.5-0.5,1-0.9,1.6-1.2s1.3-0.4,2-0.4s1.4,0.1,2,0.4c0.6,0.2,1.1,0.6,1.6,1.1
			c0.4,0.5,0.8,1.1,1,1.9C593.6,9.5,593.7,10.3,593.7,11.3z M592.1,11.4c0-1.5-0.3-2.7-0.9-3.4c-0.6-0.8-1.4-1.1-2.4-1.1
			s-1.8,0.4-2.4,1.1c-0.6,0.8-0.9,1.9-0.9,3.4s0.3,2.7,0.9,3.5s1.4,1.2,2.4,1.2s1.8-0.4,2.4-1.2C591.8,14.1,592.1,12.9,592.1,11.4z"
			/>
		<path id="XMLID_317_" class="st1" d="M610.2,17.2v-6.8c0-1.3-0.2-2.3-0.6-2.8c-0.4-0.5-1-0.8-1.9-0.8c-0.8,0-1.4,0.3-1.9,0.8
			c-0.5,0.6-0.7,1.5-0.7,2.8v6.8h-1.7v-6.8c0-1.3-0.2-2.3-0.6-2.8c-0.4-0.5-1-0.8-1.8-0.8c-0.8,0-1.4,0.3-1.9,0.8s-0.7,1.5-0.7,2.8
			v6.8h-1.7V5.6h1.7l0,1.4c0.3-0.5,0.7-0.9,1.2-1.2c0.5-0.3,1.1-0.5,1.8-0.5c0.8,0,1.5,0.2,2,0.6c0.5,0.4,0.9,0.9,1.2,1.4
			c0.2-0.3,0.4-0.5,0.6-0.8c0.2-0.2,0.4-0.5,0.7-0.6c0.3-0.2,0.6-0.3,1-0.4c0.4-0.1,0.8-0.2,1.2-0.2c1.2,0,2.1,0.4,2.8,1.1
			c0.7,0.7,1,2,1,3.6v7H610.2z"/>
		<path id="XMLID_314_" class="st1" d="M624.7,11.2c0,1-0.1,1.9-0.3,2.7c-0.2,0.8-0.5,1.4-0.9,1.9c-0.4,0.5-0.9,0.9-1.4,1.2
			c-0.5,0.3-1.1,0.4-1.7,0.4c-0.7,0-1.4-0.1-1.9-0.4c-0.5-0.3-1-0.7-1.4-1.1v4.6l-1.7,0.9V5.6h1.7l0,1.4c0.4-0.4,0.9-0.8,1.5-1.2
			c0.6-0.3,1.2-0.5,2-0.5c0.6,0,1.1,0.1,1.6,0.3c0.5,0.2,0.9,0.6,1.3,1c0.4,0.5,0.7,1.1,0.9,1.8C624.6,9.3,624.7,10.2,624.7,11.2z
			 M623.1,11.2c0-1.5-0.3-2.6-0.8-3.3c-0.5-0.7-1.2-1.1-2.2-1.1c-0.6,0-1.2,0.2-1.7,0.5c-0.5,0.3-1,0.7-1.4,1.2v5.8
			c0.3,0.5,0.7,0.9,1.3,1.2s1.1,0.5,1.8,0.5c1,0,1.7-0.4,2.1-1.2C622.8,14,623.1,12.8,623.1,11.2z"/>
		<path id="XMLID_311_" class="st1" d="M634.4,17.2v-1.4c-0.4,0.4-0.9,0.8-1.5,1.2c-0.6,0.3-1.3,0.5-2.1,0.5c-0.5,0-0.9-0.1-1.3-0.2
			s-0.8-0.3-1.2-0.6c-0.4-0.3-0.6-0.7-0.8-1.1c-0.2-0.5-0.3-1.1-0.3-1.8c0-0.6,0.1-1.2,0.4-1.7c0.2-0.5,0.6-0.9,1-1.2
			c0.4-0.3,0.9-0.5,1.4-0.7c0.5-0.1,1.1-0.2,1.7-0.2c0.6,0,1.1,0.1,1.6,0.2c0.5,0.1,0.9,0.3,1.3,0.5V9.3c0-1.7-0.8-2.5-2.5-2.5
			c-0.6,0-1.2,0.1-1.7,0.2c-0.5,0.2-1,0.4-1.5,0.6l-0.6-1.4c0.5-0.3,1.1-0.5,1.8-0.7c0.7-0.2,1.4-0.3,2.1-0.3c1.2,0,2.2,0.3,3,0.9
			c0.7,0.6,1.1,1.5,1.1,2.9v8.1H634.4z M634.4,12c-0.4-0.2-0.8-0.4-1.2-0.5s-1-0.2-1.7-0.2c-0.8,0-1.5,0.2-2,0.6
			c-0.5,0.4-0.7,1-0.7,1.7c0,0.9,0.2,1.5,0.6,1.9s1,0.6,1.7,0.6c0.7,0,1.4-0.2,2-0.5c0.6-0.3,1-0.7,1.4-1.2V12z"/>
		<path id="XMLID_309_" class="st1" d="M645.5,7.3c-0.2-0.1-0.5-0.2-0.8-0.3c-0.3-0.1-0.6-0.1-1-0.1c-0.8,0-1.4,0.3-1.9,0.9
			c-0.4,0.6-0.6,1.5-0.6,2.6v6.8h-1.7V5.6h1.7V7c0.3-0.5,0.7-0.9,1.2-1.2c0.5-0.3,1.1-0.5,1.7-0.5c0.4,0,0.8,0,1.1,0.1
			c0.3,0.1,0.5,0.1,0.7,0.2L645.5,7.3z"/>
		<path id="XMLID_306_" class="st1" d="M657.4,11.1c0,0.2,0,0.4,0,0.5c0,0.1,0,0.3-0.1,0.4h-7.7c0.1,1.3,0.4,2.2,0.9,3
			c0.6,0.7,1.3,1.1,2.3,1.1c0.7,0,1.2-0.1,1.7-0.3c0.5-0.2,1-0.5,1.5-0.8l0.8,1.2c-0.4,0.2-0.7,0.4-1,0.6c-0.3,0.2-0.6,0.3-0.9,0.4
			c-0.3,0.1-0.7,0.2-1,0.2c-0.4,0.1-0.7,0.1-1.2,0.1c-0.5,0-1.1-0.1-1.6-0.3c-0.6-0.2-1.1-0.5-1.5-1c-0.5-0.5-0.8-1.1-1.1-1.9
			c-0.3-0.8-0.4-1.7-0.4-2.9c0-0.9,0.1-1.8,0.4-2.5c0.2-0.7,0.6-1.4,1-1.9c0.4-0.5,0.9-0.9,1.5-1.2c0.6-0.3,1.2-0.4,1.9-0.4
			c0.7,0,1.4,0.1,2,0.4s1.1,0.7,1.5,1.2c0.4,0.5,0.7,1.1,0.9,1.8C657.3,9.5,657.4,10.2,657.4,11.1z M655.8,10.6
			c-0.1-1.1-0.4-2.1-0.9-2.8c-0.5-0.7-1.3-1.1-2.3-1.1c-0.9,0-1.6,0.3-2.1,0.9c-0.5,0.6-0.9,1.6-1,2.9H655.8z"/>
		<path id="XMLID_303_" class="st1" d="M667.5,17.2v-1.4c-0.4,0.4-0.9,0.8-1.5,1.2c-0.6,0.3-1.2,0.5-2,0.5c-0.6,0-1.1-0.1-1.6-0.3
			s-0.9-0.6-1.3-1s-0.7-1.1-0.9-1.8c-0.2-0.7-0.3-1.6-0.3-2.6c0-1,0.1-1.9,0.3-2.7c0.2-0.8,0.5-1.4,0.9-1.9c0.4-0.5,0.9-0.9,1.4-1.2
			c0.5-0.3,1.1-0.4,1.7-0.4c0.7,0,1.4,0.1,1.9,0.4c0.5,0.3,1,0.7,1.4,1.1V2l1.7-0.9v16.1H667.5z M667.5,8.5
			c-0.3-0.5-0.8-0.9-1.3-1.2c-0.5-0.3-1.1-0.5-1.8-0.5c-1,0-1.7,0.4-2.2,1.2c-0.5,0.8-0.7,2-0.7,3.6c0,1.5,0.3,2.6,0.8,3.3
			c0.5,0.7,1.2,1.1,2.2,1.1c0.6,0,1.2-0.2,1.7-0.5c0.5-0.3,1-0.7,1.4-1.2V8.5z"/>
		<path id="XMLID_301_" class="st1" d="M678.6,17.2V2l1.7-0.9v16.1H678.6z"/>
		<path id="XMLID_298_" class="st1" d="M693.5,11.3c0,1-0.1,1.9-0.4,2.6c-0.3,0.8-0.6,1.4-1.1,1.9c-0.5,0.5-1,0.9-1.6,1.2
			c-0.6,0.3-1.3,0.4-2,0.4c-0.7,0-1.4-0.1-2-0.4c-0.6-0.3-1.1-0.6-1.6-1.1c-0.4-0.5-0.8-1.1-1-1.9c-0.3-0.7-0.4-1.6-0.4-2.6
			c0-1,0.1-1.9,0.4-2.6c0.3-0.7,0.6-1.4,1.1-1.9c0.5-0.5,1-0.9,1.6-1.2s1.3-0.4,2-0.4s1.4,0.1,2,0.4c0.6,0.2,1.1,0.6,1.6,1.1
			c0.4,0.5,0.8,1.1,1,1.9C693.3,9.5,693.5,10.3,693.5,11.3z M691.8,11.4c0-1.5-0.3-2.7-0.9-3.4c-0.6-0.8-1.4-1.1-2.4-1.1
			s-1.8,0.4-2.4,1.1c-0.6,0.8-0.9,1.9-0.9,3.4s0.3,2.7,0.9,3.5s1.4,1.2,2.4,1.2s1.8-0.4,2.4-1.2C691.5,14.1,691.8,12.9,691.8,11.4z"
			/>
		<path id="XMLID_296_" class="st1" d="M703.7,17.2v-6.8c0-1.3-0.2-2.2-0.7-2.7c-0.4-0.6-1.1-0.9-2.1-0.9c-0.8,0-1.5,0.3-2,0.9
			c-0.5,0.6-0.8,1.5-0.8,2.8v6.8h-1.7V5.6h1.7l0,1.4c0.3-0.5,0.8-0.9,1.3-1.2s1.2-0.5,1.9-0.5c0.6,0,1.2,0.1,1.7,0.3
			s0.9,0.5,1.3,0.9s0.6,0.9,0.8,1.5c0.2,0.6,0.3,1.3,0.3,2.1v7H703.7z"/>
		<path id="XMLID_293_" class="st1" d="M717.7,16.1c0,0.9-0.1,1.6-0.3,2.3c-0.2,0.6-0.5,1.2-1,1.6c-0.5,0.4-1.1,0.8-1.8,1
			c-0.8,0.2-1.7,0.4-2.7,0.4l-0.5-1.3c1,0,1.8-0.1,2.4-0.3c0.6-0.1,1.1-0.4,1.4-0.7c0.4-0.3,0.6-0.7,0.7-1.2c0.1-0.5,0.2-1,0.2-1.7
			v-0.6c-0.4,0.4-0.9,0.8-1.5,1.2c-0.6,0.3-1.2,0.5-2,0.5c-0.6,0-1.1-0.1-1.6-0.3s-0.9-0.6-1.3-1s-0.7-1.1-0.9-1.8
			c-0.2-0.7-0.3-1.6-0.3-2.6c0-1,0.1-1.9,0.3-2.7c0.2-0.8,0.5-1.4,0.9-1.9c0.4-0.5,0.9-0.9,1.4-1.2c0.5-0.3,1.1-0.4,1.7-0.4
			c0.7,0,1.4,0.1,1.9,0.4c0.5,0.3,1,0.7,1.4,1.1V5.6h1.7V16.1z M716,8.5c-0.3-0.5-0.8-0.9-1.3-1.2c-0.5-0.3-1.1-0.5-1.8-0.5
			c-1,0-1.7,0.4-2.2,1.2c-0.5,0.8-0.7,2-0.7,3.6c0,1.5,0.3,2.6,0.8,3.3c0.5,0.7,1.2,1.1,2.2,1.1c0.6,0,1.2-0.2,1.7-0.5
			c0.5-0.3,1-0.7,1.4-1.2V8.5z"/>
		<path id="XMLID_291_" class="st1" d="M720.6,9.9V8.3h4.8v1.6H720.6z"/>
		<path id="XMLID_289_" class="st1" d="M730.5,7v7.5c0,0.5,0.1,0.9,0.3,1.1s0.5,0.3,0.9,0.3c0.3,0,0.6,0,0.9-0.1
			c0.2-0.1,0.5-0.1,0.8-0.3l-0.1,1.4c-0.3,0.1-0.6,0.2-1,0.3s-0.7,0.1-1.2,0.1c-0.7,0-1.3-0.2-1.7-0.6c-0.4-0.4-0.6-1.1-0.6-2V7
			h-1.4V5.6h1.4V2l1.7-0.9v4.5h2.9V7H730.5z"/>
		<path id="XMLID_286_" class="st1" d="M745.4,11.1c0,0.2,0,0.4,0,0.5c0,0.1,0,0.3-0.1,0.4h-7.7c0.1,1.3,0.4,2.2,0.9,3
			c0.6,0.7,1.3,1.1,2.3,1.1c0.7,0,1.2-0.1,1.7-0.3c0.5-0.2,1-0.5,1.5-0.8l0.8,1.2c-0.4,0.2-0.7,0.4-1,0.6c-0.3,0.2-0.6,0.3-0.9,0.4
			c-0.3,0.1-0.7,0.2-1,0.2c-0.4,0.1-0.7,0.1-1.2,0.1c-0.5,0-1.1-0.1-1.6-0.3c-0.6-0.2-1.1-0.5-1.5-1c-0.5-0.5-0.8-1.1-1.1-1.9
			c-0.3-0.8-0.4-1.7-0.4-2.9c0-0.9,0.1-1.8,0.4-2.5c0.2-0.7,0.6-1.4,1-1.9c0.4-0.5,0.9-0.9,1.5-1.2c0.6-0.3,1.2-0.4,1.9-0.4
			c0.7,0,1.4,0.1,2,0.4s1.1,0.7,1.5,1.2c0.4,0.5,0.7,1.1,0.9,1.8C745.3,9.5,745.4,10.2,745.4,11.1z M743.8,10.6
			c-0.1-1.1-0.4-2.1-0.9-2.8c-0.5-0.7-1.3-1.1-2.3-1.1c-0.9,0-1.6,0.3-2.1,0.9c-0.5,0.6-0.9,1.6-1,2.9H743.8z"/>
		<path id="XMLID_284_" class="st1" d="M754.4,7.3c-0.2-0.1-0.5-0.2-0.8-0.3c-0.3-0.1-0.6-0.1-1-0.1c-0.8,0-1.4,0.3-1.9,0.9
			c-0.4,0.6-0.6,1.5-0.6,2.6v6.8h-1.7V5.6h1.7V7c0.3-0.5,0.7-0.9,1.2-1.2c0.5-0.3,1.1-0.5,1.7-0.5c0.4,0,0.8,0,1.1,0.1
			c0.3,0.1,0.5,0.1,0.7,0.2L754.4,7.3z"/>
		<path id="XMLID_282_" class="st1" d="M770.9,17.2v-6.8c0-1.3-0.2-2.3-0.6-2.8c-0.4-0.5-1-0.8-1.9-0.8c-0.8,0-1.4,0.3-1.9,0.8
			c-0.5,0.6-0.7,1.5-0.7,2.8v6.8h-1.7v-6.8c0-1.3-0.2-2.3-0.6-2.8c-0.4-0.5-1-0.8-1.8-0.8c-0.8,0-1.4,0.3-1.9,0.8s-0.7,1.5-0.7,2.8
			v6.8h-1.7V5.6h1.7l0,1.4c0.3-0.5,0.7-0.9,1.2-1.2c0.5-0.3,1.1-0.5,1.8-0.5c0.8,0,1.5,0.2,2,0.6c0.5,0.4,0.9,0.9,1.2,1.4
			c0.2-0.3,0.4-0.5,0.6-0.8c0.2-0.2,0.4-0.5,0.7-0.6c0.3-0.2,0.6-0.3,1-0.4c0.4-0.1,0.8-0.2,1.2-0.2c1.2,0,2.1,0.4,2.8,1.1
			c0.7,0.7,1,2,1,3.6v7H770.9z"/>
		<path id="XMLID_280_" class="st1" d="M785.8,19.6c-0.6-0.5-1.1-1.1-1.6-1.7c-0.5-0.6-1-1.3-1.4-2.1c-0.4-0.7-0.7-1.6-1-2.4
			c-0.3-0.9-0.4-1.8-0.4-2.8c0-1.1,0.1-2,0.4-2.9c0.3-0.9,0.6-1.7,1-2.5c0.4-0.8,0.9-1.4,1.4-2.1c0.5-0.6,1.1-1.2,1.6-1.7l0.7,0.7
			c-0.5,0.5-1,1.1-1.4,1.7c-0.4,0.6-0.8,1.2-1.1,1.9c-0.3,0.7-0.5,1.4-0.7,2.2c-0.2,0.8-0.3,1.6-0.3,2.5c0,0.9,0.1,1.8,0.3,2.6
			c0.2,0.8,0.4,1.5,0.7,2.2c0.3,0.7,0.7,1.3,1.1,1.9c0.4,0.6,0.9,1.2,1.4,1.7L785.8,19.6z"/>
		<path id="XMLID_278_" class="st1" d="M798.6,12.7c0,1.5-0.5,2.6-1.5,3.4c-1,0.8-2.3,1.2-4,1.2c-0.5,0-1-0.1-1.4-0.2
			c-0.5-0.1-0.9-0.3-1.3-0.5c-0.4-0.2-0.8-0.4-1.1-0.7c-0.3-0.3-0.6-0.5-0.9-0.8l1.1-1.1c0.5,0.5,1,0.9,1.7,1.3s1.3,0.5,2.1,0.5
			c1.3,0,2.2-0.3,2.8-0.8c0.6-0.5,0.9-1.3,0.9-2.3c0-1-0.3-1.7-1-2.2c-0.7-0.5-1.5-0.7-2.6-0.7h-1V8.4h1.1c1,0,1.8-0.2,2.2-0.7
			s0.7-1.2,0.7-2c0-0.4-0.1-0.7-0.2-1c-0.1-0.3-0.3-0.6-0.5-0.8c-0.3-0.2-0.6-0.4-1-0.5c-0.4-0.1-0.9-0.2-1.5-0.2
			c-0.7,0-1.2,0.1-1.8,0.4c-0.5,0.3-1,0.6-1.3,1l-1.1-1.1c0.2-0.2,0.5-0.5,0.8-0.7c0.3-0.2,0.6-0.4,1-0.6c0.4-0.2,0.7-0.3,1.2-0.4
			c0.4-0.1,0.9-0.2,1.3-0.2c0.7,0,1.3,0.1,1.9,0.2c0.6,0.2,1.1,0.4,1.5,0.7c0.4,0.3,0.8,0.7,1,1.2c0.2,0.5,0.4,1.1,0.4,1.7
			c0,0.9-0.2,1.7-0.6,2.3c-0.4,0.6-0.9,1-1.6,1.4c0.4,0.1,0.7,0.2,1.1,0.4c0.3,0.2,0.6,0.4,0.9,0.7s0.5,0.7,0.6,1.1
			C798.5,11.7,798.6,12.2,798.6,12.7z"/>
		<path id="XMLID_276_" class="st1" d="M813.8,11.1v6.1h-1.7v-6.1l-5.3-9.3h2l2.5,4.4c0.3,0.6,0.6,1.1,0.9,1.7s0.6,1.1,0.8,1.6
			c0.2-0.5,0.5-1,0.8-1.6c0.3-0.6,0.6-1.2,0.9-1.7l2.5-4.4h1.9L813.8,11.1z"/>
		<path id="XMLID_273_" class="st1" d="M830.8,11.1c0,0.2,0,0.4,0,0.5c0,0.1,0,0.3-0.1,0.4H823c0.1,1.3,0.4,2.2,0.9,3
			c0.6,0.7,1.3,1.1,2.3,1.1c0.7,0,1.2-0.1,1.7-0.3c0.5-0.2,1-0.5,1.5-0.8l0.8,1.2c-0.4,0.2-0.7,0.4-1,0.6c-0.3,0.2-0.6,0.3-0.9,0.4
			c-0.3,0.1-0.7,0.2-1,0.2c-0.4,0.1-0.7,0.1-1.2,0.1c-0.5,0-1.1-0.1-1.6-0.3c-0.6-0.2-1.1-0.5-1.5-1c-0.5-0.5-0.8-1.1-1.1-1.9
			c-0.3-0.8-0.4-1.7-0.4-2.9c0-0.9,0.1-1.8,0.4-2.5c0.2-0.7,0.6-1.4,1-1.9c0.4-0.5,0.9-0.9,1.5-1.2c0.6-0.3,1.2-0.4,1.9-0.4
			c0.7,0,1.4,0.1,2,0.4s1.1,0.7,1.5,1.2c0.4,0.5,0.7,1.1,0.9,1.8C830.7,9.5,830.8,10.2,830.8,11.1z M829.2,10.6
			c-0.1-1.1-0.4-2.1-0.9-2.8c-0.5-0.7-1.3-1.1-2.3-1.1c-0.9,0-1.6,0.3-2.1,0.9c-0.5,0.6-0.9,1.6-1,2.9H829.2z"/>
		<path id="XMLID_270_" class="st1" d="M840.5,17.2v-1.4c-0.4,0.4-0.9,0.8-1.5,1.2c-0.6,0.3-1.3,0.5-2.1,0.5c-0.5,0-0.9-0.1-1.3-0.2
			s-0.8-0.3-1.2-0.6c-0.4-0.3-0.6-0.7-0.8-1.1c-0.2-0.5-0.3-1.1-0.3-1.8c0-0.6,0.1-1.2,0.4-1.7c0.2-0.5,0.6-0.9,1-1.2
			c0.4-0.3,0.9-0.5,1.4-0.7c0.5-0.1,1.1-0.2,1.7-0.2c0.6,0,1.1,0.1,1.6,0.2c0.5,0.1,0.9,0.3,1.3,0.5V9.3c0-1.7-0.8-2.5-2.5-2.5
			c-0.6,0-1.2,0.1-1.7,0.2c-0.5,0.2-1,0.4-1.5,0.6l-0.6-1.4c0.5-0.3,1.1-0.5,1.8-0.7c0.7-0.2,1.4-0.3,2.1-0.3c1.2,0,2.2,0.3,3,0.9
			c0.7,0.6,1.1,1.5,1.1,2.9v8.1H840.5z M840.5,12c-0.4-0.2-0.8-0.4-1.2-0.5s-1-0.2-1.7-0.2c-0.8,0-1.5,0.2-2,0.6
			c-0.5,0.4-0.7,1-0.7,1.7c0,0.9,0.2,1.5,0.6,1.9s1,0.6,1.7,0.6c0.7,0,1.4-0.2,2-0.5c0.6-0.3,1-0.7,1.4-1.2V12z"/>
		<path id="XMLID_268_" class="st1" d="M851.7,7.3c-0.2-0.1-0.5-0.2-0.8-0.3c-0.3-0.1-0.6-0.1-1-0.1c-0.8,0-1.4,0.3-1.9,0.9
			c-0.4,0.6-0.6,1.5-0.6,2.6v6.8h-1.7V5.6h1.7V7c0.3-0.5,0.7-0.9,1.2-1.2c0.5-0.3,1.1-0.5,1.7-0.5c0.4,0,0.8,0,1.1,0.1
			c0.3,0.1,0.5,0.1,0.7,0.2L851.7,7.3z"/>
		<path id="XMLID_266_" class="st1" d="M861.9,14.2c0,0.6-0.1,1.1-0.3,1.5c-0.2,0.4-0.5,0.7-0.9,1c-0.4,0.3-0.8,0.5-1.3,0.6
			c-0.5,0.1-1,0.2-1.5,0.2c-0.8,0-1.5-0.1-2.2-0.4c-0.7-0.3-1.3-0.6-1.9-1.1l1-1.2c0.5,0.4,1,0.7,1.5,0.9c0.5,0.2,1.1,0.3,1.7,0.3
			c0.8,0,1.4-0.2,1.8-0.5c0.4-0.3,0.6-0.8,0.6-1.3c0-0.2,0-0.4-0.1-0.6c-0.1-0.2-0.2-0.4-0.5-0.6s-0.5-0.4-0.8-0.6
			c-0.3-0.2-0.8-0.4-1.3-0.6c-0.6-0.2-1.1-0.5-1.5-0.7c-0.4-0.2-0.8-0.5-1-0.7c-0.3-0.3-0.5-0.6-0.6-0.9c-0.1-0.3-0.2-0.7-0.2-1.2
			c0-0.4,0.1-0.8,0.3-1.2s0.4-0.7,0.7-0.9c0.3-0.3,0.7-0.5,1.1-0.6c0.4-0.1,0.9-0.2,1.5-0.2c0.8,0,1.5,0.1,2.1,0.3
			c0.6,0.2,1.1,0.5,1.6,0.9l-0.9,1.2c-0.5-0.4-0.9-0.6-1.3-0.8c-0.4-0.2-0.9-0.3-1.6-0.3s-1.1,0.1-1.4,0.4c-0.3,0.3-0.5,0.6-0.5,1
			c0,0.3,0,0.5,0.1,0.6c0.1,0.2,0.2,0.3,0.4,0.5c0.2,0.2,0.5,0.3,0.8,0.5c0.3,0.2,0.7,0.4,1.2,0.6c0.5,0.2,1,0.5,1.5,0.7
			c0.4,0.2,0.8,0.5,1.1,0.7c0.3,0.3,0.5,0.6,0.7,0.9C861.8,13.2,861.9,13.6,861.9,14.2z"/>
		<path id="XMLID_264_" class="st1" d="M875.1,10.4c0,1.1-0.1,2-0.4,2.9c-0.3,0.9-0.6,1.7-1,2.5c-0.4,0.8-0.9,1.4-1.4,2.1
			c-0.5,0.6-1.1,1.2-1.6,1.7l-0.7-0.7c1-1.1,1.9-2.3,2.5-3.6c0.6-1.4,1-2.9,1-4.7c0-0.9-0.1-1.8-0.3-2.6c-0.2-0.8-0.4-1.5-0.7-2.2
			c-0.3-0.7-0.7-1.3-1.1-1.9c-0.4-0.6-0.9-1.2-1.4-1.7l0.7-0.7c0.6,0.5,1.1,1.1,1.6,1.7c0.5,0.6,1,1.3,1.4,2.1
			c0.4,0.7,0.7,1.6,1,2.4C875,8.5,875.1,9.4,875.1,10.4z"/>
		<path id="XMLID_261_" class="st1" d="M9.4,37.5c0,0.2,0,0.4,0,0.5c0,0.1,0,0.3-0.1,0.4H1.7c0.1,1.3,0.4,2.2,0.9,3
			c0.6,0.7,1.3,1.1,2.3,1.1c0.7,0,1.2-0.1,1.7-0.3c0.5-0.2,1-0.5,1.5-0.8l0.8,1.2c-0.4,0.2-0.7,0.4-1,0.6c-0.3,0.2-0.6,0.3-0.9,0.4
			c-0.3,0.1-0.7,0.2-1,0.2c-0.4,0.1-0.7,0.1-1.2,0.1c-0.5,0-1.1-0.1-1.6-0.3c-0.6-0.2-1.1-0.5-1.5-1c-0.5-0.5-0.8-1.1-1.1-1.9
			C0.2,39.8,0,38.9,0,37.8c0-0.9,0.1-1.8,0.4-2.5c0.2-0.7,0.6-1.4,1-1.9c0.4-0.5,0.9-0.9,1.5-1.2c0.6-0.3,1.2-0.4,1.9-0.4
			c0.7,0,1.4,0.1,2,0.4s1.1,0.7,1.5,1.2c0.4,0.5,0.7,1.1,0.9,1.8C9.3,35.9,9.4,36.7,9.4,37.5z M7.9,37c-0.1-1.1-0.4-2.1-0.9-2.8
			c-0.5-0.7-1.3-1.1-2.3-1.1c-0.9,0-1.6,0.3-2.1,0.9c-0.5,0.6-0.9,1.6-1,2.9H7.9z"/>
		<path id="XMLID_259_" class="st1" d="M16.2,29.1c-0.3,0-0.6,0.1-0.8,0.2c-0.2,0.2-0.3,0.5-0.3,1V32h2.3v1.4H15v10.2h-1.7V33.4
			h-1.6V32h1.6v-1.6c0-1,0.3-1.8,0.8-2.2c0.5-0.4,1.2-0.6,2-0.6c0.3,0,0.6,0,0.8,0s0.4,0.1,0.6,0.2v1.6
			C17.2,29.2,16.7,29.1,16.2,29.1z"/>
		<path id="XMLID_255_" class="st1" d="M25.4,29.4c-0.4-0.2-0.8-0.3-1.3-0.3c-0.3,0-0.6,0.1-0.8,0.2c-0.2,0.2-0.3,0.5-0.3,1V32h2.3
			v1.4h-2.3v10.2h-1.7V33.4h-1.6V32h1.6v-1.6c0-1,0.3-1.8,0.8-2.2s1.2-0.6,2-0.6c0.3,0,0.6,0,0.8,0s0.4,0.1,0.6,0.2V29.4z
			 M30.1,28.8c0,0.3-0.1,0.6-0.3,0.8C29.6,29.9,29.3,30,29,30c-0.3,0-0.6-0.1-0.9-0.3c-0.2-0.2-0.4-0.5-0.4-0.8
			c0-0.3,0.1-0.6,0.4-0.8c0.2-0.2,0.5-0.3,0.9-0.3c0.3,0,0.6,0.1,0.8,0.3C30,28.2,30.1,28.5,30.1,28.8z M28.1,43.6V32h1.7v11.6H28.1
			z"/>
		<path id="XMLID_253_" class="st1" d="M40.6,34.4c-0.4-0.4-0.8-0.7-1.3-0.9s-0.9-0.3-1.5-0.3c-0.5,0-0.9,0.1-1.3,0.3
			c-0.4,0.2-0.7,0.5-1,0.9c-0.3,0.4-0.5,0.9-0.7,1.4c-0.2,0.6-0.2,1.2-0.2,1.9c0,1.4,0.3,2.6,0.9,3.4c0.6,0.8,1.4,1.3,2.4,1.3
			c0.6,0,1-0.1,1.5-0.3s0.8-0.5,1.2-0.9l1,1.1c-0.5,0.5-1,0.9-1.6,1.2s-1.3,0.4-2.1,0.4c-0.6,0-1.2-0.1-1.8-0.4
			c-0.6-0.2-1.1-0.6-1.6-1.1c-0.4-0.5-0.8-1.1-1.1-1.9c-0.3-0.7-0.4-1.6-0.4-2.6c0-1.1,0.1-2,0.4-2.8c0.3-0.8,0.7-1.4,1.1-1.9
			c0.5-0.5,1-0.9,1.6-1.1s1.2-0.4,1.8-0.4c0.8,0,1.5,0.1,2.1,0.4c0.6,0.3,1.1,0.6,1.6,1L40.6,34.4z"/>
		<path id="XMLID_250_" class="st1" d="M51.1,43.6v-1.4c-0.4,0.4-0.9,0.8-1.5,1.2c-0.6,0.3-1.3,0.5-2.1,0.5c-0.5,0-0.9-0.1-1.3-0.2
			s-0.8-0.3-1.2-0.6c-0.4-0.3-0.6-0.7-0.8-1.1c-0.2-0.5-0.3-1.1-0.3-1.8c0-0.6,0.1-1.2,0.4-1.7c0.2-0.5,0.6-0.9,1-1.2
			c0.4-0.3,0.9-0.5,1.4-0.7c0.5-0.1,1.1-0.2,1.7-0.2c0.6,0,1.1,0.1,1.6,0.2c0.5,0.1,0.9,0.3,1.3,0.5v-1.4c0-1.7-0.8-2.5-2.5-2.5
			c-0.6,0-1.2,0.1-1.7,0.2c-0.5,0.2-1,0.4-1.5,0.6l-0.6-1.4c0.5-0.3,1.1-0.5,1.8-0.7c0.7-0.2,1.4-0.3,2.1-0.3c1.2,0,2.2,0.3,3,0.9
			c0.7,0.6,1.1,1.5,1.1,2.9v8.1H51.1z M51.1,38.4c-0.4-0.2-0.8-0.4-1.2-0.5s-1-0.2-1.7-0.2c-0.8,0-1.5,0.2-2,0.6
			c-0.5,0.4-0.7,1-0.7,1.7c0,0.9,0.2,1.5,0.6,1.9s1,0.6,1.7,0.6c0.7,0,1.4-0.2,2-0.5c0.6-0.3,1-0.7,1.4-1.2V38.4z"/>
		<path id="XMLID_248_" class="st1" d="M63.3,34.4c-0.4-0.4-0.8-0.7-1.3-0.9s-0.9-0.3-1.5-0.3c-0.5,0-0.9,0.1-1.3,0.3
			c-0.4,0.2-0.7,0.5-1,0.9c-0.3,0.4-0.5,0.9-0.7,1.4c-0.2,0.6-0.2,1.2-0.2,1.9c0,1.4,0.3,2.6,0.9,3.4c0.6,0.8,1.4,1.3,2.4,1.3
			c0.6,0,1-0.1,1.5-0.3s0.8-0.5,1.2-0.9l1,1.1c-0.5,0.5-1,0.9-1.6,1.2s-1.3,0.4-2.1,0.4c-0.6,0-1.2-0.1-1.8-0.4
			c-0.6-0.2-1.1-0.6-1.6-1.1c-0.4-0.5-0.8-1.1-1.1-1.9c-0.3-0.7-0.4-1.6-0.4-2.6c0-1.1,0.1-2,0.4-2.8c0.3-0.8,0.7-1.4,1.1-1.9
			c0.5-0.5,1-0.9,1.6-1.1s1.2-0.4,1.8-0.4c0.8,0,1.5,0.1,2.1,0.4c0.6,0.3,1.1,0.6,1.6,1L63.3,34.4z"/>
		<path id="XMLID_246_" class="st1" d="M70.5,47.7h-1.7l1.6-4.2L66.3,32H68l2.8,8.4l0.4,1.2l0.4-1.2l2.8-8.4h1.7L70.5,47.7z"/>
		<path id="XMLID_243_" class="st1" d="M91.3,43.6v-1.4c-0.4,0.4-0.9,0.8-1.5,1.2c-0.6,0.3-1.3,0.5-2.1,0.5c-0.5,0-0.9-0.1-1.3-0.2
			s-0.8-0.3-1.2-0.6c-0.4-0.3-0.6-0.7-0.8-1.1c-0.2-0.5-0.3-1.1-0.3-1.8c0-0.6,0.1-1.2,0.4-1.7c0.2-0.5,0.6-0.9,1-1.2
			c0.4-0.3,0.9-0.5,1.4-0.7c0.5-0.1,1.1-0.2,1.7-0.2c0.6,0,1.1,0.1,1.6,0.2c0.5,0.1,0.9,0.3,1.3,0.5v-1.4c0-1.7-0.8-2.5-2.5-2.5
			c-0.6,0-1.2,0.1-1.7,0.2c-0.5,0.2-1,0.4-1.5,0.6L85,32.7c0.5-0.3,1.1-0.5,1.8-0.7c0.7-0.2,1.4-0.3,2.1-0.3c1.2,0,2.2,0.3,3,0.9
			c0.7,0.6,1.1,1.5,1.1,2.9v8.1H91.3z M91.3,38.4c-0.4-0.2-0.8-0.4-1.2-0.5s-1-0.2-1.7-0.2c-0.8,0-1.5,0.2-2,0.6
			c-0.5,0.4-0.7,1-0.7,1.7c0,0.9,0.2,1.5,0.6,1.9s1,0.6,1.7,0.6c0.7,0,1.4-0.2,2-0.5c0.6-0.3,1-0.7,1.4-1.2V38.4z"/>
		<path id="XMLID_241_" class="st1" d="M103.7,43.6v-6.8c0-1.3-0.2-2.2-0.7-2.7c-0.4-0.6-1.1-0.9-2.1-0.9c-0.8,0-1.5,0.3-2,0.9
			c-0.5,0.6-0.8,1.5-0.8,2.8v6.8h-1.7V32h1.7l0,1.4c0.3-0.5,0.8-0.9,1.3-1.2s1.2-0.5,1.9-0.5c0.6,0,1.2,0.1,1.7,0.3s0.9,0.5,1.3,0.9
			s0.6,0.9,0.8,1.5c0.2,0.6,0.3,1.3,0.3,2.1v7H103.7z"/>
		<path id="XMLID_238_" class="st1" d="M116,43.6v-1.4c-0.4,0.4-0.9,0.8-1.5,1.2c-0.6,0.3-1.2,0.5-2,0.5c-0.6,0-1.1-0.1-1.6-0.3
			s-0.9-0.6-1.3-1s-0.7-1.1-0.9-1.8c-0.2-0.7-0.3-1.6-0.3-2.6c0-1,0.1-1.9,0.3-2.7c0.2-0.8,0.5-1.4,0.9-1.9c0.4-0.5,0.9-0.9,1.4-1.2
			c0.5-0.3,1.1-0.4,1.7-0.4c0.7,0,1.4,0.1,1.9,0.4c0.5,0.3,1,0.7,1.4,1.1v-4.9l1.7-0.9v16.1H116z M116,35c-0.3-0.5-0.8-0.9-1.3-1.2
			c-0.5-0.3-1.1-0.5-1.8-0.5c-1,0-1.7,0.4-2.2,1.2c-0.5,0.8-0.7,2-0.7,3.6c0,1.5,0.3,2.6,0.8,3.3c0.5,0.7,1.2,1.1,2.2,1.1
			c0.6,0,1.2-0.2,1.7-0.5c0.5-0.3,1-0.7,1.4-1.2V35z"/>
		<path id="XMLID_236_" class="st1" d="M134.2,40.6c0,0.6-0.1,1.1-0.3,1.5c-0.2,0.4-0.5,0.7-0.9,1c-0.4,0.3-0.8,0.5-1.3,0.6
			c-0.5,0.1-1,0.2-1.5,0.2c-0.8,0-1.5-0.1-2.2-0.4c-0.7-0.3-1.3-0.6-1.9-1.1l1-1.2c0.5,0.4,1,0.7,1.5,0.9c0.5,0.2,1.1,0.3,1.7,0.3
			c0.8,0,1.4-0.2,1.8-0.5c0.4-0.3,0.6-0.8,0.6-1.3c0-0.2,0-0.4-0.1-0.6c-0.1-0.2-0.2-0.4-0.5-0.6s-0.5-0.4-0.8-0.6
			c-0.3-0.2-0.8-0.4-1.3-0.6c-0.6-0.2-1.1-0.5-1.5-0.7c-0.4-0.2-0.8-0.5-1-0.7c-0.3-0.3-0.5-0.6-0.6-0.9c-0.1-0.3-0.2-0.7-0.2-1.2
			c0-0.4,0.1-0.8,0.3-1.2s0.4-0.7,0.7-0.9c0.3-0.3,0.7-0.5,1.1-0.6c0.4-0.1,0.9-0.2,1.5-0.2c0.8,0,1.5,0.1,2.1,0.3
			c0.6,0.2,1.1,0.5,1.6,0.9l-0.9,1.2c-0.5-0.4-0.9-0.6-1.3-0.8c-0.4-0.2-0.9-0.3-1.6-0.3s-1.1,0.1-1.4,0.4c-0.3,0.3-0.5,0.6-0.5,1
			c0,0.3,0,0.5,0.1,0.6c0.1,0.2,0.2,0.3,0.4,0.5c0.2,0.2,0.5,0.3,0.8,0.5c0.3,0.2,0.7,0.4,1.2,0.6c0.5,0.2,1,0.5,1.5,0.7
			c0.4,0.2,0.8,0.5,1.1,0.7c0.3,0.3,0.5,0.6,0.7,0.9C134.1,39.6,134.2,40.1,134.2,40.6z"/>
		<path id="XMLID_233_" class="st1" d="M143.9,43.6v-1.4c-0.4,0.4-0.9,0.8-1.5,1.2c-0.6,0.3-1.3,0.5-2.1,0.5c-0.5,0-0.9-0.1-1.3-0.2
			s-0.8-0.3-1.2-0.6c-0.4-0.3-0.6-0.7-0.8-1.1c-0.2-0.5-0.3-1.1-0.3-1.8c0-0.6,0.1-1.2,0.4-1.7c0.2-0.5,0.6-0.9,1-1.2
			c0.4-0.3,0.9-0.5,1.4-0.7c0.5-0.1,1.1-0.2,1.7-0.2c0.6,0,1.1,0.1,1.6,0.2c0.5,0.1,0.9,0.3,1.3,0.5v-1.4c0-1.7-0.8-2.5-2.5-2.5
			c-0.6,0-1.2,0.1-1.7,0.2c-0.5,0.2-1,0.4-1.5,0.6l-0.6-1.4c0.5-0.3,1.1-0.5,1.8-0.7c0.7-0.2,1.4-0.3,2.1-0.3c1.2,0,2.2,0.3,3,0.9
			c0.7,0.6,1.1,1.5,1.1,2.9v8.1H143.9z M143.9,38.4c-0.4-0.2-0.8-0.4-1.2-0.5s-1-0.2-1.7-0.2c-0.8,0-1.5,0.2-2,0.6
			c-0.5,0.4-0.7,1-0.7,1.7c0,0.9,0.2,1.5,0.6,1.9s1,0.6,1.7,0.6c0.7,0,1.4-0.2,2-0.5c0.6-0.3,1-0.7,1.4-1.2V38.4z"/>
		<path id="XMLID_231_" class="st1" d="M152.8,29.1c-0.3,0-0.6,0.1-0.8,0.2c-0.2,0.2-0.3,0.5-0.3,1V32h2.3v1.4h-2.3v10.2H150V33.4
			h-1.6V32h1.6v-1.6c0-1,0.3-1.8,0.8-2.2c0.5-0.4,1.2-0.6,2-0.6c0.3,0,0.6,0,0.8,0s0.4,0.1,0.6,0.2v1.6
			C153.8,29.2,153.3,29.1,152.8,29.1z"/>
		<path id="XMLID_228_" class="st1" d="M165.8,37.5c0,0.2,0,0.4,0,0.5c0,0.1,0,0.3-0.1,0.4h-7.7c0.1,1.3,0.4,2.2,0.9,3
			c0.6,0.7,1.3,1.1,2.3,1.1c0.7,0,1.2-0.1,1.7-0.3c0.5-0.2,1-0.5,1.5-0.8l0.8,1.2c-0.4,0.2-0.7,0.4-1,0.6c-0.3,0.2-0.6,0.3-0.9,0.4
			c-0.3,0.1-0.7,0.2-1,0.2c-0.4,0.1-0.7,0.1-1.2,0.1c-0.5,0-1.1-0.1-1.6-0.3c-0.6-0.2-1.1-0.5-1.5-1c-0.5-0.5-0.8-1.1-1.1-1.9
			c-0.3-0.8-0.4-1.7-0.4-2.9c0-0.9,0.1-1.8,0.4-2.5c0.2-0.7,0.6-1.4,1-1.9c0.4-0.5,0.9-0.9,1.5-1.2c0.6-0.3,1.2-0.4,1.9-0.4
			c0.7,0,1.4,0.1,2,0.4s1.1,0.7,1.5,1.2c0.4,0.5,0.7,1.1,0.9,1.8C165.7,35.9,165.8,36.7,165.8,37.5z M164.3,37
			c-0.1-1.1-0.4-2.1-0.9-2.8c-0.5-0.7-1.3-1.1-2.3-1.1c-0.9,0-1.6,0.3-2.1,0.9c-0.5,0.6-0.9,1.6-1,2.9H164.3z"/>
		<path id="XMLID_226_" class="st1" d="M171,33.4V41c0,0.5,0.1,0.9,0.3,1.1s0.5,0.3,0.9,0.3c0.3,0,0.6,0,0.9-0.1
			c0.2-0.1,0.5-0.1,0.8-0.3l-0.1,1.4c-0.3,0.1-0.6,0.2-1,0.3s-0.7,0.1-1.2,0.1c-0.7,0-1.3-0.2-1.7-0.6c-0.4-0.4-0.6-1.1-0.6-2v-7.8
			h-1.4V32h1.4v-3.6l1.7-0.9V32h2.9v1.4H171z"/>
		<path id="XMLID_224_" class="st1" d="M180.3,47.7h-1.7l1.6-4.2L176.2,32h1.7l2.8,8.4l0.4,1.2l0.4-1.2l2.8-8.4h1.7L180.3,47.7z"/>
		<path id="XMLID_221_" class="st1" d="M204,37.7c0,1-0.1,1.9-0.4,2.6c-0.3,0.8-0.6,1.4-1.1,1.9c-0.5,0.5-1,0.9-1.6,1.2
			c-0.6,0.3-1.3,0.4-2,0.4c-0.7,0-1.4-0.1-2-0.4c-0.6-0.3-1.1-0.6-1.6-1.1c-0.4-0.5-0.8-1.1-1-1.9c-0.3-0.7-0.4-1.6-0.4-2.6
			c0-1,0.1-1.9,0.4-2.6c0.3-0.7,0.6-1.4,1.1-1.9c0.5-0.5,1-0.9,1.6-1.2s1.3-0.4,2-0.4s1.4,0.1,2,0.4c0.6,0.2,1.1,0.6,1.6,1.1
			c0.4,0.5,0.8,1.1,1,1.9C203.8,35.9,204,36.8,204,37.7z M202.3,37.8c0-1.5-0.3-2.7-0.9-3.4c-0.6-0.8-1.4-1.1-2.4-1.1
			s-1.8,0.4-2.4,1.1c-0.6,0.8-0.9,1.9-0.9,3.4s0.3,2.7,0.9,3.5s1.4,1.2,2.4,1.2s1.8-0.4,2.4-1.2C202,40.5,202.3,39.3,202.3,37.8z"/>
		<path id="XMLID_219_" class="st1" d="M210.6,29.1c-0.3,0-0.6,0.1-0.8,0.2c-0.2,0.2-0.3,0.5-0.3,1V32h2.3v1.4h-2.3v10.2h-1.7V33.4
			h-1.6V32h1.6v-1.6c0-1,0.3-1.8,0.8-2.2c0.5-0.4,1.2-0.6,2-0.6c0.3,0,0.6,0,0.8,0s0.4,0.1,0.6,0.2v1.6
			C211.6,29.2,211.2,29.1,210.6,29.1z"/>
		<path id="XMLID_216_" class="st1" d="M230,37.7c0,1-0.1,1.9-0.4,2.6c-0.3,0.8-0.6,1.4-1.1,1.9c-0.5,0.5-1,0.9-1.6,1.2
			c-0.6,0.3-1.3,0.4-2,0.4c-0.7,0-1.4-0.1-2-0.4c-0.6-0.3-1.1-0.6-1.6-1.1c-0.4-0.5-0.8-1.1-1-1.9c-0.3-0.7-0.4-1.6-0.4-2.6
			c0-1,0.1-1.9,0.4-2.6c0.3-0.7,0.6-1.4,1.1-1.9c0.5-0.5,1-0.9,1.6-1.2s1.3-0.4,2-0.4s1.4,0.1,2,0.4c0.6,0.2,1.1,0.6,1.6,1.1
			c0.4,0.5,0.8,1.1,1,1.9C229.9,35.9,230,36.8,230,37.7z M228.3,37.8c0-1.5-0.3-2.7-0.9-3.4c-0.6-0.8-1.4-1.1-2.4-1.1
			s-1.8,0.4-2.4,1.1c-0.6,0.8-0.9,1.9-0.9,3.4s0.3,2.7,0.9,3.5s1.4,1.2,2.4,1.2s1.8-0.4,2.4-1.2C228,40.5,228.3,39.3,228.3,37.8z"/>
		<path id="XMLID_214_" class="st1" d="M239.3,43.6l-2.3-4l-0.4-0.6l-0.4,0.6l-2.3,4h-1.7l3.6-6l-3.3-5.6h1.8l2,3.6l0.4,0.6l0.4-0.6
			l2.1-3.6h1.7l-3.3,5.5l3.6,6H239.3z"/>
		<path id="XMLID_212_" class="st1" d="M251.1,34.4c-0.4-0.4-0.8-0.7-1.3-0.9s-0.9-0.3-1.5-0.3c-0.5,0-0.9,0.1-1.3,0.3
			c-0.4,0.2-0.7,0.5-1,0.9c-0.3,0.4-0.5,0.9-0.7,1.4c-0.2,0.6-0.2,1.2-0.2,1.9c0,1.4,0.3,2.6,0.9,3.4c0.6,0.8,1.4,1.3,2.4,1.3
			c0.6,0,1-0.1,1.5-0.3s0.8-0.5,1.2-0.9l1,1.1c-0.5,0.5-1,0.9-1.6,1.2s-1.3,0.4-2.1,0.4c-0.6,0-1.2-0.1-1.8-0.4
			c-0.6-0.2-1.1-0.6-1.6-1.1c-0.4-0.5-0.8-1.1-1.1-1.9c-0.3-0.7-0.4-1.6-0.4-2.6c0-1.1,0.1-2,0.4-2.8c0.3-0.8,0.7-1.4,1.1-1.9
			c0.5-0.5,1-0.9,1.6-1.1s1.2-0.4,1.8-0.4c0.8,0,1.5,0.1,2.1,0.4c0.6,0.3,1.1,0.6,1.6,1L251.1,34.4z"/>
		<path id="XMLID_209_" class="st1" d="M261.6,43.6v-1.4c-0.4,0.4-0.9,0.8-1.5,1.2c-0.6,0.3-1.3,0.5-2.1,0.5c-0.5,0-0.9-0.1-1.3-0.2
			s-0.8-0.3-1.2-0.6c-0.4-0.3-0.6-0.7-0.8-1.1c-0.2-0.5-0.3-1.1-0.3-1.8c0-0.6,0.1-1.2,0.4-1.7c0.2-0.5,0.6-0.9,1-1.2
			c0.4-0.3,0.9-0.5,1.4-0.7c0.5-0.1,1.1-0.2,1.7-0.2c0.6,0,1.1,0.1,1.6,0.2c0.5,0.1,0.9,0.3,1.3,0.5v-1.4c0-1.7-0.8-2.5-2.5-2.5
			c-0.6,0-1.2,0.1-1.7,0.2c-0.5,0.2-1,0.4-1.5,0.6l-0.6-1.4c0.5-0.3,1.1-0.5,1.8-0.7c0.7-0.2,1.4-0.3,2.1-0.3c1.2,0,2.2,0.3,3,0.9
			c0.7,0.6,1.1,1.5,1.1,2.9v8.1H261.6z M261.6,38.4c-0.4-0.2-0.8-0.4-1.2-0.5s-1-0.2-1.7-0.2c-0.8,0-1.5,0.2-2,0.6
			c-0.5,0.4-0.7,1-0.7,1.7c0,0.9,0.2,1.5,0.6,1.9s1,0.6,1.7,0.6c0.7,0,1.4-0.2,2-0.5c0.6-0.3,1-0.7,1.4-1.2V38.4z"/>
		<path id="XMLID_207_" class="st1" d="M272.8,33.8c-0.2-0.1-0.5-0.2-0.8-0.3c-0.3-0.1-0.6-0.1-1-0.1c-0.8,0-1.4,0.3-1.9,0.9
			c-0.4,0.6-0.6,1.5-0.6,2.6v6.8h-1.7V32h1.7v1.4c0.3-0.5,0.7-0.9,1.2-1.2c0.5-0.3,1.1-0.5,1.7-0.5c0.4,0,0.8,0,1.1,0.1
			c0.3,0.1,0.5,0.1,0.7,0.2L272.8,33.8z"/>
		<path id="XMLID_204_" class="st1" d="M285.1,37.6c0,1-0.1,1.9-0.3,2.7c-0.2,0.8-0.5,1.4-0.9,1.9c-0.4,0.5-0.9,0.9-1.4,1.2
			c-0.5,0.3-1.1,0.4-1.7,0.4c-0.7,0-1.4-0.1-1.9-0.4c-0.5-0.3-1-0.7-1.4-1.1v1.3h-1.7V28.5l1.7-0.9l0,5.9c0.4-0.4,0.9-0.8,1.5-1.2
			c0.6-0.3,1.2-0.5,2-0.5c0.6,0,1.1,0.1,1.6,0.3c0.5,0.2,0.9,0.6,1.3,1c0.4,0.5,0.7,1.1,0.9,1.8C285,35.7,285.1,36.6,285.1,37.6z
			 M283.5,37.7c0-1.5-0.3-2.6-0.8-3.3c-0.5-0.7-1.2-1.1-2.2-1.1c-0.6,0-1.2,0.2-1.7,0.5c-0.5,0.3-1,0.7-1.4,1.2v5.8
			c0.3,0.5,0.7,0.9,1.3,1.2s1.1,0.5,1.8,0.5c1,0,1.7-0.4,2.1-1.2C283.3,40.4,283.5,39.2,283.5,37.7z"/>
		<path id="XMLID_201_" class="st1" d="M294.8,43.6v-1.4c-0.4,0.4-0.9,0.8-1.5,1.2c-0.6,0.3-1.3,0.5-2.1,0.5c-0.5,0-0.9-0.1-1.3-0.2
			s-0.8-0.3-1.2-0.6c-0.4-0.3-0.6-0.7-0.8-1.1c-0.2-0.5-0.3-1.1-0.3-1.8c0-0.6,0.1-1.2,0.4-1.7c0.2-0.5,0.6-0.9,1-1.2
			c0.4-0.3,0.9-0.5,1.4-0.7c0.5-0.1,1.1-0.2,1.7-0.2c0.6,0,1.1,0.1,1.6,0.2c0.5,0.1,0.9,0.3,1.3,0.5v-1.4c0-1.7-0.8-2.5-2.5-2.5
			c-0.6,0-1.2,0.1-1.7,0.2c-0.5,0.2-1,0.4-1.5,0.6l-0.6-1.4c0.5-0.3,1.1-0.5,1.8-0.7c0.7-0.2,1.4-0.3,2.1-0.3c1.2,0,2.2,0.3,3,0.9
			c0.7,0.6,1.1,1.5,1.1,2.9v8.1H294.8z M294.8,38.4c-0.4-0.2-0.8-0.4-1.2-0.5s-1-0.2-1.7-0.2c-0.8,0-1.5,0.2-2,0.6
			c-0.5,0.4-0.7,1-0.7,1.7c0,0.9,0.2,1.5,0.6,1.9s1,0.6,1.7,0.6c0.7,0,1.4-0.2,2-0.5c0.6-0.3,1-0.7,1.4-1.2V38.4z"/>
		<path id="XMLID_199_" class="st1" d="M299.4,43.6v-1.2l6.3-8.9h-5.8V32h7.7v1.2l-6.3,8.9h6.3v1.4H299.4z"/>
		<path id="XMLID_196_" class="st1" d="M319.7,37.5c0,0.2,0,0.4,0,0.5c0,0.1,0,0.3-0.1,0.4h-7.7c0.1,1.3,0.4,2.2,0.9,3
			c0.6,0.7,1.3,1.1,2.3,1.1c0.7,0,1.2-0.1,1.7-0.3c0.5-0.2,1-0.5,1.5-0.8l0.8,1.2c-0.4,0.2-0.7,0.4-1,0.6c-0.3,0.2-0.6,0.3-0.9,0.4
			c-0.3,0.1-0.7,0.2-1,0.2c-0.4,0.1-0.7,0.1-1.2,0.1c-0.5,0-1.1-0.1-1.6-0.3c-0.6-0.2-1.1-0.5-1.5-1c-0.5-0.5-0.8-1.1-1.1-1.9
			c-0.3-0.8-0.4-1.7-0.4-2.9c0-0.9,0.1-1.8,0.4-2.5c0.2-0.7,0.6-1.4,1-1.9c0.4-0.5,0.9-0.9,1.5-1.2c0.6-0.3,1.2-0.4,1.9-0.4
			c0.7,0,1.4,0.1,2,0.4s1.1,0.7,1.5,1.2c0.4,0.5,0.7,1.1,0.9,1.8C319.6,35.9,319.7,36.7,319.7,37.5z M318.1,37
			c-0.1-1.1-0.4-2.1-0.9-2.8c-0.5-0.7-1.3-1.1-2.3-1.1c-0.9,0-1.6,0.3-2.1,0.9c-0.5,0.6-0.9,1.6-1,2.9H318.1z"/>
		<path id="XMLID_193_" class="st1" d="M332,37.6c0,1-0.1,1.9-0.3,2.7c-0.2,0.8-0.5,1.4-0.9,1.9c-0.4,0.5-0.9,0.9-1.4,1.2
			c-0.5,0.3-1.1,0.4-1.7,0.4c-0.7,0-1.4-0.1-1.9-0.4c-0.5-0.3-1-0.7-1.4-1.1v4.6l-1.7,0.9V32h1.7l0,1.4c0.4-0.4,0.9-0.8,1.5-1.2
			c0.6-0.3,1.2-0.5,2-0.5c0.6,0,1.1,0.1,1.6,0.3c0.5,0.2,0.9,0.6,1.3,1c0.4,0.5,0.7,1.1,0.9,1.8C331.9,35.7,332,36.6,332,37.6z
			 M330.4,37.7c0-1.5-0.3-2.6-0.8-3.3c-0.5-0.7-1.2-1.1-2.2-1.1c-0.6,0-1.2,0.2-1.7,0.5c-0.5,0.3-1,0.7-1.4,1.2v5.8
			c0.3,0.5,0.7,0.9,1.3,1.2s1.1,0.5,1.8,0.5c1,0,1.7-0.4,2.1-1.2C330.2,40.4,330.4,39.2,330.4,37.7z"/>
		<path id="XMLID_190_" class="st1" d="M337.2,28.8c0,0.3-0.1,0.6-0.3,0.8c-0.2,0.2-0.5,0.3-0.8,0.3c-0.3,0-0.6-0.1-0.9-0.3
			c-0.2-0.2-0.4-0.5-0.4-0.8c0-0.3,0.1-0.6,0.4-0.8c0.2-0.2,0.5-0.3,0.9-0.3c0.3,0,0.6,0.1,0.8,0.3
			C337.1,28.2,337.2,28.5,337.2,28.8z M335.2,43.6V32h1.7v11.6H335.2z"/>
		<path id="XMLID_188_" class="st1" d="M347.8,43.6v-6.8c0-1.3-0.2-2.2-0.7-2.7c-0.4-0.6-1.1-0.9-2.1-0.9c-0.8,0-1.5,0.3-2,0.9
			c-0.5,0.6-0.8,1.5-0.8,2.8v6.8h-1.7V32h1.7l0,1.4c0.3-0.5,0.8-0.9,1.3-1.2s1.2-0.5,1.9-0.5c0.6,0,1.2,0.1,1.7,0.3s0.9,0.5,1.3,0.9
			s0.6,0.9,0.8,1.5c0.2,0.6,0.3,1.3,0.3,2.1v7H347.8z"/>
		<path id="XMLID_185_" class="st1" d="M361.9,37.5c0,0.2,0,0.4,0,0.5c0,0.1,0,0.3-0.1,0.4h-7.7c0.1,1.3,0.4,2.2,0.9,3
			c0.6,0.7,1.3,1.1,2.3,1.1c0.7,0,1.2-0.1,1.7-0.3c0.5-0.2,1-0.5,1.5-0.8l0.8,1.2c-0.4,0.2-0.7,0.4-1,0.6c-0.3,0.2-0.6,0.3-0.9,0.4
			c-0.3,0.1-0.7,0.2-1,0.2c-0.4,0.1-0.7,0.1-1.2,0.1c-0.5,0-1.1-0.1-1.6-0.3c-0.6-0.2-1.1-0.5-1.5-1c-0.5-0.5-0.8-1.1-1.1-1.9
			c-0.3-0.8-0.4-1.7-0.4-2.9c0-0.9,0.1-1.8,0.4-2.5c0.2-0.7,0.6-1.4,1-1.9c0.4-0.5,0.9-0.9,1.5-1.2c0.6-0.3,1.2-0.4,1.9-0.4
			c0.7,0,1.4,0.1,2,0.4s1.1,0.7,1.5,1.2c0.4,0.5,0.7,1.1,0.9,1.8C361.8,35.9,361.9,36.7,361.9,37.5z M360.4,37
			c-0.1-1.1-0.4-2.1-0.9-2.8c-0.5-0.7-1.3-1.1-2.3-1.1c-0.9,0-1.6,0.3-2.1,0.9c-0.5,0.6-0.9,1.6-1,2.9H360.4z"/>
		<path id="XMLID_183_" class="st1" d="M374.7,46c-0.6-0.5-1.1-1.1-1.6-1.7c-0.5-0.6-1-1.3-1.4-2.1c-0.4-0.7-0.7-1.6-1-2.4
			c-0.3-0.9-0.4-1.8-0.4-2.8c0-1.1,0.1-2,0.4-2.9c0.3-0.9,0.6-1.7,1-2.5c0.4-0.8,0.9-1.4,1.4-2.1c0.5-0.6,1.1-1.2,1.6-1.7l0.7,0.7
			c-0.5,0.5-1,1.1-1.4,1.7c-0.4,0.6-0.8,1.2-1.1,1.9c-0.3,0.7-0.5,1.4-0.7,2.2c-0.2,0.8-0.3,1.6-0.3,2.5c0,0.9,0.1,1.8,0.3,2.6
			c0.2,0.8,0.4,1.5,0.7,2.2c0.3,0.7,0.7,1.3,1.1,1.9c0.4,0.6,0.9,1.2,1.4,1.7L374.7,46z"/>
		<path id="XMLID_180_" class="st1" d="M390.7,35.9c0,1.2-0.2,2.2-0.5,3.2c-0.3,1-0.7,1.8-1.3,2.5c-0.6,0.7-1.2,1.3-2,1.7
			c-0.8,0.4-1.7,0.6-2.6,0.6c-1,0-1.8-0.2-2.6-0.6c-0.8-0.4-1.5-0.9-2-1.6c-0.6-0.7-1-1.5-1.3-2.5c-0.3-1-0.5-2-0.5-3.2
			c0-1.2,0.2-2.2,0.5-3.2c0.3-1,0.7-1.8,1.3-2.5c0.6-0.7,1.2-1.3,2-1.7s1.7-0.6,2.6-0.6s1.8,0.2,2.6,0.6c0.8,0.4,1.5,0.9,2,1.6
			c0.6,0.7,1,1.5,1.3,2.5S390.7,34.7,390.7,35.9z M389,35.9c0-1-0.1-1.8-0.4-2.6c-0.2-0.8-0.6-1.5-1-2c-0.4-0.6-0.9-1-1.5-1.3
			c-0.6-0.3-1.2-0.5-1.9-0.5c-0.7,0-1.3,0.2-1.8,0.5c-0.6,0.3-1.1,0.7-1.5,1.3c-0.4,0.6-0.7,1.2-1,2c-0.2,0.8-0.4,1.7-0.4,2.6
			c0,1,0.1,1.8,0.4,2.6c0.2,0.8,0.6,1.5,1,2c0.4,0.6,0.9,1,1.5,1.3c0.6,0.3,1.2,0.5,1.9,0.5c0.7,0,1.3-0.2,1.9-0.5
			c0.6-0.3,1.1-0.7,1.5-1.3c0.4-0.6,0.7-1.2,1-2C388.9,37.8,389,36.9,389,35.9z"/>
		<path id="XMLID_178_" class="st1" d="M402.6,43.1c-0.8,0.5-1.8,0.7-3,0.7c-0.9,0-1.8-0.2-2.6-0.6c-0.8-0.4-1.4-1-2-1.7
			c-0.5-0.7-1-1.5-1.3-2.5c-0.3-1-0.4-2-0.4-3.1c0-1.1,0.2-2.2,0.5-3.2c0.3-1,0.7-1.8,1.3-2.5c0.6-0.7,1.2-1.3,2-1.7
			c0.8-0.4,1.6-0.6,2.6-0.6c2.1,0,3.7,0.8,4.9,2.5l-1.4,1c-0.5-0.7-1-1.2-1.5-1.5c-0.5-0.3-1.2-0.5-2-0.5c-0.7,0-1.3,0.2-1.8,0.5
			c-0.6,0.3-1,0.8-1.4,1.3c-0.4,0.6-0.7,1.2-0.9,2s-0.3,1.6-0.3,2.6c0,0.9,0.1,1.8,0.3,2.6c0.2,0.8,0.5,1.5,1,2
			c0.4,0.6,0.9,1,1.5,1.3c0.6,0.3,1.2,0.5,1.8,0.5c0.8,0,1.6-0.2,2.2-0.5c0.6-0.4,1.2-0.9,1.7-1.5l1.2,1
			C404.1,42.1,403.5,42.7,402.6,43.1z"/>
		<path id="XMLID_174_" class="st1" d="M418.5,39c0,1.5-0.4,2.7-1.3,3.4s-2.1,1.1-3.7,1.1h-5.5V28.2h5.6c0.6,0,1.2,0.1,1.7,0.2
			c0.5,0.2,0.9,0.4,1.3,0.7c0.4,0.3,0.7,0.7,0.9,1.2c0.2,0.5,0.3,1.1,0.3,1.7c0,0.9-0.2,1.5-0.6,2c-0.4,0.5-0.9,0.9-1.6,1.1
			c0.4,0.1,0.7,0.2,1.1,0.4c0.4,0.2,0.7,0.4,0.9,0.7s0.5,0.7,0.7,1.1C418.4,37.9,418.5,38.4,418.5,39z M416,32.1
			c0-0.7-0.2-1.3-0.6-1.7s-1-0.6-1.9-0.6h-3.9v4.8h3.7c1,0,1.6-0.2,2-0.7C415.8,33.3,416,32.8,416,32.1z M416.8,39.1
			c0-1-0.3-1.7-0.9-2.2c-0.6-0.5-1.4-0.8-2.4-0.8h-3.8V42h3.9c1.2,0,2-0.3,2.5-0.8C416.5,40.7,416.8,40,416.8,39.1z"/>
		<path id="XMLID_172_" class="st1" d="M425.9,36.9c0,1.1-0.1,2-0.4,2.9c-0.3,0.9-0.6,1.7-1,2.5c-0.4,0.8-0.9,1.4-1.4,2.1
			c-0.5,0.6-1.1,1.2-1.6,1.7l-0.7-0.7c1-1.1,1.9-2.3,2.5-3.6c0.6-1.4,1-2.9,1-4.7c0-0.9-0.1-1.8-0.3-2.6c-0.2-0.8-0.4-1.5-0.7-2.2
			c-0.3-0.7-0.7-1.3-1.1-1.9c-0.4-0.6-0.9-1.2-1.4-1.7l0.7-0.7c0.6,0.5,1.1,1.1,1.6,1.7c0.5,0.6,1,1.3,1.4,2.1
			c0.4,0.7,0.7,1.6,1,2.4C425.8,34.9,425.9,35.8,425.9,36.9z"/>
		<path id="XMLID_169_" class="st1" d="M441.5,43.6v-1.4c-0.4,0.4-0.9,0.8-1.5,1.2c-0.6,0.3-1.3,0.5-2.1,0.5c-0.5,0-0.9-0.1-1.3-0.2
			s-0.8-0.3-1.2-0.6c-0.4-0.3-0.6-0.7-0.8-1.1c-0.2-0.5-0.3-1.1-0.3-1.8c0-0.6,0.1-1.2,0.4-1.7c0.2-0.5,0.6-0.9,1-1.2
			c0.4-0.3,0.9-0.5,1.4-0.7c0.5-0.1,1.1-0.2,1.7-0.2c0.6,0,1.1,0.1,1.6,0.2c0.5,0.1,0.9,0.3,1.3,0.5v-1.4c0-1.7-0.8-2.5-2.5-2.5
			c-0.6,0-1.2,0.1-1.7,0.2c-0.5,0.2-1,0.4-1.5,0.6l-0.6-1.4c0.5-0.3,1.1-0.5,1.8-0.7c0.7-0.2,1.4-0.3,2.1-0.3c1.2,0,2.2,0.3,3,0.9
			c0.7,0.6,1.1,1.5,1.1,2.9v8.1H441.5z M441.5,38.4c-0.4-0.2-0.8-0.4-1.2-0.5s-1-0.2-1.7-0.2c-0.8,0-1.5,0.2-2,0.6
			c-0.5,0.4-0.7,1-0.7,1.7c0,0.9,0.2,1.5,0.6,1.9s1,0.6,1.7,0.6c0.7,0,1.4-0.2,2-0.5c0.6-0.3,1-0.7,1.4-1.2V38.4z"/>
		<path id="XMLID_167_" class="st1" d="M454,43.6v-6.8c0-1.3-0.2-2.2-0.7-2.7c-0.4-0.6-1.1-0.9-2.1-0.9c-0.8,0-1.5,0.3-2,0.9
			c-0.5,0.6-0.8,1.5-0.8,2.8v6.8h-1.7V32h1.7l0,1.4c0.3-0.5,0.8-0.9,1.3-1.2s1.2-0.5,1.9-0.5c0.6,0,1.2,0.1,1.7,0.3s0.9,0.5,1.3,0.9
			s0.6,0.9,0.8,1.5c0.2,0.6,0.3,1.3,0.3,2.1v7H454z"/>
		<path id="XMLID_164_" class="st1" d="M466.3,43.6v-1.4c-0.4,0.4-0.9,0.8-1.5,1.2c-0.6,0.3-1.2,0.5-2,0.5c-0.6,0-1.1-0.1-1.6-0.3
			s-0.9-0.6-1.3-1s-0.7-1.1-0.9-1.8c-0.2-0.7-0.3-1.6-0.3-2.6c0-1,0.1-1.9,0.3-2.7c0.2-0.8,0.5-1.4,0.9-1.9c0.4-0.5,0.9-0.9,1.4-1.2
			c0.5-0.3,1.1-0.4,1.7-0.4c0.7,0,1.4,0.1,1.9,0.4c0.5,0.3,1,0.7,1.4,1.1v-4.9l1.7-0.9v16.1H466.3z M466.3,35
			c-0.3-0.5-0.8-0.9-1.3-1.2c-0.5-0.3-1.1-0.5-1.8-0.5c-1,0-1.7,0.4-2.2,1.2c-0.5,0.8-0.7,2-0.7,3.6c0,1.5,0.3,2.6,0.8,3.3
			c0.5,0.7,1.2,1.1,2.2,1.1c0.6,0,1.2-0.2,1.7-0.5c0.5-0.3,1-0.7,1.4-1.2V35z"/>
		<path id="XMLID_162_" class="st1" d="M477.4,43.6V28.5l1.7-0.9v16.1H477.4z"/>
		<path id="XMLID_159_" class="st1" d="M491.6,37.5c0,0.2,0,0.4,0,0.5c0,0.1,0,0.3-0.1,0.4h-7.7c0.1,1.3,0.4,2.2,0.9,3
			c0.6,0.7,1.3,1.1,2.3,1.1c0.7,0,1.2-0.1,1.7-0.3c0.5-0.2,1-0.5,1.5-0.8l0.8,1.2c-0.4,0.2-0.7,0.4-1,0.6c-0.3,0.2-0.6,0.3-0.9,0.4
			c-0.3,0.1-0.7,0.2-1,0.2c-0.4,0.1-0.7,0.1-1.2,0.1c-0.5,0-1.1-0.1-1.6-0.3c-0.6-0.2-1.1-0.5-1.5-1c-0.5-0.5-0.8-1.1-1.1-1.9
			c-0.3-0.8-0.4-1.7-0.4-2.9c0-0.9,0.1-1.8,0.4-2.5c0.2-0.7,0.6-1.4,1-1.9c0.4-0.5,0.9-0.9,1.5-1.2c0.6-0.3,1.2-0.4,1.9-0.4
			c0.7,0,1.4,0.1,2,0.4s1.1,0.7,1.5,1.2c0.4,0.5,0.7,1.1,0.9,1.8C491.5,35.9,491.6,36.7,491.6,37.5z M490.1,37
			c-0.1-1.1-0.4-2.1-0.9-2.8c-0.5-0.7-1.3-1.1-2.3-1.1c-0.9,0-1.6,0.3-2.1,0.9c-0.5,0.6-0.9,1.6-1,2.9H490.1z"/>
		<path id="XMLID_157_" class="st1" d="M499.4,43.6h-1.5L493.8,32h1.8l3,9.1l0.2,0.6l0.2-0.6l3-9.1h1.7L499.4,43.6z"/>
		<path id="XMLID_154_" class="st1" d="M515,37.5c0,0.2,0,0.4,0,0.5c0,0.1,0,0.3-0.1,0.4h-7.7c0.1,1.3,0.4,2.2,0.9,3
			c0.6,0.7,1.3,1.1,2.3,1.1c0.7,0,1.2-0.1,1.7-0.3c0.5-0.2,1-0.5,1.5-0.8l0.8,1.2c-0.4,0.2-0.7,0.4-1,0.6c-0.3,0.2-0.6,0.3-0.9,0.4
			c-0.3,0.1-0.7,0.2-1,0.2c-0.4,0.1-0.7,0.1-1.2,0.1c-0.5,0-1.1-0.1-1.6-0.3c-0.6-0.2-1.1-0.5-1.5-1c-0.5-0.5-0.8-1.1-1.1-1.9
			c-0.3-0.8-0.4-1.7-0.4-2.9c0-0.9,0.1-1.8,0.4-2.5c0.2-0.7,0.6-1.4,1-1.9c0.4-0.5,0.9-0.9,1.5-1.2c0.6-0.3,1.2-0.4,1.9-0.4
			c0.7,0,1.4,0.1,2,0.4s1.1,0.7,1.5,1.2c0.4,0.5,0.7,1.1,0.9,1.8C514.9,35.9,515,36.7,515,37.5z M513.5,37c-0.1-1.1-0.4-2.1-0.9-2.8
			c-0.5-0.7-1.3-1.1-2.3-1.1c-0.9,0-1.6,0.3-2.1,0.9c-0.5,0.6-0.9,1.6-1,2.9H513.5z"/>
		<path id="XMLID_152_" class="st1" d="M520.2,33.4V41c0,0.5,0.1,0.9,0.3,1.1s0.5,0.3,0.9,0.3c0.3,0,0.6,0,0.9-0.1
			c0.2-0.1,0.5-0.1,0.8-0.3l-0.1,1.4c-0.3,0.1-0.6,0.2-1,0.3s-0.7,0.1-1.2,0.1c-0.7,0-1.3-0.2-1.7-0.6c-0.4-0.4-0.6-1.1-0.6-2v-7.8
			h-1.4V32h1.4v-3.6l1.7-0.9V32h2.9v1.4H520.2z"/>
		<path id="XMLID_149_" class="st1" d="M528.4,28.8c0,0.3-0.1,0.6-0.3,0.8c-0.2,0.2-0.5,0.3-0.8,0.3c-0.3,0-0.6-0.1-0.9-0.3
			c-0.2-0.2-0.4-0.5-0.4-0.8c0-0.3,0.1-0.6,0.4-0.8c0.2-0.2,0.5-0.3,0.9-0.3c0.3,0,0.6,0.1,0.8,0.3
			C528.3,28.2,528.4,28.5,528.4,28.8z M526.4,43.6V32h1.7v11.6H526.4z"/>
		<path id="XMLID_147_" class="st1" d="M537.7,33.8c-0.2-0.1-0.5-0.2-0.8-0.3c-0.3-0.1-0.6-0.1-1-0.1c-0.8,0-1.4,0.3-1.9,0.9
			c-0.4,0.6-0.6,1.5-0.6,2.6v6.8h-1.7V32h1.7v1.4c0.3-0.5,0.7-0.9,1.2-1.2c0.5-0.3,1.1-0.5,1.7-0.5c0.4,0,0.8,0,1.1,0.1
			c0.3,0.1,0.5,0.1,0.7,0.2L537.7,33.8z"/>
		<path id="XMLID_144_" class="st1" d="M547.4,43.6v-1.4c-0.4,0.4-0.9,0.8-1.5,1.2c-0.6,0.3-1.3,0.5-2.1,0.5c-0.5,0-0.9-0.1-1.3-0.2
			s-0.8-0.3-1.2-0.6c-0.4-0.3-0.6-0.7-0.8-1.1c-0.2-0.5-0.3-1.1-0.3-1.8c0-0.6,0.1-1.2,0.4-1.7c0.2-0.5,0.6-0.9,1-1.2
			c0.4-0.3,0.9-0.5,1.4-0.7c0.5-0.1,1.1-0.2,1.7-0.2c0.6,0,1.1,0.1,1.6,0.2c0.5,0.1,0.9,0.3,1.3,0.5v-1.4c0-1.7-0.8-2.5-2.5-2.5
			c-0.6,0-1.2,0.1-1.7,0.2c-0.5,0.2-1,0.4-1.5,0.6l-0.6-1.4c0.5-0.3,1.1-0.5,1.8-0.7c0.7-0.2,1.4-0.3,2.1-0.3c1.2,0,2.2,0.3,3,0.9
			c0.7,0.6,1.1,1.5,1.1,2.9v8.1H547.4z M547.4,38.4c-0.4-0.2-0.8-0.4-1.2-0.5s-1-0.2-1.7-0.2c-0.8,0-1.5,0.2-2,0.6
			c-0.5,0.4-0.7,1-0.7,1.7c0,0.9,0.2,1.5,0.6,1.9s1,0.6,1.7,0.6c0.7,0,1.4-0.2,2-0.5c0.6-0.3,1-0.7,1.4-1.2V38.4z"/>
		<path id="XMLID_142_" class="st1" d="M559.7,34.4c-0.4-0.4-0.8-0.7-1.3-0.9s-0.9-0.3-1.5-0.3c-0.5,0-0.9,0.1-1.3,0.3
			c-0.4,0.2-0.7,0.5-1,0.9c-0.3,0.4-0.5,0.9-0.7,1.4c-0.2,0.6-0.2,1.2-0.2,1.9c0,1.4,0.3,2.6,0.9,3.4c0.6,0.8,1.4,1.3,2.4,1.3
			c0.6,0,1-0.1,1.5-0.3s0.8-0.5,1.2-0.9l1,1.1c-0.5,0.5-1,0.9-1.6,1.2s-1.3,0.4-2.1,0.4c-0.6,0-1.2-0.1-1.8-0.4
			c-0.6-0.2-1.1-0.6-1.6-1.1c-0.4-0.5-0.8-1.1-1.1-1.9c-0.3-0.7-0.4-1.6-0.4-2.6c0-1.1,0.1-2,0.4-2.8c0.3-0.8,0.7-1.4,1.1-1.9
			c0.5-0.5,1-0.9,1.6-1.1s1.2-0.4,1.8-0.4c0.8,0,1.5,0.1,2.1,0.4c0.6,0.3,1.1,0.6,1.6,1L559.7,34.4z"/>
		<path id="XMLID_139_" class="st1" d="M572.3,37.5c0,0.2,0,0.4,0,0.5c0,0.1,0,0.3-0.1,0.4h-7.7c0.1,1.3,0.4,2.2,0.9,3
			c0.6,0.7,1.3,1.1,2.3,1.1c0.7,0,1.2-0.1,1.7-0.3c0.5-0.2,1-0.5,1.5-0.8l0.8,1.2c-0.4,0.2-0.7,0.4-1,0.6c-0.3,0.2-0.6,0.3-0.9,0.4
			c-0.3,0.1-0.7,0.2-1,0.2c-0.4,0.1-0.7,0.1-1.2,0.1c-0.5,0-1.1-0.1-1.6-0.3c-0.6-0.2-1.1-0.5-1.5-1c-0.5-0.5-0.8-1.1-1.1-1.9
			c-0.3-0.8-0.4-1.7-0.4-2.9c0-0.9,0.1-1.8,0.4-2.5c0.2-0.7,0.6-1.4,1-1.9c0.4-0.5,0.9-0.9,1.5-1.2c0.6-0.3,1.2-0.4,1.9-0.4
			c0.7,0,1.4,0.1,2,0.4s1.1,0.7,1.5,1.2c0.4,0.5,0.7,1.1,0.9,1.8C572.2,35.9,572.3,36.7,572.3,37.5z M570.8,37
			c-0.1-1.1-0.4-2.1-0.9-2.8c-0.5-0.7-1.3-1.1-2.3-1.1c-0.9,0-1.6,0.3-2.1,0.9c-0.5,0.6-0.9,1.6-1,2.9H570.8z"/>
		<path id="XMLID_137_" class="st1" d="M577.6,33.4V41c0,0.5,0.1,0.9,0.3,1.1s0.5,0.3,0.9,0.3c0.3,0,0.6,0,0.9-0.1
			c0.2-0.1,0.5-0.1,0.8-0.3l-0.1,1.4c-0.3,0.1-0.6,0.2-1,0.3s-0.7,0.1-1.2,0.1c-0.7,0-1.3-0.2-1.7-0.6c-0.4-0.4-0.6-1.1-0.6-2v-7.8
			h-1.4V32h1.4v-3.6l1.7-0.9V32h2.9v1.4H577.6z"/>
		<path id="XMLID_134_" class="st1" d="M590.3,43.6v-1.4c-0.4,0.4-0.9,0.8-1.5,1.2c-0.6,0.3-1.3,0.5-2.1,0.5c-0.5,0-0.9-0.1-1.3-0.2
			s-0.8-0.3-1.2-0.6c-0.4-0.3-0.6-0.7-0.8-1.1c-0.2-0.5-0.3-1.1-0.3-1.8c0-0.6,0.1-1.2,0.4-1.7c0.2-0.5,0.6-0.9,1-1.2
			c0.4-0.3,0.9-0.5,1.4-0.7c0.5-0.1,1.1-0.2,1.7-0.2c0.6,0,1.1,0.1,1.6,0.2c0.5,0.1,0.9,0.3,1.3,0.5v-1.4c0-1.7-0.8-2.5-2.5-2.5
			c-0.6,0-1.2,0.1-1.7,0.2c-0.5,0.2-1,0.4-1.5,0.6l-0.6-1.4c0.5-0.3,1.1-0.5,1.8-0.7c0.7-0.2,1.4-0.3,2.1-0.3c1.2,0,2.2,0.3,3,0.9
			c0.7,0.6,1.1,1.5,1.1,2.9v8.1H590.3z M590.3,38.4c-0.4-0.2-0.8-0.4-1.2-0.5s-1-0.2-1.7-0.2c-0.8,0-1.5,0.2-2,0.6
			c-0.5,0.4-0.7,1-0.7,1.7c0,0.9,0.2,1.5,0.6,1.9s1,0.6,1.7,0.6c0.7,0,1.4-0.2,2-0.5c0.6-0.3,1-0.7,1.4-1.2V38.4z"/>
		<path id="XMLID_132_" class="st1" d="M608.9,43.6v-6.8c0-1.3-0.2-2.3-0.6-2.8c-0.4-0.5-1-0.8-1.9-0.8c-0.8,0-1.4,0.3-1.9,0.8
			c-0.5,0.6-0.7,1.5-0.7,2.8v6.8h-1.7v-6.8c0-1.3-0.2-2.3-0.6-2.8c-0.4-0.5-1-0.8-1.8-0.8c-0.8,0-1.4,0.3-1.9,0.8s-0.7,1.5-0.7,2.8
			v6.8h-1.7V32h1.7l0,1.4c0.3-0.5,0.7-0.9,1.2-1.2c0.5-0.3,1.1-0.5,1.8-0.5c0.8,0,1.5,0.2,2,0.6c0.5,0.4,0.9,0.9,1.2,1.4
			c0.2-0.3,0.4-0.5,0.6-0.8c0.2-0.2,0.4-0.5,0.7-0.6c0.3-0.2,0.6-0.3,1-0.4c0.4-0.1,0.8-0.2,1.2-0.2c1.2,0,2.1,0.4,2.8,1.1
			c0.7,0.7,1,2,1,3.6v7H608.9z"/>
		<path id="XMLID_130_" class="st1" d="M623.9,46c-0.6-0.5-1.1-1.1-1.6-1.7c-0.5-0.6-1-1.3-1.4-2.1c-0.4-0.7-0.7-1.6-1-2.4
			c-0.3-0.9-0.4-1.8-0.4-2.8c0-1.1,0.1-2,0.4-2.9c0.3-0.9,0.6-1.7,1-2.5c0.4-0.8,0.9-1.4,1.4-2.1c0.5-0.6,1.1-1.2,1.6-1.7l0.7,0.7
			c-0.5,0.5-1,1.1-1.4,1.7c-0.4,0.6-0.8,1.2-1.1,1.9c-0.3,0.7-0.5,1.4-0.7,2.2c-0.2,0.8-0.3,1.6-0.3,2.5c0,0.9,0.1,1.8,0.3,2.6
			c0.2,0.8,0.4,1.5,0.7,2.2c0.3,0.7,0.7,1.3,1.1,1.9c0.4,0.6,0.9,1.2,1.4,1.7L623.9,46z"/>
		<path id="XMLID_128_" class="st1" d="M627.8,43.6V28.2h1.7V42h7.6v1.6H627.8z"/>
		<path id="XMLID_126_" class="st1" d="M640.4,43.6V28.2h9.3v1.6h-7.6v4.8h4.4v1.6h-4.4V42h7.9v1.6H640.4z"/>
		<path id="XMLID_124_" class="st1" d="M659.6,43.6h-1.9l-5.2-15.4h1.8l3.4,10.5c0.1,0.2,0.2,0.5,0.3,0.8c0.1,0.3,0.2,0.6,0.3,0.9
			c0.1,0.3,0.2,0.6,0.2,0.8c0.1,0.2,0.1,0.4,0.2,0.6c0-0.1,0.1-0.3,0.2-0.6c0.1-0.3,0.2-0.5,0.3-0.8c0.1-0.3,0.2-0.6,0.3-0.9
			c0.1-0.3,0.2-0.6,0.3-0.8l3.5-10.5h1.8L659.6,43.6z"/>
		<path id="XMLID_122_" class="st1" d="M672.3,36.9c0,1.1-0.1,2-0.4,2.9c-0.3,0.9-0.6,1.7-1,2.5c-0.4,0.8-0.9,1.4-1.4,2.1
			c-0.5,0.6-1.1,1.2-1.6,1.7l-0.7-0.7c1-1.1,1.9-2.3,2.5-3.6c0.6-1.4,1-2.9,1-4.7c0-0.9-0.1-1.8-0.3-2.6c-0.2-0.8-0.4-1.5-0.7-2.2
			c-0.3-0.7-0.7-1.3-1.1-1.9c-0.4-0.6-0.9-1.2-1.4-1.7l0.7-0.7c0.6,0.5,1.1,1.1,1.6,1.7c0.5,0.6,1,1.3,1.4,2.1
			c0.4,0.7,0.7,1.6,1,2.4C672.2,34.9,672.3,35.8,672.3,36.9z"/>
		<path id="XMLID_120_" class="st1" d="M689,43.6v-6.8c0-1.3-0.2-2.3-0.6-2.8c-0.4-0.5-1-0.8-1.9-0.8c-0.8,0-1.4,0.3-1.9,0.8
			c-0.5,0.6-0.7,1.5-0.7,2.8v6.8h-1.7v-6.8c0-1.3-0.2-2.3-0.6-2.8c-0.4-0.5-1-0.8-1.8-0.8c-0.8,0-1.4,0.3-1.9,0.8s-0.7,1.5-0.7,2.8
			v6.8h-1.7V32h1.7l0,1.4c0.3-0.5,0.7-0.9,1.2-1.2c0.5-0.3,1.1-0.5,1.8-0.5c0.8,0,1.5,0.2,2,0.6c0.5,0.4,0.9,0.9,1.2,1.4
			c0.2-0.3,0.4-0.5,0.6-0.8c0.2-0.2,0.4-0.5,0.7-0.6c0.3-0.2,0.6-0.3,1-0.4c0.4-0.1,0.8-0.2,1.2-0.2c1.2,0,2.1,0.4,2.8,1.1
			c0.7,0.7,1,2,1,3.6v7H689z"/>
		<path id="XMLID_117_" class="st1" d="M703.7,37.7c0,1-0.1,1.9-0.4,2.6c-0.3,0.8-0.6,1.4-1.1,1.9c-0.5,0.5-1,0.9-1.6,1.2
			c-0.6,0.3-1.3,0.4-2,0.4c-0.7,0-1.4-0.1-2-0.4c-0.6-0.3-1.1-0.6-1.6-1.1c-0.4-0.5-0.8-1.1-1-1.9c-0.3-0.7-0.4-1.6-0.4-2.6
			c0-1,0.1-1.9,0.4-2.6c0.3-0.7,0.6-1.4,1.1-1.9c0.5-0.5,1-0.9,1.6-1.2s1.3-0.4,2-0.4s1.4,0.1,2,0.4c0.6,0.2,1.1,0.6,1.6,1.1
			c0.4,0.5,0.8,1.1,1,1.9C703.5,35.9,703.7,36.8,703.7,37.7z M702,37.8c0-1.5-0.3-2.7-0.9-3.4c-0.6-0.8-1.4-1.1-2.4-1.1
			s-1.8,0.4-2.4,1.1c-0.6,0.8-0.9,1.9-0.9,3.4s0.3,2.7,0.9,3.5s1.4,1.2,2.4,1.2s1.8-0.4,2.4-1.2C701.7,40.5,702,39.3,702,37.8z"/>
		<path id="XMLID_115_" class="st1" d="M713.9,43.6v-6.8c0-1.3-0.2-2.2-0.7-2.7c-0.4-0.6-1.1-0.9-2.1-0.9c-0.8,0-1.5,0.3-2,0.9
			c-0.5,0.6-0.8,1.5-0.8,2.8v6.8h-1.7V32h1.7l0,1.4c0.3-0.5,0.8-0.9,1.3-1.2s1.2-0.5,1.9-0.5c0.6,0,1.2,0.1,1.7,0.3s0.9,0.5,1.3,0.9
			s0.6,0.9,0.8,1.5c0.2,0.6,0.3,1.3,0.3,2.1v7H713.9z"/>
		<path id="XMLID_112_" class="st1" d="M728.6,37.7c0,1-0.1,1.9-0.4,2.6c-0.3,0.8-0.6,1.4-1.1,1.9c-0.5,0.5-1,0.9-1.6,1.2
			c-0.6,0.3-1.3,0.4-2,0.4c-0.7,0-1.4-0.1-2-0.4c-0.6-0.3-1.1-0.6-1.6-1.1c-0.4-0.5-0.8-1.1-1-1.9c-0.3-0.7-0.4-1.6-0.4-2.6
			c0-1,0.1-1.9,0.4-2.6c0.3-0.7,0.6-1.4,1.1-1.9c0.5-0.5,1-0.9,1.6-1.2s1.3-0.4,2-0.4s1.4,0.1,2,0.4c0.6,0.2,1.1,0.6,1.6,1.1
			c0.4,0.5,0.8,1.1,1,1.9C728.5,35.9,728.6,36.8,728.6,37.7z M726.9,37.8c0-1.5-0.3-2.7-0.9-3.4c-0.6-0.8-1.4-1.1-2.4-1.1
			s-1.8,0.4-2.4,1.1c-0.6,0.8-0.9,1.9-0.9,3.4s0.3,2.7,0.9,3.5s1.4,1.2,2.4,1.2s1.8-0.4,2.4-1.2C726.6,40.5,726.9,39.3,726.9,37.8z"
			/>
		<path id="XMLID_110_" class="st1" d="M733.8,33.4V41c0,0.5,0.1,0.9,0.3,1.1s0.5,0.3,0.9,0.3c0.3,0,0.6,0,0.9-0.1
			c0.2-0.1,0.5-0.1,0.8-0.3l-0.1,1.4c-0.3,0.1-0.6,0.2-1,0.3s-0.7,0.1-1.2,0.1c-0.7,0-1.3-0.2-1.7-0.6c-0.4-0.4-0.6-1.1-0.6-2v-7.8
			h-1.4V32h1.4v-3.6l1.7-0.9V32h2.9v1.4H733.8z"/>
		<path id="XMLID_108_" class="st1" d="M747.1,43.6v-6.8c0-1.3-0.2-2.2-0.7-2.7c-0.4-0.6-1.1-0.9-2.1-0.9c-0.8,0-1.5,0.3-2,0.9
			c-0.5,0.6-0.8,1.5-0.8,2.8v6.8h-1.7V28.5l1.7-0.9l0,5.9c0.3-0.5,0.8-0.9,1.3-1.2s1.2-0.5,1.9-0.5c0.6,0,1.2,0.1,1.7,0.3
			s0.9,0.5,1.3,0.9s0.6,0.9,0.8,1.5c0.2,0.6,0.3,1.3,0.3,2.1v7H747.1z"/>
		<path id="XMLID_105_" class="st1" d="M761.1,37.5c0,0.2,0,0.4,0,0.5c0,0.1,0,0.3-0.1,0.4h-7.7c0.1,1.3,0.4,2.2,0.9,3
			c0.6,0.7,1.3,1.1,2.3,1.1c0.7,0,1.2-0.1,1.7-0.3c0.5-0.2,1-0.5,1.5-0.8l0.8,1.2c-0.4,0.2-0.7,0.4-1,0.6c-0.3,0.2-0.6,0.3-0.9,0.4
			c-0.3,0.1-0.7,0.2-1,0.2c-0.4,0.1-0.7,0.1-1.2,0.1c-0.5,0-1.1-0.1-1.6-0.3c-0.6-0.2-1.1-0.5-1.5-1c-0.5-0.5-0.8-1.1-1.1-1.9
			c-0.3-0.8-0.4-1.7-0.4-2.9c0-0.9,0.1-1.8,0.4-2.5c0.2-0.7,0.6-1.4,1-1.9c0.4-0.5,0.9-0.9,1.5-1.2c0.6-0.3,1.2-0.4,1.9-0.4
			c0.7,0,1.4,0.1,2,0.4s1.1,0.7,1.5,1.2c0.4,0.5,0.7,1.1,0.9,1.8C761,35.9,761.1,36.7,761.1,37.5z M759.6,37
			c-0.1-1.1-0.4-2.1-0.9-2.8c-0.5-0.7-1.3-1.1-2.3-1.1c-0.9,0-1.6,0.3-2.1,0.9c-0.5,0.6-0.9,1.6-1,2.9H759.6z"/>
		<path id="XMLID_103_" class="st1" d="M770.1,33.8c-0.2-0.1-0.5-0.2-0.8-0.3c-0.3-0.1-0.6-0.1-1-0.1c-0.8,0-1.4,0.3-1.9,0.9
			c-0.4,0.6-0.6,1.5-0.6,2.6v6.8h-1.7V32h1.7v1.4c0.3-0.5,0.7-0.9,1.2-1.2c0.5-0.3,1.1-0.5,1.7-0.5c0.4,0,0.8,0,1.1,0.1
			c0.3,0.1,0.5,0.1,0.7,0.2L770.1,33.8z"/>
		<path id="XMLID_100_" class="st1" d="M779.8,43.6v-1.4c-0.4,0.4-0.9,0.8-1.5,1.2c-0.6,0.3-1.3,0.5-2.1,0.5c-0.5,0-0.9-0.1-1.3-0.2
			s-0.8-0.3-1.2-0.6c-0.4-0.3-0.6-0.7-0.8-1.1c-0.2-0.5-0.3-1.1-0.3-1.8c0-0.6,0.1-1.2,0.4-1.7c0.2-0.5,0.6-0.9,1-1.2
			c0.4-0.3,0.9-0.5,1.4-0.7c0.5-0.1,1.1-0.2,1.7-0.2c0.6,0,1.1,0.1,1.6,0.2c0.5,0.1,0.9,0.3,1.3,0.5v-1.4c0-1.7-0.8-2.5-2.5-2.5
			c-0.6,0-1.2,0.1-1.7,0.2c-0.5,0.2-1,0.4-1.5,0.6l-0.6-1.4c0.5-0.3,1.1-0.5,1.8-0.7c0.7-0.2,1.4-0.3,2.1-0.3c1.2,0,2.2,0.3,3,0.9
			c0.7,0.6,1.1,1.5,1.1,2.9v8.1H779.8z M779.8,38.4c-0.4-0.2-0.8-0.4-1.2-0.5s-1-0.2-1.7-0.2c-0.8,0-1.5,0.2-2,0.6
			c-0.5,0.4-0.7,1-0.7,1.7c0,0.9,0.2,1.5,0.6,1.9s1,0.6,1.7,0.6c0.7,0,1.4-0.2,2-0.5c0.6-0.3,1-0.7,1.4-1.2V38.4z"/>
		<path id="XMLID_97_" class="st1" d="M794.3,37.6c0,1-0.1,1.9-0.3,2.7c-0.2,0.8-0.5,1.4-0.9,1.9c-0.4,0.5-0.9,0.9-1.4,1.2
			c-0.5,0.3-1.1,0.4-1.7,0.4c-0.7,0-1.4-0.1-1.9-0.4c-0.5-0.3-1-0.7-1.4-1.1v4.6l-1.7,0.9V32h1.7l0,1.4c0.4-0.4,0.9-0.8,1.5-1.2
			c0.6-0.3,1.2-0.5,2-0.5c0.6,0,1.1,0.1,1.6,0.3c0.5,0.2,0.9,0.6,1.3,1c0.4,0.5,0.7,1.1,0.9,1.8C794.2,35.7,794.3,36.6,794.3,37.6z
			 M792.7,37.7c0-1.5-0.3-2.6-0.8-3.3c-0.5-0.7-1.2-1.1-2.2-1.1c-0.6,0-1.2,0.2-1.7,0.5c-0.5,0.3-1,0.7-1.4,1.2v5.8
			c0.3,0.5,0.7,0.9,1.3,1.2s1.1,0.5,1.8,0.5c1,0,1.7-0.4,2.1-1.2C792.4,40.4,792.7,39.2,792.7,37.7z"/>
		<path id="XMLID_95_" class="st1" d="M800.6,47.7h-1.7l1.6-4.2L796.4,32h1.7l2.8,8.4l0.4,1.2l0.4-1.2l2.8-8.4h1.7L800.6,47.7z"/>
		<path id="XMLID_92_" class="st1" d="M816.9,28.8c0,0.3-0.1,0.6-0.3,0.8c-0.2,0.2-0.5,0.3-0.8,0.3c-0.3,0-0.6-0.1-0.9-0.3
			c-0.2-0.2-0.4-0.5-0.4-0.8c0-0.3,0.1-0.6,0.4-0.8c0.2-0.2,0.5-0.3,0.9-0.3c0.3,0,0.6,0.1,0.8,0.3
			C816.8,28.2,816.9,28.5,816.9,28.8z M814.9,43.6V32h1.7v11.6H814.9z"/>
		<path id="XMLID_90_" class="st1" d="M827.5,43.6v-6.8c0-1.3-0.2-2.2-0.7-2.7c-0.4-0.6-1.1-0.9-2.1-0.9c-0.8,0-1.5,0.3-2,0.9
			c-0.5,0.6-0.8,1.5-0.8,2.8v6.8h-1.7V32h1.7l0,1.4c0.3-0.5,0.8-0.9,1.3-1.2s1.2-0.5,1.9-0.5c0.6,0,1.2,0.1,1.7,0.3s0.9,0.5,1.3,0.9
			s0.6,0.9,0.8,1.5c0.2,0.6,0.3,1.3,0.3,2.1v7H827.5z"/>
		<path id="XMLID_87_" class="st1" d="M10.8,70l-1.3-3.9H3.1L1.8,70H0l5.4-15.4h1.9L12.6,70H10.8z M7.2,59.5C7.2,59.2,7.1,59,7,58.7
			c-0.1-0.3-0.2-0.6-0.3-0.8c-0.1-0.3-0.2-0.5-0.2-0.8s-0.1-0.4-0.2-0.6c0,0.2-0.1,0.4-0.2,0.6c-0.1,0.2-0.1,0.5-0.2,0.8
			s-0.2,0.6-0.3,0.9c-0.1,0.3-0.2,0.6-0.3,0.8l-1.7,5h5.3L7.2,59.5z"/>
		<path id="XMLID_85_" class="st1" d="M23.5,59.9v7.5c0,0.5,0.1,0.9,0.3,1.1s0.5,0.3,0.9,0.3c0.3,0,0.6,0,0.9-0.1
			c0.2-0.1,0.5-0.1,0.8-0.3l-0.1,1.4c-0.3,0.1-0.6,0.2-1,0.3s-0.7,0.1-1.2,0.1c-0.7,0-1.3-0.2-1.7-0.6c-0.4-0.4-0.6-1.1-0.6-2v-7.8
			h-1.4v-1.4h1.4v-3.6l1.7-0.9v4.5h2.9v1.4H23.5z"/>
		<path id="XMLID_82_" class="st1" d="M39,64.2c0,1-0.1,1.9-0.4,2.6c-0.3,0.8-0.6,1.4-1.1,1.9c-0.5,0.5-1,0.9-1.6,1.2
			c-0.6,0.3-1.3,0.4-2,0.4c-0.7,0-1.4-0.1-2-0.4c-0.6-0.3-1.1-0.6-1.6-1.1c-0.4-0.5-0.8-1.1-1-1.9c-0.3-0.7-0.4-1.6-0.4-2.6
			c0-1,0.1-1.9,0.4-2.6c0.3-0.7,0.6-1.4,1.1-1.9c0.5-0.5,1-0.9,1.6-1.2s1.3-0.4,2-0.4s1.4,0.1,2,0.4c0.6,0.2,1.1,0.6,1.6,1.1
			c0.4,0.5,0.8,1.1,1,1.9C38.8,62.3,39,63.2,39,64.2z M37.3,64.2c0-1.5-0.3-2.7-0.9-3.4c-0.6-0.8-1.4-1.1-2.4-1.1s-1.8,0.4-2.4,1.1
			c-0.6,0.8-0.9,1.9-0.9,3.4s0.3,2.7,0.9,3.5s1.4,1.2,2.4,1.2s1.8-0.4,2.4-1.2C37,66.9,37.3,65.7,37.3,64.2z"/>
		<path id="XMLID_80_" class="st1" d="M44.1,59.9v7.5c0,0.5,0.1,0.9,0.3,1.1s0.5,0.3,0.9,0.3c0.3,0,0.6,0,0.9-0.1
			c0.2-0.1,0.5-0.1,0.8-0.3l-0.1,1.4c-0.3,0.1-0.6,0.2-1,0.3s-0.7,0.1-1.2,0.1c-0.7,0-1.3-0.2-1.7-0.6c-0.4-0.4-0.6-1.1-0.6-2v-7.8
			H41v-1.4h1.4v-3.6l1.7-0.9v4.5H47v1.4H44.1z"/>
		<path id="XMLID_77_" class="st1" d="M56.8,70v-1.4c-0.4,0.4-0.9,0.8-1.5,1.2c-0.6,0.3-1.3,0.5-2.1,0.5c-0.5,0-0.9-0.1-1.3-0.2
			s-0.8-0.3-1.2-0.6c-0.4-0.3-0.6-0.7-0.8-1.1c-0.2-0.5-0.3-1.1-0.3-1.8c0-0.6,0.1-1.2,0.4-1.7c0.2-0.5,0.6-0.9,1-1.2
			c0.4-0.3,0.9-0.5,1.4-0.7c0.5-0.1,1.1-0.2,1.7-0.2c0.6,0,1.1,0.1,1.6,0.2c0.5,0.1,0.9,0.3,1.3,0.5v-1.4c0-1.7-0.8-2.5-2.5-2.5
			c-0.6,0-1.2,0.1-1.7,0.2c-0.5,0.2-1,0.4-1.5,0.6l-0.6-1.4c0.5-0.3,1.1-0.5,1.8-0.7c0.7-0.2,1.4-0.3,2.1-0.3c1.2,0,2.2,0.3,3,0.9
			c0.7,0.6,1.1,1.5,1.1,2.9V70H56.8z M56.8,64.9c-0.4-0.2-0.8-0.4-1.2-0.5s-1-0.2-1.7-0.2c-0.8,0-1.5,0.2-2,0.6
			c-0.5,0.4-0.7,1-0.7,1.7c0,0.9,0.2,1.5,0.6,1.9s1,0.6,1.7,0.6c0.7,0,1.4-0.2,2-0.5c0.6-0.3,1-0.7,1.4-1.2V64.9z"/>
		<path id="XMLID_75_" class="st1" d="M62.1,70V54.9l1.7-0.9V70H62.1z"/>
		<path id="XMLID_72_" class="st1" d="M82.7,64.2c0,1-0.1,1.9-0.4,2.6c-0.3,0.8-0.6,1.4-1.1,1.9c-0.5,0.5-1,0.9-1.6,1.2
			c-0.6,0.3-1.3,0.4-2,0.4c-0.7,0-1.4-0.1-2-0.4c-0.6-0.3-1.1-0.6-1.6-1.1c-0.4-0.5-0.8-1.1-1-1.9c-0.3-0.7-0.4-1.6-0.4-2.6
			c0-1,0.1-1.9,0.4-2.6c0.3-0.7,0.6-1.4,1.1-1.9c0.5-0.5,1-0.9,1.6-1.2s1.3-0.4,2-0.4s1.4,0.1,2,0.4c0.6,0.2,1.1,0.6,1.6,1.1
			c0.4,0.5,0.8,1.1,1,1.9C82.6,62.3,82.7,63.2,82.7,64.2z M81.1,64.2c0-1.5-0.3-2.7-0.9-3.4c-0.6-0.8-1.4-1.1-2.4-1.1
			s-1.8,0.4-2.4,1.1c-0.6,0.8-0.9,1.9-0.9,3.4s0.3,2.7,0.9,3.5s1.4,1.2,2.4,1.2s1.8-0.4,2.4-1.2C80.8,66.9,81.1,65.7,81.1,64.2z"/>
		<path id="XMLID_70_" class="st1" d="M89.4,55.5c-0.3,0-0.6,0.1-0.8,0.2c-0.2,0.2-0.3,0.5-0.3,1v1.7h2.3v1.4h-2.3V70h-1.7V59.9H85
			v-1.4h1.6v-1.6c0-1,0.3-1.8,0.8-2.2c0.5-0.4,1.2-0.6,2-0.6c0.3,0,0.6,0,0.8,0s0.4,0.1,0.6,0.2v1.6C90.4,55.6,89.9,55.5,89.4,55.5z
			"/>
		<path id="XMLID_68_" class="st1" d="M98.4,70c0-1,0.2-1.8,0.4-2.5c0.2-0.7,0.6-1.4,1-1.9c0.4-0.6,0.9-1.1,1.5-1.6
			c0.6-0.5,1.2-1,2-1.5c0.7-0.5,1.2-0.9,1.7-1.2c0.4-0.3,0.8-0.7,1-1c0.2-0.3,0.4-0.6,0.5-0.9c0.1-0.3,0.1-0.6,0.1-1
			c0-0.8-0.3-1.4-0.8-1.9c-0.5-0.5-1.3-0.7-2.3-0.7c-0.9,0-1.6,0.1-2.2,0.4s-1.1,0.6-1.6,1l-1-1.3c0.3-0.3,0.6-0.5,1-0.7
			c0.3-0.2,0.7-0.4,1.1-0.6c0.4-0.2,0.8-0.3,1.3-0.4c0.4-0.1,1-0.1,1.5-0.1c0.7,0,1.3,0.1,1.9,0.2c0.6,0.2,1.1,0.4,1.5,0.7
			s0.8,0.7,1,1.3c0.2,0.5,0.4,1.1,0.4,1.8c0,0.6-0.1,1.1-0.2,1.5c-0.1,0.4-0.4,0.8-0.7,1.2c-0.3,0.4-0.7,0.8-1.2,1.1
			s-1.1,0.8-1.8,1.3c-0.8,0.5-1.4,1-1.9,1.4s-0.9,0.8-1.2,1.2c-0.3,0.4-0.5,0.7-0.7,1.1c-0.1,0.4-0.3,0.7-0.3,1.2h8.2V70H98.4z"/>
		<path id="XMLID_65_" class="st1" d="M120.7,66.4V70h-1.6v-3.7h-8.2v-1.4l8-10.3h1.9v10.3h2.1v1.5H120.7z M119.1,58.1v-1.4
			c-0.1,0.2-0.3,0.4-0.4,0.6c-0.2,0.2-0.4,0.5-0.6,0.7c-0.2,0.3-0.4,0.5-0.6,0.8c-0.2,0.3-0.4,0.5-0.6,0.8l-2.1,2.7
			c-0.2,0.2-0.3,0.4-0.5,0.7c-0.2,0.2-0.4,0.5-0.6,0.7c-0.2,0.2-0.4,0.5-0.6,0.7s-0.3,0.4-0.5,0.6h1.4h5V58.1z"/>
		<path id="XMLID_62_" class="st1" d="M136.3,65.3c0,0.8-0.1,1.5-0.4,2.2c-0.3,0.6-0.7,1.1-1.2,1.6c-0.5,0.4-1.1,0.7-1.8,0.9
			c-0.7,0.2-1.4,0.3-2.2,0.3c-0.8,0-1.5-0.1-2.2-0.3c-0.7-0.2-1.3-0.6-1.8-1.1c-0.5-0.5-0.9-1.1-1.2-1.9c-0.3-0.8-0.4-1.7-0.4-2.8
			c0-0.7,0.1-1.4,0.2-2.1c0.1-0.7,0.3-1.4,0.6-2.2c0.3-0.7,0.7-1.4,1.1-2s1-1.2,1.7-1.7s1.4-0.9,2.3-1.2s1.9-0.5,3-0.6v1.5
			c-2,0.2-3.7,0.8-4.9,1.9c-1.2,1.1-2,2.6-2.4,4.6c0.5-0.5,1.1-1,1.8-1.3s1.6-0.5,2.7-0.5c0.7,0,1.4,0.1,2,0.3
			c0.6,0.2,1.2,0.5,1.6,0.9c0.5,0.4,0.8,0.9,1.1,1.5C136.2,63.8,136.3,64.5,136.3,65.3z M134.6,65.3c0-1-0.3-1.8-1-2.4
			s-1.6-0.8-2.8-0.8c-1.2,0-2.2,0.3-2.9,0.9c-0.7,0.6-1.1,1.4-1.1,2.4c0,0.5,0.1,0.9,0.3,1.3c0.2,0.4,0.4,0.8,0.8,1.1
			c0.3,0.3,0.8,0.5,1.2,0.7c0.5,0.2,1,0.3,1.6,0.3c1.3,0,2.3-0.3,2.9-0.9C134.3,67.2,134.6,66.3,134.6,65.3z"/>
		<path id="XMLID_60_" class="st1" d="M152.1,70v-6.8c0-1.3-0.2-2.2-0.7-2.7c-0.4-0.6-1.1-0.9-2.1-0.9c-0.8,0-1.5,0.3-2,0.9
			c-0.5,0.6-0.8,1.5-0.8,2.8V70h-1.7V58.5h1.7l0,1.4c0.3-0.5,0.8-0.9,1.3-1.2s1.2-0.5,1.9-0.5c0.6,0,1.2,0.1,1.7,0.3
			s0.9,0.5,1.3,0.9s0.6,0.9,0.8,1.5c0.2,0.6,0.3,1.3,0.3,2.1v7H152.1z"/>
		<path id="XMLID_57_" class="st1" d="M166.1,63.9c0,0.2,0,0.4,0,0.5c0,0.1,0,0.3-0.1,0.4h-7.7c0.1,1.3,0.4,2.2,0.9,3
			c0.6,0.7,1.3,1.1,2.3,1.1c0.7,0,1.2-0.1,1.7-0.3c0.5-0.2,1-0.5,1.5-0.8l0.8,1.2c-0.4,0.2-0.7,0.4-1,0.6c-0.3,0.2-0.6,0.3-0.9,0.4
			c-0.3,0.1-0.7,0.2-1,0.2c-0.4,0.1-0.7,0.1-1.2,0.1c-0.5,0-1.1-0.1-1.6-0.3c-0.6-0.2-1.1-0.5-1.5-1c-0.5-0.5-0.8-1.1-1.1-1.9
			c-0.3-0.8-0.4-1.7-0.4-2.9c0-0.9,0.1-1.8,0.4-2.5c0.2-0.7,0.6-1.4,1-1.9c0.4-0.5,0.9-0.9,1.5-1.2c0.6-0.3,1.2-0.4,1.9-0.4
			c0.7,0,1.4,0.1,2,0.4s1.1,0.7,1.5,1.2c0.4,0.5,0.7,1.1,0.9,1.8C166,62.3,166.1,63.1,166.1,63.9z M164.6,63.5
			c-0.1-1.1-0.4-2.1-0.9-2.8c-0.5-0.7-1.3-1.1-2.3-1.1c-0.9,0-1.6,0.3-2.1,0.9c-0.5,0.6-0.9,1.6-1,2.9H164.6z"/>
		<path id="XMLID_55_" class="st1" d="M179.4,70h-1.5l-2.1-7.8c0-0.1-0.1-0.2-0.1-0.4s-0.1-0.3-0.1-0.4c0-0.2-0.1-0.3-0.1-0.5
			c0-0.1-0.1-0.3-0.1-0.4c0,0.1,0,0.2-0.1,0.4c0,0.1-0.1,0.3-0.1,0.5c0,0.2-0.1,0.3-0.1,0.4s-0.1,0.3-0.1,0.4L173,70h-1.5l-3.1-11.6
			h1.7l1.8,7.6c0,0.1,0,0.2,0.1,0.4s0.1,0.3,0.1,0.4s0.1,0.3,0.1,0.5c0,0.1,0,0.3,0.1,0.4c0-0.1,0-0.2,0.1-0.4
			c0-0.1,0.1-0.3,0.1-0.5c0-0.2,0.1-0.3,0.1-0.4c0-0.1,0.1-0.3,0.1-0.4l2.1-7.6h1.5l2.1,7.6c0,0.1,0.1,0.2,0.1,0.4
			c0,0.1,0.1,0.3,0.1,0.4c0,0.2,0.1,0.3,0.1,0.5c0,0.1,0.1,0.3,0.1,0.4c0-0.1,0-0.2,0.1-0.4c0-0.1,0.1-0.3,0.1-0.5
			c0-0.2,0.1-0.3,0.1-0.4s0-0.3,0.1-0.4l1.8-7.6h1.7L179.4,70z"/>
		<path id="XMLID_53_" class="st1" d="M185.4,70V54.9l1.7-0.9V70H185.4z"/>
		<path id="XMLID_51_" class="st1" d="M194.1,74.1h-1.7l1.6-4.2l-4.1-11.4h1.7l2.8,8.4l0.4,1.2l0.4-1.2l2.8-8.4h1.7L194.1,74.1z"/>
		<path id="XMLID_48_" class="st1" d="M215.3,70v-1.4c-0.4,0.4-0.9,0.8-1.5,1.2c-0.6,0.3-1.2,0.5-2,0.5c-0.6,0-1.1-0.1-1.6-0.3
			s-0.9-0.6-1.3-1s-0.7-1.1-0.9-1.8c-0.2-0.7-0.3-1.6-0.3-2.6c0-1,0.1-1.9,0.3-2.7c0.2-0.8,0.5-1.4,0.9-1.9c0.4-0.5,0.9-0.9,1.4-1.2
			c0.5-0.3,1.1-0.4,1.7-0.4c0.7,0,1.4,0.1,1.9,0.4c0.5,0.3,1,0.7,1.4,1.1v-4.9l1.7-0.9V70H215.3z M215.3,61.4
			c-0.3-0.5-0.8-0.9-1.3-1.2c-0.5-0.3-1.1-0.5-1.8-0.5c-1,0-1.7,0.4-2.2,1.2c-0.5,0.8-0.7,2-0.7,3.6c0,1.5,0.3,2.6,0.8,3.3
			c0.5,0.7,1.2,1.1,2.2,1.1c0.6,0,1.2-0.2,1.7-0.5c0.5-0.3,1-0.7,1.4-1.2V61.4z"/>
		<path id="XMLID_45_" class="st1" d="M222.7,55.2c0,0.3-0.1,0.6-0.3,0.8c-0.2,0.2-0.5,0.3-0.8,0.3c-0.3,0-0.6-0.1-0.9-0.3
			c-0.2-0.2-0.4-0.5-0.4-0.8c0-0.3,0.1-0.6,0.4-0.8c0.2-0.2,0.5-0.3,0.9-0.3c0.3,0,0.6,0.1,0.8,0.3
			C222.6,54.6,222.7,54.9,222.7,55.2z M220.7,70V58.5h1.7V70H220.7z"/>
		<path id="XMLID_42_" class="st1" d="M232.7,70v-1.4c-0.4,0.4-0.9,0.8-1.5,1.2c-0.6,0.3-1.3,0.5-2.1,0.5c-0.5,0-0.9-0.1-1.3-0.2
			s-0.8-0.3-1.2-0.6c-0.4-0.3-0.6-0.7-0.8-1.1c-0.2-0.5-0.3-1.1-0.3-1.8c0-0.6,0.1-1.2,0.4-1.7c0.2-0.5,0.6-0.9,1-1.2
			c0.4-0.3,0.9-0.5,1.4-0.7c0.5-0.1,1.1-0.2,1.7-0.2c0.6,0,1.1,0.1,1.6,0.2c0.5,0.1,0.9,0.3,1.3,0.5v-1.4c0-1.7-0.8-2.5-2.5-2.5
			c-0.6,0-1.2,0.1-1.7,0.2c-0.5,0.2-1,0.4-1.5,0.6l-0.6-1.4c0.5-0.3,1.1-0.5,1.8-0.7c0.7-0.2,1.4-0.3,2.1-0.3c1.2,0,2.2,0.3,3,0.9
			c0.7,0.6,1.1,1.5,1.1,2.9V70H232.7z M232.7,64.9c-0.4-0.2-0.8-0.4-1.2-0.5s-1-0.2-1.7-0.2c-0.8,0-1.5,0.2-2,0.6
			c-0.5,0.4-0.7,1-0.7,1.7c0,0.9,0.2,1.5,0.6,1.9s1,0.6,1.7,0.6c0.7,0,1.4-0.2,2-0.5c0.6-0.3,1-0.7,1.4-1.2V64.9z"/>
		<path id="XMLID_39_" class="st1" d="M246.7,69c0,0.9-0.1,1.6-0.3,2.3c-0.2,0.6-0.5,1.2-1,1.6c-0.5,0.4-1.1,0.8-1.8,1
			c-0.8,0.2-1.7,0.4-2.7,0.4l-0.5-1.3c1,0,1.8-0.1,2.4-0.3c0.6-0.1,1.1-0.4,1.4-0.7c0.4-0.3,0.6-0.7,0.7-1.2c0.1-0.5,0.2-1,0.2-1.7
			v-0.6c-0.4,0.4-0.9,0.8-1.5,1.2c-0.6,0.3-1.2,0.5-2,0.5c-0.6,0-1.1-0.1-1.6-0.3s-0.9-0.6-1.3-1s-0.7-1.1-0.9-1.8
			c-0.2-0.7-0.3-1.6-0.3-2.6c0-1,0.1-1.9,0.3-2.7c0.2-0.8,0.5-1.4,0.9-1.9c0.4-0.5,0.9-0.9,1.4-1.2c0.5-0.3,1.1-0.4,1.7-0.4
			c0.7,0,1.4,0.1,1.9,0.4c0.5,0.3,1,0.7,1.4,1.1v-1.3h1.7V69z M245,61.4c-0.3-0.5-0.8-0.9-1.3-1.2c-0.5-0.3-1.1-0.5-1.8-0.5
			c-1,0-1.7,0.4-2.2,1.2c-0.5,0.8-0.7,2-0.7,3.6c0,1.5,0.3,2.6,0.8,3.3c0.5,0.7,1.2,1.1,2.2,1.1c0.6,0,1.2-0.2,1.7-0.5
			c0.5-0.3,1-0.7,1.4-1.2V61.4z"/>
		<path id="XMLID_37_" class="st1" d="M257.5,70v-6.8c0-1.3-0.2-2.2-0.7-2.7c-0.4-0.6-1.1-0.9-2.1-0.9c-0.8,0-1.5,0.3-2,0.9
			c-0.5,0.6-0.8,1.5-0.8,2.8V70h-1.7V58.5h1.7l0,1.4c0.3-0.5,0.8-0.9,1.3-1.2s1.2-0.5,1.9-0.5c0.6,0,1.2,0.1,1.7,0.3
			s0.9,0.5,1.3,0.9s0.6,0.9,0.8,1.5c0.2,0.6,0.3,1.3,0.3,2.1v7H257.5z"/>
		<path id="XMLID_34_" class="st1" d="M272.2,64.2c0,1-0.1,1.9-0.4,2.6c-0.3,0.8-0.6,1.4-1.1,1.9c-0.5,0.5-1,0.9-1.6,1.2
			c-0.6,0.3-1.3,0.4-2,0.4c-0.7,0-1.4-0.1-2-0.4c-0.6-0.3-1.1-0.6-1.6-1.1c-0.4-0.5-0.8-1.1-1-1.9c-0.3-0.7-0.4-1.6-0.4-2.6
			c0-1,0.1-1.9,0.4-2.6c0.3-0.7,0.6-1.4,1.1-1.9c0.5-0.5,1-0.9,1.6-1.2s1.3-0.4,2-0.4s1.4,0.1,2,0.4c0.6,0.2,1.1,0.6,1.6,1.1
			c0.4,0.5,0.8,1.1,1,1.9C272.1,62.3,272.2,63.2,272.2,64.2z M270.5,64.2c0-1.5-0.3-2.7-0.9-3.4c-0.6-0.8-1.4-1.1-2.4-1.1
			s-1.8,0.4-2.4,1.1c-0.6,0.8-0.9,1.9-0.9,3.4s0.3,2.7,0.9,3.5s1.4,1.2,2.4,1.2s1.8-0.4,2.4-1.2C270.2,66.9,270.5,65.7,270.5,64.2z"
			/>
		<path id="XMLID_32_" class="st1" d="M282.4,67c0,0.6-0.1,1.1-0.3,1.5c-0.2,0.4-0.5,0.7-0.9,1c-0.4,0.3-0.8,0.5-1.3,0.6
			c-0.5,0.1-1,0.2-1.5,0.2c-0.8,0-1.5-0.1-2.2-0.4c-0.7-0.3-1.3-0.6-1.9-1.1l1-1.2c0.5,0.4,1,0.7,1.5,0.9c0.5,0.2,1.1,0.3,1.7,0.3
			c0.8,0,1.4-0.2,1.8-0.5c0.4-0.3,0.6-0.8,0.6-1.3c0-0.2,0-0.4-0.1-0.6c-0.1-0.2-0.2-0.4-0.5-0.6s-0.5-0.4-0.8-0.6
			c-0.3-0.2-0.8-0.4-1.3-0.6c-0.6-0.2-1.1-0.5-1.5-0.7c-0.4-0.2-0.8-0.5-1-0.7c-0.3-0.3-0.5-0.6-0.6-0.9c-0.1-0.3-0.2-0.7-0.2-1.2
			c0-0.4,0.1-0.8,0.3-1.2s0.4-0.7,0.7-0.9c0.3-0.3,0.7-0.5,1.1-0.6c0.4-0.1,0.9-0.2,1.5-0.2c0.8,0,1.5,0.1,2.1,0.3
			c0.6,0.2,1.1,0.5,1.6,0.9l-0.9,1.2c-0.5-0.4-0.9-0.6-1.3-0.8c-0.4-0.2-0.9-0.3-1.6-0.3s-1.1,0.1-1.4,0.4c-0.3,0.3-0.5,0.6-0.5,1
			c0,0.3,0,0.5,0.1,0.6c0.1,0.2,0.2,0.3,0.4,0.5c0.2,0.2,0.5,0.3,0.8,0.5c0.3,0.2,0.7,0.4,1.2,0.6c0.5,0.2,1,0.5,1.5,0.7
			c0.4,0.2,0.8,0.5,1.1,0.7c0.3,0.3,0.5,0.6,0.7,0.9C282.3,66.1,282.4,66.5,282.4,67z"/>
		<path id="XMLID_29_" class="st1" d="M294.3,63.9c0,0.2,0,0.4,0,0.5c0,0.1,0,0.3-0.1,0.4h-7.7c0.1,1.3,0.4,2.2,0.9,3
			c0.6,0.7,1.3,1.1,2.3,1.1c0.7,0,1.2-0.1,1.7-0.3c0.5-0.2,1-0.5,1.5-0.8l0.8,1.2c-0.4,0.2-0.7,0.4-1,0.6c-0.3,0.2-0.6,0.3-0.9,0.4
			c-0.3,0.1-0.7,0.2-1,0.2c-0.4,0.1-0.7,0.1-1.2,0.1c-0.5,0-1.1-0.1-1.6-0.3c-0.6-0.2-1.1-0.5-1.5-1c-0.5-0.5-0.8-1.1-1.1-1.9
			c-0.3-0.8-0.4-1.7-0.4-2.9c0-0.9,0.1-1.8,0.4-2.5c0.2-0.7,0.6-1.4,1-1.9c0.4-0.5,0.9-0.9,1.5-1.2c0.6-0.3,1.2-0.4,1.9-0.4
			c0.7,0,1.4,0.1,2,0.4s1.1,0.7,1.5,1.2c0.4,0.5,0.7,1.1,0.9,1.8C294.2,62.3,294.3,63.1,294.3,63.9z M292.8,63.5
			c-0.1-1.1-0.4-2.1-0.9-2.8c-0.5-0.7-1.3-1.1-2.3-1.1c-0.9,0-1.6,0.3-2.1,0.9c-0.5,0.6-0.9,1.6-1,2.9H292.8z"/>
		<path id="XMLID_26_" class="st1" d="M304.4,70v-1.4c-0.4,0.4-0.9,0.8-1.5,1.2c-0.6,0.3-1.2,0.5-2,0.5c-0.6,0-1.1-0.1-1.6-0.3
			s-0.9-0.6-1.3-1s-0.7-1.1-0.9-1.8c-0.2-0.7-0.3-1.6-0.3-2.6c0-1,0.1-1.9,0.3-2.7c0.2-0.8,0.5-1.4,0.9-1.9c0.4-0.5,0.9-0.9,1.4-1.2
			c0.5-0.3,1.1-0.4,1.7-0.4c0.7,0,1.4,0.1,1.9,0.4c0.5,0.3,1,0.7,1.4,1.1v-4.9l1.7-0.9V70H304.4z M304.4,61.4
			c-0.3-0.5-0.8-0.9-1.3-1.2c-0.5-0.3-1.1-0.5-1.8-0.5c-1,0-1.7,0.4-2.2,1.2c-0.5,0.8-0.7,2-0.7,3.6c0,1.5,0.3,2.6,0.8,3.3
			c0.5,0.7,1.2,1.1,2.2,1.1c0.6,0,1.2-0.2,1.7-0.5c0.5-0.3,1-0.7,1.4-1.2V61.4z"/>
		<path id="XMLID_23_" class="st1" d="M324.7,64.1c0,1-0.1,1.9-0.3,2.7c-0.2,0.8-0.5,1.4-0.9,1.9c-0.4,0.5-0.9,0.9-1.4,1.2
			c-0.5,0.3-1.1,0.4-1.7,0.4c-0.7,0-1.4-0.1-1.9-0.4c-0.5-0.3-1-0.7-1.4-1.1v4.6l-1.7,0.9V58.5h1.7l0,1.4c0.4-0.4,0.9-0.8,1.5-1.2
			c0.6-0.3,1.2-0.5,2-0.5c0.6,0,1.1,0.1,1.6,0.3c0.5,0.2,0.9,0.6,1.3,1c0.4,0.5,0.7,1.1,0.9,1.8C324.6,62.2,324.7,63,324.7,64.1z
			 M323.1,64.1c0-1.5-0.3-2.6-0.8-3.3c-0.5-0.7-1.2-1.1-2.2-1.1c-0.6,0-1.2,0.2-1.7,0.5c-0.5,0.3-1,0.7-1.4,1.2v5.8
			c0.3,0.5,0.7,0.9,1.3,1.2s1.1,0.5,1.8,0.5c1,0,1.7-0.4,2.1-1.2C322.9,66.8,323.1,65.6,323.1,64.1z"/>
		<path id="XMLID_20_" class="st1" d="M334.4,70v-1.4c-0.4,0.4-0.9,0.8-1.5,1.2c-0.6,0.3-1.3,0.5-2.1,0.5c-0.5,0-0.9-0.1-1.3-0.2
			s-0.8-0.3-1.2-0.6c-0.4-0.3-0.6-0.7-0.8-1.1c-0.2-0.5-0.3-1.1-0.3-1.8c0-0.6,0.1-1.2,0.4-1.7c0.2-0.5,0.6-0.9,1-1.2
			c0.4-0.3,0.9-0.5,1.4-0.7c0.5-0.1,1.1-0.2,1.7-0.2c0.6,0,1.1,0.1,1.6,0.2c0.5,0.1,0.9,0.3,1.3,0.5v-1.4c0-1.7-0.8-2.5-2.5-2.5
			c-0.6,0-1.2,0.1-1.7,0.2c-0.5,0.2-1,0.4-1.5,0.6l-0.6-1.4c0.5-0.3,1.1-0.5,1.8-0.7c0.7-0.2,1.4-0.3,2.1-0.3c1.2,0,2.2,0.3,3,0.9
			c0.7,0.6,1.1,1.5,1.1,2.9V70H334.4z M334.4,64.9c-0.4-0.2-0.8-0.4-1.2-0.5s-1-0.2-1.7-0.2c-0.8,0-1.5,0.2-2,0.6
			c-0.5,0.4-0.7,1-0.7,1.7c0,0.9,0.2,1.5,0.6,1.9s1,0.6,1.7,0.6c0.7,0,1.4-0.2,2-0.5c0.6-0.3,1-0.7,1.4-1.2V64.9z"/>
		<path id="XMLID_18_" class="st1" d="M341.8,59.9v7.5c0,0.5,0.1,0.9,0.3,1.1s0.5,0.3,0.9,0.3c0.3,0,0.6,0,0.9-0.1
			c0.2-0.1,0.5-0.1,0.8-0.3l-0.1,1.4c-0.3,0.1-0.6,0.2-1,0.3s-0.7,0.1-1.2,0.1c-0.7,0-1.3-0.2-1.7-0.6c-0.4-0.4-0.6-1.1-0.6-2v-7.8
			h-1.4v-1.4h1.4v-3.6l1.7-0.9v4.5h2.9v1.4H341.8z"/>
		<path id="XMLID_15_" class="st1" d="M349.9,55.2c0,0.3-0.1,0.6-0.3,0.8c-0.2,0.2-0.5,0.3-0.8,0.3c-0.3,0-0.6-0.1-0.9-0.3
			c-0.2-0.2-0.4-0.5-0.4-0.8c0-0.3,0.1-0.6,0.4-0.8c0.2-0.2,0.5-0.3,0.9-0.3c0.3,0,0.6,0.1,0.8,0.3
			C349.8,54.6,349.9,54.9,349.9,55.2z M347.9,70V58.5h1.7V70H347.9z"/>
		<path id="XMLID_12_" class="st1" d="M362.1,63.9c0,0.2,0,0.4,0,0.5c0,0.1,0,0.3-0.1,0.4h-7.7c0.1,1.3,0.4,2.2,0.9,3
			c0.6,0.7,1.3,1.1,2.3,1.1c0.7,0,1.2-0.1,1.7-0.3c0.5-0.2,1-0.5,1.5-0.8l0.8,1.2c-0.4,0.2-0.7,0.4-1,0.6c-0.3,0.2-0.6,0.3-0.9,0.4
			c-0.3,0.1-0.7,0.2-1,0.2c-0.4,0.1-0.7,0.1-1.2,0.1c-0.5,0-1.1-0.1-1.6-0.3c-0.6-0.2-1.1-0.5-1.5-1c-0.5-0.5-0.8-1.1-1.1-1.9
			c-0.3-0.8-0.4-1.7-0.4-2.9c0-0.9,0.1-1.8,0.4-2.5c0.2-0.7,0.6-1.4,1-1.9c0.4-0.5,0.9-0.9,1.5-1.2c0.6-0.3,1.2-0.4,1.9-0.4
			c0.7,0,1.4,0.1,2,0.4s1.1,0.7,1.5,1.2c0.4,0.5,0.7,1.1,0.9,1.8C362,62.3,362.1,63.1,362.1,63.9z M360.6,63.5
			c-0.1-1.1-0.4-2.1-0.9-2.8c-0.5-0.7-1.3-1.1-2.3-1.1c-0.9,0-1.6,0.3-2.1,0.9c-0.5,0.6-0.9,1.6-1,2.9H360.6z"/>
		<path id="XMLID_10_" class="st1" d="M372.5,70v-6.8c0-1.3-0.2-2.2-0.7-2.7c-0.4-0.6-1.1-0.9-2.1-0.9c-0.8,0-1.5,0.3-2,0.9
			c-0.5,0.6-0.8,1.5-0.8,2.8V70h-1.7V58.5h1.7l0,1.4c0.3-0.5,0.8-0.9,1.3-1.2s1.2-0.5,1.9-0.5c0.6,0,1.2,0.1,1.7,0.3
			s0.9,0.5,1.3,0.9s0.6,0.9,0.8,1.5c0.2,0.6,0.3,1.3,0.3,2.1v7H372.5z"/>
		<path id="XMLID_8_" class="st1" d="M379.9,59.9v7.5c0,0.5,0.1,0.9,0.3,1.1s0.5,0.3,0.9,0.3c0.3,0,0.6,0,0.9-0.1
			c0.2-0.1,0.5-0.1,0.8-0.3l-0.1,1.4c-0.3,0.1-0.6,0.2-1,0.3s-0.7,0.1-1.2,0.1c-0.7,0-1.3-0.2-1.7-0.6c-0.4-0.4-0.6-1.1-0.6-2v-7.8
			h-1.4v-1.4h1.4v-3.6l1.7-0.9v4.5h2.9v1.4H379.9z"/>
		<path id="XMLID_6_" class="st1" d="M393.1,67c0,0.6-0.1,1.1-0.3,1.5c-0.2,0.4-0.5,0.7-0.9,1c-0.4,0.3-0.8,0.5-1.3,0.6
			c-0.5,0.1-1,0.2-1.5,0.2c-0.8,0-1.5-0.1-2.2-0.4c-0.7-0.3-1.3-0.6-1.9-1.1l1-1.2c0.5,0.4,1,0.7,1.5,0.9c0.5,0.2,1.1,0.3,1.7,0.3
			c0.8,0,1.4-0.2,1.8-0.5c0.4-0.3,0.6-0.8,0.6-1.3c0-0.2,0-0.4-0.1-0.6c-0.1-0.2-0.2-0.4-0.5-0.6s-0.5-0.4-0.8-0.6
			c-0.3-0.2-0.8-0.4-1.3-0.6c-0.6-0.2-1.1-0.5-1.5-0.7c-0.4-0.2-0.8-0.5-1-0.7c-0.3-0.3-0.5-0.6-0.6-0.9c-0.1-0.3-0.2-0.7-0.2-1.2
			c0-0.4,0.1-0.8,0.3-1.2s0.4-0.7,0.7-0.9c0.3-0.3,0.7-0.5,1.1-0.6c0.4-0.1,0.9-0.2,1.5-0.2c0.8,0,1.5,0.1,2.1,0.3
			c0.6,0.2,1.1,0.5,1.6,0.9l-0.9,1.2c-0.5-0.4-0.9-0.6-1.3-0.8c-0.4-0.2-0.9-0.3-1.6-0.3s-1.1,0.1-1.4,0.4c-0.3,0.3-0.5,0.6-0.5,1
			c0,0.3,0,0.5,0.1,0.6c0.1,0.2,0.2,0.3,0.4,0.5c0.2,0.2,0.5,0.3,0.8,0.5c0.3,0.2,0.7,0.4,1.2,0.6c0.5,0.2,1,0.5,1.5,0.7
			c0.4,0.2,0.8,0.5,1.1,0.7c0.3,0.3,0.5,0.6,0.7,0.9C393,66.1,393.1,66.5,393.1,67z"/>
		<path id="XMLID_4_" class="st1" d="M404.2,68.9c0,0.4-0.1,0.7-0.4,1c-0.3,0.3-0.6,0.4-1,0.4s-0.7-0.1-1-0.4
			c-0.3-0.3-0.4-0.6-0.4-1s0.1-0.7,0.4-1c0.3-0.3,0.6-0.4,1-0.4s0.7,0.1,1,0.4C404,68.1,404.2,68.5,404.2,68.9z"/>
	</g>
</g>
</svg>
