<!-- Generator: Adobe Illustrator 22.1.0, SVG Export Plug-In  -->
<svg version="1.1"
	 xmlns="http://www.w3.org/2000/svg" xmlns:xlink="http://www.w3.org/1999/xlink" xmlns:a="http://ns.adobe.com/AdobeSVGViewerExtensions/3.0/"
	 x="0px" y="0px" width="877.5px" height="75.2px" viewBox="0 0 877.5 75.2" style="enable-background:new 0 0 877.5 75.2;"
	 xml:space="preserve">
<style type="text/css">
	.st0{fill:#266093;}
	.st1{fill:#532D6D;}
</style>
<defs>
</defs>
<g id="XMLID_1_">
	<path id="XMLID_497_" class="st0" d="M13.6,12.3c0,0.8-0.1,1.5-0.4,2.2c-0.3,0.7-0.7,1.2-1.2,1.7c-0.5,0.5-1.2,0.8-2,1.1
		c-0.8,0.3-1.8,0.4-2.9,0.4c-1.4,0-2.7-0.3-3.8-0.8s-2-1.3-2.7-2.2L3,12.5c0.6,0.7,1.2,1.2,2,1.5c0.7,0.3,1.5,0.4,2.3,0.4
		c1,0,1.7-0.1,2.2-0.4c0.5-0.3,0.7-0.7,0.7-1.4c0-0.3,0-0.5-0.1-0.7c-0.1-0.2-0.3-0.4-0.5-0.6c-0.3-0.2-0.6-0.3-1.1-0.5
		c-0.5-0.2-1.1-0.3-1.9-0.5C5.7,10.1,5,9.9,4.4,9.7C3.7,9.4,3.2,9.1,2.7,8.8C2.2,8.4,1.9,7.9,1.6,7.4C1.4,6.8,1.2,6.1,1.2,5.3
		c0-0.8,0.2-1.4,0.5-2.1C2,2.7,2.4,2.2,3,1.7c0.5-0.4,1.2-0.7,1.9-1c0.7-0.2,1.5-0.3,2.3-0.3c1.3,0,2.4,0.2,3.4,0.7
		c1,0.5,1.9,1.1,2.7,1.9l-2.4,2.3c-0.5-0.6-1.1-1-1.7-1.3C8.5,3.8,7.9,3.7,7.1,3.7c-0.4,0-0.8,0-1.1,0.1C5.7,3.9,5.4,4,5.2,4.1
		C5,4.3,4.9,4.5,4.8,4.6C4.7,4.8,4.7,5,4.7,5.2c0,0.3,0.1,0.5,0.2,0.7C5,6,5.1,6.2,5.4,6.3s0.6,0.3,1,0.4c0.4,0.1,1,0.3,1.6,0.4
		c0.7,0.2,1.3,0.3,2,0.6c0.7,0.2,1.3,0.5,1.8,0.9c0.5,0.4,1,0.9,1.3,1.5C13.5,10.7,13.6,11.4,13.6,12.3z"/>
	<path id="XMLID_495_" class="st0" d="M23.6,16.9c-0.3,0.2-0.6,0.4-1.1,0.5s-0.9,0.2-1.5,0.2s-1-0.1-1.4-0.3c-0.4-0.2-0.8-0.4-1-0.8
		c-0.3-0.3-0.5-0.7-0.7-1.2s-0.2-1-0.2-1.5V8h-2.1V4.9h2.1V1.6L21,0v4.9h3V8h-3v5c0,0.6,0.1,1,0.3,1.2c0.2,0.2,0.5,0.3,0.9,0.3
		c0.3,0,0.6-0.1,0.8-0.2c0.3-0.1,0.6-0.4,1-0.7L23.6,16.9z"/>
	<path id="XMLID_493_" class="st0" d="M34.6,17.4v-0.8c-0.3,0.3-0.7,0.6-1.2,0.8c-0.5,0.2-1.1,0.3-1.8,0.3c-1.6,0-2.8-0.5-3.5-1.5
		c-0.7-1-1.1-2.4-1.1-4.2V4.9h3.3v6.8c0,0.6,0,1,0.1,1.4s0.2,0.7,0.4,0.9c0.2,0.2,0.4,0.4,0.7,0.5c0.3,0.1,0.6,0.1,0.9,0.1
		c0.7,0,1.2-0.2,1.6-0.6c0.4-0.4,0.6-1.1,0.6-2.2V4.9h3.3v12.5H34.6z"/>
	<path id="XMLID_490_" class="st0" d="M48,17.4v-0.8c-0.3,0.3-0.7,0.5-1.1,0.7c-0.4,0.2-0.9,0.3-1.5,0.3c-0.7,0-1.3-0.1-1.9-0.4
		c-0.6-0.3-1.1-0.7-1.5-1.2c-0.4-0.5-0.8-1.2-1-2.1c-0.3-0.8-0.4-1.8-0.4-3c0-0.9,0.1-1.8,0.3-2.6c0.2-0.8,0.5-1.5,0.9-2
		c0.4-0.6,0.9-1,1.5-1.3c0.6-0.3,1.3-0.5,2.1-0.5c0.6,0,1.1,0.1,1.5,0.3c0.5,0.2,0.8,0.4,1.1,0.7V1.6L51.2,0v17.4H48z M48,8.8
		c-0.5-0.7-1.3-1.1-2.2-1.1c-1.3,0-2,1.1-2,3.2c0,1.3,0.2,2.2,0.6,2.8s0.9,0.9,1.6,0.9c0.5,0,0.9-0.1,1.2-0.3
		c0.3-0.2,0.6-0.4,0.8-0.8V8.8z"/>
	<path id="XMLID_488_" class="st0" d="M59.9,21.8h-3.2l1.7-4.4L53.5,4.9h3.6l2.1,6c0.2,0.5,0.3,1,0.5,1.5c0.1,0.5,0.3,0.9,0.3,1.2
		c0.1-0.3,0.2-0.7,0.3-1.2c0.1-0.5,0.3-1,0.5-1.5l2.1-6h3.5L59.9,21.8z"/>
	<path id="XMLID_485_" class="st0" d="M82.3,17.4v-0.8c-0.3,0.3-0.7,0.5-1.1,0.7c-0.4,0.2-0.9,0.3-1.5,0.3c-0.7,0-1.3-0.1-1.9-0.4
		c-0.6-0.3-1.1-0.7-1.5-1.2c-0.4-0.5-0.8-1.2-1-2.1c-0.3-0.8-0.4-1.8-0.4-3c0-0.9,0.1-1.8,0.3-2.6c0.2-0.8,0.5-1.5,0.9-2
		c0.4-0.6,0.9-1,1.5-1.3c0.6-0.3,1.3-0.5,2.1-0.5c0.6,0,1.1,0.1,1.5,0.3c0.5,0.2,0.8,0.4,1.1,0.7V1.6L85.6,0v17.4H82.3z M82.3,8.8
		c-0.5-0.7-1.3-1.1-2.2-1.1c-1.3,0-2,1.1-2,3.2c0,1.3,0.2,2.2,0.6,2.8s0.9,0.9,1.6,0.9c0.5,0,0.9-0.1,1.2-0.3
		c0.3-0.2,0.6-0.4,0.8-0.8V8.8z"/>
	<path id="XMLID_482_" class="st0" d="M99.1,11.1c0,0.2,0,0.4,0,0.6s0,0.3,0,0.4h-7.5c0,0.4,0.1,0.8,0.3,1.1s0.4,0.5,0.6,0.7
		c0.2,0.2,0.5,0.3,0.8,0.4c0.3,0.1,0.6,0.1,0.9,0.1c0.5,0,0.9-0.1,1.2-0.2c0.4-0.2,0.7-0.4,0.9-0.6l2.3,2c-0.5,0.7-1.2,1.2-2,1.5
		c-0.8,0.3-1.6,0.5-2.5,0.5c-0.9,0-1.7-0.2-2.4-0.5c-0.7-0.3-1.3-0.7-1.8-1.3c-0.5-0.6-0.9-1.2-1.2-2.1c-0.3-0.8-0.4-1.7-0.4-2.7
		c0-1,0.1-1.8,0.4-2.6s0.7-1.5,1.2-2.1c0.5-0.6,1.1-1,1.8-1.3c0.7-0.3,1.4-0.5,2.2-0.5c0.8,0,1.6,0.2,2.2,0.5
		c0.7,0.3,1.2,0.8,1.7,1.4c0.4,0.6,0.8,1.3,1,2.1C99,9.4,99.1,10.2,99.1,11.1z M95.9,9.7c0-0.3-0.1-0.6-0.2-0.8s-0.2-0.5-0.4-0.7
		c-0.2-0.2-0.4-0.4-0.7-0.5c-0.3-0.1-0.6-0.2-1-0.2c-0.6,0-1.1,0.2-1.4,0.6s-0.6,1-0.6,1.6H95.9z"/>
	<path id="XMLID_480_" class="st0" d="M111.6,13.7c0,0.7-0.1,1.3-0.4,1.8c-0.3,0.5-0.6,0.9-1.1,1.2c-0.5,0.3-1,0.5-1.6,0.7
		s-1.3,0.2-2,0.2c-1,0-2-0.1-2.9-0.4c-0.9-0.3-1.7-0.6-2.4-1.1l1.1-2.5c0.7,0.4,1.4,0.6,2.1,0.8c0.7,0.2,1.5,0.3,2.3,0.3
		c0.7,0,1.1-0.1,1.3-0.2c0.2-0.2,0.3-0.4,0.3-0.7c0-0.3-0.1-0.5-0.4-0.7c-0.3-0.2-0.7-0.4-1.4-0.6c-0.7-0.2-1.4-0.4-2-0.7
		c-0.6-0.2-1.1-0.5-1.6-0.8c-0.4-0.3-0.8-0.7-1-1.1s-0.3-1-0.3-1.7c0-0.7,0.1-1.2,0.4-1.7s0.6-0.9,1-1.2c0.4-0.3,1-0.5,1.6-0.7
		s1.3-0.2,2-0.2c0.8,0,1.6,0.1,2.4,0.3c0.8,0.2,1.6,0.5,2.2,0.9l-1,2.6c-0.6-0.3-1.3-0.6-1.9-0.8c-0.6-0.2-1.2-0.3-1.8-0.3
		c-0.7,0-1.1,0.1-1.3,0.2c-0.2,0.1-0.3,0.3-0.3,0.6c0,0.1,0,0.2,0.1,0.3c0.1,0.1,0.2,0.2,0.4,0.3c0.2,0.1,0.4,0.2,0.8,0.3
		c0.3,0.1,0.8,0.3,1.3,0.5c0.6,0.2,1.1,0.4,1.6,0.6s1,0.5,1.3,0.8c0.4,0.3,0.7,0.7,0.9,1.1C111.5,12.6,111.6,13.1,111.6,13.7z"/>
	<path id="XMLID_477_" class="st0" d="M118.2,2c0,0.5-0.2,0.9-0.6,1.3c-0.4,0.4-0.8,0.6-1.3,0.6s-1-0.2-1.3-0.6
		c-0.4-0.4-0.6-0.8-0.6-1.3s0.2-0.9,0.6-1.3c0.4-0.4,0.8-0.6,1.3-0.6s0.9,0.2,1.3,0.6C118,1,118.2,1.4,118.2,2z M114.6,17.4V4.9h3.3
		v12.5H114.6z"/>
	<path id="XMLID_474_" class="st0" d="M131.4,15.3c0,1-0.1,1.9-0.2,2.7c-0.2,0.8-0.4,1.5-0.8,2s-0.9,1-1.6,1.3
		c-0.7,0.3-1.6,0.6-2.7,0.7l-1.2-2.5c0.6-0.1,1.2-0.2,1.6-0.3c0.4-0.1,0.8-0.3,1-0.5s0.4-0.5,0.5-0.8c0.1-0.3,0.1-0.7,0.1-1.2
		c-0.3,0.3-0.7,0.5-1.1,0.7c-0.4,0.2-0.9,0.3-1.5,0.3c-0.7,0-1.3-0.1-1.9-0.4c-0.6-0.3-1.1-0.7-1.5-1.2c-0.4-0.5-0.8-1.2-1-2.1
		c-0.3-0.8-0.4-1.8-0.4-3c0-0.9,0.1-1.8,0.3-2.6c0.2-0.8,0.5-1.5,0.9-2c0.4-0.6,0.9-1,1.5-1.3c0.6-0.3,1.3-0.5,2.1-0.5
		c0.6,0,1.1,0.1,1.5,0.3c0.5,0.2,0.8,0.4,1.1,0.7V4.9h3.3V15.3z M128.1,8.8c-0.5-0.7-1.3-1.1-2.2-1.1c-1.3,0-2,1.1-2,3.2
		c0,1.3,0.2,2.2,0.6,2.8s0.9,0.9,1.6,0.9c0.5,0,0.9-0.1,1.2-0.3c0.3-0.2,0.6-0.4,0.8-0.8V8.8z"/>
	<path id="XMLID_472_" class="st0" d="M142.2,17.4v-6.8c0-1.1-0.2-1.9-0.5-2.3c-0.4-0.4-0.9-0.6-1.6-0.6s-1.2,0.2-1.6,0.6
		s-0.6,1.1-0.6,2.2v6.8h-3.3V4.9h3.3v0.8c0.3-0.3,0.7-0.6,1.2-0.8c0.5-0.2,1.1-0.3,1.8-0.3c1.6,0,2.8,0.5,3.5,1.5s1.1,2.4,1.1,4.2
		v7.1H142.2z"/>
	<path id="XMLID_469_" class="st0" d="M152.4,6.8c0,0.3-0.1,0.6-0.2,0.9s-0.3,0.5-0.5,0.7s-0.4,0.4-0.7,0.5
		c-0.3,0.1-0.6,0.2-0.9,0.2c-0.3,0-0.6-0.1-0.9-0.2c-0.3-0.1-0.5-0.3-0.7-0.5s-0.4-0.4-0.5-0.7S148,7.1,148,6.8s0.1-0.6,0.2-0.9
		s0.3-0.5,0.5-0.7s0.4-0.4,0.7-0.5c0.3-0.1,0.6-0.2,0.9-0.2c0.3,0,0.6,0.1,0.9,0.2c0.3,0.1,0.5,0.3,0.7,0.5s0.4,0.4,0.5,0.7
		S152.4,6.5,152.4,6.8z M152.4,15.4c0,0.3-0.1,0.6-0.2,0.9c-0.1,0.3-0.3,0.5-0.5,0.7s-0.4,0.4-0.7,0.5c-0.3,0.1-0.6,0.2-0.9,0.2
		c-0.3,0-0.6-0.1-0.9-0.2c-0.3-0.1-0.5-0.3-0.7-0.5s-0.4-0.4-0.5-0.7c-0.1-0.3-0.2-0.6-0.2-0.9c0-0.3,0.1-0.6,0.2-0.9
		c0.1-0.3,0.3-0.5,0.5-0.7s0.4-0.4,0.7-0.5c0.3-0.1,0.6-0.2,0.9-0.2c0.3,0,0.6,0.1,0.9,0.2c0.3,0.1,0.5,0.3,0.7,0.5s0.4,0.4,0.5,0.7
		C152.4,14.8,152.4,15.1,152.4,15.4z"/>
	<path id="XMLID_467_" class="st1" d="M160.8,17.4c0-1,0.2-1.8,0.4-2.6c0.3-0.7,0.6-1.4,1-2c0.4-0.6,0.9-1.1,1.5-1.6
		c0.6-0.5,1.3-1,2-1.5c0.7-0.5,1.2-0.9,1.7-1.2c0.4-0.3,0.8-0.7,1-1s0.4-0.6,0.5-0.9c0.1-0.3,0.1-0.6,0.1-1c0-0.8-0.3-1.4-0.8-1.9
		c-0.6-0.5-1.3-0.7-2.4-0.7c-0.9,0-1.6,0.1-2.2,0.4s-1.1,0.6-1.6,1l-1-1.3c0.3-0.3,0.6-0.5,1-0.7c0.3-0.2,0.7-0.4,1.1-0.6
		c0.4-0.2,0.8-0.3,1.3-0.4c0.5-0.1,1-0.1,1.5-0.1c0.7,0,1.3,0.1,1.9,0.2c0.6,0.2,1.1,0.4,1.5,0.7c0.4,0.3,0.8,0.8,1,1.3
		s0.4,1.1,0.4,1.8c0,0.6-0.1,1.1-0.2,1.5c-0.1,0.4-0.4,0.8-0.7,1.2c-0.3,0.4-0.7,0.8-1.2,1.1c-0.5,0.4-1.1,0.8-1.8,1.3
		c-0.8,0.5-1.4,1-2,1.4c-0.5,0.4-0.9,0.8-1.2,1.2s-0.5,0.8-0.7,1.1s-0.3,0.8-0.3,1.2h8.3v1.6H160.8z"/>
	<path id="XMLID_464_" class="st1" d="M185.3,12.6c0,0.8-0.1,1.6-0.4,2.2s-0.7,1.2-1.2,1.6c-0.5,0.4-1.1,0.7-1.8,1
		c-0.7,0.2-1.5,0.3-2.3,0.3c-0.8,0-1.5-0.1-2.2-0.3c-0.7-0.2-1.3-0.6-1.8-1.1c-0.5-0.5-0.9-1.1-1.2-1.9c-0.3-0.8-0.4-1.7-0.4-2.8
		c0-0.7,0.1-1.4,0.2-2.1c0.1-0.7,0.3-1.5,0.6-2.2c0.3-0.7,0.7-1.4,1.1-2.1c0.5-0.6,1-1.2,1.7-1.7s1.4-0.9,2.3-1.3
		c0.9-0.3,1.9-0.5,3-0.6v1.5c-2.1,0.2-3.7,0.8-4.9,1.9c-1.2,1.1-2,2.6-2.4,4.6c0.5-0.5,1.1-1,1.8-1.3c0.7-0.3,1.6-0.5,2.7-0.5
		c0.7,0,1.4,0.1,2,0.3s1.2,0.5,1.6,0.9c0.5,0.4,0.8,0.9,1.1,1.5C185.1,11,185.3,11.8,185.3,12.6z M183.6,12.6c0-1.1-0.3-1.9-1-2.4
		c-0.7-0.6-1.6-0.9-2.9-0.9c-1.3,0-2.2,0.3-3,0.9c-0.7,0.6-1.1,1.4-1.1,2.4c0,0.5,0.1,0.9,0.3,1.4c0.2,0.4,0.5,0.8,0.8,1.1
		c0.3,0.3,0.8,0.5,1.3,0.7s1,0.3,1.6,0.3c1.3,0,2.3-0.3,3-0.9C183.2,14.5,183.6,13.7,183.6,12.6z"/>
	<path id="XMLID_462_" class="st1" d="M204.2,17.4h-1.5l-2.1-7.8c0-0.1-0.1-0.2-0.1-0.4c0-0.1-0.1-0.3-0.1-0.4
		c0-0.2-0.1-0.3-0.1-0.5c0-0.1-0.1-0.3-0.1-0.4c0,0.1,0,0.2-0.1,0.4c0,0.1-0.1,0.3-0.1,0.5c0,0.2-0.1,0.3-0.1,0.4
		c0,0.1-0.1,0.3-0.1,0.4l-2.1,7.8h-1.5l-3.1-11.7h1.7l1.8,7.7c0,0.1,0,0.2,0.1,0.4c0,0.1,0.1,0.3,0.1,0.4c0,0.2,0.1,0.3,0.1,0.5
		s0,0.3,0.1,0.4c0-0.1,0-0.2,0.1-0.4c0-0.1,0.1-0.3,0.1-0.5c0-0.2,0.1-0.3,0.1-0.4s0.1-0.3,0.1-0.4l2.1-7.7h1.5l2.1,7.7
		c0,0.1,0.1,0.2,0.1,0.4s0.1,0.3,0.1,0.4c0,0.2,0.1,0.3,0.1,0.5c0,0.1,0.1,0.3,0.1,0.4c0-0.1,0-0.2,0.1-0.4c0-0.1,0.1-0.3,0.1-0.5
		s0.1-0.3,0.1-0.4s0-0.3,0.1-0.4l1.8-7.7h1.7L204.2,17.4z"/>
	<path id="XMLID_459_" class="st1" d="M219.1,11.2c0,0.2,0,0.4,0,0.5s0,0.3-0.1,0.4h-7.8c0.1,1.3,0.4,2.3,1,3
		c0.6,0.7,1.3,1.1,2.3,1.1c0.7,0,1.3-0.1,1.7-0.3c0.5-0.2,1-0.5,1.5-0.8l0.8,1.2c-0.4,0.2-0.7,0.4-1,0.6c-0.3,0.2-0.6,0.3-1,0.4
		c-0.3,0.1-0.7,0.2-1,0.3c-0.4,0.1-0.8,0.1-1.2,0.1c-0.5,0-1.1-0.1-1.6-0.3s-1.1-0.6-1.5-1c-0.5-0.5-0.8-1.1-1.1-1.9
		s-0.5-1.8-0.5-2.9c0-0.9,0.1-1.8,0.4-2.5s0.6-1.4,1-1.9c0.4-0.5,0.9-0.9,1.5-1.2s1.2-0.4,1.9-0.4c0.8,0,1.4,0.1,2,0.4
		s1.1,0.7,1.5,1.2s0.7,1.1,0.9,1.8C219,9.6,219.1,10.4,219.1,11.2z M217.6,10.7c-0.1-1.2-0.4-2.1-0.9-2.8c-0.5-0.7-1.3-1.1-2.3-1.1
		c-0.9,0-1.6,0.3-2.1,1c-0.6,0.6-0.9,1.6-1,2.9H217.6z"/>
	<path id="XMLID_456_" class="st1" d="M231.1,11.2c0,0.2,0,0.4,0,0.5s0,0.3-0.1,0.4h-7.8c0.1,1.3,0.4,2.3,1,3
		c0.6,0.7,1.3,1.1,2.3,1.1c0.7,0,1.3-0.1,1.7-0.3c0.5-0.2,1-0.5,1.5-0.8l0.8,1.2c-0.4,0.2-0.7,0.4-1,0.6c-0.3,0.2-0.6,0.3-1,0.4
		c-0.3,0.1-0.7,0.2-1,0.3c-0.4,0.1-0.8,0.1-1.2,0.1c-0.5,0-1.1-0.1-1.6-0.3s-1.1-0.6-1.5-1c-0.5-0.5-0.8-1.1-1.1-1.9
		s-0.5-1.8-0.5-2.9c0-0.9,0.1-1.8,0.4-2.5s0.6-1.4,1-1.9c0.4-0.5,0.9-0.9,1.5-1.2s1.2-0.4,1.9-0.4c0.8,0,1.4,0.1,2,0.4
		s1.1,0.7,1.5,1.2s0.7,1.1,0.9,1.8C231,9.6,231.1,10.4,231.1,11.2z M229.6,10.7c-0.1-1.2-0.4-2.1-0.9-2.8c-0.5-0.7-1.3-1.1-2.3-1.1
		c-0.9,0-1.6,0.3-2.1,1c-0.6,0.6-0.9,1.6-1,2.9H229.6z"/>
	<path id="XMLID_454_" class="st1" d="M241,17.4l-3-6.2l-2,2.8v3.4h-1.7V2.1l1.7-0.9v10.1v0.6l0.5-0.7l3.8-5.4h1.9l-3.1,4.1l3.7,7.6
		H241z"/>
	<path id="XMLID_452_" class="st1" d="M252.8,14.3c0,0.6-0.1,1.1-0.3,1.5c-0.2,0.4-0.5,0.8-0.9,1s-0.8,0.5-1.3,0.6
		c-0.5,0.1-1,0.2-1.5,0.2c-0.8,0-1.5-0.1-2.2-0.4c-0.7-0.3-1.3-0.6-1.9-1.1l1-1.2c0.5,0.4,1,0.7,1.5,1c0.5,0.2,1.1,0.3,1.7,0.3
		c0.8,0,1.4-0.2,1.8-0.5c0.4-0.3,0.6-0.8,0.6-1.3c0-0.2,0-0.5-0.1-0.6c-0.1-0.2-0.3-0.4-0.5-0.6c-0.2-0.2-0.5-0.4-0.8-0.6
		c-0.3-0.2-0.8-0.4-1.3-0.6c-0.6-0.3-1.1-0.5-1.5-0.7c-0.4-0.2-0.8-0.5-1-0.7s-0.5-0.6-0.6-0.9s-0.2-0.7-0.2-1.2
		c0-0.4,0.1-0.9,0.3-1.2c0.2-0.4,0.4-0.7,0.8-0.9c0.3-0.3,0.7-0.5,1.1-0.6c0.4-0.1,0.9-0.2,1.5-0.2c0.8,0,1.5,0.1,2.1,0.3
		c0.6,0.2,1.2,0.5,1.6,0.9l-0.9,1.2c-0.5-0.4-0.9-0.6-1.3-0.8c-0.4-0.2-1-0.3-1.6-0.3c-0.6,0-1.1,0.1-1.4,0.4
		c-0.3,0.3-0.5,0.6-0.5,1c0,0.3,0,0.5,0.1,0.6s0.2,0.4,0.4,0.5c0.2,0.2,0.5,0.3,0.8,0.5c0.3,0.2,0.7,0.4,1.2,0.6
		c0.5,0.3,1,0.5,1.5,0.7c0.4,0.2,0.8,0.5,1.1,0.7s0.5,0.6,0.7,1C252.7,13.4,252.8,13.8,252.8,14.3z"/>
	<path id="XMLID_450_" class="st1" d="M267.7,7.4c-0.2-0.1-0.5-0.2-0.8-0.3C266.7,7,266.4,7,266,7c-0.8,0-1.4,0.3-1.9,0.9
		s-0.7,1.5-0.7,2.6v6.9h-1.7V5.7h1.7v1.4c0.3-0.5,0.7-0.9,1.2-1.2c0.5-0.3,1.1-0.5,1.7-0.5c0.4,0,0.8,0,1.1,0.1
		c0.3,0.1,0.5,0.1,0.7,0.2L267.7,7.4z"/>
	<path id="XMLID_447_" class="st1" d="M277.5,17.4V16c-0.4,0.4-0.9,0.8-1.5,1.2c-0.6,0.3-1.3,0.5-2.2,0.5c-0.5,0-0.9-0.1-1.4-0.2
		c-0.4-0.1-0.8-0.3-1.2-0.6c-0.4-0.3-0.6-0.7-0.9-1.1c-0.2-0.5-0.3-1.1-0.3-1.8c0-0.7,0.1-1.2,0.4-1.7s0.6-0.9,1-1.2
		c0.4-0.3,0.9-0.5,1.4-0.7c0.5-0.1,1.1-0.2,1.7-0.2c0.6,0,1.1,0.1,1.6,0.2c0.5,0.1,0.9,0.3,1.3,0.5V9.4c0-1.7-0.8-2.6-2.5-2.6
		c-0.6,0-1.2,0.1-1.7,0.2c-0.5,0.2-1,0.4-1.5,0.7l-0.6-1.4c0.5-0.3,1.1-0.5,1.8-0.7s1.4-0.3,2.1-0.3c1.3,0,2.3,0.3,3,0.9
		c0.7,0.6,1.1,1.6,1.1,2.9v8.2H277.5z M277.5,12.1c-0.4-0.2-0.8-0.4-1.3-0.5c-0.5-0.1-1-0.2-1.7-0.2c-0.9,0-1.5,0.2-2,0.6
		c-0.5,0.4-0.7,1-0.7,1.7c0,0.9,0.2,1.5,0.7,1.9c0.4,0.4,1,0.6,1.7,0.6c0.8,0,1.4-0.2,2-0.5c0.6-0.3,1-0.8,1.4-1.2V12.1z"/>
	<path id="XMLID_445_" class="st1" d="M290.2,17.4v-6.9c0-1.3-0.2-2.2-0.7-2.8s-1.1-0.9-2.1-0.9c-0.8,0-1.5,0.3-2.1,0.9
		c-0.6,0.6-0.8,1.5-0.8,2.8v6.9h-1.7V5.7h1.7l0,1.4c0.3-0.5,0.8-0.9,1.3-1.2s1.2-0.5,1.9-0.5c0.6,0,1.2,0.1,1.7,0.3
		c0.5,0.2,0.9,0.5,1.3,0.9s0.6,0.9,0.8,1.5c0.2,0.6,0.3,1.3,0.3,2.2v7.1H290.2z"/>
	<path id="XMLID_442_" class="st1" d="M302.6,17.4V16c-0.4,0.4-0.9,0.8-1.5,1.2s-1.2,0.5-2.1,0.5c-0.6,0-1.1-0.1-1.6-0.3
		c-0.5-0.2-1-0.6-1.3-1.1c-0.4-0.5-0.7-1.1-0.9-1.8c-0.2-0.8-0.3-1.6-0.3-2.7c0-1,0.1-2,0.3-2.7s0.5-1.4,0.9-2
		c0.4-0.5,0.9-0.9,1.4-1.2c0.5-0.3,1.1-0.4,1.7-0.4c0.7,0,1.4,0.1,1.9,0.4c0.5,0.3,1,0.7,1.4,1.1V2.1l1.7-0.9v16.3H302.6z
		 M302.6,8.6c-0.3-0.5-0.8-0.9-1.3-1.3c-0.5-0.3-1.2-0.5-1.9-0.5c-1,0-1.7,0.4-2.2,1.2s-0.7,2-0.7,3.6c0,1.5,0.3,2.6,0.8,3.4
		c0.5,0.8,1.2,1.1,2.2,1.1c0.6,0,1.2-0.2,1.7-0.5s1-0.7,1.4-1.2V8.6z"/>
	<path id="XMLID_439_" class="st1" d="M317.5,11.5c0,1-0.1,1.9-0.4,2.6c-0.3,0.8-0.6,1.4-1.1,1.9c-0.5,0.5-1,0.9-1.6,1.2
		c-0.6,0.3-1.3,0.4-2,0.4s-1.4-0.1-2-0.4s-1.2-0.6-1.6-1.2c-0.4-0.5-0.8-1.1-1.1-1.9c-0.3-0.8-0.4-1.6-0.4-2.6s0.1-1.9,0.4-2.6
		c0.3-0.8,0.6-1.4,1.1-1.9s1-0.9,1.6-1.2c0.6-0.3,1.3-0.4,2-0.4s1.4,0.1,2,0.4c0.6,0.3,1.2,0.6,1.6,1.1c0.4,0.5,0.8,1.1,1.1,1.9
		S317.5,10.5,317.5,11.5z M315.8,11.5c0-1.6-0.3-2.7-0.9-3.5s-1.4-1.2-2.5-1.2s-1.8,0.4-2.5,1.2c-0.6,0.8-0.9,1.9-0.9,3.5
		s0.3,2.7,0.9,3.5c0.6,0.8,1.4,1.2,2.5,1.2s1.9-0.4,2.5-1.2C315.5,14.2,315.8,13.1,315.8,11.5z"/>
	<path id="XMLID_437_" class="st1" d="M334.1,17.4v-6.9c0-1.3-0.2-2.3-0.6-2.8c-0.4-0.6-1-0.8-1.9-0.8c-0.8,0-1.4,0.3-1.9,0.9
		c-0.5,0.6-0.7,1.5-0.7,2.8v6.9h-1.7v-6.9c0-1.3-0.2-2.3-0.6-2.8c-0.4-0.6-1.1-0.8-1.9-0.8c-0.8,0-1.4,0.3-1.9,0.9
		c-0.5,0.6-0.7,1.5-0.7,2.8v6.9h-1.7V5.7h1.7l0,1.4c0.3-0.5,0.7-0.9,1.2-1.2c0.5-0.3,1.1-0.5,1.8-0.5c0.8,0,1.5,0.2,2,0.6
		c0.5,0.4,0.9,0.9,1.2,1.4c0.2-0.3,0.4-0.5,0.6-0.8c0.2-0.2,0.5-0.5,0.7-0.6c0.3-0.2,0.6-0.3,1-0.4s0.8-0.2,1.3-0.2
		c1.2,0,2.1,0.4,2.8,1.1c0.7,0.8,1.1,2,1.1,3.7v7.1H334.1z"/>
	<path id="XMLID_434_" class="st1" d="M341.6,2.4c0,0.3-0.1,0.6-0.3,0.8s-0.5,0.3-0.8,0.3c-0.3,0-0.6-0.1-0.9-0.3
		c-0.2-0.2-0.4-0.5-0.4-0.8c0-0.3,0.1-0.6,0.4-0.9c0.2-0.2,0.5-0.3,0.9-0.3c0.3,0,0.6,0.1,0.8,0.3S341.6,2.1,341.6,2.4z M339.6,17.4
		V5.7h1.7v11.7H339.6z"/>
	<path id="XMLID_432_" class="st1" d="M344.4,17.4v-1.2l6.4-9.1h-5.9V5.7h7.8v1.2l-6.4,9.1h6.4v1.4H344.4z"/>
	<path id="XMLID_429_" class="st1" d="M364.9,11.2c0,0.2,0,0.4,0,0.5s0,0.3-0.1,0.4h-7.8c0.1,1.3,0.4,2.3,1,3
		c0.6,0.7,1.3,1.1,2.3,1.1c0.7,0,1.3-0.1,1.7-0.3c0.5-0.2,1-0.5,1.5-0.8l0.8,1.2c-0.4,0.2-0.7,0.4-1,0.6c-0.3,0.2-0.6,0.3-1,0.4
		c-0.3,0.1-0.7,0.2-1,0.3c-0.4,0.1-0.8,0.1-1.2,0.1c-0.5,0-1.1-0.1-1.6-0.3s-1.1-0.6-1.5-1c-0.5-0.5-0.8-1.1-1.1-1.9
		s-0.5-1.8-0.5-2.9c0-0.9,0.1-1.8,0.4-2.5s0.6-1.4,1-1.9c0.4-0.5,0.9-0.9,1.5-1.2s1.2-0.4,1.9-0.4c0.8,0,1.4,0.1,2,0.4
		s1.1,0.7,1.5,1.2s0.7,1.1,0.9,1.8C364.8,9.6,364.9,10.4,364.9,11.2z M363.4,10.7c-0.1-1.2-0.4-2.1-0.9-2.8
		c-0.5-0.7-1.3-1.1-2.3-1.1c-0.9,0-1.6,0.3-2.1,1c-0.6,0.6-0.9,1.6-1,2.9H363.4z"/>
	<path id="XMLID_426_" class="st1" d="M375.1,17.4V16c-0.4,0.4-0.9,0.8-1.5,1.2s-1.2,0.5-2.1,0.5c-0.6,0-1.1-0.1-1.6-0.3
		c-0.5-0.2-1-0.6-1.3-1.1c-0.4-0.5-0.7-1.1-0.9-1.8c-0.2-0.8-0.3-1.6-0.3-2.7c0-1,0.1-2,0.3-2.7s0.5-1.4,0.9-2
		c0.4-0.5,0.9-0.9,1.4-1.2c0.5-0.3,1.1-0.4,1.7-0.4c0.7,0,1.4,0.1,1.9,0.4c0.5,0.3,1,0.7,1.4,1.1V2.1l1.7-0.9v16.3H375.1z
		 M375.1,8.6c-0.3-0.5-0.8-0.9-1.3-1.3c-0.5-0.3-1.2-0.5-1.9-0.5c-1,0-1.7,0.4-2.2,1.2s-0.7,2-0.7,3.6c0,1.5,0.3,2.6,0.8,3.4
		c0.5,0.8,1.2,1.1,2.2,1.1c0.6,0,1.2-0.2,1.7-0.5s1-0.7,1.4-1.2V8.6z"/>
	<path id="XMLID_424_" class="st1" d="M381.2,20H380l0.3-5.2h2.3L381.2,20z"/>
	<path id="XMLID_421_" class="st1" d="M401,11.3c0,1-0.1,2-0.3,2.7s-0.5,1.4-0.9,2c-0.4,0.5-0.9,0.9-1.4,1.2
		c-0.5,0.3-1.1,0.4-1.7,0.4c-0.7,0-1.4-0.1-1.9-0.4s-1-0.7-1.4-1.1v4.7l-1.7,0.9v-16h1.7l0,1.4c0.4-0.4,0.9-0.8,1.5-1.2
		c0.6-0.3,1.2-0.5,2.1-0.5c0.6,0,1.1,0.1,1.6,0.3c0.5,0.2,1,0.6,1.3,1.1s0.7,1.1,0.9,1.8C400.9,9.4,401,10.3,401,11.3z M399.4,11.4
		c0-1.5-0.3-2.6-0.8-3.4c-0.5-0.8-1.2-1.1-2.2-1.1c-0.6,0-1.2,0.2-1.7,0.5s-1,0.7-1.4,1.2v5.9c0.3,0.5,0.8,0.9,1.3,1.3
		c0.5,0.3,1.2,0.5,1.9,0.5c1,0,1.7-0.4,2.2-1.2S399.4,12.9,399.4,11.4z"/>
	<path id="XMLID_419_" class="st1" d="M410.1,7.4c-0.2-0.1-0.5-0.2-0.8-0.3c-0.3-0.1-0.6-0.1-1-0.1c-0.8,0-1.4,0.3-1.9,0.9
		s-0.7,1.5-0.7,2.6v6.9h-1.7V5.7h1.7v1.4c0.3-0.5,0.7-0.9,1.2-1.2c0.5-0.3,1.1-0.5,1.7-0.5c0.4,0,0.8,0,1.1,0.1
		c0.3,0.1,0.5,0.1,0.7,0.2L410.1,7.4z"/>
	<path id="XMLID_416_" class="st1" d="M422.8,11.5c0,1-0.1,1.9-0.4,2.6c-0.3,0.8-0.6,1.4-1.1,1.9c-0.5,0.5-1,0.9-1.6,1.2
		c-0.6,0.3-1.3,0.4-2,0.4s-1.4-0.1-2-0.4s-1.2-0.6-1.6-1.2c-0.4-0.5-0.8-1.1-1.1-1.9c-0.3-0.8-0.4-1.6-0.4-2.6s0.1-1.9,0.4-2.6
		c0.3-0.8,0.6-1.4,1.1-1.9s1-0.9,1.6-1.2c0.6-0.3,1.3-0.4,2-0.4s1.4,0.1,2,0.4c0.6,0.3,1.2,0.6,1.6,1.1c0.4,0.5,0.8,1.1,1.1,1.9
		S422.8,10.5,422.8,11.5z M421.1,11.5c0-1.6-0.3-2.7-0.9-3.5s-1.4-1.2-2.5-1.2s-1.8,0.4-2.5,1.2c-0.6,0.8-0.9,1.9-0.9,3.5
		s0.3,2.7,0.9,3.5c0.6,0.8,1.4,1.2,2.5,1.2s1.9-0.4,2.5-1.2C420.7,14.2,421.1,13.1,421.1,11.5z"/>
	<path id="XMLID_414_" class="st1" d="M433,14.3c0,0.6-0.1,1.1-0.3,1.5c-0.2,0.4-0.5,0.8-0.9,1s-0.8,0.5-1.3,0.6
		c-0.5,0.1-1,0.2-1.5,0.2c-0.8,0-1.5-0.1-2.2-0.4c-0.7-0.3-1.3-0.6-1.9-1.1l1-1.2c0.5,0.4,1,0.7,1.5,1c0.5,0.2,1.1,0.3,1.7,0.3
		c0.8,0,1.4-0.2,1.8-0.5c0.4-0.3,0.6-0.8,0.6-1.3c0-0.2,0-0.5-0.1-0.6c-0.1-0.2-0.3-0.4-0.5-0.6c-0.2-0.2-0.5-0.4-0.8-0.6
		c-0.3-0.2-0.8-0.4-1.3-0.6c-0.6-0.3-1.1-0.5-1.5-0.7c-0.4-0.2-0.8-0.5-1-0.7s-0.5-0.6-0.6-0.9s-0.2-0.7-0.2-1.2
		c0-0.4,0.1-0.9,0.3-1.2c0.2-0.4,0.4-0.7,0.8-0.9c0.3-0.3,0.7-0.5,1.1-0.6c0.4-0.1,0.9-0.2,1.5-0.2c0.8,0,1.5,0.1,2.1,0.3
		c0.6,0.2,1.2,0.5,1.6,0.9l-0.9,1.2c-0.5-0.4-0.9-0.6-1.3-0.8c-0.4-0.2-1-0.3-1.6-0.3c-0.6,0-1.1,0.1-1.4,0.4
		c-0.3,0.3-0.5,0.6-0.5,1c0,0.3,0,0.5,0.1,0.6s0.2,0.4,0.4,0.5c0.2,0.2,0.5,0.3,0.8,0.5c0.3,0.2,0.7,0.4,1.2,0.6
		c0.5,0.3,1,0.5,1.5,0.7c0.4,0.2,0.8,0.5,1.1,0.7s0.5,0.6,0.7,1C433,13.4,433,13.8,433,14.3z"/>
	<path id="XMLID_411_" class="st1" d="M445.6,11.3c0,1-0.1,2-0.3,2.7s-0.5,1.4-0.9,2c-0.4,0.5-0.9,0.9-1.4,1.2
		c-0.5,0.3-1.1,0.4-1.7,0.4c-0.7,0-1.4-0.1-1.9-0.4s-1-0.7-1.4-1.1v4.7l-1.7,0.9v-16h1.7l0,1.4c0.4-0.4,0.9-0.8,1.5-1.2
		c0.6-0.3,1.2-0.5,2.1-0.5c0.6,0,1.1,0.1,1.6,0.3c0.5,0.2,1,0.6,1.3,1.1s0.7,1.1,0.9,1.8C445.5,9.4,445.6,10.3,445.6,11.3z
		 M444,11.4c0-1.5-0.3-2.6-0.8-3.4c-0.5-0.8-1.2-1.1-2.2-1.1c-0.6,0-1.2,0.2-1.7,0.5s-1,0.7-1.4,1.2v5.9c0.3,0.5,0.8,0.9,1.3,1.3
		c0.5,0.3,1.2,0.5,1.9,0.5c1,0,1.7-0.4,2.2-1.2S444,12.9,444,11.4z"/>
	<path id="XMLID_408_" class="st1" d="M457.6,11.2c0,0.2,0,0.4,0,0.5s0,0.3-0.1,0.4h-7.8c0.1,1.3,0.4,2.3,1,3
		c0.6,0.7,1.3,1.1,2.3,1.1c0.7,0,1.3-0.1,1.7-0.3c0.5-0.2,1-0.5,1.5-0.8l0.8,1.2c-0.4,0.2-0.7,0.4-1,0.6c-0.3,0.2-0.6,0.3-1,0.4
		c-0.3,0.1-0.7,0.2-1,0.3c-0.4,0.1-0.8,0.1-1.2,0.1c-0.5,0-1.1-0.1-1.6-0.3s-1.1-0.6-1.5-1c-0.5-0.5-0.8-1.1-1.1-1.9
		s-0.5-1.8-0.5-2.9c0-0.9,0.1-1.8,0.4-2.5s0.6-1.4,1-1.9c0.4-0.5,0.9-0.9,1.5-1.2s1.2-0.4,1.9-0.4c0.8,0,1.4,0.1,2,0.4
		s1.1,0.7,1.5,1.2s0.7,1.1,0.9,1.8C457.5,9.6,457.6,10.4,457.6,11.2z M456,10.7c-0.1-1.2-0.4-2.1-0.9-2.8c-0.5-0.7-1.3-1.1-2.3-1.1
		c-0.9,0-1.6,0.3-2.1,1c-0.6,0.6-0.9,1.6-1,2.9H456z"/>
	<path id="XMLID_406_" class="st1" d="M467.8,8c-0.4-0.4-0.9-0.7-1.3-0.9s-0.9-0.3-1.5-0.3c-0.5,0-0.9,0.1-1.3,0.3
		c-0.4,0.2-0.7,0.5-1,0.9c-0.3,0.4-0.5,0.9-0.7,1.4c-0.2,0.6-0.2,1.2-0.2,1.9c0,1.4,0.3,2.6,0.9,3.5c0.6,0.9,1.4,1.3,2.4,1.3
		c0.6,0,1.1-0.1,1.5-0.3c0.4-0.2,0.8-0.5,1.2-0.9l1,1.1c-0.5,0.5-1,0.9-1.6,1.2c-0.6,0.3-1.3,0.4-2.1,0.4c-0.6,0-1.3-0.1-1.8-0.4
		c-0.6-0.2-1.1-0.6-1.6-1.1c-0.5-0.5-0.8-1.1-1.1-1.9c-0.3-0.8-0.4-1.6-0.4-2.7c0-1.1,0.1-2,0.4-2.8c0.3-0.8,0.7-1.4,1.2-1.9
		s1-0.9,1.6-1.1s1.2-0.4,1.8-0.4c0.8,0,1.5,0.1,2.1,0.4c0.6,0.3,1.1,0.6,1.6,1L467.8,8z"/>
	<path id="XMLID_404_" class="st1" d="M473.9,7.1v7.6c0,0.5,0.1,0.9,0.3,1.1s0.5,0.3,0.9,0.3c0.3,0,0.6,0,0.9-0.1
		c0.2-0.1,0.5-0.1,0.8-0.3l-0.1,1.4c-0.3,0.1-0.7,0.2-1,0.3s-0.7,0.1-1.2,0.1c-0.7,0-1.3-0.2-1.7-0.6s-0.6-1.1-0.6-2.1V7.1h-1.4V5.7
		h1.4V2.1l1.7-0.9v4.5h2.9v1.4H473.9z"/>
	<path id="XMLID_401_" class="st1" d="M482.2,2.4c0,0.3-0.1,0.6-0.3,0.8s-0.5,0.3-0.8,0.3c-0.3,0-0.6-0.1-0.9-0.3
		c-0.2-0.2-0.4-0.5-0.4-0.8c0-0.3,0.1-0.6,0.4-0.9c0.2-0.2,0.5-0.3,0.9-0.3c0.3,0,0.6,0.1,0.8,0.3S482.2,2.1,482.2,2.4z M480.2,17.4
		V5.7h1.7v11.7H480.2z"/>
	<path id="XMLID_399_" class="st1" d="M490.3,17.4h-1.5l-4.2-11.7h1.8l3,9.2l0.2,0.6l0.2-0.6l3-9.2h1.7L490.3,17.4z"/>
	<path id="XMLID_396_" class="st1" d="M506.2,11.2c0,0.2,0,0.4,0,0.5s0,0.3-0.1,0.4h-7.8c0.1,1.3,0.4,2.3,1,3
		c0.6,0.7,1.3,1.1,2.3,1.1c0.7,0,1.3-0.1,1.7-0.3c0.5-0.2,1-0.5,1.5-0.8l0.8,1.2c-0.4,0.2-0.7,0.4-1,0.6c-0.3,0.2-0.6,0.3-1,0.4
		c-0.3,0.1-0.7,0.2-1,0.3c-0.4,0.1-0.8,0.1-1.2,0.1c-0.5,0-1.1-0.1-1.6-0.3s-1.1-0.6-1.5-1c-0.5-0.5-0.8-1.1-1.1-1.9
		s-0.5-1.8-0.5-2.9c0-0.9,0.1-1.8,0.4-2.5s0.6-1.4,1-1.9c0.4-0.5,0.9-0.9,1.5-1.2s1.2-0.4,1.9-0.4c0.8,0,1.4,0.1,2,0.4
		s1.1,0.7,1.5,1.2s0.7,1.1,0.9,1.8C506.1,9.6,506.2,10.4,506.2,11.2z M504.6,10.7c-0.1-1.2-0.4-2.1-0.9-2.8
		c-0.5-0.7-1.3-1.1-2.3-1.1c-0.9,0-1.6,0.3-2.1,1c-0.6,0.6-0.9,1.6-1,2.9H504.6z"/>
	<path id="XMLID_394_" class="st1" d="M510,20h-1.2l0.3-5.2h2.3L510,20z"/>
	<path id="XMLID_391_" class="st1" d="M530,11.5c0,1-0.1,1.9-0.4,2.6c-0.3,0.8-0.6,1.4-1.1,1.9c-0.5,0.5-1,0.9-1.6,1.2
		c-0.6,0.3-1.3,0.4-2,0.4s-1.4-0.1-2-0.4s-1.2-0.6-1.6-1.2c-0.4-0.5-0.8-1.1-1.1-1.9c-0.3-0.8-0.4-1.6-0.4-2.6s0.1-1.9,0.4-2.6
		c0.3-0.8,0.6-1.4,1.1-1.9s1-0.9,1.6-1.2c0.6-0.3,1.3-0.4,2-0.4s1.4,0.1,2,0.4c0.6,0.3,1.2,0.6,1.6,1.1c0.4,0.5,0.8,1.1,1.1,1.9
		S530,10.5,530,11.5z M528.3,11.5c0-1.6-0.3-2.7-0.9-3.5s-1.4-1.2-2.5-1.2s-1.8,0.4-2.5,1.2c-0.6,0.8-0.9,1.9-0.9,3.5
		s0.3,2.7,0.9,3.5c0.6,0.8,1.4,1.2,2.5,1.2s1.9-0.4,2.5-1.2C528,14.2,528.3,13.1,528.3,11.5z"/>
	<path id="XMLID_388_" class="st1" d="M542.5,11.3c0,1-0.1,2-0.3,2.7s-0.5,1.4-0.9,2c-0.4,0.5-0.9,0.9-1.4,1.2
		c-0.5,0.3-1.1,0.4-1.7,0.4c-0.7,0-1.4-0.1-1.9-0.4s-1-0.7-1.4-1.1v4.7l-1.7,0.9v-16h1.7l0,1.4c0.4-0.4,0.9-0.8,1.5-1.2
		c0.6-0.3,1.2-0.5,2.1-0.5c0.6,0,1.1,0.1,1.6,0.3c0.5,0.2,1,0.6,1.3,1.1s0.7,1.1,0.9,1.8C542.3,9.4,542.5,10.3,542.5,11.3z
		 M540.8,11.4c0-1.5-0.3-2.6-0.8-3.4c-0.5-0.8-1.2-1.1-2.2-1.1c-0.6,0-1.2,0.2-1.7,0.5s-1,0.7-1.4,1.2v5.9c0.3,0.5,0.8,0.9,1.3,1.3
		c0.5,0.3,1.2,0.5,1.9,0.5c1,0,1.7-0.4,2.2-1.2S540.8,12.9,540.8,11.4z"/>
	<path id="XMLID_385_" class="st1" d="M554.4,11.2c0,0.2,0,0.4,0,0.5s0,0.3-0.1,0.4h-7.8c0.1,1.3,0.4,2.3,1,3
		c0.6,0.7,1.3,1.1,2.3,1.1c0.7,0,1.3-0.1,1.7-0.3c0.5-0.2,1-0.5,1.5-0.8l0.8,1.2c-0.4,0.2-0.7,0.4-1,0.6c-0.3,0.2-0.6,0.3-1,0.4
		c-0.3,0.1-0.7,0.2-1,0.3c-0.4,0.1-0.8,0.1-1.2,0.1c-0.5,0-1.1-0.1-1.6-0.3s-1.1-0.6-1.5-1c-0.5-0.5-0.8-1.1-1.1-1.9
		s-0.5-1.8-0.5-2.9c0-0.9,0.1-1.8,0.4-2.5s0.6-1.4,1-1.9c0.4-0.5,0.9-0.9,1.5-1.2s1.2-0.4,1.9-0.4c0.8,0,1.4,0.1,2,0.4
		s1.1,0.7,1.5,1.2s0.7,1.1,0.9,1.8C554.3,9.6,554.4,10.4,554.4,11.2z M552.9,10.7c-0.1-1.2-0.4-2.1-0.9-2.8
		c-0.5-0.7-1.3-1.1-2.3-1.1c-0.9,0-1.6,0.3-2.1,1c-0.6,0.6-0.9,1.6-1,2.9H552.9z"/>
	<path id="XMLID_383_" class="st1" d="M564.9,17.4v-6.9c0-1.3-0.2-2.2-0.7-2.8s-1.1-0.9-2.1-0.9c-0.8,0-1.5,0.3-2.1,0.9
		c-0.6,0.6-0.8,1.5-0.8,2.8v6.9h-1.7V5.7h1.7l0,1.4c0.3-0.5,0.8-0.9,1.3-1.2s1.2-0.5,1.9-0.5c0.6,0,1.2,0.1,1.7,0.3
		c0.5,0.2,0.9,0.5,1.3,0.9s0.6,0.9,0.8,1.5c0.2,0.6,0.3,1.3,0.3,2.2v7.1H564.9z"/>
	<path id="XMLID_381_" class="st1" d="M576.1,17.4V2.1l1.7-0.9v16.3H576.1z"/>
	<path id="XMLID_378_" class="st1" d="M588.3,17.4V16c-0.4,0.4-0.9,0.8-1.5,1.2c-0.6,0.3-1.3,0.5-2.2,0.5c-0.5,0-0.9-0.1-1.4-0.2
		c-0.4-0.1-0.8-0.3-1.2-0.6c-0.4-0.3-0.6-0.7-0.9-1.1c-0.2-0.5-0.3-1.1-0.3-1.8c0-0.7,0.1-1.2,0.4-1.7s0.6-0.9,1-1.2
		c0.4-0.3,0.9-0.5,1.4-0.7c0.5-0.1,1.1-0.2,1.7-0.2c0.6,0,1.1,0.1,1.6,0.2c0.5,0.1,0.9,0.3,1.3,0.5V9.4c0-1.7-0.8-2.6-2.5-2.6
		c-0.6,0-1.2,0.1-1.7,0.2c-0.5,0.2-1,0.4-1.5,0.7L582,6.4c0.5-0.3,1.1-0.5,1.8-0.7s1.4-0.3,2.1-0.3c1.3,0,2.3,0.3,3,0.9
		c0.7,0.6,1.1,1.6,1.1,2.9v8.2H588.3z M588.3,12.1c-0.4-0.2-0.8-0.4-1.3-0.5c-0.5-0.1-1-0.2-1.7-0.2c-0.9,0-1.5,0.2-2,0.6
		c-0.5,0.4-0.7,1-0.7,1.7c0,0.9,0.2,1.5,0.7,1.9c0.4,0.4,1,0.6,1.7,0.6c0.8,0,1.4-0.2,2-0.5c0.6-0.3,1-0.8,1.4-1.2V12.1z"/>
	<path id="XMLID_375_" class="st1" d="M603,11.3c0,1-0.1,2-0.3,2.7s-0.5,1.4-0.9,2c-0.4,0.5-0.9,0.9-1.4,1.2
		c-0.5,0.3-1.1,0.4-1.7,0.4c-0.7,0-1.4-0.1-1.9-0.4s-1-0.7-1.4-1.1v1.3h-1.7V2.1l1.7-0.9l0,6c0.4-0.4,0.9-0.8,1.5-1.2
		c0.6-0.3,1.2-0.5,2.1-0.5c0.6,0,1.1,0.1,1.6,0.3c0.5,0.2,1,0.6,1.3,1.1s0.7,1.1,0.9,1.8C602.9,9.4,603,10.3,603,11.3z M601.4,11.4
		c0-1.5-0.3-2.6-0.8-3.4c-0.5-0.8-1.2-1.1-2.2-1.1c-0.6,0-1.2,0.2-1.7,0.5s-1,0.7-1.4,1.2v5.9c0.3,0.5,0.8,0.9,1.3,1.3
		c0.5,0.3,1.2,0.5,1.9,0.5c1,0,1.7-0.4,2.2-1.2S601.4,12.9,601.4,11.4z"/>
	<path id="XMLID_372_" class="st1" d="M615,11.2c0,0.2,0,0.4,0,0.5s0,0.3-0.1,0.4h-7.8c0.1,1.3,0.4,2.3,1,3c0.6,0.7,1.3,1.1,2.3,1.1
		c0.7,0,1.3-0.1,1.7-0.3c0.5-0.2,1-0.5,1.5-0.8l0.8,1.2c-0.4,0.2-0.7,0.4-1,0.6c-0.3,0.2-0.6,0.3-1,0.4c-0.3,0.1-0.7,0.2-1,0.3
		c-0.4,0.1-0.8,0.1-1.2,0.1c-0.5,0-1.1-0.1-1.6-0.3s-1.1-0.6-1.5-1c-0.5-0.5-0.8-1.1-1.1-1.9s-0.5-1.8-0.5-2.9
		c0-0.9,0.1-1.8,0.4-2.5s0.6-1.4,1-1.9c0.4-0.5,0.9-0.9,1.5-1.2s1.2-0.4,1.9-0.4c0.8,0,1.4,0.1,2,0.4s1.1,0.7,1.5,1.2
		s0.7,1.1,0.9,1.8C614.9,9.6,615,10.4,615,11.2z M613.4,10.7c-0.1-1.2-0.4-2.1-0.9-2.8c-0.5-0.7-1.3-1.1-2.3-1.1
		c-0.9,0-1.6,0.3-2.1,1c-0.6,0.6-0.9,1.6-1,2.9H613.4z"/>
	<path id="XMLID_370_" class="st1" d="M618.2,17.4V2.1l1.7-0.9v16.3H618.2z"/>
	<path id="XMLID_368_" class="st1" d="M624.4,20h-1.2l0.3-5.2h2.3L624.4,20z"/>
	<path id="XMLID_366_" class="st1" d="M642,8c-0.4-0.4-0.9-0.7-1.3-0.9s-0.9-0.3-1.5-0.3c-0.5,0-0.9,0.1-1.3,0.3
		c-0.4,0.2-0.7,0.5-1,0.9c-0.3,0.4-0.5,0.9-0.7,1.4c-0.2,0.6-0.2,1.2-0.2,1.9c0,1.4,0.3,2.6,0.9,3.5c0.6,0.9,1.4,1.3,2.4,1.3
		c0.6,0,1.1-0.1,1.5-0.3c0.4-0.2,0.8-0.5,1.2-0.9l1,1.1c-0.5,0.5-1,0.9-1.6,1.2c-0.6,0.3-1.3,0.4-2.1,0.4c-0.6,0-1.3-0.1-1.8-0.4
		c-0.6-0.2-1.1-0.6-1.6-1.1c-0.5-0.5-0.8-1.1-1.1-1.9c-0.3-0.8-0.4-1.6-0.4-2.7c0-1.1,0.1-2,0.4-2.8c0.3-0.8,0.7-1.4,1.2-1.9
		s1-0.9,1.6-1.1s1.2-0.4,1.8-0.4c0.8,0,1.5,0.1,2.1,0.4c0.6,0.3,1.1,0.6,1.6,1L642,8z"/>
	<path id="XMLID_363_" class="st1" d="M655.5,11.5c0,1-0.1,1.9-0.4,2.6c-0.3,0.8-0.6,1.4-1.1,1.9c-0.5,0.5-1,0.9-1.6,1.2
		c-0.6,0.3-1.3,0.4-2,0.4s-1.4-0.1-2-0.4s-1.2-0.6-1.6-1.2c-0.4-0.5-0.8-1.1-1.1-1.9c-0.3-0.8-0.4-1.6-0.4-2.6s0.1-1.9,0.4-2.6
		c0.3-0.8,0.6-1.4,1.1-1.9s1-0.9,1.6-1.2c0.6-0.3,1.3-0.4,2-0.4s1.4,0.1,2,0.4c0.6,0.3,1.2,0.6,1.6,1.1c0.4,0.5,0.8,1.1,1.1,1.9
		S655.5,10.5,655.5,11.5z M653.8,11.5c0-1.6-0.3-2.7-0.9-3.5s-1.4-1.2-2.5-1.2s-1.8,0.4-2.5,1.2c-0.6,0.8-0.9,1.9-0.9,3.5
		s0.3,2.7,0.9,3.5c0.6,0.8,1.4,1.2,2.5,1.2s1.9-0.4,2.5-1.2C653.4,14.2,653.8,13.1,653.8,11.5z"/>
	<path id="XMLID_361_" class="st1" d="M672.1,17.4v-6.9c0-1.3-0.2-2.3-0.6-2.8c-0.4-0.6-1-0.8-1.9-0.8c-0.8,0-1.4,0.3-1.9,0.9
		c-0.5,0.6-0.7,1.5-0.7,2.8v6.9h-1.7v-6.9c0-1.3-0.2-2.3-0.6-2.8c-0.4-0.6-1.1-0.8-1.9-0.8c-0.8,0-1.4,0.3-1.9,0.9
		c-0.5,0.6-0.7,1.5-0.7,2.8v6.9h-1.7V5.7h1.7l0,1.4c0.3-0.5,0.7-0.9,1.2-1.2c0.5-0.3,1.1-0.5,1.8-0.5c0.8,0,1.5,0.2,2,0.6
		c0.5,0.4,0.9,0.9,1.2,1.4c0.2-0.3,0.4-0.5,0.6-0.8c0.2-0.2,0.5-0.5,0.7-0.6c0.3-0.2,0.6-0.3,1-0.4s0.8-0.2,1.3-0.2
		c1.2,0,2.1,0.4,2.8,1.1c0.7,0.8,1.1,2,1.1,3.7v7.1H672.1z"/>
	<path id="XMLID_358_" class="st1" d="M686.8,11.3c0,1-0.1,2-0.3,2.7s-0.5,1.4-0.9,2c-0.4,0.5-0.9,0.9-1.4,1.2
		c-0.5,0.3-1.1,0.4-1.7,0.4c-0.7,0-1.4-0.1-1.9-0.4s-1-0.7-1.4-1.1v4.7l-1.7,0.9v-16h1.7l0,1.4c0.4-0.4,0.9-0.8,1.5-1.2
		c0.6-0.3,1.2-0.5,2.1-0.5c0.6,0,1.1,0.1,1.6,0.3c0.5,0.2,1,0.6,1.3,1.1s0.7,1.1,0.9,1.8C686.7,9.4,686.8,10.3,686.8,11.3z
		 M685.1,11.4c0-1.5-0.3-2.6-0.8-3.4c-0.5-0.8-1.2-1.1-2.2-1.1c-0.6,0-1.2,0.2-1.7,0.5s-1,0.7-1.4,1.2v5.9c0.3,0.5,0.8,0.9,1.3,1.3
		c0.5,0.3,1.2,0.5,1.9,0.5c1,0,1.7-0.4,2.2-1.2S685.1,12.9,685.1,11.4z"/>
	<path id="XMLID_355_" class="st1" d="M696.6,17.4V16c-0.4,0.4-0.9,0.8-1.5,1.2c-0.6,0.3-1.3,0.5-2.2,0.5c-0.5,0-0.9-0.1-1.4-0.2
		c-0.4-0.1-0.8-0.3-1.2-0.6c-0.4-0.3-0.6-0.7-0.9-1.1c-0.2-0.5-0.3-1.1-0.3-1.8c0-0.7,0.1-1.2,0.4-1.7s0.6-0.9,1-1.2
		c0.4-0.3,0.9-0.5,1.4-0.7c0.5-0.1,1.1-0.2,1.7-0.2c0.6,0,1.1,0.1,1.6,0.2c0.5,0.1,0.9,0.3,1.3,0.5V9.4c0-1.7-0.8-2.6-2.5-2.6
		c-0.6,0-1.2,0.1-1.7,0.2c-0.5,0.2-1,0.4-1.5,0.7l-0.6-1.4c0.5-0.3,1.1-0.5,1.8-0.7s1.4-0.3,2.1-0.3c1.3,0,2.3,0.3,3,0.9
		c0.7,0.6,1.1,1.6,1.1,2.9v8.2H696.6z M696.6,12.1c-0.4-0.2-0.8-0.4-1.3-0.5c-0.5-0.1-1-0.2-1.7-0.2c-0.9,0-1.5,0.2-2,0.6
		c-0.5,0.4-0.7,1-0.7,1.7c0,0.9,0.2,1.5,0.7,1.9c0.4,0.4,1,0.6,1.7,0.6c0.8,0,1.4-0.2,2-0.5c0.6-0.3,1-0.8,1.4-1.2V12.1z"/>
	<path id="XMLID_353_" class="st1" d="M707.9,7.4c-0.2-0.1-0.5-0.2-0.8-0.3c-0.3-0.1-0.6-0.1-1-0.1c-0.8,0-1.4,0.3-1.9,0.9
		s-0.7,1.5-0.7,2.6v6.9h-1.7V5.7h1.7v1.4c0.3-0.5,0.7-0.9,1.2-1.2c0.5-0.3,1.1-0.5,1.7-0.5c0.4,0,0.8,0,1.1,0.1
		c0.3,0.1,0.5,0.1,0.7,0.2L707.9,7.4z"/>
	<path id="XMLID_350_" class="st1" d="M717.7,17.4V16c-0.4,0.4-0.9,0.8-1.5,1.2c-0.6,0.3-1.3,0.5-2.2,0.5c-0.5,0-0.9-0.1-1.4-0.2
		c-0.4-0.1-0.8-0.3-1.2-0.6c-0.4-0.3-0.6-0.7-0.9-1.1c-0.2-0.5-0.3-1.1-0.3-1.8c0-0.7,0.1-1.2,0.4-1.7s0.6-0.9,1-1.2
		c0.4-0.3,0.9-0.5,1.4-0.7c0.5-0.1,1.1-0.2,1.7-0.2c0.6,0,1.1,0.1,1.6,0.2c0.5,0.1,0.9,0.3,1.3,0.5V9.4c0-1.7-0.8-2.6-2.5-2.6
		c-0.6,0-1.2,0.1-1.7,0.2c-0.5,0.2-1,0.4-1.5,0.7l-0.6-1.4c0.5-0.3,1.1-0.5,1.8-0.7s1.4-0.3,2.1-0.3c1.3,0,2.3,0.3,3,0.9
		c0.7,0.6,1.1,1.6,1.1,2.9v8.2H717.7z M717.7,12.1c-0.4-0.2-0.8-0.4-1.3-0.5c-0.5-0.1-1-0.2-1.7-0.2c-0.9,0-1.5,0.2-2,0.6
		c-0.5,0.4-0.7,1-0.7,1.7c0,0.9,0.2,1.5,0.7,1.9c0.4,0.4,1,0.6,1.7,0.6c0.8,0,1.4-0.2,2-0.5c0.6-0.3,1-0.8,1.4-1.2V12.1z"/>
	<path id="XMLID_348_" class="st1" d="M725.1,7.1v7.6c0,0.5,0.1,0.9,0.3,1.1s0.5,0.3,0.9,0.3c0.3,0,0.6,0,0.9-0.1
		c0.2-0.1,0.5-0.1,0.8-0.3l-0.1,1.4c-0.3,0.1-0.7,0.2-1,0.3s-0.7,0.1-1.2,0.1c-0.7,0-1.3-0.2-1.7-0.6s-0.6-1.1-0.6-2.1V7.1H722V5.7
		h1.4V2.1l1.7-0.9v4.5h2.9v1.4H725.1z"/>
	<path id="XMLID_345_" class="st1" d="M733.4,2.4c0,0.3-0.1,0.6-0.3,0.8s-0.5,0.3-0.8,0.3c-0.3,0-0.6-0.1-0.9-0.3
		C731.1,3,731,2.7,731,2.4c0-0.3,0.1-0.6,0.4-0.9c0.2-0.2,0.5-0.3,0.9-0.3c0.3,0,0.6,0.1,0.8,0.3S733.4,2.1,733.4,2.4z M731.4,17.4
		V5.7h1.7v11.7H731.4z"/>
	<path id="XMLID_343_" class="st1" d="M741.6,17.4h-1.5l-4.2-11.7h1.8l3,9.2l0.2,0.6l0.2-0.6l3-9.2h1.7L741.6,17.4z"/>
	<path id="XMLID_340_" class="st1" d="M757.4,11.2c0,0.2,0,0.4,0,0.5s0,0.3-0.1,0.4h-7.8c0.1,1.3,0.4,2.3,1,3
		c0.6,0.7,1.3,1.1,2.3,1.1c0.7,0,1.3-0.1,1.7-0.3c0.5-0.2,1-0.5,1.5-0.8l0.8,1.2c-0.4,0.2-0.7,0.4-1,0.6c-0.3,0.2-0.6,0.3-1,0.4
		c-0.3,0.1-0.7,0.2-1,0.3c-0.4,0.1-0.8,0.1-1.2,0.1c-0.5,0-1.1-0.1-1.6-0.3s-1.1-0.6-1.5-1c-0.5-0.5-0.8-1.1-1.1-1.9
		s-0.5-1.8-0.5-2.9c0-0.9,0.1-1.8,0.4-2.5s0.6-1.4,1-1.9c0.4-0.5,0.9-0.9,1.5-1.2s1.2-0.4,1.9-0.4c0.8,0,1.4,0.1,2,0.4
		s1.1,0.7,1.5,1.2s0.7,1.1,0.9,1.8C757.3,9.6,757.4,10.4,757.4,11.2z M755.9,10.7c-0.1-1.2-0.4-2.1-0.9-2.8
		c-0.5-0.7-1.3-1.1-2.3-1.1c-0.9,0-1.6,0.3-2.1,1c-0.6,0.6-0.9,1.6-1,2.9H755.9z"/>
	<path id="XMLID_338_" class="st1" d="M13.6,44.1v-6.9c0-1.3-0.2-2.3-0.6-2.8c-0.4-0.6-1-0.8-1.9-0.8c-0.8,0-1.4,0.3-1.9,0.9
		C8.7,35,8.5,36,8.5,37.3v6.9H6.8v-6.9c0-1.3-0.2-2.3-0.6-2.8c-0.4-0.6-1.1-0.8-1.9-0.8c-0.8,0-1.4,0.3-1.9,0.9
		C1.9,35,1.7,36,1.7,37.3v6.9H0V32.4h1.7l0,1.4c0.3-0.5,0.7-0.9,1.2-1.2c0.5-0.3,1.1-0.5,1.8-0.5c0.8,0,1.5,0.2,2,0.6
		c0.5,0.4,0.9,0.9,1.2,1.4c0.2-0.3,0.4-0.5,0.6-0.8c0.2-0.2,0.5-0.5,0.7-0.6c0.3-0.2,0.6-0.3,1-0.4s0.8-0.2,1.3-0.2
		c1.2,0,2.1,0.4,2.8,1.1c0.7,0.8,1.1,2,1.1,3.7v7.1H13.6z"/>
	<path id="XMLID_335_" class="st1" d="M28.5,38.2c0,1-0.1,1.9-0.4,2.6c-0.3,0.8-0.6,1.4-1.1,1.9c-0.5,0.5-1,0.9-1.6,1.2
		c-0.6,0.3-1.3,0.4-2,0.4s-1.4-0.1-2-0.4s-1.2-0.6-1.6-1.2c-0.4-0.5-0.8-1.1-1.1-1.9c-0.3-0.8-0.4-1.6-0.4-2.6s0.1-1.9,0.4-2.6
		c0.3-0.8,0.6-1.4,1.1-1.9s1-0.9,1.6-1.2c0.6-0.3,1.3-0.4,2-0.4s1.4,0.1,2,0.4c0.6,0.3,1.2,0.6,1.6,1.1c0.4,0.5,0.8,1.1,1.1,1.9
		S28.5,37.2,28.5,38.2z M26.8,38.2c0-1.6-0.3-2.7-0.9-3.5s-1.4-1.2-2.5-1.2s-1.8,0.4-2.5,1.2c-0.6,0.8-0.9,1.9-0.9,3.5
		s0.3,2.7,0.9,3.5c0.6,0.8,1.4,1.2,2.5,1.2s1.9-0.4,2.5-1.2C26.5,41,26.8,39.8,26.8,38.2z"/>
	<path id="XMLID_333_" class="st1" d="M38.9,44.1v-6.9c0-1.3-0.2-2.2-0.7-2.8s-1.1-0.9-2.1-0.9c-0.8,0-1.5,0.3-2.1,0.9
		c-0.6,0.6-0.8,1.5-0.8,2.8v6.9h-1.7V32.4h1.7l0,1.4c0.3-0.5,0.8-0.9,1.3-1.2s1.2-0.5,1.9-0.5c0.6,0,1.2,0.1,1.7,0.3
		c0.5,0.2,0.9,0.5,1.3,0.9s0.6,0.9,0.8,1.5c0.2,0.6,0.3,1.3,0.3,2.2v7.1H38.9z"/>
	<path id="XMLID_330_" class="st1" d="M53.7,38.2c0,1-0.1,1.9-0.4,2.6c-0.3,0.8-0.6,1.4-1.1,1.9c-0.5,0.5-1,0.9-1.6,1.2
		c-0.6,0.3-1.3,0.4-2,0.4s-1.4-0.1-2-0.4s-1.2-0.6-1.6-1.2c-0.4-0.5-0.8-1.1-1.1-1.9c-0.3-0.8-0.4-1.6-0.4-2.6s0.1-1.9,0.4-2.6
		c0.3-0.8,0.6-1.4,1.1-1.9s1-0.9,1.6-1.2c0.6-0.3,1.3-0.4,2-0.4s1.4,0.1,2,0.4c0.6,0.3,1.2,0.6,1.6,1.1c0.4,0.5,0.8,1.1,1.1,1.9
		S53.7,37.2,53.7,38.2z M52,38.2c0-1.6-0.3-2.7-0.9-3.5s-1.4-1.2-2.5-1.2s-1.8,0.4-2.5,1.2c-0.6,0.8-0.9,1.9-0.9,3.5
		s0.3,2.7,0.9,3.5c0.6,0.8,1.4,1.2,2.5,1.2s1.9-0.4,2.5-1.2C51.7,41,52,39.8,52,38.2z"/>
	<path id="XMLID_328_" class="st1" d="M58.9,33.9v7.6c0,0.5,0.1,0.9,0.3,1.1s0.5,0.3,0.9,0.3c0.3,0,0.6,0,0.9-0.1
		c0.2-0.1,0.5-0.1,0.8-0.3L61.7,44c-0.3,0.1-0.7,0.2-1,0.3s-0.7,0.1-1.2,0.1c-0.7,0-1.3-0.2-1.7-0.6s-0.6-1.1-0.6-2.1v-7.9h-1.4
		v-1.4h1.4v-3.6l1.7-0.9v4.5h2.9v1.4H58.9z"/>
	<path id="XMLID_326_" class="st1" d="M72.4,44.1v-6.9c0-1.3-0.2-2.2-0.7-2.8s-1.1-0.9-2.1-0.9c-0.8,0-1.5,0.3-2.1,0.9
		c-0.6,0.6-0.8,1.5-0.8,2.8v6.9h-1.7V28.8l1.7-0.9l0,6c0.3-0.5,0.8-0.9,1.3-1.2s1.2-0.5,1.9-0.5c0.6,0,1.2,0.1,1.7,0.3
		c0.5,0.2,0.9,0.5,1.3,0.9s0.6,0.9,0.8,1.5c0.2,0.6,0.3,1.3,0.3,2.2v7.1H72.4z"/>
	<path id="XMLID_323_" class="st1" d="M86.6,37.9c0,0.2,0,0.4,0,0.5s0,0.3-0.1,0.4h-7.8c0.1,1.3,0.4,2.3,1,3
		c0.6,0.7,1.3,1.1,2.3,1.1c0.7,0,1.3-0.1,1.7-0.3c0.5-0.2,1-0.5,1.5-0.8L86,43c-0.4,0.2-0.7,0.4-1,0.6c-0.3,0.2-0.6,0.3-1,0.4
		c-0.3,0.1-0.7,0.2-1,0.3c-0.4,0.1-0.8,0.1-1.2,0.1c-0.5,0-1.1-0.1-1.6-0.3s-1.1-0.6-1.5-1c-0.5-0.5-0.8-1.1-1.1-1.9
		s-0.5-1.8-0.5-2.9c0-0.9,0.1-1.8,0.4-2.5s0.6-1.4,1-1.9c0.4-0.5,0.9-0.9,1.5-1.2s1.2-0.4,1.9-0.4c0.8,0,1.4,0.1,2,0.4
		s1.1,0.7,1.5,1.2s0.7,1.1,0.9,1.8C86.5,36.3,86.6,37.1,86.6,37.9z M85.1,37.5c-0.1-1.2-0.4-2.1-0.9-2.8c-0.5-0.7-1.3-1.1-2.3-1.1
		c-0.9,0-1.6,0.3-2.1,1c-0.6,0.6-0.9,1.6-1,2.9H85.1z"/>
	<path id="XMLID_321_" class="st1" d="M95.7,34.2c-0.2-0.1-0.5-0.2-0.8-0.3c-0.3-0.1-0.6-0.1-1-0.1c-0.8,0-1.4,0.3-1.9,0.9
		s-0.7,1.5-0.7,2.6v6.9h-1.7V32.4h1.7v1.4c0.3-0.5,0.7-0.9,1.2-1.2c0.5-0.3,1.1-0.5,1.7-0.5c0.4,0,0.8,0,1.1,0.1
		c0.3,0.1,0.5,0.1,0.7,0.2L95.7,34.2z"/>
	<path id="XMLID_318_" class="st1" d="M105.5,44.1v-1.4c-0.4,0.4-0.9,0.8-1.5,1.2c-0.6,0.3-1.3,0.5-2.2,0.5c-0.5,0-0.9-0.1-1.4-0.2
		c-0.4-0.1-0.8-0.3-1.2-0.6c-0.4-0.3-0.6-0.7-0.9-1.1c-0.2-0.5-0.3-1.1-0.3-1.8c0-0.7,0.1-1.2,0.4-1.7s0.6-0.9,1-1.2
		c0.4-0.3,0.9-0.5,1.4-0.7c0.5-0.1,1.1-0.2,1.7-0.2c0.6,0,1.1,0.1,1.6,0.2c0.5,0.1,0.9,0.3,1.3,0.5v-1.4c0-1.7-0.8-2.6-2.5-2.6
		c-0.6,0-1.2,0.1-1.7,0.2c-0.5,0.2-1,0.4-1.5,0.7l-0.6-1.4c0.5-0.3,1.1-0.5,1.8-0.7s1.4-0.3,2.1-0.3c1.3,0,2.3,0.3,3,0.9
		c0.7,0.6,1.1,1.6,1.1,2.9v8.2H105.5z M105.5,38.9c-0.4-0.2-0.8-0.4-1.3-0.5c-0.5-0.1-1-0.2-1.7-0.2c-0.9,0-1.5,0.2-2,0.6
		c-0.5,0.4-0.7,1-0.7,1.7c0,0.9,0.2,1.5,0.7,1.9c0.4,0.4,1,0.6,1.7,0.6c0.8,0,1.4-0.2,2-0.5c0.6-0.3,1-0.8,1.4-1.2V38.9z"/>
	<path id="XMLID_315_" class="st1" d="M120.2,38.1c0,1-0.1,2-0.3,2.7s-0.5,1.4-0.9,2c-0.4,0.5-0.9,0.9-1.4,1.2
		c-0.5,0.3-1.1,0.4-1.7,0.4c-0.7,0-1.4-0.1-1.9-0.4s-1-0.7-1.4-1.1v4.7l-1.7,0.9v-16h1.7l0,1.4c0.4-0.4,0.9-0.8,1.5-1.2
		c0.6-0.3,1.2-0.5,2.1-0.5c0.6,0,1.1,0.1,1.6,0.3c0.5,0.2,1,0.6,1.3,1.1s0.7,1.1,0.9,1.8C120.1,36.2,120.2,37.1,120.2,38.1z
		 M118.6,38.1c0-1.5-0.3-2.6-0.8-3.4c-0.5-0.8-1.2-1.1-2.2-1.1c-0.6,0-1.2,0.2-1.7,0.5s-1,0.7-1.4,1.2v5.9c0.3,0.5,0.8,0.9,1.3,1.3
		c0.5,0.3,1.2,0.5,1.9,0.5c1,0,1.7-0.4,2.2-1.2S118.6,39.7,118.6,38.1z"/>
	<path id="XMLID_313_" class="st1" d="M126.6,48.3h-1.7l1.6-4.3l-4.2-11.6h1.8l2.9,8.5l0.4,1.2l0.4-1.2l2.9-8.5h1.8L126.6,48.3z"/>
	<path id="XMLID_311_" class="st1" d="M148.2,41.1c0,0.6-0.1,1.1-0.3,1.5c-0.2,0.4-0.5,0.8-0.9,1s-0.8,0.5-1.3,0.6
		c-0.5,0.1-1,0.2-1.5,0.2c-0.8,0-1.5-0.1-2.2-0.4c-0.7-0.3-1.3-0.6-1.9-1.1l1-1.2c0.5,0.4,1,0.7,1.5,1c0.5,0.2,1.1,0.3,1.7,0.3
		c0.8,0,1.4-0.2,1.8-0.5c0.4-0.3,0.6-0.8,0.6-1.3c0-0.2,0-0.5-0.1-0.6c-0.1-0.2-0.3-0.4-0.5-0.6c-0.2-0.2-0.5-0.4-0.8-0.6
		c-0.3-0.2-0.8-0.4-1.3-0.6c-0.6-0.3-1.1-0.5-1.5-0.7c-0.4-0.2-0.8-0.5-1-0.7s-0.5-0.6-0.6-0.9s-0.2-0.7-0.2-1.2
		c0-0.4,0.1-0.9,0.3-1.2c0.2-0.4,0.4-0.7,0.8-0.9c0.3-0.3,0.7-0.5,1.1-0.6c0.4-0.1,0.9-0.2,1.5-0.2c0.8,0,1.5,0.1,2.1,0.3
		c0.6,0.2,1.2,0.5,1.6,0.9l-0.9,1.2c-0.5-0.4-0.9-0.6-1.3-0.8c-0.4-0.2-1-0.3-1.6-0.3c-0.6,0-1.1,0.1-1.4,0.4
		c-0.3,0.3-0.5,0.6-0.5,1c0,0.3,0,0.5,0.1,0.6s0.2,0.4,0.4,0.5c0.2,0.2,0.5,0.3,0.8,0.5c0.3,0.2,0.7,0.4,1.2,0.6
		c0.5,0.3,1,0.5,1.5,0.7c0.4,0.2,0.8,0.5,1.1,0.7s0.5,0.6,0.7,1C148.1,40.1,148.2,40.6,148.2,41.1z"/>
	<path id="XMLID_309_" class="st1" d="M153.5,33.9v7.6c0,0.5,0.1,0.9,0.3,1.1s0.5,0.3,0.9,0.3c0.3,0,0.6,0,0.9-0.1
		c0.2-0.1,0.5-0.1,0.8-0.3l-0.1,1.4c-0.3,0.1-0.7,0.2-1,0.3s-0.7,0.1-1.2,0.1c-0.7,0-1.3-0.2-1.7-0.6s-0.6-1.1-0.6-2.1v-7.9h-1.4
		v-1.4h1.4v-3.6l1.7-0.9v4.5h2.9v1.4H153.5z"/>
	<path id="XMLID_307_" class="st1" d="M166.9,44.1v-1.4c-0.3,0.5-0.8,0.9-1.3,1.2c-0.5,0.3-1.2,0.5-1.9,0.5c-0.6,0-1.2-0.1-1.7-0.3
		c-0.5-0.2-0.9-0.5-1.3-0.9c-0.4-0.4-0.6-0.9-0.8-1.5c-0.2-0.6-0.3-1.3-0.3-2.2v-7.1h1.7v6.9c0,1.3,0.2,2.2,0.7,2.8
		c0.5,0.6,1.1,0.9,2.1,0.9c0.8,0,1.5-0.3,2.1-0.9c0.6-0.6,0.8-1.5,0.8-2.8v-6.9h1.7v11.7H166.9z"/>
	<path id="XMLID_304_" class="st1" d="M179.4,44.1v-1.4c-0.4,0.4-0.9,0.8-1.5,1.2s-1.2,0.5-2.1,0.5c-0.6,0-1.1-0.1-1.6-0.3
		c-0.5-0.2-1-0.6-1.3-1.1c-0.4-0.5-0.7-1.1-0.9-1.8c-0.2-0.8-0.3-1.6-0.3-2.7c0-1,0.1-2,0.3-2.7s0.5-1.4,0.9-2
		c0.4-0.5,0.9-0.9,1.4-1.2c0.5-0.3,1.1-0.4,1.7-0.4c0.7,0,1.4,0.1,1.9,0.4c0.5,0.3,1,0.7,1.4,1.1v-4.9l1.7-0.9v16.3H179.4z
		 M179.4,35.4c-0.3-0.5-0.8-0.9-1.3-1.3c-0.5-0.3-1.2-0.5-1.9-0.5c-1,0-1.7,0.4-2.2,1.2s-0.7,2-0.7,3.6c0,1.5,0.3,2.6,0.8,3.4
		c0.5,0.8,1.2,1.1,2.2,1.1c0.6,0,1.2-0.2,1.7-0.5s1-0.7,1.4-1.2V35.4z"/>
	<path id="XMLID_302_" class="st1" d="M188,48.3h-1.7l1.6-4.3l-4.2-11.6h1.8l2.9,8.5l0.4,1.2l0.4-1.2l2.9-8.5h1.8L188,48.3z"/>
	<path id="XMLID_300_" class="st1" d="M209.5,34.8c-0.4-0.4-0.9-0.7-1.3-0.9s-0.9-0.3-1.5-0.3c-0.5,0-0.9,0.1-1.3,0.3
		c-0.4,0.2-0.7,0.5-1,0.9c-0.3,0.4-0.5,0.9-0.7,1.4c-0.2,0.6-0.2,1.2-0.2,1.9c0,1.4,0.3,2.6,0.9,3.5c0.6,0.9,1.4,1.3,2.4,1.3
		c0.6,0,1.1-0.1,1.5-0.3c0.4-0.2,0.8-0.5,1.2-0.9l1,1.1c-0.5,0.5-1,0.9-1.6,1.2c-0.6,0.3-1.3,0.4-2.1,0.4c-0.6,0-1.3-0.1-1.8-0.4
		c-0.6-0.2-1.1-0.6-1.6-1.1c-0.5-0.5-0.8-1.1-1.1-1.9c-0.3-0.8-0.4-1.6-0.4-2.7c0-1.1,0.1-2,0.4-2.8c0.3-0.8,0.7-1.4,1.2-1.9
		s1-0.9,1.6-1.1s1.2-0.4,1.8-0.4c0.8,0,1.5,0.1,2.1,0.4c0.6,0.3,1.1,0.6,1.6,1L209.5,34.8z"/>
	<path id="XMLID_297_" class="st1" d="M220.1,44.1v-1.4c-0.4,0.4-0.9,0.8-1.5,1.2c-0.6,0.3-1.3,0.5-2.2,0.5c-0.5,0-0.9-0.1-1.4-0.2
		c-0.4-0.1-0.8-0.3-1.2-0.6c-0.4-0.3-0.6-0.7-0.9-1.1c-0.2-0.5-0.3-1.1-0.3-1.8c0-0.7,0.1-1.2,0.4-1.7s0.6-0.9,1-1.2
		c0.4-0.3,0.9-0.5,1.4-0.7c0.5-0.1,1.1-0.2,1.7-0.2c0.6,0,1.1,0.1,1.6,0.2c0.5,0.1,0.9,0.3,1.3,0.5v-1.4c0-1.7-0.8-2.6-2.5-2.6
		c-0.6,0-1.2,0.1-1.7,0.2c-0.5,0.2-1,0.4-1.5,0.7l-0.6-1.4c0.5-0.3,1.1-0.5,1.8-0.7s1.4-0.3,2.1-0.3c1.3,0,2.3,0.3,3,0.9
		c0.7,0.6,1.1,1.6,1.1,2.9v8.2H220.1z M220.1,38.9c-0.4-0.2-0.8-0.4-1.3-0.5c-0.5-0.1-1-0.2-1.7-0.2c-0.9,0-1.5,0.2-2,0.6
		c-0.5,0.4-0.7,1-0.7,1.7c0,0.9,0.2,1.5,0.7,1.9c0.4,0.4,1,0.6,1.7,0.6c0.8,0,1.4-0.2,2-0.5c0.6-0.3,1-0.8,1.4-1.2V38.9z"/>
	<path id="XMLID_295_" class="st1" d="M231.4,34.2c-0.2-0.1-0.5-0.2-0.8-0.3c-0.3-0.1-0.6-0.1-1-0.1c-0.8,0-1.4,0.3-1.9,0.9
		s-0.7,1.5-0.7,2.6v6.9h-1.7V32.4h1.7v1.4c0.3-0.5,0.7-0.9,1.2-1.2c0.5-0.3,1.1-0.5,1.7-0.5c0.4,0,0.8,0,1.1,0.1
		c0.3,0.1,0.5,0.1,0.7,0.2L231.4,34.2z"/>
	<path id="XMLID_293_" class="st1" d="M240.5,34.2c-0.2-0.1-0.5-0.2-0.8-0.3c-0.3-0.1-0.6-0.1-1-0.1c-0.8,0-1.4,0.3-1.9,0.9
		s-0.7,1.5-0.7,2.6v6.9h-1.7V32.4h1.7v1.4c0.3-0.5,0.7-0.9,1.2-1.2c0.5-0.3,1.1-0.5,1.7-0.5c0.4,0,0.8,0,1.1,0.1
		c0.3,0.1,0.5,0.1,0.7,0.2L240.5,34.2z"/>
	<path id="XMLID_290_" class="st1" d="M245.7,29.2c0,0.3-0.1,0.6-0.3,0.8s-0.5,0.3-0.8,0.3c-0.3,0-0.6-0.1-0.9-0.3
		c-0.2-0.2-0.4-0.5-0.4-0.8c0-0.3,0.1-0.6,0.4-0.9c0.2-0.2,0.5-0.3,0.9-0.3c0.3,0,0.6,0.1,0.8,0.3S245.7,28.8,245.7,29.2z
		 M243.7,44.1V32.4h1.7v11.7H243.7z"/>
	<path id="XMLID_287_" class="st1" d="M258,37.9c0,0.2,0,0.4,0,0.5s0,0.3-0.1,0.4h-7.8c0.1,1.3,0.4,2.3,1,3c0.6,0.7,1.3,1.1,2.3,1.1
		c0.7,0,1.3-0.1,1.7-0.3c0.5-0.2,1-0.5,1.5-0.8l0.8,1.2c-0.4,0.2-0.7,0.4-1,0.6c-0.3,0.2-0.6,0.3-1,0.4c-0.3,0.1-0.7,0.2-1,0.3
		c-0.4,0.1-0.8,0.1-1.2,0.1c-0.5,0-1.1-0.1-1.6-0.3s-1.1-0.6-1.5-1c-0.5-0.5-0.8-1.1-1.1-1.9s-0.5-1.8-0.5-2.9
		c0-0.9,0.1-1.8,0.4-2.5s0.6-1.4,1-1.9c0.4-0.5,0.9-0.9,1.5-1.2s1.2-0.4,1.9-0.4c0.8,0,1.4,0.1,2,0.4s1.1,0.7,1.5,1.2
		s0.7,1.1,0.9,1.8C257.9,36.3,258,37.1,258,37.9z M256.5,37.5c-0.1-1.2-0.4-2.1-0.9-2.8c-0.5-0.7-1.3-1.1-2.3-1.1
		c-0.9,0-1.6,0.3-2.1,1c-0.6,0.6-0.9,1.6-1,2.9H256.5z"/>
	<path id="XMLID_284_" class="st1" d="M268.3,44.1v-1.4c-0.4,0.4-0.9,0.8-1.5,1.2s-1.2,0.5-2.1,0.5c-0.6,0-1.1-0.1-1.6-0.3
		c-0.5-0.2-1-0.6-1.3-1.1c-0.4-0.5-0.7-1.1-0.9-1.8c-0.2-0.8-0.3-1.6-0.3-2.7c0-1,0.1-2,0.3-2.7s0.5-1.4,0.9-2
		c0.4-0.5,0.9-0.9,1.4-1.2c0.5-0.3,1.1-0.4,1.7-0.4c0.7,0,1.4,0.1,1.9,0.4c0.5,0.3,1,0.7,1.4,1.1v-4.9l1.7-0.9v16.3H268.3z
		 M268.3,35.4c-0.3-0.5-0.8-0.9-1.3-1.3c-0.5-0.3-1.2-0.5-1.9-0.5c-1,0-1.7,0.4-2.2,1.2s-0.7,2-0.7,3.6c0,1.5,0.3,2.6,0.8,3.4
		c0.5,0.8,1.2,1.1,2.2,1.1c0.6,0,1.2-0.2,1.7-0.5s1-0.7,1.4-1.2V35.4z"/>
	<path id="XMLID_281_" class="st1" d="M289,38.2c0,1-0.1,1.9-0.4,2.6c-0.3,0.8-0.6,1.4-1.1,1.9c-0.5,0.5-1,0.9-1.6,1.2
		c-0.6,0.3-1.3,0.4-2,0.4s-1.4-0.1-2-0.4s-1.2-0.6-1.6-1.2c-0.4-0.5-0.8-1.1-1.1-1.9c-0.3-0.8-0.4-1.6-0.4-2.6s0.1-1.9,0.4-2.6
		c0.3-0.8,0.6-1.4,1.1-1.9s1-0.9,1.6-1.2c0.6-0.3,1.3-0.4,2-0.4s1.4,0.1,2,0.4c0.6,0.3,1.2,0.6,1.6,1.1c0.4,0.5,0.8,1.1,1.1,1.9
		S289,37.2,289,38.2z M287.3,38.2c0-1.6-0.3-2.7-0.9-3.5s-1.4-1.2-2.5-1.2s-1.8,0.4-2.5,1.2c-0.6,0.8-0.9,1.9-0.9,3.5
		s0.3,2.7,0.9,3.5c0.6,0.8,1.4,1.2,2.5,1.2s1.9-0.4,2.5-1.2C287,41,287.3,39.8,287.3,38.2z"/>
	<path id="XMLID_279_" class="st1" d="M299.4,44.1v-6.9c0-1.3-0.2-2.2-0.7-2.8s-1.1-0.9-2.1-0.9c-0.8,0-1.5,0.3-2.1,0.9
		c-0.6,0.6-0.8,1.5-0.8,2.8v6.9h-1.7V32.4h1.7l0,1.4c0.3-0.5,0.8-0.9,1.3-1.2s1.2-0.5,1.9-0.5c0.6,0,1.2,0.1,1.7,0.3
		c0.5,0.2,0.9,0.5,1.3,0.9s0.6,0.9,0.8,1.5c0.2,0.6,0.3,1.3,0.3,2.2v7.1H299.4z"/>
	<path id="XMLID_277_" class="st1" d="M317.3,32.9c-0.6,1-1.2,2.1-1.6,3.2c-0.5,1.2-0.8,2.4-1.1,3.7c-0.3,1.3-0.5,2.8-0.5,4.3h-1.8
		c0-1.4,0.2-2.7,0.5-4c0.3-1.3,0.6-2.5,1.1-3.7c0.4-1.2,1-2.3,1.6-3.3c0.6-1,1.3-2,2-3H309v-1.6h10.3v1.6
		C318.6,31,317.9,31.9,317.3,32.9z"/>
	<path id="XMLID_274_" class="st1" d="M333.4,34.4c0,0.7-0.1,1.4-0.2,2.1c-0.1,0.7-0.3,1.5-0.6,2.2c-0.3,0.7-0.7,1.4-1.1,2.1
		c-0.5,0.6-1,1.2-1.7,1.7s-1.4,0.9-2.3,1.3c-0.9,0.3-1.9,0.5-3,0.6v-1.5c2.1-0.2,3.7-0.8,4.9-1.9c1.2-1.1,2-2.6,2.4-4.6
		c-0.5,0.5-1.1,1-1.8,1.3c-0.7,0.3-1.6,0.5-2.7,0.5c-0.7,0-1.4-0.1-2-0.3c-0.6-0.2-1.2-0.5-1.6-0.9c-0.5-0.4-0.8-0.9-1.1-1.5
		c-0.3-0.6-0.4-1.3-0.4-2.1c0-0.8,0.1-1.6,0.4-2.2s0.7-1.2,1.2-1.6c0.5-0.4,1.1-0.7,1.8-1c0.7-0.2,1.5-0.3,2.3-0.3
		c0.8,0,1.5,0.1,2.2,0.3c0.7,0.2,1.3,0.6,1.8,1.1c0.5,0.5,0.9,1.1,1.2,1.9C333.2,32.4,333.4,33.3,333.4,34.4z M331.7,33.3
		c0-0.5-0.1-0.9-0.3-1.4c-0.2-0.4-0.5-0.8-0.8-1.1c-0.3-0.3-0.8-0.5-1.2-0.7s-1-0.3-1.6-0.3c-1.3,0-2.3,0.3-3,0.9s-1,1.4-1,2.4
		c0,1,0.3,1.9,1,2.4c0.7,0.6,1.6,0.9,2.9,0.9c1.3,0,2.2-0.3,3-0.9C331.3,35,331.7,34.2,331.7,33.3z"/>
	<path id="XMLID_272_" class="st1" d="M349.6,41.1c0,0.6-0.1,1.1-0.3,1.5c-0.2,0.4-0.5,0.8-0.9,1s-0.8,0.5-1.3,0.6
		c-0.5,0.1-1,0.2-1.5,0.2c-0.8,0-1.5-0.1-2.2-0.4c-0.7-0.3-1.3-0.6-1.9-1.1l1-1.2c0.5,0.4,1,0.7,1.5,1c0.5,0.2,1.1,0.3,1.7,0.3
		c0.8,0,1.4-0.2,1.8-0.5c0.4-0.3,0.6-0.8,0.6-1.3c0-0.2,0-0.5-0.1-0.6c-0.1-0.2-0.3-0.4-0.5-0.6c-0.2-0.2-0.5-0.4-0.8-0.6
		c-0.3-0.2-0.8-0.4-1.3-0.6c-0.6-0.3-1.1-0.5-1.5-0.7c-0.4-0.2-0.8-0.5-1-0.7s-0.5-0.6-0.6-0.9s-0.2-0.7-0.2-1.2
		c0-0.4,0.1-0.9,0.3-1.2c0.2-0.4,0.4-0.7,0.8-0.9c0.3-0.3,0.7-0.5,1.1-0.6c0.4-0.1,0.9-0.2,1.5-0.2c0.8,0,1.5,0.1,2.1,0.3
		c0.6,0.2,1.2,0.5,1.6,0.9l-0.9,1.2c-0.5-0.4-0.9-0.6-1.3-0.8c-0.4-0.2-1-0.3-1.6-0.3c-0.6,0-1.1,0.1-1.4,0.4
		c-0.3,0.3-0.5,0.6-0.5,1c0,0.3,0,0.5,0.1,0.6s0.2,0.4,0.4,0.5c0.2,0.2,0.5,0.3,0.8,0.5c0.3,0.2,0.7,0.4,1.2,0.6
		c0.5,0.3,1,0.5,1.5,0.7c0.4,0.2,0.8,0.5,1.1,0.7s0.5,0.6,0.7,1C349.5,40.1,349.6,40.6,349.6,41.1z"/>
	<path id="XMLID_270_" class="st1" d="M360.1,44.1v-1.4c-0.3,0.5-0.8,0.9-1.3,1.2c-0.5,0.3-1.2,0.5-1.9,0.5c-0.6,0-1.2-0.1-1.7-0.3
		c-0.5-0.2-0.9-0.5-1.3-0.9c-0.4-0.4-0.6-0.9-0.8-1.5c-0.2-0.6-0.3-1.3-0.3-2.2v-7.1h1.7v6.9c0,1.3,0.2,2.2,0.7,2.8
		c0.5,0.6,1.1,0.9,2.1,0.9c0.8,0,1.5-0.3,2.1-0.9c0.6-0.6,0.8-1.5,0.8-2.8v-6.9h1.7v11.7H360.1z"/>
	<path id="XMLID_267_" class="st1" d="M374.8,38.1c0,1-0.1,2-0.3,2.7s-0.5,1.4-0.9,2c-0.4,0.5-0.9,0.9-1.4,1.2
		c-0.5,0.3-1.1,0.4-1.7,0.4c-0.7,0-1.4-0.1-1.9-0.4s-1-0.7-1.4-1.1v1.3h-1.7V28.8l1.7-0.9l0,6c0.4-0.4,0.9-0.8,1.5-1.2
		c0.6-0.3,1.2-0.5,2.1-0.5c0.6,0,1.1,0.1,1.6,0.3c0.5,0.2,1,0.6,1.3,1.1s0.7,1.1,0.9,1.8C374.7,36.2,374.8,37.1,374.8,38.1z
		 M373.2,38.1c0-1.5-0.3-2.6-0.8-3.4c-0.5-0.8-1.2-1.1-2.2-1.1c-0.6,0-1.2,0.2-1.7,0.5s-1,0.7-1.4,1.2v5.9c0.3,0.5,0.8,0.9,1.3,1.3
		c0.5,0.3,1.2,0.5,1.9,0.5c1,0,1.7-0.4,2.2-1.2S373.2,39.7,373.2,38.1z"/>
	<path id="XMLID_264_" class="st1" d="M379.7,43.9c0,0.7,0,1.2-0.1,1.7c-0.1,0.5-0.3,0.9-0.5,1.3c-0.3,0.4-0.6,0.7-1.1,0.9
		c-0.5,0.3-1,0.5-1.8,0.6l-0.6-1.2c0.5-0.2,1-0.3,1.3-0.5c0.3-0.2,0.5-0.4,0.7-0.6c0.2-0.2,0.3-0.5,0.3-0.9c0-0.4,0.1-0.8,0.1-1.3
		V32.4h1.7V43.9z M380,29.2c0,0.3-0.1,0.6-0.3,0.8s-0.5,0.3-0.8,0.3c-0.3,0-0.6-0.1-0.9-0.3c-0.2-0.2-0.4-0.5-0.4-0.8
		c0-0.3,0.1-0.6,0.4-0.9c0.2-0.2,0.5-0.3,0.9-0.3c0.3,0,0.6,0.1,0.8,0.3S380,28.8,380,29.2z"/>
	<path id="XMLID_261_" class="st1" d="M392.4,37.9c0,0.2,0,0.4,0,0.5s0,0.3-0.1,0.4h-7.8c0.1,1.3,0.4,2.3,1,3
		c0.6,0.7,1.3,1.1,2.3,1.1c0.7,0,1.3-0.1,1.7-0.3c0.5-0.2,1-0.5,1.5-0.8l0.8,1.2c-0.4,0.2-0.7,0.4-1,0.6c-0.3,0.2-0.6,0.3-1,0.4
		c-0.3,0.1-0.7,0.2-1,0.3c-0.4,0.1-0.8,0.1-1.2,0.1c-0.5,0-1.1-0.1-1.6-0.3s-1.1-0.6-1.5-1c-0.5-0.5-0.8-1.1-1.1-1.9
		s-0.5-1.8-0.5-2.9c0-0.9,0.1-1.8,0.4-2.5s0.6-1.4,1-1.9c0.4-0.5,0.9-0.9,1.5-1.2s1.2-0.4,1.9-0.4c0.8,0,1.4,0.1,2,0.4
		s1.1,0.7,1.5,1.2s0.7,1.1,0.9,1.8C392.3,36.3,392.4,37.1,392.4,37.9z M390.8,37.5c-0.1-1.2-0.4-2.1-0.9-2.8
		c-0.5-0.7-1.3-1.1-2.3-1.1c-0.9,0-1.6,0.3-2.1,1c-0.6,0.6-0.9,1.6-1,2.9H390.8z"/>
	<path id="XMLID_259_" class="st1" d="M402.6,34.8c-0.4-0.4-0.9-0.7-1.3-0.9s-0.9-0.3-1.5-0.3c-0.5,0-0.9,0.1-1.3,0.3
		c-0.4,0.2-0.7,0.5-1,0.9c-0.3,0.4-0.5,0.9-0.7,1.4c-0.2,0.6-0.2,1.2-0.2,1.9c0,1.4,0.3,2.6,0.9,3.5c0.6,0.9,1.4,1.3,2.4,1.3
		c0.6,0,1.1-0.1,1.5-0.3c0.4-0.2,0.8-0.5,1.2-0.9l1,1.1c-0.5,0.5-1,0.9-1.6,1.2c-0.6,0.3-1.3,0.4-2.1,0.4c-0.6,0-1.3-0.1-1.8-0.4
		c-0.6-0.2-1.1-0.6-1.6-1.1c-0.5-0.5-0.8-1.1-1.1-1.9c-0.3-0.8-0.4-1.6-0.4-2.7c0-1.1,0.1-2,0.4-2.8c0.3-0.8,0.7-1.4,1.2-1.9
		s1-0.9,1.6-1.1s1.2-0.4,1.8-0.4c0.8,0,1.5,0.1,2.1,0.4c0.6,0.3,1.1,0.6,1.6,1L402.6,34.8z"/>
	<path id="XMLID_257_" class="st1" d="M408.7,33.9v7.6c0,0.5,0.1,0.9,0.3,1.1s0.5,0.3,0.9,0.3c0.3,0,0.6,0,0.9-0.1
		c0.2-0.1,0.5-0.1,0.8-0.3l-0.1,1.4c-0.3,0.1-0.7,0.2-1,0.3s-0.7,0.1-1.2,0.1c-0.7,0-1.3-0.2-1.7-0.6s-0.6-1.1-0.6-2.1v-7.9h-1.4
		v-1.4h1.4v-3.6l1.7-0.9v4.5h2.9v1.4H408.7z"/>
	<path id="XMLID_255_" class="st1" d="M422.1,41.1c0,0.6-0.1,1.1-0.3,1.5c-0.2,0.4-0.5,0.8-0.9,1s-0.8,0.5-1.3,0.6
		c-0.5,0.1-1,0.2-1.5,0.2c-0.8,0-1.5-0.1-2.2-0.4c-0.7-0.3-1.3-0.6-1.9-1.1l1-1.2c0.5,0.4,1,0.7,1.5,1c0.5,0.2,1.1,0.3,1.7,0.3
		c0.8,0,1.4-0.2,1.8-0.5c0.4-0.3,0.6-0.8,0.6-1.3c0-0.2,0-0.5-0.1-0.6c-0.1-0.2-0.3-0.4-0.5-0.6c-0.2-0.2-0.5-0.4-0.8-0.6
		c-0.3-0.2-0.8-0.4-1.3-0.6c-0.6-0.3-1.1-0.5-1.5-0.7c-0.4-0.2-0.8-0.5-1-0.7s-0.5-0.6-0.6-0.9s-0.2-0.7-0.2-1.2
		c0-0.4,0.1-0.9,0.3-1.2c0.2-0.4,0.4-0.7,0.8-0.9c0.3-0.3,0.7-0.5,1.1-0.6c0.4-0.1,0.9-0.2,1.5-0.2c0.8,0,1.5,0.1,2.1,0.3
		c0.6,0.2,1.2,0.5,1.6,0.9l-0.9,1.2c-0.5-0.4-0.9-0.6-1.3-0.8c-0.4-0.2-1-0.3-1.6-0.3c-0.6,0-1.1,0.1-1.4,0.4
		c-0.3,0.3-0.5,0.6-0.5,1c0,0.3,0,0.5,0.1,0.6s0.2,0.4,0.4,0.5c0.2,0.2,0.5,0.3,0.8,0.5c0.3,0.2,0.7,0.4,1.2,0.6
		c0.5,0.3,1,0.5,1.5,0.7c0.4,0.2,0.8,0.5,1.1,0.7s0.5,0.6,0.7,1C422,40.1,422.1,40.6,422.1,41.1z"/>
	<path id="XMLID_252_" class="st1" d="M440.6,38.2c0,1-0.1,1.9-0.4,2.6c-0.3,0.8-0.6,1.4-1.1,1.9c-0.5,0.5-1,0.9-1.6,1.2
		c-0.6,0.3-1.3,0.4-2,0.4s-1.4-0.1-2-0.4s-1.2-0.6-1.6-1.2c-0.4-0.5-0.8-1.1-1.1-1.9c-0.3-0.8-0.4-1.6-0.4-2.6s0.1-1.9,0.4-2.6
		c0.3-0.8,0.6-1.4,1.1-1.9s1-0.9,1.6-1.2c0.6-0.3,1.3-0.4,2-0.4s1.4,0.1,2,0.4c0.6,0.3,1.2,0.6,1.6,1.1c0.4,0.5,0.8,1.1,1.1,1.9
		S440.6,37.2,440.6,38.2z M438.9,38.2c0-1.6-0.3-2.7-0.9-3.5s-1.4-1.2-2.5-1.2s-1.8,0.4-2.5,1.2c-0.6,0.8-0.9,1.9-0.9,3.5
		s0.3,2.7,0.9,3.5c0.6,0.8,1.4,1.2,2.5,1.2s1.9-0.4,2.5-1.2C438.6,41,438.9,39.8,438.9,38.2z"/>
	<path id="XMLID_250_" class="st1" d="M447.4,29.5c-0.3,0-0.6,0.1-0.9,0.2s-0.3,0.5-0.3,1v1.7h2.3v1.4h-2.3v10.3h-1.7V33.9h-1.6
		v-1.4h1.6v-1.6c0-1,0.3-1.8,0.8-2.2c0.5-0.4,1.2-0.7,2-0.7c0.3,0,0.6,0,0.8,0c0.2,0,0.4,0.1,0.6,0.2v1.6
		C448.3,29.6,447.9,29.5,447.4,29.5z"/>
	<path id="XMLID_247_" class="st1" d="M464.1,44.1v-1.4c-0.4,0.4-0.9,0.8-1.5,1.2c-0.6,0.3-1.3,0.5-2.2,0.5c-0.5,0-0.9-0.1-1.4-0.2
		c-0.4-0.1-0.8-0.3-1.2-0.6c-0.4-0.3-0.6-0.7-0.9-1.1c-0.2-0.5-0.3-1.1-0.3-1.8c0-0.7,0.1-1.2,0.4-1.7s0.6-0.9,1-1.2
		c0.4-0.3,0.9-0.5,1.4-0.7c0.5-0.1,1.1-0.2,1.7-0.2c0.6,0,1.1,0.1,1.6,0.2c0.5,0.1,0.9,0.3,1.3,0.5v-1.4c0-1.7-0.8-2.6-2.5-2.6
		c-0.6,0-1.2,0.1-1.7,0.2c-0.5,0.2-1,0.4-1.5,0.7l-0.6-1.4c0.5-0.3,1.1-0.5,1.8-0.7s1.4-0.3,2.1-0.3c1.3,0,2.3,0.3,3,0.9
		c0.7,0.6,1.1,1.6,1.1,2.9v8.2H464.1z M464.1,38.9c-0.4-0.2-0.8-0.4-1.3-0.5c-0.5-0.1-1-0.2-1.7-0.2c-0.9,0-1.5,0.2-2,0.6
		c-0.5,0.4-0.7,1-0.7,1.7c0,0.9,0.2,1.5,0.7,1.9c0.4,0.4,1,0.6,1.7,0.6c0.8,0,1.4-0.2,2-0.5c0.6-0.3,1-0.8,1.4-1.2V38.9z"/>
	<path id="XMLID_244_" class="st1" d="M478.2,43.1c0,0.9-0.1,1.6-0.3,2.3c-0.2,0.7-0.5,1.2-1,1.6c-0.5,0.4-1.1,0.8-1.8,1
		s-1.7,0.4-2.8,0.4l-0.5-1.3c1,0,1.8-0.1,2.4-0.3c0.6-0.1,1.1-0.4,1.5-0.7c0.4-0.3,0.6-0.7,0.7-1.2c0.1-0.5,0.2-1.1,0.2-1.7v-0.6
		c-0.4,0.4-0.9,0.8-1.5,1.2s-1.2,0.5-2.1,0.5c-0.6,0-1.1-0.1-1.6-0.3c-0.5-0.2-1-0.6-1.3-1.1c-0.4-0.5-0.7-1.1-0.9-1.8
		c-0.2-0.8-0.3-1.6-0.3-2.7c0-1,0.1-2,0.3-2.7s0.5-1.4,0.9-2c0.4-0.5,0.9-0.9,1.4-1.2c0.5-0.3,1.1-0.4,1.7-0.4
		c0.7,0,1.4,0.1,1.9,0.4c0.5,0.3,1,0.7,1.4,1.1v-1.3h1.7V43.1z M476.5,35.4c-0.3-0.5-0.8-0.9-1.3-1.3c-0.5-0.3-1.2-0.5-1.9-0.5
		c-1,0-1.7,0.4-2.2,1.2s-0.7,2-0.7,3.6c0,1.5,0.3,2.6,0.8,3.4c0.5,0.8,1.2,1.1,2.2,1.1c0.6,0,1.2-0.2,1.7-0.5s1-0.7,1.4-1.2V35.4z"
		/>
	<path id="XMLID_241_" class="st1" d="M490.8,37.9c0,0.2,0,0.4,0,0.5s0,0.3-0.1,0.4h-7.8c0.1,1.3,0.4,2.3,1,3
		c0.6,0.7,1.3,1.1,2.3,1.1c0.7,0,1.3-0.1,1.7-0.3c0.5-0.2,1-0.5,1.5-0.8l0.8,1.2c-0.4,0.2-0.7,0.4-1,0.6c-0.3,0.2-0.6,0.3-1,0.4
		c-0.3,0.1-0.7,0.2-1,0.3c-0.4,0.1-0.8,0.1-1.2,0.1c-0.5,0-1.1-0.1-1.6-0.3s-1.1-0.6-1.5-1c-0.5-0.5-0.8-1.1-1.1-1.9
		s-0.5-1.8-0.5-2.9c0-0.9,0.1-1.8,0.4-2.5s0.6-1.4,1-1.9c0.4-0.5,0.9-0.9,1.5-1.2s1.2-0.4,1.9-0.4c0.8,0,1.4,0.1,2,0.4
		s1.1,0.7,1.5,1.2s0.7,1.1,0.9,1.8C490.7,36.3,490.8,37.1,490.8,37.9z M489.2,37.5c-0.1-1.2-0.4-2.1-0.9-2.8
		c-0.5-0.7-1.3-1.1-2.3-1.1c-0.9,0-1.6,0.3-2.1,1c-0.6,0.6-0.9,1.6-1,2.9H489.2z"/>
	<path id="XMLID_238_" class="st1" d="M509.1,38.1c0,1-0.1,2-0.3,2.7s-0.5,1.4-0.9,2c-0.4,0.5-0.9,0.9-1.4,1.2
		c-0.5,0.3-1.1,0.4-1.7,0.4c-0.7,0-1.4-0.1-1.9-0.4s-1-0.7-1.4-1.1v1.3h-1.7V28.8l1.7-0.9l0,6c0.4-0.4,0.9-0.8,1.5-1.2
		c0.6-0.3,1.2-0.5,2.1-0.5c0.6,0,1.1,0.1,1.6,0.3c0.5,0.2,1,0.6,1.3,1.1s0.7,1.1,0.9,1.8C509,36.2,509.1,37.1,509.1,38.1z
		 M507.4,38.1c0-1.5-0.3-2.6-0.8-3.4c-0.5-0.8-1.2-1.1-2.2-1.1c-0.6,0-1.2,0.2-1.7,0.5s-1,0.7-1.4,1.2v5.9c0.3,0.5,0.8,0.9,1.3,1.3
		c0.5,0.3,1.2,0.5,1.9,0.5c1,0,1.7-0.4,2.2-1.2S507.4,39.7,507.4,38.1z"/>
	<path id="XMLID_235_" class="st1" d="M521.1,37.9c0,0.2,0,0.4,0,0.5s0,0.3-0.1,0.4h-7.8c0.1,1.3,0.4,2.3,1,3
		c0.6,0.7,1.3,1.1,2.3,1.1c0.7,0,1.3-0.1,1.7-0.3c0.5-0.2,1-0.5,1.5-0.8l0.8,1.2c-0.4,0.2-0.7,0.4-1,0.6c-0.3,0.2-0.6,0.3-1,0.4
		c-0.3,0.1-0.7,0.2-1,0.3c-0.4,0.1-0.8,0.1-1.2,0.1c-0.5,0-1.1-0.1-1.6-0.3s-1.1-0.6-1.5-1c-0.5-0.5-0.8-1.1-1.1-1.9
		s-0.5-1.8-0.5-2.9c0-0.9,0.1-1.8,0.4-2.5s0.6-1.4,1-1.9c0.4-0.5,0.9-0.9,1.5-1.2s1.2-0.4,1.9-0.4c0.8,0,1.4,0.1,2,0.4
		s1.1,0.7,1.5,1.2s0.7,1.1,0.9,1.8C521,36.3,521.1,37.1,521.1,37.9z M519.5,37.5c-0.1-1.2-0.4-2.1-0.9-2.8c-0.5-0.7-1.3-1.1-2.3-1.1
		c-0.9,0-1.6,0.3-2.1,1c-0.6,0.6-0.9,1.6-1,2.9H519.5z"/>
	<path id="XMLID_233_" class="st1" d="M526.4,33.9v7.6c0,0.5,0.1,0.9,0.3,1.1s0.5,0.3,0.9,0.3c0.3,0,0.6,0,0.9-0.1
		c0.2-0.1,0.5-0.1,0.8-0.3l-0.1,1.4c-0.3,0.1-0.7,0.2-1,0.3s-0.7,0.1-1.2,0.1c-0.7,0-1.3-0.2-1.7-0.6s-0.6-1.1-0.6-2.1v-7.9h-1.4
		v-1.4h1.4v-3.6l1.7-0.9v4.5h2.9v1.4H526.4z"/>
	<path id="XMLID_231_" class="st1" d="M542.8,44.1h-1.5l-2.1-7.8c0-0.1-0.1-0.2-0.1-0.4c0-0.1-0.1-0.3-0.1-0.4
		c0-0.2-0.1-0.3-0.1-0.5c0-0.1-0.1-0.3-0.1-0.4c0,0.1,0,0.2-0.1,0.4c0,0.1-0.1,0.3-0.1,0.5c0,0.2-0.1,0.3-0.1,0.4
		c0,0.1-0.1,0.3-0.1,0.4l-2.1,7.8h-1.5l-3.1-11.7h1.7l1.8,7.7c0,0.1,0,0.2,0.1,0.4c0,0.1,0.1,0.3,0.1,0.4c0,0.2,0.1,0.3,0.1,0.5
		s0,0.3,0.1,0.4c0-0.1,0-0.2,0.1-0.4c0-0.1,0.1-0.3,0.1-0.5c0-0.2,0.1-0.3,0.1-0.4s0.1-0.3,0.1-0.4l2.1-7.7h1.5l2.1,7.7
		c0,0.1,0.1,0.2,0.1,0.4s0.1,0.3,0.1,0.4c0,0.2,0.1,0.3,0.1,0.5c0,0.1,0.1,0.3,0.1,0.4c0-0.1,0-0.2,0.1-0.4c0-0.1,0.1-0.3,0.1-0.5
		s0.1-0.3,0.1-0.4s0-0.3,0.1-0.4l1.8-7.7h1.7L542.8,44.1z"/>
	<path id="XMLID_228_" class="st1" d="M557.7,37.9c0,0.2,0,0.4,0,0.5s0,0.3-0.1,0.4h-7.8c0.1,1.3,0.4,2.3,1,3
		c0.6,0.7,1.3,1.1,2.3,1.1c0.7,0,1.3-0.1,1.7-0.3c0.5-0.2,1-0.5,1.5-0.8l0.8,1.2c-0.4,0.2-0.7,0.4-1,0.6c-0.3,0.2-0.6,0.3-1,0.4
		c-0.3,0.1-0.7,0.2-1,0.3c-0.4,0.1-0.8,0.1-1.2,0.1c-0.5,0-1.1-0.1-1.6-0.3s-1.1-0.6-1.5-1c-0.5-0.5-0.8-1.1-1.1-1.9
		s-0.5-1.8-0.5-2.9c0-0.9,0.1-1.8,0.4-2.5s0.6-1.4,1-1.9c0.4-0.5,0.9-0.9,1.5-1.2s1.2-0.4,1.9-0.4c0.8,0,1.4,0.1,2,0.4
		s1.1,0.7,1.5,1.2s0.7,1.1,0.9,1.8C557.6,36.3,557.7,37.1,557.7,37.9z M556.1,37.5c-0.1-1.2-0.4-2.1-0.9-2.8
		c-0.5-0.7-1.3-1.1-2.3-1.1c-0.9,0-1.6,0.3-2.1,1c-0.6,0.6-0.9,1.6-1,2.9H556.1z"/>
	<path id="XMLID_225_" class="st1" d="M569.7,37.9c0,0.2,0,0.4,0,0.5s0,0.3-0.1,0.4h-7.8c0.1,1.3,0.4,2.3,1,3
		c0.6,0.7,1.3,1.1,2.3,1.1c0.7,0,1.3-0.1,1.7-0.3c0.5-0.2,1-0.5,1.5-0.8l0.8,1.2c-0.4,0.2-0.7,0.4-1,0.6c-0.3,0.2-0.6,0.3-1,0.4
		c-0.3,0.1-0.7,0.2-1,0.3c-0.4,0.1-0.8,0.1-1.2,0.1c-0.5,0-1.1-0.1-1.6-0.3s-1.1-0.6-1.5-1c-0.5-0.5-0.8-1.1-1.1-1.9
		s-0.5-1.8-0.5-2.9c0-0.9,0.1-1.8,0.4-2.5s0.6-1.4,1-1.9c0.4-0.5,0.9-0.9,1.5-1.2s1.2-0.4,1.9-0.4c0.8,0,1.4,0.1,2,0.4
		s1.1,0.7,1.5,1.2s0.7,1.1,0.9,1.8C569.6,36.3,569.7,37.1,569.7,37.9z M568.2,37.5c-0.1-1.2-0.4-2.1-0.9-2.8
		c-0.5-0.7-1.3-1.1-2.3-1.1c-0.9,0-1.6,0.3-2.1,1c-0.6,0.6-0.9,1.6-1,2.9H568.2z"/>
	<path id="XMLID_223_" class="st1" d="M580.2,44.1v-6.9c0-1.3-0.2-2.2-0.7-2.8s-1.1-0.9-2.1-0.9c-0.8,0-1.5,0.3-2.1,0.9
		c-0.6,0.6-0.8,1.5-0.8,2.8v6.9h-1.7V32.4h1.7l0,1.4c0.3-0.5,0.8-0.9,1.3-1.2s1.2-0.5,1.9-0.5c0.6,0,1.2,0.1,1.7,0.3
		c0.5,0.2,0.9,0.5,1.3,0.9s0.6,0.9,0.8,1.5c0.2,0.6,0.3,1.3,0.3,2.2v7.1H580.2z"/>
	<path id="XMLID_221_" class="st1" d="M592.6,44.1V31.6h-2.8v-1.1c0.9-0.1,1.6-0.2,2.2-0.5s0.9-0.8,1.1-1.5h1.3v15.6H592.6z"/>
	<path id="XMLID_217_" class="st1" d="M609.3,39.8c0,0.8-0.1,1.4-0.4,2c-0.3,0.6-0.7,1.1-1.2,1.5c-0.5,0.4-1.1,0.7-1.8,0.9
		c-0.7,0.2-1.5,0.3-2.4,0.3s-1.7-0.1-2.4-0.3s-1.3-0.5-1.8-0.9c-0.5-0.4-0.9-0.9-1.2-1.4s-0.4-1.2-0.4-2c0-1,0.3-1.9,0.8-2.5
		c0.5-0.7,1.3-1.2,2.3-1.5c-0.7-0.3-1.3-0.7-1.7-1.2c-0.5-0.5-0.7-1.2-0.7-2.1c0-0.6,0.1-1.2,0.3-1.7c0.2-0.5,0.6-1,1-1.3
		c0.4-0.4,1-0.7,1.6-0.9c0.6-0.2,1.4-0.3,2.2-0.3c0.8,0,1.6,0.1,2.2,0.3c0.6,0.2,1.2,0.5,1.6,0.9c0.4,0.4,0.8,0.8,1,1.3
		c0.2,0.5,0.3,1.1,0.3,1.7c0,0.8-0.2,1.5-0.7,2s-1,0.9-1.8,1.2c1,0.3,1.7,0.8,2.3,1.5C609,37.9,609.3,38.7,609.3,39.8z M607.5,39.8
		c0-0.9-0.4-1.7-1.1-2.3c-0.7-0.6-1.7-0.9-3-0.9s-2.3,0.3-3,0.9c-0.7,0.6-1,1.3-1,2.2s0.3,1.7,1,2.2c0.7,0.6,1.7,0.8,3.1,0.8
		s2.4-0.3,3.1-0.8C607.2,41.4,607.5,40.7,607.5,39.8z M606.9,32.5c0-0.3-0.1-0.6-0.2-1c-0.1-0.3-0.3-0.6-0.6-0.8
		c-0.3-0.2-0.6-0.4-1.1-0.6c-0.4-0.1-1-0.2-1.6-0.2s-1.2,0.1-1.6,0.2c-0.4,0.1-0.8,0.3-1,0.6c-0.3,0.2-0.5,0.5-0.6,0.8
		c-0.1,0.3-0.2,0.6-0.2,1c0,0.8,0.3,1.4,0.9,1.9s1.4,0.8,2.5,0.8c1,0,1.9-0.3,2.5-0.8C606.6,33.8,606.9,33.2,606.9,32.5z"/>
	<path id="XMLID_214_" class="st1" d="M624.9,44.1v-1.4c-0.4,0.4-0.9,0.8-1.5,1.2c-0.6,0.3-1.3,0.5-2.2,0.5c-0.5,0-0.9-0.1-1.4-0.2
		c-0.4-0.1-0.8-0.3-1.2-0.6c-0.4-0.3-0.6-0.7-0.9-1.1c-0.2-0.5-0.3-1.1-0.3-1.8c0-0.7,0.1-1.2,0.4-1.7s0.6-0.9,1-1.2
		c0.4-0.3,0.9-0.5,1.4-0.7c0.5-0.1,1.1-0.2,1.7-0.2c0.6,0,1.1,0.1,1.6,0.2c0.5,0.1,0.9,0.3,1.3,0.5v-1.4c0-1.7-0.8-2.6-2.5-2.6
		c-0.6,0-1.2,0.1-1.7,0.2c-0.5,0.2-1,0.4-1.5,0.7l-0.6-1.4c0.5-0.3,1.1-0.5,1.8-0.7s1.4-0.3,2.1-0.3c1.3,0,2.3,0.3,3,0.9
		c0.7,0.6,1.1,1.6,1.1,2.9v8.2H624.9z M624.9,38.9c-0.4-0.2-0.8-0.4-1.3-0.5c-0.5-0.1-1-0.2-1.7-0.2c-0.9,0-1.5,0.2-2,0.6
		c-0.5,0.4-0.7,1-0.7,1.7c0,0.9,0.2,1.5,0.7,1.9c0.4,0.4,1,0.6,1.7,0.6c0.8,0,1.4-0.2,2-0.5c0.6-0.3,1-0.8,1.4-1.2V38.9z"/>
	<path id="XMLID_212_" class="st1" d="M637.6,44.1v-6.9c0-1.3-0.2-2.2-0.7-2.8s-1.1-0.9-2.1-0.9c-0.8,0-1.5,0.3-2.1,0.9
		c-0.6,0.6-0.8,1.5-0.8,2.8v6.9h-1.7V32.4h1.7l0,1.4c0.3-0.5,0.8-0.9,1.3-1.2s1.2-0.5,1.9-0.5c0.6,0,1.2,0.1,1.7,0.3
		c0.5,0.2,0.9,0.5,1.3,0.9s0.6,0.9,0.8,1.5c0.2,0.6,0.3,1.3,0.3,2.2v7.1H637.6z"/>
	<path id="XMLID_209_" class="st1" d="M650,44.1v-1.4c-0.4,0.4-0.9,0.8-1.5,1.2s-1.2,0.5-2.1,0.5c-0.6,0-1.1-0.1-1.6-0.3
		c-0.5-0.2-1-0.6-1.3-1.1c-0.4-0.5-0.7-1.1-0.9-1.8c-0.2-0.8-0.3-1.6-0.3-2.7c0-1,0.1-2,0.3-2.7s0.5-1.4,0.9-2
		c0.4-0.5,0.9-0.9,1.4-1.2c0.5-0.3,1.1-0.4,1.7-0.4c0.7,0,1.4,0.1,1.9,0.4c0.5,0.3,1,0.7,1.4,1.1v-4.9l1.7-0.9v16.3H650z M650,35.4
		c-0.3-0.5-0.8-0.9-1.3-1.3c-0.5-0.3-1.2-0.5-1.9-0.5c-1,0-1.7,0.4-2.2,1.2s-0.7,2-0.7,3.6c0,1.5,0.3,2.6,0.8,3.4
		c0.5,0.8,1.2,1.1,2.2,1.1c0.6,0,1.2-0.2,1.7-0.5s1-0.7,1.4-1.2V35.4z"/>
	<path id="XMLID_206_" class="st1" d="M672,39.3c0,0.8-0.1,1.6-0.4,2.2s-0.7,1.2-1.2,1.6c-0.5,0.4-1.1,0.7-1.8,1
		c-0.7,0.2-1.5,0.3-2.3,0.3c-0.8,0-1.5-0.1-2.2-0.3c-0.7-0.2-1.3-0.6-1.8-1.1c-0.5-0.5-0.9-1.1-1.2-1.9c-0.3-0.8-0.4-1.7-0.4-2.8
		c0-0.7,0.1-1.4,0.2-2.1c0.1-0.7,0.3-1.5,0.6-2.2c0.3-0.7,0.7-1.4,1.1-2.1c0.5-0.6,1-1.2,1.7-1.7s1.4-0.9,2.3-1.3
		c0.9-0.3,1.9-0.5,3-0.6v1.5c-2.1,0.2-3.7,0.8-4.9,1.9c-1.2,1.1-2,2.6-2.4,4.6c0.5-0.5,1.1-1,1.8-1.3c0.7-0.3,1.6-0.5,2.7-0.5
		c0.7,0,1.4,0.1,2,0.3s1.2,0.5,1.6,0.9c0.5,0.4,0.8,0.9,1.1,1.5C671.8,37.8,672,38.5,672,39.3z M670.3,39.4c0-1.1-0.3-1.9-1-2.4
		c-0.7-0.6-1.6-0.9-2.9-0.9c-1.3,0-2.2,0.3-3,0.9c-0.7,0.6-1.1,1.4-1.1,2.4c0,0.5,0.1,0.9,0.3,1.4c0.2,0.4,0.5,0.8,0.8,1.1
		c0.3,0.3,0.8,0.5,1.3,0.7s1,0.3,1.6,0.3c1.3,0,2.3-0.3,3-0.9C669.9,41.2,670.3,40.4,670.3,39.4z"/>
	<path id="XMLID_203_" class="st1" d="M685.9,36.3c0,1.3-0.1,2.4-0.4,3.4c-0.3,1-0.7,1.8-1.2,2.5c-0.5,0.7-1.1,1.2-1.8,1.5
		c-0.7,0.4-1.5,0.5-2.4,0.5c-0.9,0-1.7-0.2-2.4-0.5c-0.7-0.4-1.3-0.9-1.8-1.5c-0.5-0.7-0.9-1.5-1.2-2.5c-0.3-1-0.4-2.2-0.4-3.4
		s0.1-2.4,0.4-3.4c0.3-1,0.7-1.8,1.2-2.5c0.5-0.7,1.1-1.2,1.8-1.5c0.7-0.4,1.5-0.5,2.4-0.5c0.9,0,1.7,0.2,2.4,0.5
		c0.7,0.4,1.3,0.9,1.8,1.5c0.5,0.7,0.9,1.5,1.2,2.5C685.8,33.9,685.9,35,685.9,36.3z M684.2,36.3c0-2-0.3-3.6-1-4.7
		c-0.7-1.1-1.7-1.7-3.1-1.7s-2.4,0.6-3.1,1.7s-1,2.7-1,4.7c0,2,0.3,3.6,1,4.7s1.7,1.7,3.1,1.7s2.4-0.6,3.1-1.7
		C683.9,39.9,684.2,38.3,684.2,36.3z"/>
	<path id="XMLID_201_" class="st1" d="M698.2,48.3h-1.7l1.6-4.3L694,32.4h1.8l2.9,8.5l0.4,1.2l0.4-1.2l2.9-8.5h1.8L698.2,48.3z"/>
	<path id="XMLID_198_" class="st1" d="M715.7,37.9c0,0.2,0,0.4,0,0.5s0,0.3-0.1,0.4h-7.8c0.1,1.3,0.4,2.3,1,3
		c0.6,0.7,1.3,1.1,2.3,1.1c0.7,0,1.3-0.1,1.7-0.3c0.5-0.2,1-0.5,1.5-0.8l0.8,1.2c-0.4,0.2-0.7,0.4-1,0.6c-0.3,0.2-0.6,0.3-1,0.4
		c-0.3,0.1-0.7,0.2-1,0.3c-0.4,0.1-0.8,0.1-1.2,0.1c-0.5,0-1.1-0.1-1.6-0.3s-1.1-0.6-1.5-1c-0.5-0.5-0.8-1.1-1.1-1.9
		s-0.5-1.8-0.5-2.9c0-0.9,0.1-1.8,0.4-2.5s0.6-1.4,1-1.9c0.4-0.5,0.9-0.9,1.5-1.2s1.2-0.4,1.9-0.4c0.8,0,1.4,0.1,2,0.4
		s1.1,0.7,1.5,1.2s0.7,1.1,0.9,1.8C715.5,36.3,715.7,37.1,715.7,37.9z M714.1,37.5c-0.1-1.2-0.4-2.1-0.9-2.8
		c-0.5-0.7-1.3-1.1-2.3-1.1c-0.9,0-1.6,0.3-2.1,1c-0.6,0.6-0.9,1.6-1,2.9H714.1z"/>
	<path id="XMLID_195_" class="st1" d="M725.5,44.1v-1.4c-0.4,0.4-0.9,0.8-1.5,1.2c-0.6,0.3-1.3,0.5-2.2,0.5c-0.5,0-0.9-0.1-1.4-0.2
		c-0.4-0.1-0.8-0.3-1.2-0.6c-0.4-0.3-0.6-0.7-0.9-1.1c-0.2-0.5-0.3-1.1-0.3-1.8c0-0.7,0.1-1.2,0.4-1.7s0.6-0.9,1-1.2
		c0.4-0.3,0.9-0.5,1.4-0.7c0.5-0.1,1.1-0.2,1.7-0.2c0.6,0,1.1,0.1,1.6,0.2c0.5,0.1,0.9,0.3,1.3,0.5v-1.4c0-1.7-0.8-2.6-2.5-2.6
		c-0.6,0-1.2,0.1-1.7,0.2c-0.5,0.2-1,0.4-1.5,0.7l-0.6-1.4c0.5-0.3,1.1-0.5,1.8-0.7s1.4-0.3,2.1-0.3c1.3,0,2.3,0.3,3,0.9
		c0.7,0.6,1.1,1.6,1.1,2.9v8.2H725.5z M725.5,38.9c-0.4-0.2-0.8-0.4-1.3-0.5c-0.5-0.1-1-0.2-1.7-0.2c-0.9,0-1.5,0.2-2,0.6
		c-0.5,0.4-0.7,1-0.7,1.7c0,0.9,0.2,1.5,0.7,1.9c0.4,0.4,1,0.6,1.7,0.6c0.8,0,1.4-0.2,2-0.5c0.6-0.3,1-0.8,1.4-1.2V38.9z"/>
	<path id="XMLID_193_" class="st1" d="M736.8,34.2c-0.2-0.1-0.5-0.2-0.8-0.3c-0.3-0.1-0.6-0.1-1-0.1c-0.8,0-1.4,0.3-1.9,0.9
		s-0.7,1.5-0.7,2.6v6.9h-1.7V32.4h1.7v1.4c0.3-0.5,0.7-0.9,1.2-1.2c0.5-0.3,1.1-0.5,1.7-0.5c0.4,0,0.8,0,1.1,0.1
		c0.3,0.1,0.5,0.1,0.7,0.2L736.8,34.2z"/>
	<path id="XMLID_191_" class="st1" d="M747.1,41.1c0,0.6-0.1,1.1-0.3,1.5c-0.2,0.4-0.5,0.8-0.9,1s-0.8,0.5-1.3,0.6
		c-0.5,0.1-1,0.2-1.5,0.2c-0.8,0-1.5-0.1-2.2-0.4c-0.7-0.3-1.3-0.6-1.9-1.1l1-1.2c0.5,0.4,1,0.7,1.5,1c0.5,0.2,1.1,0.3,1.7,0.3
		c0.8,0,1.4-0.2,1.8-0.5c0.4-0.3,0.6-0.8,0.6-1.3c0-0.2,0-0.5-0.1-0.6c-0.1-0.2-0.3-0.4-0.5-0.6c-0.2-0.2-0.5-0.4-0.8-0.6
		c-0.3-0.2-0.8-0.4-1.3-0.6c-0.6-0.3-1.1-0.5-1.5-0.7c-0.4-0.2-0.8-0.5-1-0.7s-0.5-0.6-0.6-0.9s-0.2-0.7-0.2-1.2
		c0-0.4,0.1-0.9,0.3-1.2c0.2-0.4,0.4-0.7,0.8-0.9c0.3-0.3,0.7-0.5,1.1-0.6c0.4-0.1,0.9-0.2,1.5-0.2c0.8,0,1.5,0.1,2.1,0.3
		c0.6,0.2,1.2,0.5,1.6,0.9l-0.9,1.2c-0.5-0.4-0.9-0.6-1.3-0.8c-0.4-0.2-1-0.3-1.6-0.3c-0.6,0-1.1,0.1-1.4,0.4
		c-0.3,0.3-0.5,0.6-0.5,1c0,0.3,0,0.5,0.1,0.6s0.2,0.4,0.4,0.5c0.2,0.2,0.5,0.3,0.8,0.5c0.3,0.2,0.7,0.4,1.2,0.6
		c0.5,0.3,1,0.5,1.5,0.7c0.4,0.2,0.8,0.5,1.1,0.7s0.5,0.6,0.7,1C747,40.1,747.1,40.6,747.1,41.1z"/>
	<path id="XMLID_189_" class="st1" d="M7.3,70.9V64c0-1.3-0.2-2.2-0.7-2.8s-1.1-0.9-2.1-0.9c-0.8,0-1.5,0.3-2.1,0.9
		C2,61.8,1.7,62.7,1.7,64v6.9H0V59.2h1.7l0,1.4C2,60.1,2.5,59.7,3,59.4s1.2-0.5,1.9-0.5c0.6,0,1.2,0.1,1.7,0.3
		c0.5,0.2,0.9,0.5,1.3,0.9s0.6,0.9,0.8,1.5C8.9,62.2,9,62.9,9,63.8v7.1H7.3z"/>
	<path id="XMLID_186_" class="st1" d="M21.5,64.7c0,0.2,0,0.4,0,0.5s0,0.3-0.1,0.4h-7.8c0.1,1.3,0.4,2.3,1,3
		c0.6,0.7,1.3,1.1,2.3,1.1c0.7,0,1.3-0.1,1.7-0.3c0.5-0.2,1-0.5,1.5-0.8l0.8,1.2c-0.4,0.2-0.7,0.4-1,0.6c-0.3,0.2-0.6,0.3-1,0.4
		c-0.3,0.1-0.7,0.2-1,0.3c-0.4,0.1-0.8,0.1-1.2,0.1c-0.5,0-1.1-0.1-1.6-0.3s-1.1-0.6-1.5-1c-0.5-0.5-0.8-1.1-1.1-1.9S12,66.1,12,65
		c0-0.9,0.1-1.8,0.4-2.5s0.6-1.4,1-1.9c0.4-0.5,0.9-0.9,1.5-1.2s1.2-0.4,1.9-0.4c0.8,0,1.4,0.1,2,0.4s1.1,0.7,1.5,1.2
		s0.7,1.1,0.9,1.8C21.4,63.1,21.5,63.9,21.5,64.7z M20,64.2c-0.1-1.2-0.4-2.1-0.9-2.8c-0.5-0.7-1.3-1.1-2.3-1.1
		c-0.9,0-1.6,0.3-2.1,1c-0.6,0.6-0.9,1.6-1,2.9H20z"/>
	<path id="XMLID_184_" class="st1" d="M35,70.9h-1.5L31.3,63c0-0.1-0.1-0.2-0.1-0.4c0-0.1-0.1-0.3-0.1-0.4c0-0.2-0.1-0.3-0.1-0.5
		c0-0.1-0.1-0.3-0.1-0.4c0,0.1,0,0.2-0.1,0.4c0,0.1-0.1,0.3-0.1,0.5c0,0.2-0.1,0.3-0.1,0.4c0,0.1-0.1,0.3-0.1,0.4l-2.1,7.8H27
		l-3.1-11.7h1.7l1.8,7.7c0,0.1,0,0.2,0.1,0.4c0,0.1,0.1,0.3,0.1,0.4c0,0.2,0.1,0.3,0.1,0.5s0,0.3,0.1,0.4c0-0.1,0-0.2,0.1-0.4
		c0-0.1,0.1-0.3,0.1-0.5c0-0.2,0.1-0.3,0.1-0.4s0.1-0.3,0.1-0.4l2.1-7.7h1.5l2.1,7.7c0,0.1,0.1,0.2,0.1,0.4s0.1,0.3,0.1,0.4
		c0,0.2,0.1,0.3,0.1,0.5c0,0.1,0.1,0.3,0.1,0.4c0-0.1,0-0.2,0.1-0.4c0-0.1,0.1-0.3,0.1-0.5s0.1-0.3,0.1-0.4s0-0.3,0.1-0.4l1.8-7.7
		h1.7L35,70.9z"/>
	<path id="XMLID_182_" class="st1" d="M41.1,70.9V55.6l1.7-0.9v16.3H41.1z"/>
	<path id="XMLID_180_" class="st1" d="M49.8,75h-1.7l1.6-4.3l-4.2-11.6h1.8l2.9,8.5l0.4,1.2l0.4-1.2l2.9-8.5h1.8L49.8,75z"/>
	<path id="XMLID_177_" class="st1" d="M71.3,70.9v-1.4c-0.4,0.4-0.9,0.8-1.5,1.2s-1.2,0.5-2.1,0.5c-0.6,0-1.1-0.1-1.6-0.3
		c-0.5-0.2-1-0.6-1.3-1.1c-0.4-0.5-0.7-1.1-0.9-1.8c-0.2-0.8-0.3-1.6-0.3-2.7c0-1,0.1-2,0.3-2.7s0.5-1.4,0.9-2
		c0.4-0.5,0.9-0.9,1.4-1.2c0.5-0.3,1.1-0.4,1.7-0.4c0.7,0,1.4,0.1,1.9,0.4c0.5,0.3,1,0.7,1.4,1.1v-4.9l1.7-0.9v16.3H71.3z
		 M71.3,62.1c-0.3-0.5-0.8-0.9-1.3-1.3c-0.5-0.3-1.2-0.5-1.9-0.5c-1,0-1.7,0.4-2.2,1.2s-0.7,2-0.7,3.6c0,1.5,0.3,2.6,0.8,3.4
		c0.5,0.8,1.2,1.1,2.2,1.1c0.6,0,1.2-0.2,1.7-0.5s1-0.7,1.4-1.2V62.1z"/>
	<path id="XMLID_174_" class="st1" d="M78.8,55.9c0,0.3-0.1,0.6-0.3,0.8s-0.5,0.3-0.8,0.3c-0.3,0-0.6-0.1-0.9-0.3
		c-0.2-0.2-0.4-0.5-0.4-0.8c0-0.3,0.1-0.6,0.4-0.9c0.2-0.2,0.5-0.3,0.9-0.3c0.3,0,0.6,0.1,0.8,0.3S78.8,55.6,78.8,55.9z M76.8,70.9
		V59.2h1.7v11.7H76.8z"/>
	<path id="XMLID_171_" class="st1" d="M88.9,70.9v-1.4c-0.4,0.4-0.9,0.8-1.5,1.2c-0.6,0.3-1.3,0.5-2.2,0.5c-0.5,0-0.9-0.1-1.4-0.2
		c-0.4-0.1-0.8-0.3-1.2-0.6c-0.4-0.3-0.6-0.7-0.9-1.1c-0.2-0.5-0.3-1.1-0.3-1.8c0-0.7,0.1-1.2,0.4-1.7s0.6-0.9,1-1.2
		c0.4-0.3,0.9-0.5,1.4-0.7c0.5-0.1,1.1-0.2,1.7-0.2c0.6,0,1.1,0.1,1.6,0.2c0.5,0.1,0.9,0.3,1.3,0.5v-1.4c0-1.7-0.8-2.6-2.5-2.6
		c-0.6,0-1.2,0.1-1.7,0.2c-0.5,0.2-1,0.4-1.5,0.7l-0.6-1.4c0.5-0.3,1.1-0.5,1.8-0.7s1.4-0.3,2.1-0.3c1.3,0,2.3,0.3,3,0.9
		c0.7,0.6,1.1,1.6,1.1,2.9v8.2H88.9z M88.9,65.6c-0.4-0.2-0.8-0.4-1.3-0.5c-0.5-0.1-1-0.2-1.7-0.2c-0.9,0-1.5,0.2-2,0.6
		c-0.5,0.4-0.7,1-0.7,1.7c0,0.9,0.2,1.5,0.7,1.9c0.4,0.4,1,0.6,1.7,0.6c0.8,0,1.4-0.2,2-0.5c0.6-0.3,1-0.8,1.4-1.2V65.6z"/>
	<path id="XMLID_168_" class="st1" d="M103,69.8c0,0.9-0.1,1.6-0.3,2.3c-0.2,0.7-0.5,1.2-1,1.6c-0.5,0.4-1.1,0.8-1.8,1
		s-1.7,0.4-2.8,0.4l-0.5-1.3c1,0,1.8-0.1,2.4-0.3c0.6-0.1,1.1-0.4,1.5-0.7c0.4-0.3,0.6-0.7,0.7-1.2c0.1-0.5,0.2-1.1,0.2-1.7v-0.6
		c-0.4,0.4-0.9,0.8-1.5,1.2s-1.2,0.5-2.1,0.5c-0.6,0-1.1-0.1-1.6-0.3c-0.5-0.2-1-0.6-1.3-1.1c-0.4-0.5-0.7-1.1-0.9-1.8
		c-0.2-0.8-0.3-1.6-0.3-2.7c0-1,0.1-2,0.3-2.7s0.5-1.4,0.9-2c0.4-0.5,0.9-0.9,1.4-1.2c0.5-0.3,1.1-0.4,1.7-0.4
		c0.7,0,1.4,0.1,1.9,0.4c0.5,0.3,1,0.7,1.4,1.1v-1.3h1.7V69.8z M101.3,62.1c-0.3-0.5-0.8-0.9-1.3-1.3c-0.5-0.3-1.2-0.5-1.9-0.5
		c-1,0-1.7,0.4-2.2,1.2s-0.7,2-0.7,3.6c0,1.5,0.3,2.6,0.8,3.4c0.5,0.8,1.2,1.1,2.2,1.1c0.6,0,1.2-0.2,1.7-0.5s1-0.7,1.4-1.2V62.1z"
		/>
	<path id="XMLID_166_" class="st1" d="M114,70.9V64c0-1.3-0.2-2.2-0.7-2.8s-1.1-0.9-2.1-0.9c-0.8,0-1.5,0.3-2.1,0.9
		c-0.6,0.6-0.8,1.5-0.8,2.8v6.9h-1.7V59.2h1.7l0,1.4c0.3-0.5,0.8-0.9,1.3-1.2s1.2-0.5,1.9-0.5c0.6,0,1.2,0.1,1.7,0.3
		c0.5,0.2,0.9,0.5,1.3,0.9s0.6,0.9,0.8,1.5c0.2,0.6,0.3,1.3,0.3,2.2v7.1H114z"/>
	<path id="XMLID_163_" class="st1" d="M128.9,65c0,1-0.1,1.9-0.4,2.6c-0.3,0.8-0.6,1.4-1.1,1.9c-0.5,0.5-1,0.9-1.6,1.2
		c-0.6,0.3-1.3,0.4-2,0.4s-1.4-0.1-2-0.4s-1.2-0.6-1.6-1.2c-0.4-0.5-0.8-1.1-1.1-1.9c-0.3-0.8-0.4-1.6-0.4-2.6s0.1-1.9,0.4-2.6
		c0.3-0.8,0.6-1.4,1.1-1.9s1-0.9,1.6-1.2c0.6-0.3,1.3-0.4,2-0.4s1.4,0.1,2,0.4c0.6,0.3,1.2,0.6,1.6,1.1c0.4,0.5,0.8,1.1,1.1,1.9
		S128.9,64,128.9,65z M127.2,65c0-1.6-0.3-2.7-0.9-3.5s-1.4-1.2-2.5-1.2s-1.8,0.4-2.5,1.2c-0.6,0.8-0.9,1.9-0.9,3.5s0.3,2.7,0.9,3.5
		c0.6,0.8,1.4,1.2,2.5,1.2s1.9-0.4,2.5-1.2C126.9,67.7,127.2,66.6,127.2,65z"/>
	<path id="XMLID_161_" class="st1" d="M139.2,67.8c0,0.6-0.1,1.1-0.3,1.5c-0.2,0.4-0.5,0.8-0.9,1s-0.8,0.5-1.3,0.6
		c-0.5,0.1-1,0.2-1.5,0.2c-0.8,0-1.5-0.1-2.2-0.4c-0.7-0.3-1.3-0.6-1.9-1.1l1-1.2c0.5,0.4,1,0.7,1.5,1c0.5,0.2,1.1,0.3,1.7,0.3
		c0.8,0,1.4-0.2,1.8-0.5c0.4-0.3,0.6-0.8,0.6-1.3c0-0.2,0-0.5-0.1-0.6c-0.1-0.2-0.3-0.4-0.5-0.6c-0.2-0.2-0.5-0.4-0.8-0.6
		c-0.3-0.2-0.8-0.4-1.3-0.6c-0.6-0.3-1.1-0.5-1.5-0.7c-0.4-0.2-0.8-0.5-1-0.7s-0.5-0.6-0.6-0.9s-0.2-0.7-0.2-1.2
		c0-0.4,0.1-0.9,0.3-1.2c0.2-0.4,0.4-0.7,0.8-0.9c0.3-0.3,0.7-0.5,1.1-0.6c0.4-0.1,0.9-0.2,1.5-0.2c0.8,0,1.5,0.1,2.1,0.3
		c0.6,0.2,1.2,0.5,1.6,0.9l-0.9,1.2c-0.5-0.4-0.9-0.6-1.3-0.8c-0.4-0.2-1-0.3-1.6-0.3c-0.6,0-1.1,0.1-1.4,0.4
		c-0.3,0.3-0.5,0.6-0.5,1c0,0.3,0,0.5,0.1,0.6s0.2,0.4,0.4,0.5c0.2,0.2,0.5,0.3,0.8,0.5c0.3,0.2,0.7,0.4,1.2,0.6
		c0.5,0.3,1,0.5,1.5,0.7c0.4,0.2,0.8,0.5,1.1,0.7s0.5,0.6,0.7,1C139.1,66.9,139.2,67.3,139.2,67.8z"/>
	<path id="XMLID_158_" class="st1" d="M151.3,64.7c0,0.2,0,0.4,0,0.5s0,0.3-0.1,0.4h-7.8c0.1,1.3,0.4,2.3,1,3
		c0.6,0.7,1.3,1.1,2.3,1.1c0.7,0,1.3-0.1,1.7-0.3c0.5-0.2,1-0.5,1.5-0.8l0.8,1.2c-0.4,0.2-0.7,0.4-1,0.6c-0.3,0.2-0.6,0.3-1,0.4
		c-0.3,0.1-0.7,0.2-1,0.3c-0.4,0.1-0.8,0.1-1.2,0.1c-0.5,0-1.1-0.1-1.6-0.3s-1.1-0.6-1.5-1c-0.5-0.5-0.8-1.1-1.1-1.9
		s-0.5-1.8-0.5-2.9c0-0.9,0.1-1.8,0.4-2.5s0.6-1.4,1-1.9c0.4-0.5,0.9-0.9,1.5-1.2s1.2-0.4,1.9-0.4c0.8,0,1.4,0.1,2,0.4
		s1.1,0.7,1.5,1.2s0.7,1.1,0.9,1.8C151.2,63.1,151.3,63.9,151.3,64.7z M149.7,64.2c-0.1-1.2-0.4-2.1-0.9-2.8
		c-0.5-0.7-1.3-1.1-2.3-1.1c-0.9,0-1.6,0.3-2.1,1c-0.6,0.6-0.9,1.6-1,2.9H149.7z"/>
	<path id="XMLID_155_" class="st1" d="M161.5,70.9v-1.4c-0.4,0.4-0.9,0.8-1.5,1.2s-1.2,0.5-2.1,0.5c-0.6,0-1.1-0.1-1.6-0.3
		c-0.5-0.2-1-0.6-1.3-1.1c-0.4-0.5-0.7-1.1-0.9-1.8c-0.2-0.8-0.3-1.6-0.3-2.7c0-1,0.1-2,0.3-2.7s0.5-1.4,0.9-2
		c0.4-0.5,0.9-0.9,1.4-1.2c0.5-0.3,1.1-0.4,1.7-0.4c0.7,0,1.4,0.1,1.9,0.4c0.5,0.3,1,0.7,1.4,1.1v-4.9l1.7-0.9v16.3H161.5z
		 M161.5,62.1c-0.3-0.5-0.8-0.9-1.3-1.3c-0.5-0.3-1.2-0.5-1.9-0.5c-1,0-1.7,0.4-2.2,1.2s-0.7,2-0.7,3.6c0,1.5,0.3,2.6,0.8,3.4
		c0.5,0.8,1.2,1.1,2.2,1.1c0.6,0,1.2-0.2,1.7-0.5s1-0.7,1.4-1.2V62.1z"/>
	<path id="XMLID_153_" class="st1" d="M182.9,70.9h-1.5l-2.1-7.8c0-0.1-0.1-0.2-0.1-0.4c0-0.1-0.1-0.3-0.1-0.4
		c0-0.2-0.1-0.3-0.1-0.5c0-0.1-0.1-0.3-0.1-0.4c0,0.1,0,0.2-0.1,0.4c0,0.1-0.1,0.3-0.1,0.5c0,0.2-0.1,0.3-0.1,0.4
		c0,0.1-0.1,0.3-0.1,0.4l-2.1,7.8H175l-3.1-11.7h1.7l1.8,7.7c0,0.1,0,0.2,0.1,0.4c0,0.1,0.1,0.3,0.1,0.4c0,0.2,0.1,0.3,0.1,0.5
		s0,0.3,0.1,0.4c0-0.1,0-0.2,0.1-0.4c0-0.1,0.1-0.3,0.1-0.5c0-0.2,0.1-0.3,0.1-0.4s0.1-0.3,0.1-0.4l2.1-7.7h1.5l2.1,7.7
		c0,0.1,0.1,0.2,0.1,0.4s0.1,0.3,0.1,0.4c0,0.2,0.1,0.3,0.1,0.5c0,0.1,0.1,0.3,0.1,0.4c0-0.1,0-0.2,0.1-0.4c0-0.1,0.1-0.3,0.1-0.5
		s0.1-0.3,0.1-0.4s0-0.3,0.1-0.4l1.8-7.7h1.7L182.9,70.9z"/>
	<path id="XMLID_150_" class="st1" d="M191.1,55.9c0,0.3-0.1,0.6-0.3,0.8s-0.5,0.3-0.8,0.3c-0.3,0-0.6-0.1-0.9-0.3
		c-0.2-0.2-0.4-0.5-0.4-0.8c0-0.3,0.1-0.6,0.4-0.9c0.2-0.2,0.5-0.3,0.9-0.3c0.3,0,0.6,0.1,0.8,0.3S191.1,55.6,191.1,55.9z
		 M189.1,70.9V59.2h1.7v11.7H189.1z"/>
	<path id="XMLID_148_" class="st1" d="M196.7,60.6v7.6c0,0.5,0.1,0.9,0.3,1.1s0.5,0.3,0.9,0.3c0.3,0,0.6,0,0.9-0.1
		c0.2-0.1,0.5-0.1,0.8-0.3l-0.1,1.4c-0.3,0.1-0.7,0.2-1,0.3s-0.7,0.1-1.2,0.1c-0.7,0-1.3-0.2-1.7-0.6s-0.6-1.1-0.6-2.1v-7.9h-1.4
		v-1.4h1.4v-3.6l1.7-0.9v4.5h2.9v1.4H196.7z"/>
	<path id="XMLID_146_" class="st1" d="M210.2,70.9V64c0-1.3-0.2-2.2-0.7-2.8s-1.1-0.9-2.1-0.9c-0.8,0-1.5,0.3-2.1,0.9
		c-0.6,0.6-0.8,1.5-0.8,2.8v6.9h-1.7V55.6l1.7-0.9l0,6c0.3-0.5,0.8-0.9,1.3-1.2s1.2-0.5,1.9-0.5c0.6,0,1.2,0.1,1.7,0.3
		c0.5,0.2,0.9,0.5,1.3,0.9s0.6,0.9,0.8,1.5c0.2,0.6,0.3,1.3,0.3,2.2v7.1H210.2z"/>
	<path id="XMLID_144_" class="st1" d="M225,56.2c-0.3,0-0.6,0.1-0.9,0.2s-0.3,0.5-0.3,1v1.7h2.3v1.4h-2.3v10.3h-1.7V60.6h-1.6v-1.4
		h1.6v-1.6c0-1,0.3-1.8,0.8-2.2c0.5-0.4,1.2-0.7,2-0.7c0.3,0,0.6,0,0.8,0c0.2,0,0.4,0.1,0.6,0.2v1.6C225.9,56.3,225.5,56.2,225,56.2
		z"/>
	<path id="XMLID_141_" class="st1" d="M238.8,65c0,1-0.1,1.9-0.4,2.6c-0.3,0.8-0.6,1.4-1.1,1.9c-0.5,0.5-1,0.9-1.6,1.2
		c-0.6,0.3-1.3,0.4-2,0.4s-1.4-0.1-2-0.4s-1.2-0.6-1.6-1.2c-0.4-0.5-0.8-1.1-1.1-1.9c-0.3-0.8-0.4-1.6-0.4-2.6s0.1-1.9,0.4-2.6
		c0.3-0.8,0.6-1.4,1.1-1.9s1-0.9,1.6-1.2c0.6-0.3,1.3-0.4,2-0.4s1.4,0.1,2,0.4c0.6,0.3,1.2,0.6,1.6,1.1c0.4,0.5,0.8,1.1,1.1,1.9
		S238.8,64,238.8,65z M237.1,65c0-1.6-0.3-2.7-0.9-3.5s-1.4-1.2-2.5-1.2s-1.8,0.4-2.5,1.2c-0.6,0.8-0.9,1.9-0.9,3.5s0.3,2.7,0.9,3.5
		c0.6,0.8,1.4,1.2,2.5,1.2s1.9-0.4,2.5-1.2C236.8,67.7,237.1,66.6,237.1,65z"/>
	<path id="XMLID_139_" class="st1" d="M248.9,61.5c-0.4-0.4-0.9-0.7-1.3-0.9s-0.9-0.3-1.5-0.3c-0.5,0-0.9,0.1-1.3,0.3
		c-0.4,0.2-0.7,0.5-1,0.9c-0.3,0.4-0.5,0.9-0.7,1.4c-0.2,0.6-0.2,1.2-0.2,1.9c0,1.4,0.3,2.6,0.9,3.5c0.6,0.9,1.4,1.3,2.4,1.3
		c0.6,0,1.1-0.1,1.5-0.3c0.4-0.2,0.8-0.5,1.2-0.9l1,1.1c-0.5,0.5-1,0.9-1.6,1.2c-0.6,0.3-1.3,0.4-2.1,0.4c-0.6,0-1.3-0.1-1.8-0.4
		c-0.6-0.2-1.1-0.6-1.6-1.1c-0.5-0.5-0.8-1.1-1.1-1.9c-0.3-0.8-0.4-1.6-0.4-2.7c0-1.1,0.1-2,0.4-2.8c0.3-0.8,0.7-1.4,1.2-1.9
		s1-0.9,1.6-1.1s1.2-0.4,1.8-0.4c0.8,0,1.5,0.1,2.1,0.4c0.6,0.3,1.1,0.6,1.6,1L248.9,61.5z"/>
	<path id="XMLID_136_" class="st1" d="M259.6,70.9v-1.4c-0.4,0.4-0.9,0.8-1.5,1.2c-0.6,0.3-1.3,0.5-2.2,0.5c-0.5,0-0.9-0.1-1.4-0.2
		c-0.4-0.1-0.8-0.3-1.2-0.6c-0.4-0.3-0.6-0.7-0.9-1.1c-0.2-0.5-0.3-1.1-0.3-1.8c0-0.7,0.1-1.2,0.4-1.7s0.6-0.9,1-1.2
		c0.4-0.3,0.9-0.5,1.4-0.7c0.5-0.1,1.1-0.2,1.7-0.2c0.6,0,1.1,0.1,1.6,0.2c0.5,0.1,0.9,0.3,1.3,0.5v-1.4c0-1.7-0.8-2.6-2.5-2.6
		c-0.6,0-1.2,0.1-1.7,0.2c-0.5,0.2-1,0.4-1.5,0.7l-0.6-1.4c0.5-0.3,1.1-0.5,1.8-0.7s1.4-0.3,2.1-0.3c1.3,0,2.3,0.3,3,0.9
		c0.7,0.6,1.1,1.6,1.1,2.9v8.2H259.6z M259.6,65.6c-0.4-0.2-0.8-0.4-1.3-0.5c-0.5-0.1-1-0.2-1.7-0.2c-0.9,0-1.5,0.2-2,0.6
		c-0.5,0.4-0.7,1-0.7,1.7c0,0.9,0.2,1.5,0.7,1.9c0.4,0.4,1,0.6,1.7,0.6c0.8,0,1.4-0.2,2-0.5c0.6-0.3,1-0.8,1.4-1.2V65.6z"/>
	<path id="XMLID_134_" class="st1" d="M265,70.9V55.6l1.7-0.9v16.3H265z"/>
	<path id="XMLID_131_" class="st1" d="M285.8,65c0,1-0.1,1.9-0.4,2.6c-0.3,0.8-0.6,1.4-1.1,1.9c-0.5,0.5-1,0.9-1.6,1.2
		c-0.6,0.3-1.3,0.4-2,0.4s-1.4-0.1-2-0.4s-1.2-0.6-1.6-1.2c-0.4-0.5-0.8-1.1-1.1-1.9c-0.3-0.8-0.4-1.6-0.4-2.6s0.1-1.9,0.4-2.6
		c0.3-0.8,0.6-1.4,1.1-1.9s1-0.9,1.6-1.2c0.6-0.3,1.3-0.4,2-0.4s1.4,0.1,2,0.4c0.6,0.3,1.2,0.6,1.6,1.1c0.4,0.5,0.8,1.1,1.1,1.9
		S285.8,64,285.8,65z M284.1,65c0-1.6-0.3-2.7-0.9-3.5s-1.4-1.2-2.5-1.2s-1.8,0.4-2.5,1.2c-0.6,0.8-0.9,1.9-0.9,3.5s0.3,2.7,0.9,3.5
		c0.6,0.8,1.4,1.2,2.5,1.2s1.9-0.4,2.5-1.2C283.8,67.7,284.1,66.6,284.1,65z"/>
	<path id="XMLID_129_" class="st1" d="M294.9,60.9c-0.2-0.1-0.5-0.2-0.8-0.3c-0.3-0.1-0.6-0.1-1-0.1c-0.8,0-1.4,0.3-1.9,0.9
		s-0.7,1.5-0.7,2.6v6.9h-1.7V59.2h1.7v1.4c0.3-0.5,0.7-0.9,1.2-1.2c0.5-0.3,1.1-0.5,1.7-0.5c0.4,0,0.8,0,1.1,0.1
		c0.3,0.1,0.5,0.1,0.7,0.2L294.9,60.9z"/>
	<path id="XMLID_126_" class="st1" d="M313.1,64.8c0,1-0.1,2-0.3,2.7s-0.5,1.4-0.9,2c-0.4,0.5-0.9,0.9-1.4,1.2
		c-0.5,0.3-1.1,0.4-1.7,0.4c-0.7,0-1.4-0.1-1.9-0.4s-1-0.7-1.4-1.1v4.7l-1.7,0.9v-16h1.7l0,1.4c0.4-0.4,0.9-0.8,1.5-1.2
		c0.6-0.3,1.2-0.5,2.1-0.5c0.6,0,1.1,0.1,1.6,0.3c0.5,0.2,1,0.6,1.3,1.1s0.7,1.1,0.9,1.8C313,62.9,313.1,63.8,313.1,64.8z
		 M311.5,64.9c0-1.5-0.3-2.6-0.8-3.4c-0.5-0.8-1.2-1.1-2.2-1.1c-0.6,0-1.2,0.2-1.7,0.5s-1,0.7-1.4,1.2v5.9c0.3,0.5,0.8,0.9,1.3,1.3
		c0.5,0.3,1.2,0.5,1.9,0.5c1,0,1.7-0.4,2.2-1.2S311.5,66.4,311.5,64.9z"/>
	<path id="XMLID_123_" class="st1" d="M322.9,70.9v-1.4c-0.4,0.4-0.9,0.8-1.5,1.2c-0.6,0.3-1.3,0.5-2.2,0.5c-0.5,0-0.9-0.1-1.4-0.2
		c-0.4-0.1-0.8-0.3-1.2-0.6c-0.4-0.3-0.6-0.7-0.9-1.1c-0.2-0.5-0.3-1.1-0.3-1.8c0-0.7,0.1-1.2,0.4-1.7s0.6-0.9,1-1.2
		c0.4-0.3,0.9-0.5,1.4-0.7c0.5-0.1,1.1-0.2,1.7-0.2c0.6,0,1.1,0.1,1.6,0.2c0.5,0.1,0.9,0.3,1.3,0.5v-1.4c0-1.7-0.8-2.6-2.5-2.6
		c-0.6,0-1.2,0.1-1.7,0.2c-0.5,0.2-1,0.4-1.5,0.7l-0.6-1.4c0.5-0.3,1.1-0.5,1.8-0.7s1.4-0.3,2.1-0.3c1.3,0,2.3,0.3,3,0.9
		c0.7,0.6,1.1,1.6,1.1,2.9v8.2H322.9z M322.9,65.6c-0.4-0.2-0.8-0.4-1.3-0.5c-0.5-0.1-1-0.2-1.7-0.2c-0.9,0-1.5,0.2-2,0.6
		c-0.5,0.4-0.7,1-0.7,1.7c0,0.9,0.2,1.5,0.7,1.9c0.4,0.4,1,0.6,1.7,0.6c0.8,0,1.4-0.2,2-0.5c0.6-0.3,1-0.8,1.4-1.2V65.6z"/>
	<path id="XMLID_121_" class="st1" d="M334.2,60.9c-0.2-0.1-0.5-0.2-0.8-0.3c-0.3-0.1-0.6-0.1-1-0.1c-0.8,0-1.4,0.3-1.9,0.9
		s-0.7,1.5-0.7,2.6v6.9h-1.7V59.2h1.7v1.4c0.3-0.5,0.7-0.9,1.2-1.2c0.5-0.3,1.1-0.5,1.7-0.5c0.4,0,0.8,0,1.1,0.1
		c0.3,0.1,0.5,0.1,0.7,0.2L334.2,60.9z"/>
	<path id="XMLID_119_" class="st1" d="M339.5,60.6v7.6c0,0.5,0.1,0.9,0.3,1.1s0.5,0.3,0.9,0.3c0.3,0,0.6,0,0.9-0.1
		c0.2-0.1,0.5-0.1,0.8-0.3l-0.1,1.4c-0.3,0.1-0.7,0.2-1,0.3s-0.7,0.1-1.2,0.1c-0.7,0-1.3-0.2-1.7-0.6s-0.6-1.1-0.6-2.1v-7.9h-1.4
		v-1.4h1.4v-3.6l1.7-0.9v4.5h2.9v1.4H339.5z"/>
	<path id="XMLID_116_" class="st1" d="M347.7,55.9c0,0.3-0.1,0.6-0.3,0.8s-0.5,0.3-0.8,0.3c-0.3,0-0.6-0.1-0.9-0.3
		c-0.2-0.2-0.4-0.5-0.4-0.8c0-0.3,0.1-0.6,0.4-0.9c0.2-0.2,0.5-0.3,0.9-0.3c0.3,0,0.6,0.1,0.8,0.3S347.7,55.6,347.7,55.9z
		 M345.7,70.9V59.2h1.7v11.7H345.7z"/>
	<path id="XMLID_113_" class="st1" d="M357.9,70.9v-1.4c-0.4,0.4-0.9,0.8-1.5,1.2c-0.6,0.3-1.3,0.5-2.2,0.5c-0.5,0-0.9-0.1-1.4-0.2
		c-0.4-0.1-0.8-0.3-1.2-0.6c-0.4-0.3-0.6-0.7-0.9-1.1c-0.2-0.5-0.3-1.1-0.3-1.8c0-0.7,0.1-1.2,0.4-1.7s0.6-0.9,1-1.2
		c0.4-0.3,0.9-0.5,1.4-0.7c0.5-0.1,1.1-0.2,1.7-0.2c0.6,0,1.1,0.1,1.6,0.2c0.5,0.1,0.9,0.3,1.3,0.5v-1.4c0-1.7-0.8-2.6-2.5-2.6
		c-0.6,0-1.2,0.1-1.7,0.2c-0.5,0.2-1,0.4-1.5,0.7l-0.6-1.4c0.5-0.3,1.1-0.5,1.8-0.7s1.4-0.3,2.1-0.3c1.3,0,2.3,0.3,3,0.9
		c0.7,0.6,1.1,1.6,1.1,2.9v8.2H357.9z M357.9,65.6c-0.4-0.2-0.8-0.4-1.3-0.5c-0.5-0.1-1-0.2-1.7-0.2c-0.9,0-1.5,0.2-2,0.6
		c-0.5,0.4-0.7,1-0.7,1.7c0,0.9,0.2,1.5,0.7,1.9c0.4,0.4,1,0.6,1.7,0.6c0.8,0,1.4-0.2,2-0.5c0.6-0.3,1-0.8,1.4-1.2V65.6z"/>
	<path id="XMLID_111_" class="st1" d="M363.3,70.9V55.6l1.7-0.9v16.3H363.3z"/>
	<path id="XMLID_109_" class="st1" d="M381.8,67.8c0,0.6-0.1,1.1-0.3,1.5c-0.2,0.4-0.5,0.8-0.9,1s-0.8,0.5-1.3,0.6
		c-0.5,0.1-1,0.2-1.5,0.2c-0.8,0-1.5-0.1-2.2-0.4c-0.7-0.3-1.3-0.6-1.9-1.1l1-1.2c0.5,0.4,1,0.7,1.5,1c0.5,0.2,1.1,0.3,1.7,0.3
		c0.8,0,1.4-0.2,1.8-0.5c0.4-0.3,0.6-0.8,0.6-1.3c0-0.2,0-0.5-0.1-0.6c-0.1-0.2-0.3-0.4-0.5-0.6c-0.2-0.2-0.5-0.4-0.8-0.6
		c-0.3-0.2-0.8-0.4-1.3-0.6c-0.6-0.3-1.1-0.5-1.5-0.7c-0.4-0.2-0.8-0.5-1-0.7s-0.5-0.6-0.6-0.9s-0.2-0.7-0.2-1.2
		c0-0.4,0.1-0.9,0.3-1.2c0.2-0.4,0.4-0.7,0.8-0.9c0.3-0.3,0.7-0.5,1.1-0.6c0.4-0.1,0.9-0.2,1.5-0.2c0.8,0,1.5,0.1,2.1,0.3
		c0.6,0.2,1.2,0.5,1.6,0.9l-0.9,1.2c-0.5-0.4-0.9-0.6-1.3-0.8c-0.4-0.2-1-0.3-1.6-0.3c-0.6,0-1.1,0.1-1.4,0.4
		c-0.3,0.3-0.5,0.6-0.5,1c0,0.3,0,0.5,0.1,0.6s0.2,0.4,0.4,0.5c0.2,0.2,0.5,0.3,0.8,0.5c0.3,0.2,0.7,0.4,1.2,0.6
		c0.5,0.3,1,0.5,1.5,0.7c0.4,0.2,0.8,0.5,1.1,0.7s0.5,0.6,0.7,1C381.8,66.9,381.8,67.3,381.8,67.8z"/>
	<path id="XMLID_106_" class="st1" d="M393.9,64.7c0,0.2,0,0.4,0,0.5s0,0.3-0.1,0.4h-7.8c0.1,1.3,0.4,2.3,1,3
		c0.6,0.7,1.3,1.1,2.3,1.1c0.7,0,1.3-0.1,1.7-0.3c0.5-0.2,1-0.5,1.5-0.8l0.8,1.2c-0.4,0.2-0.7,0.4-1,0.6c-0.3,0.2-0.6,0.3-1,0.4
		c-0.3,0.1-0.7,0.2-1,0.3c-0.4,0.1-0.8,0.1-1.2,0.1c-0.5,0-1.1-0.1-1.6-0.3s-1.1-0.6-1.5-1c-0.5-0.5-0.8-1.1-1.1-1.9
		s-0.5-1.8-0.5-2.9c0-0.9,0.1-1.8,0.4-2.5s0.6-1.4,1-1.9c0.4-0.5,0.9-0.9,1.5-1.2s1.2-0.4,1.9-0.4c0.8,0,1.4,0.1,2,0.4
		s1.1,0.7,1.5,1.2s0.7,1.1,0.9,1.8C393.8,63.1,393.9,63.9,393.9,64.7z M392.4,64.2c-0.1-1.2-0.4-2.1-0.9-2.8
		c-0.5-0.7-1.3-1.1-2.3-1.1c-0.9,0-1.6,0.3-2.1,1c-0.6,0.6-0.9,1.6-1,2.9H392.4z"/>
	<path id="XMLID_103_" class="st1" d="M399.2,55.9c0,0.3-0.1,0.6-0.3,0.8s-0.5,0.3-0.8,0.3c-0.3,0-0.6-0.1-0.9-0.3
		c-0.2-0.2-0.4-0.5-0.4-0.8c0-0.3,0.1-0.6,0.4-0.9c0.2-0.2,0.5-0.3,0.9-0.3c0.3,0,0.6,0.1,0.8,0.3S399.2,55.6,399.2,55.9z
		 M397.1,70.9V59.2h1.7v11.7H397.1z"/>
	<path id="XMLID_101_" class="st1" d="M402,70.9v-1.2l6.4-9.1h-5.9v-1.4h7.8v1.2l-6.4,9.1h6.4v1.4H402z"/>
	<path id="XMLID_99_" class="st1" d="M420.9,70.9v-1.4c-0.3,0.5-0.8,0.9-1.3,1.2c-0.5,0.3-1.2,0.5-1.9,0.5c-0.6,0-1.2-0.1-1.7-0.3
		c-0.5-0.2-0.9-0.5-1.3-0.9c-0.4-0.4-0.6-0.9-0.8-1.5c-0.2-0.6-0.3-1.3-0.3-2.2v-7.1h1.7V66c0,1.3,0.2,2.2,0.7,2.8
		c0.5,0.6,1.1,0.9,2.1,0.9c0.8,0,1.5-0.3,2.1-0.9c0.6-0.6,0.8-1.5,0.8-2.8v-6.9h1.7v11.7H420.9z"/>
	<path id="XMLID_97_" class="st1" d="M432.2,60.9c-0.2-0.1-0.5-0.2-0.8-0.3c-0.3-0.1-0.6-0.1-1-0.1c-0.8,0-1.4,0.3-1.9,0.9
		s-0.7,1.5-0.7,2.6v6.9h-1.7V59.2h1.7v1.4c0.3-0.5,0.7-0.9,1.2-1.2c0.5-0.3,1.1-0.5,1.7-0.5c0.4,0,0.8,0,1.1,0.1
		c0.3,0.1,0.5,0.1,0.7,0.2L432.2,60.9z"/>
	<path id="XMLID_94_" class="st1" d="M444.2,64.7c0,0.2,0,0.4,0,0.5s0,0.3-0.1,0.4h-7.8c0.1,1.3,0.4,2.3,1,3
		c0.6,0.7,1.3,1.1,2.3,1.1c0.7,0,1.3-0.1,1.7-0.3c0.5-0.2,1-0.5,1.5-0.8l0.8,1.2c-0.4,0.2-0.7,0.4-1,0.6c-0.3,0.2-0.6,0.3-1,0.4
		c-0.3,0.1-0.7,0.2-1,0.3c-0.4,0.1-0.8,0.1-1.2,0.1c-0.5,0-1.1-0.1-1.6-0.3s-1.1-0.6-1.5-1c-0.5-0.5-0.8-1.1-1.1-1.9
		s-0.5-1.8-0.5-2.9c0-0.9,0.1-1.8,0.4-2.5s0.6-1.4,1-1.9c0.4-0.5,0.9-0.9,1.5-1.2s1.2-0.4,1.9-0.4c0.8,0,1.4,0.1,2,0.4
		s1.1,0.7,1.5,1.2s0.7,1.1,0.9,1.8C444.1,63.1,444.2,63.9,444.2,64.7z M442.7,64.2c-0.1-1.2-0.4-2.1-0.9-2.8
		c-0.5-0.7-1.3-1.1-2.3-1.1c-0.9,0-1.6,0.3-2.1,1c-0.6,0.6-0.9,1.6-1,2.9H442.7z"/>
	<path id="XMLID_92_" class="st1" d="M454.6,67.8c0,0.6-0.1,1.1-0.3,1.5c-0.2,0.4-0.5,0.8-0.9,1s-0.8,0.5-1.3,0.6
		c-0.5,0.1-1,0.2-1.5,0.2c-0.8,0-1.5-0.1-2.2-0.4c-0.7-0.3-1.3-0.6-1.9-1.1l1-1.2c0.5,0.4,1,0.7,1.5,1c0.5,0.2,1.1,0.3,1.7,0.3
		c0.8,0,1.4-0.2,1.8-0.5c0.4-0.3,0.6-0.8,0.6-1.3c0-0.2,0-0.5-0.1-0.6c-0.1-0.2-0.3-0.4-0.5-0.6c-0.2-0.2-0.5-0.4-0.8-0.6
		c-0.3-0.2-0.8-0.4-1.3-0.6c-0.6-0.3-1.1-0.5-1.5-0.7c-0.4-0.2-0.8-0.5-1-0.7s-0.5-0.6-0.6-0.9s-0.2-0.7-0.2-1.2
		c0-0.4,0.1-0.9,0.3-1.2c0.2-0.4,0.4-0.7,0.8-0.9c0.3-0.3,0.7-0.5,1.1-0.6c0.4-0.1,0.9-0.2,1.5-0.2c0.8,0,1.5,0.1,2.1,0.3
		c0.6,0.2,1.2,0.5,1.6,0.9l-0.9,1.2c-0.5-0.4-0.9-0.6-1.3-0.8c-0.4-0.2-1-0.3-1.6-0.3c-0.6,0-1.1,0.1-1.4,0.4
		c-0.3,0.3-0.5,0.6-0.5,1c0,0.3,0,0.5,0.1,0.6s0.2,0.4,0.4,0.5c0.2,0.2,0.5,0.3,0.8,0.5c0.3,0.2,0.7,0.4,1.2,0.6
		c0.5,0.3,1,0.5,1.5,0.7c0.4,0.2,0.8,0.5,1.1,0.7s0.5,0.6,0.7,1C454.5,66.9,454.6,67.3,454.6,67.8z"/>
	<path id="XMLID_90_" class="st1" d="M473.8,70.9h-1.5l-2.1-7.8c0-0.1-0.1-0.2-0.1-0.4c0-0.1-0.1-0.3-0.1-0.4c0-0.2-0.1-0.3-0.1-0.5
		c0-0.1-0.1-0.3-0.1-0.4c0,0.1,0,0.2-0.1,0.4c0,0.1-0.1,0.3-0.1,0.5c0,0.2-0.1,0.3-0.1,0.4c0,0.1-0.1,0.3-0.1,0.4l-2.1,7.8h-1.5
		l-3.1-11.7h1.7l1.8,7.7c0,0.1,0,0.2,0.1,0.4c0,0.1,0.1,0.3,0.1,0.4c0,0.2,0.1,0.3,0.1,0.5s0,0.3,0.1,0.4c0-0.1,0-0.2,0.1-0.4
		c0-0.1,0.1-0.3,0.1-0.5c0-0.2,0.1-0.3,0.1-0.4s0.1-0.3,0.1-0.4l2.1-7.7h1.5l2.1,7.7c0,0.1,0.1,0.2,0.1,0.4s0.1,0.3,0.1,0.4
		c0,0.2,0.1,0.3,0.1,0.5c0,0.1,0.1,0.3,0.1,0.4c0-0.1,0-0.2,0.1-0.4c0-0.1,0.1-0.3,0.1-0.5s0.1-0.3,0.1-0.4s0-0.3,0.1-0.4l1.8-7.7
		h1.7L473.8,70.9z"/>
	<path id="XMLID_87_" class="st1" d="M482,55.9c0,0.3-0.1,0.6-0.3,0.8s-0.5,0.3-0.8,0.3c-0.3,0-0.6-0.1-0.9-0.3
		c-0.2-0.2-0.4-0.5-0.4-0.8c0-0.3,0.1-0.6,0.4-0.9c0.2-0.2,0.5-0.3,0.9-0.3c0.3,0,0.6,0.1,0.8,0.3S482,55.6,482,55.9z M479.9,70.9
		V59.2h1.7v11.7H479.9z"/>
	<path id="XMLID_85_" class="st1" d="M487.6,60.6v7.6c0,0.5,0.1,0.9,0.3,1.1s0.5,0.3,0.9,0.3c0.3,0,0.6,0,0.9-0.1
		c0.2-0.1,0.5-0.1,0.8-0.3l-0.1,1.4c-0.3,0.1-0.7,0.2-1,0.3s-0.7,0.1-1.2,0.1c-0.7,0-1.3-0.2-1.7-0.6s-0.6-1.1-0.6-2.1v-7.9h-1.4
		v-1.4h1.4v-3.6l1.7-0.9v4.5h2.9v1.4H487.6z"/>
	<path id="XMLID_83_" class="st1" d="M501,70.9V64c0-1.3-0.2-2.2-0.7-2.8s-1.1-0.9-2.1-0.9c-0.8,0-1.5,0.3-2.1,0.9
		c-0.6,0.6-0.8,1.5-0.8,2.8v6.9h-1.7V55.6l1.7-0.9l0,6c0.3-0.5,0.8-0.9,1.3-1.2s1.2-0.5,1.9-0.5c0.6,0,1.2,0.1,1.7,0.3
		c0.5,0.2,0.9,0.5,1.3,0.9s0.6,0.9,0.8,1.5c0.2,0.6,0.3,1.3,0.3,2.2v7.1H501z"/>
	<path id="XMLID_80_" class="st1" d="M521.7,65c0,1-0.1,1.9-0.4,2.6c-0.3,0.8-0.6,1.4-1.1,1.9c-0.5,0.5-1,0.9-1.6,1.2
		c-0.6,0.3-1.3,0.4-2,0.4s-1.4-0.1-2-0.4s-1.2-0.6-1.6-1.2c-0.4-0.5-0.8-1.1-1.1-1.9c-0.3-0.8-0.4-1.6-0.4-2.6s0.1-1.9,0.4-2.6
		c0.3-0.8,0.6-1.4,1.1-1.9s1-0.9,1.6-1.2c0.6-0.3,1.3-0.4,2-0.4s1.4,0.1,2,0.4c0.6,0.3,1.2,0.6,1.6,1.1c0.4,0.5,0.8,1.1,1.1,1.9
		S521.7,64,521.7,65z M520,65c0-1.6-0.3-2.7-0.9-3.5s-1.4-1.2-2.5-1.2s-1.8,0.4-2.5,1.2c-0.6,0.8-0.9,1.9-0.9,3.5s0.3,2.7,0.9,3.5
		c0.6,0.8,1.4,1.2,2.5,1.2s1.9-0.4,2.5-1.2C519.7,67.7,520,66.6,520,65z"/>
	<path id="XMLID_78_" class="st1" d="M530.8,60.9c-0.2-0.1-0.5-0.2-0.8-0.3c-0.3-0.1-0.6-0.1-1-0.1c-0.8,0-1.4,0.3-1.9,0.9
		s-0.7,1.5-0.7,2.6v6.9h-1.7V59.2h1.7v1.4c0.3-0.5,0.7-0.9,1.2-1.2c0.5-0.3,1.1-0.5,1.7-0.5c0.4,0,0.8,0,1.1,0.1
		c0.3,0.1,0.5,0.1,0.7,0.2L530.8,60.9z"/>
	<path id="XMLID_76_" class="st1" d="M549.9,70.9h-1.5l-2.1-7.8c0-0.1-0.1-0.2-0.1-0.4c0-0.1-0.1-0.3-0.1-0.4c0-0.2-0.1-0.3-0.1-0.5
		c0-0.1-0.1-0.3-0.1-0.4c0,0.1,0,0.2-0.1,0.4c0,0.1-0.1,0.3-0.1,0.5c0,0.2-0.1,0.3-0.1,0.4c0,0.1-0.1,0.3-0.1,0.4l-2.1,7.8h-1.5
		l-3.1-11.7h1.7l1.8,7.7c0,0.1,0,0.2,0.1,0.4c0,0.1,0.1,0.3,0.1,0.4c0,0.2,0.1,0.3,0.1,0.5s0,0.3,0.1,0.4c0-0.1,0-0.2,0.1-0.4
		c0-0.1,0.1-0.3,0.1-0.5c0-0.2,0.1-0.3,0.1-0.4s0.1-0.3,0.1-0.4l2.1-7.7h1.5l2.1,7.7c0,0.1,0.1,0.2,0.1,0.4s0.1,0.3,0.1,0.4
		c0,0.2,0.1,0.3,0.1,0.5c0,0.1,0.1,0.3,0.1,0.4c0-0.1,0-0.2,0.1-0.4c0-0.1,0.1-0.3,0.1-0.5s0.1-0.3,0.1-0.4s0-0.3,0.1-0.4l1.8-7.7
		h1.7L549.9,70.9z"/>
	<path id="XMLID_73_" class="st1" d="M558,55.9c0,0.3-0.1,0.6-0.3,0.8s-0.5,0.3-0.8,0.3c-0.3,0-0.6-0.1-0.9-0.3
		c-0.2-0.2-0.4-0.5-0.4-0.8c0-0.3,0.1-0.6,0.4-0.9c0.2-0.2,0.5-0.3,0.9-0.3c0.3,0,0.6,0.1,0.8,0.3S558,55.6,558,55.9z M556,70.9
		V59.2h1.7v11.7H556z"/>
	<path id="XMLID_71_" class="st1" d="M563.7,60.6v7.6c0,0.5,0.1,0.9,0.3,1.1s0.5,0.3,0.9,0.3c0.3,0,0.6,0,0.9-0.1
		c0.2-0.1,0.5-0.1,0.8-0.3l-0.1,1.4c-0.3,0.1-0.7,0.2-1,0.3s-0.7,0.1-1.2,0.1c-0.7,0-1.3-0.2-1.7-0.6s-0.6-1.1-0.6-2.1v-7.9h-1.4
		v-1.4h1.4v-3.6l1.7-0.9v4.5h2.9v1.4H563.7z"/>
	<path id="XMLID_69_" class="st1" d="M577.1,70.9V64c0-1.3-0.2-2.2-0.7-2.8s-1.1-0.9-2.1-0.9c-0.8,0-1.5,0.3-2.1,0.9
		c-0.6,0.6-0.8,1.5-0.8,2.8v6.9h-1.7V55.6l1.7-0.9l0,6c0.3-0.5,0.8-0.9,1.3-1.2s1.2-0.5,1.9-0.5c0.6,0,1.2,0.1,1.7,0.3
		c0.5,0.2,0.9,0.5,1.3,0.9s0.6,0.9,0.8,1.5c0.2,0.6,0.3,1.3,0.3,2.2v7.1H577.1z"/>
	<path id="XMLID_66_" class="st1" d="M592,65c0,1-0.1,1.9-0.4,2.6c-0.3,0.8-0.6,1.4-1.1,1.9c-0.5,0.5-1,0.9-1.6,1.2
		c-0.6,0.3-1.3,0.4-2,0.4s-1.4-0.1-2-0.4s-1.2-0.6-1.6-1.2c-0.4-0.5-0.8-1.1-1.1-1.9c-0.3-0.8-0.4-1.6-0.4-2.6s0.1-1.9,0.4-2.6
		c0.3-0.8,0.6-1.4,1.1-1.9s1-0.9,1.6-1.2c0.6-0.3,1.3-0.4,2-0.4s1.4,0.1,2,0.4c0.6,0.3,1.2,0.6,1.6,1.1c0.4,0.5,0.8,1.1,1.1,1.9
		S592,64,592,65z M590.3,65c0-1.6-0.3-2.7-0.9-3.5s-1.4-1.2-2.5-1.2s-1.8,0.4-2.5,1.2c-0.6,0.8-0.9,1.9-0.9,3.5s0.3,2.7,0.9,3.5
		c0.6,0.8,1.4,1.2,2.5,1.2s1.9-0.4,2.5-1.2C590,67.7,590.3,66.6,590.3,65z"/>
	<path id="XMLID_64_" class="st1" d="M602.3,70.9v-1.4c-0.3,0.5-0.8,0.9-1.3,1.2c-0.5,0.3-1.2,0.5-1.9,0.5c-0.6,0-1.2-0.1-1.7-0.3
		c-0.5-0.2-0.9-0.5-1.3-0.9c-0.4-0.4-0.6-0.9-0.8-1.5c-0.2-0.6-0.3-1.3-0.3-2.2v-7.1h1.7V66c0,1.3,0.2,2.2,0.7,2.8
		c0.5,0.6,1.1,0.9,2.1,0.9c0.8,0,1.5-0.3,2.1-0.9c0.6-0.6,0.8-1.5,0.8-2.8v-6.9h1.7v11.7H602.3z"/>
	<path id="XMLID_62_" class="st1" d="M609.9,60.6v7.6c0,0.5,0.1,0.9,0.3,1.1s0.5,0.3,0.9,0.3c0.3,0,0.6,0,0.9-0.1
		c0.2-0.1,0.5-0.1,0.8-0.3l-0.1,1.4c-0.3,0.1-0.7,0.2-1,0.3s-0.7,0.1-1.2,0.1c-0.7,0-1.3-0.2-1.7-0.6s-0.6-1.1-0.6-2.1v-7.9h-1.4
		v-1.4h1.4v-3.6l1.7-0.9v4.5h2.9v1.4H609.9z"/>
	<path id="XMLID_60_" class="st1" d="M629,67.8c0,0.6-0.1,1.1-0.3,1.5c-0.2,0.4-0.5,0.8-0.9,1s-0.8,0.5-1.3,0.6
		c-0.5,0.1-1,0.2-1.5,0.2c-0.8,0-1.5-0.1-2.2-0.4c-0.7-0.3-1.3-0.6-1.9-1.1l1-1.2c0.5,0.4,1,0.7,1.5,1c0.5,0.2,1.1,0.3,1.7,0.3
		c0.8,0,1.4-0.2,1.8-0.5c0.4-0.3,0.6-0.8,0.6-1.3c0-0.2,0-0.5-0.1-0.6c-0.1-0.2-0.3-0.4-0.5-0.6c-0.2-0.2-0.5-0.4-0.8-0.6
		c-0.3-0.2-0.8-0.4-1.3-0.6c-0.6-0.3-1.1-0.5-1.5-0.7c-0.4-0.2-0.8-0.5-1-0.7s-0.5-0.6-0.6-0.9s-0.2-0.7-0.2-1.2
		c0-0.4,0.1-0.9,0.3-1.2c0.2-0.4,0.4-0.7,0.8-0.9c0.3-0.3,0.7-0.5,1.1-0.6c0.4-0.1,0.9-0.2,1.5-0.2c0.8,0,1.5,0.1,2.1,0.3
		c0.6,0.2,1.2,0.5,1.6,0.9l-0.9,1.2c-0.5-0.4-0.9-0.6-1.3-0.8c-0.4-0.2-1-0.3-1.6-0.3c-0.6,0-1.1,0.1-1.4,0.4
		c-0.3,0.3-0.5,0.6-0.5,1c0,0.3,0,0.5,0.1,0.6s0.2,0.4,0.4,0.5c0.2,0.2,0.5,0.3,0.8,0.5c0.3,0.2,0.7,0.4,1.2,0.6
		c0.5,0.3,1,0.5,1.5,0.7c0.4,0.2,0.8,0.5,1.1,0.7s0.5,0.6,0.7,1C628.9,66.9,629,67.3,629,67.8z"/>
	<path id="XMLID_57_" class="st1" d="M641.1,64.7c0,0.2,0,0.4,0,0.5s0,0.3-0.1,0.4h-7.8c0.1,1.3,0.4,2.3,1,3
		c0.6,0.7,1.3,1.1,2.3,1.1c0.7,0,1.3-0.1,1.7-0.3c0.5-0.2,1-0.5,1.5-0.8l0.8,1.2c-0.4,0.2-0.7,0.4-1,0.6c-0.3,0.2-0.6,0.3-1,0.4
		c-0.3,0.1-0.7,0.2-1,0.3c-0.4,0.1-0.8,0.1-1.2,0.1c-0.5,0-1.1-0.1-1.6-0.3s-1.1-0.6-1.5-1c-0.5-0.5-0.8-1.1-1.1-1.9
		s-0.5-1.8-0.5-2.9c0-0.9,0.1-1.8,0.4-2.5s0.6-1.4,1-1.9c0.4-0.5,0.9-0.9,1.5-1.2s1.2-0.4,1.9-0.4c0.8,0,1.4,0.1,2,0.4
		s1.1,0.7,1.5,1.2s0.7,1.1,0.9,1.8C641,63.1,641.1,63.9,641.1,64.7z M639.5,64.2c-0.1-1.2-0.4-2.1-0.9-2.8c-0.5-0.7-1.3-1.1-2.3-1.1
		c-0.9,0-1.6,0.3-2.1,1c-0.6,0.6-0.9,1.6-1,2.9H639.5z"/>
	<path id="XMLID_55_" class="st1" d="M651.3,61.5c-0.4-0.4-0.9-0.7-1.3-0.9s-0.9-0.3-1.5-0.3c-0.5,0-0.9,0.1-1.3,0.3
		c-0.4,0.2-0.7,0.5-1,0.9c-0.3,0.4-0.5,0.9-0.7,1.4c-0.2,0.6-0.2,1.2-0.2,1.9c0,1.4,0.3,2.6,0.9,3.5c0.6,0.9,1.4,1.3,2.4,1.3
		c0.6,0,1.1-0.1,1.5-0.3c0.4-0.2,0.8-0.5,1.2-0.9l1,1.1c-0.5,0.5-1,0.9-1.6,1.2c-0.6,0.3-1.3,0.4-2.1,0.4c-0.6,0-1.3-0.1-1.8-0.4
		c-0.6-0.2-1.1-0.6-1.6-1.1c-0.5-0.5-0.8-1.1-1.1-1.9c-0.3-0.8-0.4-1.6-0.4-2.7c0-1.1,0.1-2,0.4-2.8c0.3-0.8,0.7-1.4,1.2-1.9
		s1-0.9,1.6-1.1s1.2-0.4,1.8-0.4c0.8,0,1.5,0.1,2.1,0.4c0.6,0.3,1.1,0.6,1.6,1L651.3,61.5z"/>
	<path id="XMLID_52_" class="st1" d="M664.8,65c0,1-0.1,1.9-0.4,2.6c-0.3,0.8-0.6,1.4-1.1,1.9c-0.5,0.5-1,0.9-1.6,1.2
		c-0.6,0.3-1.3,0.4-2,0.4s-1.4-0.1-2-0.4s-1.2-0.6-1.6-1.2c-0.4-0.5-0.8-1.1-1.1-1.9c-0.3-0.8-0.4-1.6-0.4-2.6s0.1-1.9,0.4-2.6
		c0.3-0.8,0.6-1.4,1.1-1.9s1-0.9,1.6-1.2c0.6-0.3,1.3-0.4,2-0.4s1.4,0.1,2,0.4c0.6,0.3,1.2,0.6,1.6,1.1c0.4,0.5,0.8,1.1,1.1,1.9
		S664.8,64,664.8,65z M663.1,65c0-1.6-0.3-2.7-0.9-3.5s-1.4-1.2-2.5-1.2s-1.8,0.4-2.5,1.2c-0.6,0.8-0.9,1.9-0.9,3.5s0.3,2.7,0.9,3.5
		c0.6,0.8,1.4,1.2,2.5,1.2s1.9-0.4,2.5-1.2C662.8,67.7,663.1,66.6,663.1,65z"/>
	<path id="XMLID_50_" class="st1" d="M675.2,70.9V64c0-1.3-0.2-2.2-0.7-2.8s-1.1-0.9-2.1-0.9c-0.8,0-1.5,0.3-2.1,0.9
		c-0.6,0.6-0.8,1.5-0.8,2.8v6.9h-1.7V59.2h1.7l0,1.4c0.3-0.5,0.8-0.9,1.3-1.2s1.2-0.5,1.9-0.5c0.6,0,1.2,0.1,1.7,0.3
		c0.5,0.2,0.9,0.5,1.3,0.9s0.6,0.9,0.8,1.5c0.2,0.6,0.3,1.3,0.3,2.2v7.1H675.2z"/>
	<path id="XMLID_47_" class="st1" d="M687.6,70.9v-1.4c-0.4,0.4-0.9,0.8-1.5,1.2s-1.2,0.5-2.1,0.5c-0.6,0-1.1-0.1-1.6-0.3
		c-0.5-0.2-1-0.6-1.3-1.1c-0.4-0.5-0.7-1.1-0.9-1.8c-0.2-0.8-0.3-1.6-0.3-2.7c0-1,0.1-2,0.3-2.7s0.5-1.4,0.9-2
		c0.4-0.5,0.9-0.9,1.4-1.2c0.5-0.3,1.1-0.4,1.7-0.4c0.7,0,1.4,0.1,1.9,0.4c0.5,0.3,1,0.7,1.4,1.1v-4.9l1.7-0.9v16.3H687.6z
		 M687.6,62.1c-0.3-0.5-0.8-0.9-1.3-1.3c-0.5-0.3-1.2-0.5-1.9-0.5c-1,0-1.7,0.4-2.2,1.2s-0.7,2-0.7,3.6c0,1.5,0.3,2.6,0.8,3.4
		c0.5,0.8,1.2,1.1,2.2,1.1c0.6,0,1.2-0.2,1.7-0.5s1-0.7,1.4-1.2V62.1z"/>
	<path id="XMLID_44_" class="st1" d="M699.7,70.9v-1.4c-0.4,0.4-0.9,0.8-1.5,1.2c-0.6,0.3-1.3,0.5-2.2,0.5c-0.5,0-0.9-0.1-1.4-0.2
		c-0.4-0.1-0.8-0.3-1.2-0.6c-0.4-0.3-0.6-0.7-0.9-1.1c-0.2-0.5-0.3-1.1-0.3-1.8c0-0.7,0.1-1.2,0.4-1.7s0.6-0.9,1-1.2
		c0.4-0.3,0.9-0.5,1.4-0.7c0.5-0.1,1.1-0.2,1.7-0.2c0.6,0,1.1,0.1,1.6,0.2c0.5,0.1,0.9,0.3,1.3,0.5v-1.4c0-1.7-0.8-2.6-2.5-2.6
		c-0.6,0-1.2,0.1-1.7,0.2c-0.5,0.2-1,0.4-1.5,0.7l-0.6-1.4c0.5-0.3,1.1-0.5,1.8-0.7s1.4-0.3,2.1-0.3c1.3,0,2.3,0.3,3,0.9
		c0.7,0.6,1.1,1.6,1.1,2.9v8.2H699.7z M699.7,65.6c-0.4-0.2-0.8-0.4-1.3-0.5c-0.5-0.1-1-0.2-1.7-0.2c-0.9,0-1.5,0.2-2,0.6
		c-0.5,0.4-0.7,1-0.7,1.7c0,0.9,0.2,1.5,0.7,1.9c0.4,0.4,1,0.6,1.7,0.6c0.8,0,1.4-0.2,2-0.5c0.6-0.3,1-0.8,1.4-1.2V65.6z"/>
	<path id="XMLID_42_" class="st1" d="M711,60.9c-0.2-0.1-0.5-0.2-0.8-0.3c-0.3-0.1-0.6-0.1-1-0.1c-0.8,0-1.4,0.3-1.9,0.9
		s-0.7,1.5-0.7,2.6v6.9H705V59.2h1.7v1.4c0.3-0.5,0.7-0.9,1.2-1.2c0.5-0.3,1.1-0.5,1.7-0.5c0.4,0,0.8,0,1.1,0.1
		c0.3,0.1,0.5,0.1,0.7,0.2L711,60.9z"/>
	<path id="XMLID_40_" class="st1" d="M717.3,75h-1.7l1.6-4.3l-4.2-11.6h1.8l2.9,8.5l0.4,1.2l0.4-1.2l2.9-8.5h1.8L717.3,75z"/>
	<path id="XMLID_37_" class="st1" d="M740.5,69.8c0,0.9-0.1,1.6-0.3,2.3c-0.2,0.7-0.5,1.2-1,1.6c-0.5,0.4-1.1,0.8-1.8,1
		s-1.7,0.4-2.8,0.4l-0.5-1.3c1,0,1.8-0.1,2.4-0.3c0.6-0.1,1.1-0.4,1.5-0.7c0.4-0.3,0.6-0.7,0.7-1.2c0.1-0.5,0.2-1.1,0.2-1.7v-0.6
		c-0.4,0.4-0.9,0.8-1.5,1.2s-1.2,0.5-2.1,0.5c-0.6,0-1.1-0.1-1.6-0.3c-0.5-0.2-1-0.6-1.3-1.1c-0.4-0.5-0.7-1.1-0.9-1.8
		c-0.2-0.8-0.3-1.6-0.3-2.7c0-1,0.1-2,0.3-2.7s0.5-1.4,0.9-2c0.4-0.5,0.9-0.9,1.4-1.2c0.5-0.3,1.1-0.4,1.7-0.4
		c0.7,0,1.4,0.1,1.9,0.4c0.5,0.3,1,0.7,1.4,1.1v-1.3h1.7V69.8z M738.8,62.1c-0.3-0.5-0.8-0.9-1.3-1.3c-0.5-0.3-1.2-0.5-1.9-0.5
		c-1,0-1.7,0.4-2.2,1.2s-0.7,2-0.7,3.6c0,1.5,0.3,2.6,0.8,3.4c0.5,0.8,1.2,1.1,2.2,1.1c0.6,0,1.2-0.2,1.7-0.5s1-0.7,1.4-1.2V62.1z"
		/>
	<path id="XMLID_34_" class="st1" d="M753.1,64.7c0,0.2,0,0.4,0,0.5s0,0.3-0.1,0.4h-7.8c0.1,1.3,0.4,2.3,1,3
		c0.6,0.7,1.3,1.1,2.3,1.1c0.7,0,1.3-0.1,1.7-0.3c0.5-0.2,1-0.5,1.5-0.8l0.8,1.2c-0.4,0.2-0.7,0.4-1,0.6c-0.3,0.2-0.6,0.3-1,0.4
		c-0.3,0.1-0.7,0.2-1,0.3c-0.4,0.1-0.8,0.1-1.2,0.1c-0.5,0-1.1-0.1-1.6-0.3s-1.1-0.6-1.5-1c-0.5-0.5-0.8-1.1-1.1-1.9
		s-0.5-1.8-0.5-2.9c0-0.9,0.1-1.8,0.4-2.5s0.6-1.4,1-1.9c0.4-0.5,0.9-0.9,1.5-1.2s1.2-0.4,1.9-0.4c0.8,0,1.4,0.1,2,0.4
		s1.1,0.7,1.5,1.2s0.7,1.1,0.9,1.8C753,63.1,753.1,63.9,753.1,64.7z M751.5,64.2c-0.1-1.2-0.4-2.1-0.9-2.8c-0.5-0.7-1.3-1.1-2.3-1.1
		c-0.9,0-1.6,0.3-2.1,1c-0.6,0.6-0.9,1.6-1,2.9H751.5z"/>
	<path id="XMLID_32_" class="st1" d="M763.5,70.9V64c0-1.3-0.2-2.2-0.7-2.8s-1.1-0.9-2.1-0.9c-0.8,0-1.5,0.3-2.1,0.9
		c-0.6,0.6-0.8,1.5-0.8,2.8v6.9h-1.7V59.2h1.7l0,1.4c0.3-0.5,0.8-0.9,1.3-1.2s1.2-0.5,1.9-0.5c0.6,0,1.2,0.1,1.7,0.3
		c0.5,0.2,0.9,0.5,1.3,0.9s0.6,0.9,0.8,1.5c0.2,0.6,0.3,1.3,0.3,2.2v7.1H763.5z"/>
	<path id="XMLID_29_" class="st1" d="M777.7,64.7c0,0.2,0,0.4,0,0.5s0,0.3-0.1,0.4h-7.8c0.1,1.3,0.4,2.3,1,3
		c0.6,0.7,1.3,1.1,2.3,1.1c0.7,0,1.3-0.1,1.7-0.3c0.5-0.2,1-0.5,1.5-0.8l0.8,1.2c-0.4,0.2-0.7,0.4-1,0.6c-0.3,0.2-0.6,0.3-1,0.4
		c-0.3,0.1-0.7,0.2-1,0.3c-0.4,0.1-0.8,0.1-1.2,0.1c-0.5,0-1.1-0.1-1.6-0.3s-1.1-0.6-1.5-1c-0.5-0.5-0.8-1.1-1.1-1.9
		s-0.5-1.8-0.5-2.9c0-0.9,0.1-1.8,0.4-2.5s0.6-1.4,1-1.9c0.4-0.5,0.9-0.9,1.5-1.2s1.2-0.4,1.9-0.4c0.8,0,1.4,0.1,2,0.4
		s1.1,0.7,1.5,1.2s0.7,1.1,0.9,1.8C777.6,63.1,777.7,63.9,777.7,64.7z M776.2,64.2c-0.1-1.2-0.4-2.1-0.9-2.8
		c-0.5-0.7-1.3-1.1-2.3-1.1c-0.9,0-1.6,0.3-2.1,1c-0.6,0.6-0.9,1.6-1,2.9H776.2z"/>
	<path id="XMLID_27_" class="st1" d="M786.9,60.9c-0.2-0.1-0.5-0.2-0.8-0.3c-0.3-0.1-0.6-0.1-1-0.1c-0.8,0-1.4,0.3-1.9,0.9
		s-0.7,1.5-0.7,2.6v6.9h-1.7V59.2h1.7v1.4c0.3-0.5,0.7-0.9,1.2-1.2c0.5-0.3,1.1-0.5,1.7-0.5c0.4,0,0.8,0,1.1,0.1
		c0.3,0.1,0.5,0.1,0.7,0.2L786.9,60.9z"/>
	<path id="XMLID_24_" class="st1" d="M796.7,70.9v-1.4c-0.4,0.4-0.9,0.8-1.5,1.2c-0.6,0.3-1.3,0.5-2.2,0.5c-0.5,0-0.9-0.1-1.4-0.2
		c-0.4-0.1-0.8-0.3-1.2-0.6c-0.4-0.3-0.6-0.7-0.9-1.1c-0.2-0.5-0.3-1.1-0.3-1.8c0-0.7,0.1-1.2,0.4-1.7s0.6-0.9,1-1.2
		c0.4-0.3,0.9-0.5,1.4-0.7c0.5-0.1,1.1-0.2,1.7-0.2c0.6,0,1.1,0.1,1.6,0.2c0.5,0.1,0.9,0.3,1.3,0.5v-1.4c0-1.7-0.8-2.6-2.5-2.6
		c-0.6,0-1.2,0.1-1.7,0.2c-0.5,0.2-1,0.4-1.5,0.7l-0.6-1.4c0.5-0.3,1.1-0.5,1.8-0.7s1.4-0.3,2.1-0.3c1.3,0,2.3,0.3,3,0.9
		c0.7,0.6,1.1,1.6,1.1,2.9v8.2H796.7z M796.7,65.6c-0.4-0.2-0.8-0.4-1.3-0.5c-0.5-0.1-1-0.2-1.7-0.2c-0.9,0-1.5,0.2-2,0.6
		c-0.5,0.4-0.7,1-0.7,1.7c0,0.9,0.2,1.5,0.7,1.9c0.4,0.4,1,0.6,1.7,0.6c0.8,0,1.4-0.2,2-0.5c0.6-0.3,1-0.8,1.4-1.2V65.6z"/>
	<path id="XMLID_22_" class="st1" d="M802.1,70.9V55.6l1.7-0.9v16.3H802.1z"/>
	<path id="XMLID_19_" class="st1" d="M809.7,55.9c0,0.3-0.1,0.6-0.3,0.8s-0.5,0.3-0.8,0.3c-0.3,0-0.6-0.1-0.9-0.3
		c-0.2-0.2-0.4-0.5-0.4-0.8c0-0.3,0.1-0.6,0.4-0.9c0.2-0.2,0.5-0.3,0.9-0.3c0.3,0,0.6,0.1,0.8,0.3S809.7,55.6,809.7,55.9z
		 M807.7,70.9V59.2h1.7v11.7H807.7z"/>
	<path id="XMLID_17_" class="st1" d="M812.5,70.9v-1.2l6.4-9.1H813v-1.4h7.8v1.2l-6.4,9.1h6.4v1.4H812.5z"/>
	<path id="XMLID_14_" class="st1" d="M830.8,70.9v-1.4c-0.4,0.4-0.9,0.8-1.5,1.2c-0.6,0.3-1.3,0.5-2.2,0.5c-0.5,0-0.9-0.1-1.4-0.2
		c-0.4-0.1-0.8-0.3-1.2-0.6c-0.4-0.3-0.6-0.7-0.9-1.1c-0.2-0.5-0.3-1.1-0.3-1.8c0-0.7,0.1-1.2,0.4-1.7s0.6-0.9,1-1.2
		c0.4-0.3,0.9-0.5,1.4-0.7c0.5-0.1,1.1-0.2,1.7-0.2c0.6,0,1.1,0.1,1.6,0.2c0.5,0.1,0.9,0.3,1.3,0.5v-1.4c0-1.7-0.8-2.6-2.5-2.6
		c-0.6,0-1.2,0.1-1.7,0.2c-0.5,0.2-1,0.4-1.5,0.7l-0.6-1.4c0.5-0.3,1.1-0.5,1.8-0.7s1.4-0.3,2.1-0.3c1.3,0,2.3,0.3,3,0.9
		c0.7,0.6,1.1,1.6,1.1,2.9v8.2H830.8z M830.8,65.6c-0.4-0.2-0.8-0.4-1.3-0.5c-0.5-0.1-1-0.2-1.7-0.2c-0.9,0-1.5,0.2-2,0.6
		c-0.5,0.4-0.7,1-0.7,1.7c0,0.9,0.2,1.5,0.7,1.9c0.4,0.4,1,0.6,1.7,0.6c0.8,0,1.4-0.2,2-0.5c0.6-0.3,1-0.8,1.4-1.2V65.6z"/>
	<path id="XMLID_12_" class="st1" d="M838.3,60.6v7.6c0,0.5,0.1,0.9,0.3,1.1s0.5,0.3,0.9,0.3c0.3,0,0.6,0,0.9-0.1
		c0.2-0.1,0.5-0.1,0.8-0.3l-0.1,1.4c-0.3,0.1-0.7,0.2-1,0.3s-0.7,0.1-1.2,0.1c-0.7,0-1.3-0.2-1.7-0.6s-0.6-1.1-0.6-2.1v-7.9h-1.4
		v-1.4h1.4v-3.6l1.7-0.9v4.5h2.9v1.4H838.3z"/>
	<path id="XMLID_9_" class="st1" d="M846.6,55.9c0,0.3-0.1,0.6-0.3,0.8s-0.5,0.3-0.8,0.3c-0.3,0-0.6-0.1-0.9-0.3
		c-0.2-0.2-0.4-0.5-0.4-0.8c0-0.3,0.1-0.6,0.4-0.9c0.2-0.2,0.5-0.3,0.9-0.3c0.3,0,0.6,0.1,0.8,0.3S846.6,55.6,846.6,55.9z
		 M844.5,70.9V59.2h1.7v11.7H844.5z"/>
	<path id="XMLID_6_" class="st1" d="M859.6,65c0,1-0.1,1.9-0.4,2.6c-0.3,0.8-0.6,1.4-1.1,1.9c-0.5,0.5-1,0.9-1.6,1.2
		c-0.6,0.3-1.3,0.4-2,0.4s-1.4-0.1-2-0.4s-1.2-0.6-1.6-1.2c-0.4-0.5-0.8-1.1-1.1-1.9c-0.3-0.8-0.4-1.6-0.4-2.6s0.1-1.9,0.4-2.6
		c0.3-0.8,0.6-1.4,1.1-1.9s1-0.9,1.6-1.2c0.6-0.3,1.3-0.4,2-0.4s1.4,0.1,2,0.4c0.6,0.3,1.2,0.6,1.6,1.1c0.4,0.5,0.8,1.1,1.1,1.9
		S859.6,64,859.6,65z M857.9,65c0-1.6-0.3-2.7-0.9-3.5s-1.4-1.2-2.5-1.2s-1.8,0.4-2.5,1.2c-0.6,0.8-0.9,1.9-0.9,3.5s0.3,2.7,0.9,3.5
		c0.6,0.8,1.4,1.2,2.5,1.2s1.9-0.4,2.5-1.2C857.6,67.7,857.9,66.6,857.9,65z"/>
	<path id="XMLID_4_" class="st1" d="M870,70.9V64c0-1.3-0.2-2.2-0.7-2.8s-1.1-0.9-2.1-0.9c-0.8,0-1.5,0.3-2.1,0.9
		c-0.6,0.6-0.8,1.5-0.8,2.8v6.9h-1.7V59.2h1.7l0,1.4c0.3-0.5,0.8-0.9,1.3-1.2s1.2-0.5,1.9-0.5c0.6,0,1.2,0.1,1.7,0.3
		c0.5,0.2,0.9,0.5,1.3,0.9s0.6,0.9,0.8,1.5c0.2,0.6,0.3,1.3,0.3,2.2v7.1H870z"/>
	<path id="XMLID_2_" class="st1" d="M877.5,69.7c0,0.4-0.1,0.7-0.4,1s-0.6,0.4-1,0.4s-0.7-0.1-1-0.4s-0.4-0.6-0.4-1
		c0-0.4,0.1-0.7,0.4-1c0.3-0.3,0.6-0.4,1-0.4s0.7,0.1,1,0.4C877.4,69,877.5,69.3,877.5,69.7z"/>
</g>
</svg>
