<!-- Generator: Adobe Illustrator 22.1.0, SVG Export Plug-In  -->
<svg version="1.1"
	 xmlns="http://www.w3.org/2000/svg" xmlns:xlink="http://www.w3.org/1999/xlink" xmlns:a="http://ns.adobe.com/AdobeSVGViewerExtensions/3.0/"
	 x="0px" y="0px" width="402.1px" height="148.3px" viewBox="0 0 402.1 148.3" style="enable-background:new 0 0 402.1 148.3;"
	 xml:space="preserve">
<style type="text/css">
	.st0{fill:#532D6D;}
	.st1{fill:#FFFFFF;}
	.st2{font-family:'Interstate-Bold';}
	.st3{font-size:23.8444px;}
	.st4{font-family:'Interstate-Light';}
	.st5{fill:none;stroke:#532D6D;stroke-width:1.6234;}
</style>
<defs>
</defs>
<rect id="XMLID_201_" x="0.9" y="0.8" class="st0" width="165.4" height="28.3"/>
<g id="XMLID_199_">
	<text transform="matrix(1 0 0 1 6.6149 22.2554)" class="st1 st2 st3">Study design:</text>
	<text transform="matrix(0.9156 0 0 1 141.0475 22.2554)" class="st0 st4 st3"> </text>
</g>
<rect id="XMLID_198_" x="0.8" y="0.8" class="st5" width="400.5" height="146.7"/>
<g id="XMLID_1_">
	<path id="XMLID_196_" class="st0" d="M7.8,70.3c0-1,0.2-1.8,0.4-2.6c0.3-0.7,0.6-1.4,1-2c0.4-0.6,0.9-1.1,1.5-1.6
		c0.6-0.5,1.3-1,2-1.5c0.7-0.5,1.2-0.9,1.7-1.2c0.4-0.3,0.8-0.7,1-1c0.3-0.3,0.4-0.6,0.5-0.9c0.1-0.3,0.1-0.6,0.1-1
		c0-0.8-0.3-1.4-0.8-1.9C14.8,56.3,14,56,13,56c-0.9,0-1.6,0.1-2.2,0.4s-1.1,0.6-1.6,1l-1-1.3c0.3-0.3,0.6-0.5,1-0.7
		c0.3-0.2,0.7-0.4,1.1-0.6c0.4-0.2,0.8-0.3,1.3-0.4c0.5-0.1,1-0.1,1.5-0.1c0.7,0,1.3,0.1,1.9,0.2c0.6,0.2,1.1,0.4,1.5,0.7
		c0.4,0.3,0.8,0.8,1,1.3s0.4,1.1,0.4,1.8c0,0.6-0.1,1.1-0.2,1.5c-0.1,0.4-0.4,0.8-0.7,1.2c-0.3,0.4-0.7,0.8-1.2,1.1
		c-0.5,0.4-1.1,0.8-1.8,1.3c-0.8,0.5-1.4,1-2,1.4c-0.5,0.4-0.9,0.8-1.2,1.2s-0.5,0.8-0.7,1.1c-0.1,0.4-0.3,0.8-0.3,1.2H18v1.6H7.8z"
		/>
	<path id="XMLID_193_" class="st0" d="M32.6,62.5c0,1.3-0.1,2.4-0.4,3.4c-0.3,1-0.7,1.8-1.2,2.5c-0.5,0.7-1.1,1.2-1.8,1.5
		c-0.7,0.4-1.5,0.5-2.4,0.5c-0.9,0-1.7-0.2-2.4-0.5s-1.3-0.9-1.8-1.5c-0.5-0.7-0.9-1.5-1.2-2.5c-0.3-1-0.4-2.2-0.4-3.4
		s0.1-2.4,0.4-3.4c0.3-1,0.7-1.8,1.2-2.5c0.5-0.7,1.1-1.2,1.8-1.5s1.5-0.5,2.4-0.5c0.9,0,1.7,0.2,2.4,0.5c0.7,0.4,1.3,0.9,1.8,1.5
		c0.5,0.7,0.9,1.5,1.2,2.5C32.5,60,32.6,61.2,32.6,62.5z M30.9,62.5c0-2-0.3-3.6-1-4.7c-0.7-1.1-1.7-1.7-3.1-1.7s-2.4,0.6-3.1,1.7
		s-1,2.7-1,4.7c0,2,0.3,3.6,1,4.7c0.7,1.1,1.7,1.7,3.1,1.7s2.4-0.6,3.1-1.7C30.5,66.1,30.9,64.5,30.9,62.5z"/>
	<path id="XMLID_191_" class="st0" d="M51.9,70.3h-1.5l-2.1-7.8c0-0.1-0.1-0.2-0.1-0.4c0-0.1-0.1-0.3-0.1-0.4c0-0.2-0.1-0.3-0.1-0.5
		c0-0.1-0.1-0.3-0.1-0.4c0,0.1,0,0.2-0.1,0.4c0,0.1-0.1,0.3-0.1,0.5s-0.1,0.3-0.1,0.4c0,0.1-0.1,0.3-0.1,0.4l-2.1,7.8h-1.5
		l-3.1-11.7h1.7l1.8,7.7c0,0.1,0,0.2,0.1,0.4c0,0.1,0.1,0.3,0.1,0.4c0,0.2,0.1,0.3,0.1,0.5s0,0.3,0.1,0.4c0-0.1,0-0.2,0.1-0.4
		c0-0.1,0.1-0.3,0.1-0.5c0-0.2,0.1-0.3,0.1-0.4c0-0.1,0.1-0.3,0.1-0.4l2.1-7.7h1.5l2.1,7.7c0,0.1,0.1,0.2,0.1,0.4
		c0,0.1,0.1,0.3,0.1,0.4c0,0.2,0.1,0.3,0.1,0.5c0,0.1,0.1,0.3,0.1,0.4c0-0.1,0-0.2,0.1-0.4c0-0.1,0.1-0.3,0.1-0.5s0.1-0.3,0.1-0.4
		c0-0.1,0-0.3,0.1-0.4l1.8-7.7H55L51.9,70.3z"/>
	<path id="XMLID_188_" class="st0" d="M66.7,64.1c0,0.2,0,0.4,0,0.5s0,0.3-0.1,0.4h-7.8c0.1,1.3,0.4,2.3,1,3
		c0.6,0.7,1.3,1.1,2.3,1.1c0.7,0,1.3-0.1,1.7-0.3c0.5-0.2,1-0.5,1.5-0.8l0.8,1.2c-0.4,0.2-0.7,0.4-1,0.6c-0.3,0.2-0.6,0.3-1,0.4
		s-0.7,0.2-1,0.3s-0.8,0.1-1.2,0.1c-0.5,0-1.1-0.1-1.6-0.3c-0.6-0.2-1.1-0.6-1.5-1c-0.5-0.5-0.8-1.1-1.1-1.9
		c-0.3-0.8-0.5-1.8-0.5-2.9c0-0.9,0.1-1.8,0.4-2.5c0.2-0.7,0.6-1.4,1-1.9c0.4-0.5,0.9-0.9,1.5-1.2c0.6-0.3,1.2-0.4,1.9-0.4
		c0.8,0,1.4,0.1,2,0.4c0.6,0.3,1.1,0.7,1.5,1.2s0.7,1.1,0.9,1.8C66.6,62.5,66.7,63.3,66.7,64.1z M65.2,63.6
		c-0.1-1.2-0.4-2.1-0.9-2.8c-0.5-0.7-1.3-1.1-2.3-1.1c-0.9,0-1.6,0.3-2.1,1c-0.6,0.6-0.9,1.6-1,2.9H65.2z"/>
	<path id="XMLID_185_" class="st0" d="M78.8,64.1c0,0.2,0,0.4,0,0.5s0,0.3-0.1,0.4H71c0.1,1.3,0.4,2.3,1,3c0.6,0.7,1.3,1.1,2.3,1.1
		c0.7,0,1.3-0.1,1.7-0.3c0.5-0.2,1-0.5,1.5-0.8l0.8,1.2c-0.4,0.2-0.7,0.4-1,0.6c-0.3,0.2-0.6,0.3-1,0.4s-0.7,0.2-1,0.3
		s-0.8,0.1-1.2,0.1c-0.5,0-1.1-0.1-1.6-0.3c-0.6-0.2-1.1-0.6-1.5-1c-0.5-0.5-0.8-1.1-1.1-1.9c-0.3-0.8-0.5-1.8-0.5-2.9
		c0-0.9,0.1-1.8,0.4-2.5c0.2-0.7,0.6-1.4,1-1.9c0.4-0.5,0.9-0.9,1.5-1.2c0.6-0.3,1.2-0.4,1.9-0.4c0.8,0,1.4,0.1,2,0.4
		c0.6,0.3,1.1,0.7,1.5,1.2s0.7,1.1,0.9,1.8C78.7,62.5,78.8,63.3,78.8,64.1z M77.2,63.6c-0.1-1.2-0.4-2.1-0.9-2.8
		c-0.5-0.7-1.3-1.1-2.3-1.1c-0.9,0-1.6,0.3-2.1,1c-0.6,0.6-0.9,1.6-1,2.9H77.2z"/>
	<path id="XMLID_183_" class="st0" d="M88.6,70.3l-3-6.2l-2,2.8v3.4h-1.7V55l1.7-0.9v10.1v0.6l0.5-0.7l3.8-5.4h1.9l-3.1,4.1l3.7,7.6
		H88.6z"/>
	<path id="XMLID_181_" class="st0" d="M100.4,67.2c0,0.6-0.1,1.1-0.3,1.5c-0.2,0.4-0.5,0.8-0.9,1s-0.8,0.5-1.3,0.6
		c-0.5,0.1-1,0.2-1.5,0.2c-0.8,0-1.5-0.1-2.2-0.4c-0.7-0.3-1.3-0.6-1.9-1.1l1-1.2c0.5,0.4,1,0.7,1.5,1c0.5,0.2,1.1,0.3,1.7,0.3
		c0.8,0,1.4-0.2,1.8-0.5c0.4-0.3,0.6-0.8,0.6-1.3c0-0.2,0-0.5-0.1-0.6c-0.1-0.2-0.3-0.4-0.5-0.6c-0.2-0.2-0.5-0.4-0.8-0.6
		c-0.3-0.2-0.8-0.4-1.3-0.6c-0.6-0.3-1.1-0.5-1.5-0.7c-0.4-0.2-0.8-0.5-1-0.7s-0.5-0.6-0.6-0.9c-0.1-0.3-0.2-0.7-0.2-1.2
		c0-0.4,0.1-0.9,0.3-1.2c0.2-0.4,0.4-0.7,0.8-0.9c0.3-0.3,0.7-0.5,1.1-0.6c0.4-0.1,0.9-0.2,1.5-0.2c0.8,0,1.5,0.1,2.1,0.3
		s1.2,0.5,1.6,0.9l-0.9,1.2c-0.5-0.4-0.9-0.6-1.3-0.8c-0.4-0.2-1-0.3-1.6-0.3c-0.6,0-1.1,0.1-1.4,0.4c-0.3,0.3-0.5,0.6-0.5,1
		c0,0.3,0,0.5,0.1,0.6c0.1,0.2,0.2,0.4,0.4,0.5c0.2,0.2,0.5,0.3,0.8,0.5c0.3,0.2,0.7,0.4,1.2,0.6c0.5,0.3,1,0.5,1.5,0.7
		s0.8,0.5,1.1,0.7c0.3,0.3,0.5,0.6,0.7,1C100.3,66.3,100.4,66.7,100.4,67.2z"/>
	<path id="XMLID_179_" class="st0" d="M116.1,60.3c-0.2-0.1-0.5-0.2-0.8-0.3c-0.3-0.1-0.6-0.1-1-0.1c-0.8,0-1.4,0.3-1.9,0.9
		c-0.4,0.6-0.7,1.5-0.7,2.6v6.9h-1.7V58.6h1.7V60c0.3-0.5,0.7-0.9,1.2-1.2s1.1-0.5,1.7-0.5c0.4,0,0.8,0,1.1,0.1
		c0.3,0.1,0.5,0.1,0.7,0.2L116.1,60.3z"/>
	<path id="XMLID_176_" class="st0" d="M125.8,70.3v-1.4c-0.4,0.4-0.9,0.8-1.5,1.2c-0.6,0.3-1.3,0.5-2.2,0.5c-0.5,0-0.9-0.1-1.4-0.2
		c-0.4-0.1-0.8-0.3-1.2-0.6s-0.6-0.7-0.9-1.1c-0.2-0.5-0.3-1.1-0.3-1.8c0-0.7,0.1-1.2,0.4-1.7c0.3-0.5,0.6-0.9,1-1.2
		c0.4-0.3,0.9-0.5,1.4-0.7c0.5-0.1,1.1-0.2,1.7-0.2c0.6,0,1.1,0.1,1.6,0.2c0.5,0.1,0.9,0.3,1.3,0.5v-1.4c0-1.7-0.8-2.6-2.5-2.6
		c-0.6,0-1.2,0.1-1.7,0.2c-0.5,0.2-1,0.4-1.5,0.7l-0.6-1.4c0.5-0.3,1.1-0.5,1.8-0.7c0.7-0.2,1.4-0.3,2.1-0.3c1.3,0,2.3,0.3,3,0.9
		c0.7,0.6,1.1,1.6,1.1,2.9v8.2H125.8z M125.8,65.1c-0.4-0.2-0.8-0.4-1.3-0.5c-0.5-0.1-1-0.2-1.7-0.2c-0.9,0-1.5,0.2-2,0.6
		s-0.7,1-0.7,1.7c0,0.9,0.2,1.5,0.7,1.9c0.4,0.4,1,0.6,1.7,0.6c0.8,0,1.4-0.2,2-0.5s1-0.8,1.4-1.2V65.1z"/>
	<path id="XMLID_174_" class="st0" d="M138.5,70.3v-6.9c0-1.3-0.2-2.2-0.7-2.8c-0.5-0.6-1.1-0.9-2.1-0.9c-0.8,0-1.5,0.3-2.1,0.9
		c-0.6,0.6-0.8,1.5-0.8,2.8v6.9h-1.7V58.6h1.7l0,1.4c0.3-0.5,0.8-0.9,1.3-1.2c0.5-0.3,1.2-0.5,1.9-0.5c0.6,0,1.2,0.1,1.7,0.3
		c0.5,0.2,0.9,0.5,1.3,0.9c0.4,0.4,0.6,0.9,0.8,1.5c0.2,0.6,0.3,1.3,0.3,2.2v7.1H138.5z"/>
	<path id="XMLID_171_" class="st0" d="M150.9,70.3v-1.4c-0.4,0.4-0.9,0.8-1.5,1.2c-0.6,0.3-1.2,0.5-2.1,0.5c-0.6,0-1.1-0.1-1.6-0.3
		c-0.5-0.2-1-0.6-1.3-1.1c-0.4-0.5-0.7-1.1-0.9-1.8c-0.2-0.8-0.3-1.6-0.3-2.7c0-1,0.1-2,0.3-2.7s0.5-1.4,0.9-2
		c0.4-0.5,0.9-0.9,1.4-1.2c0.5-0.3,1.1-0.4,1.7-0.4c0.7,0,1.4,0.1,1.9,0.4c0.5,0.3,1,0.7,1.4,1.1V55l1.7-0.9v16.3H150.9z
		 M150.9,61.5c-0.3-0.5-0.8-0.9-1.3-1.3c-0.5-0.3-1.2-0.5-1.9-0.5c-1,0-1.7,0.4-2.2,1.2s-0.7,2-0.7,3.6c0,1.5,0.3,2.6,0.8,3.4
		c0.5,0.8,1.2,1.1,2.2,1.1c0.6,0,1.2-0.2,1.7-0.5c0.5-0.3,1-0.7,1.4-1.2V61.5z"/>
	<path id="XMLID_168_" class="st0" d="M165.8,64.4c0,1-0.1,1.9-0.4,2.6c-0.3,0.8-0.6,1.4-1.1,1.9c-0.5,0.5-1,0.9-1.6,1.2
		c-0.6,0.3-1.3,0.4-2,0.4s-1.4-0.1-2-0.4s-1.2-0.6-1.6-1.2c-0.4-0.5-0.8-1.1-1.1-1.9c-0.3-0.8-0.4-1.6-0.4-2.6c0-1,0.1-1.9,0.4-2.6
		s0.6-1.4,1.1-1.9s1-0.9,1.6-1.2c0.6-0.3,1.3-0.4,2-0.4s1.4,0.1,2,0.4c0.6,0.3,1.2,0.6,1.6,1.1c0.4,0.5,0.8,1.1,1.1,1.9
		S165.8,63.4,165.8,64.4z M164.1,64.4c0-1.6-0.3-2.7-0.9-3.5c-0.6-0.8-1.4-1.2-2.5-1.2s-1.8,0.4-2.5,1.2c-0.6,0.8-0.9,1.9-0.9,3.5
		s0.3,2.7,0.9,3.5c0.6,0.8,1.4,1.2,2.5,1.2s1.9-0.4,2.5-1.2C163.8,67.1,164.1,66,164.1,64.4z"/>
	<path id="XMLID_166_" class="st0" d="M182.5,70.3v-6.9c0-1.3-0.2-2.3-0.6-2.8c-0.4-0.6-1-0.8-1.9-0.8c-0.8,0-1.4,0.3-1.9,0.9
		s-0.7,1.5-0.7,2.8v6.9h-1.7v-6.9c0-1.3-0.2-2.3-0.6-2.8c-0.4-0.6-1.1-0.8-1.9-0.8c-0.8,0-1.4,0.3-1.9,0.9c-0.5,0.6-0.7,1.5-0.7,2.8
		v6.9h-1.7V58.6h1.7l0,1.4c0.3-0.5,0.7-0.9,1.2-1.2c0.5-0.3,1.1-0.5,1.8-0.5c0.8,0,1.5,0.2,2,0.6c0.5,0.4,0.9,0.9,1.2,1.4
		c0.2-0.3,0.4-0.5,0.6-0.8s0.5-0.5,0.7-0.6c0.3-0.2,0.6-0.3,1-0.4c0.4-0.1,0.8-0.2,1.3-0.2c1.2,0,2.1,0.4,2.8,1.1
		c0.7,0.8,1.1,2,1.1,3.7v7.1H182.5z"/>
	<path id="XMLID_163_" class="st0" d="M189.9,55.3c0,0.3-0.1,0.6-0.3,0.8c-0.2,0.2-0.5,0.3-0.8,0.3c-0.3,0-0.6-0.1-0.9-0.3
		c-0.2-0.2-0.4-0.5-0.4-0.8c0-0.3,0.1-0.6,0.4-0.9c0.2-0.2,0.5-0.3,0.9-0.3c0.3,0,0.6,0.1,0.8,0.3C189.8,54.7,189.9,55,189.9,55.3z
		 M187.9,70.3V58.6h1.7v11.7H187.9z"/>
	<path id="XMLID_161_" class="st0" d="M192.7,70.3v-1.2l6.4-9.1h-5.9v-1.4h7.8v1.2l-6.4,9.1h6.4v1.4H192.7z"/>
	<path id="XMLID_158_" class="st0" d="M213.2,64.1c0,0.2,0,0.4,0,0.5s0,0.3-0.1,0.4h-7.8c0.1,1.3,0.4,2.3,1,3
		c0.6,0.7,1.3,1.1,2.3,1.1c0.7,0,1.3-0.1,1.7-0.3c0.5-0.2,1-0.5,1.5-0.8l0.8,1.2c-0.4,0.2-0.7,0.4-1,0.6c-0.3,0.2-0.6,0.3-1,0.4
		s-0.7,0.2-1,0.3s-0.8,0.1-1.2,0.1c-0.5,0-1.1-0.1-1.6-0.3c-0.6-0.2-1.1-0.6-1.5-1c-0.5-0.5-0.8-1.1-1.1-1.9
		c-0.3-0.8-0.5-1.8-0.5-2.9c0-0.9,0.1-1.8,0.4-2.5c0.2-0.7,0.6-1.4,1-1.9c0.4-0.5,0.9-0.9,1.5-1.2c0.6-0.3,1.2-0.4,1.9-0.4
		c0.8,0,1.4,0.1,2,0.4c0.6,0.3,1.1,0.7,1.5,1.2s0.7,1.1,0.9,1.8C213.1,62.5,213.2,63.3,213.2,64.1z M211.7,63.6
		c-0.1-1.2-0.4-2.1-0.9-2.8c-0.5-0.7-1.3-1.1-2.3-1.1c-0.9,0-1.6,0.3-2.1,1c-0.6,0.6-0.9,1.6-1,2.9H211.7z"/>
	<path id="XMLID_155_" class="st0" d="M223.5,70.3v-1.4c-0.4,0.4-0.9,0.8-1.5,1.2c-0.6,0.3-1.2,0.5-2.1,0.5c-0.6,0-1.1-0.1-1.6-0.3
		c-0.5-0.2-1-0.6-1.3-1.1c-0.4-0.5-0.7-1.1-0.9-1.8c-0.2-0.8-0.3-1.6-0.3-2.7c0-1,0.1-2,0.3-2.7s0.5-1.4,0.9-2
		c0.4-0.5,0.9-0.9,1.4-1.2c0.5-0.3,1.1-0.4,1.7-0.4c0.7,0,1.4,0.1,1.9,0.4c0.5,0.3,1,0.7,1.4,1.1V55l1.7-0.9v16.3H223.5z
		 M223.5,61.5c-0.3-0.5-0.8-0.9-1.3-1.3c-0.5-0.3-1.2-0.5-1.9-0.5c-1,0-1.7,0.4-2.2,1.2s-0.7,2-0.7,3.6c0,1.5,0.3,2.6,0.8,3.4
		c0.5,0.8,1.2,1.1,2.2,1.1c0.6,0,1.2-0.2,1.7-0.5c0.5-0.3,1-0.7,1.4-1.2V61.5z"/>
	<path id="XMLID_153_" class="st0" d="M235.3,72.9h-1.2l0.3-5.2h2.3L235.3,72.9z"/>
	<path id="XMLID_150_" class="st0" d="M252.9,70.3v-1.4c-0.4,0.4-0.9,0.8-1.5,1.2c-0.6,0.3-1.2,0.5-2.1,0.5c-0.6,0-1.1-0.1-1.6-0.3
		c-0.5-0.2-1-0.6-1.3-1.1c-0.4-0.5-0.7-1.1-0.9-1.8c-0.2-0.8-0.3-1.6-0.3-2.7c0-1,0.1-2,0.3-2.7s0.5-1.4,0.9-2
		c0.4-0.5,0.9-0.9,1.4-1.2c0.5-0.3,1.1-0.4,1.7-0.4c0.7,0,1.4,0.1,1.9,0.4c0.5,0.3,1,0.7,1.4,1.1V55l1.7-0.9v16.3H252.9z
		 M252.9,61.5c-0.3-0.5-0.8-0.9-1.3-1.3c-0.5-0.3-1.2-0.5-1.9-0.5c-1,0-1.7,0.4-2.2,1.2s-0.7,2-0.7,3.6c0,1.5,0.3,2.6,0.8,3.4
		c0.5,0.8,1.2,1.1,2.2,1.1c0.6,0,1.2-0.2,1.7-0.5c0.5-0.3,1-0.7,1.4-1.2V61.5z"/>
	<path id="XMLID_147_" class="st0" d="M267.8,64.4c0,1-0.1,1.9-0.4,2.6c-0.3,0.8-0.6,1.4-1.1,1.9c-0.5,0.5-1,0.9-1.6,1.2
		c-0.6,0.3-1.3,0.4-2,0.4s-1.4-0.1-2-0.4s-1.2-0.6-1.6-1.2c-0.4-0.5-0.8-1.1-1.1-1.9c-0.3-0.8-0.4-1.6-0.4-2.6c0-1,0.1-1.9,0.4-2.6
		s0.6-1.4,1.1-1.9s1-0.9,1.6-1.2c0.6-0.3,1.3-0.4,2-0.4s1.4,0.1,2,0.4c0.6,0.3,1.2,0.6,1.6,1.1c0.4,0.5,0.8,1.1,1.1,1.9
		S267.8,63.4,267.8,64.4z M266.1,64.4c0-1.6-0.3-2.7-0.9-3.5c-0.6-0.8-1.4-1.2-2.5-1.2s-1.8,0.4-2.5,1.2c-0.6,0.8-0.9,1.9-0.9,3.5
		s0.3,2.7,0.9,3.5c0.6,0.8,1.4,1.2,2.5,1.2s1.9-0.4,2.5-1.2C265.8,67.1,266.1,66,266.1,64.4z"/>
	<path id="XMLID_145_" class="st0" d="M278.1,70.3v-1.4c-0.3,0.5-0.8,0.9-1.3,1.2c-0.5,0.3-1.2,0.5-1.9,0.5c-0.6,0-1.2-0.1-1.7-0.3
		c-0.5-0.2-0.9-0.5-1.3-0.9c-0.4-0.4-0.6-0.9-0.8-1.5s-0.3-1.3-0.3-2.2v-7.1h1.7v6.9c0,1.3,0.2,2.2,0.7,2.8c0.5,0.6,1.1,0.9,2.1,0.9
		c0.8,0,1.5-0.3,2.1-0.9c0.6-0.6,0.8-1.5,0.8-2.8v-6.9h1.7v11.7H278.1z"/>
	<path id="XMLID_142_" class="st0" d="M292.9,64.3c0,1-0.1,2-0.3,2.7s-0.5,1.4-0.9,2c-0.4,0.5-0.9,0.9-1.4,1.2
		c-0.5,0.3-1.1,0.4-1.7,0.4c-0.7,0-1.4-0.1-1.9-0.4s-1-0.7-1.4-1.1v1.3h-1.7V55l1.7-0.9l0,6c0.4-0.4,0.9-0.8,1.5-1.2
		c0.6-0.3,1.2-0.5,2.1-0.5c0.6,0,1.1,0.1,1.6,0.3s1,0.6,1.3,1.1s0.7,1.1,0.9,1.8C292.8,62.3,292.9,63.2,292.9,64.3z M291.2,64.3
		c0-1.5-0.3-2.6-0.8-3.4c-0.5-0.8-1.2-1.1-2.2-1.1c-0.6,0-1.2,0.2-1.7,0.5c-0.5,0.3-1,0.7-1.4,1.2v5.9c0.3,0.5,0.8,0.9,1.3,1.3
		c0.5,0.3,1.2,0.5,1.9,0.5c1,0,1.7-0.4,2.2-1.2S291.2,65.9,291.2,64.3z"/>
	<path id="XMLID_140_" class="st0" d="M296.1,70.3V55l1.7-0.9v16.3H296.1z"/>
	<path id="XMLID_137_" class="st0" d="M310.4,64.1c0,0.2,0,0.4,0,0.5s0,0.3-0.1,0.4h-7.8c0.1,1.3,0.4,2.3,1,3
		c0.6,0.7,1.3,1.1,2.3,1.1c0.7,0,1.3-0.1,1.7-0.3c0.5-0.2,1-0.5,1.5-0.8l0.8,1.2c-0.4,0.2-0.7,0.4-1,0.6c-0.3,0.2-0.6,0.3-1,0.4
		s-0.7,0.2-1,0.3s-0.8,0.1-1.2,0.1c-0.5,0-1.1-0.1-1.6-0.3c-0.6-0.2-1.1-0.6-1.5-1c-0.5-0.5-0.8-1.1-1.1-1.9
		c-0.3-0.8-0.5-1.8-0.5-2.9c0-0.9,0.1-1.8,0.4-2.5c0.2-0.7,0.6-1.4,1-1.9c0.4-0.5,0.9-0.9,1.5-1.2c0.6-0.3,1.2-0.4,1.9-0.4
		c0.8,0,1.4,0.1,2,0.4c0.6,0.3,1.1,0.7,1.5,1.2s0.7,1.1,0.9,1.8C310.3,62.5,310.4,63.3,310.4,64.1z M308.9,63.6
		c-0.1-1.2-0.4-2.1-0.9-2.8c-0.5-0.7-1.3-1.1-2.3-1.1c-0.9,0-1.6,0.3-2.1,1c-0.6,0.6-0.9,1.6-1,2.9H308.9z"/>
	<path id="XMLID_135_" class="st0" d="M318.7,63v-1.6h4.9V63H318.7z"/>
	<path id="XMLID_132_" class="st0" d="M341.7,64.3c0,1-0.1,2-0.3,2.7s-0.5,1.4-0.9,2c-0.4,0.5-0.9,0.9-1.4,1.2
		c-0.5,0.3-1.1,0.4-1.7,0.4c-0.7,0-1.4-0.1-1.9-0.4s-1-0.7-1.4-1.1v1.3h-1.7V55L334,54l0,6c0.4-0.4,0.9-0.8,1.5-1.2
		c0.6-0.3,1.2-0.5,2.1-0.5c0.6,0,1.1,0.1,1.6,0.3s1,0.6,1.3,1.1s0.7,1.1,0.9,1.8C341.6,62.3,341.7,63.2,341.7,64.3z M340.1,64.3
		c0-1.5-0.3-2.6-0.8-3.4c-0.5-0.8-1.2-1.1-2.2-1.1c-0.6,0-1.2,0.2-1.7,0.5c-0.5,0.3-1,0.7-1.4,1.2v5.9c0.3,0.5,0.8,0.9,1.3,1.3
		c0.5,0.3,1.2,0.5,1.9,0.5c1,0,1.7-0.4,2.2-1.2S340.1,65.9,340.1,64.3z"/>
	<path id="XMLID_130_" class="st0" d="M344.9,70.3V55l1.7-0.9v16.3H344.9z"/>
	<path id="XMLID_127_" class="st0" d="M352.5,55.3c0,0.3-0.1,0.6-0.3,0.8c-0.2,0.2-0.5,0.3-0.8,0.3c-0.3,0-0.6-0.1-0.9-0.3
		c-0.2-0.2-0.4-0.5-0.4-0.8c0-0.3,0.1-0.6,0.4-0.9c0.2-0.2,0.5-0.3,0.9-0.3c0.3,0,0.6,0.1,0.8,0.3C352.4,54.7,352.5,55,352.5,55.3z
		 M350.5,70.3V58.6h1.7v11.7H350.5z"/>
	<path id="XMLID_125_" class="st0" d="M363.3,70.3v-6.9c0-1.3-0.2-2.2-0.7-2.8c-0.5-0.6-1.1-0.9-2.1-0.9c-0.8,0-1.5,0.3-2.1,0.9
		c-0.6,0.6-0.8,1.5-0.8,2.8v6.9H356V58.6h1.7l0,1.4c0.3-0.5,0.8-0.9,1.3-1.2c0.5-0.3,1.2-0.5,1.9-0.5c0.6,0,1.2,0.1,1.7,0.3
		c0.5,0.2,0.9,0.5,1.3,0.9c0.4,0.4,0.6,0.9,0.8,1.5c0.2,0.6,0.3,1.3,0.3,2.2v7.1H363.3z"/>
	<path id="XMLID_122_" class="st0" d="M375.7,70.3v-1.4c-0.4,0.4-0.9,0.8-1.5,1.2c-0.6,0.3-1.2,0.5-2.1,0.5c-0.6,0-1.1-0.1-1.6-0.3
		c-0.5-0.2-1-0.6-1.3-1.1c-0.4-0.5-0.7-1.1-0.9-1.8c-0.2-0.8-0.3-1.6-0.3-2.7c0-1,0.1-2,0.3-2.7s0.5-1.4,0.9-2
		c0.4-0.5,0.9-0.9,1.4-1.2c0.5-0.3,1.1-0.4,1.7-0.4c0.7,0,1.4,0.1,1.9,0.4c0.5,0.3,1,0.7,1.4,1.1V55l1.7-0.9v16.3H375.7z
		 M375.7,61.5c-0.3-0.5-0.8-0.9-1.3-1.3c-0.5-0.3-1.2-0.5-1.9-0.5c-1,0-1.7,0.4-2.2,1.2s-0.7,2-0.7,3.6c0,1.5,0.3,2.6,0.8,3.4
		c0.5,0.8,1.2,1.1,2.2,1.1c0.6,0,1.2-0.2,1.7-0.5c0.5-0.3,1-0.7,1.4-1.2V61.5z"/>
	<path id="XMLID_119_" class="st0" d="M15.5,97v-1.4c-0.4,0.4-0.9,0.8-1.5,1.2c-0.6,0.3-1.3,0.5-2.2,0.5c-0.5,0-0.9-0.1-1.4-0.2
		C10,97,9.6,96.8,9.3,96.5s-0.6-0.7-0.9-1.1c-0.2-0.5-0.3-1.1-0.3-1.8c0-0.7,0.1-1.2,0.4-1.7c0.3-0.5,0.6-0.9,1-1.2
		c0.4-0.3,0.9-0.5,1.4-0.7c0.5-0.1,1.1-0.2,1.7-0.2c0.6,0,1.1,0.1,1.6,0.2c0.5,0.1,0.9,0.3,1.3,0.5v-1.4c0-1.7-0.8-2.6-2.5-2.6
		c-0.6,0-1.2,0.1-1.7,0.2c-0.5,0.2-1,0.4-1.5,0.7L9.2,86c0.5-0.3,1.1-0.5,1.8-0.7c0.7-0.2,1.4-0.3,2.1-0.3c1.3,0,2.3,0.3,3,0.9
		c0.7,0.6,1.1,1.6,1.1,2.9V97H15.5z M15.5,91.8c-0.4-0.2-0.8-0.4-1.3-0.5c-0.5-0.1-1-0.2-1.7-0.2c-0.9,0-1.5,0.2-2,0.6
		s-0.7,1-0.7,1.7c0,0.9,0.2,1.5,0.7,1.9c0.4,0.4,1,0.6,1.7,0.6c0.8,0,1.4-0.2,2-0.5s1-0.8,1.4-1.2V91.8z"/>
	<path id="XMLID_116_" class="st0" d="M27.9,97v-1.4c-0.4,0.4-0.9,0.8-1.5,1.2c-0.6,0.3-1.2,0.5-2.1,0.5c-0.6,0-1.1-0.1-1.6-0.3
		c-0.5-0.2-1-0.6-1.3-1.1c-0.4-0.5-0.7-1.1-0.9-1.8c-0.2-0.8-0.3-1.6-0.3-2.7c0-1,0.1-2,0.3-2.7s0.5-1.4,0.9-2
		c0.4-0.5,0.9-0.9,1.4-1.2c0.5-0.3,1.1-0.4,1.7-0.4c0.7,0,1.4,0.1,1.9,0.4c0.5,0.3,1,0.7,1.4,1.1v-4.9l1.7-0.9V97H27.9z M27.9,88.3
		c-0.3-0.5-0.8-0.9-1.3-1.3c-0.5-0.3-1.2-0.5-1.9-0.5c-1,0-1.7,0.4-2.2,1.2s-0.7,2-0.7,3.6c0,1.5,0.3,2.6,0.8,3.4
		c0.5,0.8,1.2,1.1,2.2,1.1c0.6,0,1.2-0.2,1.7-0.5c0.5-0.3,1-0.7,1.4-1.2V88.3z"/>
	<path id="XMLID_113_" class="st0" d="M35.1,96.8c0,0.7,0,1.2-0.1,1.7c-0.1,0.5-0.3,0.9-0.5,1.3c-0.3,0.4-0.6,0.7-1.1,0.9
		c-0.5,0.3-1,0.5-1.8,0.6l-0.6-1.2c0.5-0.2,1-0.3,1.3-0.5c0.3-0.2,0.5-0.4,0.7-0.6c0.2-0.2,0.3-0.5,0.3-0.9c0-0.4,0.1-0.8,0.1-1.3
		V85.3h1.7V96.8z M35.4,82.1c0,0.3-0.1,0.6-0.3,0.8c-0.2,0.2-0.5,0.3-0.8,0.3c-0.3,0-0.6-0.1-0.9-0.3c-0.2-0.2-0.4-0.5-0.4-0.8
		c0-0.3,0.1-0.6,0.4-0.9c0.2-0.2,0.5-0.3,0.9-0.3c0.3,0,0.6,0.1,0.8,0.3C35.3,81.4,35.4,81.7,35.4,82.1z"/>
	<path id="XMLID_111_" class="st0" d="M46.1,97v-1.4c-0.3,0.5-0.8,0.9-1.3,1.2c-0.5,0.3-1.2,0.5-1.9,0.5c-0.6,0-1.2-0.1-1.7-0.3
		c-0.5-0.2-0.9-0.5-1.3-0.9c-0.4-0.4-0.6-0.9-0.8-1.5s-0.3-1.3-0.3-2.2v-7.1h1.7v6.9c0,1.3,0.2,2.2,0.7,2.8c0.5,0.6,1.1,0.9,2.1,0.9
		c0.8,0,1.5-0.3,2.1-0.9c0.6-0.6,0.8-1.5,0.8-2.8v-6.9h1.7V97H46.1z"/>
	<path id="XMLID_109_" class="st0" d="M58.8,97v-6.9c0-1.3-0.2-2.2-0.7-2.8c-0.5-0.6-1.1-0.9-2.1-0.9c-0.8,0-1.5,0.3-2.1,0.9
		c-0.6,0.6-0.8,1.5-0.8,2.8V97h-1.7V85.3h1.7l0,1.4c0.3-0.5,0.8-0.9,1.3-1.2c0.5-0.3,1.2-0.5,1.9-0.5c0.6,0,1.2,0.1,1.7,0.3
		c0.5,0.2,0.9,0.5,1.3,0.9c0.4,0.4,0.6,0.9,0.8,1.5c0.2,0.6,0.3,1.3,0.3,2.2V97H58.8z"/>
	<path id="XMLID_107_" class="st0" d="M71.2,87.7c-0.4-0.4-0.9-0.7-1.3-0.9c-0.4-0.2-0.9-0.3-1.5-0.3c-0.5,0-0.9,0.1-1.3,0.3
		c-0.4,0.2-0.7,0.5-1,0.9c-0.3,0.4-0.5,0.9-0.7,1.4c-0.2,0.6-0.2,1.2-0.2,1.9c0,1.4,0.3,2.6,0.9,3.5c0.6,0.9,1.4,1.3,2.4,1.3
		c0.6,0,1.1-0.1,1.5-0.3c0.4-0.2,0.8-0.5,1.2-0.9l1,1.1c-0.5,0.5-1,0.9-1.6,1.2c-0.6,0.3-1.3,0.4-2.1,0.4c-0.6,0-1.3-0.1-1.8-0.4
		c-0.6-0.2-1.1-0.6-1.6-1.1s-0.8-1.1-1.1-1.9c-0.3-0.8-0.4-1.6-0.4-2.7c0-1.1,0.1-2,0.4-2.8c0.3-0.8,0.7-1.4,1.2-1.9s1-0.9,1.6-1.1
		c0.6-0.2,1.2-0.4,1.8-0.4c0.8,0,1.5,0.1,2.1,0.4c0.6,0.3,1.1,0.6,1.6,1L71.2,87.7z"/>
	<path id="XMLID_105_" class="st0" d="M77.3,86.8v7.6c0,0.5,0.1,0.9,0.3,1.1s0.5,0.3,0.9,0.3c0.3,0,0.6,0,0.9-0.1s0.5-0.1,0.8-0.3
		l-0.1,1.4c-0.3,0.1-0.7,0.2-1,0.3c-0.3,0.1-0.7,0.1-1.2,0.1c-0.7,0-1.3-0.2-1.7-0.6c-0.4-0.4-0.6-1.1-0.6-2.1v-7.9h-1.4v-1.4h1.4
		v-3.6l1.7-0.9v4.5h2.9v1.4H77.3z"/>
	<path id="XMLID_102_" class="st0" d="M85.6,82.1c0,0.3-0.1,0.6-0.3,0.8c-0.2,0.2-0.5,0.3-0.8,0.3c-0.3,0-0.6-0.1-0.9-0.3
		c-0.2-0.2-0.4-0.5-0.4-0.8c0-0.3,0.1-0.6,0.4-0.9c0.2-0.2,0.5-0.3,0.9-0.3c0.3,0,0.6,0.1,0.8,0.3C85.5,81.4,85.6,81.7,85.6,82.1z
		 M83.6,97V85.3h1.7V97H83.6z"/>
	<path id="XMLID_100_" class="st0" d="M93.8,97h-1.5l-4.2-11.7h1.8l3,9.2l0.2,0.6l0.2-0.6l3-9.2H98L93.8,97z"/>
	<path id="XMLID_97_" class="st0" d="M109.6,90.8c0,0.2,0,0.4,0,0.5s0,0.3-0.1,0.4h-7.8c0.1,1.3,0.4,2.3,1,3
		c0.6,0.7,1.3,1.1,2.3,1.1c0.7,0,1.3-0.1,1.7-0.3c0.5-0.2,1-0.5,1.5-0.8l0.8,1.2c-0.4,0.2-0.7,0.4-1,0.6c-0.3,0.2-0.6,0.3-1,0.4
		s-0.7,0.2-1,0.3s-0.8,0.1-1.2,0.1c-0.5,0-1.1-0.1-1.6-0.3c-0.6-0.2-1.1-0.6-1.5-1c-0.5-0.5-0.8-1.1-1.1-1.9
		c-0.3-0.8-0.5-1.8-0.5-2.9c0-0.9,0.1-1.8,0.4-2.5c0.2-0.7,0.6-1.4,1-1.9c0.4-0.5,0.9-0.9,1.5-1.2c0.6-0.3,1.2-0.4,1.9-0.4
		c0.8,0,1.4,0.1,2,0.4c0.6,0.3,1.1,0.7,1.5,1.2s0.7,1.1,0.9,1.8C109.5,89.2,109.6,90,109.6,90.8z M108.1,90.4
		c-0.1-1.2-0.4-2.1-0.9-2.8c-0.5-0.7-1.3-1.1-2.3-1.1c-0.9,0-1.6,0.3-2.1,1c-0.6,0.6-0.9,1.6-1,2.9H108.1z"/>
	<path id="XMLID_94_" class="st0" d="M129.5,86.1c0,0.8-0.1,1.5-0.4,2.1c-0.3,0.6-0.6,1.1-1.1,1.5c-0.5,0.4-1,0.7-1.7,0.9
		c-0.7,0.2-1.4,0.3-2.1,0.3h-3.8V97h-1.7V81.4h5.8c0.7,0,1.4,0.1,2,0.3c0.6,0.2,1.1,0.5,1.6,0.9c0.4,0.4,0.8,0.9,1,1.5
		C129.4,84.6,129.5,85.3,129.5,86.1z M127.8,86.2c0-1-0.3-1.8-0.8-2.3c-0.6-0.5-1.4-0.8-2.5-0.8h-4v6.3h3.8
		C126.6,89.3,127.8,88.3,127.8,86.2z"/>
	<path id="XMLID_92_" class="st0" d="M132.4,97V81.7l1.7-0.9V97H132.4z"/>
	<path id="XMLID_89_" class="st0" d="M144.6,97v-1.4c-0.4,0.4-0.9,0.8-1.5,1.2c-0.6,0.3-1.3,0.5-2.2,0.5c-0.5,0-0.9-0.1-1.4-0.2
		c-0.4-0.1-0.8-0.3-1.2-0.6s-0.6-0.7-0.9-1.1c-0.2-0.5-0.3-1.1-0.3-1.8c0-0.7,0.1-1.2,0.4-1.7c0.3-0.5,0.6-0.9,1-1.2
		c0.4-0.3,0.9-0.5,1.4-0.7c0.5-0.1,1.1-0.2,1.7-0.2c0.6,0,1.1,0.1,1.6,0.2c0.5,0.1,0.9,0.3,1.3,0.5v-1.4c0-1.7-0.8-2.6-2.5-2.6
		c-0.6,0-1.2,0.1-1.7,0.2c-0.5,0.2-1,0.4-1.5,0.7l-0.6-1.4c0.5-0.3,1.1-0.5,1.8-0.7c0.7-0.2,1.4-0.3,2.1-0.3c1.3,0,2.3,0.3,3,0.9
		c0.7,0.6,1.1,1.6,1.1,2.9V97H144.6z M144.6,91.8c-0.4-0.2-0.8-0.4-1.3-0.5c-0.5-0.1-1-0.2-1.7-0.2c-0.9,0-1.5,0.2-2,0.6
		s-0.7,1-0.7,1.7c0,0.9,0.2,1.5,0.7,1.9c0.4,0.4,1,0.6,1.7,0.6c0.8,0,1.4-0.2,2-0.5s1-0.8,1.4-1.2V91.8z"/>
	<path id="XMLID_87_" class="st0" d="M157,87.7c-0.4-0.4-0.9-0.7-1.3-0.9c-0.4-0.2-0.9-0.3-1.5-0.3c-0.5,0-0.9,0.1-1.3,0.3
		c-0.4,0.2-0.7,0.5-1,0.9c-0.3,0.4-0.5,0.9-0.7,1.4c-0.2,0.6-0.2,1.2-0.2,1.9c0,1.4,0.3,2.6,0.9,3.5c0.6,0.9,1.4,1.3,2.4,1.3
		c0.6,0,1.1-0.1,1.5-0.3c0.4-0.2,0.8-0.5,1.2-0.9l1,1.1c-0.5,0.5-1,0.9-1.6,1.2c-0.6,0.3-1.3,0.4-2.1,0.4c-0.6,0-1.3-0.1-1.8-0.4
		c-0.6-0.2-1.1-0.6-1.6-1.1s-0.8-1.1-1.1-1.9c-0.3-0.8-0.4-1.6-0.4-2.7c0-1.1,0.1-2,0.4-2.8c0.3-0.8,0.7-1.4,1.2-1.9s1-0.9,1.6-1.1
		c0.6-0.2,1.2-0.4,1.8-0.4c0.8,0,1.5,0.1,2.1,0.4c0.6,0.3,1.1,0.6,1.6,1L157,87.7z"/>
	<path id="XMLID_84_" class="st0" d="M169.8,90.8c0,0.2,0,0.4,0,0.5s0,0.3-0.1,0.4H162c0.1,1.3,0.4,2.3,1,3c0.6,0.7,1.3,1.1,2.3,1.1
		c0.7,0,1.3-0.1,1.7-0.3c0.5-0.2,1-0.5,1.5-0.8l0.8,1.2c-0.4,0.2-0.7,0.4-1,0.6c-0.3,0.2-0.6,0.3-1,0.4s-0.7,0.2-1,0.3
		s-0.8,0.1-1.2,0.1c-0.5,0-1.1-0.1-1.6-0.3c-0.6-0.2-1.1-0.6-1.5-1c-0.5-0.5-0.8-1.1-1.1-1.9c-0.3-0.8-0.5-1.8-0.5-2.9
		c0-0.9,0.1-1.8,0.4-2.5c0.2-0.7,0.6-1.4,1-1.9c0.4-0.5,0.9-0.9,1.5-1.2c0.6-0.3,1.2-0.4,1.9-0.4c0.8,0,1.4,0.1,2,0.4
		c0.6,0.3,1.1,0.7,1.5,1.2s0.7,1.1,0.9,1.8C169.7,89.2,169.8,90,169.8,90.8z M168.3,90.4c-0.1-1.2-0.4-2.1-0.9-2.8
		c-0.5-0.7-1.3-1.1-2.3-1.1c-0.9,0-1.6,0.3-2.1,1c-0.6,0.6-0.9,1.6-1,2.9H168.3z"/>
	<path id="XMLID_81_" class="st0" d="M182.4,91c0,1-0.1,2-0.3,2.7s-0.5,1.4-0.9,2c-0.4,0.5-0.9,0.9-1.4,1.2
		c-0.5,0.3-1.1,0.4-1.7,0.4c-0.7,0-1.4-0.1-1.9-0.4s-1-0.7-1.4-1.1V97H173V81.7l1.7-0.9l0,6c0.4-0.4,0.9-0.8,1.5-1.2
		c0.6-0.3,1.2-0.5,2.1-0.5c0.6,0,1.1,0.1,1.6,0.3s1,0.6,1.3,1.1s0.7,1.1,0.9,1.8C182.3,89.1,182.4,90,182.4,91z M180.7,91
		c0-1.5-0.3-2.6-0.8-3.4c-0.5-0.8-1.2-1.1-2.2-1.1c-0.6,0-1.2,0.2-1.7,0.5c-0.5,0.3-1,0.7-1.4,1.2v5.9c0.3,0.5,0.8,0.9,1.3,1.3
		c0.5,0.3,1.2,0.5,1.9,0.5c1,0,1.7-0.4,2.2-1.2S180.7,92.6,180.7,91z"/>
	<path id="XMLID_78_" class="st0" d="M195,91.1c0,1-0.1,1.9-0.4,2.6c-0.3,0.8-0.6,1.4-1.1,1.9c-0.5,0.5-1,0.9-1.6,1.2
		c-0.6,0.3-1.3,0.4-2,0.4s-1.4-0.1-2-0.4s-1.2-0.6-1.6-1.2c-0.4-0.5-0.8-1.1-1.1-1.9c-0.3-0.8-0.4-1.6-0.4-2.6c0-1,0.1-1.9,0.4-2.6
		s0.6-1.4,1.1-1.9s1-0.9,1.6-1.2c0.6-0.3,1.3-0.4,2-0.4s1.4,0.1,2,0.4c0.6,0.3,1.2,0.6,1.6,1.1c0.4,0.5,0.8,1.1,1.1,1.9
		S195,90.1,195,91.1z M193.3,91.2c0-1.6-0.3-2.7-0.9-3.5c-0.6-0.8-1.4-1.2-2.5-1.2s-1.8,0.4-2.5,1.2c-0.6,0.8-0.9,1.9-0.9,3.5
		s0.3,2.7,0.9,3.5c0.6,0.8,1.4,1.2,2.5,1.2s1.9-0.4,2.5-1.2C193,93.9,193.3,92.7,193.3,91.2z"/>
	<path id="XMLID_76_" class="st0" d="M203.1,89.7v-1.6h4.9v1.6H203.1z"/>
	<path id="XMLID_74_" class="st0" d="M223.9,87.7c-0.4-0.4-0.9-0.7-1.3-0.9c-0.4-0.2-0.9-0.3-1.5-0.3c-0.5,0-0.9,0.1-1.3,0.3
		c-0.4,0.2-0.7,0.5-1,0.9c-0.3,0.4-0.5,0.9-0.7,1.4c-0.2,0.6-0.2,1.2-0.2,1.9c0,1.4,0.3,2.6,0.9,3.5c0.6,0.9,1.4,1.3,2.4,1.3
		c0.6,0,1.1-0.1,1.5-0.3c0.4-0.2,0.8-0.5,1.2-0.9l1,1.1c-0.5,0.5-1,0.9-1.6,1.2c-0.6,0.3-1.3,0.4-2.1,0.4c-0.6,0-1.3-0.1-1.8-0.4
		c-0.6-0.2-1.1-0.6-1.6-1.1s-0.8-1.1-1.1-1.9c-0.3-0.8-0.4-1.6-0.4-2.7c0-1.1,0.1-2,0.4-2.8c0.3-0.8,0.7-1.4,1.2-1.9s1-0.9,1.6-1.1
		c0.6-0.2,1.2-0.4,1.8-0.4c0.8,0,1.5,0.1,2.1,0.4c0.6,0.3,1.1,0.6,1.6,1L223.9,87.7z"/>
	<path id="XMLID_71_" class="st0" d="M237.4,91.1c0,1-0.1,1.9-0.4,2.6c-0.3,0.8-0.6,1.4-1.1,1.9c-0.5,0.5-1,0.9-1.6,1.2
		c-0.6,0.3-1.3,0.4-2,0.4s-1.4-0.1-2-0.4s-1.2-0.6-1.6-1.2c-0.4-0.5-0.8-1.1-1.1-1.9c-0.3-0.8-0.4-1.6-0.4-2.6c0-1,0.1-1.9,0.4-2.6
		s0.6-1.4,1.1-1.9s1-0.9,1.6-1.2c0.6-0.3,1.3-0.4,2-0.4s1.4,0.1,2,0.4c0.6,0.3,1.2,0.6,1.6,1.1c0.4,0.5,0.8,1.1,1.1,1.9
		S237.4,90.1,237.4,91.1z M235.7,91.2c0-1.6-0.3-2.7-0.9-3.5c-0.6-0.8-1.4-1.2-2.5-1.2s-1.8,0.4-2.5,1.2c-0.6,0.8-0.9,1.9-0.9,3.5
		s0.3,2.7,0.9,3.5c0.6,0.8,1.4,1.2,2.5,1.2s1.9-0.4,2.5-1.2C235.4,93.9,235.7,92.7,235.7,91.2z"/>
	<path id="XMLID_69_" class="st0" d="M247.8,97v-6.9c0-1.3-0.2-2.2-0.7-2.8c-0.5-0.6-1.1-0.9-2.1-0.9c-0.8,0-1.5,0.3-2.1,0.9
		c-0.6,0.6-0.8,1.5-0.8,2.8V97h-1.7V85.3h1.7l0,1.4c0.3-0.5,0.8-0.9,1.3-1.2c0.5-0.3,1.2-0.5,1.9-0.5c0.6,0,1.2,0.1,1.7,0.3
		c0.5,0.2,0.9,0.5,1.3,0.9c0.4,0.4,0.6,0.9,0.8,1.5c0.2,0.6,0.3,1.3,0.3,2.2V97H247.8z"/>
	<path id="XMLID_67_" class="st0" d="M255.3,86.8v7.6c0,0.5,0.1,0.9,0.3,1.1s0.5,0.3,0.9,0.3c0.3,0,0.6,0,0.9-0.1s0.5-0.1,0.8-0.3
		l-0.1,1.4c-0.3,0.1-0.7,0.2-1,0.3c-0.3,0.1-0.7,0.1-1.2,0.1c-0.7,0-1.3-0.2-1.7-0.6c-0.4-0.4-0.6-1.1-0.6-2.1v-7.9h-1.4v-1.4h1.4
		v-3.6l1.7-0.9v4.5h2.9v1.4H255.3z"/>
	<path id="XMLID_65_" class="st0" d="M267.4,87.1c-0.2-0.1-0.5-0.2-0.8-0.3c-0.3-0.1-0.6-0.1-1-0.1c-0.8,0-1.4,0.3-1.9,0.9
		c-0.4,0.6-0.7,1.5-0.7,2.6V97h-1.7V85.3h1.7v1.4c0.3-0.5,0.7-0.9,1.2-1.2s1.1-0.5,1.7-0.5c0.4,0,0.8,0,1.1,0.1
		c0.3,0.1,0.5,0.1,0.7,0.2L267.4,87.1z"/>
	<path id="XMLID_62_" class="st0" d="M280.1,91.1c0,1-0.1,1.9-0.4,2.6c-0.3,0.8-0.6,1.4-1.1,1.9c-0.5,0.5-1,0.9-1.6,1.2
		c-0.6,0.3-1.3,0.4-2,0.4s-1.4-0.1-2-0.4s-1.2-0.6-1.6-1.2c-0.4-0.5-0.8-1.1-1.1-1.9c-0.3-0.8-0.4-1.6-0.4-2.6c0-1,0.1-1.9,0.4-2.6
		s0.6-1.4,1.1-1.9s1-0.9,1.6-1.2c0.6-0.3,1.3-0.4,2-0.4s1.4,0.1,2,0.4c0.6,0.3,1.2,0.6,1.6,1.1c0.4,0.5,0.8,1.1,1.1,1.9
		S280.1,90.1,280.1,91.1z M278.4,91.2c0-1.6-0.3-2.7-0.9-3.5c-0.6-0.8-1.4-1.2-2.5-1.2s-1.8,0.4-2.5,1.2c-0.6,0.8-0.9,1.9-0.9,3.5
		s0.3,2.7,0.9,3.5c0.6,0.8,1.4,1.2,2.5,1.2s1.9-0.4,2.5-1.2C278,93.9,278.4,92.7,278.4,91.2z"/>
	<path id="XMLID_60_" class="st0" d="M283.2,97V81.7l1.7-0.9V97H283.2z"/>
	<path id="XMLID_58_" class="st0" d="M288.8,97V81.7l1.7-0.9V97H288.8z"/>
	<path id="XMLID_55_" class="st0" d="M303.2,90.8c0,0.2,0,0.4,0,0.5s0,0.3-0.1,0.4h-7.8c0.1,1.3,0.4,2.3,1,3
		c0.6,0.7,1.3,1.1,2.3,1.1c0.7,0,1.3-0.1,1.7-0.3c0.5-0.2,1-0.5,1.5-0.8l0.8,1.2c-0.4,0.2-0.7,0.4-1,0.6c-0.3,0.2-0.6,0.3-1,0.4
		s-0.7,0.2-1,0.3s-0.8,0.1-1.2,0.1c-0.5,0-1.1-0.1-1.6-0.3c-0.6-0.2-1.1-0.6-1.5-1c-0.5-0.5-0.8-1.1-1.1-1.9
		c-0.3-0.8-0.5-1.8-0.5-2.9c0-0.9,0.1-1.8,0.4-2.5c0.2-0.7,0.6-1.4,1-1.9c0.4-0.5,0.9-0.9,1.5-1.2c0.6-0.3,1.2-0.4,1.9-0.4
		c0.8,0,1.4,0.1,2,0.4c0.6,0.3,1.1,0.7,1.5,1.2s0.7,1.1,0.9,1.8C303.1,89.2,303.2,90,303.2,90.8z M301.7,90.4
		c-0.1-1.2-0.4-2.1-0.9-2.8c-0.5-0.7-1.3-1.1-2.3-1.1c-0.9,0-1.6,0.3-2.1,1c-0.6,0.6-0.9,1.6-1,2.9H301.7z"/>
	<path id="XMLID_52_" class="st0" d="M313.4,97v-1.4c-0.4,0.4-0.9,0.8-1.5,1.2c-0.6,0.3-1.2,0.5-2.1,0.5c-0.6,0-1.1-0.1-1.6-0.3
		c-0.5-0.2-1-0.6-1.3-1.1c-0.4-0.5-0.7-1.1-0.9-1.8c-0.2-0.8-0.3-1.6-0.3-2.7c0-1,0.1-2,0.3-2.7s0.5-1.4,0.9-2
		c0.4-0.5,0.9-0.9,1.4-1.2c0.5-0.3,1.1-0.4,1.7-0.4c0.7,0,1.4,0.1,1.9,0.4c0.5,0.3,1,0.7,1.4,1.1v-4.9l1.7-0.9V97H313.4z
		 M313.4,88.3c-0.3-0.5-0.8-0.9-1.3-1.3c-0.5-0.3-1.2-0.5-1.9-0.5c-1,0-1.7,0.4-2.2,1.2s-0.7,2-0.7,3.6c0,1.5,0.3,2.6,0.8,3.4
		c0.5,0.8,1.2,1.1,2.2,1.1c0.6,0,1.2-0.2,1.7-0.5c0.5-0.3,1-0.7,1.4-1.2V88.3z"/>
	<path id="XMLID_50_" class="st0" d="M326.8,86.8v7.6c0,0.5,0.1,0.9,0.3,1.1s0.5,0.3,0.9,0.3c0.3,0,0.6,0,0.9-0.1s0.5-0.1,0.8-0.3
		l-0.1,1.4c-0.3,0.1-0.7,0.2-1,0.3c-0.3,0.1-0.7,0.1-1.2,0.1c-0.7,0-1.3-0.2-1.7-0.6c-0.4-0.4-0.6-1.1-0.6-2.1v-7.9h-1.4v-1.4h1.4
		v-3.6l1.7-0.9v4.5h2.9v1.4H326.8z"/>
	<path id="XMLID_48_" class="st0" d="M338.9,87.1c-0.2-0.1-0.5-0.2-0.8-0.3c-0.3-0.1-0.6-0.1-1-0.1c-0.8,0-1.4,0.3-1.9,0.9
		c-0.4,0.6-0.7,1.5-0.7,2.6V97h-1.7V85.3h1.7v1.4c0.3-0.5,0.7-0.9,1.2-1.2s1.1-0.5,1.7-0.5c0.4,0,0.8,0,1.1,0.1
		c0.3,0.1,0.5,0.1,0.7,0.2L338.9,87.1z"/>
	<path id="XMLID_45_" class="st0" d="M344.1,82.1c0,0.3-0.1,0.6-0.3,0.8c-0.2,0.2-0.5,0.3-0.8,0.3c-0.3,0-0.6-0.1-0.9-0.3
		c-0.2-0.2-0.4-0.5-0.4-0.8c0-0.3,0.1-0.6,0.4-0.9c0.2-0.2,0.5-0.3,0.9-0.3c0.3,0,0.6,0.1,0.8,0.3C344,81.4,344.1,81.7,344.1,82.1z
		 M342.1,97V85.3h1.7V97H342.1z"/>
	<path id="XMLID_42_" class="st0" d="M354.3,97v-1.4c-0.4,0.4-0.9,0.8-1.5,1.2c-0.6,0.3-1.3,0.5-2.2,0.5c-0.5,0-0.9-0.1-1.4-0.2
		c-0.4-0.1-0.8-0.3-1.2-0.6s-0.6-0.7-0.9-1.1c-0.2-0.5-0.3-1.1-0.3-1.8c0-0.7,0.1-1.2,0.4-1.7c0.3-0.5,0.6-0.9,1-1.2
		c0.4-0.3,0.9-0.5,1.4-0.7c0.5-0.1,1.1-0.2,1.7-0.2c0.6,0,1.1,0.1,1.6,0.2c0.5,0.1,0.9,0.3,1.3,0.5v-1.4c0-1.7-0.8-2.6-2.5-2.6
		c-0.6,0-1.2,0.1-1.7,0.2c-0.5,0.2-1,0.4-1.5,0.7l-0.6-1.4c0.5-0.3,1.1-0.5,1.8-0.7c0.7-0.2,1.4-0.3,2.1-0.3c1.3,0,2.3,0.3,3,0.9
		c0.7,0.6,1.1,1.6,1.1,2.9V97H354.3z M354.3,91.8c-0.4-0.2-0.8-0.4-1.3-0.5c-0.5-0.1-1-0.2-1.7-0.2c-0.9,0-1.5,0.2-2,0.6
		s-0.7,1-0.7,1.7c0,0.9,0.2,1.5,0.7,1.9c0.4,0.4,1,0.6,1.7,0.6c0.8,0,1.4-0.2,2-0.5s1-0.8,1.4-1.2V91.8z"/>
	<path id="XMLID_40_" class="st0" d="M359.7,97V81.7l1.7-0.9V97H359.7z"/>
	<path id="XMLID_38_" class="st0" d="M372.4,94c0,0.6-0.1,1.1-0.3,1.5c-0.2,0.4-0.5,0.8-0.9,1s-0.8,0.5-1.3,0.6
		c-0.5,0.1-1,0.2-1.5,0.2c-0.8,0-1.5-0.1-2.2-0.4c-0.7-0.3-1.3-0.6-1.9-1.1l1-1.2c0.5,0.4,1,0.7,1.5,1c0.5,0.2,1.1,0.3,1.7,0.3
		c0.8,0,1.4-0.2,1.8-0.5c0.4-0.3,0.6-0.8,0.6-1.3c0-0.2,0-0.5-0.1-0.6c-0.1-0.2-0.3-0.4-0.5-0.6c-0.2-0.2-0.5-0.4-0.8-0.6
		c-0.3-0.2-0.8-0.4-1.3-0.6c-0.6-0.3-1.1-0.5-1.5-0.7c-0.4-0.2-0.8-0.5-1-0.7s-0.5-0.6-0.6-0.9c-0.1-0.3-0.2-0.7-0.2-1.2
		c0-0.4,0.1-0.9,0.3-1.2c0.2-0.4,0.4-0.7,0.8-0.9c0.3-0.3,0.7-0.5,1.1-0.6c0.4-0.1,0.9-0.2,1.5-0.2c0.8,0,1.5,0.1,2.1,0.3
		s1.2,0.5,1.6,0.9l-0.9,1.2c-0.5-0.4-0.9-0.6-1.3-0.8c-0.4-0.2-1-0.3-1.6-0.3c-0.6,0-1.1,0.1-1.4,0.4c-0.3,0.3-0.5,0.6-0.5,1
		c0,0.3,0,0.5,0.1,0.6c0.1,0.2,0.2,0.4,0.4,0.5c0.2,0.2,0.5,0.3,0.8,0.5c0.3,0.2,0.7,0.4,1.2,0.6c0.5,0.3,1,0.5,1.5,0.7
		s0.8,0.5,1.1,0.7c0.3,0.3,0.5,0.6,0.7,1C372.3,93,372.4,93.5,372.4,94z"/>
	<path id="XMLID_35_" class="st0" d="M18.3,117.9c0,1-0.1,1.9-0.4,2.6c-0.3,0.8-0.6,1.4-1.1,1.9c-0.5,0.5-1,0.9-1.6,1.2
		c-0.6,0.3-1.3,0.4-2,0.4s-1.4-0.1-2-0.4s-1.2-0.6-1.6-1.2c-0.4-0.5-0.8-1.1-1.1-1.9c-0.3-0.8-0.4-1.6-0.4-2.6c0-1,0.1-1.9,0.4-2.6
		s0.6-1.4,1.1-1.9s1-0.9,1.6-1.2c0.6-0.3,1.3-0.4,2-0.4s1.4,0.1,2,0.4c0.6,0.3,1.2,0.6,1.6,1.1c0.4,0.5,0.8,1.1,1.1,1.9
		S18.3,116.9,18.3,117.9z M16.7,117.9c0-1.6-0.3-2.7-0.9-3.5c-0.6-0.8-1.4-1.2-2.5-1.2s-1.8,0.4-2.5,1.2c-0.6,0.8-0.9,1.9-0.9,3.5
		s0.3,2.7,0.9,3.5c0.6,0.8,1.4,1.2,2.5,1.2s1.9-0.4,2.5-1.2C16.3,120.6,16.7,119.5,16.7,117.9z"/>
	<path id="XMLID_33_" class="st0" d="M28.7,123.8v-6.9c0-1.3-0.2-2.2-0.7-2.8c-0.5-0.6-1.1-0.9-2.1-0.9c-0.8,0-1.5,0.3-2.1,0.9
		c-0.6,0.6-0.8,1.5-0.8,2.8v6.9h-1.7v-11.7h1.7l0,1.4c0.3-0.5,0.8-0.9,1.3-1.2c0.5-0.3,1.2-0.5,1.9-0.5c0.6,0,1.2,0.1,1.7,0.3
		c0.5,0.2,0.9,0.5,1.3,0.9c0.4,0.4,0.6,0.9,0.8,1.5c0.2,0.6,0.3,1.3,0.3,2.2v7.1H28.7z"/>
	<path id="XMLID_29_" class="st0" d="M50.9,119.4c0,0.8-0.1,1.4-0.4,2c-0.3,0.6-0.7,1.1-1.2,1.5c-0.5,0.4-1.1,0.7-1.8,0.9
		c-0.7,0.2-1.5,0.3-2.4,0.3s-1.7-0.1-2.4-0.3s-1.3-0.5-1.8-0.9c-0.5-0.4-0.9-0.9-1.2-1.4s-0.4-1.2-0.4-2c0-1,0.3-1.9,0.8-2.5
		c0.5-0.7,1.3-1.2,2.3-1.5c-0.7-0.3-1.3-0.7-1.7-1.2c-0.5-0.5-0.7-1.2-0.7-2.1c0-0.6,0.1-1.2,0.3-1.7c0.2-0.5,0.6-1,1-1.3
		c0.4-0.4,1-0.7,1.6-0.9c0.6-0.2,1.4-0.3,2.2-0.3c0.8,0,1.6,0.1,2.2,0.3c0.6,0.2,1.2,0.5,1.6,0.9c0.4,0.4,0.8,0.8,1,1.3
		c0.2,0.5,0.3,1.1,0.3,1.7c0,0.8-0.2,1.5-0.7,2s-1,0.9-1.8,1.2c1,0.3,1.7,0.8,2.3,1.5C50.6,117.5,50.9,118.4,50.9,119.4z
		 M49.1,119.5c0-0.9-0.4-1.7-1.1-2.3c-0.7-0.6-1.7-0.9-3-0.9s-2.3,0.3-3,0.9c-0.7,0.6-1,1.3-1,2.2c0,0.9,0.3,1.7,1,2.2
		c0.7,0.6,1.7,0.8,3.1,0.8s2.4-0.3,3.1-0.8C48.8,121.1,49.1,120.4,49.1,119.5z M48.5,112.1c0-0.3-0.1-0.6-0.2-1
		c-0.1-0.3-0.3-0.6-0.6-0.8c-0.3-0.2-0.6-0.4-1.1-0.6s-1-0.2-1.6-0.2s-1.2,0.1-1.6,0.2c-0.4,0.1-0.8,0.3-1,0.6
		c-0.3,0.2-0.5,0.5-0.6,0.8s-0.2,0.6-0.2,1c0,0.8,0.3,1.4,0.9,1.9s1.4,0.8,2.5,0.8c1,0,1.9-0.3,2.5-0.8
		C48.2,113.5,48.5,112.9,48.5,112.1z"/>
	<path id="XMLID_25_" class="st0" d="M65,119.4c0,0.8-0.1,1.4-0.4,2c-0.3,0.6-0.7,1.1-1.2,1.5c-0.5,0.4-1.1,0.7-1.8,0.9
		c-0.7,0.2-1.5,0.3-2.4,0.3s-1.7-0.1-2.4-0.3s-1.3-0.5-1.8-0.9c-0.5-0.4-0.9-0.9-1.2-1.4s-0.4-1.2-0.4-2c0-1,0.3-1.9,0.8-2.5
		c0.5-0.7,1.3-1.2,2.3-1.5c-0.7-0.3-1.3-0.7-1.7-1.2c-0.5-0.5-0.7-1.2-0.7-2.1c0-0.6,0.1-1.2,0.3-1.7c0.2-0.5,0.6-1,1-1.3
		c0.4-0.4,1-0.7,1.6-0.9c0.6-0.2,1.4-0.3,2.2-0.3c0.8,0,1.6,0.1,2.2,0.3c0.6,0.2,1.2,0.5,1.6,0.9c0.4,0.4,0.8,0.8,1,1.3
		c0.2,0.5,0.3,1.1,0.3,1.7c0,0.8-0.2,1.5-0.7,2s-1,0.9-1.8,1.2c1,0.3,1.7,0.8,2.3,1.5C64.8,117.5,65,118.4,65,119.4z M63.3,119.5
		c0-0.9-0.4-1.7-1.1-2.3c-0.7-0.6-1.7-0.9-3-0.9s-2.3,0.3-3,0.9c-0.7,0.6-1,1.3-1,2.2c0,0.9,0.3,1.7,1,2.2c0.7,0.6,1.7,0.8,3.1,0.8
		s2.4-0.3,3.1-0.8C63,121.1,63.3,120.4,63.3,119.5z M62.7,112.1c0-0.3-0.1-0.6-0.2-1c-0.1-0.3-0.3-0.6-0.6-0.8
		c-0.3-0.2-0.6-0.4-1.1-0.6s-1-0.2-1.6-0.2s-1.2,0.1-1.6,0.2c-0.4,0.1-0.8,0.3-1,0.6c-0.3,0.2-0.5,0.5-0.6,0.8s-0.2,0.6-0.2,1
		c0,0.8,0.3,1.4,0.9,1.9s1.4,0.8,2.5,0.8c1,0,1.9-0.3,2.5-0.8C62.4,113.5,62.7,112.9,62.7,112.1z"/>
	<path id="XMLID_23_" class="st0" d="M77.4,119.3c0,1.5-0.5,2.6-1.5,3.5c-1,0.8-2.3,1.2-4.1,1.2c-0.5,0-1-0.1-1.4-0.2
		s-0.9-0.3-1.3-0.5c-0.4-0.2-0.8-0.4-1.1-0.7c-0.3-0.3-0.7-0.5-0.9-0.8l1.2-1.2c0.5,0.5,1.1,0.9,1.7,1.3c0.6,0.3,1.3,0.5,2.1,0.5
		c1.3,0,2.2-0.3,2.8-0.8c0.6-0.5,0.9-1.3,0.9-2.3c0-1-0.3-1.7-1-2.2c-0.7-0.5-1.6-0.7-2.7-0.7h-1v-1.5h1.1c1,0,1.8-0.3,2.3-0.8
		c0.5-0.5,0.7-1.2,0.7-2c0-0.4-0.1-0.7-0.2-1c-0.1-0.3-0.3-0.6-0.5-0.8c-0.3-0.2-0.6-0.4-1-0.6c-0.4-0.1-0.9-0.2-1.5-0.2
		c-0.7,0-1.3,0.1-1.8,0.4c-0.5,0.3-1,0.6-1.4,1l-1.1-1.1c0.2-0.2,0.5-0.5,0.8-0.7c0.3-0.2,0.6-0.4,1-0.6c0.4-0.2,0.8-0.3,1.2-0.4
		s0.9-0.2,1.3-0.2c0.7,0,1.3,0.1,1.9,0.2c0.6,0.2,1.1,0.4,1.5,0.7c0.4,0.3,0.8,0.8,1,1.2s0.4,1.1,0.4,1.8c0,1-0.2,1.7-0.6,2.3
		c-0.4,0.6-0.9,1-1.6,1.4c0.4,0.1,0.7,0.2,1.1,0.4c0.3,0.2,0.6,0.4,0.9,0.7c0.3,0.3,0.5,0.7,0.6,1.1
		C77.3,118.2,77.4,118.7,77.4,119.3z"/>
	<path id="XMLID_20_" class="st0" d="M101.7,117.8c0,1-0.1,2-0.3,2.7s-0.5,1.4-0.9,2c-0.4,0.5-0.9,0.9-1.4,1.2
		c-0.5,0.3-1.1,0.4-1.7,0.4c-0.7,0-1.4-0.1-1.9-0.4s-1-0.7-1.4-1.1v4.7l-1.7,0.9v-16H94l0,1.4c0.4-0.4,0.9-0.8,1.5-1.2
		c0.6-0.3,1.2-0.5,2.1-0.5c0.6,0,1.1,0.1,1.6,0.3s1,0.6,1.3,1.1s0.7,1.1,0.9,1.8C101.6,115.8,101.7,116.7,101.7,117.8z M100.1,117.8
		c0-1.5-0.3-2.6-0.8-3.4c-0.5-0.8-1.2-1.1-2.2-1.1c-0.6,0-1.2,0.2-1.7,0.5c-0.5,0.3-1,0.7-1.4,1.2v5.9c0.3,0.5,0.8,0.9,1.3,1.3
		c0.5,0.3,1.2,0.5,1.9,0.5c1,0,1.7-0.4,2.2-1.2S100.1,119.4,100.1,117.8z"/>
	<path id="XMLID_17_" class="st0" d="M111.5,123.8v-1.4c-0.4,0.4-0.9,0.8-1.5,1.2c-0.6,0.3-1.3,0.5-2.2,0.5c-0.5,0-0.9-0.1-1.4-0.2
		c-0.4-0.1-0.8-0.3-1.2-0.6s-0.6-0.7-0.9-1.1c-0.2-0.5-0.3-1.1-0.3-1.8c0-0.7,0.1-1.2,0.4-1.7c0.3-0.5,0.6-0.9,1-1.2
		c0.4-0.3,0.9-0.5,1.4-0.7c0.5-0.1,1.1-0.2,1.7-0.2c0.6,0,1.1,0.1,1.6,0.2c0.5,0.1,0.9,0.3,1.3,0.5v-1.4c0-1.7-0.8-2.6-2.5-2.6
		c-0.6,0-1.2,0.1-1.7,0.2c-0.5,0.2-1,0.4-1.5,0.7l-0.6-1.4c0.5-0.3,1.1-0.5,1.8-0.7c0.7-0.2,1.4-0.3,2.1-0.3c1.3,0,2.3,0.3,3,0.9
		c0.7,0.6,1.1,1.6,1.1,2.9v8.2H111.5z M111.5,118.6c-0.4-0.2-0.8-0.4-1.3-0.5c-0.5-0.1-1-0.2-1.7-0.2c-0.9,0-1.5,0.2-2,0.6
		s-0.7,1-0.7,1.7c0,0.9,0.2,1.5,0.7,1.9c0.4,0.4,1,0.6,1.7,0.6c0.8,0,1.4-0.2,2-0.5s1-0.8,1.4-1.2V118.6z"/>
	<path id="XMLID_15_" class="st0" d="M119,113.5v7.6c0,0.5,0.1,0.9,0.3,1.1s0.5,0.3,0.9,0.3c0.3,0,0.6,0,0.9-0.1s0.5-0.1,0.8-0.3
		l-0.1,1.4c-0.3,0.1-0.7,0.2-1,0.3c-0.3,0.1-0.7,0.1-1.2,0.1c-0.7,0-1.3-0.2-1.7-0.6c-0.4-0.4-0.6-1.1-0.6-2.1v-7.9h-1.4v-1.4h1.4
		v-3.6l1.7-0.9v4.5h2.9v1.4H119z"/>
	<path id="XMLID_12_" class="st0" d="M127.2,108.8c0,0.3-0.1,0.6-0.3,0.8c-0.2,0.2-0.5,0.3-0.8,0.3c-0.3,0-0.6-0.1-0.9-0.3
		c-0.2-0.2-0.4-0.5-0.4-0.8c0-0.3,0.1-0.6,0.4-0.9c0.2-0.2,0.5-0.3,0.9-0.3c0.3,0,0.6,0.1,0.8,0.3
		C127.1,108.2,127.2,108.5,127.2,108.8z M125.2,123.8v-11.7h1.7v11.7H125.2z"/>
	<path id="XMLID_9_" class="st0" d="M139.6,117.6c0,0.2,0,0.4,0,0.5s0,0.3-0.1,0.4h-7.8c0.1,1.3,0.4,2.3,1,3
		c0.6,0.7,1.3,1.1,2.3,1.1c0.7,0,1.3-0.1,1.7-0.3c0.5-0.2,1-0.5,1.5-0.8l0.8,1.2c-0.4,0.2-0.7,0.4-1,0.6c-0.3,0.2-0.6,0.3-1,0.4
		s-0.7,0.2-1,0.3s-0.8,0.1-1.2,0.1c-0.5,0-1.1-0.1-1.6-0.3c-0.6-0.2-1.1-0.6-1.5-1c-0.5-0.5-0.8-1.1-1.1-1.9
		c-0.3-0.8-0.5-1.8-0.5-2.9c0-0.9,0.1-1.8,0.4-2.5c0.2-0.7,0.6-1.4,1-1.9c0.4-0.5,0.9-0.9,1.5-1.2c0.6-0.3,1.2-0.4,1.9-0.4
		c0.8,0,1.4,0.1,2,0.4c0.6,0.3,1.1,0.7,1.5,1.2s0.7,1.1,0.9,1.8C139.5,116,139.6,116.8,139.6,117.6z M138.1,117.2
		c-0.1-1.2-0.4-2.1-0.9-2.8c-0.5-0.7-1.3-1.1-2.3-1.1c-0.9,0-1.6,0.3-2.1,1c-0.6,0.6-0.9,1.6-1,2.9H138.1z"/>
	<path id="XMLID_7_" class="st0" d="M150.1,123.8v-6.9c0-1.3-0.2-2.2-0.7-2.8c-0.5-0.6-1.1-0.9-2.1-0.9c-0.8,0-1.5,0.3-2.1,0.9
		c-0.6,0.6-0.8,1.5-0.8,2.8v6.9h-1.7v-11.7h1.7l0,1.4c0.3-0.5,0.8-0.9,1.3-1.2c0.5-0.3,1.2-0.5,1.9-0.5c0.6,0,1.2,0.1,1.7,0.3
		c0.5,0.2,0.9,0.5,1.3,0.9c0.4,0.4,0.6,0.9,0.8,1.5c0.2,0.6,0.3,1.3,0.3,2.2v7.1H150.1z"/>
	<path id="XMLID_5_" class="st0" d="M157.5,113.5v7.6c0,0.5,0.1,0.9,0.3,1.1s0.5,0.3,0.9,0.3c0.3,0,0.6,0,0.9-0.1s0.5-0.1,0.8-0.3
		l-0.1,1.4c-0.3,0.1-0.7,0.2-1,0.3c-0.3,0.1-0.7,0.1-1.2,0.1c-0.7,0-1.3-0.2-1.7-0.6c-0.4-0.4-0.6-1.1-0.6-2.1v-7.9h-1.4v-1.4h1.4
		v-3.6l1.7-0.9v4.5h2.9v1.4H157.5z"/>
	<path id="XMLID_2_" class="st0" d="M170.9,120.7c0,0.6-0.1,1.1-0.3,1.5c-0.2,0.4-0.5,0.8-0.9,1s-0.8,0.5-1.3,0.6
		c-0.5,0.1-1,0.2-1.5,0.2c-0.8,0-1.5-0.1-2.2-0.4c-0.7-0.3-1.3-0.6-1.9-1.1l1-1.2c0.5,0.4,1,0.7,1.5,1c0.5,0.2,1.1,0.3,1.7,0.3
		c0.8,0,1.4-0.2,1.8-0.5c0.4-0.3,0.6-0.8,0.6-1.3c0-0.2,0-0.5-0.1-0.6c-0.1-0.2-0.3-0.4-0.5-0.6c-0.2-0.2-0.5-0.4-0.8-0.6
		c-0.3-0.2-0.8-0.4-1.3-0.6c-0.6-0.3-1.1-0.5-1.5-0.7c-0.4-0.2-0.8-0.5-1-0.7s-0.5-0.6-0.6-0.9c-0.1-0.3-0.2-0.7-0.2-1.2
		c0-0.4,0.1-0.9,0.3-1.2c0.2-0.4,0.4-0.7,0.8-0.9c0.3-0.3,0.7-0.5,1.1-0.6c0.4-0.1,0.9-0.2,1.5-0.2c0.8,0,1.5,0.1,2.1,0.3
		s1.2,0.5,1.6,0.9l-0.9,1.2c-0.5-0.4-0.9-0.6-1.3-0.8c-0.4-0.2-1-0.3-1.6-0.3c-0.6,0-1.1,0.1-1.4,0.4c-0.3,0.3-0.5,0.6-0.5,1
		c0,0.3,0,0.5,0.1,0.6c0.1,0.2,0.2,0.4,0.4,0.5c0.2,0.2,0.5,0.3,0.8,0.5c0.3,0.2,0.7,0.4,1.2,0.6c0.5,0.3,1,0.5,1.5,0.7
		s0.8,0.5,1.1,0.7c0.3,0.3,0.5,0.6,0.7,1C170.8,119.8,170.9,120.2,170.9,120.7z"/>
</g>
</svg>
