<!-- Generator: Adobe Illustrator 22.1.0, SVG Export Plug-In  -->
<svg version="1.1"
	 xmlns="http://www.w3.org/2000/svg" xmlns:xlink="http://www.w3.org/1999/xlink" xmlns:a="http://ns.adobe.com/AdobeSVGViewerExtensions/3.0/"
	 x="0px" y="0px" width="429.3px" height="248.9px" viewBox="0 0 429.3 248.9" style="enable-background:new 0 0 429.3 248.9;"
	 xml:space="preserve">
<style type="text/css">
	.st0{fill:#595A5C;}
	.st1{fill:url(#XMLID_685_);}
	.st2{fill:url(#XMLID_686_);}
	.st3{fill:none;stroke:#BDBEC1;stroke-width:0.1618;}
	.st4{font-family:'Interstate-Regular';}
	.st5{font-size:7.7143px;}
	.st6{fill:url(#XMLID_687_);}
	.st7{fill:url(#XMLID_688_);}
	.st8{fill:url(#XMLID_689_);}
	.st9{fill:url(#XMLID_690_);}
	.st10{fill:url(#XMLID_691_);}
	.st11{fill:url(#XMLID_692_);}
	.st12{fill:none;stroke:#532D6D;stroke-width:0.9187;}
	.st13{fill:#532D6D;}
	.st14{fill:#FFFFFF;}
	.st15{fill:url(#XMLID_693_);}
	.st16{fill:url(#XMLID_694_);}
	.st17{fill:url(#XMLID_695_);}
	.st18{fill:url(#XMLID_696_);}
	.st19{fill:url(#XMLID_697_);}
	.st20{fill:url(#XMLID_698_);}
	.st21{fill:url(#XMLID_699_);}
	.st22{fill:url(#XMLID_700_);}
</style>
<defs>
</defs>
<g id="XMLID_645_">
	<g id="XMLID_669_">
		<g id="XMLID_671_">
			<g>
				<path id="XMLID_677_" class="st0" d="M158.8,236.9v-5.9h0.9v5.1h3v0.9H158.8z"/>
				<path id="XMLID_675_" class="st0" d="M163.8,236.9v-5.9h3.8v0.9h-2.9v1.5h1.7v0.9h-1.7v1.9h3.1v0.9H163.8z"/>
				<path id="XMLID_673_" class="st0" d="M171.7,236.9h-0.9l-2.1-5.9h1l1.2,3.8c0,0.1,0.1,0.2,0.1,0.3c0,0.1,0.1,0.2,0.1,0.3
					s0.1,0.2,0.1,0.3c0,0.1,0,0.2,0.1,0.2c0-0.1,0-0.1,0.1-0.2c0-0.1,0.1-0.2,0.1-0.3s0.1-0.2,0.1-0.3s0.1-0.2,0.1-0.3l1.2-3.8h1
					L171.7,236.9z"/>
			</g>
		</g>
		<linearGradient id="XMLID_685_" gradientUnits="userSpaceOnUse" x1="148.0388" y1="234.0816" x2="156.453" y2="234.0816">
			<stop  offset="0" style="stop-color:#4B257A"/>
			<stop  offset="1" style="stop-color:#964C8E"/>
		</linearGradient>
		<rect id="XMLID_670_" x="148" y="230.4" class="st1" width="8.4" height="7.4"/>
	</g>
	<g id="XMLID_646_">
		<g id="XMLID_649_">
			<g>
				<path id="XMLID_659_" class="st0" d="M203.8,236.7c-0.3,0.2-0.7,0.3-1.2,0.3c-0.4,0-0.7-0.1-1-0.2c-0.3-0.1-0.6-0.4-0.8-0.6
					c-0.2-0.3-0.4-0.6-0.5-1c-0.1-0.4-0.2-0.8-0.2-1.2c0-0.4,0.1-0.9,0.2-1.2c0.1-0.4,0.3-0.7,0.5-1c0.2-0.3,0.5-0.5,0.8-0.6
					c0.3-0.1,0.7-0.2,1-0.2c0.5,0,0.9,0.1,1.2,0.3s0.6,0.5,0.8,0.8l-0.8,0.5c-0.2-0.2-0.3-0.4-0.5-0.5c-0.2-0.1-0.4-0.2-0.7-0.2
					c-0.5,0-0.9,0.2-1.2,0.6c-0.3,0.4-0.4,0.9-0.4,1.6s0.1,1.2,0.4,1.6c0.3,0.4,0.7,0.6,1.2,0.6c0.3,0,0.6-0.1,0.8-0.2
					c0.2-0.1,0.4-0.3,0.5-0.6l0.7,0.5C204.4,236.2,204.1,236.5,203.8,236.7z"/>
				<path id="XMLID_655_" class="st0" d="M210.3,235c0,0.6-0.2,1.1-0.5,1.4s-0.9,0.5-1.5,0.5h-2.4v-5.9h2.4c0.5,0,0.9,0.1,1.2,0.4
					s0.5,0.6,0.5,1.1c0,0.3-0.1,0.6-0.2,0.7c-0.1,0.2-0.3,0.3-0.5,0.4c0.1,0,0.2,0.1,0.4,0.2c0.1,0.1,0.2,0.2,0.3,0.3
					c0.1,0.1,0.2,0.2,0.2,0.4C210.3,234.7,210.3,234.8,210.3,235z M209.2,232.5c0-0.2-0.1-0.4-0.2-0.6c-0.1-0.1-0.3-0.2-0.6-0.2
					h-1.6v1.5h1.6c0.1,0,0.3,0,0.4-0.1c0.1,0,0.2-0.1,0.3-0.2c0.1-0.1,0.1-0.2,0.1-0.2S209.2,232.6,209.2,232.5z M209.4,235.1
					c0-0.3-0.1-0.5-0.3-0.7c-0.2-0.2-0.4-0.3-0.8-0.3h-1.6v2h1.6c0.4,0,0.7-0.1,0.8-0.3C209.3,235.6,209.4,235.4,209.4,235.1z"/>
				<path id="XMLID_653_" class="st0" d="M211.4,236.9V236l2.9-3.5c0-0.1,0.1-0.1,0.2-0.2c0.1-0.1,0.1-0.1,0.2-0.2
					c0.1-0.1,0.1-0.1,0.2-0.2c0.1-0.1,0.1-0.1,0.1-0.2c-0.1,0-0.1,0-0.2,0c-0.1,0-0.2,0-0.3,0s-0.2,0-0.3,0s-0.2,0-0.3,0h-2.2v-0.8
					h4.3v0.9l-2.9,3.5c0,0.1-0.1,0.1-0.2,0.2c-0.1,0.1-0.1,0.1-0.2,0.2c-0.1,0.1-0.1,0.1-0.2,0.2c-0.1,0.1-0.1,0.1-0.1,0.2
					c0.1,0,0.1,0,0.2,0c0.1,0,0.2,0,0.3,0s0.2,0,0.3,0s0.2,0,0.3,0h2.3v0.8H211.4z"/>
			</g>
		</g>
		<linearGradient id="XMLID_686_" gradientUnits="userSpaceOnUse" x1="188.1739" y1="234.0825" x2="196.5869" y2="234.0825">
			<stop  offset="0" style="stop-color:#FFF200"/>
			<stop  offset="1" style="stop-color:#F2A41E"/>
		</linearGradient>
		<rect id="XMLID_647_" x="188.2" y="230.4" class="st2" width="8.4" height="7.4"/>
	</g>
</g>
<g id="XMLID_575_">
	<g>
		<path id="XMLID_607_" class="st0" d="M366.4,39.7c0,0.3,0,0.5-0.1,0.7c-0.1,0.2-0.2,0.4-0.3,0.5c-0.1,0.1-0.3,0.2-0.5,0.3
			c-0.2,0.1-0.4,0.1-0.7,0.1h-1.3v1.9h-0.7v-5h2.1c0.2,0,0.4,0,0.6,0.1c0.2,0.1,0.4,0.2,0.5,0.3c0.1,0.1,0.3,0.3,0.3,0.5
			C366.4,39.2,366.4,39.4,366.4,39.7z M365.7,39.7c0-0.3-0.1-0.5-0.2-0.6c-0.2-0.1-0.4-0.2-0.6-0.2h-1.3v1.7h1.3
			c0.3,0,0.5-0.1,0.6-0.2C365.6,40.2,365.7,40,365.7,39.7z"/>
		<path id="XMLID_605_" class="st0" d="M371,43.1h-0.7l-1.3-3.8h0.8l0.7,2c0.1,0.2,0.1,0.4,0.2,0.5c0,0.2,0.1,0.3,0.1,0.4
			c0-0.1,0.1-0.2,0.1-0.4c0-0.2,0.1-0.3,0.2-0.5l0.6-2h0.8L371,43.1z"/>
		<path id="XMLID_602_" class="st0" d="M375.2,43.1v-0.4c-0.1,0.1-0.3,0.2-0.5,0.3c-0.2,0.1-0.4,0.1-0.6,0.1c-0.2,0-0.3,0-0.5-0.1
			c-0.2,0-0.3-0.1-0.4-0.2s-0.2-0.2-0.3-0.4c-0.1-0.2-0.1-0.4-0.1-0.6c0-0.2,0-0.4,0.1-0.5c0.1-0.2,0.2-0.3,0.3-0.4s0.3-0.2,0.5-0.2
			c0.2,0,0.4-0.1,0.6-0.1c0.3,0,0.6,0,0.8,0.1v-0.3c0-0.2-0.1-0.4-0.2-0.5c-0.1-0.1-0.3-0.2-0.5-0.2c-0.2,0-0.4,0-0.5,0.1
			s-0.3,0.1-0.5,0.2l-0.3-0.6c0.2-0.1,0.4-0.2,0.6-0.3c0.2-0.1,0.4-0.1,0.7-0.1c0.4,0,0.8,0.1,1,0.3s0.4,0.5,0.4,0.9v2.6H375.2z
			 M375.2,41.5c-0.1-0.1-0.2-0.1-0.4-0.1c-0.1,0-0.3,0-0.5,0c-0.2,0-0.4,0.1-0.6,0.2c-0.1,0.1-0.2,0.2-0.2,0.4
			c0,0.2,0.1,0.3,0.2,0.5c0.1,0.1,0.3,0.2,0.5,0.2c0.2,0,0.4-0.1,0.5-0.2c0.2-0.1,0.3-0.2,0.4-0.3V41.5z"/>
		<path id="XMLID_600_" class="st0" d="M377.1,43.1v-4.8l0.7-0.4v5.2H377.1z"/>
		<path id="XMLID_598_" class="st0" d="M381.2,43.1v-0.4c-0.1,0.1-0.2,0.2-0.4,0.3c-0.2,0.1-0.4,0.1-0.5,0.1c-0.4,0-0.8-0.1-1-0.4
			s-0.3-0.7-0.3-1.3v-2.2h0.7v2.1c0,0.4,0.1,0.6,0.2,0.8c0.1,0.2,0.3,0.2,0.6,0.2c0.2,0,0.4-0.1,0.6-0.3s0.2-0.4,0.2-0.7v-2.2h0.7
			v3.8H381.2z"/>
		<path id="XMLID_595_" class="st0" d="M386,41.2c0,0.1,0,0.1,0,0.2c0,0.1,0,0.1,0,0.1h-2.5c0,0.2,0.1,0.3,0.1,0.5
			c0.1,0.1,0.1,0.2,0.2,0.3c0.1,0.1,0.2,0.1,0.3,0.2s0.2,0.1,0.3,0.1c0.2,0,0.3,0,0.4-0.1c0.1-0.1,0.3-0.1,0.4-0.2l0.4,0.5
			c-0.2,0.2-0.4,0.3-0.6,0.4c-0.2,0.1-0.5,0.1-0.7,0.1c-0.2,0-0.4,0-0.6-0.1c-0.2-0.1-0.4-0.2-0.5-0.4s-0.3-0.4-0.4-0.6
			s-0.1-0.5-0.1-0.8c0-0.3,0-0.6,0.1-0.8s0.2-0.4,0.3-0.6c0.1-0.2,0.3-0.3,0.5-0.4s0.4-0.1,0.7-0.1c0.3,0,0.5,0,0.7,0.1
			s0.4,0.2,0.5,0.4c0.1,0.2,0.2,0.4,0.3,0.6S386,40.9,386,41.2z M385.3,40.9c0-0.1,0-0.3-0.1-0.4c0-0.1-0.1-0.2-0.2-0.3
			c-0.1-0.1-0.2-0.2-0.3-0.2c-0.1-0.1-0.2-0.1-0.4-0.1c-0.2,0-0.4,0.1-0.6,0.2c-0.1,0.2-0.2,0.4-0.3,0.7H385.3z"/>
		<path id="XMLID_592_" class="st0" d="M388.9,40.2v-0.7h3.1v0.7H388.9z M388.9,41.9v-0.7h3.1v0.7H388.9z"/>
		<path id="XMLID_589_" class="st0" d="M398.9,40.6c0,0.4,0,0.7-0.1,1c-0.1,0.3-0.2,0.6-0.4,0.8c-0.2,0.2-0.4,0.4-0.6,0.5
			c-0.2,0.1-0.5,0.2-0.9,0.2s-0.6-0.1-0.9-0.2c-0.2-0.1-0.5-0.3-0.6-0.5c-0.2-0.2-0.3-0.5-0.4-0.8s-0.1-0.7-0.1-1c0-0.4,0-0.7,0.1-1
			c0.1-0.3,0.2-0.6,0.4-0.8s0.4-0.4,0.6-0.5c0.2-0.1,0.5-0.2,0.9-0.2s0.6,0.1,0.9,0.2c0.2,0.1,0.5,0.3,0.6,0.5
			c0.2,0.2,0.3,0.5,0.4,0.8C398.8,39.9,398.9,40.2,398.9,40.6z M398.1,40.6c0-0.3,0-0.5-0.1-0.7c0-0.2-0.1-0.4-0.2-0.6
			c-0.1-0.2-0.2-0.3-0.4-0.4c-0.2-0.1-0.3-0.1-0.6-0.1c-0.2,0-0.4,0-0.6,0.1c-0.2,0.1-0.3,0.2-0.4,0.4s-0.2,0.4-0.2,0.6
			s-0.1,0.5-0.1,0.7s0,0.5,0.1,0.7c0,0.2,0.1,0.4,0.2,0.6s0.2,0.3,0.4,0.4s0.3,0.1,0.6,0.1c0.2,0,0.4,0,0.6-0.1
			c0.2-0.1,0.3-0.2,0.4-0.4s0.2-0.4,0.2-0.6S398.1,40.9,398.1,40.6z"/>
		<path id="XMLID_587_" class="st0" d="M400.7,42.6c0,0.2-0.1,0.3-0.2,0.4c-0.1,0.1-0.2,0.2-0.4,0.2c-0.2,0-0.3-0.1-0.4-0.2
			c-0.1-0.1-0.2-0.2-0.2-0.4c0-0.1,0-0.1,0-0.2c0-0.1,0.1-0.1,0.1-0.2c0-0.1,0.1-0.1,0.2-0.1c0.1,0,0.1,0,0.2,0s0.1,0,0.2,0
			c0.1,0,0.1,0.1,0.2,0.1c0,0.1,0.1,0.1,0.1,0.2C400.7,42.5,400.7,42.6,400.7,42.6z"/>
		<path id="XMLID_584_" class="st0" d="M404.8,42v1.1h-0.7V42h-2.7v-0.7l2.6-3.2h0.9v3.2h0.7V42H404.8z M404.1,39
			c0,0.1-0.1,0.2-0.2,0.3c-0.1,0.1-0.2,0.2-0.3,0.3l-1,1.2c-0.1,0.1-0.2,0.2-0.3,0.3c-0.1,0.1-0.2,0.2-0.2,0.3c0,0,0.1,0,0.2,0
			c0.1,0,0.1,0,0.2,0c0.1,0,0.2,0,0.2,0c0.1,0,0.1,0,0.2,0h1.1v-1.5c0-0.1,0-0.2,0-0.2c0-0.1,0-0.2,0-0.3c0-0.1,0-0.2,0-0.2
			C404.1,39.1,404.1,39,404.1,39z"/>
		<path id="XMLID_582_" class="st0" d="M409.9,41.4c0,0.3,0,0.6-0.1,0.8c-0.1,0.2-0.2,0.4-0.4,0.6s-0.4,0.3-0.6,0.3
			c-0.2,0.1-0.5,0.1-0.8,0.1c-0.3,0-0.6,0-0.9-0.1c-0.3-0.1-0.6-0.2-0.8-0.4l0.4-0.6c0.2,0.1,0.4,0.2,0.7,0.3
			c0.2,0.1,0.5,0.1,0.7,0.1c0.4,0,0.7-0.1,0.9-0.3c0.2-0.2,0.3-0.4,0.3-0.7c0-0.3-0.1-0.5-0.3-0.7c-0.2-0.1-0.4-0.2-0.7-0.2
			c-0.2,0-0.4,0-0.5,0.1s-0.3,0.1-0.4,0.2l-0.8-0.3l0.2-2.4h3.1v0.7h-2.4l-0.1,1.3c0.1-0.1,0.3-0.1,0.5-0.2c0.2,0,0.4-0.1,0.6-0.1
			c0.3,0,0.5,0,0.8,0.1c0.2,0.1,0.4,0.2,0.5,0.3s0.3,0.3,0.3,0.5C409.9,41,409.9,41.2,409.9,41.4z"/>
		<path id="XMLID_579_" class="st0" d="M414.5,40c0,0.2,0,0.4-0.1,0.7c0,0.2-0.1,0.5-0.2,0.7s-0.2,0.4-0.4,0.7
			c-0.2,0.2-0.4,0.4-0.6,0.6c-0.2,0.2-0.5,0.3-0.8,0.4s-0.7,0.2-1.1,0.2v-0.7c0.6,0,1.1-0.2,1.4-0.4s0.7-0.7,0.8-1.2
			c-0.2,0.1-0.4,0.2-0.6,0.3c-0.2,0.1-0.4,0.1-0.8,0.1c-0.2,0-0.4,0-0.6-0.1c-0.2-0.1-0.4-0.2-0.5-0.3c-0.2-0.1-0.3-0.3-0.4-0.5
			c-0.1-0.2-0.1-0.4-0.1-0.7c0-0.3,0.1-0.5,0.2-0.7c0.1-0.2,0.2-0.4,0.4-0.5c0.2-0.1,0.4-0.2,0.6-0.3c0.2-0.1,0.5-0.1,0.8-0.1
			c0.3,0,0.5,0,0.7,0.1c0.2,0.1,0.4,0.2,0.6,0.4c0.2,0.2,0.3,0.4,0.4,0.6C414.5,39.4,414.5,39.7,414.5,40z M413.8,39.7
			c0-0.1,0-0.2-0.1-0.3c0-0.1-0.1-0.2-0.2-0.3s-0.2-0.1-0.4-0.2c-0.1-0.1-0.3-0.1-0.5-0.1c-0.4,0-0.7,0.1-0.9,0.2
			c-0.2,0.2-0.3,0.4-0.3,0.7c0,0.3,0.1,0.5,0.3,0.7c0.2,0.1,0.5,0.2,0.8,0.2c0.4,0,0.7-0.1,0.9-0.2C413.7,40.2,413.8,40,413.8,39.7z
			"/>
		<path id="XMLID_577_" class="st0" d="M419,41.4c0,0.3,0,0.6-0.1,0.8c-0.1,0.2-0.2,0.4-0.4,0.6s-0.4,0.3-0.6,0.3
			c-0.2,0.1-0.5,0.1-0.8,0.1c-0.3,0-0.6,0-0.9-0.1c-0.3-0.1-0.6-0.2-0.8-0.4l0.4-0.6c0.2,0.1,0.4,0.2,0.7,0.3
			c0.2,0.1,0.5,0.1,0.7,0.1c0.4,0,0.7-0.1,0.9-0.3c0.2-0.2,0.3-0.4,0.3-0.7c0-0.3-0.1-0.5-0.3-0.7c-0.2-0.1-0.4-0.2-0.7-0.2
			c-0.2,0-0.4,0-0.5,0.1s-0.3,0.1-0.4,0.2l-0.8-0.3l0.2-2.4h3.1v0.7h-2.4l-0.1,1.3c0.1-0.1,0.3-0.1,0.5-0.2c0.2,0,0.4-0.1,0.6-0.1
			c0.3,0,0.5,0,0.8,0.1c0.2,0.1,0.4,0.2,0.5,0.3s0.3,0.3,0.3,0.5C419,41,419,41.2,419,41.4z"/>
	</g>
</g>
<g id="XMLID_483_">
	<g>
		<path id="XMLID_528_" class="st0" d="M11.4,185.6c0.3,0,0.6,0.1,0.9,0.2c0.2,0.1,0.4,0.3,0.6,0.5c0.1,0.2,0.3,0.5,0.3,0.8
			c0.1,0.3,0.1,0.6,0.1,0.9c0,0.5-0.1,0.9-0.2,1.4s-0.3,0.8-0.5,1.1l-1.2-0.5c0.2-0.3,0.3-0.6,0.4-1c0.1-0.3,0.1-0.7,0.1-1.1
			c0-0.3,0-0.5-0.1-0.6c-0.1-0.1-0.2-0.2-0.3-0.2c-0.1,0-0.2,0.1-0.3,0.2c-0.1,0.1-0.2,0.4-0.3,0.7c-0.1,0.4-0.2,0.7-0.3,1
			c-0.1,0.3-0.2,0.5-0.4,0.7c-0.1,0.2-0.3,0.4-0.5,0.5c-0.2,0.1-0.5,0.2-0.8,0.2c-0.3,0-0.6-0.1-0.8-0.2c-0.2-0.1-0.4-0.3-0.6-0.5
			c-0.1-0.2-0.3-0.5-0.3-0.8c-0.1-0.3-0.1-0.6-0.1-1c0-0.4,0.1-0.8,0.2-1.2c0.1-0.4,0.2-0.7,0.4-1.1l1.2,0.5
			c-0.2,0.3-0.3,0.6-0.4,0.9c-0.1,0.3-0.1,0.6-0.1,0.8c0,0.3,0,0.5,0.1,0.6c0.1,0.1,0.2,0.2,0.3,0.2c0.1,0,0.1,0,0.2,0
			c0,0,0.1-0.1,0.1-0.2c0-0.1,0.1-0.2,0.2-0.4c0.1-0.2,0.1-0.4,0.2-0.6c0.1-0.3,0.2-0.5,0.3-0.8c0.1-0.2,0.2-0.5,0.4-0.6
			c0.1-0.2,0.3-0.3,0.5-0.4C10.8,185.6,11.1,185.6,11.4,185.6z"/>
		<path id="XMLID_525_" class="st0" d="M10.1,179.3c0.1,0,0.2,0,0.3,0c0.1,0,0.2,0,0.2,0v3.6c0.2,0,0.4-0.1,0.5-0.1
			c0.1-0.1,0.3-0.2,0.3-0.3c0.1-0.1,0.2-0.2,0.2-0.4c0-0.1,0.1-0.3,0.1-0.4c0-0.2,0-0.4-0.1-0.6s-0.2-0.3-0.3-0.4l0.9-1.1
			c0.3,0.2,0.6,0.6,0.7,1c0.2,0.4,0.3,0.8,0.3,1.2c0,0.4-0.1,0.8-0.2,1.2c-0.1,0.3-0.4,0.6-0.6,0.9s-0.6,0.4-1,0.6
			c-0.4,0.1-0.8,0.2-1.3,0.2c-0.5,0-0.9-0.1-1.3-0.2c-0.4-0.1-0.7-0.3-1-0.6c-0.3-0.2-0.5-0.5-0.6-0.8c-0.2-0.3-0.2-0.7-0.2-1.1
			c0-0.4,0.1-0.7,0.2-1.1s0.4-0.6,0.7-0.8c0.3-0.2,0.6-0.4,1-0.5S9.7,179.3,10.1,179.3z M9.5,180.8c-0.1,0-0.3,0-0.4,0.1
			s-0.2,0.1-0.3,0.2c-0.1,0.1-0.2,0.2-0.2,0.3s-0.1,0.3-0.1,0.5c0,0.3,0.1,0.5,0.3,0.7s0.5,0.3,0.8,0.3V180.8z"/>
		<path id="XMLID_522_" class="st0" d="M5.8,176.3c0.2,0,0.5,0.1,0.6,0.3c0.2,0.2,0.3,0.4,0.3,0.6s-0.1,0.5-0.3,0.6
			c-0.2,0.2-0.4,0.3-0.6,0.3s-0.5-0.1-0.6-0.3c-0.2-0.2-0.3-0.4-0.3-0.6s0.1-0.5,0.3-0.6C5.3,176.4,5.5,176.3,5.8,176.3z M13.1,178
			h-6v-1.6h6V178z"/>
		<path id="XMLID_520_" class="st0" d="M13.1,174.9H12l-2.6-2.2c-0.1-0.1-0.3-0.3-0.5-0.4s-0.3-0.3-0.4-0.3c0,0.1,0,0.1,0,0.2
			c0,0.1,0,0.2,0,0.3c0,0.1,0,0.2,0,0.3c0,0.1,0,0.2,0,0.3v1.8H7.1V170h1.1l2.6,2.1c0.2,0.1,0.3,0.3,0.5,0.4
			c0.2,0.1,0.3,0.3,0.4,0.3c0-0.1,0-0.1,0-0.2c0-0.1,0-0.2,0-0.3s0-0.2,0-0.3c0-0.1,0-0.2,0-0.3V170h1.4V174.9z"/>
		<path id="XMLID_518_" class="st0" d="M13.1,165h-0.4c0.1,0.1,0.3,0.3,0.4,0.6s0.2,0.5,0.2,0.8c0,0.8-0.2,1.3-0.7,1.7
			c-0.5,0.4-1.2,0.5-2,0.5H7.1V167h3.2c0.3,0,0.5,0,0.7-0.1s0.3-0.1,0.4-0.2c0.1-0.1,0.2-0.2,0.2-0.3c0-0.1,0.1-0.3,0.1-0.4
			c0-0.3-0.1-0.6-0.3-0.8c-0.2-0.2-0.5-0.3-1.1-0.3H7.1v-1.6h6V165z"/>
		<path id="XMLID_516_" class="st0" d="M9,158.4c-0.1,0.1-0.2,0.3-0.3,0.4s-0.1,0.3-0.1,0.5c0,0.2,0,0.3,0.1,0.4s0.1,0.2,0.2,0.3
			c0.1,0.1,0.2,0.2,0.4,0.2s0.4,0.1,0.6,0.1h3.2v1.6h-6v-1.6h0.4c-0.1-0.1-0.3-0.3-0.4-0.5c-0.1-0.2-0.2-0.4-0.2-0.7
			c0-0.3,0-0.5,0.1-0.7c0.1-0.2,0.2-0.3,0.3-0.4L9,158.4z"/>
		<path id="XMLID_513_" class="st0" d="M10.1,152.1c0.1,0,0.2,0,0.3,0c0.1,0,0.2,0,0.2,0v3.6c0.2,0,0.4-0.1,0.5-0.1
			c0.1-0.1,0.3-0.2,0.3-0.3c0.1-0.1,0.2-0.2,0.2-0.4c0-0.1,0.1-0.3,0.1-0.4c0-0.2,0-0.4-0.1-0.6s-0.2-0.3-0.3-0.4l0.9-1.1
			c0.3,0.2,0.6,0.6,0.7,1c0.2,0.4,0.3,0.8,0.3,1.2c0,0.4-0.1,0.8-0.2,1.2c-0.1,0.3-0.4,0.6-0.6,0.9s-0.6,0.4-1,0.6
			c-0.4,0.1-0.8,0.2-1.3,0.2c-0.5,0-0.9-0.1-1.3-0.2c-0.4-0.1-0.7-0.3-1-0.6c-0.3-0.2-0.5-0.5-0.6-0.8C7.1,155.4,7,155,7,154.7
			c0-0.4,0.1-0.7,0.2-1.1s0.4-0.6,0.7-0.8c0.3-0.2,0.6-0.4,1-0.5S9.7,152.1,10.1,152.1z M9.5,153.7c-0.1,0-0.3,0-0.4,0.1
			s-0.2,0.1-0.3,0.2c-0.1,0.1-0.2,0.2-0.2,0.3s-0.1,0.3-0.1,0.5c0,0.3,0.1,0.5,0.3,0.7s0.5,0.3,0.8,0.3V153.7z"/>
		<path id="XMLID_511_" class="st0" d="M6.2,144.8c0,0.1,0,0.2,0,0.3c0,0.2,0,0.4,0.1,0.5c0.1,0.1,0.2,0.1,0.4,0.1h0.5v-1h1.5v1h4.5
			v1.6H8.6v0.7H7.1v-0.7H6.4c-0.6,0-1-0.1-1.2-0.4s-0.4-0.7-0.4-1.3c0-0.4,0.1-0.7,0.2-1h1.3C6.3,144.6,6.2,144.7,6.2,144.8z"/>
		<path id="XMLID_509_" class="st0" d="M9,139.9c-0.1,0.1-0.2,0.3-0.3,0.4s-0.1,0.3-0.1,0.5c0,0.2,0,0.3,0.1,0.4s0.1,0.2,0.2,0.3
			c0.1,0.1,0.2,0.2,0.4,0.2s0.4,0.1,0.6,0.1h3.2v1.6h-6v-1.6h0.4c-0.1-0.1-0.3-0.3-0.4-0.5c-0.1-0.2-0.2-0.4-0.2-0.7
			c0-0.3,0-0.5,0.1-0.7c0.1-0.2,0.2-0.3,0.3-0.4L9,139.9z"/>
		<path id="XMLID_506_" class="st0" d="M10.1,133.6c0.1,0,0.2,0,0.3,0c0.1,0,0.2,0,0.2,0v3.6c0.2,0,0.4-0.1,0.5-0.1
			c0.1-0.1,0.3-0.2,0.3-0.3c0.1-0.1,0.2-0.2,0.2-0.4c0-0.1,0.1-0.3,0.1-0.4c0-0.2,0-0.4-0.1-0.6s-0.2-0.3-0.3-0.4l0.9-1.1
			c0.3,0.2,0.6,0.6,0.7,1c0.2,0.4,0.3,0.8,0.3,1.2c0,0.4-0.1,0.8-0.2,1.2c-0.1,0.3-0.4,0.6-0.6,0.9s-0.6,0.4-1,0.6
			c-0.4,0.1-0.8,0.2-1.3,0.2c-0.5,0-0.9-0.1-1.3-0.2c-0.4-0.1-0.7-0.3-1-0.6c-0.3-0.2-0.5-0.5-0.6-0.8c-0.2-0.3-0.2-0.7-0.2-1.1
			c0-0.4,0.1-0.7,0.2-1.1s0.4-0.6,0.7-0.8c0.3-0.2,0.6-0.4,1-0.5S9.7,133.6,10.1,133.6z M9.5,135.2c-0.1,0-0.3,0-0.4,0.1
			s-0.2,0.1-0.3,0.2c-0.1,0.1-0.2,0.2-0.2,0.3s-0.1,0.3-0.1,0.5c0,0.3,0.1,0.5,0.3,0.7s0.5,0.3,0.8,0.3V135.2z"/>
		<path id="XMLID_503_" class="st0" d="M10.1,127.5c0.1,0,0.2,0,0.3,0c0.1,0,0.2,0,0.2,0v3.6c0.2,0,0.4-0.1,0.5-0.1
			c0.1-0.1,0.3-0.2,0.3-0.3c0.1-0.1,0.2-0.2,0.2-0.4c0-0.1,0.1-0.3,0.1-0.4c0-0.2,0-0.4-0.1-0.6s-0.2-0.3-0.3-0.4l0.9-1.1
			c0.3,0.2,0.6,0.6,0.7,1c0.2,0.4,0.3,0.8,0.3,1.2c0,0.4-0.1,0.8-0.2,1.2c-0.1,0.3-0.4,0.6-0.6,0.9s-0.6,0.4-1,0.6
			c-0.4,0.1-0.8,0.2-1.3,0.2c-0.5,0-0.9-0.1-1.3-0.2c-0.4-0.1-0.7-0.3-1-0.6c-0.3-0.2-0.5-0.5-0.6-0.8C7.1,130.8,7,130.4,7,130
			c0-0.4,0.1-0.7,0.2-1.1s0.4-0.6,0.7-0.8c0.3-0.2,0.6-0.4,1-0.5S9.7,127.5,10.1,127.5z M9.5,129c-0.1,0-0.3,0-0.4,0.1
			s-0.2,0.1-0.3,0.2c-0.1,0.1-0.2,0.2-0.2,0.3s-0.1,0.3-0.1,0.5c0,0.3,0.1,0.5,0.3,0.7s0.5,0.3,0.8,0.3V129z"/>
		<path id="XMLID_500_" class="st0" d="M13.1,123h-0.4c0.1,0.2,0.2,0.3,0.3,0.5s0.2,0.4,0.2,0.7c0,0.3-0.1,0.6-0.2,0.9
			c-0.1,0.3-0.3,0.5-0.6,0.7s-0.6,0.4-1,0.5c-0.4,0.1-0.9,0.2-1.4,0.2c-0.4,0-0.9-0.1-1.2-0.2s-0.7-0.3-1-0.4
			c-0.3-0.2-0.5-0.4-0.6-0.7c-0.1-0.3-0.2-0.6-0.2-1c0-0.3,0-0.5,0.1-0.7s0.2-0.4,0.3-0.5H5.6l-0.8-1.6h8.3V123z M9,123
			c-0.3,0.3-0.5,0.6-0.5,1.1c0,0.6,0.5,0.9,1.5,0.9c0.6,0,1.1-0.1,1.3-0.3s0.4-0.4,0.4-0.7c0-0.2,0-0.4-0.1-0.6
			c-0.1-0.1-0.2-0.3-0.4-0.4H9z"/>
		<path id="XMLID_497_" class="st0" d="M10.1,114.8c0.5,0,0.9,0.1,1.3,0.2c0.4,0.1,0.7,0.3,1,0.6s0.5,0.5,0.6,0.9s0.2,0.7,0.2,1.1
			s-0.1,0.7-0.2,1.1s-0.4,0.6-0.6,0.9s-0.6,0.4-1,0.6c-0.4,0.1-0.8,0.2-1.3,0.2s-0.9-0.1-1.3-0.2c-0.4-0.1-0.7-0.3-1-0.6
			c-0.3-0.2-0.5-0.5-0.6-0.9c-0.2-0.3-0.2-0.7-0.2-1.1s0.1-0.7,0.2-1.1c0.2-0.3,0.4-0.6,0.6-0.9c0.3-0.2,0.6-0.4,1-0.6
			C9.3,114.8,9.7,114.8,10.1,114.8z M10.1,116.3c-0.5,0-0.8,0.1-1.2,0.3c-0.3,0.2-0.5,0.5-0.5,0.8c0,0.4,0.2,0.7,0.5,0.8
			c0.3,0.2,0.7,0.3,1.2,0.3c0.5,0,0.9-0.1,1.2-0.3c0.3-0.2,0.5-0.5,0.5-0.8c0-0.2,0-0.4-0.1-0.5s-0.2-0.3-0.4-0.3
			c-0.1-0.1-0.3-0.2-0.5-0.2C10.5,116.4,10.3,116.3,10.1,116.3z"/>
		<path id="XMLID_495_" class="st0" d="M13.1,106.5H9.9c-0.5,0-0.9,0.1-1.1,0.2s-0.3,0.4-0.3,0.7c0,0.3,0.1,0.6,0.3,0.7
			c0.2,0.2,0.5,0.2,1.1,0.2h3.3v1.6H9.9c-0.5,0-0.9,0.1-1.1,0.2c-0.2,0.2-0.3,0.4-0.3,0.7c0,0.3,0.1,0.6,0.3,0.7
			c0.2,0.2,0.5,0.2,1.1,0.2h3.3v1.6h-6V112h0.4c-0.1-0.1-0.3-0.3-0.4-0.5C7.1,111.2,7,111,7,110.7c0-0.4,0.1-0.7,0.2-0.9
			c0.1-0.3,0.3-0.5,0.6-0.7c-0.2-0.2-0.4-0.4-0.5-0.7C7.1,108,7,107.6,7,107.1c0-0.4,0.1-0.7,0.2-1c0.1-0.3,0.3-0.5,0.5-0.7
			s0.5-0.3,0.9-0.4C9,105,9.3,105,9.8,105h3.4V106.5z"/>
		<path id="XMLID_493_" class="st0" d="M14.4,101.6c-0.3,0.3-0.6,0.5-0.9,0.8c-0.3,0.2-0.7,0.4-1,0.6s-0.8,0.3-1.2,0.4
			c-0.4,0.1-0.9,0.2-1.5,0.2s-1,0-1.5-0.1c-0.4-0.1-0.8-0.2-1.2-0.4c-0.4-0.2-0.7-0.4-1.1-0.6c-0.3-0.2-0.7-0.5-1-0.8l0.7-1
			c0.3,0.2,0.5,0.4,0.8,0.6c0.3,0.2,0.6,0.3,0.9,0.4c0.3,0.1,0.7,0.2,1,0.3s0.8,0.1,1.2,0.1c0.4,0,0.9,0,1.2-0.1s0.7-0.2,1-0.3
			c0.3-0.1,0.6-0.3,0.9-0.4c0.3-0.2,0.6-0.4,0.8-0.6L14.4,101.6z"/>
		<path id="XMLID_487_" class="st0" d="M13.2,98l-7.6-4.3v-0.6l7.6,4.3V98z M7.8,96.2c1.6,0,2.3,0.8,2.3,1.8c0,0.9-0.7,1.7-2.2,1.7
			c-1.5,0-2.3-0.8-2.3-1.8C5.6,96.9,6.4,96.2,7.8,96.2z M7.9,98.9c0.9,0,1.7-0.3,1.7-1c0-0.7-0.7-1-1.7-1c-0.9,0-1.7,0.3-1.7,1
			C6.2,98.6,6.9,98.9,7.9,98.9z M10.9,91.4c1.6,0,2.3,0.8,2.3,1.8c0,0.9-0.7,1.7-2.2,1.7c-1.5,0-2.3-0.8-2.3-1.8
			C8.7,92.1,9.5,91.4,10.9,91.4z M10.9,94.1c0.9,0,1.7-0.4,1.7-1c0-0.7-0.7-1-1.7-1c-0.9,0-1.7,0.3-1.7,1
			C9.3,93.8,10,94.1,10.9,94.1z"/>
		<path id="XMLID_485_" class="st0" d="M9.6,87.5c0.5,0,1,0,1.5,0.1c0.4,0.1,0.9,0.2,1.2,0.4c0.4,0.2,0.7,0.4,1.1,0.6
			c0.3,0.2,0.7,0.5,1,0.8l-0.7,1c-0.3-0.2-0.5-0.4-0.8-0.6c-0.3-0.2-0.6-0.3-0.9-0.4c-0.3-0.1-0.7-0.2-1-0.3
			c-0.4-0.1-0.8-0.1-1.2-0.1c-0.4,0-0.9,0-1.2,0.1c-0.4,0.1-0.7,0.2-1,0.3c-0.3,0.1-0.6,0.3-0.9,0.4c-0.3,0.2-0.6,0.4-0.8,0.6
			l-0.7-1c0.3-0.3,0.6-0.5,0.9-0.8c0.3-0.2,0.7-0.4,1.1-0.6c0.4-0.2,0.8-0.3,1.2-0.4C8.6,87.6,9.1,87.5,9.6,87.5z"/>
	</g>
</g>
<g id="XMLID_447_">
	<g>
		<path id="XMLID_463_" class="st0" d="M80.7,205.8v2h-1.3v-1.9h-4.7v-1.2l4.5-5.6h1.5v5.6h1.2v1.2H80.7z M79.4,200.5
			c-0.1,0.1-0.2,0.3-0.3,0.5c-0.1,0.2-0.3,0.4-0.4,0.6l-1.7,2.1c-0.1,0.2-0.3,0.3-0.4,0.5c-0.2,0.2-0.3,0.3-0.4,0.4
			c0.1,0,0.2,0,0.3,0c0.1,0,0.2,0,0.4,0c0.1,0,0.3,0,0.4,0s0.3,0,0.4,0h1.8v-2.5c0-0.1,0-0.3,0-0.4s0-0.3,0-0.4s0-0.3,0-0.4
			C79.4,200.7,79.4,200.6,79.4,200.5z"/>
		<path id="XMLID_461_" class="st0" d="M89.9,207.6c-0.2,0.1-0.3,0.2-0.6,0.2c-0.2,0.1-0.4,0.1-0.7,0.1c-0.5,0-0.8-0.1-1.1-0.4
			c-0.3-0.3-0.4-0.7-0.4-1.3v-3.8h-0.9v-1.2h0.9v-1.9l1.3-0.7v2.5H90v1.2h-1.6v3.5c0,0.3,0.1,0.5,0.2,0.6c0.1,0.1,0.3,0.2,0.5,0.2
			c0.2,0,0.3,0,0.5-0.1c0.2-0.1,0.3-0.1,0.4-0.2L89.9,207.6z"/>
		<path id="XMLID_459_" class="st0" d="M95.8,207.7V204c0-0.7-0.1-1.1-0.4-1.4c-0.2-0.3-0.6-0.4-1-0.4c-0.4,0-0.8,0.1-1,0.4
			s-0.3,0.7-0.3,1.2v3.8h-1.3v-8.4l1.3-0.7v3.2c0.2-0.2,0.4-0.4,0.7-0.6c0.3-0.1,0.6-0.2,1-0.2c0.8,0,1.3,0.2,1.7,0.7
			c0.4,0.5,0.6,1.2,0.6,2.2v3.7H95.8z"/>
		<path id="XMLID_457_" class="st0" d="M108.2,207.7h-1.1l-0.9-3.3c-0.1-0.2-0.1-0.5-0.2-0.8c-0.1-0.3-0.1-0.5-0.1-0.6
			c0,0.2-0.1,0.4-0.1,0.6s-0.1,0.5-0.2,0.8l-0.9,3.3h-1.1l-1.8-6.5h1.3l0.8,3.2c0.1,0.2,0.1,0.5,0.2,0.8c0.1,0.3,0.1,0.5,0.1,0.6
			c0-0.2,0.1-0.4,0.2-0.6s0.1-0.5,0.2-0.8l0.9-3.2h1l0.9,3.2c0.1,0.3,0.1,0.5,0.2,0.8c0.1,0.3,0.1,0.5,0.2,0.6
			c0-0.2,0.1-0.4,0.1-0.7c0.1-0.3,0.1-0.5,0.2-0.8l0.8-3.2h1.3L108.2,207.7z"/>
		<path id="XMLID_454_" class="st0" d="M116.8,204.3c0,0.1,0,0.2,0,0.3c0,0.1,0,0.2,0,0.3h-4.3c0,0.3,0.1,0.6,0.2,0.8
			s0.2,0.4,0.4,0.6c0.1,0.1,0.3,0.3,0.5,0.3c0.2,0.1,0.4,0.1,0.6,0.1c0.3,0,0.5,0,0.8-0.1s0.5-0.2,0.7-0.4l0.8,0.8
			c-0.3,0.3-0.6,0.5-1,0.6c-0.4,0.1-0.8,0.2-1.3,0.2c-0.4,0-0.7-0.1-1.1-0.2c-0.3-0.1-0.6-0.4-0.9-0.7c-0.3-0.3-0.5-0.6-0.6-1.1
			c-0.1-0.4-0.2-0.9-0.2-1.4c0-0.6,0.1-1,0.2-1.5c0.1-0.4,0.3-0.8,0.6-1.1c0.2-0.3,0.5-0.5,0.9-0.7c0.4-0.1,0.7-0.2,1.2-0.2
			c0.5,0,0.9,0.1,1.2,0.3s0.6,0.4,0.9,0.7s0.4,0.6,0.5,1C116.7,203.5,116.8,203.9,116.8,204.3z M115.5,203.9c0-0.2-0.1-0.4-0.1-0.6
			c-0.1-0.2-0.2-0.4-0.3-0.5c-0.1-0.1-0.3-0.3-0.5-0.4c-0.2-0.1-0.4-0.1-0.7-0.1c-0.4,0-0.8,0.1-1,0.4c-0.3,0.3-0.4,0.7-0.5,1.2
			H115.5z"/>
		<path id="XMLID_451_" class="st0" d="M123.7,204.3c0,0.1,0,0.2,0,0.3c0,0.1,0,0.2,0,0.3h-4.3c0,0.3,0.1,0.6,0.2,0.8
			s0.2,0.4,0.4,0.6c0.1,0.1,0.3,0.3,0.5,0.3c0.2,0.1,0.4,0.1,0.6,0.1c0.3,0,0.5,0,0.8-0.1s0.5-0.2,0.7-0.4l0.8,0.8
			c-0.3,0.3-0.6,0.5-1,0.6c-0.4,0.1-0.8,0.2-1.3,0.2c-0.4,0-0.7-0.1-1.1-0.2c-0.3-0.1-0.6-0.4-0.9-0.7c-0.3-0.3-0.5-0.6-0.6-1.1
			c-0.1-0.4-0.2-0.9-0.2-1.4c0-0.6,0.1-1,0.2-1.5c0.1-0.4,0.3-0.8,0.6-1.1c0.2-0.3,0.5-0.5,0.9-0.7c0.4-0.1,0.7-0.2,1.2-0.2
			c0.5,0,0.9,0.1,1.2,0.3s0.6,0.4,0.9,0.7s0.4,0.6,0.5,1C123.6,203.5,123.7,203.9,123.7,204.3z M122.4,203.9c0-0.2-0.1-0.4-0.1-0.6
			c-0.1-0.2-0.2-0.4-0.3-0.5c-0.1-0.1-0.3-0.3-0.5-0.4c-0.2-0.1-0.4-0.1-0.7-0.1c-0.4,0-0.8,0.1-1,0.4c-0.3,0.3-0.4,0.7-0.5,1.2
			H122.4z"/>
		<path id="XMLID_449_" class="st0" d="M129,207.7l-1.4-3.3l-1,1.3v1.9h-1.3v-8.4l1.3-0.7v4.1c0,0.1,0,0.2,0,0.3c0,0.1,0,0.3,0,0.4
			c0,0.1,0,0.3,0,0.4s0,0.2,0,0.3c0.1-0.1,0.2-0.3,0.3-0.5c0.1-0.2,0.3-0.4,0.4-0.6l1.4-1.9h1.5l-1.7,2.2l2,4.3H129z"/>
	</g>
</g>
<g id="XMLID_409_">
	<g>
		<path id="XMLID_427_" class="st0" d="M178.1,207.7v-6.7h-1.5v-0.9c0.4,0,0.8-0.1,1.2-0.3s0.5-0.4,0.6-0.8h1.1v8.7H178.1z"/>
		<path id="XMLID_425_" class="st0" d="M181.1,207.7c0-0.6,0.1-1.2,0.3-1.7c0.2-0.5,0.4-0.9,0.7-1.3c0.3-0.4,0.7-0.7,1-1
			c0.4-0.3,0.8-0.6,1.2-0.8c0.3-0.2,0.5-0.3,0.7-0.5c0.2-0.1,0.3-0.3,0.5-0.4c0.1-0.1,0.2-0.3,0.2-0.4c0-0.1,0.1-0.3,0.1-0.4
			c0-0.3-0.1-0.6-0.4-0.8c-0.3-0.2-0.7-0.3-1.3-0.3c-0.4,0-0.7,0.1-1.1,0.2c-0.4,0.2-0.7,0.4-1,0.6l-0.8-1c0.4-0.4,0.9-0.7,1.4-0.9
			c0.5-0.2,1.1-0.3,1.6-0.3c0.9,0,1.6,0.2,2.2,0.6c0.5,0.4,0.8,1,0.8,1.8c0,0.3,0,0.6-0.1,0.9c-0.1,0.2-0.2,0.5-0.4,0.7
			s-0.4,0.4-0.7,0.6c-0.3,0.2-0.6,0.4-1,0.6c-0.4,0.2-0.8,0.5-1,0.7c-0.3,0.2-0.5,0.4-0.7,0.6c-0.2,0.2-0.3,0.4-0.4,0.5
			c-0.1,0.2-0.2,0.4-0.2,0.6h4.6v1.3H181.1z"/>
		<path id="XMLID_423_" class="st0" d="M195.9,207.6c-0.2,0.1-0.3,0.2-0.6,0.2c-0.2,0.1-0.4,0.1-0.7,0.1c-0.5,0-0.8-0.1-1.1-0.4
			c-0.3-0.3-0.4-0.7-0.4-1.3v-3.8h-0.9v-1.2h0.9v-1.9l1.3-0.7v2.5h1.6v1.2h-1.6v3.5c0,0.3,0.1,0.5,0.2,0.6c0.1,0.1,0.3,0.2,0.5,0.2
			c0.2,0,0.3,0,0.5-0.1c0.2-0.1,0.3-0.1,0.4-0.2L195.9,207.6z"/>
		<path id="XMLID_421_" class="st0" d="M201.7,207.7V204c0-0.7-0.1-1.1-0.4-1.4c-0.2-0.3-0.6-0.4-1-0.4c-0.4,0-0.8,0.1-1,0.4
			s-0.3,0.7-0.3,1.2v3.8h-1.3v-8.4l1.3-0.7v3.2c0.2-0.2,0.4-0.4,0.7-0.6c0.3-0.1,0.6-0.2,1-0.2c0.8,0,1.3,0.2,1.7,0.7
			c0.4,0.5,0.6,1.2,0.6,2.2v3.7H201.7z"/>
		<path id="XMLID_419_" class="st0" d="M214.2,207.7h-1.1l-0.9-3.3c-0.1-0.2-0.1-0.5-0.2-0.8c-0.1-0.3-0.1-0.5-0.1-0.6
			c0,0.2-0.1,0.4-0.1,0.6s-0.1,0.5-0.2,0.8l-0.9,3.3h-1.1l-1.8-6.5h1.3l0.8,3.2c0.1,0.2,0.1,0.5,0.2,0.8c0.1,0.3,0.1,0.5,0.1,0.6
			c0-0.2,0.1-0.4,0.2-0.6s0.1-0.5,0.2-0.8l0.9-3.2h1l0.9,3.2c0.1,0.3,0.1,0.5,0.2,0.8c0.1,0.3,0.1,0.5,0.2,0.6
			c0-0.2,0.1-0.4,0.1-0.7c0.1-0.3,0.1-0.5,0.2-0.8l0.8-3.2h1.3L214.2,207.7z"/>
		<path id="XMLID_416_" class="st0" d="M222.7,204.3c0,0.1,0,0.2,0,0.3c0,0.1,0,0.2,0,0.3h-4.3c0,0.3,0.1,0.6,0.2,0.8
			s0.2,0.4,0.4,0.6c0.1,0.1,0.3,0.3,0.5,0.3c0.2,0.1,0.4,0.1,0.6,0.1c0.3,0,0.5,0,0.8-0.1s0.5-0.2,0.7-0.4l0.8,0.8
			c-0.3,0.3-0.6,0.5-1,0.6c-0.4,0.1-0.8,0.2-1.3,0.2c-0.4,0-0.7-0.1-1.1-0.2c-0.3-0.1-0.6-0.4-0.9-0.7c-0.3-0.3-0.5-0.6-0.6-1.1
			c-0.1-0.4-0.2-0.9-0.2-1.4c0-0.6,0.1-1,0.2-1.5c0.1-0.4,0.3-0.8,0.6-1.1c0.2-0.3,0.5-0.5,0.9-0.7c0.4-0.1,0.7-0.2,1.2-0.2
			c0.5,0,0.9,0.1,1.2,0.3s0.6,0.4,0.9,0.7s0.4,0.6,0.5,1C222.7,203.5,222.7,203.9,222.7,204.3z M221.5,203.9c0-0.2-0.1-0.4-0.1-0.6
			c-0.1-0.2-0.2-0.4-0.3-0.5c-0.1-0.1-0.3-0.3-0.5-0.4c-0.2-0.1-0.4-0.1-0.7-0.1c-0.4,0-0.8,0.1-1,0.4c-0.3,0.3-0.4,0.7-0.5,1.2
			H221.5z"/>
		<path id="XMLID_413_" class="st0" d="M229.6,204.3c0,0.1,0,0.2,0,0.3c0,0.1,0,0.2,0,0.3h-4.3c0,0.3,0.1,0.6,0.2,0.8
			s0.2,0.4,0.4,0.6c0.1,0.1,0.3,0.3,0.5,0.3c0.2,0.1,0.4,0.1,0.6,0.1c0.3,0,0.5,0,0.8-0.1s0.5-0.2,0.7-0.4l0.8,0.8
			c-0.3,0.3-0.6,0.5-1,0.6c-0.4,0.1-0.8,0.2-1.3,0.2c-0.4,0-0.7-0.1-1.1-0.2c-0.3-0.1-0.6-0.4-0.9-0.7c-0.3-0.3-0.5-0.6-0.6-1.1
			c-0.1-0.4-0.2-0.9-0.2-1.4c0-0.6,0.1-1,0.2-1.5c0.1-0.4,0.3-0.8,0.6-1.1c0.2-0.3,0.5-0.5,0.9-0.7c0.4-0.1,0.7-0.2,1.2-0.2
			c0.5,0,0.9,0.1,1.2,0.3s0.6,0.4,0.9,0.7s0.4,0.6,0.5,1C229.6,203.5,229.6,203.9,229.6,204.3z M228.4,203.9c0-0.2-0.1-0.4-0.1-0.6
			c-0.1-0.2-0.2-0.4-0.3-0.5c-0.1-0.1-0.3-0.3-0.5-0.4c-0.2-0.1-0.4-0.1-0.7-0.1c-0.4,0-0.8,0.1-1,0.4c-0.3,0.3-0.4,0.7-0.5,1.2
			H228.4z"/>
		<path id="XMLID_411_" class="st0" d="M235,207.7l-1.4-3.3l-1,1.3v1.9h-1.3v-8.4l1.3-0.7v4.1c0,0.1,0,0.2,0,0.3c0,0.1,0,0.3,0,0.4
			c0,0.1,0,0.3,0,0.4s0,0.2,0,0.3c0.1-0.1,0.2-0.3,0.3-0.5c0.1-0.2,0.3-0.4,0.4-0.6l1.4-1.9h1.5l-1.7,2.2l2,4.3H235z"/>
	</g>
</g>
<g id="XMLID_369_">
	<g>
		<path id="XMLID_388_" class="st0" d="M277.4,207.7c0-0.6,0.1-1.2,0.3-1.7c0.2-0.5,0.4-0.9,0.7-1.3c0.3-0.4,0.7-0.7,1-1
			c0.4-0.3,0.8-0.6,1.2-0.8c0.3-0.2,0.5-0.3,0.7-0.5c0.2-0.1,0.3-0.3,0.5-0.4c0.1-0.1,0.2-0.3,0.2-0.4c0-0.1,0.1-0.3,0.1-0.4
			c0-0.3-0.1-0.6-0.4-0.8c-0.3-0.2-0.7-0.3-1.3-0.3c-0.4,0-0.7,0.1-1.1,0.2c-0.4,0.2-0.7,0.4-1,0.6l-0.8-1c0.4-0.4,0.9-0.7,1.4-0.9
			c0.5-0.2,1.1-0.3,1.6-0.3c0.9,0,1.6,0.2,2.2,0.6c0.5,0.4,0.8,1,0.8,1.8c0,0.3,0,0.6-0.1,0.9c-0.1,0.2-0.2,0.5-0.4,0.7
			s-0.4,0.4-0.7,0.6c-0.3,0.2-0.6,0.4-1,0.6c-0.4,0.2-0.8,0.5-1,0.7c-0.3,0.2-0.5,0.4-0.7,0.6c-0.2,0.2-0.3,0.4-0.4,0.5
			c-0.1,0.2-0.2,0.4-0.2,0.6h4.6v1.3H277.4z"/>
		<path id="XMLID_385_" class="st0" d="M292,205c0,0.5-0.1,0.9-0.3,1.3c-0.2,0.4-0.4,0.7-0.7,0.9c-0.3,0.2-0.7,0.4-1.1,0.5
			s-0.9,0.2-1.3,0.2c-0.5,0-0.9-0.1-1.3-0.2c-0.4-0.1-0.7-0.3-1-0.6s-0.5-0.6-0.7-1.1c-0.2-0.4-0.3-1-0.3-1.6c0-0.4,0-0.8,0.1-1.2
			c0.1-0.4,0.2-0.8,0.4-1.2s0.4-0.8,0.7-1.1s0.6-0.7,1-1c0.4-0.3,0.9-0.5,1.4-0.7c0.5-0.2,1.1-0.3,1.8-0.3v1.2c-1,0-1.8,0.3-2.5,0.8
			c-0.7,0.5-1.1,1.2-1.4,2.1c0.3-0.2,0.6-0.4,1-0.5c0.3-0.1,0.8-0.2,1.3-0.2c0.4,0,0.8,0.1,1.1,0.2c0.4,0.1,0.7,0.3,0.9,0.5
			c0.3,0.2,0.5,0.5,0.6,0.8C291.9,204.1,292,204.5,292,205z M290.7,205c0-0.5-0.2-0.9-0.5-1.2c-0.3-0.2-0.8-0.4-1.5-0.4
			c-0.6,0-1.1,0.1-1.5,0.4c-0.4,0.3-0.5,0.6-0.5,1.2c0,0.2,0,0.4,0.1,0.6c0.1,0.2,0.2,0.4,0.4,0.5c0.2,0.1,0.4,0.3,0.6,0.3
			c0.2,0.1,0.5,0.1,0.9,0.1c0.7,0,1.2-0.1,1.5-0.4C290.5,205.9,290.7,205.5,290.7,205z"/>
		<path id="XMLID_383_" class="st0" d="M300,207.6c-0.2,0.1-0.3,0.2-0.6,0.2c-0.2,0.1-0.4,0.1-0.7,0.1c-0.5,0-0.8-0.1-1.1-0.4
			c-0.3-0.3-0.4-0.7-0.4-1.3v-3.8h-0.9v-1.2h0.9v-1.9l1.3-0.7v2.5h1.6v1.2h-1.6v3.5c0,0.3,0.1,0.5,0.2,0.6c0.1,0.1,0.3,0.2,0.5,0.2
			c0.2,0,0.3,0,0.5-0.1c0.2-0.1,0.3-0.1,0.4-0.2L300,207.6z"/>
		<path id="XMLID_381_" class="st0" d="M305.9,207.7V204c0-0.7-0.1-1.1-0.4-1.4c-0.2-0.3-0.6-0.4-1-0.4c-0.4,0-0.8,0.1-1,0.4
			s-0.3,0.7-0.3,1.2v3.8h-1.3v-8.4l1.3-0.7v3.2c0.2-0.2,0.4-0.4,0.7-0.6c0.3-0.1,0.6-0.2,1-0.2c0.8,0,1.3,0.2,1.7,0.7
			c0.4,0.5,0.6,1.2,0.6,2.2v3.7H305.9z"/>
		<path id="XMLID_379_" class="st0" d="M318.3,207.7h-1.1l-0.9-3.3c-0.1-0.2-0.1-0.5-0.2-0.8c-0.1-0.3-0.1-0.5-0.1-0.6
			c0,0.2-0.1,0.4-0.1,0.6s-0.1,0.5-0.2,0.8l-0.9,3.3h-1.1l-1.8-6.5h1.3l0.8,3.2c0.1,0.2,0.1,0.5,0.2,0.8c0.1,0.3,0.1,0.5,0.1,0.6
			c0-0.2,0.1-0.4,0.2-0.6s0.1-0.5,0.2-0.8l0.9-3.2h1l0.9,3.2c0.1,0.3,0.1,0.5,0.2,0.8c0.1,0.3,0.1,0.5,0.2,0.6
			c0-0.2,0.1-0.4,0.1-0.7c0.1-0.3,0.1-0.5,0.2-0.8l0.8-3.2h1.3L318.3,207.7z"/>
		<path id="XMLID_376_" class="st0" d="M326.9,204.3c0,0.1,0,0.2,0,0.3c0,0.1,0,0.2,0,0.3h-4.3c0,0.3,0.1,0.6,0.2,0.8
			s0.2,0.4,0.4,0.6c0.1,0.1,0.3,0.3,0.5,0.3c0.2,0.1,0.4,0.1,0.6,0.1c0.3,0,0.5,0,0.8-0.1s0.5-0.2,0.7-0.4l0.8,0.8
			c-0.3,0.3-0.6,0.5-1,0.6c-0.4,0.1-0.8,0.2-1.3,0.2c-0.4,0-0.7-0.1-1.1-0.2c-0.3-0.1-0.6-0.4-0.9-0.7c-0.3-0.3-0.5-0.6-0.6-1.1
			c-0.1-0.4-0.2-0.9-0.2-1.4c0-0.6,0.1-1,0.2-1.5c0.1-0.4,0.3-0.8,0.6-1.1c0.2-0.3,0.5-0.5,0.9-0.7c0.4-0.1,0.7-0.2,1.2-0.2
			c0.5,0,0.9,0.1,1.2,0.3s0.6,0.4,0.9,0.7s0.4,0.6,0.5,1C326.8,203.5,326.9,203.9,326.9,204.3z M325.6,203.9c0-0.2-0.1-0.4-0.1-0.6
			c-0.1-0.2-0.2-0.4-0.3-0.5c-0.1-0.1-0.3-0.3-0.5-0.4c-0.2-0.1-0.4-0.1-0.7-0.1c-0.4,0-0.8,0.1-1,0.4c-0.3,0.3-0.4,0.7-0.5,1.2
			H325.6z"/>
		<path id="XMLID_373_" class="st0" d="M333.8,204.3c0,0.1,0,0.2,0,0.3c0,0.1,0,0.2,0,0.3h-4.3c0,0.3,0.1,0.6,0.2,0.8
			s0.2,0.4,0.4,0.6c0.1,0.1,0.3,0.3,0.5,0.3c0.2,0.1,0.4,0.1,0.6,0.1c0.3,0,0.5,0,0.8-0.1s0.5-0.2,0.7-0.4l0.8,0.8
			c-0.3,0.3-0.6,0.5-1,0.6c-0.4,0.1-0.8,0.2-1.3,0.2c-0.4,0-0.7-0.1-1.1-0.2c-0.3-0.1-0.6-0.4-0.9-0.7c-0.3-0.3-0.5-0.6-0.6-1.1
			c-0.1-0.4-0.2-0.9-0.2-1.4c0-0.6,0.1-1,0.2-1.5c0.1-0.4,0.3-0.8,0.6-1.1c0.2-0.3,0.5-0.5,0.9-0.7c0.4-0.1,0.7-0.2,1.2-0.2
			c0.5,0,0.9,0.1,1.2,0.3s0.6,0.4,0.9,0.7s0.4,0.6,0.5,1C333.7,203.5,333.8,203.9,333.8,204.3z M332.5,203.9c0-0.2-0.1-0.4-0.1-0.6
			c-0.1-0.2-0.2-0.4-0.3-0.5c-0.1-0.1-0.3-0.3-0.5-0.4c-0.2-0.1-0.4-0.1-0.7-0.1c-0.4,0-0.8,0.1-1,0.4c-0.3,0.3-0.4,0.7-0.5,1.2
			H332.5z"/>
		<path id="XMLID_371_" class="st0" d="M339.1,207.7l-1.4-3.3l-1,1.3v1.9h-1.3v-8.4l1.3-0.7v4.1c0,0.1,0,0.2,0,0.3
			c0,0.1,0,0.3,0,0.4c0,0.1,0,0.3,0,0.4s0,0.2,0,0.3c0.1-0.1,0.2-0.3,0.3-0.5c0.1-0.2,0.3-0.4,0.4-0.6l1.4-1.9h1.5l-1.7,2.2l2,4.3
			H339.1z"/>
	</g>
</g>
<g id="XMLID_351_">
	<g>
		<path id="XMLID_359_" class="st0" d="M284.8,38.1V34h-1v-0.6c0.3,0,0.6-0.1,0.8-0.2c0.2-0.1,0.4-0.3,0.4-0.5h0.7v5.4H284.8z"/>
		<path id="XMLID_356_" class="st0" d="M291.5,35.4c0,0.4-0.1,0.8-0.2,1.1c-0.1,0.3-0.2,0.6-0.4,0.9c-0.2,0.2-0.4,0.4-0.7,0.6
			c-0.3,0.1-0.6,0.2-1,0.2c-0.4,0-0.7-0.1-1-0.2s-0.5-0.3-0.7-0.6c-0.2-0.2-0.3-0.5-0.4-0.9c-0.1-0.3-0.1-0.7-0.1-1.1
			c0-0.4,0.1-0.8,0.2-1.1c0.1-0.3,0.2-0.6,0.4-0.9c0.2-0.2,0.4-0.4,0.7-0.6c0.3-0.1,0.6-0.2,1-0.2c0.4,0,0.7,0.1,1,0.2
			c0.3,0.1,0.5,0.3,0.7,0.6c0.2,0.2,0.3,0.5,0.4,0.9C291.5,34.6,291.5,35,291.5,35.4z M290.6,35.4c0-0.3,0-0.5-0.1-0.8
			s-0.1-0.5-0.3-0.6c-0.1-0.2-0.3-0.3-0.4-0.4c-0.2-0.1-0.4-0.2-0.7-0.2c-0.3,0-0.5,0-0.7,0.2c-0.2,0.1-0.3,0.2-0.4,0.4
			c-0.1,0.2-0.2,0.4-0.2,0.6c-0.1,0.2-0.1,0.5-0.1,0.8c0,0.3,0,0.5,0.1,0.8c0.1,0.2,0.1,0.5,0.3,0.6c0.1,0.2,0.3,0.3,0.4,0.4
			c0.2,0.1,0.4,0.2,0.7,0.2c0.3,0,0.5,0,0.7-0.2c0.2-0.1,0.3-0.2,0.4-0.4s0.2-0.4,0.2-0.6C290.6,36,290.6,35.7,290.6,35.4z"/>
		<path id="XMLID_353_" class="st0" d="M297.1,35.4c0,0.4-0.1,0.8-0.2,1.1c-0.1,0.3-0.2,0.6-0.4,0.9c-0.2,0.2-0.4,0.4-0.7,0.6
			c-0.3,0.1-0.6,0.2-1,0.2c-0.4,0-0.7-0.1-1-0.2s-0.5-0.3-0.7-0.6c-0.2-0.2-0.3-0.5-0.4-0.9c-0.1-0.3-0.1-0.7-0.1-1.1
			c0-0.4,0.1-0.8,0.2-1.1c0.1-0.3,0.2-0.6,0.4-0.9c0.2-0.2,0.4-0.4,0.7-0.6c0.3-0.1,0.6-0.2,1-0.2c0.4,0,0.7,0.1,1,0.2
			c0.3,0.1,0.5,0.3,0.7,0.6c0.2,0.2,0.3,0.5,0.4,0.9C297,34.6,297.1,35,297.1,35.4z M296.2,35.4c0-0.3,0-0.5-0.1-0.8
			s-0.1-0.5-0.3-0.6c-0.1-0.2-0.3-0.3-0.4-0.4c-0.2-0.1-0.4-0.2-0.7-0.2c-0.3,0-0.5,0-0.7,0.2c-0.2,0.1-0.3,0.2-0.4,0.4
			c-0.1,0.2-0.2,0.4-0.2,0.6c-0.1,0.2-0.1,0.5-0.1,0.8c0,0.3,0,0.5,0.1,0.8c0.1,0.2,0.1,0.5,0.3,0.6c0.1,0.2,0.3,0.3,0.4,0.4
			c0.2,0.1,0.4,0.2,0.7,0.2c0.3,0,0.5,0,0.7-0.2c0.2-0.1,0.3-0.2,0.4-0.4s0.2-0.4,0.2-0.6C296.2,36,296.2,35.7,296.2,35.4z"/>
	</g>
</g>
<g id="XMLID_323_">
	<g>
		<path id="XMLID_335_" class="st0" d="M320.3,56.2c0,0.2,0,0.5-0.1,0.7c0,0.3-0.1,0.5-0.2,0.8c-0.1,0.2-0.3,0.5-0.5,0.7
			c-0.2,0.2-0.4,0.4-0.7,0.6c-0.3,0.2-0.6,0.3-0.9,0.4c-0.4,0.1-0.8,0.2-1.2,0.2v-0.8c0.7,0,1.2-0.2,1.7-0.5s0.8-0.7,1-1.3
			c-0.2,0.1-0.4,0.3-0.7,0.3c-0.2,0.1-0.5,0.1-0.9,0.1c-0.3,0-0.5,0-0.8-0.1c-0.2-0.1-0.4-0.2-0.6-0.3s-0.3-0.3-0.4-0.5
			s-0.2-0.5-0.2-0.7c0-0.3,0.1-0.6,0.2-0.8c0.1-0.2,0.3-0.4,0.5-0.6c0.2-0.1,0.5-0.3,0.7-0.3s0.6-0.1,0.9-0.1c0.3,0,0.6,0,0.9,0.1
			c0.3,0.1,0.5,0.2,0.7,0.4c0.2,0.2,0.4,0.4,0.5,0.7C320.3,55.5,320.3,55.9,320.3,56.2z M319.4,55.9c0-0.1,0-0.3-0.1-0.4
			c-0.1-0.1-0.1-0.2-0.3-0.3s-0.3-0.2-0.4-0.2c-0.2-0.1-0.4-0.1-0.6-0.1c-0.4,0-0.8,0.1-1,0.3c-0.2,0.2-0.4,0.4-0.4,0.7
			c0,0.3,0.1,0.6,0.4,0.7c0.2,0.2,0.6,0.2,1,0.2c0.4,0,0.8-0.1,1-0.2C319.3,56.4,319.4,56.2,319.4,55.9z"/>
		<path id="XMLID_332_" class="st0" d="M325.7,57.9c0,0.3-0.1,0.6-0.2,0.8c-0.1,0.2-0.3,0.4-0.5,0.6c-0.2,0.1-0.5,0.3-0.7,0.3
			c-0.3,0.1-0.6,0.1-0.9,0.1c-0.3,0-0.6,0-0.9-0.1s-0.5-0.2-0.7-0.4s-0.4-0.4-0.5-0.7c-0.1-0.3-0.2-0.6-0.2-1c0-0.2,0-0.5,0.1-0.7
			c0-0.3,0.1-0.5,0.2-0.8c0.1-0.2,0.3-0.5,0.5-0.7c0.2-0.2,0.4-0.4,0.7-0.6s0.6-0.3,0.9-0.4s0.8-0.2,1.2-0.2v0.8
			c-0.7,0-1.2,0.2-1.7,0.5c-0.5,0.3-0.8,0.7-1,1.3c0.2-0.1,0.4-0.3,0.7-0.3c0.2-0.1,0.5-0.1,0.9-0.1c0.3,0,0.5,0,0.8,0.1
			c0.2,0.1,0.4,0.2,0.6,0.3c0.2,0.1,0.3,0.3,0.4,0.5S325.7,57.6,325.7,57.9z M324.9,57.9c0-0.3-0.1-0.6-0.4-0.7
			c-0.2-0.2-0.6-0.2-1-0.2c-0.4,0-0.8,0.1-1,0.2s-0.4,0.4-0.4,0.7c0,0.1,0,0.3,0.1,0.4c0.1,0.1,0.1,0.2,0.3,0.3
			c0.1,0.1,0.3,0.2,0.4,0.2c0.2,0.1,0.4,0.1,0.6,0.1c0.4,0,0.8-0.1,1-0.3C324.7,58.4,324.9,58.2,324.9,57.9z"/>
		<path id="XMLID_330_" class="st0" d="M327.8,59c0,0.2-0.1,0.3-0.2,0.4c-0.1,0.1-0.3,0.2-0.5,0.2c-0.2,0-0.3-0.1-0.5-0.2
			c-0.1-0.1-0.2-0.3-0.2-0.4c0-0.1,0-0.2,0.1-0.2s0.1-0.1,0.1-0.2s0.1-0.1,0.2-0.1c0.1,0,0.2,0,0.3,0c0.1,0,0.2,0,0.3,0
			c0.1,0,0.2,0.1,0.2,0.1s0.1,0.1,0.1,0.2S327.8,59,327.8,59z"/>
		<path id="XMLID_327_" class="st0" d="M332.6,58.4v1.2h-0.9v-1.2h-3.2v-0.8l3-3.4h1v3.5h0.8v0.7H332.6z M331.8,55.1
			c-0.1,0.1-0.1,0.2-0.2,0.3c-0.1,0.1-0.2,0.2-0.3,0.4l-1.1,1.3c-0.1,0.1-0.2,0.2-0.3,0.3c-0.1,0.1-0.2,0.2-0.3,0.3
			c0.1,0,0.1,0,0.2,0c0.1,0,0.2,0,0.2,0c0.1,0,0.2,0,0.3,0s0.2,0,0.2,0h1.2v-1.6c0-0.1,0-0.2,0-0.3c0-0.1,0-0.2,0-0.3
			c0-0.1,0-0.2,0-0.3C331.8,55.2,331.8,55.1,331.8,55.1z"/>
		<path id="XMLID_325_" class="st0" d="M338.4,58c0,0.6-0.2,1-0.6,1.3s-0.9,0.4-1.6,0.4c-0.2,0-0.4,0-0.6-0.1
			c-0.2,0-0.4-0.1-0.6-0.2s-0.4-0.2-0.5-0.3c-0.2-0.1-0.3-0.2-0.4-0.4l0.7-0.5c0.2,0.2,0.4,0.4,0.7,0.5c0.3,0.1,0.5,0.2,0.8,0.2
			c0.5,0,0.8-0.1,1-0.2c0.2-0.2,0.3-0.4,0.3-0.7s-0.1-0.5-0.3-0.6c-0.2-0.1-0.5-0.2-0.8-0.2h-0.5v-0.8h0.5c0.3,0,0.5-0.1,0.6-0.2
			c0.1-0.1,0.2-0.3,0.2-0.5c0-0.1,0-0.2,0-0.2c0-0.1-0.1-0.2-0.2-0.2c-0.1-0.1-0.2-0.1-0.3-0.2s-0.3-0.1-0.5-0.1
			c-0.2,0-0.4,0-0.6,0.1c-0.2,0.1-0.4,0.2-0.5,0.4l-0.7-0.6c0.3-0.2,0.5-0.4,0.8-0.5s0.6-0.2,1-0.2c0.3,0,0.5,0,0.8,0.1
			c0.2,0.1,0.5,0.2,0.6,0.3s0.3,0.3,0.4,0.5s0.2,0.4,0.2,0.6c0,0.3-0.1,0.6-0.2,0.8c-0.1,0.2-0.3,0.3-0.5,0.4
			c0.3,0.1,0.5,0.2,0.7,0.4C338.3,57.4,338.4,57.6,338.4,58z"/>
	</g>
</g>
<g id="XMLID_297_">
	<g>
		<path id="XMLID_308_" class="st0" d="M181.4,74.5c0,0.2,0,0.5-0.1,0.7c0,0.3-0.1,0.5-0.2,0.8c-0.1,0.2-0.3,0.5-0.5,0.7
			c-0.2,0.2-0.4,0.4-0.7,0.6c-0.3,0.2-0.6,0.3-0.9,0.4c-0.4,0.1-0.8,0.2-1.2,0.2v-0.8c0.7,0,1.2-0.2,1.7-0.5s0.8-0.7,1-1.3
			c-0.2,0.1-0.4,0.3-0.7,0.3c-0.2,0.1-0.5,0.1-0.9,0.1c-0.3,0-0.5,0-0.8-0.1c-0.2-0.1-0.4-0.2-0.6-0.3s-0.3-0.3-0.4-0.5
			s-0.2-0.5-0.2-0.7c0-0.3,0.1-0.6,0.2-0.8c0.1-0.2,0.3-0.4,0.5-0.6c0.2-0.1,0.5-0.3,0.7-0.3s0.6-0.1,0.9-0.1c0.3,0,0.6,0,0.9,0.1
			c0.3,0.1,0.5,0.2,0.7,0.4c0.2,0.2,0.4,0.4,0.5,0.7C181.3,73.8,181.4,74.1,181.4,74.5z M180.5,74.1c0-0.1,0-0.3-0.1-0.4
			c-0.1-0.1-0.1-0.2-0.3-0.3s-0.3-0.2-0.4-0.2c-0.2-0.1-0.4-0.1-0.6-0.1c-0.4,0-0.8,0.1-1,0.3c-0.2,0.2-0.4,0.4-0.4,0.7
			c0,0.3,0.1,0.6,0.4,0.7c0.2,0.2,0.6,0.2,1,0.2c0.4,0,0.8-0.1,1-0.2C180.4,74.7,180.5,74.5,180.5,74.1z"/>
		<path id="XMLID_306_" class="st0" d="M186.4,76.2c0,0.6-0.2,1-0.6,1.3s-0.9,0.4-1.6,0.4c-0.2,0-0.4,0-0.6-0.1
			c-0.2,0-0.4-0.1-0.6-0.2s-0.4-0.2-0.5-0.3c-0.2-0.1-0.3-0.2-0.4-0.4l0.7-0.5c0.2,0.2,0.4,0.4,0.7,0.5c0.3,0.1,0.5,0.2,0.8,0.2
			c0.5,0,0.8-0.1,1-0.2c0.2-0.2,0.3-0.4,0.3-0.7s-0.1-0.5-0.3-0.6c-0.2-0.1-0.5-0.2-0.8-0.2h-0.5v-0.8h0.5c0.3,0,0.5-0.1,0.6-0.2
			c0.1-0.1,0.2-0.3,0.2-0.5c0-0.1,0-0.2,0-0.2c0-0.1-0.1-0.2-0.2-0.2c-0.1-0.1-0.2-0.1-0.3-0.2s-0.3-0.1-0.5-0.1
			c-0.2,0-0.4,0-0.6,0.1c-0.2,0.1-0.4,0.2-0.5,0.4l-0.7-0.6c0.3-0.2,0.5-0.4,0.8-0.5s0.6-0.2,1-0.2c0.3,0,0.5,0,0.8,0.1
			c0.2,0.1,0.5,0.2,0.6,0.3s0.3,0.3,0.4,0.5s0.2,0.4,0.2,0.6c0,0.3-0.1,0.6-0.2,0.8c-0.1,0.2-0.3,0.3-0.5,0.4
			c0.3,0.1,0.5,0.2,0.7,0.4C186.3,75.6,186.4,75.9,186.4,76.2z"/>
		<path id="XMLID_304_" class="st0" d="M188.7,77.3c0,0.2-0.1,0.3-0.2,0.4c-0.1,0.1-0.3,0.2-0.5,0.2c-0.2,0-0.3-0.1-0.5-0.2
			c-0.1-0.1-0.2-0.3-0.2-0.4c0-0.1,0-0.2,0.1-0.2s0.1-0.1,0.1-0.2s0.1-0.1,0.2-0.1c0.1,0,0.2,0,0.3,0c0.1,0,0.2,0,0.3,0
			c0.1,0,0.2,0.1,0.2,0.1s0.1,0.1,0.1,0.2S188.7,77.2,188.7,77.3z"/>
		<path id="XMLID_302_" class="st0" d="M193.6,76.2c0,0.6-0.2,1-0.6,1.3s-0.9,0.4-1.6,0.4c-0.2,0-0.4,0-0.6-0.1
			c-0.2,0-0.4-0.1-0.6-0.2s-0.4-0.2-0.5-0.3c-0.2-0.1-0.3-0.2-0.4-0.4l0.7-0.5c0.2,0.2,0.4,0.4,0.7,0.5c0.3,0.1,0.5,0.2,0.8,0.2
			c0.5,0,0.8-0.1,1-0.2c0.2-0.2,0.3-0.4,0.3-0.7s-0.1-0.5-0.3-0.6c-0.2-0.1-0.5-0.2-0.8-0.2h-0.5v-0.8h0.5c0.3,0,0.5-0.1,0.6-0.2
			c0.1-0.1,0.2-0.3,0.2-0.5c0-0.1,0-0.2,0-0.2c0-0.1-0.1-0.2-0.2-0.2c-0.1-0.1-0.2-0.1-0.3-0.2s-0.3-0.1-0.5-0.1
			c-0.2,0-0.4,0-0.6,0.1c-0.2,0.1-0.4,0.2-0.5,0.4l-0.7-0.6c0.3-0.2,0.5-0.4,0.8-0.5s0.6-0.2,1-0.2c0.3,0,0.5,0,0.8,0.1
			c0.2,0.1,0.5,0.2,0.6,0.3s0.3,0.3,0.4,0.5s0.2,0.4,0.2,0.6c0,0.3-0.1,0.6-0.2,0.8c-0.1,0.2-0.3,0.3-0.5,0.4
			c0.3,0.1,0.5,0.2,0.7,0.4C193.6,75.6,193.6,75.9,193.6,76.2z"/>
		<path id="XMLID_299_" class="st0" d="M198.6,76.6v1.2h-0.9v-1.2h-3.2v-0.8l3-3.4h1v3.5h0.8v0.7H198.6z M197.8,73.4
			c-0.1,0.1-0.1,0.2-0.2,0.3c-0.1,0.1-0.2,0.2-0.3,0.4l-1.1,1.3c-0.1,0.1-0.2,0.2-0.3,0.3c-0.1,0.1-0.2,0.2-0.3,0.3
			c0.1,0,0.1,0,0.2,0c0.1,0,0.2,0,0.2,0c0.1,0,0.2,0,0.3,0s0.2,0,0.2,0h1.2v-1.6c0-0.1,0-0.2,0-0.3c0-0.1,0-0.2,0-0.3
			c0-0.1,0-0.2,0-0.3C197.8,73.5,197.8,73.4,197.8,73.4z"/>
	</g>
</g>
<g id="XMLID_271_">
	<g>
		<path id="XMLID_281_" class="st0" d="M77.6,123.9c0,0.3-0.1,0.5-0.2,0.7c-0.1,0.2-0.3,0.4-0.5,0.5s-0.4,0.2-0.7,0.3
			c-0.3,0.1-0.6,0.1-1,0.1c-0.7,0-1.3-0.1-1.7-0.4s-0.6-0.7-0.6-1.2c0-0.7,0.3-1.1,1-1.3c-0.2-0.1-0.3-0.1-0.4-0.2
			c-0.1-0.1-0.2-0.2-0.2-0.3s-0.1-0.2-0.1-0.3c0-0.1,0-0.2,0-0.3c0-0.3,0.1-0.5,0.2-0.7s0.3-0.3,0.4-0.5c0.2-0.1,0.4-0.2,0.7-0.3
			c0.3-0.1,0.5-0.1,0.8-0.1c0.3,0,0.5,0,0.8,0.1s0.5,0.2,0.7,0.3c0.2,0.1,0.3,0.3,0.5,0.5c0.1,0.2,0.2,0.4,0.2,0.7
			c0,0.1,0,0.2,0,0.3c0,0.1-0.1,0.2-0.1,0.3s-0.1,0.2-0.2,0.3s-0.2,0.2-0.4,0.2c0.3,0.1,0.6,0.3,0.8,0.5
			C77.6,123.2,77.6,123.5,77.6,123.9z M76.8,123.9c0-0.3-0.1-0.5-0.3-0.7c-0.2-0.2-0.6-0.2-1.1-0.2c-0.5,0-0.8,0.1-1.1,0.2
			c-0.2,0.2-0.3,0.4-0.3,0.7c0,0.3,0.1,0.5,0.4,0.7c0.2,0.2,0.6,0.3,1,0.3c0.5,0,0.8-0.1,1.1-0.3C76.6,124.4,76.8,124.2,76.8,123.9z
			 M76.5,121.5c0-0.1,0-0.2-0.1-0.3s-0.1-0.2-0.2-0.3c-0.1-0.1-0.2-0.1-0.4-0.2c-0.2,0-0.3-0.1-0.5-0.1c-0.2,0-0.4,0-0.5,0.1
			c-0.1,0-0.3,0.1-0.4,0.2c-0.1,0.1-0.2,0.2-0.2,0.2c0,0.1-0.1,0.2-0.1,0.3c0,0.2,0.1,0.4,0.3,0.5c0.2,0.1,0.5,0.2,0.9,0.2
			c0.4,0,0.7-0.1,0.9-0.2C76.4,121.9,76.5,121.7,76.5,121.5z"/>
		<path id="XMLID_279_" class="st0" d="M83,123.6c0,0.3-0.1,0.6-0.2,0.9c-0.1,0.2-0.3,0.4-0.5,0.6s-0.4,0.3-0.7,0.4
			s-0.6,0.1-0.9,0.1c-0.4,0-0.7,0-1.1-0.1c-0.3-0.1-0.7-0.2-1-0.4l0.4-0.7c0.3,0.1,0.5,0.2,0.8,0.3c0.3,0.1,0.6,0.1,0.8,0.1
			c0.5,0,0.8-0.1,1-0.3c0.2-0.2,0.4-0.5,0.4-0.8c0-0.3-0.1-0.6-0.3-0.7c-0.2-0.2-0.5-0.2-0.9-0.2c-0.3,0-0.5,0-0.6,0.1
			c-0.2,0.1-0.3,0.1-0.5,0.2l-0.9-0.3L79,120h3.6v0.8h-2.8l-0.1,1.4c0.2-0.1,0.3-0.2,0.6-0.2c0.2,0,0.4-0.1,0.7-0.1
			c0.3,0,0.6,0,0.9,0.1c0.3,0.1,0.5,0.2,0.6,0.4s0.3,0.3,0.4,0.5C82.9,123.1,83,123.4,83,123.6z"/>
		<path id="XMLID_277_" class="st0" d="M85.2,124.9c0,0.2-0.1,0.3-0.2,0.4c-0.1,0.1-0.3,0.2-0.5,0.2c-0.2,0-0.3-0.1-0.5-0.2
			c-0.1-0.1-0.2-0.3-0.2-0.4c0-0.1,0-0.2,0.1-0.2s0.1-0.1,0.1-0.2s0.1-0.1,0.2-0.1c0.1,0,0.2,0,0.3,0c0.1,0,0.2,0,0.3,0
			c0.1,0,0.2,0.1,0.2,0.1s0.1,0.1,0.1,0.2S85.2,124.8,85.2,124.9z"/>
		<path id="XMLID_275_" class="st0" d="M89.2,121.7c-0.2,0.3-0.4,0.7-0.6,1.1c-0.2,0.4-0.3,0.8-0.4,1.2c-0.1,0.4-0.2,0.9-0.2,1.4
			h-0.9c0-0.5,0.1-0.9,0.1-1.3c0.1-0.4,0.2-0.8,0.4-1.2c0.2-0.4,0.3-0.7,0.6-1.1s0.5-0.7,0.7-1h-3.1V120h4.1v0.8
			C89.7,121.1,89.4,121.4,89.2,121.7z"/>
		<path id="XMLID_273_" class="st0" d="M91,125.4c0-0.4,0.1-0.7,0.2-1c0.1-0.3,0.3-0.6,0.5-0.8c0.2-0.2,0.4-0.4,0.7-0.6
			c0.3-0.2,0.5-0.3,0.8-0.5c0.2-0.1,0.4-0.2,0.5-0.3c0.1-0.1,0.2-0.2,0.3-0.3c0.1-0.1,0.1-0.2,0.2-0.2c0-0.1,0-0.2,0-0.3
			c0-0.2-0.1-0.4-0.3-0.5c-0.2-0.1-0.5-0.2-0.9-0.2c-0.3,0-0.5,0-0.8,0.1c-0.3,0.1-0.5,0.2-0.7,0.4l-0.6-0.6
			c0.3-0.2,0.6-0.4,0.9-0.5c0.3-0.1,0.7-0.2,1.1-0.2c0.6,0,1.1,0.1,1.5,0.4c0.4,0.2,0.5,0.6,0.5,1.1c0,0.2,0,0.4-0.1,0.5
			c-0.1,0.2-0.1,0.3-0.3,0.4c-0.1,0.1-0.3,0.3-0.5,0.4c-0.2,0.1-0.4,0.3-0.7,0.4c-0.3,0.2-0.5,0.3-0.7,0.4s-0.3,0.2-0.5,0.4
			s-0.2,0.2-0.3,0.3s-0.1,0.2-0.1,0.4h3.1v0.8H91z"/>
	</g>
</g>
<g id="XMLID_245_">
	<g>
		<path id="XMLID_255_" class="st0" d="M114.3,123.9c0,0.3-0.1,0.5-0.2,0.7c-0.1,0.2-0.3,0.4-0.5,0.5s-0.4,0.2-0.7,0.3
			c-0.3,0.1-0.6,0.1-1,0.1c-0.7,0-1.3-0.1-1.7-0.4s-0.6-0.7-0.6-1.2c0-0.7,0.3-1.1,1-1.3c-0.2-0.1-0.3-0.1-0.4-0.2
			c-0.1-0.1-0.2-0.2-0.2-0.3s-0.1-0.2-0.1-0.3c0-0.1,0-0.2,0-0.3c0-0.3,0.1-0.5,0.2-0.7s0.3-0.3,0.4-0.5c0.2-0.1,0.4-0.2,0.7-0.3
			c0.3-0.1,0.5-0.1,0.8-0.1c0.3,0,0.5,0,0.8,0.1s0.5,0.2,0.7,0.3c0.2,0.1,0.3,0.3,0.5,0.5c0.1,0.2,0.2,0.4,0.2,0.7
			c0,0.1,0,0.2,0,0.3c0,0.1-0.1,0.2-0.1,0.3s-0.1,0.2-0.2,0.3s-0.2,0.2-0.4,0.2c0.3,0.1,0.6,0.3,0.8,0.5
			C114.2,123.2,114.3,123.5,114.3,123.9z M113.4,123.9c0-0.3-0.1-0.5-0.3-0.7c-0.2-0.2-0.6-0.2-1.1-0.2c-0.5,0-0.8,0.1-1.1,0.2
			c-0.2,0.2-0.3,0.4-0.3,0.7c0,0.3,0.1,0.5,0.4,0.7c0.2,0.2,0.6,0.3,1,0.3c0.5,0,0.8-0.1,1.1-0.3
			C113.3,124.4,113.4,124.2,113.4,123.9z M113.1,121.5c0-0.1,0-0.2-0.1-0.3s-0.1-0.2-0.2-0.3c-0.1-0.1-0.2-0.1-0.4-0.2
			c-0.2,0-0.3-0.1-0.5-0.1c-0.2,0-0.4,0-0.5,0.1c-0.1,0-0.3,0.1-0.4,0.2c-0.1,0.1-0.2,0.2-0.2,0.2c0,0.1-0.1,0.2-0.1,0.3
			c0,0.2,0.1,0.4,0.3,0.5c0.2,0.1,0.5,0.2,0.9,0.2c0.4,0,0.7-0.1,0.9-0.2C113,121.9,113.1,121.7,113.1,121.5z"/>
		<path id="XMLID_253_" class="st0" d="M119.6,123.6c0,0.3-0.1,0.6-0.2,0.9c-0.1,0.2-0.3,0.4-0.5,0.6s-0.4,0.3-0.7,0.4
			s-0.6,0.1-0.9,0.1c-0.4,0-0.7,0-1.1-0.1c-0.3-0.1-0.7-0.2-1-0.4l0.4-0.7c0.3,0.1,0.5,0.2,0.8,0.3c0.3,0.1,0.6,0.1,0.8,0.1
			c0.5,0,0.8-0.1,1-0.3c0.2-0.2,0.4-0.5,0.4-0.8c0-0.3-0.1-0.6-0.3-0.7c-0.2-0.2-0.5-0.2-0.9-0.2c-0.3,0-0.5,0-0.6,0.1
			c-0.2,0.1-0.3,0.1-0.5,0.2l-0.9-0.3l0.2-2.6h3.6v0.8h-2.8l-0.1,1.4c0.2-0.1,0.3-0.2,0.6-0.2c0.2,0,0.4-0.1,0.7-0.1
			c0.3,0,0.6,0,0.9,0.1c0.3,0.1,0.5,0.2,0.6,0.4s0.3,0.3,0.4,0.5C119.6,123.1,119.6,123.4,119.6,123.6z"/>
		<path id="XMLID_251_" class="st0" d="M121.8,124.9c0,0.2-0.1,0.3-0.2,0.4c-0.1,0.1-0.3,0.2-0.5,0.2c-0.2,0-0.3-0.1-0.5-0.2
			c-0.1-0.1-0.2-0.3-0.2-0.4c0-0.1,0-0.2,0.1-0.2s0.1-0.1,0.1-0.2s0.1-0.1,0.2-0.1c0.1,0,0.2,0,0.3,0c0.1,0,0.2,0,0.3,0
			c0.1,0,0.2,0.1,0.2,0.1s0.1,0.1,0.1,0.2S121.8,124.8,121.8,124.9z"/>
		<path id="XMLID_249_" class="st0" d="M125.8,121.7c-0.2,0.3-0.4,0.7-0.6,1.1c-0.2,0.4-0.3,0.8-0.4,1.2c-0.1,0.4-0.2,0.9-0.2,1.4
			h-0.9c0-0.5,0.1-0.9,0.1-1.3c0.1-0.4,0.2-0.8,0.4-1.2c0.2-0.4,0.3-0.7,0.6-1.1s0.5-0.7,0.7-1h-3.1V120h4.1v0.8
			C126.3,121.1,126.1,121.4,125.8,121.7z"/>
		<path id="XMLID_247_" class="st0" d="M127.6,125.4c0-0.4,0.1-0.7,0.2-1c0.1-0.3,0.3-0.6,0.5-0.8c0.2-0.2,0.4-0.4,0.7-0.6
			c0.3-0.2,0.5-0.3,0.8-0.5c0.2-0.1,0.4-0.2,0.5-0.3c0.1-0.1,0.2-0.2,0.3-0.3c0.1-0.1,0.1-0.2,0.2-0.2c0-0.1,0-0.2,0-0.3
			c0-0.2-0.1-0.4-0.3-0.5c-0.2-0.1-0.5-0.2-0.9-0.2c-0.3,0-0.5,0-0.8,0.1c-0.3,0.1-0.5,0.2-0.7,0.4l-0.6-0.6
			c0.3-0.2,0.6-0.4,0.9-0.5c0.3-0.1,0.7-0.2,1.1-0.2c0.6,0,1.1,0.1,1.5,0.4c0.4,0.2,0.5,0.6,0.5,1.1c0,0.2,0,0.4-0.1,0.5
			c-0.1,0.2-0.1,0.3-0.3,0.4c-0.1,0.1-0.3,0.3-0.5,0.4c-0.2,0.1-0.4,0.3-0.7,0.4c-0.3,0.2-0.5,0.3-0.7,0.4s-0.3,0.2-0.5,0.4
			s-0.2,0.2-0.3,0.3s-0.1,0.2-0.1,0.4h3.1v0.8H127.6z"/>
	</g>
</g>
<g id="XMLID_215_">
	<g>
		<path id="XMLID_227_" class="st0" d="M218.3,99.4c0,0.3-0.1,0.5-0.2,0.7c-0.1,0.2-0.3,0.4-0.5,0.5s-0.4,0.2-0.7,0.3
			c-0.3,0.1-0.6,0.1-1,0.1c-0.7,0-1.3-0.1-1.7-0.4s-0.6-0.7-0.6-1.2c0-0.7,0.3-1.1,1-1.3c-0.2-0.1-0.3-0.1-0.4-0.2
			c-0.1-0.1-0.2-0.2-0.2-0.3s-0.1-0.2-0.1-0.3c0-0.1,0-0.2,0-0.3c0-0.3,0.1-0.5,0.2-0.7s0.3-0.3,0.4-0.5c0.2-0.1,0.4-0.2,0.7-0.3
			c0.3-0.1,0.5-0.1,0.8-0.1c0.3,0,0.5,0,0.8,0.1s0.5,0.2,0.7,0.3c0.2,0.1,0.3,0.3,0.5,0.5c0.1,0.2,0.2,0.4,0.2,0.7
			c0,0.1,0,0.2,0,0.3c0,0.1-0.1,0.2-0.1,0.3s-0.1,0.2-0.2,0.3s-0.2,0.2-0.4,0.2c0.3,0.1,0.6,0.3,0.8,0.5
			C218.2,98.8,218.3,99.1,218.3,99.4z M217.4,99.5c0-0.3-0.1-0.5-0.3-0.7c-0.2-0.2-0.6-0.2-1.1-0.2c-0.5,0-0.8,0.1-1.1,0.2
			c-0.2,0.2-0.3,0.4-0.3,0.7c0,0.3,0.1,0.5,0.4,0.7c0.2,0.2,0.6,0.3,1,0.3c0.5,0,0.8-0.1,1.1-0.3C217.2,99.9,217.4,99.7,217.4,99.5z
			 M217.1,97.1c0-0.1,0-0.2-0.1-0.3s-0.1-0.2-0.2-0.3c-0.1-0.1-0.2-0.1-0.4-0.2c-0.2,0-0.3-0.1-0.5-0.1c-0.2,0-0.4,0-0.5,0.1
			c-0.1,0-0.3,0.1-0.4,0.2c-0.1,0.1-0.2,0.2-0.2,0.2c0,0.1-0.1,0.2-0.1,0.3c0,0.2,0.1,0.4,0.3,0.5c0.2,0.1,0.5,0.2,0.9,0.2
			c0.4,0,0.7-0.1,0.9-0.2C217,97.4,217.1,97.3,217.1,97.1z"/>
		<path id="XMLID_224_" class="st0" d="M223.6,97.7c0,0.2,0,0.5-0.1,0.7c0,0.3-0.1,0.5-0.2,0.8c-0.1,0.2-0.3,0.5-0.5,0.7
			c-0.2,0.2-0.4,0.4-0.7,0.6c-0.3,0.2-0.6,0.3-0.9,0.4c-0.4,0.1-0.8,0.2-1.2,0.2v-0.8c0.7,0,1.2-0.2,1.7-0.5s0.8-0.7,1-1.3
			c-0.2,0.1-0.4,0.3-0.7,0.3c-0.2,0.1-0.5,0.1-0.9,0.1c-0.3,0-0.5,0-0.8-0.1c-0.2-0.1-0.4-0.2-0.6-0.3s-0.3-0.3-0.4-0.5
			s-0.2-0.5-0.2-0.7c0-0.3,0.1-0.6,0.2-0.8c0.1-0.2,0.3-0.4,0.5-0.6c0.2-0.1,0.5-0.3,0.7-0.3s0.6-0.1,0.9-0.1c0.3,0,0.6,0,0.9,0.1
			c0.3,0.1,0.5,0.2,0.7,0.4c0.2,0.2,0.4,0.4,0.5,0.7C223.6,97,223.6,97.3,223.6,97.7z M222.7,97.3c0-0.1,0-0.3-0.1-0.4
			c-0.1-0.1-0.1-0.2-0.3-0.3s-0.3-0.2-0.4-0.2c-0.2-0.1-0.4-0.1-0.6-0.1c-0.4,0-0.8,0.1-1,0.3c-0.2,0.2-0.4,0.4-0.4,0.7
			c0,0.3,0.1,0.6,0.4,0.7c0.2,0.2,0.6,0.2,1,0.2c0.4,0,0.8-0.1,1-0.2C222.6,97.9,222.7,97.6,222.7,97.3z"/>
		<path id="XMLID_222_" class="st0" d="M225.8,100.5c0,0.2-0.1,0.3-0.2,0.4c-0.1,0.1-0.3,0.2-0.5,0.2c-0.2,0-0.3-0.1-0.5-0.2
			c-0.1-0.1-0.2-0.3-0.2-0.4c0-0.1,0-0.2,0.1-0.2s0.1-0.1,0.1-0.2s0.1-0.1,0.2-0.1c0.1,0,0.2,0,0.3,0c0.1,0,0.2,0,0.3,0
			c0.1,0,0.2,0.1,0.2,0.1s0.1,0.1,0.1,0.2S225.8,100.4,225.8,100.5z"/>
		<path id="XMLID_220_" class="st0" d="M226.6,101c0-0.4,0.1-0.7,0.2-1c0.1-0.3,0.3-0.6,0.5-0.8c0.2-0.2,0.4-0.4,0.7-0.6
			c0.3-0.2,0.5-0.3,0.8-0.5c0.2-0.1,0.4-0.2,0.5-0.3c0.1-0.1,0.2-0.2,0.3-0.3c0.1-0.1,0.1-0.2,0.2-0.2c0-0.1,0-0.2,0-0.3
			c0-0.2-0.1-0.4-0.3-0.5c-0.2-0.1-0.5-0.2-0.9-0.2c-0.3,0-0.5,0-0.8,0.1c-0.3,0.1-0.5,0.2-0.7,0.4l-0.6-0.6
			c0.3-0.2,0.6-0.4,0.9-0.5c0.3-0.1,0.7-0.2,1.1-0.2c0.6,0,1.1,0.1,1.5,0.4c0.4,0.2,0.5,0.6,0.5,1.1c0,0.2,0,0.4-0.1,0.5
			c-0.1,0.2-0.1,0.3-0.3,0.4c-0.1,0.1-0.3,0.3-0.5,0.4c-0.2,0.1-0.4,0.3-0.7,0.4c-0.3,0.2-0.5,0.3-0.7,0.4s-0.3,0.2-0.5,0.4
			s-0.2,0.2-0.3,0.3s-0.1,0.2-0.1,0.4h3.1v0.8H226.6z"/>
		<path id="XMLID_217_" class="st0" d="M236.4,97.7c0,0.2,0,0.5-0.1,0.7c0,0.3-0.1,0.5-0.2,0.8c-0.1,0.2-0.3,0.5-0.5,0.7
			c-0.2,0.2-0.4,0.4-0.7,0.6c-0.3,0.2-0.6,0.3-0.9,0.4c-0.4,0.1-0.8,0.2-1.2,0.2v-0.8c0.7,0,1.2-0.2,1.7-0.5s0.8-0.7,1-1.3
			c-0.2,0.1-0.4,0.3-0.7,0.3c-0.2,0.1-0.5,0.1-0.9,0.1c-0.3,0-0.5,0-0.8-0.1c-0.2-0.1-0.4-0.2-0.6-0.3s-0.3-0.3-0.4-0.5
			s-0.2-0.5-0.2-0.7c0-0.3,0.1-0.6,0.2-0.8c0.1-0.2,0.3-0.4,0.5-0.6c0.2-0.1,0.5-0.3,0.7-0.3s0.6-0.1,0.9-0.1c0.3,0,0.6,0,0.9,0.1
			c0.3,0.1,0.5,0.2,0.7,0.4c0.2,0.2,0.4,0.4,0.5,0.7C236.3,97,236.4,97.3,236.4,97.7z M235.5,97.3c0-0.1,0-0.3-0.1-0.4
			c-0.1-0.1-0.1-0.2-0.3-0.3s-0.3-0.2-0.4-0.2c-0.2-0.1-0.4-0.1-0.6-0.1c-0.4,0-0.8,0.1-1,0.3c-0.2,0.2-0.4,0.4-0.4,0.7
			c0,0.3,0.1,0.6,0.4,0.7c0.2,0.2,0.6,0.2,1,0.2c0.4,0,0.8-0.1,1-0.2C235.4,97.9,235.5,97.6,235.5,97.3z"/>
	</g>
</g>
<line id="XMLID_214_" class="st3" x1="52.8" y1="43.1" x2="392.2" y2="43.1"/>
<line id="XMLID_213_" class="st3" x1="52.8" y1="69" x2="392.2" y2="69"/>
<line id="XMLID_212_" class="st3" x1="52.8" y1="103.6" x2="392.2" y2="103.6"/>
<line id="XMLID_211_" class="st3" x1="52.8" y1="131.5" x2="392.2" y2="131.5"/>
<line id="XMLID_210_" class="st3" x1="52.8" y1="160.4" x2="392.2" y2="160.4"/>
<line id="XMLID_209_" class="st3" x1="52.8" y1="190.5" x2="392.2" y2="190.5"/>
<g id="XMLID_207_">
	<text transform="matrix(1 0 0 1 34.1382 44.5841)" class="st0 st4 st5">100</text>
</g>
<g id="XMLID_205_">
	<text transform="matrix(1 0 0 1 34.1382 74.2843)" class="st0 st4 st5">95</text>
</g>
<g id="XMLID_203_">
	<text transform="matrix(1 0 0 1 34.1382 103.9845)" class="st0 st4 st5">90</text>
</g>
<g id="XMLID_201_">
	<text transform="matrix(1 0 0 1 34.1382 133.6847)" class="st0 st4 st5">85</text>
</g>
<g id="XMLID_199_">
	<text transform="matrix(1 0 0 1 34.1382 163.384)" class="st0 st4 st5">80</text>
</g>
<g id="XMLID_197_">
	<text transform="matrix(1 0 0 1 34.1382 193.0842)" class="st0 st4 st5">75</text>
</g>
<linearGradient id="XMLID_687_" gradientUnits="userSpaceOnUse" x1="65.892" y1="158.6555" x2="102.5341" y2="158.6555">
	<stop  offset="0" style="stop-color:#4B257A"/>
	<stop  offset="1" style="stop-color:#964C8E"/>
</linearGradient>
<rect id="XMLID_196_" x="65.9" y="126.8" class="st6" width="36.6" height="63.6"/>
<linearGradient id="XMLID_688_" gradientUnits="userSpaceOnUse" x1="102.5341" y1="158.6555" x2="139.1763" y2="158.6555">
	<stop  offset="0" style="stop-color:#FFF200"/>
	<stop  offset="1" style="stop-color:#F2A41E"/>
</linearGradient>
<rect id="XMLID_195_" x="102.5" y="126.8" class="st7" width="36.6" height="63.6"/>
<linearGradient id="XMLID_689_" gradientUnits="userSpaceOnUse" x1="272.2453" y1="115.2628" x2="308.8886" y2="115.2628">
	<stop  offset="0" style="stop-color:#4B257A"/>
	<stop  offset="1" style="stop-color:#964C8E"/>
</linearGradient>
<rect id="XMLID_194_" x="272.2" y="40" class="st8" width="36.6" height="150.4"/>
<linearGradient id="XMLID_690_" gradientUnits="userSpaceOnUse" x1="308.8886" y1="126.4483" x2="345.5309" y2="126.4483">
	<stop  offset="0" style="stop-color:#FFF200"/>
	<stop  offset="1" style="stop-color:#F2A41E"/>
</linearGradient>
<rect id="XMLID_193_" x="308.9" y="62.4" class="st9" width="36.6" height="128.1"/>
<linearGradient id="XMLID_691_" gradientUnits="userSpaceOnUse" x1="169.8528" y1="135.1266" x2="206.4949" y2="135.1266">
	<stop  offset="0" style="stop-color:#4B257A"/>
	<stop  offset="1" style="stop-color:#964C8E"/>
</linearGradient>
<rect id="XMLID_192_" x="169.9" y="79.8" class="st10" width="36.6" height="110.7"/>
<linearGradient id="XMLID_692_" gradientUnits="userSpaceOnUse" x1="206.6742" y1="147.2316" x2="243.3164" y2="147.2316">
	<stop  offset="0" style="stop-color:#FFF200"/>
	<stop  offset="1" style="stop-color:#F2A41E"/>
</linearGradient>
<rect id="XMLID_191_" x="206.7" y="104" class="st11" width="36.6" height="86.5"/>
<path id="XMLID_190_" class="st12" d="M428.9,39.4c0-7.7-6.5-14-14.5-14H15c-8,0-14.5,6.3-14.5,14v195c0,7.7,6.5,14,14.5,14h399.4
	c8,0,14.5-6.3,14.5-14V39.4z"/>
<path id="XMLID_189_" class="st13" d="M367.7,13.6c0-7.5-6.1-13.6-13.6-13.6H33.4c-7.5,0-13.6,6.1-13.6,13.6l0,0
	c0,7.5,6.1,13.6,13.6,13.6h320.7C361.6,27.3,367.7,21.2,367.7,13.6L367.7,13.6z"/>
<g id="XMLID_1_">
	<g>
		<path id="XMLID_97_" class="st14" d="M32.7,15.6c0,0.5-0.1,0.9-0.2,1.3s-0.4,0.8-0.7,1c-0.3,0.3-0.8,0.5-1.3,0.7
			c-0.5,0.2-1.1,0.2-1.8,0.2c-0.9,0-1.7-0.2-2.4-0.5c-0.7-0.3-1.3-0.8-1.7-1.4l1.5-1.3c0.4,0.4,0.8,0.7,1.2,0.9
			c0.4,0.2,0.9,0.3,1.4,0.3c0.6,0,1.1-0.1,1.4-0.3c0.3-0.2,0.4-0.5,0.4-0.9c0-0.2,0-0.3-0.1-0.4c-0.1-0.1-0.2-0.2-0.3-0.3
			c-0.2-0.1-0.4-0.2-0.7-0.3c-0.3-0.1-0.7-0.2-1.2-0.3c-0.5-0.1-0.9-0.2-1.3-0.4c-0.4-0.1-0.7-0.3-1-0.6c-0.3-0.2-0.5-0.5-0.7-0.9
			c-0.2-0.3-0.2-0.8-0.2-1.3c0-0.5,0.1-0.9,0.3-1.3c0.2-0.4,0.5-0.7,0.8-1c0.3-0.3,0.7-0.5,1.2-0.6c0.4-0.1,0.9-0.2,1.4-0.2
			c0.8,0,1.5,0.1,2.1,0.4c0.6,0.3,1.2,0.7,1.7,1.2L31,11.3c-0.3-0.3-0.7-0.6-1.1-0.8s-0.8-0.3-1.3-0.3c-0.3,0-0.5,0-0.7,0.1
			c-0.2,0.1-0.3,0.1-0.5,0.2c-0.1,0.1-0.2,0.2-0.3,0.3c0,0.1-0.1,0.2-0.1,0.3c0,0.2,0,0.3,0.1,0.4s0.2,0.2,0.3,0.3
			c0.2,0.1,0.4,0.2,0.6,0.3c0.3,0.1,0.6,0.2,1,0.3c0.4,0.1,0.8,0.2,1.2,0.3c0.4,0.1,0.8,0.3,1.1,0.6c0.3,0.2,0.6,0.5,0.8,0.9
			C32.6,14.6,32.7,15,32.7,15.6z"/>
		<path id="XMLID_94_" class="st14" d="M40.9,14.9c0,0.1,0,0.3,0,0.4c0,0.1,0,0.2,0,0.3h-4.7c0,0.3,0.1,0.5,0.2,0.7s0.2,0.3,0.4,0.5
			c0.1,0.1,0.3,0.2,0.5,0.3c0.2,0.1,0.4,0.1,0.6,0.1c0.3,0,0.5,0,0.8-0.1c0.2-0.1,0.4-0.2,0.6-0.4l1.5,1.2c-0.3,0.4-0.7,0.7-1.2,0.9
			c-0.5,0.2-1,0.3-1.5,0.3c-0.6,0-1.1-0.1-1.5-0.3s-0.8-0.5-1.1-0.8s-0.6-0.8-0.7-1.3c-0.2-0.5-0.3-1.1-0.3-1.7
			c0-0.6,0.1-1.1,0.3-1.6s0.4-0.9,0.7-1.3c0.3-0.4,0.7-0.6,1.1-0.8c0.4-0.2,0.9-0.3,1.4-0.3c0.5,0,1,0.1,1.4,0.3
			c0.4,0.2,0.8,0.5,1,0.9s0.5,0.8,0.6,1.3C40.8,13.8,40.9,14.3,40.9,14.9z M38.9,14c0-0.2-0.1-0.3-0.1-0.5c-0.1-0.2-0.1-0.3-0.3-0.4
			s-0.3-0.2-0.4-0.3s-0.4-0.1-0.6-0.1c-0.4,0-0.7,0.1-0.9,0.4c-0.2,0.3-0.3,0.6-0.4,1H38.9z"/>
		<path id="XMLID_91_" class="st14" d="M44.8,9.2c0,0.3-0.1,0.6-0.3,0.8s-0.5,0.3-0.8,0.3c-0.3,0-0.6-0.1-0.8-0.3
			c-0.2-0.2-0.3-0.5-0.3-0.8s0.1-0.6,0.3-0.8C43,8.1,43.3,8,43.6,8c0.3,0,0.6,0.1,0.8,0.3S44.8,8.8,44.8,9.2z M42.6,18.7V11h2v7.8
			H42.6z"/>
		<path id="XMLID_89_" class="st14" d="M46.6,18.7v-1.5l2.8-3.4c0.2-0.2,0.3-0.4,0.5-0.6s0.3-0.4,0.5-0.5c-0.1,0-0.2,0-0.3,0
			s-0.2,0-0.3,0c-0.1,0-0.2,0-0.4,0s-0.2,0-0.3,0h-2.3V11H53v1.5l-2.7,3.4c-0.2,0.2-0.3,0.4-0.5,0.6c-0.2,0.2-0.3,0.4-0.4,0.5
			c0.1,0,0.2,0,0.3,0s0.2,0,0.3,0s0.2,0,0.4,0s0.2,0,0.3,0H53v1.9H46.6z"/>
		<path id="XMLID_87_" class="st14" d="M59.5,18.7v-0.5c-0.2,0.2-0.4,0.3-0.7,0.5c-0.3,0.1-0.7,0.2-1.1,0.2c-1,0-1.7-0.3-2.2-1
			c-0.5-0.6-0.7-1.5-0.7-2.6V11h2v4.2c0,0.3,0,0.6,0.1,0.9s0.1,0.4,0.3,0.6s0.2,0.2,0.4,0.3C57.8,17,58,17,58.2,17
			c0.4,0,0.8-0.1,1-0.4c0.2-0.3,0.3-0.7,0.3-1.4V11h2v7.8H59.5z"/>
		<path id="XMLID_85_" class="st14" d="M68.1,13.4c-0.2-0.1-0.4-0.3-0.5-0.4c-0.2-0.1-0.4-0.1-0.6-0.1c-0.2,0-0.4,0-0.5,0.1
			s-0.3,0.1-0.4,0.3c-0.1,0.1-0.2,0.3-0.3,0.5c-0.1,0.2-0.1,0.5-0.1,0.8v4.2h-2V11h2v0.5c0.2-0.2,0.4-0.3,0.7-0.5s0.6-0.2,0.9-0.2
			c0.3,0,0.6,0.1,0.9,0.2c0.2,0.1,0.4,0.2,0.6,0.4L68.1,13.4z"/>
		<path id="XMLID_82_" class="st14" d="M76.2,14.9c0,0.1,0,0.3,0,0.4c0,0.1,0,0.2,0,0.3h-4.7c0,0.3,0.1,0.5,0.2,0.7s0.2,0.3,0.4,0.5
			c0.1,0.1,0.3,0.2,0.5,0.3c0.2,0.1,0.4,0.1,0.6,0.1c0.3,0,0.5,0,0.8-0.1c0.2-0.1,0.4-0.2,0.6-0.4l1.5,1.2c-0.3,0.4-0.7,0.7-1.2,0.9
			c-0.5,0.2-1,0.3-1.5,0.3c-0.6,0-1.1-0.1-1.5-0.3s-0.8-0.5-1.1-0.8s-0.6-0.8-0.7-1.3c-0.2-0.5-0.3-1.1-0.3-1.7
			c0-0.6,0.1-1.1,0.3-1.6s0.4-0.9,0.7-1.3c0.3-0.4,0.7-0.6,1.1-0.8c0.4-0.2,0.9-0.3,1.4-0.3c0.5,0,1,0.1,1.4,0.3
			c0.4,0.2,0.8,0.5,1,0.9s0.5,0.8,0.6,1.3C76.1,13.8,76.2,14.3,76.2,14.9z M74.2,14c0-0.2-0.1-0.3-0.1-0.5C74,13.3,74,13.2,73.8,13
			s-0.3-0.2-0.4-0.3s-0.4-0.1-0.6-0.1c-0.4,0-0.7,0.1-0.9,0.4c-0.2,0.3-0.3,0.6-0.4,1H74.2z"/>
		<path id="XMLID_80_" class="st14" d="M85.8,9.7c-0.1,0-0.2,0-0.4,0c-0.3,0-0.5,0-0.6,0.1s-0.1,0.3-0.1,0.5V11H86v1.9h-1.3v5.9h-2
			v-5.9h-0.9V11h0.9V10c0-0.7,0.2-1.3,0.6-1.6C83.6,8.1,84.1,8,84.9,8c0.5,0,0.9,0.1,1.3,0.2v1.6C86,9.8,85.9,9.8,85.8,9.7z"/>
		<path id="XMLID_78_" class="st14" d="M92.2,13.4c-0.2-0.1-0.4-0.3-0.5-0.4c-0.2-0.1-0.4-0.1-0.6-0.1c-0.2,0-0.4,0-0.5,0.1
			s-0.3,0.1-0.4,0.3c-0.1,0.1-0.2,0.3-0.3,0.5c-0.1,0.2-0.1,0.5-0.1,0.8v4.2h-2V11h2v0.5c0.2-0.2,0.4-0.3,0.7-0.5s0.6-0.2,0.9-0.2
			c0.3,0,0.6,0.1,0.9,0.2c0.2,0.1,0.4,0.2,0.6,0.4L92.2,13.4z"/>
		<path id="XMLID_75_" class="st14" d="M100.3,14.9c0,0.1,0,0.3,0,0.4c0,0.1,0,0.2,0,0.3h-4.7c0,0.3,0.1,0.5,0.2,0.7
			s0.2,0.3,0.4,0.5c0.1,0.1,0.3,0.2,0.5,0.3C96.8,17,97,17,97.2,17c0.3,0,0.5,0,0.8-0.1c0.2-0.1,0.4-0.2,0.6-0.4l1.5,1.2
			c-0.3,0.4-0.7,0.7-1.2,0.9c-0.5,0.2-1,0.3-1.5,0.3c-0.6,0-1.1-0.1-1.5-0.3s-0.8-0.5-1.1-0.8S94,17,93.8,16.5
			c-0.2-0.5-0.3-1.1-0.3-1.7c0-0.6,0.1-1.1,0.3-1.6s0.4-0.9,0.7-1.3c0.3-0.4,0.7-0.6,1.1-0.8c0.4-0.2,0.9-0.3,1.4-0.3
			c0.5,0,1,0.1,1.4,0.3c0.4,0.2,0.8,0.5,1,0.9s0.5,0.8,0.6,1.3C100.2,13.8,100.3,14.3,100.3,14.9z M98.3,14c0-0.2-0.1-0.3-0.1-0.5
			c-0.1-0.2-0.1-0.3-0.3-0.4s-0.3-0.2-0.4-0.3s-0.4-0.1-0.6-0.1c-0.4,0-0.7,0.1-0.9,0.4c-0.2,0.3-0.3,0.6-0.4,1H98.3z"/>
		<path id="XMLID_72_" class="st14" d="M108.3,14.9c0,0.1,0,0.3,0,0.4c0,0.1,0,0.2,0,0.3h-4.7c0,0.3,0.1,0.5,0.2,0.7
			s0.2,0.3,0.4,0.5c0.1,0.1,0.3,0.2,0.5,0.3c0.2,0.1,0.4,0.1,0.6,0.1c0.3,0,0.5,0,0.8-0.1c0.2-0.1,0.4-0.2,0.6-0.4l1.5,1.2
			c-0.3,0.4-0.7,0.7-1.2,0.9c-0.5,0.2-1,0.3-1.5,0.3c-0.6,0-1.1-0.1-1.5-0.3s-0.8-0.5-1.1-0.8s-0.6-0.8-0.7-1.3
			c-0.2-0.5-0.3-1.1-0.3-1.7c0-0.6,0.1-1.1,0.3-1.6s0.4-0.9,0.7-1.3c0.3-0.4,0.7-0.6,1.1-0.8c0.4-0.2,0.9-0.3,1.4-0.3
			c0.5,0,1,0.1,1.4,0.3c0.4,0.2,0.8,0.5,1,0.9s0.5,0.8,0.6,1.3C108.2,13.8,108.3,14.3,108.3,14.9z M106.3,14c0-0.2-0.1-0.3-0.1-0.5
			c-0.1-0.2-0.1-0.3-0.3-0.4s-0.3-0.2-0.4-0.3s-0.4-0.1-0.6-0.1c-0.4,0-0.7,0.1-0.9,0.4c-0.2,0.3-0.3,0.6-0.4,1H106.3z"/>
		<path id="XMLID_69_" class="st14" d="M114.1,18.7v-0.5c-0.2,0.2-0.4,0.3-0.7,0.5c-0.3,0.1-0.6,0.2-1,0.2c-0.4,0-0.8-0.1-1.2-0.2
			c-0.4-0.2-0.7-0.4-1-0.7c-0.3-0.3-0.5-0.8-0.7-1.3c-0.2-0.5-0.2-1.1-0.2-1.9c0-0.6,0.1-1.1,0.2-1.6c0.1-0.5,0.3-0.9,0.6-1.3
			s0.6-0.6,0.9-0.8c0.4-0.2,0.8-0.3,1.3-0.3c0.3,0,0.7,0.1,0.9,0.2c0.3,0.1,0.5,0.3,0.7,0.4V9l2-1v10.8H114.1z M114.1,13.4
			c-0.3-0.4-0.8-0.7-1.4-0.7c-0.8,0-1.2,0.7-1.2,2c0,0.8,0.1,1.4,0.4,1.7c0.2,0.4,0.6,0.5,1,0.5c0.3,0,0.6-0.1,0.8-0.2
			c0.2-0.1,0.4-0.3,0.5-0.5V13.4z"/>
		<path id="XMLID_66_" class="st14" d="M124.8,14.9c0,0.6-0.1,1.1-0.3,1.6s-0.4,0.9-0.7,1.3c-0.3,0.4-0.7,0.6-1.1,0.8
			c-0.4,0.2-0.9,0.3-1.4,0.3s-1-0.1-1.4-0.3s-0.8-0.5-1.1-0.8c-0.3-0.4-0.6-0.8-0.7-1.3s-0.3-1-0.3-1.6s0.1-1.1,0.3-1.6
			s0.4-0.9,0.7-1.3c0.3-0.4,0.7-0.6,1.1-0.8c0.4-0.2,0.9-0.3,1.4-0.3s1,0.1,1.4,0.3c0.4,0.2,0.8,0.5,1.1,0.8
			c0.3,0.4,0.6,0.8,0.7,1.3S124.8,14.3,124.8,14.9z M122.8,14.9c0-0.6-0.1-1.1-0.4-1.5c-0.2-0.4-0.6-0.6-1.1-0.6
			c-0.5,0-0.9,0.2-1.1,0.6c-0.2,0.4-0.3,0.9-0.3,1.5c0,0.6,0.1,1.1,0.3,1.5c0.2,0.4,0.6,0.6,1.1,0.6c0.2,0,0.5-0.1,0.6-0.2
			c0.2-0.1,0.3-0.3,0.5-0.5s0.2-0.4,0.3-0.7C122.7,15.4,122.8,15.1,122.8,14.9z"/>
		<path id="XMLID_64_" class="st14" d="M135.5,18.7v-4.2c0-0.7-0.1-1.2-0.3-1.4s-0.5-0.4-0.9-0.4s-0.7,0.1-0.9,0.4
			c-0.2,0.3-0.3,0.7-0.3,1.4v4.3h-2v-4.2c0-0.7-0.1-1.2-0.3-1.4s-0.5-0.4-0.9-0.4s-0.7,0.1-0.9,0.4c-0.2,0.3-0.3,0.7-0.3,1.4v4.3h-2
			V11h2v0.5c0.2-0.2,0.4-0.3,0.7-0.5s0.6-0.2,1-0.2c0.5,0,0.9,0.1,1.2,0.2c0.3,0.2,0.6,0.4,0.9,0.8c0.3-0.3,0.6-0.5,1-0.7
			c0.4-0.2,0.9-0.3,1.5-0.3c0.5,0,0.9,0.1,1.3,0.2c0.4,0.2,0.6,0.4,0.9,0.7c0.2,0.3,0.4,0.7,0.5,1.1c0.1,0.4,0.2,0.9,0.2,1.5v4.4
			H135.5z"/>
		<path id="XMLID_61_" class="st14" d="M148,18.7v-0.5c-0.2,0.2-0.4,0.4-0.7,0.5c-0.3,0.1-0.6,0.2-1,0.2s-0.7-0.1-1.1-0.2
			c-0.3-0.1-0.7-0.3-0.9-0.5c-0.3-0.2-0.5-0.5-0.7-0.9c-0.2-0.3-0.3-0.8-0.3-1.2c0-0.4,0.1-0.8,0.2-1.1c0.2-0.3,0.4-0.6,0.7-0.8
			c0.3-0.2,0.6-0.4,1-0.5c0.4-0.1,0.8-0.2,1.2-0.2c0.4,0,0.7,0,0.9,0.1c0.2,0.1,0.4,0.1,0.6,0.2v-0.4c0-0.3-0.1-0.5-0.3-0.7
			c-0.2-0.2-0.5-0.3-0.8-0.3c-0.2,0-0.4,0-0.6,0s-0.4,0-0.5,0.1s-0.3,0.1-0.5,0.2c-0.2,0.1-0.3,0.1-0.5,0.2l-0.8-1.4
			c0.2-0.1,0.4-0.2,0.7-0.3c0.2-0.1,0.4-0.2,0.7-0.2c0.2-0.1,0.5-0.1,0.7-0.1c0.3,0,0.5-0.1,0.9-0.1c0.5,0,0.9,0.1,1.3,0.2
			c0.4,0.1,0.7,0.3,1,0.5s0.5,0.5,0.6,0.9c0.2,0.3,0.2,0.7,0.2,1.2v5.2H148z M148,15.5c-0.2-0.1-0.4-0.2-0.6-0.2s-0.5-0.1-0.9-0.1
			c-0.4,0-0.7,0.1-0.9,0.3c-0.2,0.2-0.3,0.4-0.3,0.7c0,0.3,0.1,0.5,0.3,0.7s0.5,0.3,0.9,0.3c0.3,0,0.6-0.1,0.9-0.2
			c0.3-0.1,0.4-0.3,0.5-0.5V15.5z"/>
		<path id="XMLID_59_" class="st14" d="M156.3,18.4c-0.2,0.1-0.4,0.3-0.7,0.3s-0.6,0.1-0.9,0.1c-0.3,0-0.6-0.1-0.9-0.2
			s-0.5-0.3-0.7-0.5s-0.3-0.5-0.4-0.7c-0.1-0.3-0.1-0.6-0.1-0.9v-3.7h-1.3V11h1.3V9l2-1v3h1.9v1.9h-1.9V16c0,0.4,0.1,0.6,0.2,0.7
			c0.1,0.1,0.3,0.2,0.6,0.2c0.2,0,0.4,0,0.5-0.1c0.2-0.1,0.4-0.2,0.6-0.5L156.3,18.4z"/>
		<path id="XMLID_56_" class="st14" d="M169.9,16.6v2.1h-2v-2.1h-5.7v-1.9l5.5-6.4h2.2v6.3h1.4v1.9H169.9z M168,10.7
			c-0.1,0.1-0.2,0.3-0.4,0.5c-0.2,0.2-0.3,0.4-0.5,0.6l-1.5,1.7c-0.1,0.1-0.2,0.2-0.3,0.3c-0.1,0.1-0.2,0.2-0.3,0.3
			c-0.1,0.1-0.2,0.2-0.2,0.3c-0.1,0.1-0.1,0.2-0.2,0.2c0.1,0,0.2,0,0.4,0s0.4,0,0.6,0s0.4,0,0.6,0s0.4,0,0.5,0h1.3V13
			c0-0.1,0-0.3,0-0.5c0-0.2,0-0.4,0-0.7s0-0.4,0-0.6C168,11,168,10.8,168,10.7z"/>
		<path id="XMLID_54_" class="st14" d="M177,18.4c-0.2,0.1-0.4,0.3-0.7,0.3s-0.6,0.1-0.9,0.1c-0.3,0-0.6-0.1-0.9-0.2
			s-0.5-0.3-0.7-0.5s-0.3-0.5-0.4-0.7c-0.1-0.3-0.1-0.6-0.1-0.9v-3.7H172V11h1.3V9l2-1v3h1.9v1.9h-1.9V16c0,0.4,0.1,0.6,0.2,0.7
			c0.1,0.1,0.3,0.2,0.6,0.2c0.2,0,0.4,0,0.5-0.1c0.2-0.1,0.4-0.2,0.6-0.5L177,18.4z"/>
		<path id="XMLID_52_" class="st14" d="M183.9,18.7v-4.2c0-0.7-0.1-1.2-0.3-1.4c-0.2-0.3-0.6-0.4-1-0.4c-0.4,0-0.8,0.1-1,0.4
			c-0.2,0.3-0.3,0.7-0.3,1.4v4.3h-2V9l2-1v3.5c0.2-0.2,0.4-0.3,0.7-0.5c0.3-0.1,0.7-0.2,1.1-0.2c1,0,1.7,0.3,2.2,1
			c0.5,0.6,0.7,1.5,0.7,2.6v4.4H183.9z"/>
		<path id="XMLID_50_" class="st14" d="M189,20.6h-1.4l0.2-4.4h2.4L189,20.6z"/>
		<path id="XMLID_48_" class="st14" d="M199.6,18.7v-7.5h-1.8V9.7c0.6,0,1.1-0.2,1.4-0.4s0.6-0.5,0.7-1h1.7v10.4H199.6z"/>
		<path id="XMLID_46_" class="st14" d="M205.8,18.7c0-0.9,0.1-1.7,0.4-2.3c0.3-0.7,0.6-1.2,1-1.7c0.4-0.5,0.9-0.9,1.5-1.3
			c0.6-0.4,1.2-0.7,1.8-0.9c0.4-0.2,0.8-0.4,0.9-0.6c0.2-0.2,0.3-0.4,0.3-0.6c0-0.3-0.1-0.5-0.4-0.7s-0.7-0.3-1.3-0.3
			s-1.2,0.1-1.7,0.4c-0.5,0.2-0.9,0.5-1.3,0.9l-1.3-1.6c0.6-0.6,1.2-1,1.9-1.3c0.7-0.3,1.5-0.4,2.3-0.4c1.2,0,2.2,0.2,2.9,0.7
			c0.7,0.5,1,1.2,1,2.2c0,0.4-0.1,0.8-0.2,1.1s-0.3,0.6-0.5,0.8c-0.2,0.2-0.5,0.5-0.8,0.7c-0.3,0.2-0.7,0.4-1.2,0.6
			c-0.5,0.2-0.9,0.4-1.2,0.6c-0.3,0.2-0.6,0.4-0.8,0.6c-0.2,0.2-0.4,0.4-0.5,0.6c-0.1,0.2-0.2,0.4-0.3,0.6h5.5v2H205.8z"/>
		<path id="XMLID_44_" class="st14" d="M220.2,18.4c-0.2,0.1-0.4,0.3-0.7,0.3s-0.6,0.1-0.9,0.1c-0.3,0-0.6-0.1-0.9-0.2
			s-0.5-0.3-0.7-0.5s-0.3-0.5-0.4-0.7c-0.1-0.3-0.1-0.6-0.1-0.9v-3.7h-1.3V11h1.3V9l2-1v3h1.9v1.9h-1.9V16c0,0.4,0.1,0.6,0.2,0.7
			c0.1,0.1,0.3,0.2,0.6,0.2c0.2,0,0.4,0,0.5-0.1c0.2-0.1,0.4-0.2,0.6-0.5L220.2,18.4z"/>
		<path id="XMLID_42_" class="st14" d="M227.1,18.7v-4.2c0-0.7-0.1-1.2-0.3-1.4c-0.2-0.3-0.6-0.4-1-0.4c-0.4,0-0.8,0.1-1,0.4
			c-0.2,0.3-0.3,0.7-0.3,1.4v4.3h-2V9l2-1v3.5c0.2-0.2,0.4-0.3,0.7-0.5c0.3-0.1,0.7-0.2,1.1-0.2c1,0,1.7,0.3,2.2,1
			c0.5,0.6,0.7,1.5,0.7,2.6v4.4H227.1z"/>
		<path id="XMLID_40_" class="st14" d="M232.2,20.6h-1.4l0.2-4.4h2.4L232.2,20.6z"/>
		<path id="XMLID_37_" class="st14" d="M243.6,18.7v-0.5c-0.2,0.2-0.4,0.4-0.7,0.5c-0.3,0.1-0.6,0.2-1,0.2s-0.7-0.1-1.1-0.2
			c-0.3-0.1-0.7-0.3-0.9-0.5c-0.3-0.2-0.5-0.5-0.7-0.9c-0.2-0.3-0.3-0.8-0.3-1.2c0-0.4,0.1-0.8,0.2-1.1c0.2-0.3,0.4-0.6,0.7-0.8
			c0.3-0.2,0.6-0.4,1-0.5c0.4-0.1,0.8-0.2,1.2-0.2c0.4,0,0.7,0,0.9,0.1c0.2,0.1,0.4,0.1,0.6,0.2v-0.4c0-0.3-0.1-0.5-0.3-0.7
			c-0.2-0.2-0.5-0.3-0.8-0.3c-0.2,0-0.4,0-0.6,0s-0.4,0-0.5,0.1s-0.3,0.1-0.5,0.2c-0.2,0.1-0.3,0.1-0.5,0.2l-0.8-1.4
			c0.2-0.1,0.4-0.2,0.7-0.3c0.2-0.1,0.4-0.2,0.7-0.2c0.2-0.1,0.5-0.1,0.7-0.1c0.3,0,0.5-0.1,0.9-0.1c0.5,0,0.9,0.1,1.3,0.2
			c0.4,0.1,0.7,0.3,1,0.5s0.5,0.5,0.6,0.9c0.2,0.3,0.2,0.7,0.2,1.2v5.2H243.6z M243.6,15.5c-0.2-0.1-0.4-0.2-0.6-0.2
			s-0.5-0.1-0.9-0.1c-0.4,0-0.7,0.1-0.9,0.3c-0.2,0.2-0.3,0.4-0.3,0.7c0,0.3,0.1,0.5,0.3,0.7s0.5,0.3,0.9,0.3c0.3,0,0.6-0.1,0.9-0.2
			c0.3-0.1,0.4-0.3,0.5-0.5V15.5z"/>
		<path id="XMLID_35_" class="st14" d="M252.3,18.7v-4.2c0-0.7-0.1-1.2-0.3-1.4c-0.2-0.3-0.6-0.4-1-0.4c-0.4,0-0.8,0.1-1,0.4
			c-0.2,0.3-0.3,0.7-0.3,1.4v4.3h-2V11h2v0.5c0.2-0.2,0.4-0.3,0.7-0.5c0.3-0.1,0.7-0.2,1.1-0.2c1,0,1.7,0.3,2.2,1
			c0.5,0.6,0.7,1.5,0.7,2.6v4.4H252.3z"/>
		<path id="XMLID_32_" class="st14" d="M260.5,18.7v-0.5c-0.2,0.2-0.4,0.3-0.7,0.5c-0.3,0.1-0.6,0.2-1,0.2c-0.4,0-0.8-0.1-1.2-0.2
			c-0.4-0.2-0.7-0.4-1-0.7c-0.3-0.3-0.5-0.8-0.7-1.3c-0.2-0.5-0.2-1.1-0.2-1.9c0-0.6,0.1-1.1,0.2-1.6c0.1-0.5,0.3-0.9,0.6-1.3
			s0.6-0.6,0.9-0.8c0.4-0.2,0.8-0.3,1.3-0.3c0.3,0,0.7,0.1,0.9,0.2c0.3,0.1,0.5,0.3,0.7,0.4V9l2-1v10.8H260.5z M260.5,13.4
			c-0.3-0.4-0.8-0.7-1.4-0.7c-0.8,0-1.2,0.7-1.2,2c0,0.8,0.1,1.4,0.4,1.7c0.2,0.4,0.6,0.5,1,0.5c0.3,0,0.6-0.1,0.8-0.2
			c0.2-0.1,0.4-0.3,0.5-0.5V13.4z"/>
		<path id="XMLID_30_" class="st14" d="M268.6,18.7c0-0.9,0.1-1.7,0.4-2.3c0.3-0.7,0.6-1.2,1-1.7c0.4-0.5,0.9-0.9,1.5-1.3
			c0.6-0.4,1.2-0.7,1.8-0.9c0.4-0.2,0.8-0.4,0.9-0.6c0.2-0.2,0.3-0.4,0.3-0.6c0-0.3-0.1-0.5-0.4-0.7s-0.7-0.3-1.3-0.3
			s-1.2,0.1-1.7,0.4c-0.5,0.2-0.9,0.5-1.3,0.9l-1.3-1.6c0.6-0.6,1.2-1,1.9-1.3c0.7-0.3,1.5-0.4,2.3-0.4c1.2,0,2.2,0.2,2.9,0.7
			c0.7,0.5,1,1.2,1,2.2c0,0.4-0.1,0.8-0.2,1.1s-0.3,0.6-0.5,0.8c-0.2,0.2-0.5,0.5-0.8,0.7c-0.3,0.2-0.7,0.4-1.2,0.6
			c-0.5,0.2-0.9,0.4-1.2,0.6c-0.3,0.2-0.6,0.4-0.8,0.6c-0.2,0.2-0.4,0.4-0.5,0.6c-0.1,0.2-0.2,0.4-0.3,0.6h5.5v2H268.6z"/>
		<path id="XMLID_27_" class="st14" d="M286.8,15.4c0,0.6-0.1,1.1-0.3,1.5c-0.2,0.4-0.5,0.8-0.9,1.1c-0.4,0.3-0.9,0.5-1.4,0.7
			c-0.5,0.2-1.1,0.2-1.7,0.2c-0.6,0-1.1-0.1-1.6-0.2c-0.5-0.2-0.9-0.4-1.3-0.8c-0.4-0.3-0.7-0.8-0.9-1.3c-0.2-0.5-0.3-1.1-0.3-1.9
			c0-0.5,0-0.9,0.1-1.4s0.3-1,0.5-1.5c0.2-0.5,0.5-0.9,0.9-1.4c0.4-0.4,0.8-0.8,1.3-1.2c0.5-0.3,1.1-0.6,1.8-0.8
			c0.7-0.2,1.5-0.3,2.4-0.3v2c-1.2,0-2.2,0.2-2.9,0.6c-0.8,0.4-1.3,1-1.6,1.8c0.3-0.2,0.7-0.4,1-0.5c0.4-0.1,0.8-0.2,1.3-0.2
			c0.5,0,1,0.1,1.4,0.2s0.8,0.3,1.2,0.6c0.3,0.3,0.6,0.6,0.8,1C286.8,14.3,286.8,14.8,286.8,15.4z M284.7,15.4
			c0-0.5-0.2-0.9-0.5-1.2c-0.4-0.2-0.9-0.4-1.5-0.4c-0.7,0-1.2,0.1-1.6,0.4c-0.4,0.2-0.5,0.6-0.5,1.2c0,0.5,0.2,0.9,0.5,1.1
			c0.3,0.3,0.9,0.4,1.5,0.4c0.7,0,1.2-0.1,1.6-0.4C284.6,16.3,284.7,15.9,284.7,15.4z"/>
		<path id="XMLID_25_" class="st14" d="M292.8,18.4c-0.2,0.1-0.4,0.3-0.7,0.3s-0.6,0.1-0.9,0.1c-0.3,0-0.6-0.1-0.9-0.2
			s-0.5-0.3-0.7-0.5s-0.3-0.5-0.4-0.7c-0.1-0.3-0.1-0.6-0.1-0.9v-3.7h-1.3V11h1.3V9l2-1v3h1.9v1.9h-1.9V16c0,0.4,0.1,0.6,0.2,0.7
			c0.1,0.1,0.3,0.2,0.6,0.2c0.2,0,0.4,0,0.5-0.1c0.2-0.1,0.4-0.2,0.6-0.5L292.8,18.4z"/>
		<path id="XMLID_23_" class="st14" d="M299.7,18.7v-4.2c0-0.7-0.1-1.2-0.3-1.4c-0.2-0.3-0.6-0.4-1-0.4c-0.4,0-0.8,0.1-1,0.4
			c-0.2,0.3-0.3,0.7-0.3,1.4v4.3h-2V9l2-1v3.5c0.2-0.2,0.4-0.3,0.7-0.5c0.3-0.1,0.7-0.2,1.1-0.2c1,0,1.7,0.3,2.2,1
			c0.5,0.6,0.7,1.5,0.7,2.6v4.4H299.7z"/>
		<path id="XMLID_21_" class="st14" d="M315.4,18.7h-1.7l-0.8-3.1c0-0.1-0.1-0.3-0.1-0.5c0-0.2-0.1-0.4-0.1-0.5
			c0-0.2-0.1-0.3-0.1-0.5c0-0.1-0.1-0.3-0.1-0.4c0,0.1,0,0.2-0.1,0.4c0,0.1-0.1,0.3-0.1,0.5c0,0.2-0.1,0.3-0.1,0.5s-0.1,0.3-0.1,0.5
			l-0.8,3.1h-1.7l-2.2-7.8h2.1l0.7,2.9c0,0.1,0.1,0.3,0.1,0.5s0.1,0.3,0.1,0.5c0,0.2,0.1,0.3,0.1,0.5c0,0.1,0,0.3,0.1,0.3
			c0-0.2,0.1-0.5,0.2-0.8c0.1-0.3,0.2-0.7,0.2-1l0.8-2.9h1.7l0.8,2.9c0.1,0.3,0.2,0.6,0.2,1s0.1,0.6,0.2,0.8c0-0.1,0-0.2,0.1-0.3
			c0-0.1,0.1-0.3,0.1-0.5c0-0.2,0.1-0.3,0.1-0.5c0-0.2,0.1-0.3,0.1-0.5l0.7-2.9h2L315.4,18.7z"/>
		<path id="XMLID_18_" class="st14" d="M325.3,14.9c0,0.1,0,0.3,0,0.4c0,0.1,0,0.2,0,0.3h-4.7c0,0.3,0.1,0.5,0.2,0.7
			s0.2,0.3,0.4,0.5c0.1,0.1,0.3,0.2,0.5,0.3c0.2,0.1,0.4,0.1,0.6,0.1c0.3,0,0.5,0,0.8-0.1c0.2-0.1,0.4-0.2,0.6-0.4l1.5,1.2
			c-0.3,0.4-0.7,0.7-1.2,0.9c-0.5,0.2-1,0.3-1.5,0.3c-0.6,0-1.1-0.1-1.5-0.3s-0.8-0.5-1.1-0.8s-0.6-0.8-0.7-1.3
			c-0.2-0.5-0.3-1.1-0.3-1.7c0-0.6,0.1-1.1,0.3-1.6s0.4-0.9,0.7-1.3c0.3-0.4,0.7-0.6,1.1-0.8c0.4-0.2,0.9-0.3,1.4-0.3
			c0.5,0,1,0.1,1.4,0.3c0.4,0.2,0.8,0.5,1,0.9s0.5,0.8,0.6,1.3C325.2,13.8,325.3,14.3,325.3,14.9z M323.3,14c0-0.2-0.1-0.3-0.1-0.5
			c-0.1-0.2-0.1-0.3-0.3-0.4s-0.3-0.2-0.4-0.3s-0.4-0.1-0.6-0.1c-0.4,0-0.7,0.1-0.9,0.4c-0.2,0.3-0.3,0.6-0.4,1H323.3z"/>
		<path id="XMLID_15_" class="st14" d="M333.3,14.9c0,0.1,0,0.3,0,0.4c0,0.1,0,0.2,0,0.3h-4.7c0,0.3,0.1,0.5,0.2,0.7
			s0.2,0.3,0.4,0.5c0.1,0.1,0.3,0.2,0.5,0.3c0.2,0.1,0.4,0.1,0.6,0.1c0.3,0,0.5,0,0.8-0.1c0.2-0.1,0.4-0.2,0.6-0.4l1.5,1.2
			c-0.3,0.4-0.7,0.7-1.2,0.9c-0.5,0.2-1,0.3-1.5,0.3c-0.6,0-1.1-0.1-1.5-0.3s-0.8-0.5-1.1-0.8s-0.6-0.8-0.7-1.3
			c-0.2-0.5-0.3-1.1-0.3-1.7c0-0.6,0.1-1.1,0.3-1.6s0.4-0.9,0.7-1.3c0.3-0.4,0.7-0.6,1.1-0.8c0.4-0.2,0.9-0.3,1.4-0.3
			c0.5,0,1,0.1,1.4,0.3c0.4,0.2,0.8,0.5,1,0.9s0.5,0.8,0.6,1.3C333.2,13.8,333.3,14.3,333.3,14.9z M331.3,14c0-0.2-0.1-0.3-0.1-0.5
			c-0.1-0.2-0.1-0.3-0.3-0.4s-0.3-0.2-0.4-0.3s-0.4-0.1-0.6-0.1c-0.4,0-0.7,0.1-0.9,0.4c-0.2,0.3-0.3,0.6-0.4,1H331.3z"/>
		<path id="XMLID_13_" class="st14" d="M339.4,18.7l-1.5-3.6l-1,1.2v2.4h-2V9l2-1v4.1c0,0.1,0,0.3,0,0.4c0,0.2,0,0.3,0,0.5
			c0,0.2,0,0.3,0,0.4s0,0.3,0,0.4c0.1-0.2,0.2-0.3,0.4-0.6c0.2-0.2,0.3-0.4,0.4-0.6L339,11h2.4l-2,2.5l2.2,5.3H339.4z"/>
		<path id="XMLID_11_" class="st14" d="M349.2,16.5c0,0.4-0.1,0.8-0.3,1.1s-0.4,0.6-0.7,0.8c-0.3,0.2-0.6,0.3-1,0.4
			c-0.4,0.1-0.8,0.1-1.2,0.1c-0.6,0-1.2-0.1-1.8-0.2c-0.6-0.2-1.1-0.4-1.5-0.7l0.7-1.6c0.4,0.2,0.8,0.4,1.3,0.5
			c0.4,0.1,0.9,0.2,1.4,0.2c0.4,0,0.7,0,0.8-0.1c0.1-0.1,0.2-0.2,0.2-0.4c0-0.2-0.1-0.3-0.2-0.4c-0.2-0.1-0.5-0.2-0.9-0.4
			c-0.5-0.1-0.9-0.3-1.3-0.4c-0.4-0.1-0.7-0.3-1-0.5s-0.5-0.4-0.6-0.7c-0.1-0.3-0.2-0.6-0.2-1c0-0.4,0.1-0.8,0.2-1
			c0.2-0.3,0.4-0.5,0.6-0.7s0.6-0.3,1-0.4c0.4-0.1,0.8-0.1,1.3-0.1c0.5,0,1,0.1,1.5,0.2c0.5,0.1,1,0.3,1.4,0.5l-0.7,1.6
			c-0.4-0.2-0.8-0.4-1.2-0.5c-0.4-0.1-0.8-0.2-1.1-0.2c-0.4,0-0.7,0-0.8,0.1c-0.1,0.1-0.2,0.2-0.2,0.4c0,0.1,0,0.2,0.1,0.2
			c0,0.1,0.1,0.1,0.2,0.2c0.1,0.1,0.3,0.1,0.5,0.2c0.2,0.1,0.5,0.2,0.8,0.3c0.3,0.1,0.7,0.2,1,0.4c0.3,0.1,0.6,0.3,0.8,0.5
			c0.2,0.2,0.4,0.4,0.6,0.7C349.1,15.8,349.2,16.1,349.2,16.5z"/>
		<path id="XMLID_3_" class="st14" d="M353.4,17.5c0,0.2,0,0.4-0.1,0.5c-0.1,0.2-0.2,0.3-0.3,0.4c-0.1,0.1-0.3,0.2-0.4,0.3
			c-0.2,0.1-0.3,0.1-0.5,0.1c-0.2,0-0.4,0-0.5-0.1c-0.2-0.1-0.3-0.2-0.4-0.3c-0.1-0.1-0.2-0.3-0.3-0.4c-0.1-0.2-0.1-0.3-0.1-0.5
			c0-0.2,0-0.4,0.1-0.5s0.2-0.3,0.3-0.4c0.1-0.1,0.3-0.2,0.4-0.3c0.2-0.1,0.3-0.1,0.5-0.1c0.2,0,0.4,0,0.5,0.1
			c0.2,0.1,0.3,0.2,0.4,0.3c0.1,0.1,0.2,0.3,0.3,0.4C353.4,17.1,353.4,17.3,353.4,17.5z"/>
	</g>
</g>
</svg>
