<!-- Generator: Adobe Illustrator 22.1.0, SVG Export Plug-In  -->
<svg version="1.1"
	 xmlns="http://www.w3.org/2000/svg" xmlns:xlink="http://www.w3.org/1999/xlink" xmlns:a="http://ns.adobe.com/AdobeSVGViewerExtensions/3.0/"
	 x="0px" y="0px" width="822.4px" height="73.5px" viewBox="0 0 822.4 73.5" style="enable-background:new 0 0 822.4 73.5;"
	 xml:space="preserve">
<style type="text/css">
	.st0{fill:#266093;}
	.st1{fill:#532D6D;}
</style>
<defs>
</defs>
<g id="XMLID_1_">
	<g>
		<path id="XMLID_410_" class="st0" d="M13.4,12.3c0,0.8-0.1,1.5-0.4,2.2c-0.3,0.7-0.7,1.2-1.2,1.7c-0.5,0.5-1.2,0.8-2,1.1
			C9,17.5,8,17.6,6.9,17.6c-1.4,0-2.7-0.3-3.8-0.8s-2-1.3-2.7-2.2l2.4-2.1c0.6,0.7,1.2,1.2,2,1.5c0.7,0.3,1.5,0.4,2.3,0.4
			c1,0,1.7-0.1,2.2-0.4c0.5-0.3,0.7-0.7,0.7-1.4c0-0.3,0-0.5-0.1-0.7c-0.1-0.2-0.3-0.4-0.5-0.6C9,11.1,8.6,11,8.1,10.8
			c-0.5-0.2-1.1-0.3-1.9-0.5c-0.8-0.2-1.5-0.4-2.1-0.6C3.5,9.4,2.9,9.1,2.5,8.8C2,8.4,1.7,7.9,1.4,7.4C1.1,6.8,1,6.1,1,5.3
			c0-0.8,0.2-1.4,0.5-2.1c0.3-0.6,0.7-1.1,1.3-1.5c0.5-0.4,1.2-0.7,1.9-1C5.4,0.5,6.2,0.4,7,0.4c1.3,0,2.4,0.2,3.4,0.7
			c1,0.5,1.9,1.1,2.7,1.9l-2.4,2.3c-0.5-0.6-1.1-1-1.7-1.3C8.3,3.8,7.6,3.7,6.9,3.7c-0.4,0-0.8,0-1.1,0.1C5.4,3.9,5.2,4,5,4.1
			C4.8,4.3,4.7,4.5,4.6,4.6C4.5,4.8,4.5,5,4.5,5.2c0,0.3,0.1,0.5,0.2,0.7C4.7,6,4.9,6.2,5.2,6.3s0.6,0.3,1,0.4
			c0.4,0.1,1,0.3,1.6,0.4c0.7,0.2,1.3,0.3,2,0.6c0.7,0.2,1.3,0.5,1.8,0.9c0.5,0.4,1,0.9,1.3,1.5C13.3,10.7,13.4,11.4,13.4,12.3z"/>
		<path id="XMLID_408_" class="st0" d="M23.4,16.9c-0.3,0.2-0.6,0.4-1.1,0.5s-0.9,0.2-1.5,0.2s-1-0.1-1.4-0.3
			c-0.4-0.2-0.8-0.4-1-0.8c-0.3-0.3-0.5-0.7-0.7-1.2s-0.2-1-0.2-1.5V8h-2.1V4.9h2.1V1.6L20.8,0v4.9h3V8h-3v5c0,0.6,0.1,1,0.3,1.2
			c0.2,0.2,0.5,0.3,0.9,0.3c0.3,0,0.6-0.1,0.8-0.2c0.3-0.1,0.6-0.4,1-0.7L23.4,16.9z"/>
		<path id="XMLID_406_" class="st0" d="M34.4,17.4v-0.8c-0.3,0.3-0.7,0.6-1.2,0.8c-0.5,0.2-1.1,0.3-1.8,0.3c-1.6,0-2.8-0.5-3.5-1.5
			c-0.7-1-1.1-2.4-1.1-4.2V4.9h3.3v6.8c0,0.6,0,1,0.1,1.4s0.2,0.7,0.4,0.9c0.2,0.2,0.4,0.4,0.7,0.5c0.3,0.1,0.6,0.1,0.9,0.1
			c0.7,0,1.2-0.2,1.6-0.6c0.4-0.4,0.6-1.1,0.6-2.2V4.9h3.3v12.5H34.4z"/>
		<path id="XMLID_403_" class="st0" d="M47.7,17.4v-0.8c-0.3,0.3-0.7,0.5-1.1,0.7c-0.4,0.2-0.9,0.3-1.5,0.3c-0.7,0-1.3-0.1-1.9-0.4
			c-0.6-0.3-1.1-0.7-1.5-1.2c-0.4-0.5-0.8-1.2-1-2.1c-0.3-0.8-0.4-1.8-0.4-3c0-0.9,0.1-1.8,0.3-2.6c0.2-0.8,0.5-1.5,0.9-2
			c0.4-0.6,0.9-1,1.5-1.3c0.6-0.3,1.3-0.5,2.1-0.5c0.6,0,1.1,0.1,1.5,0.3c0.5,0.2,0.8,0.4,1.1,0.7V1.6L51,0v17.4H47.7z M47.7,8.8
			c-0.5-0.7-1.3-1.1-2.2-1.1c-1.3,0-2,1.1-2,3.2c0,1.3,0.2,2.2,0.6,2.8s0.9,0.9,1.6,0.9c0.5,0,0.9-0.1,1.2-0.3
			c0.3-0.2,0.6-0.4,0.8-0.8V8.8z"/>
		<path id="XMLID_401_" class="st0" d="M59.7,21.8h-3.2l1.7-4.4L53.3,4.9h3.6l2.1,6c0.2,0.5,0.3,1,0.5,1.5c0.1,0.5,0.3,0.9,0.3,1.2
			c0.1-0.3,0.2-0.7,0.3-1.2c0.1-0.5,0.3-1,0.5-1.5l2.1-6h3.5L59.7,21.8z"/>
		<path id="XMLID_398_" class="st0" d="M82.1,17.4v-0.8c-0.3,0.3-0.7,0.5-1.1,0.7c-0.4,0.2-0.9,0.3-1.5,0.3c-0.7,0-1.3-0.1-1.9-0.4
			C77,17,76.5,16.6,76,16.1c-0.4-0.5-0.8-1.2-1-2.1c-0.3-0.8-0.4-1.8-0.4-3c0-0.9,0.1-1.8,0.3-2.6c0.2-0.8,0.5-1.5,0.9-2
			c0.4-0.6,0.9-1,1.5-1.3c0.6-0.3,1.3-0.5,2.1-0.5c0.6,0,1.1,0.1,1.5,0.3c0.5,0.2,0.8,0.4,1.1,0.7V1.6L85.4,0v17.4H82.1z M82.1,8.8
			c-0.5-0.7-1.3-1.1-2.2-1.1c-1.3,0-2,1.1-2,3.2c0,1.3,0.2,2.2,0.6,2.8s0.9,0.9,1.6,0.9c0.5,0,0.9-0.1,1.2-0.3
			c0.3-0.2,0.6-0.4,0.8-0.8V8.8z"/>
		<path id="XMLID_395_" class="st0" d="M98.9,11.1c0,0.2,0,0.4,0,0.6s0,0.3,0,0.4h-7.5c0,0.4,0.1,0.8,0.3,1.1s0.4,0.5,0.6,0.7
			c0.2,0.2,0.5,0.3,0.8,0.4c0.3,0.1,0.6,0.1,0.9,0.1c0.5,0,0.9-0.1,1.2-0.2c0.4-0.2,0.7-0.4,0.9-0.6l2.3,2c-0.5,0.7-1.2,1.2-2,1.5
			c-0.8,0.3-1.6,0.5-2.5,0.5c-0.9,0-1.7-0.2-2.4-0.5c-0.7-0.3-1.3-0.7-1.8-1.3c-0.5-0.6-0.9-1.2-1.2-2.1C88.1,13,88,12.1,88,11.1
			c0-1,0.1-1.8,0.4-2.6s0.7-1.5,1.2-2.1c0.5-0.6,1.1-1,1.8-1.3c0.7-0.3,1.4-0.5,2.2-0.5c0.8,0,1.6,0.2,2.2,0.5
			c0.7,0.3,1.2,0.8,1.7,1.4c0.4,0.6,0.8,1.3,1,2.1C98.7,9.4,98.9,10.2,98.9,11.1z M95.7,9.7c0-0.3-0.1-0.6-0.2-0.8S95.2,8.4,95,8.2
			c-0.2-0.2-0.4-0.4-0.7-0.5c-0.3-0.1-0.6-0.2-1-0.2c-0.6,0-1.1,0.2-1.4,0.6s-0.6,1-0.6,1.6H95.7z"/>
		<path id="XMLID_393_" class="st0" d="M111.4,13.7c0,0.7-0.1,1.3-0.4,1.8c-0.3,0.5-0.6,0.9-1.1,1.2c-0.5,0.3-1,0.5-1.6,0.7
			s-1.3,0.2-2,0.2c-1,0-2-0.1-2.9-0.4c-0.9-0.3-1.7-0.6-2.4-1.1l1.1-2.5c0.7,0.4,1.4,0.6,2.1,0.8c0.7,0.2,1.5,0.3,2.3,0.3
			c0.7,0,1.1-0.1,1.3-0.2c0.2-0.2,0.3-0.4,0.3-0.7c0-0.3-0.1-0.5-0.4-0.7c-0.3-0.2-0.7-0.4-1.4-0.6c-0.7-0.2-1.4-0.4-2-0.7
			c-0.6-0.2-1.1-0.5-1.6-0.8c-0.4-0.3-0.8-0.7-1-1.1s-0.3-1-0.3-1.7c0-0.7,0.1-1.2,0.4-1.7s0.6-0.9,1-1.2c0.4-0.3,1-0.5,1.6-0.7
			s1.3-0.2,2-0.2c0.8,0,1.6,0.1,2.4,0.3c0.8,0.2,1.6,0.5,2.2,0.9l-1,2.6c-0.6-0.3-1.3-0.6-1.9-0.8c-0.6-0.2-1.2-0.3-1.8-0.3
			c-0.7,0-1.1,0.1-1.3,0.2c-0.2,0.1-0.3,0.3-0.3,0.6c0,0.1,0,0.2,0.1,0.3c0.1,0.1,0.2,0.2,0.4,0.3c0.2,0.1,0.4,0.2,0.8,0.3
			c0.3,0.1,0.8,0.3,1.3,0.5c0.6,0.2,1.1,0.4,1.6,0.6s1,0.5,1.3,0.8c0.4,0.3,0.7,0.7,0.9,1.1C111.3,12.6,111.4,13.1,111.4,13.7z"/>
		<path id="XMLID_390_" class="st0" d="M117.9,2c0,0.5-0.2,0.9-0.6,1.3c-0.4,0.4-0.8,0.6-1.3,0.6s-1-0.2-1.3-0.6
			c-0.4-0.4-0.6-0.8-0.6-1.3s0.2-0.9,0.6-1.3c0.4-0.4,0.8-0.6,1.3-0.6s0.9,0.2,1.3,0.6C117.7,1,117.9,1.4,117.9,2z M114.4,17.4V4.9
			h3.3v12.5H114.4z"/>
		<path id="XMLID_387_" class="st0" d="M131.2,15.3c0,1-0.1,1.9-0.2,2.7c-0.2,0.8-0.4,1.5-0.8,2s-0.9,1-1.6,1.3
			c-0.7,0.3-1.6,0.6-2.7,0.7l-1.2-2.5c0.6-0.1,1.2-0.2,1.6-0.3c0.4-0.1,0.8-0.3,1-0.5s0.4-0.5,0.5-0.8c0.1-0.3,0.1-0.7,0.1-1.2
			c-0.3,0.3-0.7,0.5-1.1,0.7c-0.4,0.2-0.9,0.3-1.5,0.3c-0.7,0-1.3-0.1-1.9-0.4c-0.6-0.3-1.1-0.7-1.5-1.2c-0.4-0.5-0.8-1.2-1-2.1
			c-0.3-0.8-0.4-1.8-0.4-3c0-0.9,0.1-1.8,0.3-2.6c0.2-0.8,0.5-1.5,0.9-2c0.4-0.6,0.9-1,1.5-1.3c0.6-0.3,1.3-0.5,2.1-0.5
			c0.6,0,1.1,0.1,1.5,0.3c0.5,0.2,0.8,0.4,1.1,0.7V4.9h3.3V15.3z M127.9,8.8c-0.5-0.7-1.3-1.1-2.2-1.1c-1.3,0-2,1.1-2,3.2
			c0,1.3,0.2,2.2,0.6,2.8s0.9,0.9,1.6,0.9c0.5,0,0.9-0.1,1.2-0.3c0.3-0.2,0.6-0.4,0.8-0.8V8.8z"/>
		<path id="XMLID_385_" class="st0" d="M142,17.4v-6.8c0-1.1-0.2-1.9-0.5-2.3c-0.4-0.4-0.9-0.6-1.6-0.6s-1.2,0.2-1.6,0.6
			s-0.6,1.1-0.6,2.2v6.8h-3.3V4.9h3.3v0.8c0.3-0.3,0.7-0.6,1.2-0.8c0.5-0.2,1.1-0.3,1.8-0.3c1.6,0,2.8,0.5,3.5,1.5s1.1,2.4,1.1,4.2
			v7.1H142z"/>
		<path id="XMLID_382_" class="st0" d="M152.2,6.8c0,0.3-0.1,0.6-0.2,0.9s-0.3,0.5-0.5,0.7s-0.4,0.4-0.7,0.5
			c-0.3,0.1-0.6,0.2-0.9,0.2c-0.3,0-0.6-0.1-0.9-0.2c-0.3-0.1-0.5-0.3-0.7-0.5S148,8,147.9,7.7s-0.2-0.6-0.2-0.9s0.1-0.6,0.2-0.9
			s0.3-0.5,0.5-0.7s0.4-0.4,0.7-0.5c0.3-0.1,0.6-0.2,0.9-0.2c0.3,0,0.6,0.1,0.9,0.2c0.3,0.1,0.5,0.3,0.7,0.5s0.4,0.4,0.5,0.7
			S152.2,6.5,152.2,6.8z M152.2,15.4c0,0.3-0.1,0.6-0.2,0.9c-0.1,0.3-0.3,0.5-0.5,0.7s-0.4,0.4-0.7,0.5c-0.3,0.1-0.6,0.2-0.9,0.2
			c-0.3,0-0.6-0.1-0.9-0.2c-0.3-0.1-0.5-0.3-0.7-0.5s-0.4-0.4-0.5-0.7c-0.1-0.3-0.2-0.6-0.2-0.9c0-0.3,0.1-0.6,0.2-0.9
			c0.1-0.3,0.3-0.5,0.5-0.7s0.4-0.4,0.7-0.5c0.3-0.1,0.6-0.2,0.9-0.2c0.3,0,0.6,0.1,0.9,0.2c0.3,0.1,0.5,0.3,0.7,0.5
			s0.4,0.4,0.5,0.7C152.2,14.8,152.2,15.1,152.2,15.4z"/>
		<path id="XMLID_380_" class="st1" d="M162.8,17.4V4.9H160V3.8c0.9-0.1,1.6-0.2,2.2-0.5s0.9-0.8,1.1-1.5h1.3v15.6H162.8z"/>
		<path id="XMLID_377_" class="st1" d="M177.4,13.7v3.7h-1.6v-3.7h-8.3v-1.4l8.1-10.5h1.9v10.4h2.1v1.5H177.4z M175.8,5.3V3.9
			c-0.1,0.2-0.3,0.4-0.4,0.6s-0.4,0.5-0.6,0.7c-0.2,0.3-0.4,0.5-0.6,0.8s-0.4,0.5-0.6,0.8l-2.1,2.7c-0.2,0.2-0.3,0.4-0.5,0.7
			c-0.2,0.2-0.4,0.5-0.6,0.7c-0.2,0.2-0.4,0.5-0.6,0.7c-0.2,0.2-0.3,0.4-0.5,0.6h1.4h5V5.3z"/>
		<path id="XMLID_375_" class="st1" d="M181.4,17.4c0-1,0.2-1.8,0.4-2.6c0.3-0.7,0.6-1.4,1-2c0.4-0.6,0.9-1.1,1.5-1.6
			c0.6-0.5,1.3-1,2-1.5c0.7-0.5,1.2-0.9,1.7-1.2c0.4-0.3,0.8-0.7,1-1s0.4-0.6,0.5-0.9c0.1-0.3,0.1-0.6,0.1-1c0-0.8-0.3-1.4-0.8-1.9
			c-0.6-0.5-1.3-0.7-2.4-0.7c-0.9,0-1.6,0.1-2.2,0.4s-1.1,0.6-1.6,1l-1-1.3c0.3-0.3,0.6-0.5,1-0.7c0.3-0.2,0.7-0.4,1.1-0.6
			c0.4-0.2,0.8-0.3,1.3-0.4c0.5-0.1,1-0.1,1.5-0.1c0.7,0,1.3,0.1,1.9,0.2c0.6,0.2,1.1,0.4,1.5,0.7c0.4,0.3,0.8,0.8,1,1.3
			s0.4,1.1,0.4,1.8c0,0.6-0.1,1.1-0.2,1.5c-0.1,0.4-0.4,0.8-0.7,1.2c-0.3,0.4-0.7,0.8-1.2,1.1c-0.5,0.4-1.1,0.8-1.8,1.3
			c-0.8,0.5-1.4,1-2,1.4c-0.5,0.4-0.9,0.8-1.2,1.2s-0.5,0.8-0.7,1.1s-0.3,0.8-0.3,1.2h8.3v1.6H181.4z"/>
		<path id="XMLID_373_" class="st1" d="M194.1,17.4c0-1,0.2-1.8,0.4-2.6c0.3-0.7,0.6-1.4,1-2c0.4-0.6,0.9-1.1,1.5-1.6
			c0.6-0.5,1.3-1,2-1.5c0.7-0.5,1.2-0.9,1.7-1.2c0.4-0.3,0.8-0.7,1-1s0.4-0.6,0.5-0.9c0.1-0.3,0.1-0.6,0.1-1c0-0.8-0.3-1.4-0.8-1.9
			c-0.6-0.5-1.3-0.7-2.4-0.7c-0.9,0-1.6,0.1-2.2,0.4s-1.1,0.6-1.6,1l-1-1.3c0.3-0.3,0.6-0.5,1-0.7c0.3-0.2,0.7-0.4,1.1-0.6
			c0.4-0.2,0.8-0.3,1.3-0.4c0.5-0.1,1-0.1,1.5-0.1c0.7,0,1.3,0.1,1.9,0.2c0.6,0.2,1.1,0.4,1.5,0.7c0.4,0.3,0.8,0.8,1,1.3
			s0.4,1.1,0.4,1.8c0,0.6-0.1,1.1-0.2,1.5c-0.1,0.4-0.4,0.8-0.7,1.2c-0.3,0.4-0.7,0.8-1.2,1.1c-0.5,0.4-1.1,0.8-1.8,1.3
			c-0.8,0.5-1.4,1-2,1.4c-0.5,0.4-0.9,0.8-1.2,1.2s-0.5,0.8-0.7,1.1s-0.3,0.8-0.3,1.2h8.3v1.6H194.1z"/>
		<path id="XMLID_370_" class="st1" d="M223,11.3c0,1-0.1,2-0.3,2.7s-0.5,1.4-0.9,2c-0.4,0.5-0.9,0.9-1.4,1.2
			c-0.5,0.3-1.1,0.4-1.7,0.4c-0.7,0-1.4-0.1-1.9-0.4s-1-0.7-1.4-1.1v4.7l-1.7,0.9v-16h1.7l0,1.4c0.4-0.4,0.9-0.8,1.5-1.2
			c0.6-0.3,1.2-0.5,2.1-0.5c0.6,0,1.1,0.1,1.6,0.3c0.5,0.2,1,0.6,1.3,1.1s0.7,1.1,0.9,1.8C222.9,9.4,223,10.3,223,11.3z M221.3,11.4
			c0-1.5-0.3-2.6-0.8-3.4c-0.5-0.8-1.2-1.1-2.2-1.1c-0.6,0-1.2,0.2-1.7,0.5s-1,0.7-1.4,1.2v5.9c0.3,0.5,0.8,0.9,1.3,1.3
			c0.5,0.3,1.2,0.5,1.9,0.5c1,0,1.7-0.4,2.2-1.2S221.3,12.9,221.3,11.4z"/>
		<path id="XMLID_367_" class="st1" d="M232.8,17.4V16c-0.4,0.4-0.9,0.8-1.5,1.2c-0.6,0.3-1.3,0.5-2.2,0.5c-0.5,0-0.9-0.1-1.4-0.2
			c-0.4-0.1-0.8-0.3-1.2-0.6c-0.4-0.3-0.6-0.7-0.9-1.1c-0.2-0.5-0.3-1.1-0.3-1.8c0-0.7,0.1-1.2,0.4-1.7s0.6-0.9,1-1.2
			c0.4-0.3,0.9-0.5,1.4-0.7c0.5-0.1,1.1-0.2,1.7-0.2c0.6,0,1.1,0.1,1.6,0.2c0.5,0.1,0.9,0.3,1.3,0.5V9.4c0-1.7-0.8-2.6-2.5-2.6
			c-0.6,0-1.2,0.1-1.7,0.2c-0.5,0.2-1,0.4-1.5,0.7l-0.6-1.4c0.5-0.3,1.1-0.5,1.8-0.7s1.4-0.3,2.1-0.3c1.3,0,2.3,0.3,3,0.9
			c0.7,0.6,1.1,1.6,1.1,2.9v8.2H232.8z M232.8,12.1c-0.4-0.2-0.8-0.4-1.3-0.5c-0.5-0.1-1-0.2-1.7-0.2c-0.9,0-1.5,0.2-2,0.6
			c-0.5,0.4-0.7,1-0.7,1.7c0,0.9,0.2,1.5,0.7,1.9c0.4,0.4,1,0.6,1.7,0.6c0.8,0,1.4-0.2,2-0.5c0.6-0.3,1-0.8,1.4-1.2V12.1z"/>
		<path id="XMLID_365_" class="st1" d="M240.2,7.1v7.6c0,0.5,0.1,0.9,0.3,1.1s0.5,0.3,0.9,0.3c0.3,0,0.6,0,0.9-0.1
			c0.2-0.1,0.5-0.1,0.8-0.3l-0.1,1.4c-0.3,0.1-0.7,0.2-1,0.3s-0.7,0.1-1.2,0.1c-0.7,0-1.3-0.2-1.7-0.6s-0.6-1.1-0.6-2.1V7.1h-1.4
			V5.7h1.4V2.1l1.7-0.9v4.5h2.9v1.4H240.2z"/>
		<path id="XMLID_362_" class="st1" d="M248.5,2.4c0,0.3-0.1,0.6-0.3,0.8s-0.5,0.3-0.8,0.3c-0.3,0-0.6-0.1-0.9-0.3
			c-0.2-0.2-0.4-0.5-0.4-0.8c0-0.3,0.1-0.6,0.4-0.9c0.2-0.2,0.5-0.3,0.9-0.3c0.3,0,0.6,0.1,0.8,0.3S248.5,2.1,248.5,2.4z
			 M246.5,17.4V5.7h1.7v11.7H246.5z"/>
		<path id="XMLID_359_" class="st1" d="M260.8,11.2c0,0.2,0,0.4,0,0.5s0,0.3-0.1,0.4H253c0.1,1.3,0.4,2.3,1,3
			c0.6,0.7,1.3,1.1,2.3,1.1c0.7,0,1.3-0.1,1.7-0.3c0.5-0.2,1-0.5,1.5-0.8l0.8,1.2c-0.4,0.2-0.7,0.4-1,0.6c-0.3,0.2-0.6,0.3-1,0.4
			c-0.3,0.1-0.7,0.2-1,0.3c-0.4,0.1-0.8,0.1-1.2,0.1c-0.5,0-1.1-0.1-1.6-0.3s-1.1-0.6-1.5-1c-0.5-0.5-0.8-1.1-1.1-1.9
			s-0.5-1.8-0.5-2.9c0-0.9,0.1-1.8,0.4-2.5s0.6-1.4,1-1.9c0.4-0.5,0.9-0.9,1.5-1.2s1.2-0.4,1.9-0.4c0.8,0,1.4,0.1,2,0.4
			s1.1,0.7,1.5,1.2s0.7,1.1,0.9,1.8C260.7,9.6,260.8,10.4,260.8,11.2z M259.3,10.7c-0.1-1.2-0.4-2.1-0.9-2.8
			c-0.5-0.7-1.3-1.1-2.3-1.1c-0.9,0-1.6,0.3-2.1,1c-0.6,0.6-0.9,1.6-1,2.9H259.3z"/>
		<path id="XMLID_357_" class="st1" d="M271.3,17.4v-6.9c0-1.3-0.2-2.2-0.7-2.8s-1.1-0.9-2.1-0.9c-0.8,0-1.5,0.3-2.1,0.9
			c-0.6,0.6-0.8,1.5-0.8,2.8v6.9H264V5.7h1.7l0,1.4c0.3-0.5,0.8-0.9,1.3-1.2s1.2-0.5,1.9-0.5c0.6,0,1.2,0.1,1.7,0.3
			c0.5,0.2,0.9,0.5,1.3,0.9s0.6,0.9,0.8,1.5c0.2,0.6,0.3,1.3,0.3,2.2v7.1H271.3z"/>
		<path id="XMLID_355_" class="st1" d="M278.8,7.1v7.6c0,0.5,0.1,0.9,0.3,1.1s0.5,0.3,0.9,0.3c0.3,0,0.6,0,0.9-0.1
			c0.2-0.1,0.5-0.1,0.8-0.3l-0.1,1.4c-0.3,0.1-0.7,0.2-1,0.3s-0.7,0.1-1.2,0.1c-0.7,0-1.3-0.2-1.7-0.6s-0.6-1.1-0.6-2.1V7.1h-1.4
			V5.7h1.4V2.1l1.7-0.9v4.5h2.9v1.4H278.8z"/>
		<path id="XMLID_353_" class="st1" d="M292.2,14.3c0,0.6-0.1,1.1-0.3,1.5c-0.2,0.4-0.5,0.8-0.9,1s-0.8,0.5-1.3,0.6
			c-0.5,0.1-1,0.2-1.5,0.2c-0.8,0-1.5-0.1-2.2-0.4c-0.7-0.3-1.3-0.6-1.9-1.1l1-1.2c0.5,0.4,1,0.7,1.5,1c0.5,0.2,1.1,0.3,1.7,0.3
			c0.8,0,1.4-0.2,1.8-0.5c0.4-0.3,0.6-0.8,0.6-1.3c0-0.2,0-0.5-0.1-0.6c-0.1-0.2-0.3-0.4-0.5-0.6c-0.2-0.2-0.5-0.4-0.8-0.6
			c-0.3-0.2-0.8-0.4-1.3-0.6c-0.6-0.3-1.1-0.5-1.5-0.7c-0.4-0.2-0.8-0.5-1-0.7s-0.5-0.6-0.6-0.9s-0.2-0.7-0.2-1.2
			c0-0.4,0.1-0.9,0.3-1.2c0.2-0.4,0.4-0.7,0.8-0.9c0.3-0.3,0.7-0.5,1.1-0.6c0.4-0.1,0.9-0.2,1.5-0.2c0.8,0,1.5,0.1,2.1,0.3
			c0.6,0.2,1.2,0.5,1.6,0.9l-0.9,1.2c-0.5-0.4-0.9-0.6-1.3-0.8c-0.4-0.2-1-0.3-1.6-0.3c-0.6,0-1.1,0.1-1.4,0.4
			c-0.3,0.3-0.5,0.6-0.5,1c0,0.3,0,0.5,0.1,0.6s0.2,0.4,0.4,0.5c0.2,0.2,0.5,0.3,0.8,0.5c0.3,0.2,0.7,0.4,1.2,0.6
			c0.5,0.3,1,0.5,1.5,0.7c0.4,0.2,0.8,0.5,1.1,0.7s0.5,0.6,0.7,1C292.1,13.4,292.2,13.8,292.2,14.3z"/>
		<path id="XMLID_351_" class="st1" d="M311.4,17.4h-1.5l-2.1-7.8c0-0.1-0.1-0.2-0.1-0.4c0-0.1-0.1-0.3-0.1-0.4
			c0-0.2-0.1-0.3-0.1-0.5c0-0.1-0.1-0.3-0.1-0.4c0,0.1,0,0.2-0.1,0.4c0,0.1-0.1,0.3-0.1,0.5c0,0.2-0.1,0.3-0.1,0.4
			c0,0.1-0.1,0.3-0.1,0.4l-2.1,7.8h-1.5l-3.1-11.7h1.7l1.8,7.7c0,0.1,0,0.2,0.1,0.4c0,0.1,0.1,0.3,0.1,0.4c0,0.2,0.1,0.3,0.1,0.5
			s0,0.3,0.1,0.4c0-0.1,0-0.2,0.1-0.4c0-0.1,0.1-0.3,0.1-0.5c0-0.2,0.1-0.3,0.1-0.4s0.1-0.3,0.1-0.4l2.1-7.7h1.5l2.1,7.7
			c0,0.1,0.1,0.2,0.1,0.4s0.1,0.3,0.1,0.4c0,0.2,0.1,0.3,0.1,0.5c0,0.1,0.1,0.3,0.1,0.4c0-0.1,0-0.2,0.1-0.4c0-0.1,0.1-0.3,0.1-0.5
			s0.1-0.3,0.1-0.4s0-0.3,0.1-0.4l1.8-7.7h1.7L311.4,17.4z"/>
		<path id="XMLID_348_" class="st1" d="M319.5,2.4c0,0.3-0.1,0.6-0.3,0.8s-0.5,0.3-0.8,0.3c-0.3,0-0.6-0.1-0.9-0.3
			c-0.2-0.2-0.4-0.5-0.4-0.8c0-0.3,0.1-0.6,0.4-0.9c0.2-0.2,0.5-0.3,0.9-0.3c0.3,0,0.6,0.1,0.8,0.3S319.5,2.1,319.5,2.4z
			 M317.5,17.4V5.7h1.7v11.7H317.5z"/>
		<path id="XMLID_346_" class="st1" d="M325.2,7.1v7.6c0,0.5,0.1,0.9,0.3,1.1s0.5,0.3,0.9,0.3c0.3,0,0.6,0,0.9-0.1
			c0.2-0.1,0.5-0.1,0.8-0.3l-0.1,1.4c-0.3,0.1-0.7,0.2-1,0.3s-0.7,0.1-1.2,0.1c-0.7,0-1.3-0.2-1.7-0.6s-0.6-1.1-0.6-2.1V7.1H322V5.7
			h1.4V2.1l1.7-0.9v4.5h2.9v1.4H325.2z"/>
		<path id="XMLID_344_" class="st1" d="M338.6,17.4v-6.9c0-1.3-0.2-2.2-0.7-2.8s-1.1-0.9-2.1-0.9c-0.8,0-1.5,0.3-2.1,0.9
			c-0.6,0.6-0.8,1.5-0.8,2.8v6.9h-1.7V2.1l1.7-0.9l0,6c0.3-0.5,0.8-0.9,1.3-1.2s1.2-0.5,1.9-0.5c0.6,0,1.2,0.1,1.7,0.3
			c0.5,0.2,0.9,0.5,1.3,0.9s0.6,0.9,0.8,1.5c0.2,0.6,0.3,1.3,0.3,2.2v7.1H338.6z"/>
		<path id="XMLID_342_" class="st1" d="M355.7,7.4c-0.2-0.1-0.5-0.2-0.8-0.3C354.7,7,354.3,7,354,7c-0.8,0-1.4,0.3-1.9,0.9
			s-0.7,1.5-0.7,2.6v6.9h-1.7V5.7h1.7v1.4c0.3-0.5,0.7-0.9,1.2-1.2c0.5-0.3,1.1-0.5,1.7-0.5c0.4,0,0.8,0,1.1,0.1
			c0.3,0.1,0.5,0.1,0.7,0.2L355.7,7.4z"/>
		<path id="XMLID_339_" class="st1" d="M367.7,11.2c0,0.2,0,0.4,0,0.5s0,0.3-0.1,0.4h-7.8c0.1,1.3,0.4,2.3,1,3
			c0.6,0.7,1.3,1.1,2.3,1.1c0.7,0,1.3-0.1,1.7-0.3c0.5-0.2,1-0.5,1.5-0.8l0.8,1.2c-0.4,0.2-0.7,0.4-1,0.6c-0.3,0.2-0.6,0.3-1,0.4
			c-0.3,0.1-0.7,0.2-1,0.3c-0.4,0.1-0.8,0.1-1.2,0.1c-0.5,0-1.1-0.1-1.6-0.3s-1.1-0.6-1.5-1c-0.5-0.5-0.8-1.1-1.1-1.9
			s-0.5-1.8-0.5-2.9c0-0.9,0.1-1.8,0.4-2.5s0.6-1.4,1-1.9c0.4-0.5,0.9-0.9,1.5-1.2s1.2-0.4,1.9-0.4c0.8,0,1.4,0.1,2,0.4
			s1.1,0.7,1.5,1.2s0.7,1.1,0.9,1.8C367.6,9.6,367.7,10.4,367.7,11.2z M366.1,10.7c-0.1-1.2-0.4-2.1-0.9-2.8
			c-0.5-0.7-1.3-1.1-2.3-1.1c-0.9,0-1.6,0.3-2.1,1c-0.6,0.6-0.9,1.6-1,2.9H366.1z"/>
		<path id="XMLID_337_" class="st1" d="M374.5,2.7c-0.3,0-0.6,0.1-0.9,0.2s-0.3,0.5-0.3,1v1.7h2.3v1.4h-2.3v10.3h-1.7V7.1H370V5.7
			h1.6V4.1c0-1,0.3-1.8,0.8-2.2c0.5-0.4,1.2-0.7,2-0.7c0.3,0,0.6,0,0.8,0c0.2,0,0.4,0.1,0.6,0.2V3C375.5,2.8,375,2.7,374.5,2.7z"/>
		<path id="XMLID_335_" class="st1" d="M384.8,7.4c-0.2-0.1-0.5-0.2-0.8-0.3C383.7,7,383.4,7,383,7c-0.8,0-1.4,0.3-1.9,0.9
			s-0.7,1.5-0.7,2.6v6.9h-1.7V5.7h1.7v1.4c0.3-0.5,0.7-0.9,1.2-1.2c0.5-0.3,1.1-0.5,1.7-0.5c0.4,0,0.8,0,1.1,0.1
			c0.3,0.1,0.5,0.1,0.7,0.2L384.8,7.4z"/>
		<path id="XMLID_332_" class="st1" d="M394.5,17.4V16c-0.4,0.4-0.9,0.8-1.5,1.2c-0.6,0.3-1.3,0.5-2.2,0.5c-0.5,0-0.9-0.1-1.4-0.2
			c-0.4-0.1-0.8-0.3-1.2-0.6c-0.4-0.3-0.6-0.7-0.9-1.1c-0.2-0.5-0.3-1.1-0.3-1.8c0-0.7,0.1-1.2,0.4-1.7s0.6-0.9,1-1.2
			c0.4-0.3,0.9-0.5,1.4-0.7c0.5-0.1,1.1-0.2,1.7-0.2c0.6,0,1.1,0.1,1.6,0.2c0.5,0.1,0.9,0.3,1.3,0.5V9.4c0-1.7-0.8-2.6-2.5-2.6
			c-0.6,0-1.2,0.1-1.7,0.2c-0.5,0.2-1,0.4-1.5,0.7l-0.6-1.4c0.5-0.3,1.1-0.5,1.8-0.7s1.4-0.3,2.1-0.3c1.3,0,2.3,0.3,3,0.9
			c0.7,0.6,1.1,1.6,1.1,2.9v8.2H394.5z M394.5,12.1c-0.4-0.2-0.8-0.4-1.3-0.5c-0.5-0.1-1-0.2-1.7-0.2c-0.9,0-1.5,0.2-2,0.6
			c-0.5,0.4-0.7,1-0.7,1.7c0,0.9,0.2,1.5,0.7,1.9c0.4,0.4,1,0.6,1.7,0.6c0.8,0,1.4-0.2,2-0.5c0.6-0.3,1-0.8,1.4-1.2V12.1z"/>
		<path id="XMLID_330_" class="st1" d="M407,8c-0.4-0.4-0.9-0.7-1.3-0.9s-0.9-0.3-1.5-0.3c-0.5,0-0.9,0.1-1.3,0.3
			c-0.4,0.2-0.7,0.5-1,0.9c-0.3,0.4-0.5,0.9-0.7,1.4c-0.2,0.6-0.2,1.2-0.2,1.9c0,1.4,0.3,2.6,0.9,3.5c0.6,0.9,1.4,1.3,2.4,1.3
			c0.6,0,1.1-0.1,1.5-0.3c0.4-0.2,0.8-0.5,1.2-0.9l1,1.1c-0.5,0.5-1,0.9-1.6,1.2c-0.6,0.3-1.3,0.4-2.1,0.4c-0.6,0-1.3-0.1-1.8-0.4
			c-0.6-0.2-1.1-0.6-1.6-1.1c-0.5-0.5-0.8-1.1-1.1-1.9c-0.3-0.8-0.4-1.6-0.4-2.7c0-1.1,0.1-2,0.4-2.8c0.3-0.8,0.7-1.4,1.2-1.9
			s1-0.9,1.6-1.1s1.2-0.4,1.8-0.4c0.8,0,1.5,0.1,2.1,0.4c0.6,0.3,1.1,0.6,1.6,1L407,8z"/>
		<path id="XMLID_328_" class="st1" d="M413,7.1v7.6c0,0.5,0.1,0.9,0.3,1.1s0.5,0.3,0.9,0.3c0.3,0,0.6,0,0.9-0.1
			c0.2-0.1,0.5-0.1,0.8-0.3l-0.1,1.4c-0.3,0.1-0.7,0.2-1,0.3s-0.7,0.1-1.2,0.1c-0.7,0-1.3-0.2-1.7-0.6s-0.6-1.1-0.6-2.1V7.1h-1.4
			V5.7h1.4V2.1l1.7-0.9v4.5h2.9v1.4H413z"/>
		<path id="XMLID_325_" class="st1" d="M428.7,11.5c0,1-0.1,1.9-0.4,2.6c-0.3,0.8-0.6,1.4-1.1,1.9c-0.5,0.5-1,0.9-1.6,1.2
			c-0.6,0.3-1.3,0.4-2,0.4s-1.4-0.1-2-0.4s-1.2-0.6-1.6-1.2c-0.4-0.5-0.8-1.1-1.1-1.9c-0.3-0.8-0.4-1.6-0.4-2.6s0.1-1.9,0.4-2.6
			c0.3-0.8,0.6-1.4,1.1-1.9s1-0.9,1.6-1.2c0.6-0.3,1.3-0.4,2-0.4s1.4,0.1,2,0.4c0.6,0.3,1.2,0.6,1.6,1.1c0.4,0.5,0.8,1.1,1.1,1.9
			S428.7,10.5,428.7,11.5z M427,11.5c0-1.6-0.3-2.7-0.9-3.5s-1.4-1.2-2.5-1.2s-1.8,0.4-2.5,1.2c-0.6,0.8-0.9,1.9-0.9,3.5
			s0.3,2.7,0.9,3.5c0.6,0.8,1.4,1.2,2.5,1.2s1.9-0.4,2.5-1.2C426.7,14.2,427,13.1,427,11.5z"/>
		<path id="XMLID_323_" class="st1" d="M437.8,7.4c-0.2-0.1-0.5-0.2-0.8-0.3C436.7,7,436.4,7,436,7c-0.8,0-1.4,0.3-1.9,0.9
			s-0.7,1.5-0.7,2.6v6.9h-1.7V5.7h1.7v1.4c0.3-0.5,0.7-0.9,1.2-1.2c0.5-0.3,1.1-0.5,1.7-0.5c0.4,0,0.8,0,1.1,0.1
			c0.3,0.1,0.5,0.1,0.7,0.2L437.8,7.4z"/>
		<path id="XMLID_321_" class="st1" d="M444.1,21.5h-1.7l1.6-4.3l-4.2-11.6h1.8l2.9,8.5l0.4,1.2l0.4-1.2l2.9-8.5h1.8L444.1,21.5z"/>
		<path id="XMLID_318_" class="st1" d="M467.4,11.2c0,0.2,0,0.4,0,0.5s0,0.3-0.1,0.4h-7.8c0.1,1.3,0.4,2.3,1,3
			c0.6,0.7,1.3,1.1,2.3,1.1c0.7,0,1.3-0.1,1.7-0.3c0.5-0.2,1-0.5,1.5-0.8l0.8,1.2c-0.4,0.2-0.7,0.4-1,0.6c-0.3,0.2-0.6,0.3-1,0.4
			c-0.3,0.1-0.7,0.2-1,0.3c-0.4,0.1-0.8,0.1-1.2,0.1c-0.5,0-1.1-0.1-1.6-0.3s-1.1-0.6-1.5-1c-0.5-0.5-0.8-1.1-1.1-1.9
			s-0.5-1.8-0.5-2.9c0-0.9,0.1-1.8,0.4-2.5s0.6-1.4,1-1.9c0.4-0.5,0.9-0.9,1.5-1.2s1.2-0.4,1.9-0.4c0.8,0,1.4,0.1,2,0.4
			s1.1,0.7,1.5,1.2s0.7,1.1,0.9,1.8C467.3,9.6,467.4,10.4,467.4,11.2z M465.9,10.7c-0.1-1.2-0.4-2.1-0.9-2.8
			c-0.5-0.7-1.3-1.1-2.3-1.1c-0.9,0-1.6,0.3-2.1,1c-0.6,0.6-0.9,1.6-1,2.9H465.9z"/>
		<path id="XMLID_315_" class="st1" d="M479.9,11.3c0,1-0.1,2-0.3,2.7s-0.5,1.4-0.9,2c-0.4,0.5-0.9,0.9-1.4,1.2
			c-0.5,0.3-1.1,0.4-1.7,0.4c-0.7,0-1.4-0.1-1.9-0.4s-1-0.7-1.4-1.1v4.7l-1.7,0.9v-16h1.7l0,1.4c0.4-0.4,0.9-0.8,1.5-1.2
			c0.6-0.3,1.2-0.5,2.1-0.5c0.6,0,1.1,0.1,1.6,0.3c0.5,0.2,1,0.6,1.3,1.1s0.7,1.1,0.9,1.8C479.8,9.4,479.9,10.3,479.9,11.3z
			 M478.3,11.4c0-1.5-0.3-2.6-0.8-3.4c-0.5-0.8-1.2-1.1-2.2-1.1c-0.6,0-1.2,0.2-1.7,0.5s-1,0.7-1.4,1.2v5.9c0.3,0.5,0.8,0.9,1.3,1.3
			c0.5,0.3,1.2,0.5,1.9,0.5c1,0,1.7-0.4,2.2-1.2S478.3,12.9,478.3,11.4z"/>
		<path id="XMLID_312_" class="st1" d="M485.1,2.4c0,0.3-0.1,0.6-0.3,0.8s-0.5,0.3-0.8,0.3c-0.3,0-0.6-0.1-0.9-0.3
			c-0.2-0.2-0.4-0.5-0.4-0.8c0-0.3,0.1-0.6,0.4-0.9c0.2-0.2,0.5-0.3,0.9-0.3c0.3,0,0.6,0.1,0.8,0.3S485.1,2.1,485.1,2.4z
			 M483.1,17.4V5.7h1.7v11.7H483.1z"/>
		<path id="XMLID_310_" class="st1" d="M488.7,17.4V2.1l1.7-0.9v16.3H488.7z"/>
		<path id="XMLID_307_" class="st1" d="M503.1,11.2c0,0.2,0,0.4,0,0.5s0,0.3-0.1,0.4h-7.8c0.1,1.3,0.4,2.3,1,3
			c0.6,0.7,1.3,1.1,2.3,1.1c0.7,0,1.3-0.1,1.7-0.3c0.5-0.2,1-0.5,1.5-0.8l0.8,1.2c-0.4,0.2-0.7,0.4-1,0.6c-0.3,0.2-0.6,0.3-1,0.4
			c-0.3,0.1-0.7,0.2-1,0.3c-0.4,0.1-0.8,0.1-1.2,0.1c-0.5,0-1.1-0.1-1.6-0.3s-1.1-0.6-1.5-1c-0.5-0.5-0.8-1.1-1.1-1.9
			s-0.5-1.8-0.5-2.9c0-0.9,0.1-1.8,0.4-2.5s0.6-1.4,1-1.9c0.4-0.5,0.9-0.9,1.5-1.2s1.2-0.4,1.9-0.4c0.8,0,1.4,0.1,2,0.4
			s1.1,0.7,1.5,1.2s0.7,1.1,0.9,1.8C503,9.6,503.1,10.4,503.1,11.2z M501.5,10.7c-0.1-1.2-0.4-2.1-0.9-2.8c-0.5-0.7-1.3-1.1-2.3-1.1
			c-0.9,0-1.6,0.3-2.1,1c-0.6,0.6-0.9,1.6-1,2.9H501.5z"/>
		<path id="XMLID_304_" class="st1" d="M515.6,11.3c0,1-0.1,2-0.3,2.7s-0.5,1.4-0.9,2c-0.4,0.5-0.9,0.9-1.4,1.2
			c-0.5,0.3-1.1,0.4-1.7,0.4c-0.7,0-1.4-0.1-1.9-0.4s-1-0.7-1.4-1.1v4.7l-1.7,0.9v-16h1.7l0,1.4c0.4-0.4,0.9-0.8,1.5-1.2
			c0.6-0.3,1.2-0.5,2.1-0.5c0.6,0,1.1,0.1,1.6,0.3c0.5,0.2,1,0.6,1.3,1.1s0.7,1.1,0.9,1.8C515.5,9.4,515.6,10.3,515.6,11.3z
			 M514,11.4c0-1.5-0.3-2.6-0.8-3.4c-0.5-0.8-1.2-1.1-2.2-1.1c-0.6,0-1.2,0.2-1.7,0.5s-1,0.7-1.4,1.2v5.9c0.3,0.5,0.8,0.9,1.3,1.3
			c0.5,0.3,1.2,0.5,1.9,0.5c1,0,1.7-0.4,2.2-1.2S514,12.9,514,11.4z"/>
		<path id="XMLID_302_" class="st1" d="M525.9,14.3c0,0.6-0.1,1.1-0.3,1.5c-0.2,0.4-0.5,0.8-0.9,1s-0.8,0.5-1.3,0.6
			c-0.5,0.1-1,0.2-1.5,0.2c-0.8,0-1.5-0.1-2.2-0.4c-0.7-0.3-1.3-0.6-1.9-1.1l1-1.2c0.5,0.4,1,0.7,1.5,1c0.5,0.2,1.1,0.3,1.7,0.3
			c0.8,0,1.4-0.2,1.8-0.5c0.4-0.3,0.6-0.8,0.6-1.3c0-0.2,0-0.5-0.1-0.6c-0.1-0.2-0.3-0.4-0.5-0.6c-0.2-0.2-0.5-0.4-0.8-0.6
			c-0.3-0.2-0.8-0.4-1.3-0.6c-0.6-0.3-1.1-0.5-1.5-0.7c-0.4-0.2-0.8-0.5-1-0.7s-0.5-0.6-0.6-0.9s-0.2-0.7-0.2-1.2
			c0-0.4,0.1-0.9,0.3-1.2c0.2-0.4,0.4-0.7,0.8-0.9c0.3-0.3,0.7-0.5,1.1-0.6c0.4-0.1,0.9-0.2,1.5-0.2c0.8,0,1.5,0.1,2.1,0.3
			c0.6,0.2,1.2,0.5,1.6,0.9l-0.9,1.2c-0.5-0.4-0.9-0.6-1.3-0.8c-0.4-0.2-1-0.3-1.6-0.3c-0.6,0-1.1,0.1-1.4,0.4
			c-0.3,0.3-0.5,0.6-0.5,1c0,0.3,0,0.5,0.1,0.6s0.2,0.4,0.4,0.5c0.2,0.2,0.5,0.3,0.8,0.5c0.3,0.2,0.7,0.4,1.2,0.6
			c0.5,0.3,1,0.5,1.5,0.7c0.4,0.2,0.8,0.5,1.1,0.7s0.5,0.6,0.7,1C525.9,13.4,525.9,13.8,525.9,14.3z"/>
		<path id="XMLID_300_" class="st1" d="M532.4,21.5h-1.7l1.6-4.3l-4.2-11.6h1.8l2.9,8.5l0.4,1.2l0.4-1.2l2.9-8.5h1.8L532.4,21.5z"/>
		<path id="XMLID_298_" class="st1" d="M548.9,7.1v7.6c0,0.5,0.1,0.9,0.3,1.1s0.5,0.3,0.9,0.3c0.3,0,0.6,0,0.9-0.1
			c0.2-0.1,0.5-0.1,0.8-0.3l-0.1,1.4c-0.3,0.1-0.7,0.2-1,0.3s-0.7,0.1-1.2,0.1c-0.7,0-1.3-0.2-1.7-0.6s-0.6-1.1-0.6-2.1V7.1h-1.4
			V5.7h1.4V2.1l1.7-0.9v4.5h2.9v1.4H548.9z"/>
		<path id="XMLID_296_" class="st1" d="M561,7.4c-0.2-0.1-0.5-0.2-0.8-0.3C560,7,559.6,7,559.3,7c-0.8,0-1.4,0.3-1.9,0.9
			s-0.7,1.5-0.7,2.6v6.9H555V5.7h1.7v1.4c0.3-0.5,0.7-0.9,1.2-1.2c0.5-0.3,1.1-0.5,1.7-0.5c0.4,0,0.8,0,1.1,0.1
			c0.3,0.1,0.5,0.1,0.7,0.2L561,7.4z"/>
		<path id="XMLID_293_" class="st1" d="M573,11.2c0,0.2,0,0.4,0,0.5s0,0.3-0.1,0.4h-7.8c0.1,1.3,0.4,2.3,1,3
			c0.6,0.7,1.3,1.1,2.3,1.1c0.7,0,1.3-0.1,1.7-0.3c0.5-0.2,1-0.5,1.5-0.8l0.8,1.2c-0.4,0.2-0.7,0.4-1,0.6c-0.3,0.2-0.6,0.3-1,0.4
			c-0.3,0.1-0.7,0.2-1,0.3c-0.4,0.1-0.8,0.1-1.2,0.1c-0.5,0-1.1-0.1-1.6-0.3s-1.1-0.6-1.5-1c-0.5-0.5-0.8-1.1-1.1-1.9
			s-0.5-1.8-0.5-2.9c0-0.9,0.1-1.8,0.4-2.5s0.6-1.4,1-1.9c0.4-0.5,0.9-0.9,1.5-1.2s1.2-0.4,1.9-0.4c0.8,0,1.4,0.1,2,0.4
			s1.1,0.7,1.5,1.2s0.7,1.1,0.9,1.8C572.9,9.6,573,10.4,573,11.2z M571.5,10.7c-0.1-1.2-0.4-2.1-0.9-2.8c-0.5-0.7-1.3-1.1-2.3-1.1
			c-0.9,0-1.6,0.3-2.1,1c-0.6,0.6-0.9,1.6-1,2.9H571.5z"/>
		<path id="XMLID_290_" class="st1" d="M582.8,17.4V16c-0.4,0.4-0.9,0.8-1.5,1.2c-0.6,0.3-1.3,0.5-2.2,0.5c-0.5,0-0.9-0.1-1.4-0.2
			c-0.4-0.1-0.8-0.3-1.2-0.6c-0.4-0.3-0.6-0.7-0.9-1.1c-0.2-0.5-0.3-1.1-0.3-1.8c0-0.7,0.1-1.2,0.4-1.7s0.6-0.9,1-1.2
			c0.4-0.3,0.9-0.5,1.4-0.7c0.5-0.1,1.1-0.2,1.7-0.2c0.6,0,1.1,0.1,1.6,0.2c0.5,0.1,0.9,0.3,1.3,0.5V9.4c0-1.7-0.8-2.6-2.5-2.6
			c-0.6,0-1.2,0.1-1.7,0.2c-0.5,0.2-1,0.4-1.5,0.7l-0.6-1.4c0.5-0.3,1.1-0.5,1.8-0.7s1.4-0.3,2.1-0.3c1.3,0,2.3,0.3,3,0.9
			c0.7,0.6,1.1,1.6,1.1,2.9v8.2H582.8z M582.8,12.1c-0.4-0.2-0.8-0.4-1.3-0.5c-0.5-0.1-1-0.2-1.7-0.2c-0.9,0-1.5,0.2-2,0.6
			c-0.5,0.4-0.7,1-0.7,1.7c0,0.9,0.2,1.5,0.7,1.9c0.4,0.4,1,0.6,1.7,0.6c0.8,0,1.4-0.2,2-0.5c0.6-0.3,1-0.8,1.4-1.2V12.1z"/>
		<path id="XMLID_288_" class="st1" d="M590.3,7.1v7.6c0,0.5,0.1,0.9,0.3,1.1s0.5,0.3,0.9,0.3c0.3,0,0.6,0,0.9-0.1
			c0.2-0.1,0.5-0.1,0.8-0.3l-0.1,1.4c-0.3,0.1-0.7,0.2-1,0.3s-0.7,0.1-1.2,0.1c-0.7,0-1.3-0.2-1.7-0.6s-0.6-1.1-0.6-2.1V7.1h-1.4
			V5.7h1.4V2.1l1.7-0.9v4.5h2.9v1.4H590.3z"/>
		<path id="XMLID_285_" class="st1" d="M605.3,11.2c0,0.2,0,0.4,0,0.5s0,0.3-0.1,0.4h-7.8c0.1,1.3,0.4,2.3,1,3
			c0.6,0.7,1.3,1.1,2.3,1.1c0.7,0,1.3-0.1,1.7-0.3c0.5-0.2,1-0.5,1.5-0.8l0.8,1.2c-0.4,0.2-0.7,0.4-1,0.6c-0.3,0.2-0.6,0.3-1,0.4
			c-0.3,0.1-0.7,0.2-1,0.3c-0.4,0.1-0.8,0.1-1.2,0.1c-0.5,0-1.1-0.1-1.6-0.3s-1.1-0.6-1.5-1c-0.5-0.5-0.8-1.1-1.1-1.9
			s-0.5-1.8-0.5-2.9c0-0.9,0.1-1.8,0.4-2.5s0.6-1.4,1-1.9c0.4-0.5,0.9-0.9,1.5-1.2s1.2-0.4,1.9-0.4c0.8,0,1.4,0.1,2,0.4
			s1.1,0.7,1.5,1.2s0.7,1.1,0.9,1.8C605.2,9.6,605.3,10.4,605.3,11.2z M603.8,10.7c-0.1-1.2-0.4-2.1-0.9-2.8
			c-0.5-0.7-1.3-1.1-2.3-1.1c-0.9,0-1.6,0.3-2.1,1c-0.6,0.6-0.9,1.6-1,2.9H603.8z"/>
		<path id="XMLID_282_" class="st1" d="M615.6,17.4V16c-0.4,0.4-0.9,0.8-1.5,1.2s-1.2,0.5-2.1,0.5c-0.6,0-1.1-0.1-1.6-0.3
			c-0.5-0.2-1-0.6-1.3-1.1c-0.4-0.5-0.7-1.1-0.9-1.8c-0.2-0.8-0.3-1.6-0.3-2.7c0-1,0.1-2,0.3-2.7s0.5-1.4,0.9-2
			c0.4-0.5,0.9-0.9,1.4-1.2c0.5-0.3,1.1-0.4,1.7-0.4c0.7,0,1.4,0.1,1.9,0.4c0.5,0.3,1,0.7,1.4,1.1V2.1l1.7-0.9v16.3H615.6z
			 M615.6,8.6c-0.3-0.5-0.8-0.9-1.3-1.3c-0.5-0.3-1.2-0.5-1.9-0.5c-1,0-1.7,0.4-2.2,1.2s-0.7,2-0.7,3.6c0,1.5,0.3,2.6,0.8,3.4
			c0.5,0.8,1.2,1.1,2.2,1.1c0.6,0,1.2-0.2,1.7-0.5s1-0.7,1.4-1.2V8.6z"/>
		<path id="XMLID_280_" class="st1" d="M637,17.4h-1.5l-2.1-7.8c0-0.1-0.1-0.2-0.1-0.4c0-0.1-0.1-0.3-0.1-0.4c0-0.2-0.1-0.3-0.1-0.5
			c0-0.1-0.1-0.3-0.1-0.4c0,0.1,0,0.2-0.1,0.4c0,0.1-0.1,0.3-0.1,0.5c0,0.2-0.1,0.3-0.1,0.4c0,0.1-0.1,0.3-0.1,0.4l-2.1,7.8H629
			l-3.1-11.7h1.7l1.8,7.7c0,0.1,0,0.2,0.1,0.4c0,0.1,0.1,0.3,0.1,0.4c0,0.2,0.1,0.3,0.1,0.5s0,0.3,0.1,0.4c0-0.1,0-0.2,0.1-0.4
			c0-0.1,0.1-0.3,0.1-0.5c0-0.2,0.1-0.3,0.1-0.4s0.1-0.3,0.1-0.4l2.1-7.7h1.5l2.1,7.7c0,0.1,0.1,0.2,0.1,0.4s0.1,0.3,0.1,0.4
			c0,0.2,0.1,0.3,0.1,0.5c0,0.1,0.1,0.3,0.1,0.4c0-0.1,0-0.2,0.1-0.4c0-0.1,0.1-0.3,0.1-0.5s0.1-0.3,0.1-0.4s0-0.3,0.1-0.4l1.8-7.7
			h1.7L637,17.4z"/>
		<path id="XMLID_277_" class="st1" d="M645.1,2.4c0,0.3-0.1,0.6-0.3,0.8s-0.5,0.3-0.8,0.3c-0.3,0-0.6-0.1-0.9-0.3
			c-0.2-0.2-0.4-0.5-0.4-0.8c0-0.3,0.1-0.6,0.4-0.9c0.2-0.2,0.5-0.3,0.9-0.3c0.3,0,0.6,0.1,0.8,0.3S645.1,2.1,645.1,2.4z
			 M643.1,17.4V5.7h1.7v11.7H643.1z"/>
		<path id="XMLID_275_" class="st1" d="M650.8,7.1v7.6c0,0.5,0.1,0.9,0.3,1.1s0.5,0.3,0.9,0.3c0.3,0,0.6,0,0.9-0.1
			c0.2-0.1,0.5-0.1,0.8-0.3l-0.1,1.4c-0.3,0.1-0.7,0.2-1,0.3s-0.7,0.1-1.2,0.1c-0.7,0-1.3-0.2-1.7-0.6s-0.6-1.1-0.6-2.1V7.1h-1.4
			V5.7h1.4V2.1l1.7-0.9v4.5h2.9v1.4H650.8z"/>
		<path id="XMLID_273_" class="st1" d="M664.2,17.4v-6.9c0-1.3-0.2-2.2-0.7-2.8s-1.1-0.9-2.1-0.9c-0.8,0-1.5,0.3-2.1,0.9
			c-0.6,0.6-0.8,1.5-0.8,2.8v6.9h-1.7V2.1l1.7-0.9l0,6c0.3-0.5,0.8-0.9,1.3-1.2s1.2-0.5,1.9-0.5c0.6,0,1.2,0.1,1.7,0.3
			c0.5,0.2,0.9,0.5,1.3,0.9s0.6,0.9,0.8,1.5c0.2,0.6,0.3,1.3,0.3,2.2v7.1H664.2z"/>
		<path id="XMLID_271_" class="st1" d="M675.5,17.4V1.8h1.7v14h7.7v1.6H675.5z"/>
		<path id="XMLID_269_" class="st1" d="M688.3,17.4V1.8h9.4v1.6h-7.7v4.9h4.5v1.6h-4.5v6h8v1.6H688.3z"/>
		<path id="XMLID_267_" class="st1" d="M707.8,17.4h-1.9l-5.3-15.6h1.8l3.5,10.7c0.1,0.2,0.2,0.5,0.3,0.8c0.1,0.3,0.2,0.6,0.3,0.9
			c0.1,0.3,0.2,0.6,0.2,0.8c0.1,0.3,0.1,0.4,0.2,0.6c0-0.1,0.1-0.3,0.2-0.6c0.1-0.3,0.2-0.5,0.3-0.8s0.2-0.6,0.3-0.9
			s0.2-0.6,0.3-0.8l3.5-10.6h1.8L707.8,17.4z"/>
		<path id="XMLID_264_" class="st1" d="M729,17.4V16c-0.4,0.4-0.9,0.8-1.5,1.2s-1.2,0.5-2.1,0.5c-0.6,0-1.1-0.1-1.6-0.3
			c-0.5-0.2-1-0.6-1.3-1.1c-0.4-0.5-0.7-1.1-0.9-1.8c-0.2-0.8-0.3-1.6-0.3-2.7c0-1,0.1-2,0.3-2.7s0.5-1.4,0.9-2
			c0.4-0.5,0.9-0.9,1.4-1.2c0.5-0.3,1.1-0.4,1.7-0.4c0.7,0,1.4,0.1,1.9,0.4c0.5,0.3,1,0.7,1.4,1.1V2.1l1.7-0.9v16.3H729z M729,8.6
			c-0.3-0.5-0.8-0.9-1.3-1.3c-0.5-0.3-1.2-0.5-1.9-0.5c-1,0-1.7,0.4-2.2,1.2s-0.7,2-0.7,3.6c0,1.5,0.3,2.6,0.8,3.4
			c0.5,0.8,1.2,1.1,2.2,1.1c0.6,0,1.2-0.2,1.7-0.5s1-0.7,1.4-1.2V8.6z"/>
		<path id="XMLID_262_" class="st1" d="M741.6,17.4V16c-0.3,0.5-0.8,0.9-1.3,1.2c-0.5,0.3-1.2,0.5-1.9,0.5c-0.6,0-1.2-0.1-1.7-0.3
			c-0.5-0.2-0.9-0.5-1.3-0.9c-0.4-0.4-0.6-0.9-0.8-1.5c-0.2-0.6-0.3-1.3-0.3-2.2V5.7h1.7v6.9c0,1.3,0.2,2.2,0.7,2.8
			c0.5,0.6,1.1,0.9,2.1,0.9c0.8,0,1.5-0.3,2.1-0.9c0.6-0.6,0.8-1.5,0.8-2.8V5.7h1.7v11.7H741.6z"/>
		<path id="XMLID_260_" class="st1" d="M753,7.4c-0.2-0.1-0.5-0.2-0.8-0.3C752,7,751.6,7,751.3,7c-0.8,0-1.4,0.3-1.9,0.9
			s-0.7,1.5-0.7,2.6v6.9H747V5.7h1.7v1.4c0.3-0.5,0.7-0.9,1.2-1.2c0.5-0.3,1.1-0.5,1.7-0.5c0.4,0,0.8,0,1.1,0.1
			c0.3,0.1,0.5,0.1,0.7,0.2L753,7.4z"/>
		<path id="XMLID_257_" class="st1" d="M758.2,2.4c0,0.3-0.1,0.6-0.3,0.8s-0.5,0.3-0.8,0.3c-0.3,0-0.6-0.1-0.9-0.3
			c-0.2-0.2-0.4-0.5-0.4-0.8c0-0.3,0.1-0.6,0.4-0.9c0.2-0.2,0.5-0.3,0.9-0.3c0.3,0,0.6,0.1,0.8,0.3S758.2,2.1,758.2,2.4z
			 M756.2,17.4V5.7h1.7v11.7H756.2z"/>
		<path id="XMLID_255_" class="st1" d="M769,17.4v-6.9c0-1.3-0.2-2.2-0.7-2.8s-1.1-0.9-2.1-0.9c-0.8,0-1.5,0.3-2.1,0.9
			c-0.6,0.6-0.8,1.5-0.8,2.8v6.9h-1.7V5.7h1.7l0,1.4c0.3-0.5,0.8-0.9,1.3-1.2s1.2-0.5,1.9-0.5c0.6,0,1.2,0.1,1.7,0.3
			c0.5,0.2,0.9,0.5,1.3,0.9s0.6,0.9,0.8,1.5c0.2,0.6,0.3,1.3,0.3,2.2v7.1H769z"/>
		<path id="XMLID_252_" class="st1" d="M783.1,16.3c0,0.9-0.1,1.6-0.3,2.3c-0.2,0.7-0.5,1.2-1,1.6c-0.5,0.4-1.1,0.8-1.8,1
			s-1.7,0.4-2.8,0.4l-0.5-1.3c1,0,1.8-0.1,2.4-0.3c0.6-0.1,1.1-0.4,1.5-0.7c0.4-0.3,0.6-0.7,0.7-1.2c0.1-0.5,0.2-1.1,0.2-1.7V16
			c-0.4,0.4-0.9,0.8-1.5,1.2s-1.2,0.5-2.1,0.5c-0.6,0-1.1-0.1-1.6-0.3c-0.5-0.2-1-0.6-1.3-1.1c-0.4-0.5-0.7-1.1-0.9-1.8
			c-0.2-0.8-0.3-1.6-0.3-2.7c0-1,0.1-2,0.3-2.7s0.5-1.4,0.9-2c0.4-0.5,0.9-0.9,1.4-1.2c0.5-0.3,1.1-0.4,1.7-0.4
			c0.7,0,1.4,0.1,1.9,0.4c0.5,0.3,1,0.7,1.4,1.1V5.7h1.7V16.3z M781.4,8.6c-0.3-0.5-0.8-0.9-1.3-1.3c-0.5-0.3-1.2-0.5-1.9-0.5
			c-1,0-1.7,0.4-2.2,1.2s-0.7,2-0.7,3.6c0,1.5,0.3,2.6,0.8,3.4c0.5,0.8,1.2,1.1,2.2,1.1c0.6,0,1.2-0.2,1.7-0.5s1-0.7,1.4-1.2V8.6z"
			/>
		<path id="XMLID_250_" class="st1" d="M794.7,7.1v7.6c0,0.5,0.1,0.9,0.3,1.1s0.5,0.3,0.9,0.3c0.3,0,0.6,0,0.9-0.1
			c0.2-0.1,0.5-0.1,0.8-0.3l-0.1,1.4c-0.3,0.1-0.7,0.2-1,0.3s-0.7,0.1-1.2,0.1c-0.7,0-1.3-0.2-1.7-0.6s-0.6-1.1-0.6-2.1V7.1h-1.4
			V5.7h1.4V2.1l1.7-0.9v4.5h2.9v1.4H794.7z"/>
		<path id="XMLID_248_" class="st1" d="M808.2,17.4v-6.9c0-1.3-0.2-2.2-0.7-2.8s-1.1-0.9-2.1-0.9c-0.8,0-1.5,0.3-2.1,0.9
			c-0.6,0.6-0.8,1.5-0.8,2.8v6.9h-1.7V2.1l1.7-0.9l0,6c0.3-0.5,0.8-0.9,1.3-1.2s1.2-0.5,1.9-0.5c0.6,0,1.2,0.1,1.7,0.3
			c0.5,0.2,0.9,0.5,1.3,0.9s0.6,0.9,0.8,1.5c0.2,0.6,0.3,1.3,0.3,2.2v7.1H808.2z"/>
		<path id="XMLID_245_" class="st1" d="M822.4,11.2c0,0.2,0,0.4,0,0.5s0,0.3-0.1,0.4h-7.8c0.1,1.3,0.4,2.3,1,3
			c0.6,0.7,1.3,1.1,2.3,1.1c0.7,0,1.3-0.1,1.7-0.3c0.5-0.2,1-0.5,1.5-0.8l0.8,1.2c-0.4,0.2-0.7,0.4-1,0.6c-0.3,0.2-0.6,0.3-1,0.4
			c-0.3,0.1-0.7,0.2-1,0.3c-0.4,0.1-0.8,0.1-1.2,0.1c-0.5,0-1.1-0.1-1.6-0.3s-1.1-0.6-1.5-1c-0.5-0.5-0.8-1.1-1.1-1.9
			s-0.5-1.8-0.5-2.9c0-0.9,0.1-1.8,0.4-2.5s0.6-1.4,1-1.9c0.4-0.5,0.9-0.9,1.5-1.2s1.2-0.4,1.9-0.4c0.8,0,1.4,0.1,2,0.4
			s1.1,0.7,1.5,1.2s0.7,1.1,0.9,1.8C822.3,9.6,822.4,10.4,822.4,11.2z M820.9,10.7c-0.1-1.2-0.4-2.1-0.9-2.8
			c-0.5-0.7-1.3-1.1-2.3-1.1c-0.9,0-1.6,0.3-2.1,1c-0.6,0.6-0.9,1.6-1,2.9H820.9z"/>
		<path id="XMLID_242_" class="st1" d="M8,44.1v-1.4c-0.4,0.4-0.9,0.8-1.5,1.2s-1.2,0.5-2.1,0.5c-0.6,0-1.1-0.1-1.6-0.3
			c-0.5-0.2-1-0.6-1.3-1.1c-0.4-0.5-0.7-1.1-0.9-1.8c-0.2-0.8-0.3-1.6-0.3-2.7c0-1,0.1-2,0.3-2.7s0.5-1.4,0.9-2
			C2,33.3,2.4,32.9,3,32.6c0.5-0.3,1.1-0.4,1.7-0.4c0.7,0,1.4,0.1,1.9,0.4c0.5,0.3,1,0.7,1.4,1.1v-4.9l1.7-0.9v16.3H8z M8,35.4
			c-0.3-0.5-0.8-0.9-1.3-1.3c-0.5-0.3-1.2-0.5-1.9-0.5c-1,0-1.7,0.4-2.2,1.2s-0.7,2-0.7,3.6c0,1.5,0.3,2.6,0.8,3.4
			C3.2,42.6,3.9,43,4.9,43c0.6,0,1.2-0.2,1.7-0.5s1-0.7,1.4-1.2V35.4z"/>
		<path id="XMLID_239_" class="st1" d="M22.2,37.9c0,0.2,0,0.4,0,0.5s0,0.3-0.1,0.4h-7.8c0.1,1.3,0.4,2.3,1,3
			c0.6,0.7,1.3,1.1,2.3,1.1c0.7,0,1.3-0.1,1.7-0.3c0.5-0.2,1-0.5,1.5-0.8l0.8,1.2c-0.4,0.2-0.7,0.4-1,0.6c-0.3,0.2-0.6,0.3-1,0.4
			c-0.3,0.1-0.7,0.2-1,0.3c-0.4,0.1-0.8,0.1-1.2,0.1c-0.5,0-1.1-0.1-1.6-0.3s-1.1-0.6-1.5-1c-0.5-0.5-0.8-1.1-1.1-1.9
			s-0.5-1.8-0.5-2.9c0-0.9,0.1-1.8,0.4-2.5s0.6-1.4,1-1.9c0.4-0.5,0.9-0.9,1.5-1.2s1.2-0.4,1.9-0.4c0.8,0,1.4,0.1,2,0.4
			s1.1,0.7,1.5,1.2s0.7,1.1,0.9,1.8C22.1,36.3,22.2,37.1,22.2,37.9z M20.7,37.5c-0.1-1.2-0.4-2.1-0.9-2.8c-0.5-0.7-1.3-1.1-2.3-1.1
			c-0.9,0-1.6,0.3-2.1,1c-0.6,0.6-0.9,1.6-1,2.9H20.7z"/>
		<path id="XMLID_237_" class="st1" d="M30.1,44.1h-1.5l-4.2-11.7h1.8l3,9.2l0.2,0.6l0.2-0.6l3-9.2h1.7L30.1,44.1z"/>
		<path id="XMLID_234_" class="st1" d="M45.9,37.9c0,0.2,0,0.4,0,0.5s0,0.3-0.1,0.4h-7.8c0.1,1.3,0.4,2.3,1,3
			c0.6,0.7,1.3,1.1,2.3,1.1c0.7,0,1.3-0.1,1.7-0.3c0.5-0.2,1-0.5,1.5-0.8l0.8,1.2c-0.4,0.2-0.7,0.4-1,0.6c-0.3,0.2-0.6,0.3-1,0.4
			c-0.3,0.1-0.7,0.2-1,0.3c-0.4,0.1-0.8,0.1-1.2,0.1c-0.5,0-1.1-0.1-1.6-0.3s-1.1-0.6-1.5-1c-0.5-0.5-0.8-1.1-1.1-1.9
			s-0.5-1.8-0.5-2.9c0-0.9,0.1-1.8,0.4-2.5s0.6-1.4,1-1.9c0.4-0.5,0.9-0.9,1.5-1.2s1.2-0.4,1.9-0.4c0.8,0,1.4,0.1,2,0.4
			s1.1,0.7,1.5,1.2s0.7,1.1,0.9,1.8C45.8,36.3,45.9,37.1,45.9,37.9z M44.4,37.5c-0.1-1.2-0.4-2.1-0.9-2.8c-0.5-0.7-1.3-1.1-2.3-1.1
			c-0.9,0-1.6,0.3-2.1,1c-0.6,0.6-0.9,1.6-1,2.9H44.4z"/>
		<path id="XMLID_232_" class="st1" d="M49.2,44.1V28.8l1.7-0.9v16.3H49.2z"/>
		<path id="XMLID_229_" class="st1" d="M64.2,38.2c0,1-0.1,1.9-0.4,2.6c-0.3,0.8-0.6,1.4-1.1,1.9c-0.5,0.5-1,0.9-1.6,1.2
			c-0.6,0.3-1.3,0.4-2,0.4s-1.4-0.1-2-0.4s-1.2-0.6-1.6-1.2c-0.4-0.5-0.8-1.1-1.1-1.9c-0.3-0.8-0.4-1.6-0.4-2.6s0.1-1.9,0.4-2.6
			c0.3-0.8,0.6-1.4,1.1-1.9s1-0.9,1.6-1.2c0.6-0.3,1.3-0.4,2-0.4s1.4,0.1,2,0.4c0.6,0.3,1.2,0.6,1.6,1.1c0.4,0.5,0.8,1.1,1.1,1.9
			S64.2,37.2,64.2,38.2z M62.5,38.2c0-1.6-0.3-2.7-0.9-3.5s-1.4-1.2-2.5-1.2s-1.8,0.4-2.5,1.2c-0.6,0.8-0.9,1.9-0.9,3.5
			s0.3,2.7,0.9,3.5c0.6,0.8,1.4,1.2,2.5,1.2s1.9-0.4,2.5-1.2C62.2,41,62.5,39.8,62.5,38.2z"/>
		<path id="XMLID_226_" class="st1" d="M76.7,38.1c0,1-0.1,2-0.3,2.7s-0.5,1.4-0.9,2C75,43.3,74.5,43.7,74,44
			c-0.5,0.3-1.1,0.4-1.7,0.4c-0.7,0-1.4-0.1-1.9-0.4s-1-0.7-1.4-1.1v4.7l-1.7,0.9v-16H69l0,1.4c0.4-0.4,0.9-0.8,1.5-1.2
			c0.6-0.3,1.2-0.5,2.1-0.5c0.6,0,1.1,0.1,1.6,0.3c0.5,0.2,1,0.6,1.3,1.1s0.7,1.1,0.9,1.8C76.6,36.2,76.7,37.1,76.7,38.1z M75,38.1
			c0-1.5-0.3-2.6-0.8-3.4c-0.5-0.8-1.2-1.1-2.2-1.1c-0.6,0-1.2,0.2-1.7,0.5s-1,0.7-1.4,1.2v5.9c0.3,0.5,0.8,0.9,1.3,1.3
			c0.5,0.3,1.2,0.5,1.9,0.5c1,0,1.7-0.4,2.2-1.2S75,39.7,75,38.1z"/>
		<path id="XMLID_224_" class="st1" d="M93.3,44.1v-6.9c0-1.3-0.2-2.3-0.6-2.8c-0.4-0.6-1-0.8-1.9-0.8c-0.8,0-1.4,0.3-1.9,0.9
			c-0.5,0.6-0.7,1.5-0.7,2.8v6.9h-1.7v-6.9c0-1.3-0.2-2.3-0.6-2.8c-0.4-0.6-1.1-0.8-1.9-0.8c-0.8,0-1.4,0.3-1.9,0.9
			c-0.5,0.6-0.7,1.5-0.7,2.8v6.9h-1.7V32.4h1.7l0,1.4c0.3-0.5,0.7-0.9,1.2-1.2c0.5-0.3,1.1-0.5,1.8-0.5c0.8,0,1.5,0.2,2,0.6
			c0.5,0.4,0.9,0.9,1.2,1.4c0.2-0.3,0.4-0.5,0.6-0.8c0.2-0.2,0.5-0.5,0.7-0.6c0.3-0.2,0.6-0.3,1-0.4s0.8-0.2,1.3-0.2
			c1.2,0,2.1,0.4,2.8,1.1c0.7,0.8,1.1,2,1.1,3.7v7.1H93.3z"/>
		<path id="XMLID_221_" class="st1" d="M107.5,37.9c0,0.2,0,0.4,0,0.5s0,0.3-0.1,0.4h-7.8c0.1,1.3,0.4,2.3,1,3
			c0.6,0.7,1.3,1.1,2.3,1.1c0.7,0,1.3-0.1,1.7-0.3c0.5-0.2,1-0.5,1.5-0.8L107,43c-0.4,0.2-0.7,0.4-1,0.6c-0.3,0.2-0.6,0.3-1,0.4
			c-0.3,0.1-0.7,0.2-1,0.3c-0.4,0.1-0.8,0.1-1.2,0.1c-0.5,0-1.1-0.1-1.6-0.3s-1.1-0.6-1.5-1c-0.5-0.5-0.8-1.1-1.1-1.9
			S98,39.4,98,38.2c0-0.9,0.1-1.8,0.4-2.5s0.6-1.4,1-1.9c0.4-0.5,0.9-0.9,1.5-1.2s1.2-0.4,1.9-0.4c0.8,0,1.4,0.1,2,0.4
			s1.1,0.7,1.5,1.2s0.7,1.1,0.9,1.8C107.4,36.3,107.5,37.1,107.5,37.9z M106,37.5c-0.1-1.2-0.4-2.1-0.9-2.8
			c-0.5-0.7-1.3-1.1-2.3-1.1c-0.9,0-1.6,0.3-2.1,1c-0.6,0.6-0.9,1.6-1,2.9H106z"/>
		<path id="XMLID_219_" class="st1" d="M118,44.1v-6.9c0-1.3-0.2-2.2-0.7-2.8s-1.1-0.9-2.1-0.9c-0.8,0-1.5,0.3-2.1,0.9
			c-0.6,0.6-0.8,1.5-0.8,2.8v6.9h-1.7V32.4h1.7l0,1.4c0.3-0.5,0.8-0.9,1.3-1.2s1.2-0.5,1.9-0.5c0.6,0,1.2,0.1,1.7,0.3
			c0.5,0.2,0.9,0.5,1.3,0.9s0.6,0.9,0.8,1.5c0.2,0.6,0.3,1.3,0.3,2.2v7.1H118z"/>
		<path id="XMLID_217_" class="st1" d="M125.5,33.9v7.6c0,0.5,0.1,0.9,0.3,1.1s0.5,0.3,0.9,0.3c0.3,0,0.6,0,0.9-0.1
			c0.2-0.1,0.5-0.1,0.8-0.3l-0.1,1.4c-0.3,0.1-0.7,0.2-1,0.3s-0.7,0.1-1.2,0.1c-0.7,0-1.3-0.2-1.7-0.6s-0.6-1.1-0.6-2.1v-7.9h-1.4
			v-1.4h1.4v-3.6l1.7-0.9v4.5h2.9v1.4H125.5z"/>
		<path id="XMLID_214_" class="st1" d="M146.8,38.1c0,1-0.1,2-0.3,2.7s-0.5,1.4-0.9,2c-0.4,0.5-0.9,0.9-1.4,1.2
			c-0.5,0.3-1.1,0.4-1.7,0.4c-0.7,0-1.4-0.1-1.9-0.4s-1-0.7-1.4-1.1v4.7l-1.7,0.9v-16h1.7l0,1.4c0.4-0.4,0.9-0.8,1.5-1.2
			c0.6-0.3,1.2-0.5,2.1-0.5c0.6,0,1.1,0.1,1.6,0.3c0.5,0.2,1,0.6,1.3,1.1s0.7,1.1,0.9,1.8C146.7,36.2,146.8,37.1,146.8,38.1z
			 M145.1,38.1c0-1.5-0.3-2.6-0.8-3.4c-0.5-0.8-1.2-1.1-2.2-1.1c-0.6,0-1.2,0.2-1.7,0.5s-1,0.7-1.4,1.2v5.9c0.3,0.5,0.8,0.9,1.3,1.3
			c0.5,0.3,1.2,0.5,1.9,0.5c1,0,1.7-0.4,2.2-1.2S145.1,39.7,145.1,38.1z"/>
		<path id="XMLID_212_" class="st1" d="M155.9,34.2c-0.2-0.1-0.5-0.2-0.8-0.3c-0.3-0.1-0.6-0.1-1-0.1c-0.8,0-1.4,0.3-1.9,0.9
			s-0.7,1.5-0.7,2.6v6.9h-1.7V32.4h1.7v1.4c0.3-0.5,0.7-0.9,1.2-1.2c0.5-0.3,1.1-0.5,1.7-0.5c0.4,0,0.8,0,1.1,0.1
			c0.3,0.1,0.5,0.1,0.7,0.2L155.9,34.2z"/>
		<path id="XMLID_209_" class="st1" d="M168.5,38.2c0,1-0.1,1.9-0.4,2.6c-0.3,0.8-0.6,1.4-1.1,1.9c-0.5,0.5-1,0.9-1.6,1.2
			c-0.6,0.3-1.3,0.4-2,0.4s-1.4-0.1-2-0.4s-1.2-0.6-1.6-1.2c-0.4-0.5-0.8-1.1-1.1-1.9c-0.3-0.8-0.4-1.6-0.4-2.6s0.1-1.9,0.4-2.6
			c0.3-0.8,0.6-1.4,1.1-1.9s1-0.9,1.6-1.2c0.6-0.3,1.3-0.4,2-0.4s1.4,0.1,2,0.4c0.6,0.3,1.2,0.6,1.6,1.1c0.4,0.5,0.8,1.1,1.1,1.9
			S168.5,37.2,168.5,38.2z M166.8,38.2c0-1.6-0.3-2.7-0.9-3.5s-1.4-1.2-2.5-1.2s-1.8,0.4-2.5,1.2c-0.6,0.8-0.9,1.9-0.9,3.5
			s0.3,2.7,0.9,3.5c0.6,0.8,1.4,1.2,2.5,1.2s1.9-0.4,2.5-1.2C166.5,41,166.8,39.8,166.8,38.2z"/>
		<path id="XMLID_206_" class="st1" d="M180.3,43.1c0,0.9-0.1,1.6-0.3,2.3c-0.2,0.7-0.5,1.2-1,1.6c-0.5,0.4-1.1,0.8-1.8,1
			s-1.7,0.4-2.8,0.4l-0.5-1.3c1,0,1.8-0.1,2.4-0.3c0.6-0.1,1.1-0.4,1.5-0.7c0.4-0.3,0.6-0.7,0.7-1.2c0.1-0.5,0.2-1.1,0.2-1.7v-0.6
			c-0.4,0.4-0.9,0.8-1.5,1.2s-1.2,0.5-2.1,0.5c-0.6,0-1.1-0.1-1.6-0.3c-0.5-0.2-1-0.6-1.3-1.1c-0.4-0.5-0.7-1.1-0.9-1.8
			c-0.2-0.8-0.3-1.6-0.3-2.7c0-1,0.1-2,0.3-2.7s0.5-1.4,0.9-2c0.4-0.5,0.9-0.9,1.4-1.2c0.5-0.3,1.1-0.4,1.7-0.4
			c0.7,0,1.4,0.1,1.9,0.4c0.5,0.3,1,0.7,1.4,1.1v-1.3h1.7V43.1z M178.6,35.4c-0.3-0.5-0.8-0.9-1.3-1.3c-0.5-0.3-1.2-0.5-1.9-0.5
			c-1,0-1.7,0.4-2.2,1.2s-0.7,2-0.7,3.6c0,1.5,0.3,2.6,0.8,3.4c0.5,0.8,1.2,1.1,2.2,1.1c0.6,0,1.2-0.2,1.7-0.5s1-0.7,1.4-1.2V35.4z"
			/>
		<path id="XMLID_204_" class="st1" d="M190,34.2c-0.2-0.1-0.5-0.2-0.8-0.3c-0.3-0.1-0.6-0.1-1-0.1c-0.8,0-1.4,0.3-1.9,0.9
			s-0.7,1.5-0.7,2.6v6.9H184V32.4h1.7v1.4c0.3-0.5,0.7-0.9,1.2-1.2c0.5-0.3,1.1-0.5,1.7-0.5c0.4,0,0.8,0,1.1,0.1
			c0.3,0.1,0.5,0.1,0.7,0.2L190,34.2z"/>
		<path id="XMLID_201_" class="st1" d="M199.8,44.1v-1.4c-0.4,0.4-0.9,0.8-1.5,1.2c-0.6,0.3-1.3,0.5-2.2,0.5c-0.5,0-0.9-0.1-1.4-0.2
			c-0.4-0.1-0.8-0.3-1.2-0.6c-0.4-0.3-0.6-0.7-0.9-1.1c-0.2-0.5-0.3-1.1-0.3-1.8c0-0.7,0.1-1.2,0.4-1.7s0.6-0.9,1-1.2
			c0.4-0.3,0.9-0.5,1.4-0.7c0.5-0.1,1.1-0.2,1.7-0.2c0.6,0,1.1,0.1,1.6,0.2c0.5,0.1,0.9,0.3,1.3,0.5v-1.4c0-1.7-0.8-2.6-2.5-2.6
			c-0.6,0-1.2,0.1-1.7,0.2c-0.5,0.2-1,0.4-1.5,0.7l-0.6-1.4c0.5-0.3,1.1-0.5,1.8-0.7s1.4-0.3,2.1-0.3c1.3,0,2.3,0.3,3,0.9
			c0.7,0.6,1.1,1.6,1.1,2.9v8.2H199.8z M199.8,38.9c-0.4-0.2-0.8-0.4-1.3-0.5c-0.5-0.1-1-0.2-1.7-0.2c-0.9,0-1.5,0.2-2,0.6
			c-0.5,0.4-0.7,1-0.7,1.7c0,0.9,0.2,1.5,0.7,1.9c0.4,0.4,1,0.6,1.7,0.6c0.8,0,1.4-0.2,2-0.5c0.6-0.3,1-0.8,1.4-1.2V38.9z"/>
		<path id="XMLID_199_" class="st1" d="M218.7,44.1v-6.9c0-1.3-0.2-2.3-0.6-2.8c-0.4-0.6-1-0.8-1.9-0.8c-0.8,0-1.4,0.3-1.9,0.9
			c-0.5,0.6-0.7,1.5-0.7,2.8v6.9h-1.7v-6.9c0-1.3-0.2-2.3-0.6-2.8c-0.4-0.6-1.1-0.8-1.9-0.8c-0.8,0-1.4,0.3-1.9,0.9
			c-0.5,0.6-0.7,1.5-0.7,2.8v6.9h-1.7V32.4h1.7l0,1.4c0.3-0.5,0.7-0.9,1.2-1.2c0.5-0.3,1.1-0.5,1.8-0.5c0.8,0,1.5,0.2,2,0.6
			c0.5,0.4,0.9,0.9,1.2,1.4c0.2-0.3,0.4-0.5,0.6-0.8c0.2-0.2,0.5-0.5,0.7-0.6c0.3-0.2,0.6-0.3,1-0.4s0.8-0.2,1.3-0.2
			c1.2,0,2.1,0.4,2.8,1.1c0.7,0.8,1.1,2,1.1,3.7v7.1H218.7z"/>
		<path id="XMLID_197_" class="st1" d="M240.1,44.1h-1.5l-2.1-7.8c0-0.1-0.1-0.2-0.1-0.4c0-0.1-0.1-0.3-0.1-0.4
			c0-0.2-0.1-0.3-0.1-0.5c0-0.1-0.1-0.3-0.1-0.4c0,0.1,0,0.2-0.1,0.4c0,0.1-0.1,0.3-0.1,0.5c0,0.2-0.1,0.3-0.1,0.4
			c0,0.1-0.1,0.3-0.1,0.4l-2.1,7.8h-1.5L229,32.4h1.7l1.8,7.7c0,0.1,0,0.2,0.1,0.4c0,0.1,0.1,0.3,0.1,0.4c0,0.2,0.1,0.3,0.1,0.5
			s0,0.3,0.1,0.4c0-0.1,0-0.2,0.1-0.4c0-0.1,0.1-0.3,0.1-0.5c0-0.2,0.1-0.3,0.1-0.4s0.1-0.3,0.1-0.4l2.1-7.7h1.5l2.1,7.7
			c0,0.1,0.1,0.2,0.1,0.4s0.1,0.3,0.1,0.4c0,0.2,0.1,0.3,0.1,0.5c0,0.1,0.1,0.3,0.1,0.4c0-0.1,0-0.2,0.1-0.4c0-0.1,0.1-0.3,0.1-0.5
			s0.1-0.3,0.1-0.4s0-0.3,0.1-0.4l1.8-7.7h1.7L240.1,44.1z"/>
		<path id="XMLID_194_" class="st1" d="M255,37.9c0,0.2,0,0.4,0,0.5s0,0.3-0.1,0.4h-7.8c0.1,1.3,0.4,2.3,1,3
			c0.6,0.7,1.3,1.1,2.3,1.1c0.7,0,1.3-0.1,1.7-0.3c0.5-0.2,1-0.5,1.5-0.8l0.8,1.2c-0.4,0.2-0.7,0.4-1,0.6c-0.3,0.2-0.6,0.3-1,0.4
			c-0.3,0.1-0.7,0.2-1,0.3c-0.4,0.1-0.8,0.1-1.2,0.1c-0.5,0-1.1-0.1-1.6-0.3s-1.1-0.6-1.5-1c-0.5-0.5-0.8-1.1-1.1-1.9
			s-0.5-1.8-0.5-2.9c0-0.9,0.1-1.8,0.4-2.5s0.6-1.4,1-1.9c0.4-0.5,0.9-0.9,1.5-1.2s1.2-0.4,1.9-0.4c0.8,0,1.4,0.1,2,0.4
			s1.1,0.7,1.5,1.2s0.7,1.1,0.9,1.8C254.9,36.3,255,37.1,255,37.9z M253.4,37.5c-0.1-1.2-0.4-2.1-0.9-2.8c-0.5-0.7-1.3-1.1-2.3-1.1
			c-0.9,0-1.6,0.3-2.1,1c-0.6,0.6-0.9,1.6-1,2.9H253.4z"/>
		<path id="XMLID_192_" class="st1" d="M264.1,34.2c-0.2-0.1-0.5-0.2-0.8-0.3c-0.3-0.1-0.6-0.1-1-0.1c-0.8,0-1.4,0.3-1.9,0.9
			s-0.7,1.5-0.7,2.6v6.9h-1.7V32.4h1.7v1.4c0.3-0.5,0.7-0.9,1.2-1.2c0.5-0.3,1.1-0.5,1.7-0.5c0.4,0,0.8,0,1.1,0.1
			c0.3,0.1,0.5,0.1,0.7,0.2L264.1,34.2z"/>
		<path id="XMLID_189_" class="st1" d="M276.1,37.9c0,0.2,0,0.4,0,0.5s0,0.3-0.1,0.4h-7.8c0.1,1.3,0.4,2.3,1,3
			c0.6,0.7,1.3,1.1,2.3,1.1c0.7,0,1.3-0.1,1.7-0.3c0.5-0.2,1-0.5,1.5-0.8l0.8,1.2c-0.4,0.2-0.7,0.4-1,0.6c-0.3,0.2-0.6,0.3-1,0.4
			c-0.3,0.1-0.7,0.2-1,0.3c-0.4,0.1-0.8,0.1-1.2,0.1c-0.5,0-1.1-0.1-1.6-0.3s-1.1-0.6-1.5-1c-0.5-0.5-0.8-1.1-1.1-1.9
			s-0.5-1.8-0.5-2.9c0-0.9,0.1-1.8,0.4-2.5s0.6-1.4,1-1.9c0.4-0.5,0.9-0.9,1.5-1.2s1.2-0.4,1.9-0.4c0.8,0,1.4,0.1,2,0.4
			s1.1,0.7,1.5,1.2s0.7,1.1,0.9,1.8C276,36.3,276.1,37.1,276.1,37.9z M274.5,37.5c-0.1-1.2-0.4-2.1-0.9-2.8
			c-0.5-0.7-1.3-1.1-2.3-1.1c-0.9,0-1.6,0.3-2.1,1c-0.6,0.6-0.9,1.6-1,2.9H274.5z"/>
		<path id="XMLID_186_" class="st1" d="M291.7,44.1v-1.4c-0.4,0.4-0.9,0.8-1.5,1.2c-0.6,0.3-1.3,0.5-2.2,0.5c-0.5,0-0.9-0.1-1.4-0.2
			c-0.4-0.1-0.8-0.3-1.2-0.6c-0.4-0.3-0.6-0.7-0.9-1.1c-0.2-0.5-0.3-1.1-0.3-1.8c0-0.7,0.1-1.2,0.4-1.7s0.6-0.9,1-1.2
			c0.4-0.3,0.9-0.5,1.4-0.7c0.5-0.1,1.1-0.2,1.7-0.2c0.6,0,1.1,0.1,1.6,0.2c0.5,0.1,0.9,0.3,1.3,0.5v-1.4c0-1.7-0.8-2.6-2.5-2.6
			c-0.6,0-1.2,0.1-1.7,0.2c-0.5,0.2-1,0.4-1.5,0.7l-0.6-1.4c0.5-0.3,1.1-0.5,1.8-0.7s1.4-0.3,2.1-0.3c1.3,0,2.3,0.3,3,0.9
			c0.7,0.6,1.1,1.6,1.1,2.9v8.2H291.7z M291.7,38.9c-0.4-0.2-0.8-0.4-1.3-0.5c-0.5-0.1-1-0.2-1.7-0.2c-0.9,0-1.5,0.2-2,0.6
			c-0.5,0.4-0.7,1-0.7,1.7c0,0.9,0.2,1.5,0.7,1.9c0.4,0.4,1,0.6,1.7,0.6c0.8,0,1.4-0.2,2-0.5c0.6-0.3,1-0.8,1.4-1.2V38.9z"/>
		<path id="XMLID_184_" class="st1" d="M304.4,44.1v-6.9c0-1.3-0.2-2.2-0.7-2.8s-1.1-0.9-2.1-0.9c-0.8,0-1.5,0.3-2.1,0.9
			c-0.6,0.6-0.8,1.5-0.8,2.8v6.9H297V32.4h1.7l0,1.4c0.3-0.5,0.8-0.9,1.3-1.2s1.2-0.5,1.9-0.5c0.6,0,1.2,0.1,1.7,0.3
			c0.5,0.2,0.9,0.5,1.3,0.9s0.6,0.9,0.8,1.5c0.2,0.6,0.3,1.3,0.3,2.2v7.1H304.4z"/>
		<path id="XMLID_181_" class="st1" d="M316.4,44.1v-1.4c-0.4,0.4-0.9,0.8-1.5,1.2c-0.6,0.3-1.3,0.5-2.2,0.5c-0.5,0-0.9-0.1-1.4-0.2
			c-0.4-0.1-0.8-0.3-1.2-0.6c-0.4-0.3-0.6-0.7-0.9-1.1c-0.2-0.5-0.3-1.1-0.3-1.8c0-0.7,0.1-1.2,0.4-1.7s0.6-0.9,1-1.2
			c0.4-0.3,0.9-0.5,1.4-0.7c0.5-0.1,1.1-0.2,1.7-0.2c0.6,0,1.1,0.1,1.6,0.2c0.5,0.1,0.9,0.3,1.3,0.5v-1.4c0-1.7-0.8-2.6-2.5-2.6
			c-0.6,0-1.2,0.1-1.7,0.2c-0.5,0.2-1,0.4-1.5,0.7l-0.6-1.4c0.5-0.3,1.1-0.5,1.8-0.7s1.4-0.3,2.1-0.3c1.3,0,2.3,0.3,3,0.9
			c0.7,0.6,1.1,1.6,1.1,2.9v8.2H316.4z M316.4,38.9c-0.4-0.2-0.8-0.4-1.3-0.5c-0.5-0.1-1-0.2-1.7-0.2c-0.9,0-1.5,0.2-2,0.6
			c-0.5,0.4-0.7,1-0.7,1.7c0,0.9,0.2,1.5,0.7,1.9c0.4,0.4,1,0.6,1.7,0.6c0.8,0,1.4-0.2,2-0.5c0.6-0.3,1-0.8,1.4-1.2V38.9z"/>
		<path id="XMLID_179_" class="st1" d="M321.8,44.1V28.8l1.7-0.9v16.3H321.8z"/>
		<path id="XMLID_177_" class="st1" d="M330.6,48.3h-1.7l1.6-4.3l-4.2-11.6h1.8l2.9,8.5l0.4,1.2l0.4-1.2l2.9-8.5h1.8L330.6,48.3z"/>
		<path id="XMLID_175_" class="st1" d="M338.5,44.1v-1.2l6.4-9.1H339v-1.4h7.8v1.2l-6.4,9.1h6.4v1.4H338.5z"/>
		<path id="XMLID_172_" class="st1" d="M359,37.9c0,0.2,0,0.4,0,0.5s0,0.3-0.1,0.4h-7.8c0.1,1.3,0.4,2.3,1,3
			c0.6,0.7,1.3,1.1,2.3,1.1c0.7,0,1.3-0.1,1.7-0.3c0.5-0.2,1-0.5,1.5-0.8l0.8,1.2c-0.4,0.2-0.7,0.4-1,0.6c-0.3,0.2-0.6,0.3-1,0.4
			c-0.3,0.1-0.7,0.2-1,0.3c-0.4,0.1-0.8,0.1-1.2,0.1c-0.5,0-1.1-0.1-1.6-0.3s-1.1-0.6-1.5-1c-0.5-0.5-0.8-1.1-1.1-1.9
			s-0.5-1.8-0.5-2.9c0-0.9,0.1-1.8,0.4-2.5s0.6-1.4,1-1.9c0.4-0.5,0.9-0.9,1.5-1.2s1.2-0.4,1.9-0.4c0.8,0,1.4,0.1,2,0.4
			s1.1,0.7,1.5,1.2s0.7,1.1,0.9,1.8C358.9,36.3,359,37.1,359,37.9z M357.4,37.5c-0.1-1.2-0.4-2.1-0.9-2.8c-0.5-0.7-1.3-1.1-2.3-1.1
			c-0.9,0-1.6,0.3-2.1,1c-0.6,0.6-0.9,1.6-1,2.9H357.4z"/>
		<path id="XMLID_169_" class="st1" d="M369.2,44.1v-1.4c-0.4,0.4-0.9,0.8-1.5,1.2s-1.2,0.5-2.1,0.5c-0.6,0-1.1-0.1-1.6-0.3
			c-0.5-0.2-1-0.6-1.3-1.1c-0.4-0.5-0.7-1.1-0.9-1.8c-0.2-0.8-0.3-1.6-0.3-2.7c0-1,0.1-2,0.3-2.7s0.5-1.4,0.9-2
			c0.4-0.5,0.9-0.9,1.4-1.2c0.5-0.3,1.1-0.4,1.7-0.4c0.7,0,1.4,0.1,1.9,0.4c0.5,0.3,1,0.7,1.4,1.1v-4.9l1.7-0.9v16.3H369.2z
			 M369.2,35.4c-0.3-0.5-0.8-0.9-1.3-1.3c-0.5-0.3-1.2-0.5-1.9-0.5c-1,0-1.7,0.4-2.2,1.2s-0.7,2-0.7,3.6c0,1.5,0.3,2.6,0.8,3.4
			c0.5,0.8,1.2,1.1,2.2,1.1c0.6,0,1.2-0.2,1.7-0.5s1-0.7,1.4-1.2V35.4z"/>
		<path id="XMLID_167_" class="st1" d="M384.1,29.5c-0.3,0-0.6,0.1-0.9,0.2s-0.3,0.5-0.3,1v1.7h2.3v1.4h-2.3v10.3h-1.7V33.9h-1.6
			v-1.4h1.6v-1.6c0-1,0.3-1.8,0.8-2.2c0.5-0.4,1.2-0.7,2-0.7c0.3,0,0.6,0,0.8,0c0.2,0,0.4,0.1,0.6,0.2v1.6
			C385.1,29.6,384.6,29.5,384.1,29.5z"/>
		<path id="XMLID_164_" class="st1" d="M397.9,38.2c0,1-0.1,1.9-0.4,2.6c-0.3,0.8-0.6,1.4-1.1,1.9c-0.5,0.5-1,0.9-1.6,1.2
			c-0.6,0.3-1.3,0.4-2,0.4s-1.4-0.1-2-0.4s-1.2-0.6-1.6-1.2c-0.4-0.5-0.8-1.1-1.1-1.9c-0.3-0.8-0.4-1.6-0.4-2.6s0.1-1.9,0.4-2.6
			c0.3-0.8,0.6-1.4,1.1-1.9s1-0.9,1.6-1.2c0.6-0.3,1.3-0.4,2-0.4s1.4,0.1,2,0.4c0.6,0.3,1.2,0.6,1.6,1.1c0.4,0.5,0.8,1.1,1.1,1.9
			S397.9,37.2,397.9,38.2z M396.2,38.2c0-1.6-0.3-2.7-0.9-3.5s-1.4-1.2-2.5-1.2s-1.8,0.4-2.5,1.2c-0.6,0.8-0.9,1.9-0.9,3.5
			s0.3,2.7,0.9,3.5c0.6,0.8,1.4,1.2,2.5,1.2s1.9-0.4,2.5-1.2C395.9,41,396.2,39.8,396.2,38.2z"/>
		<path id="XMLID_162_" class="st1" d="M406.9,34.2c-0.2-0.1-0.5-0.2-0.8-0.3c-0.3-0.1-0.6-0.1-1-0.1c-0.8,0-1.4,0.3-1.9,0.9
			s-0.7,1.5-0.7,2.6v6.9h-1.7V32.4h1.7v1.4c0.3-0.5,0.7-0.9,1.2-1.2c0.5-0.3,1.1-0.5,1.7-0.5c0.4,0,0.8,0,1.1,0.1
			c0.3,0.1,0.5,0.1,0.7,0.2L406.9,34.2z"/>
		<path id="XMLID_160_" class="st1" d="M422.9,34.8c-0.4-0.4-0.9-0.7-1.3-0.9s-0.9-0.3-1.5-0.3c-0.5,0-0.9,0.1-1.3,0.3
			c-0.4,0.2-0.7,0.5-1,0.9c-0.3,0.4-0.5,0.9-0.7,1.4c-0.2,0.6-0.2,1.2-0.2,1.9c0,1.4,0.3,2.6,0.9,3.5c0.6,0.9,1.4,1.3,2.4,1.3
			c0.6,0,1.1-0.1,1.5-0.3c0.4-0.2,0.8-0.5,1.2-0.9l1,1.1c-0.5,0.5-1,0.9-1.6,1.2c-0.6,0.3-1.3,0.4-2.1,0.4c-0.6,0-1.3-0.1-1.8-0.4
			c-0.6-0.2-1.1-0.6-1.6-1.1c-0.5-0.5-0.8-1.1-1.1-1.9c-0.3-0.8-0.4-1.6-0.4-2.7c0-1.1,0.1-2,0.4-2.8c0.3-0.8,0.7-1.4,1.2-1.9
			s1-0.9,1.6-1.1s1.2-0.4,1.8-0.4c0.8,0,1.5,0.1,2.1,0.4c0.6,0.3,1.1,0.6,1.6,1L422.9,34.8z"/>
		<path id="XMLID_158_" class="st1" d="M434.2,44.1v-6.9c0-1.3-0.2-2.2-0.7-2.8s-1.1-0.9-2.1-0.9c-0.8,0-1.5,0.3-2.1,0.9
			c-0.6,0.6-0.8,1.5-0.8,2.8v6.9h-1.7V28.8l1.7-0.9l0,6c0.3-0.5,0.8-0.9,1.3-1.2s1.2-0.5,1.9-0.5c0.6,0,1.2,0.1,1.7,0.3
			c0.5,0.2,0.9,0.5,1.3,0.9s0.6,0.9,0.8,1.5c0.2,0.6,0.3,1.3,0.3,2.2v7.1H434.2z"/>
		<path id="XMLID_155_" class="st1" d="M446.2,44.1v-1.4c-0.4,0.4-0.9,0.8-1.5,1.2c-0.6,0.3-1.3,0.5-2.2,0.5c-0.5,0-0.9-0.1-1.4-0.2
			c-0.4-0.1-0.8-0.3-1.2-0.6c-0.4-0.3-0.6-0.7-0.9-1.1c-0.2-0.5-0.3-1.1-0.3-1.8c0-0.7,0.1-1.2,0.4-1.7s0.6-0.9,1-1.2
			c0.4-0.3,0.9-0.5,1.4-0.7c0.5-0.1,1.1-0.2,1.7-0.2c0.6,0,1.1,0.1,1.6,0.2c0.5,0.1,0.9,0.3,1.3,0.5v-1.4c0-1.7-0.8-2.6-2.5-2.6
			c-0.6,0-1.2,0.1-1.7,0.2c-0.5,0.2-1,0.4-1.5,0.7l-0.6-1.4c0.5-0.3,1.1-0.5,1.8-0.7s1.4-0.3,2.1-0.3c1.3,0,2.3,0.3,3,0.9
			c0.7,0.6,1.1,1.6,1.1,2.9v8.2H446.2z M446.2,38.9c-0.4-0.2-0.8-0.4-1.3-0.5c-0.5-0.1-1-0.2-1.7-0.2c-0.9,0-1.5,0.2-2,0.6
			c-0.5,0.4-0.7,1-0.7,1.7c0,0.9,0.2,1.5,0.7,1.9c0.4,0.4,1,0.6,1.7,0.6c0.8,0,1.4-0.2,2-0.5c0.6-0.3,1-0.8,1.4-1.2V38.9z"/>
		<path id="XMLID_153_" class="st1" d="M458.8,44.1v-6.9c0-1.3-0.2-2.2-0.7-2.8s-1.1-0.9-2.1-0.9c-0.8,0-1.5,0.3-2.1,0.9
			c-0.6,0.6-0.8,1.5-0.8,2.8v6.9h-1.7V32.4h1.7l0,1.4c0.3-0.5,0.8-0.9,1.3-1.2s1.2-0.5,1.9-0.5c0.6,0,1.2,0.1,1.7,0.3
			c0.5,0.2,0.9,0.5,1.3,0.9s0.6,0.9,0.8,1.5c0.2,0.6,0.3,1.3,0.3,2.2v7.1H458.8z"/>
		<path id="XMLID_150_" class="st1" d="M472.9,43.1c0,0.9-0.1,1.6-0.3,2.3c-0.2,0.7-0.5,1.2-1,1.6c-0.5,0.4-1.1,0.8-1.8,1
			s-1.7,0.4-2.8,0.4l-0.5-1.3c1,0,1.8-0.1,2.4-0.3c0.6-0.1,1.1-0.4,1.5-0.7c0.4-0.3,0.6-0.7,0.7-1.2c0.1-0.5,0.2-1.1,0.2-1.7v-0.6
			c-0.4,0.4-0.9,0.8-1.5,1.2s-1.2,0.5-2.1,0.5c-0.6,0-1.1-0.1-1.6-0.3c-0.5-0.2-1-0.6-1.3-1.1c-0.4-0.5-0.7-1.1-0.9-1.8
			c-0.2-0.8-0.3-1.6-0.3-2.7c0-1,0.1-2,0.3-2.7s0.5-1.4,0.9-2c0.4-0.5,0.9-0.9,1.4-1.2c0.5-0.3,1.1-0.4,1.7-0.4
			c0.7,0,1.4,0.1,1.9,0.4c0.5,0.3,1,0.7,1.4,1.1v-1.3h1.7V43.1z M471.2,35.4c-0.3-0.5-0.8-0.9-1.3-1.3c-0.5-0.3-1.2-0.5-1.9-0.5
			c-1,0-1.7,0.4-2.2,1.2s-0.7,2-0.7,3.6c0,1.5,0.3,2.6,0.8,3.4c0.5,0.8,1.2,1.1,2.2,1.1c0.6,0,1.2-0.2,1.7-0.5s1-0.7,1.4-1.2V35.4z"
			/>
		<path id="XMLID_147_" class="st1" d="M485.5,37.9c0,0.2,0,0.4,0,0.5s0,0.3-0.1,0.4h-7.8c0.1,1.3,0.4,2.3,1,3
			c0.6,0.7,1.3,1.1,2.3,1.1c0.7,0,1.3-0.1,1.7-0.3c0.5-0.2,1-0.5,1.5-0.8l0.8,1.2c-0.4,0.2-0.7,0.4-1,0.6c-0.3,0.2-0.6,0.3-1,0.4
			c-0.3,0.1-0.7,0.2-1,0.3c-0.4,0.1-0.8,0.1-1.2,0.1c-0.5,0-1.1-0.1-1.6-0.3s-1.1-0.6-1.5-1c-0.5-0.5-0.8-1.1-1.1-1.9
			s-0.5-1.8-0.5-2.9c0-0.9,0.1-1.8,0.4-2.5s0.6-1.4,1-1.9c0.4-0.5,0.9-0.9,1.5-1.2s1.2-0.4,1.9-0.4c0.8,0,1.4,0.1,2,0.4
			s1.1,0.7,1.5,1.2s0.7,1.1,0.9,1.8C485.4,36.3,485.5,37.1,485.5,37.9z M484,37.5c-0.1-1.2-0.4-2.1-0.9-2.8
			c-0.5-0.7-1.3-1.1-2.3-1.1c-0.9,0-1.6,0.3-2.1,1c-0.6,0.6-0.9,1.6-1,2.9H484z"/>
		<path id="XMLID_145_" class="st1" d="M495.9,41.1c0,0.6-0.1,1.1-0.3,1.5c-0.2,0.4-0.5,0.8-0.9,1s-0.8,0.5-1.3,0.6
			c-0.5,0.1-1,0.2-1.5,0.2c-0.8,0-1.5-0.1-2.2-0.4c-0.7-0.3-1.3-0.6-1.9-1.1l1-1.2c0.5,0.4,1,0.7,1.5,1c0.5,0.2,1.1,0.3,1.7,0.3
			c0.8,0,1.4-0.2,1.8-0.5c0.4-0.3,0.6-0.8,0.6-1.3c0-0.2,0-0.5-0.1-0.6c-0.1-0.2-0.3-0.4-0.5-0.6c-0.2-0.2-0.5-0.4-0.8-0.6
			c-0.3-0.2-0.8-0.4-1.3-0.6c-0.6-0.3-1.1-0.5-1.5-0.7c-0.4-0.2-0.8-0.5-1-0.7s-0.5-0.6-0.6-0.9s-0.2-0.7-0.2-1.2
			c0-0.4,0.1-0.9,0.3-1.2c0.2-0.4,0.4-0.7,0.8-0.9c0.3-0.3,0.7-0.5,1.1-0.6c0.4-0.1,0.9-0.2,1.5-0.2c0.8,0,1.5,0.1,2.1,0.3
			c0.6,0.2,1.2,0.5,1.6,0.9l-0.9,1.2c-0.5-0.4-0.9-0.6-1.3-0.8c-0.4-0.2-1-0.3-1.6-0.3c-0.6,0-1.1,0.1-1.4,0.4
			c-0.3,0.3-0.5,0.6-0.5,1c0,0.3,0,0.5,0.1,0.6s0.2,0.4,0.4,0.5c0.2,0.2,0.5,0.3,0.8,0.5c0.3,0.2,0.7,0.4,1.2,0.6
			c0.5,0.3,1,0.5,1.5,0.7c0.4,0.2,0.8,0.5,1.1,0.7s0.5,0.6,0.7,1C495.8,40.1,495.9,40.6,495.9,41.1z"/>
		<path id="XMLID_142_" class="st1" d="M507,29.2c0,0.3-0.1,0.6-0.3,0.8s-0.5,0.3-0.8,0.3c-0.3,0-0.6-0.1-0.9-0.3
			c-0.2-0.2-0.4-0.5-0.4-0.8c0-0.3,0.1-0.6,0.4-0.9c0.2-0.2,0.5-0.3,0.9-0.3c0.3,0,0.6,0.1,0.8,0.3S507,28.8,507,29.2z M504.9,44.1
			V32.4h1.7v11.7H504.9z"/>
		<path id="XMLID_140_" class="st1" d="M517.8,44.1v-6.9c0-1.3-0.2-2.2-0.7-2.8s-1.1-0.9-2.1-0.9c-0.8,0-1.5,0.3-2.1,0.9
			c-0.6,0.6-0.8,1.5-0.8,2.8v6.9h-1.7V32.4h1.7l0,1.4c0.3-0.5,0.8-0.9,1.3-1.2s1.2-0.5,1.9-0.5c0.6,0,1.2,0.1,1.7,0.3
			c0.5,0.2,0.9,0.5,1.3,0.9s0.6,0.9,0.8,1.5c0.2,0.6,0.3,1.3,0.3,2.2v7.1H517.8z"/>
		<path id="XMLID_138_" class="st1" d="M536.1,41.1c0,0.6-0.1,1.1-0.3,1.5c-0.2,0.4-0.5,0.8-0.9,1s-0.8,0.5-1.3,0.6
			c-0.5,0.1-1,0.2-1.5,0.2c-0.8,0-1.5-0.1-2.2-0.4c-0.7-0.3-1.3-0.6-1.9-1.1l1-1.2c0.5,0.4,1,0.7,1.5,1c0.5,0.2,1.1,0.3,1.7,0.3
			c0.8,0,1.4-0.2,1.8-0.5c0.4-0.3,0.6-0.8,0.6-1.3c0-0.2,0-0.5-0.1-0.6c-0.1-0.2-0.3-0.4-0.5-0.6c-0.2-0.2-0.5-0.4-0.8-0.6
			c-0.3-0.2-0.8-0.4-1.3-0.6c-0.6-0.3-1.1-0.5-1.5-0.7c-0.4-0.2-0.8-0.5-1-0.7s-0.5-0.6-0.6-0.9s-0.2-0.7-0.2-1.2
			c0-0.4,0.1-0.9,0.3-1.2c0.2-0.4,0.4-0.7,0.8-0.9c0.3-0.3,0.7-0.5,1.1-0.6c0.4-0.1,0.9-0.2,1.5-0.2c0.8,0,1.5,0.1,2.1,0.3
			c0.6,0.2,1.2,0.5,1.6,0.9l-0.9,1.2c-0.5-0.4-0.9-0.6-1.3-0.8c-0.4-0.2-1-0.3-1.6-0.3c-0.6,0-1.1,0.1-1.4,0.4
			c-0.3,0.3-0.5,0.6-0.5,1c0,0.3,0,0.5,0.1,0.6s0.2,0.4,0.4,0.5c0.2,0.2,0.5,0.3,0.8,0.5c0.3,0.2,0.7,0.4,1.2,0.6
			c0.5,0.3,1,0.5,1.5,0.7c0.4,0.2,0.8,0.5,1.1,0.7s0.5,0.6,0.7,1C536,40.1,536.1,40.6,536.1,41.1z"/>
		<path id="XMLID_135_" class="st1" d="M548.2,37.9c0,0.2,0,0.4,0,0.5s0,0.3-0.1,0.4h-7.8c0.1,1.3,0.4,2.3,1,3
			c0.6,0.7,1.3,1.1,2.3,1.1c0.7,0,1.3-0.1,1.7-0.3c0.5-0.2,1-0.5,1.5-0.8l0.8,1.2c-0.4,0.2-0.7,0.4-1,0.6c-0.3,0.2-0.6,0.3-1,0.4
			c-0.3,0.1-0.7,0.2-1,0.3c-0.4,0.1-0.8,0.1-1.2,0.1c-0.5,0-1.1-0.1-1.6-0.3s-1.1-0.6-1.5-1c-0.5-0.5-0.8-1.1-1.1-1.9
			s-0.5-1.8-0.5-2.9c0-0.9,0.1-1.8,0.4-2.5s0.6-1.4,1-1.9c0.4-0.5,0.9-0.9,1.5-1.2s1.2-0.4,1.9-0.4c0.8,0,1.4,0.1,2,0.4
			s1.1,0.7,1.5,1.2s0.7,1.1,0.9,1.8C548.1,36.3,548.2,37.1,548.2,37.9z M546.6,37.5c-0.1-1.2-0.4-2.1-0.9-2.8
			c-0.5-0.7-1.3-1.1-2.3-1.1c-0.9,0-1.6,0.3-2.1,1c-0.6,0.6-0.9,1.6-1,2.9H546.6z"/>
		<path id="XMLID_132_" class="st1" d="M553.5,29.2c0,0.3-0.1,0.6-0.3,0.8s-0.5,0.3-0.8,0.3c-0.3,0-0.6-0.1-0.9-0.3
			c-0.2-0.2-0.4-0.5-0.4-0.8c0-0.3,0.1-0.6,0.4-0.9c0.2-0.2,0.5-0.3,0.9-0.3c0.3,0,0.6,0.1,0.8,0.3S553.5,28.8,553.5,29.2z
			 M551.4,44.1V32.4h1.7v11.7H551.4z"/>
		<path id="XMLID_130_" class="st1" d="M556.3,44.1v-1.2l6.4-9.1h-5.9v-1.4h7.8v1.2l-6.4,9.1h6.4v1.4H556.3z"/>
		<path id="XMLID_128_" class="st1" d="M575.1,44.1v-1.4c-0.3,0.5-0.8,0.9-1.3,1.2c-0.5,0.3-1.2,0.5-1.9,0.5c-0.6,0-1.2-0.1-1.7-0.3
			c-0.5-0.2-0.9-0.5-1.3-0.9c-0.4-0.4-0.6-0.9-0.8-1.5c-0.2-0.6-0.3-1.3-0.3-2.2v-7.1h1.7v6.9c0,1.3,0.2,2.2,0.7,2.8
			c0.5,0.6,1.1,0.9,2.1,0.9c0.8,0,1.5-0.3,2.1-0.9c0.6-0.6,0.8-1.5,0.8-2.8v-6.9h1.7v11.7H575.1z"/>
		<path id="XMLID_126_" class="st1" d="M586.5,34.2c-0.2-0.1-0.5-0.2-0.8-0.3c-0.3-0.1-0.6-0.1-1-0.1c-0.8,0-1.4,0.3-1.9,0.9
			s-0.7,1.5-0.7,2.6v6.9h-1.7V32.4h1.7v1.4c0.3-0.5,0.7-0.9,1.2-1.2c0.5-0.3,1.1-0.5,1.7-0.5c0.4,0,0.8,0,1.1,0.1
			c0.3,0.1,0.5,0.1,0.7,0.2L586.5,34.2z"/>
		<path id="XMLID_123_" class="st1" d="M598.5,37.9c0,0.2,0,0.4,0,0.5s0,0.3-0.1,0.4h-7.8c0.1,1.3,0.4,2.3,1,3
			c0.6,0.7,1.3,1.1,2.3,1.1c0.7,0,1.3-0.1,1.7-0.3c0.5-0.2,1-0.5,1.5-0.8l0.8,1.2c-0.4,0.2-0.7,0.4-1,0.6c-0.3,0.2-0.6,0.3-1,0.4
			c-0.3,0.1-0.7,0.2-1,0.3c-0.4,0.1-0.8,0.1-1.2,0.1c-0.5,0-1.1-0.1-1.6-0.3s-1.1-0.6-1.5-1c-0.5-0.5-0.8-1.1-1.1-1.9
			s-0.5-1.8-0.5-2.9c0-0.9,0.1-1.8,0.4-2.5s0.6-1.4,1-1.9c0.4-0.5,0.9-0.9,1.5-1.2s1.2-0.4,1.9-0.4c0.8,0,1.4,0.1,2,0.4
			s1.1,0.7,1.5,1.2s0.7,1.1,0.9,1.8C598.4,36.3,598.5,37.1,598.5,37.9z M596.9,37.5c-0.1-1.2-0.4-2.1-0.9-2.8
			c-0.5-0.7-1.3-1.1-2.3-1.1c-0.9,0-1.6,0.3-2.1,1c-0.6,0.6-0.9,1.6-1,2.9H596.9z"/>
		<path id="XMLID_121_" class="st1" d="M611.1,29.5c-0.3,0-0.6,0.1-0.9,0.2s-0.3,0.5-0.3,1v1.7h2.3v1.4h-2.3v10.3h-1.7V33.9h-1.6
			v-1.4h1.6v-1.6c0-1,0.3-1.8,0.8-2.2c0.5-0.4,1.2-0.7,2-0.7c0.3,0,0.6,0,0.8,0c0.2,0,0.4,0.1,0.6,0.2v1.6
			C612.1,29.6,611.6,29.5,611.1,29.5z"/>
		<path id="XMLID_119_" class="st1" d="M621.4,34.2c-0.2-0.1-0.5-0.2-0.8-0.3c-0.3-0.1-0.6-0.1-1-0.1c-0.8,0-1.4,0.3-1.9,0.9
			s-0.7,1.5-0.7,2.6v6.9h-1.7V32.4h1.7v1.4c0.3-0.5,0.7-0.9,1.2-1.2c0.5-0.3,1.1-0.5,1.7-0.5c0.4,0,0.8,0,1.1,0.1
			c0.3,0.1,0.5,0.1,0.7,0.2L621.4,34.2z"/>
		<path id="XMLID_116_" class="st1" d="M633.3,37.9c0,0.2,0,0.4,0,0.5s0,0.3-0.1,0.4h-7.8c0.1,1.3,0.4,2.3,1,3
			c0.6,0.7,1.3,1.1,2.3,1.1c0.7,0,1.3-0.1,1.7-0.3c0.5-0.2,1-0.5,1.5-0.8l0.8,1.2c-0.4,0.2-0.7,0.4-1,0.6c-0.3,0.2-0.6,0.3-1,0.4
			c-0.3,0.1-0.7,0.2-1,0.3c-0.4,0.1-0.8,0.1-1.2,0.1c-0.5,0-1.1-0.1-1.6-0.3s-1.1-0.6-1.5-1c-0.5-0.5-0.8-1.1-1.1-1.9
			s-0.5-1.8-0.5-2.9c0-0.9,0.1-1.8,0.4-2.5s0.6-1.4,1-1.9c0.4-0.5,0.9-0.9,1.5-1.2s1.2-0.4,1.9-0.4c0.8,0,1.4,0.1,2,0.4
			s1.1,0.7,1.5,1.2s0.7,1.1,0.9,1.8C633.2,36.3,633.3,37.1,633.3,37.9z M631.8,37.5c-0.1-1.2-0.4-2.1-0.9-2.8
			c-0.5-0.7-1.3-1.1-2.3-1.1c-0.9,0-1.6,0.3-2.1,1c-0.6,0.6-0.9,1.6-1,2.9H631.8z"/>
		<path id="XMLID_113_" class="st1" d="M643.6,48.4v-5.7c-0.4,0.4-0.9,0.8-1.5,1.2s-1.2,0.5-2.1,0.5c-0.6,0-1.1-0.1-1.6-0.3
			c-0.5-0.2-1-0.6-1.3-1.1c-0.4-0.5-0.7-1.1-0.9-1.8c-0.2-0.8-0.3-1.6-0.3-2.7c0-1,0.1-2,0.3-2.7s0.5-1.4,0.9-2
			c0.4-0.5,0.9-0.9,1.4-1.2c0.5-0.3,1.1-0.4,1.7-0.4c0.7,0,1.4,0.1,1.9,0.4c0.5,0.3,1,0.7,1.4,1.1v-1.3h1.7v15.1L643.6,48.4z
			 M643.6,35.4c-0.3-0.5-0.8-0.9-1.3-1.3c-0.5-0.3-1.2-0.5-1.9-0.5c-1,0-1.7,0.4-2.2,1.2s-0.7,2-0.7,3.6c0,1.5,0.3,2.6,0.8,3.4
			c0.5,0.8,1.2,1.1,2.2,1.1c0.6,0,1.2-0.2,1.7-0.5s1-0.7,1.4-1.2V35.4z"/>
		<path id="XMLID_111_" class="st1" d="M656.2,44.1v-1.4c-0.3,0.5-0.8,0.9-1.3,1.2c-0.5,0.3-1.2,0.5-1.9,0.5c-0.6,0-1.2-0.1-1.7-0.3
			c-0.5-0.2-0.9-0.5-1.3-0.9c-0.4-0.4-0.6-0.9-0.8-1.5c-0.2-0.6-0.3-1.3-0.3-2.2v-7.1h1.7v6.9c0,1.3,0.2,2.2,0.7,2.8
			c0.5,0.6,1.1,0.9,2.1,0.9c0.8,0,1.5-0.3,2.1-0.9c0.6-0.6,0.8-1.5,0.8-2.8v-6.9h1.7v11.7H656.2z"/>
		<path id="XMLID_108_" class="st1" d="M670.5,37.9c0,0.2,0,0.4,0,0.5s0,0.3-0.1,0.4h-7.8c0.1,1.3,0.4,2.3,1,3
			c0.6,0.7,1.3,1.1,2.3,1.1c0.7,0,1.3-0.1,1.7-0.3c0.5-0.2,1-0.5,1.5-0.8l0.8,1.2c-0.4,0.2-0.7,0.4-1,0.6c-0.3,0.2-0.6,0.3-1,0.4
			c-0.3,0.1-0.7,0.2-1,0.3c-0.4,0.1-0.8,0.1-1.2,0.1c-0.5,0-1.1-0.1-1.6-0.3s-1.1-0.6-1.5-1c-0.5-0.5-0.8-1.1-1.1-1.9
			s-0.5-1.8-0.5-2.9c0-0.9,0.1-1.8,0.4-2.5s0.6-1.4,1-1.9c0.4-0.5,0.9-0.9,1.5-1.2s1.2-0.4,1.9-0.4c0.8,0,1.4,0.1,2,0.4
			s1.1,0.7,1.5,1.2s0.7,1.1,0.9,1.8C670.4,36.3,670.5,37.1,670.5,37.9z M668.9,37.5c-0.1-1.2-0.4-2.1-0.9-2.8
			c-0.5-0.7-1.3-1.1-2.3-1.1c-0.9,0-1.6,0.3-2.1,1c-0.6,0.6-0.9,1.6-1,2.9H668.9z"/>
		<path id="XMLID_106_" class="st1" d="M680.9,44.1v-6.9c0-1.3-0.2-2.2-0.7-2.8s-1.1-0.9-2.1-0.9c-0.8,0-1.5,0.3-2.1,0.9
			c-0.6,0.6-0.8,1.5-0.8,2.8v6.9h-1.7V32.4h1.7l0,1.4c0.3-0.5,0.8-0.9,1.3-1.2s1.2-0.5,1.9-0.5c0.6,0,1.2,0.1,1.7,0.3
			c0.5,0.2,0.9,0.5,1.3,0.9s0.6,0.9,0.8,1.5c0.2,0.6,0.3,1.3,0.3,2.2v7.1H680.9z"/>
		<path id="XMLID_104_" class="st1" d="M693.4,34.8c-0.4-0.4-0.9-0.7-1.3-0.9s-0.9-0.3-1.5-0.3c-0.5,0-0.9,0.1-1.3,0.3
			c-0.4,0.2-0.7,0.5-1,0.9c-0.3,0.4-0.5,0.9-0.7,1.4c-0.2,0.6-0.2,1.2-0.2,1.9c0,1.4,0.3,2.6,0.9,3.5c0.6,0.9,1.4,1.3,2.4,1.3
			c0.6,0,1.1-0.1,1.5-0.3c0.4-0.2,0.8-0.5,1.2-0.9l1,1.1c-0.5,0.5-1,0.9-1.6,1.2c-0.6,0.3-1.3,0.4-2.1,0.4c-0.6,0-1.3-0.1-1.8-0.4
			c-0.6-0.2-1.1-0.6-1.6-1.1c-0.5-0.5-0.8-1.1-1.1-1.9c-0.3-0.8-0.4-1.6-0.4-2.7c0-1.1,0.1-2,0.4-2.8c0.3-0.8,0.7-1.4,1.2-1.9
			s1-0.9,1.6-1.1s1.2-0.4,1.8-0.4c0.8,0,1.5,0.1,2.1,0.4c0.6,0.3,1.1,0.6,1.6,1L693.4,34.8z"/>
		<path id="XMLID_102_" class="st1" d="M700.6,48.3h-1.7l1.6-4.3l-4.2-11.6h1.8l2.9,8.5l0.4,1.2l0.4-1.2l2.9-8.5h1.8L700.6,48.3z"/>
		<path id="XMLID_99_" class="st1" d="M724.3,38.1c0,1-0.1,2-0.3,2.7s-0.5,1.4-0.9,2c-0.4,0.5-0.9,0.9-1.4,1.2
			c-0.5,0.3-1.1,0.4-1.7,0.4c-0.7,0-1.4-0.1-1.9-0.4s-1-0.7-1.4-1.1v4.7l-1.7,0.9v-16h1.7l0,1.4c0.4-0.4,0.9-0.8,1.5-1.2
			c0.6-0.3,1.2-0.5,2.1-0.5c0.6,0,1.1,0.1,1.6,0.3c0.5,0.2,1,0.6,1.3,1.1s0.7,1.1,0.9,1.8C724.2,36.2,724.3,37.1,724.3,38.1z
			 M722.6,38.1c0-1.5-0.3-2.6-0.8-3.4c-0.5-0.8-1.2-1.1-2.2-1.1c-0.6,0-1.2,0.2-1.7,0.5s-1,0.7-1.4,1.2v5.9c0.3,0.5,0.8,0.9,1.3,1.3
			c0.5,0.3,1.2,0.5,1.9,0.5c1,0,1.7-0.4,2.2-1.2S722.6,39.7,722.6,38.1z"/>
		<path id="XMLID_96_" class="st1" d="M736.3,37.9c0,0.2,0,0.4,0,0.5s0,0.3-0.1,0.4h-7.8c0.1,1.3,0.4,2.3,1,3
			c0.6,0.7,1.3,1.1,2.3,1.1c0.7,0,1.3-0.1,1.7-0.3c0.5-0.2,1-0.5,1.5-0.8l0.8,1.2c-0.4,0.2-0.7,0.4-1,0.6c-0.3,0.2-0.6,0.3-1,0.4
			c-0.3,0.1-0.7,0.2-1,0.3c-0.4,0.1-0.8,0.1-1.2,0.1c-0.5,0-1.1-0.1-1.6-0.3s-1.1-0.6-1.5-1c-0.5-0.5-0.8-1.1-1.1-1.9
			s-0.5-1.8-0.5-2.9c0-0.9,0.1-1.8,0.4-2.5s0.6-1.4,1-1.9c0.4-0.5,0.9-0.9,1.5-1.2s1.2-0.4,1.9-0.4c0.8,0,1.4,0.1,2,0.4
			s1.1,0.7,1.5,1.2s0.7,1.1,0.9,1.8C736.2,36.3,736.3,37.1,736.3,37.9z M734.7,37.5c-0.1-1.2-0.4-2.1-0.9-2.8
			c-0.5-0.7-1.3-1.1-2.3-1.1c-0.9,0-1.6,0.3-2.1,1c-0.6,0.6-0.9,1.6-1,2.9H734.7z"/>
		<path id="XMLID_94_" class="st1" d="M745.4,34.2c-0.2-0.1-0.5-0.2-0.8-0.3c-0.3-0.1-0.6-0.1-1-0.1c-0.8,0-1.4,0.3-1.9,0.9
			s-0.7,1.5-0.7,2.6v6.9h-1.7V32.4h1.7v1.4c0.3-0.5,0.7-0.9,1.2-1.2c0.5-0.3,1.1-0.5,1.7-0.5c0.4,0,0.8,0,1.1,0.1
			c0.3,0.1,0.5,0.1,0.7,0.2L745.4,34.2z"/>
		<path id="XMLID_92_" class="st1" d="M764.6,44.1H763l-2.1-7.8c0-0.1-0.1-0.2-0.1-0.4c0-0.1-0.1-0.3-0.1-0.4c0-0.2-0.1-0.3-0.1-0.5
			c0-0.1-0.1-0.3-0.1-0.4c0,0.1,0,0.2-0.1,0.4c0,0.1-0.1,0.3-0.1,0.5c0,0.2-0.1,0.3-0.1,0.4c0,0.1-0.1,0.3-0.1,0.4l-2.1,7.8h-1.5
			l-3.1-11.7h1.7l1.8,7.7c0,0.1,0,0.2,0.1,0.4c0,0.1,0.1,0.3,0.1,0.4c0,0.2,0.1,0.3,0.1,0.5s0,0.3,0.1,0.4c0-0.1,0-0.2,0.1-0.4
			c0-0.1,0.1-0.3,0.1-0.5c0-0.2,0.1-0.3,0.1-0.4s0.1-0.3,0.1-0.4l2.1-7.7h1.5l2.1,7.7c0,0.1,0.1,0.2,0.1,0.4s0.1,0.3,0.1,0.4
			c0,0.2,0.1,0.3,0.1,0.5c0,0.1,0.1,0.3,0.1,0.4c0-0.1,0-0.2,0.1-0.4c0-0.1,0.1-0.3,0.1-0.5s0.1-0.3,0.1-0.4s0-0.3,0.1-0.4l1.8-7.7
			h1.7L764.6,44.1z"/>
		<path id="XMLID_89_" class="st1" d="M779.4,37.9c0,0.2,0,0.4,0,0.5s0,0.3-0.1,0.4h-7.8c0.1,1.3,0.4,2.3,1,3
			c0.6,0.7,1.3,1.1,2.3,1.1c0.7,0,1.3-0.1,1.7-0.3c0.5-0.2,1-0.5,1.5-0.8l0.8,1.2c-0.4,0.2-0.7,0.4-1,0.6c-0.3,0.2-0.6,0.3-1,0.4
			c-0.3,0.1-0.7,0.2-1,0.3c-0.4,0.1-0.8,0.1-1.2,0.1c-0.5,0-1.1-0.1-1.6-0.3s-1.1-0.6-1.5-1c-0.5-0.5-0.8-1.1-1.1-1.9
			s-0.5-1.8-0.5-2.9c0-0.9,0.1-1.8,0.4-2.5s0.6-1.4,1-1.9c0.4-0.5,0.9-0.9,1.5-1.2s1.2-0.4,1.9-0.4c0.8,0,1.4,0.1,2,0.4
			s1.1,0.7,1.5,1.2s0.7,1.1,0.9,1.8C779.3,36.3,779.4,37.1,779.4,37.9z M777.9,37.5c-0.1-1.2-0.4-2.1-0.9-2.8
			c-0.5-0.7-1.3-1.1-2.3-1.1c-0.9,0-1.6,0.3-2.1,1c-0.6,0.6-0.9,1.6-1,2.9H777.9z"/>
		<path id="XMLID_86_" class="st1" d="M791.5,37.9c0,0.2,0,0.4,0,0.5s0,0.3-0.1,0.4h-7.8c0.1,1.3,0.4,2.3,1,3
			c0.6,0.7,1.3,1.1,2.3,1.1c0.7,0,1.3-0.1,1.7-0.3c0.5-0.2,1-0.5,1.5-0.8l0.8,1.2c-0.4,0.2-0.7,0.4-1,0.6c-0.3,0.2-0.6,0.3-1,0.4
			c-0.3,0.1-0.7,0.2-1,0.3c-0.4,0.1-0.8,0.1-1.2,0.1c-0.5,0-1.1-0.1-1.6-0.3s-1.1-0.6-1.5-1c-0.5-0.5-0.8-1.1-1.1-1.9
			s-0.5-1.8-0.5-2.9c0-0.9,0.1-1.8,0.4-2.5s0.6-1.4,1-1.9c0.4-0.5,0.9-0.9,1.5-1.2s1.2-0.4,1.9-0.4c0.8,0,1.4,0.1,2,0.4
			s1.1,0.7,1.5,1.2s0.7,1.1,0.9,1.8C791.4,36.3,791.5,37.1,791.5,37.9z M789.9,37.5c-0.1-1.2-0.4-2.1-0.9-2.8
			c-0.5-0.7-1.3-1.1-2.3-1.1c-0.9,0-1.6,0.3-2.1,1c-0.6,0.6-0.9,1.6-1,2.9H789.9z"/>
		<path id="XMLID_84_" class="st1" d="M801.3,44.1l-3-6.2l-2,2.8v3.4h-1.7V28.8l1.7-0.9V38v0.6l0.5-0.7l3.8-5.4h1.9l-3.1,4.1
			l3.7,7.6H801.3z"/>
		<path id="XMLID_82_" class="st1" d="M806.5,46.8h-1.2l0.3-5.2h2.3L806.5,46.8z"/>
		<path id="XMLID_80_" class="st1" d="M8.1,67.8c0,0.6-0.1,1.1-0.3,1.5c-0.2,0.4-0.5,0.8-0.9,1s-0.8,0.5-1.3,0.6
			c-0.5,0.1-1,0.2-1.5,0.2c-0.8,0-1.5-0.1-2.2-0.4c-0.7-0.3-1.3-0.6-1.9-1.1l1-1.2c0.5,0.4,1,0.7,1.5,1c0.5,0.2,1.1,0.3,1.7,0.3
			c0.8,0,1.4-0.2,1.8-0.5c0.4-0.3,0.6-0.8,0.6-1.3c0-0.2,0-0.5-0.1-0.6c-0.1-0.2-0.3-0.4-0.5-0.6c-0.2-0.2-0.5-0.4-0.8-0.6
			c-0.3-0.2-0.8-0.4-1.3-0.6c-0.6-0.3-1.1-0.5-1.5-0.7c-0.4-0.2-0.8-0.5-1-0.7s-0.5-0.6-0.6-0.9s-0.2-0.7-0.2-1.2
			c0-0.4,0.1-0.9,0.3-1.2c0.2-0.4,0.4-0.7,0.8-0.9c0.3-0.3,0.7-0.5,1.1-0.6c0.4-0.1,0.9-0.2,1.5-0.2c0.8,0,1.5,0.1,2.1,0.3
			c0.6,0.2,1.2,0.5,1.6,0.9l-0.9,1.2c-0.5-0.4-0.9-0.6-1.3-0.8c-0.4-0.2-1-0.3-1.6-0.3c-0.6,0-1.1,0.1-1.4,0.4
			c-0.3,0.3-0.5,0.6-0.5,1c0,0.3,0,0.5,0.1,0.6s0.2,0.4,0.4,0.5c0.2,0.2,0.5,0.3,0.8,0.5c0.3,0.2,0.7,0.4,1.2,0.6
			c0.5,0.3,1,0.5,1.5,0.7c0.4,0.2,0.8,0.5,1.1,0.7s0.5,0.6,0.7,1C8.1,66.9,8.1,67.3,8.1,67.8z"/>
		<path id="XMLID_77_" class="st1" d="M20.2,64.7c0,0.2,0,0.4,0,0.5s0,0.3-0.1,0.4h-7.8c0.1,1.3,0.4,2.3,1,3
			c0.6,0.7,1.3,1.1,2.3,1.1c0.7,0,1.3-0.1,1.7-0.3c0.5-0.2,1-0.5,1.5-0.8l0.8,1.2c-0.4,0.2-0.7,0.4-1,0.6c-0.3,0.2-0.6,0.3-1,0.4
			c-0.3,0.1-0.7,0.2-1,0.3c-0.4,0.1-0.8,0.1-1.2,0.1c-0.5,0-1.1-0.1-1.6-0.3s-1.1-0.6-1.5-1c-0.5-0.5-0.8-1.1-1.1-1.9
			s-0.5-1.8-0.5-2.9c0-0.9,0.1-1.8,0.4-2.5s0.6-1.4,1-1.9c0.4-0.5,0.9-0.9,1.5-1.2s1.2-0.4,1.9-0.4c0.8,0,1.4,0.1,2,0.4
			s1.1,0.7,1.5,1.2s0.7,1.1,0.9,1.8C20.1,63.1,20.2,63.9,20.2,64.7z M18.7,64.2c-0.1-1.2-0.4-2.1-0.9-2.8c-0.5-0.7-1.3-1.1-2.3-1.1
			c-0.9,0-1.6,0.3-2.1,1c-0.6,0.6-0.9,1.6-1,2.9H18.7z"/>
		<path id="XMLID_74_" class="st1" d="M25.5,55.9c0,0.3-0.1,0.6-0.3,0.8s-0.5,0.3-0.8,0.3c-0.3,0-0.6-0.1-0.9-0.3
			c-0.2-0.2-0.4-0.5-0.4-0.8c0-0.3,0.1-0.6,0.4-0.9c0.2-0.2,0.5-0.3,0.9-0.3c0.3,0,0.6,0.1,0.8,0.3S25.5,55.6,25.5,55.9z M23.5,70.9
			V59.2h1.7v11.7H23.5z"/>
		<path id="XMLID_72_" class="st1" d="M28.3,70.9v-1.2l6.4-9.1h-5.9v-1.4h7.8v1.2l-6.4,9.1h6.4v1.4H28.3z"/>
		<path id="XMLID_70_" class="st1" d="M47.2,70.9v-1.4c-0.3,0.5-0.8,0.9-1.3,1.2c-0.5,0.3-1.2,0.5-1.9,0.5c-0.6,0-1.2-0.1-1.7-0.3
			c-0.5-0.2-0.9-0.5-1.3-0.9c-0.4-0.4-0.6-0.9-0.8-1.5c-0.2-0.6-0.3-1.3-0.3-2.2v-7.1h1.7V66c0,1.3,0.2,2.2,0.7,2.8
			c0.5,0.6,1.1,0.9,2.1,0.9c0.8,0,1.5-0.3,2.1-0.9c0.6-0.6,0.8-1.5,0.8-2.8v-6.9h1.7v11.7H47.2z"/>
		<path id="XMLID_68_" class="st1" d="M58.5,60.9c-0.2-0.1-0.5-0.2-0.8-0.3c-0.3-0.1-0.6-0.1-1-0.1c-0.8,0-1.4,0.3-1.9,0.9
			s-0.7,1.5-0.7,2.6v6.9h-1.7V59.2h1.7v1.4c0.3-0.5,0.7-0.9,1.2-1.2c0.5-0.3,1.1-0.5,1.7-0.5c0.4,0,0.8,0,1.1,0.1
			c0.3,0.1,0.5,0.1,0.7,0.2L58.5,60.9z"/>
		<path id="XMLID_65_" class="st1" d="M70.5,64.7c0,0.2,0,0.4,0,0.5s0,0.3-0.1,0.4h-7.8c0.1,1.3,0.4,2.3,1,3
			c0.6,0.7,1.3,1.1,2.3,1.1c0.7,0,1.3-0.1,1.7-0.3c0.5-0.2,1-0.5,1.5-0.8l0.8,1.2c-0.4,0.2-0.7,0.4-1,0.6c-0.3,0.2-0.6,0.3-1,0.4
			c-0.3,0.1-0.7,0.2-1,0.3c-0.4,0.1-0.8,0.1-1.2,0.1c-0.5,0-1.1-0.1-1.6-0.3s-1.1-0.6-1.5-1c-0.5-0.5-0.8-1.1-1.1-1.9S61,66.1,61,65
			c0-0.9,0.1-1.8,0.4-2.5s0.6-1.4,1-1.9c0.4-0.5,0.9-0.9,1.5-1.2s1.2-0.4,1.9-0.4c0.8,0,1.4,0.1,2,0.4s1.1,0.7,1.5,1.2
			s0.7,1.1,0.9,1.8C70.4,63.1,70.5,63.9,70.5,64.7z M69,64.2c-0.1-1.2-0.4-2.1-0.9-2.8c-0.5-0.7-1.3-1.1-2.3-1.1
			c-0.9,0-1.6,0.3-2.1,1c-0.6,0.6-0.9,1.6-1,2.9H69z"/>
		<path id="XMLID_63_" class="st1" d="M83.1,56.2c-0.3,0-0.6,0.1-0.9,0.2s-0.3,0.5-0.3,1v1.7h2.3v1.4h-2.3v10.3h-1.7V60.6h-1.6v-1.4
			h1.6v-1.6c0-1,0.3-1.8,0.8-2.2c0.5-0.4,1.2-0.7,2-0.7c0.3,0,0.6,0,0.8,0c0.2,0,0.4,0.1,0.6,0.2v1.6C84.1,56.3,83.7,56.2,83.1,56.2
			z"/>
		<path id="XMLID_61_" class="st1" d="M93.4,60.9c-0.2-0.1-0.5-0.2-0.8-0.3c-0.3-0.1-0.6-0.1-1-0.1c-0.8,0-1.4,0.3-1.9,0.9
			s-0.7,1.5-0.7,2.6v6.9h-1.7V59.2h1.7v1.4c0.3-0.5,0.7-0.9,1.2-1.2c0.5-0.3,1.1-0.5,1.7-0.5c0.4,0,0.8,0,1.1,0.1
			c0.3,0.1,0.5,0.1,0.7,0.2L93.4,60.9z"/>
		<path id="XMLID_58_" class="st1" d="M105.4,64.7c0,0.2,0,0.4,0,0.5s0,0.3-0.1,0.4h-7.8c0.1,1.3,0.4,2.3,1,3
			c0.6,0.7,1.3,1.1,2.3,1.1c0.7,0,1.3-0.1,1.7-0.3c0.5-0.2,1-0.5,1.5-0.8l0.8,1.2c-0.4,0.2-0.7,0.4-1,0.6c-0.3,0.2-0.6,0.3-1,0.4
			c-0.3,0.1-0.7,0.2-1,0.3c-0.4,0.1-0.8,0.1-1.2,0.1c-0.5,0-1.1-0.1-1.6-0.3s-1.1-0.6-1.5-1c-0.5-0.5-0.8-1.1-1.1-1.9
			s-0.5-1.8-0.5-2.9c0-0.9,0.1-1.8,0.4-2.5s0.6-1.4,1-1.9c0.4-0.5,0.9-0.9,1.5-1.2s1.2-0.4,1.9-0.4c0.8,0,1.4,0.1,2,0.4
			s1.1,0.7,1.5,1.2s0.7,1.1,0.9,1.8C105.3,63.1,105.4,63.9,105.4,64.7z M103.8,64.2c-0.1-1.2-0.4-2.1-0.9-2.8
			c-0.5-0.7-1.3-1.1-2.3-1.1c-0.9,0-1.6,0.3-2.1,1c-0.6,0.6-0.9,1.6-1,2.9H103.8z"/>
		<path id="XMLID_55_" class="st1" d="M117.4,64.7c0,0.2,0,0.4,0,0.5s0,0.3-0.1,0.4h-7.8c0.1,1.3,0.4,2.3,1,3
			c0.6,0.7,1.3,1.1,2.3,1.1c0.7,0,1.3-0.1,1.7-0.3c0.5-0.2,1-0.5,1.5-0.8l0.8,1.2c-0.4,0.2-0.7,0.4-1,0.6c-0.3,0.2-0.6,0.3-1,0.4
			c-0.3,0.1-0.7,0.2-1,0.3c-0.4,0.1-0.8,0.1-1.2,0.1c-0.5,0-1.1-0.1-1.6-0.3s-1.1-0.6-1.5-1c-0.5-0.5-0.8-1.1-1.1-1.9
			s-0.5-1.8-0.5-2.9c0-0.9,0.1-1.8,0.4-2.5s0.6-1.4,1-1.9c0.4-0.5,0.9-0.9,1.5-1.2s1.2-0.4,1.9-0.4c0.8,0,1.4,0.1,2,0.4
			s1.1,0.7,1.5,1.2s0.7,1.1,0.9,1.8C117.3,63.1,117.4,63.9,117.4,64.7z M115.8,64.2c-0.1-1.2-0.4-2.1-0.9-2.8
			c-0.5-0.7-1.3-1.1-2.3-1.1c-0.9,0-1.6,0.3-2.1,1c-0.6,0.6-0.9,1.6-1,2.9H115.8z"/>
		<path id="XMLID_52_" class="st1" d="M127.6,70.9v-1.4c-0.4,0.4-0.9,0.8-1.5,1.2s-1.2,0.5-2.1,0.5c-0.6,0-1.1-0.1-1.6-0.3
			c-0.5-0.2-1-0.6-1.3-1.1c-0.4-0.5-0.7-1.1-0.9-1.8c-0.2-0.8-0.3-1.6-0.3-2.7c0-1,0.1-2,0.3-2.7s0.5-1.4,0.9-2
			c0.4-0.5,0.9-0.9,1.4-1.2c0.5-0.3,1.1-0.4,1.7-0.4c0.7,0,1.4,0.1,1.9,0.4c0.5,0.3,1,0.7,1.4,1.1v-4.9l1.7-0.9v16.3H127.6z
			 M127.6,62.1c-0.3-0.5-0.8-0.9-1.3-1.3c-0.5-0.3-1.2-0.5-1.9-0.5c-1,0-1.7,0.4-2.2,1.2s-0.7,2-0.7,3.6c0,1.5,0.3,2.6,0.8,3.4
			c0.5,0.8,1.2,1.1,2.2,1.1c0.6,0,1.2-0.2,1.7-0.5s1-0.7,1.4-1.2V62.1z"/>
		<path id="XMLID_49_" class="st1" d="M142.6,65c0,1-0.1,1.9-0.4,2.6c-0.3,0.8-0.6,1.4-1.1,1.9c-0.5,0.5-1,0.9-1.6,1.2
			c-0.6,0.3-1.3,0.4-2,0.4s-1.4-0.1-2-0.4s-1.2-0.6-1.6-1.2c-0.4-0.5-0.8-1.1-1.1-1.9c-0.3-0.8-0.4-1.6-0.4-2.6s0.1-1.9,0.4-2.6
			c0.3-0.8,0.6-1.4,1.1-1.9s1-0.9,1.6-1.2c0.6-0.3,1.3-0.4,2-0.4s1.4,0.1,2,0.4c0.6,0.3,1.2,0.6,1.6,1.1c0.4,0.5,0.8,1.1,1.1,1.9
			S142.6,64,142.6,65z M140.9,65c0-1.6-0.3-2.7-0.9-3.5s-1.4-1.2-2.5-1.2s-1.8,0.4-2.5,1.2c-0.6,0.8-0.9,1.9-0.9,3.5
			s0.3,2.7,0.9,3.5c0.6,0.8,1.4,1.2,2.5,1.2s1.9-0.4,2.5-1.2C140.5,67.7,140.9,66.6,140.9,65z"/>
		<path id="XMLID_47_" class="st1" d="M159.2,70.9V64c0-1.3-0.2-2.3-0.6-2.8c-0.4-0.6-1-0.8-1.9-0.8c-0.8,0-1.4,0.3-1.9,0.9
			c-0.5,0.6-0.7,1.5-0.7,2.8v6.9h-1.7V64c0-1.3-0.2-2.3-0.6-2.8c-0.4-0.6-1.1-0.8-1.9-0.8c-0.8,0-1.4,0.3-1.9,0.9
			c-0.5,0.6-0.7,1.5-0.7,2.8v6.9h-1.7V59.2h1.7l0,1.4c0.3-0.5,0.7-0.9,1.2-1.2c0.5-0.3,1.1-0.5,1.8-0.5c0.8,0,1.5,0.2,2,0.6
			c0.5,0.4,0.9,0.9,1.2,1.4c0.2-0.3,0.4-0.5,0.6-0.8c0.2-0.2,0.5-0.5,0.7-0.6c0.3-0.2,0.6-0.3,1-0.4s0.8-0.2,1.3-0.2
			c1.2,0,2.1,0.4,2.8,1.1c0.7,0.8,1.1,2,1.1,3.7v7.1H159.2z"/>
		<path id="XMLID_45_" class="st1" d="M165.2,73.5H164l0.3-5.2h2.3L165.2,73.5z"/>
		<path id="XMLID_42_" class="st1" d="M182.4,70.9v-1.4c-0.4,0.4-0.9,0.8-1.5,1.2c-0.6,0.3-1.3,0.5-2.2,0.5c-0.5,0-0.9-0.1-1.4-0.2
			c-0.4-0.1-0.8-0.3-1.2-0.6c-0.4-0.3-0.6-0.7-0.9-1.1c-0.2-0.5-0.3-1.1-0.3-1.8c0-0.7,0.1-1.2,0.4-1.7s0.6-0.9,1-1.2
			c0.4-0.3,0.9-0.5,1.4-0.7c0.5-0.1,1.1-0.2,1.7-0.2c0.6,0,1.1,0.1,1.6,0.2c0.5,0.1,0.9,0.3,1.3,0.5v-1.4c0-1.7-0.8-2.6-2.5-2.6
			c-0.6,0-1.2,0.1-1.7,0.2c-0.5,0.2-1,0.4-1.5,0.7l-0.6-1.4c0.5-0.3,1.1-0.5,1.8-0.7s1.4-0.3,2.1-0.3c1.3,0,2.3,0.3,3,0.9
			c0.7,0.6,1.1,1.6,1.1,2.9v8.2H182.4z M182.4,65.6c-0.4-0.2-0.8-0.4-1.3-0.5c-0.5-0.1-1-0.2-1.7-0.2c-0.9,0-1.5,0.2-2,0.6
			c-0.5,0.4-0.7,1-0.7,1.7c0,0.9,0.2,1.5,0.7,1.9c0.4,0.4,1,0.6,1.7,0.6c0.8,0,1.4-0.2,2-0.5c0.6-0.3,1-0.8,1.4-1.2V65.6z"/>
		<path id="XMLID_40_" class="st1" d="M195,70.9V64c0-1.3-0.2-2.2-0.7-2.8s-1.1-0.9-2.1-0.9c-0.8,0-1.5,0.3-2.1,0.9
			c-0.6,0.6-0.8,1.5-0.8,2.8v6.9h-1.7V59.2h1.7l0,1.4c0.3-0.5,0.8-0.9,1.3-1.2s1.2-0.5,1.9-0.5c0.6,0,1.2,0.1,1.7,0.3
			c0.5,0.2,0.9,0.5,1.3,0.9s0.6,0.9,0.8,1.5c0.2,0.6,0.3,1.3,0.3,2.2v7.1H195z"/>
		<path id="XMLID_37_" class="st1" d="M207.4,70.9v-1.4c-0.4,0.4-0.9,0.8-1.5,1.2s-1.2,0.5-2.1,0.5c-0.6,0-1.1-0.1-1.6-0.3
			c-0.5-0.2-1-0.6-1.3-1.1c-0.4-0.5-0.7-1.1-0.9-1.8c-0.2-0.8-0.3-1.6-0.3-2.7c0-1,0.1-2,0.3-2.7s0.5-1.4,0.9-2
			c0.4-0.5,0.9-0.9,1.4-1.2c0.5-0.3,1.1-0.4,1.7-0.4c0.7,0,1.4,0.1,1.9,0.4c0.5,0.3,1,0.7,1.4,1.1v-4.9l1.7-0.9v16.3H207.4z
			 M207.4,62.1c-0.3-0.5-0.8-0.9-1.3-1.3c-0.5-0.3-1.2-0.5-1.9-0.5c-1,0-1.7,0.4-2.2,1.2s-0.7,2-0.7,3.6c0,1.5,0.3,2.6,0.8,3.4
			c0.5,0.8,1.2,1.1,2.2,1.1c0.6,0,1.2-0.2,1.7-0.5s1-0.7,1.4-1.2V62.1z"/>
		<path id="XMLID_34_" class="st1" d="M225.3,70.9v-1.4c-0.4,0.4-0.9,0.8-1.5,1.2c-0.6,0.3-1.3,0.5-2.2,0.5c-0.5,0-0.9-0.1-1.4-0.2
			c-0.4-0.1-0.8-0.3-1.2-0.6c-0.4-0.3-0.6-0.7-0.9-1.1c-0.2-0.5-0.3-1.1-0.3-1.8c0-0.7,0.1-1.2,0.4-1.7s0.6-0.9,1-1.2
			c0.4-0.3,0.9-0.5,1.4-0.7c0.5-0.1,1.1-0.2,1.7-0.2c0.6,0,1.1,0.1,1.6,0.2c0.5,0.1,0.9,0.3,1.3,0.5v-1.4c0-1.7-0.8-2.6-2.5-2.6
			c-0.6,0-1.2,0.1-1.7,0.2c-0.5,0.2-1,0.4-1.5,0.7l-0.6-1.4c0.5-0.3,1.1-0.5,1.8-0.7s1.4-0.3,2.1-0.3c1.3,0,2.3,0.3,3,0.9
			c0.7,0.6,1.1,1.6,1.1,2.9v8.2H225.3z M225.3,65.6c-0.4-0.2-0.8-0.4-1.3-0.5c-0.5-0.1-1-0.2-1.7-0.2c-0.9,0-1.5,0.2-2,0.6
			c-0.5,0.4-0.7,1-0.7,1.7c0,0.9,0.2,1.5,0.7,1.9c0.4,0.4,1,0.6,1.7,0.6c0.8,0,1.4-0.2,2-0.5c0.6-0.3,1-0.8,1.4-1.2V65.6z"/>
		<path id="XMLID_31_" class="st1" d="M237.7,70.9v-1.4c-0.4,0.4-0.9,0.8-1.5,1.2s-1.2,0.5-2.1,0.5c-0.6,0-1.1-0.1-1.6-0.3
			c-0.5-0.2-1-0.6-1.3-1.1c-0.4-0.5-0.7-1.1-0.9-1.8c-0.2-0.8-0.3-1.6-0.3-2.7c0-1,0.1-2,0.3-2.7s0.5-1.4,0.9-2
			c0.4-0.5,0.9-0.9,1.4-1.2c0.5-0.3,1.1-0.4,1.7-0.4c0.7,0,1.4,0.1,1.9,0.4c0.5,0.3,1,0.7,1.4,1.1v-4.9l1.7-0.9v16.3H237.7z
			 M237.7,62.1c-0.3-0.5-0.8-0.9-1.3-1.3c-0.5-0.3-1.2-0.5-1.9-0.5c-1,0-1.7,0.4-2.2,1.2s-0.7,2-0.7,3.6c0,1.5,0.3,2.6,0.8,3.4
			c0.5,0.8,1.2,1.1,2.2,1.1c0.6,0,1.2-0.2,1.7-0.5s1-0.7,1.4-1.2V62.1z"/>
		<path id="XMLID_29_" class="st1" d="M247.7,70.9h-1.5l-4.2-11.7h1.8l3,9.2l0.2,0.6l0.2-0.6l3-9.2h1.7L247.7,70.9z"/>
		<path id="XMLID_26_" class="st1" d="M263.6,64.7c0,0.2,0,0.4,0,0.5s0,0.3-0.1,0.4h-7.8c0.1,1.3,0.4,2.3,1,3
			c0.6,0.7,1.3,1.1,2.3,1.1c0.7,0,1.3-0.1,1.7-0.3c0.5-0.2,1-0.5,1.5-0.8l0.8,1.2c-0.4,0.2-0.7,0.4-1,0.6c-0.3,0.2-0.6,0.3-1,0.4
			c-0.3,0.1-0.7,0.2-1,0.3c-0.4,0.1-0.8,0.1-1.2,0.1c-0.5,0-1.1-0.1-1.6-0.3s-1.1-0.6-1.5-1c-0.5-0.5-0.8-1.1-1.1-1.9
			s-0.5-1.8-0.5-2.9c0-0.9,0.1-1.8,0.4-2.5s0.6-1.4,1-1.9c0.4-0.5,0.9-0.9,1.5-1.2s1.2-0.4,1.9-0.4c0.8,0,1.4,0.1,2,0.4
			s1.1,0.7,1.5,1.2s0.7,1.1,0.9,1.8C263.5,63.1,263.6,63.9,263.6,64.7z M262,64.2c-0.1-1.2-0.4-2.1-0.9-2.8
			c-0.5-0.7-1.3-1.1-2.3-1.1c-0.9,0-1.6,0.3-2.1,1c-0.6,0.6-0.9,1.6-1,2.9H262z"/>
		<path id="XMLID_24_" class="st1" d="M272.7,60.9c-0.2-0.1-0.5-0.2-0.8-0.3c-0.3-0.1-0.6-0.1-1-0.1c-0.8,0-1.4,0.3-1.9,0.9
			s-0.7,1.5-0.7,2.6v6.9h-1.7V59.2h1.7v1.4c0.3-0.5,0.7-0.9,1.2-1.2c0.5-0.3,1.1-0.5,1.7-0.5c0.4,0,0.8,0,1.1,0.1
			c0.3,0.1,0.5,0.1,0.7,0.2L272.7,60.9z"/>
		<path id="XMLID_22_" class="st1" d="M283,67.8c0,0.6-0.1,1.1-0.3,1.5c-0.2,0.4-0.5,0.8-0.9,1s-0.8,0.5-1.3,0.6
			c-0.5,0.1-1,0.2-1.5,0.2c-0.8,0-1.5-0.1-2.2-0.4c-0.7-0.3-1.3-0.6-1.9-1.1l1-1.2c0.5,0.4,1,0.7,1.5,1c0.5,0.2,1.1,0.3,1.7,0.3
			c0.8,0,1.4-0.2,1.8-0.5c0.4-0.3,0.6-0.8,0.6-1.3c0-0.2,0-0.5-0.1-0.6c-0.1-0.2-0.3-0.4-0.5-0.6c-0.2-0.2-0.5-0.4-0.8-0.6
			c-0.3-0.2-0.8-0.4-1.3-0.6c-0.6-0.3-1.1-0.5-1.5-0.7c-0.4-0.2-0.8-0.5-1-0.7s-0.5-0.6-0.6-0.9s-0.2-0.7-0.2-1.2
			c0-0.4,0.1-0.9,0.3-1.2c0.2-0.4,0.4-0.7,0.8-0.9c0.3-0.3,0.7-0.5,1.1-0.6c0.4-0.1,0.9-0.2,1.5-0.2c0.8,0,1.5,0.1,2.1,0.3
			c0.6,0.2,1.2,0.5,1.6,0.9l-0.9,1.2c-0.5-0.4-0.9-0.6-1.3-0.8c-0.4-0.2-1-0.3-1.6-0.3c-0.6,0-1.1,0.1-1.4,0.4
			c-0.3,0.3-0.5,0.6-0.5,1c0,0.3,0,0.5,0.1,0.6s0.2,0.4,0.4,0.5c0.2,0.2,0.5,0.3,0.8,0.5c0.3,0.2,0.7,0.4,1.2,0.6
			c0.5,0.3,1,0.5,1.5,0.7c0.4,0.2,0.8,0.5,1.1,0.7s0.5,0.6,0.7,1C283,66.9,283,67.3,283,67.8z"/>
		<path id="XMLID_19_" class="st1" d="M295.1,64.7c0,0.2,0,0.4,0,0.5s0,0.3-0.1,0.4h-7.8c0.1,1.3,0.4,2.3,1,3
			c0.6,0.7,1.3,1.1,2.3,1.1c0.7,0,1.3-0.1,1.7-0.3c0.5-0.2,1-0.5,1.5-0.8l0.8,1.2c-0.4,0.2-0.7,0.4-1,0.6c-0.3,0.2-0.6,0.3-1,0.4
			c-0.3,0.1-0.7,0.2-1,0.3c-0.4,0.1-0.8,0.1-1.2,0.1c-0.5,0-1.1-0.1-1.6-0.3s-1.1-0.6-1.5-1c-0.5-0.5-0.8-1.1-1.1-1.9
			s-0.5-1.8-0.5-2.9c0-0.9,0.1-1.8,0.4-2.5s0.6-1.4,1-1.9c0.4-0.5,0.9-0.9,1.5-1.2s1.2-0.4,1.9-0.4c0.8,0,1.4,0.1,2,0.4
			s1.1,0.7,1.5,1.2s0.7,1.1,0.9,1.8C295,63.1,295.1,63.9,295.1,64.7z M293.6,64.2c-0.1-1.2-0.4-2.1-0.9-2.8
			c-0.5-0.7-1.3-1.1-2.3-1.1c-0.9,0-1.6,0.3-2.1,1c-0.6,0.6-0.9,1.6-1,2.9H293.6z"/>
		<path id="XMLID_16_" class="st1" d="M312.9,64.7c0,0.2,0,0.4,0,0.5s0,0.3-0.1,0.4h-7.8c0.1,1.3,0.4,2.3,1,3
			c0.6,0.7,1.3,1.1,2.3,1.1c0.7,0,1.3-0.1,1.7-0.3c0.5-0.2,1-0.5,1.5-0.8l0.8,1.2c-0.4,0.2-0.7,0.4-1,0.6c-0.3,0.2-0.6,0.3-1,0.4
			c-0.3,0.1-0.7,0.2-1,0.3c-0.4,0.1-0.8,0.1-1.2,0.1c-0.5,0-1.1-0.1-1.6-0.3s-1.1-0.6-1.5-1c-0.5-0.5-0.8-1.1-1.1-1.9
			s-0.5-1.8-0.5-2.9c0-0.9,0.1-1.8,0.4-2.5s0.6-1.4,1-1.9c0.4-0.5,0.9-0.9,1.5-1.2s1.2-0.4,1.9-0.4c0.8,0,1.4,0.1,2,0.4
			s1.1,0.7,1.5,1.2s0.7,1.1,0.9,1.8C312.8,63.1,312.9,63.9,312.9,64.7z M311.4,64.2c-0.1-1.2-0.4-2.1-0.9-2.8
			c-0.5-0.7-1.3-1.1-2.3-1.1c-0.9,0-1.6,0.3-2.1,1c-0.6,0.6-0.9,1.6-1,2.9H311.4z"/>
		<path id="XMLID_14_" class="st1" d="M320.8,70.9h-1.5l-4.2-11.7h1.8l3,9.2l0.2,0.6l0.2-0.6l3-9.2h1.7L320.8,70.9z"/>
		<path id="XMLID_11_" class="st1" d="M336.6,64.7c0,0.2,0,0.4,0,0.5s0,0.3-0.1,0.4h-7.8c0.1,1.3,0.4,2.3,1,3
			c0.6,0.7,1.3,1.1,2.3,1.1c0.7,0,1.3-0.1,1.7-0.3c0.5-0.2,1-0.5,1.5-0.8l0.8,1.2c-0.4,0.2-0.7,0.4-1,0.6c-0.3,0.2-0.6,0.3-1,0.4
			c-0.3,0.1-0.7,0.2-1,0.3c-0.4,0.1-0.8,0.1-1.2,0.1c-0.5,0-1.1-0.1-1.6-0.3s-1.1-0.6-1.5-1c-0.5-0.5-0.8-1.1-1.1-1.9
			s-0.5-1.8-0.5-2.9c0-0.9,0.1-1.8,0.4-2.5s0.6-1.4,1-1.9c0.4-0.5,0.9-0.9,1.5-1.2s1.2-0.4,1.9-0.4c0.8,0,1.4,0.1,2,0.4
			s1.1,0.7,1.5,1.2s0.7,1.1,0.9,1.8C336.5,63.1,336.6,63.9,336.6,64.7z M335.1,64.2c-0.1-1.2-0.4-2.1-0.9-2.8
			c-0.5-0.7-1.3-1.1-2.3-1.1c-0.9,0-1.6,0.3-2.1,1c-0.6,0.6-0.9,1.6-1,2.9H335.1z"/>
		<path id="XMLID_9_" class="st1" d="M347.1,70.9V64c0-1.3-0.2-2.2-0.7-2.8s-1.1-0.9-2.1-0.9c-0.8,0-1.5,0.3-2.1,0.9
			c-0.6,0.6-0.8,1.5-0.8,2.8v6.9h-1.7V59.2h1.7l0,1.4c0.3-0.5,0.8-0.9,1.3-1.2s1.2-0.5,1.9-0.5c0.6,0,1.2,0.1,1.7,0.3
			c0.5,0.2,0.9,0.5,1.3,0.9s0.6,0.9,0.8,1.5c0.2,0.6,0.3,1.3,0.3,2.2v7.1H347.1z"/>
		<path id="XMLID_7_" class="st1" d="M354.5,60.6v7.6c0,0.5,0.1,0.9,0.3,1.1s0.5,0.3,0.9,0.3c0.3,0,0.6,0,0.9-0.1
			c0.2-0.1,0.5-0.1,0.8-0.3l-0.1,1.4c-0.3,0.1-0.7,0.2-1,0.3s-0.7,0.1-1.2,0.1c-0.7,0-1.3-0.2-1.7-0.6s-0.6-1.1-0.6-2.1v-7.9h-1.4
			v-1.4h1.4v-3.6l1.7-0.9v4.5h2.9v1.4H354.5z"/>
		<path id="XMLID_5_" class="st1" d="M367.9,67.8c0,0.6-0.1,1.1-0.3,1.5c-0.2,0.4-0.5,0.8-0.9,1s-0.8,0.5-1.3,0.6
			c-0.5,0.1-1,0.2-1.5,0.2c-0.8,0-1.5-0.1-2.2-0.4c-0.7-0.3-1.3-0.6-1.9-1.1l1-1.2c0.5,0.4,1,0.7,1.5,1c0.5,0.2,1.1,0.3,1.7,0.3
			c0.8,0,1.4-0.2,1.8-0.5c0.4-0.3,0.6-0.8,0.6-1.3c0-0.2,0-0.5-0.1-0.6c-0.1-0.2-0.3-0.4-0.5-0.6c-0.2-0.2-0.5-0.4-0.8-0.6
			c-0.3-0.2-0.8-0.4-1.3-0.6c-0.6-0.3-1.1-0.5-1.5-0.7c-0.4-0.2-0.8-0.5-1-0.7s-0.5-0.6-0.6-0.9s-0.2-0.7-0.2-1.2
			c0-0.4,0.1-0.9,0.3-1.2c0.2-0.4,0.4-0.7,0.8-0.9c0.3-0.3,0.7-0.5,1.1-0.6c0.4-0.1,0.9-0.2,1.5-0.2c0.8,0,1.5,0.1,2.1,0.3
			c0.6,0.2,1.2,0.5,1.6,0.9l-0.9,1.2c-0.5-0.4-0.9-0.6-1.3-0.8c-0.4-0.2-1-0.3-1.6-0.3c-0.6,0-1.1,0.1-1.4,0.4
			c-0.3,0.3-0.5,0.6-0.5,1c0,0.3,0,0.5,0.1,0.6s0.2,0.4,0.4,0.5c0.2,0.2,0.5,0.3,0.8,0.5c0.3,0.2,0.7,0.4,1.2,0.6
			c0.5,0.3,1,0.5,1.5,0.7c0.4,0.2,0.8,0.5,1.1,0.7s0.5,0.6,0.7,1C367.8,66.9,367.9,67.3,367.9,67.8z"/>
		<path id="XMLID_3_" class="st1" d="M373.3,69.7c0,0.4-0.1,0.7-0.4,1s-0.6,0.4-1,0.4s-0.7-0.1-1-0.4s-0.4-0.6-0.4-1
			c0-0.4,0.1-0.7,0.4-1c0.3-0.3,0.6-0.4,1-0.4s0.7,0.1,1,0.4C373.2,69,373.3,69.3,373.3,69.7z"/>
	</g>
</g>
</svg>
