<!-- Generator: Adobe Illustrator 22.1.0, SVG Export Plug-In  -->
<svg version="1.1"
	 xmlns="http://www.w3.org/2000/svg" xmlns:xlink="http://www.w3.org/1999/xlink" xmlns:a="http://ns.adobe.com/AdobeSVGViewerExtensions/3.0/"
	 x="0px" y="0px" width="648.5px" height="23px" viewBox="0 0 648.5 23" style="enable-background:new 0 0 648.5 23;"
	 xml:space="preserve">
<style type="text/css">
	.st0{fill:#532D6D;}
	.st1{fill:#266093;}
</style>
<defs>
</defs>
<g id="XMLID_4_">
	<g id="XMLID_6_">
		<path id="XMLID_113_" class="st0" d="M76.2,13.7c0,0.8-0.1,1.5-0.4,2.2c-0.3,0.6-0.6,1.2-1.1,1.6c-0.5,0.4-1.1,0.7-1.7,1
			c-0.7,0.2-1.4,0.3-2.3,0.3h-7V3.2h7.1c1.5,0,2.7,0.4,3.6,1.1s1.3,1.7,1.3,3c0,0.7-0.1,1.3-0.4,1.8s-0.7,0.9-1.2,1.2
			c0.6,0.3,1.1,0.7,1.5,1.3C76,12.2,76.2,12.9,76.2,13.7z M72.6,7.6c0-0.5-0.1-0.9-0.4-1.1c-0.3-0.3-0.8-0.4-1.5-0.4h-3.9V9h4.1
			c0.6,0,1.1-0.1,1.4-0.4C72.5,8.4,72.6,8,72.6,7.6z M73.1,13.8c0-1.3-0.7-2-2.2-2h-4.1v4h4.1c0.8,0,1.3-0.2,1.7-0.5
			C72.9,14.9,73.1,14.4,73.1,13.8z"/>
		<path id="XMLID_111_" class="st0" d="M85.7,10.7c-0.3-0.2-0.5-0.4-0.8-0.5c-0.3-0.1-0.6-0.2-1-0.2c-0.3,0-0.6,0-0.8,0.1
			c-0.2,0.1-0.5,0.2-0.6,0.4c-0.2,0.2-0.3,0.5-0.4,0.8C82,11.5,82,11.9,82,12.4v6.3h-3.1V7.1H82v0.8c0.3-0.3,0.6-0.5,1-0.7
			c0.4-0.2,0.9-0.3,1.4-0.3c0.5,0,0.9,0.1,1.3,0.3c0.4,0.2,0.6,0.4,0.9,0.6L85.7,10.7z"/>
		<path id="XMLID_108_" class="st0" d="M98.3,12.9c0,0.9-0.1,1.7-0.4,2.4c-0.3,0.7-0.6,1.4-1.1,1.9c-0.5,0.5-1,0.9-1.7,1.2
			C94.5,18.8,93.8,19,93,19s-1.5-0.1-2.1-0.4c-0.6-0.3-1.2-0.7-1.7-1.2c-0.5-0.5-0.8-1.2-1.1-1.9c-0.3-0.7-0.4-1.6-0.4-2.4
			s0.1-1.7,0.4-2.4c0.3-0.7,0.6-1.4,1.1-1.9c0.5-0.5,1-1,1.7-1.3C91.6,7,92.3,6.9,93,6.9s1.5,0.1,2.1,0.4c0.6,0.3,1.2,0.7,1.7,1.3
			c0.5,0.5,0.8,1.2,1.1,1.9C98.2,11.2,98.3,12,98.3,12.9z M95.2,12.9c0-0.9-0.2-1.6-0.5-2.2c-0.4-0.6-0.9-0.9-1.6-0.9
			s-1.3,0.3-1.6,0.9c-0.3,0.6-0.5,1.3-0.5,2.3s0.2,1.7,0.5,2.2c0.3,0.6,0.9,0.9,1.6,0.9c0.4,0,0.7-0.1,1-0.3
			c0.3-0.2,0.5-0.4,0.7-0.7c0.2-0.3,0.3-0.6,0.4-1C95.2,13.7,95.2,13.3,95.2,12.9z"/>
		<path id="XMLID_105_" class="st0" d="M107.1,18.7V18c-0.3,0.3-0.7,0.5-1.1,0.7c-0.5,0.2-1,0.3-1.5,0.3c-0.5,0-1.1-0.1-1.6-0.3
			c-0.5-0.2-1-0.4-1.4-0.8c-0.4-0.3-0.7-0.8-1-1.3s-0.4-1.1-0.4-1.8c0-0.6,0.1-1.2,0.4-1.7c0.2-0.5,0.6-0.9,1-1.2
			c0.4-0.3,0.9-0.6,1.5-0.7s1.2-0.2,1.8-0.2c0.5,0,1,0,1.3,0.1s0.7,0.2,0.9,0.3v-0.6c0-0.4-0.1-0.8-0.4-1.1s-0.7-0.4-1.3-0.4
			c-0.4,0-0.7,0-0.9,0s-0.5,0.1-0.8,0.1c-0.2,0.1-0.5,0.1-0.7,0.2c-0.2,0.1-0.5,0.2-0.8,0.4L101,8c0.3-0.2,0.7-0.4,1-0.5
			s0.6-0.3,1-0.4s0.7-0.2,1.1-0.2c0.4-0.1,0.8-0.1,1.3-0.1c0.7,0,1.4,0.1,1.9,0.3c0.6,0.2,1.1,0.4,1.5,0.8c0.4,0.3,0.7,0.8,1,1.3
			c0.2,0.5,0.3,1.1,0.3,1.7v7.8H107.1z M107.1,13.9c-0.3-0.2-0.6-0.3-0.9-0.4c-0.3-0.1-0.7-0.1-1.3-0.1c-0.6,0-1,0.1-1.3,0.4
			c-0.3,0.3-0.5,0.6-0.5,1.1c0,0.4,0.1,0.8,0.4,1.1c0.3,0.3,0.7,0.5,1.4,0.5c0.5,0,0.9-0.1,1.3-0.3c0.4-0.2,0.6-0.5,0.8-0.7V13.9z"
			/>
		<path id="XMLID_102_" class="st0" d="M119.4,18.7V18c-0.3,0.3-0.6,0.5-1,0.7c-0.4,0.2-0.9,0.3-1.4,0.3c-0.6,0-1.2-0.1-1.7-0.4
			c-0.5-0.2-1-0.6-1.4-1.1c-0.4-0.5-0.7-1.2-1-1.9c-0.2-0.8-0.4-1.7-0.4-2.8c0-0.9,0.1-1.7,0.3-2.4c0.2-0.7,0.5-1.3,0.9-1.9
			c0.4-0.5,0.9-0.9,1.4-1.2s1.2-0.4,1.9-0.4c0.5,0,1,0.1,1.4,0.3c0.4,0.2,0.8,0.4,1.1,0.6V4.1l3.1-1.5v16.1H119.4z M119.4,10.7
			c-0.5-0.7-1.2-1-2.1-1c-1.2,0-1.8,1-1.8,3c0,1.2,0.2,2.1,0.5,2.6c0.4,0.5,0.8,0.8,1.5,0.8c0.5,0,0.8-0.1,1.1-0.3
			c0.3-0.2,0.5-0.4,0.8-0.7V10.7z"/>
		<path id="XMLID_100_" class="st0" d="M143.7,14c0,0.7-0.1,1.4-0.4,2c-0.2,0.6-0.6,1.1-1.1,1.6s-1.1,0.8-1.9,1
			c-0.8,0.2-1.7,0.4-2.7,0.4c-1.3,0-2.5-0.3-3.5-0.8c-1.1-0.5-1.9-1.2-2.5-2.1l2.2-2c0.5,0.6,1.2,1.1,1.8,1.4
			c0.7,0.3,1.4,0.4,2.1,0.4c0.9,0,1.6-0.1,2-0.4c0.4-0.3,0.7-0.7,0.7-1.3c0-0.3,0-0.5-0.1-0.7c-0.1-0.2-0.3-0.4-0.5-0.5
			c-0.2-0.2-0.6-0.3-1.1-0.5c-0.5-0.1-1-0.3-1.8-0.5c-0.7-0.2-1.4-0.4-2-0.6c-0.6-0.2-1.1-0.5-1.5-0.8c-0.4-0.3-0.8-0.8-1-1.3
			s-0.4-1.2-0.4-1.9c0-0.7,0.1-1.3,0.4-1.9c0.3-0.6,0.7-1,1.2-1.4c0.5-0.4,1.1-0.7,1.8-0.9S137,3,137.7,3c1.2,0,2.3,0.2,3.2,0.6
			c0.9,0.4,1.7,1,2.5,1.8l-2.2,2.2c-0.5-0.5-1-0.9-1.6-1.2S138.3,6,137.6,6c-0.4,0-0.8,0-1,0.1s-0.5,0.2-0.7,0.3s-0.3,0.3-0.4,0.4
			c-0.1,0.2-0.1,0.3-0.1,0.5c0,0.3,0,0.5,0.1,0.6c0.1,0.2,0.3,0.3,0.5,0.5c0.2,0.1,0.6,0.3,1,0.4c0.4,0.1,0.9,0.3,1.5,0.4
			c0.6,0.1,1.2,0.3,1.8,0.5c0.6,0.2,1.2,0.5,1.7,0.8c0.5,0.4,0.9,0.8,1.2,1.4C143.6,12.5,143.7,13.2,143.7,14z"/>
		<path id="XMLID_97_" class="st0" d="M156.5,13.1c0,0.9-0.1,1.7-0.3,2.4c-0.2,0.7-0.5,1.3-0.9,1.9c-0.4,0.5-0.9,0.9-1.4,1.2
			c-0.6,0.3-1.2,0.4-1.9,0.4c-0.5,0-1-0.1-1.4-0.3c-0.4-0.2-0.8-0.4-1.1-0.6v3.4l-3.1,1.5V7.1h3.1v0.7c0.3-0.3,0.6-0.5,1-0.7
			c0.4-0.2,0.9-0.3,1.4-0.3c0.6,0,1.2,0.1,1.7,0.4c0.5,0.2,1,0.6,1.4,1.1c0.4,0.5,0.7,1.2,1,1.9C156.4,11.1,156.5,12,156.5,13.1z
			 M153.4,13.1c0-1.2-0.2-2.1-0.5-2.6c-0.4-0.5-0.8-0.8-1.5-0.8c-0.5,0-0.8,0.1-1.1,0.3c-0.3,0.2-0.5,0.4-0.8,0.7v4.4
			c0.5,0.7,1.2,1,2.1,1C152.8,16.1,153.4,15.1,153.4,13.1z"/>
		<path id="XMLID_94_" class="st0" d="M168.4,12.9c0,0.2,0,0.4,0,0.6c0,0.2,0,0.3,0,0.4h-7c0,0.4,0.1,0.7,0.3,1s0.3,0.5,0.6,0.7
			c0.2,0.2,0.5,0.3,0.7,0.4c0.3,0.1,0.5,0.1,0.8,0.1c0.4,0,0.8-0.1,1.2-0.2c0.3-0.1,0.6-0.3,0.8-0.6l2.2,1.8
			c-0.5,0.6-1.1,1.1-1.8,1.4c-0.8,0.3-1.5,0.5-2.3,0.5c-0.8,0-1.6-0.1-2.3-0.4s-1.2-0.7-1.7-1.2c-0.5-0.5-0.8-1.2-1.1-1.9
			c-0.3-0.7-0.4-1.6-0.4-2.5c0-0.9,0.1-1.7,0.4-2.4c0.3-0.7,0.6-1.4,1.1-1.9c0.5-0.5,1-1,1.6-1.3c0.6-0.3,1.3-0.4,2-0.4
			c0.8,0,1.5,0.2,2.1,0.5c0.6,0.3,1.1,0.8,1.5,1.3c0.4,0.6,0.7,1.2,1,1.9C168.3,11.3,168.4,12.1,168.4,12.9z M165.4,11.6
			c0-0.3-0.1-0.5-0.2-0.8c-0.1-0.2-0.2-0.5-0.4-0.7c-0.2-0.2-0.4-0.4-0.6-0.5c-0.3-0.1-0.5-0.2-0.9-0.2c-0.6,0-1,0.2-1.3,0.6
			c-0.3,0.4-0.5,0.9-0.6,1.5H165.4z"/>
		<path id="XMLID_92_" class="st0" d="M179.6,17.4c-0.3,0.3-0.7,0.6-1,0.8c-0.4,0.2-0.8,0.4-1.3,0.5c-0.5,0.1-1,0.2-1.6,0.2
			c-0.8,0-1.5-0.1-2.1-0.4c-0.7-0.3-1.2-0.7-1.7-1.2c-0.5-0.5-0.9-1.2-1.2-1.9c-0.3-0.7-0.4-1.6-0.4-2.4s0.1-1.7,0.4-2.4
			c0.3-0.7,0.7-1.4,1.2-1.9c0.5-0.5,1.1-1,1.8-1.3c0.7-0.3,1.4-0.4,2.2-0.4c1.1,0,2,0.2,2.8,0.7c0.7,0.5,1.4,1.1,1.8,1.8l-2,2
			c-0.3-0.5-0.7-0.9-1.1-1.2s-0.9-0.5-1.5-0.5c-0.7,0-1.3,0.3-1.8,0.8c-0.4,0.6-0.7,1.3-0.7,2.3c0,0.9,0.2,1.7,0.7,2.3
			c0.4,0.6,1,0.9,1.8,0.9c0.6,0,1.1-0.1,1.5-0.4c0.4-0.3,0.8-0.6,1.2-1.1l1.9,1.8C180.2,16.8,179.9,17.1,179.6,17.4z"/>
		<path id="XMLID_90_" class="st0" d="M189.2,18.3c-0.3,0.2-0.6,0.4-1,0.5c-0.4,0.1-0.9,0.2-1.4,0.2s-0.9-0.1-1.3-0.3
			c-0.4-0.2-0.7-0.4-1-0.7c-0.3-0.3-0.5-0.7-0.6-1.1c-0.1-0.4-0.2-0.9-0.2-1.4V10h-1.9V7.1h1.9v-3l3.1-1.5v4.5h2.8V10h-2.8v4.7
			c0,0.6,0.1,0.9,0.3,1.1c0.2,0.2,0.5,0.3,0.8,0.3c0.3,0,0.5-0.1,0.8-0.2c0.2-0.1,0.6-0.4,0.9-0.7L189.2,18.3z"/>
		<path id="XMLID_88_" class="st0" d="M199.3,10.7c-0.3-0.2-0.5-0.4-0.8-0.5c-0.3-0.1-0.6-0.2-1-0.2c-0.3,0-0.6,0-0.8,0.1
			c-0.2,0.1-0.5,0.2-0.6,0.4c-0.2,0.2-0.3,0.5-0.4,0.8c-0.1,0.3-0.1,0.7-0.1,1.2v6.3h-3.1V7.1h3.1v0.8c0.3-0.3,0.6-0.5,1-0.7
			c0.4-0.2,0.9-0.3,1.4-0.3c0.5,0,0.9,0.1,1.3,0.3c0.4,0.2,0.6,0.4,0.9,0.6L199.3,10.7z"/>
		<path id="XMLID_86_" class="st0" d="M208.9,18.7V18c-0.3,0.3-0.6,0.5-1.1,0.7s-1,0.3-1.6,0.3c-1.5,0-2.6-0.5-3.3-1.4s-1-2.2-1-3.9
			V7.1h3.1v6.3c0,0.5,0,0.9,0.1,1.3c0.1,0.3,0.2,0.6,0.4,0.8c0.2,0.2,0.4,0.4,0.6,0.4c0.3,0.1,0.5,0.1,0.8,0.1
			c0.6,0,1.1-0.2,1.5-0.6c0.3-0.4,0.5-1.1,0.5-2.1V7.1h3.1v11.6H208.9z"/>
		<path id="XMLID_84_" class="st0" d="M228.5,18.7v-6.3c0-1-0.2-1.7-0.5-2.1c-0.3-0.4-0.8-0.6-1.4-0.6c-0.6,0-1.1,0.2-1.4,0.6
			c-0.3,0.4-0.5,1.1-0.5,2.1v6.4h-3.1v-6.3c0-1-0.2-1.7-0.5-2.1s-0.8-0.6-1.4-0.6s-1.1,0.2-1.4,0.6c-0.3,0.4-0.5,1.1-0.5,2.1v6.4
			h-3.1V7.1h3.1v0.8c0.3-0.3,0.6-0.5,1-0.7s0.9-0.3,1.5-0.3c0.7,0,1.4,0.1,1.8,0.3c0.5,0.2,0.9,0.6,1.4,1.1c0.4-0.4,0.9-0.8,1.4-1.1
			s1.3-0.4,2.3-0.4c0.7,0,1.4,0.1,1.9,0.4c0.5,0.2,1,0.6,1.3,1.1c0.3,0.5,0.6,1,0.7,1.7c0.2,0.7,0.2,1.4,0.2,2.2v6.6H228.5z"/>
		<path id="XMLID_82_" class="st0" d="M241.4,18.7V3.2h10.8v3h-7.7v2.7h4.5v3h-4.5v3.7h8v3H241.4z"/>
		<path id="XMLID_80_" class="st0" d="M260.8,5.3c-0.2,0-0.4-0.1-0.6-0.1c-0.5,0-0.8,0.1-0.9,0.2s-0.2,0.4-0.2,0.7v1h2V10h-2v8.7
			H256V10h-1.4V7.1h1.4V5.7c0-1.1,0.3-1.9,0.9-2.3c0.6-0.5,1.4-0.7,2.5-0.7c0.8,0,1.4,0.1,1.9,0.3v2.5
			C261.1,5.4,260.9,5.3,260.8,5.3z"/>
		<path id="XMLID_76_" class="st0" d="M269.5,5.4c-0.2-0.1-0.3-0.1-0.5-0.2c-0.2,0-0.4-0.1-0.6-0.1c-0.5,0-0.8,0.1-0.9,0.2
			s-0.2,0.4-0.2,0.7v1h2V10h-2v8.7h-3.1V10h-1.4V7.1h1.4V5.7c0-1.1,0.3-1.9,0.9-2.3c0.6-0.5,1.4-0.7,2.5-0.7c0.8,0,1.4,0.1,1.9,0.3
			V5.4z M274.9,4.4c0,0.5-0.2,0.9-0.5,1.2s-0.8,0.5-1.2,0.5c-0.5,0-0.9-0.2-1.2-0.5s-0.5-0.8-0.5-1.2s0.2-0.9,0.5-1.2
			s0.8-0.5,1.2-0.5c0.5,0,0.9,0.2,1.2,0.5S274.9,3.9,274.9,4.4z M271.6,18.7V7.1h3.1v11.6H271.6z"/>
		<path id="XMLID_74_" class="st0" d="M286.5,17.4c-0.3,0.3-0.7,0.6-1,0.8c-0.4,0.2-0.8,0.4-1.3,0.5c-0.5,0.1-1,0.2-1.6,0.2
			c-0.8,0-1.5-0.1-2.1-0.4c-0.7-0.3-1.2-0.7-1.7-1.2c-0.5-0.5-0.9-1.2-1.2-1.9c-0.3-0.7-0.4-1.6-0.4-2.4s0.1-1.7,0.4-2.4
			c0.3-0.7,0.7-1.4,1.2-1.9c0.5-0.5,1.1-1,1.8-1.3c0.7-0.3,1.4-0.4,2.2-0.4c1.1,0,2,0.2,2.8,0.7c0.7,0.5,1.4,1.1,1.8,1.8l-2,2
			c-0.3-0.5-0.7-0.9-1.1-1.2s-0.9-0.5-1.5-0.5c-0.7,0-1.3,0.3-1.8,0.8c-0.4,0.6-0.7,1.3-0.7,2.3c0,0.9,0.2,1.7,0.7,2.3
			c0.4,0.6,1,0.9,1.8,0.9c0.6,0,1.1-0.1,1.5-0.4c0.4-0.3,0.8-0.6,1.2-1.1l1.9,1.8C287.1,16.8,286.8,17.1,286.5,17.4z"/>
		<path id="XMLID_71_" class="st0" d="M296,18.7V18c-0.3,0.3-0.7,0.5-1.1,0.7c-0.5,0.2-1,0.3-1.5,0.3c-0.5,0-1.1-0.1-1.6-0.3
			c-0.5-0.2-1-0.4-1.4-0.8c-0.4-0.3-0.7-0.8-1-1.3s-0.4-1.1-0.4-1.8c0-0.6,0.1-1.2,0.4-1.7c0.2-0.5,0.6-0.9,1-1.2
			c0.4-0.3,0.9-0.6,1.5-0.7s1.2-0.2,1.8-0.2c0.5,0,1,0,1.3,0.1s0.7,0.2,0.9,0.3v-0.6c0-0.4-0.1-0.8-0.4-1.1s-0.7-0.4-1.3-0.4
			c-0.4,0-0.7,0-0.9,0s-0.5,0.1-0.8,0.1c-0.2,0.1-0.5,0.1-0.7,0.2c-0.2,0.1-0.5,0.2-0.8,0.4L290,8c0.3-0.2,0.7-0.4,1-0.5
			s0.6-0.3,1-0.4s0.7-0.2,1.1-0.2c0.4-0.1,0.8-0.1,1.3-0.1c0.7,0,1.4,0.1,1.9,0.3c0.6,0.2,1.1,0.4,1.5,0.8c0.4,0.3,0.7,0.8,1,1.3
			c0.2,0.5,0.3,1.1,0.3,1.7v7.8H296z M296,13.9c-0.3-0.2-0.6-0.3-0.9-0.4c-0.3-0.1-0.7-0.1-1.3-0.1c-0.6,0-1,0.1-1.3,0.4
			c-0.3,0.3-0.5,0.6-0.5,1.1c0,0.4,0.1,0.8,0.4,1.1c0.3,0.3,0.7,0.5,1.4,0.5c0.5,0,0.9-0.1,1.3-0.3c0.4-0.2,0.6-0.5,0.8-0.7V13.9z"
			/>
		<path id="XMLID_69_" class="st0" d="M310.7,17.4c-0.3,0.3-0.7,0.6-1,0.8c-0.4,0.2-0.8,0.4-1.3,0.5c-0.5,0.1-1,0.2-1.6,0.2
			c-0.8,0-1.5-0.1-2.1-0.4c-0.7-0.3-1.2-0.7-1.7-1.2c-0.5-0.5-0.9-1.2-1.2-1.9c-0.3-0.7-0.4-1.6-0.4-2.4s0.1-1.7,0.4-2.4
			c0.3-0.7,0.7-1.4,1.2-1.9c0.5-0.5,1.1-1,1.8-1.3c0.7-0.3,1.4-0.4,2.2-0.4c1.1,0,2,0.2,2.8,0.7c0.7,0.5,1.4,1.1,1.8,1.8l-2,2
			c-0.3-0.5-0.7-0.9-1.1-1.2s-0.9-0.5-1.5-0.5c-0.7,0-1.3,0.3-1.8,0.8c-0.4,0.6-0.7,1.3-0.7,2.3c0,0.9,0.2,1.7,0.7,2.3
			c0.4,0.6,1,0.9,1.8,0.9c0.6,0,1.1-0.1,1.5-0.4c0.4-0.3,0.8-0.6,1.2-1.1l1.9,1.8C311.3,16.8,311,17.1,310.7,17.4z"/>
		<path id="XMLID_67_" class="st0" d="M318.9,22.8h-3l1.5-4.1l-4.5-11.6h3.4l1.9,5.6c0.2,0.4,0.3,0.9,0.4,1.4s0.2,0.9,0.3,1.2
			c0.1-0.3,0.2-0.7,0.3-1.2s0.3-0.9,0.4-1.4l1.9-5.6h3.3L318.9,22.8z"/>
		<path id="XMLID_65_" class="st0" d="M342.7,7.8c-0.3-0.5-0.6-0.9-1.1-1.2s-1-0.4-1.7-0.4c-0.6,0-1.1,0.1-1.6,0.4
			c-0.5,0.2-0.8,0.6-1.2,1c-0.3,0.4-0.5,1-0.7,1.6c-0.2,0.6-0.2,1.3-0.2,2c0,0.7,0.1,1.3,0.2,1.9c0.2,0.6,0.4,1.1,0.7,1.6
			c0.3,0.4,0.7,0.8,1.2,1s1,0.4,1.5,0.4c0.7,0,1.3-0.2,1.7-0.5c0.4-0.3,0.9-0.8,1.3-1.5l2.6,1.6c-0.5,1.1-1.3,2-2.2,2.6
			c-0.9,0.6-2.1,0.9-3.5,0.9c-1,0-1.9-0.2-2.8-0.6c-0.8-0.4-1.5-0.9-2.1-1.6c-0.6-0.7-1.1-1.5-1.4-2.5c-0.3-1-0.5-2.1-0.5-3.3
			c0-1.2,0.2-2.3,0.5-3.2c0.3-1,0.8-1.8,1.4-2.5c0.6-0.7,1.3-1.2,2.2-1.6c0.8-0.4,1.8-0.6,2.8-0.6c0.7,0,1.4,0.1,2,0.3
			s1.1,0.4,1.6,0.7c0.5,0.3,0.9,0.7,1.2,1.1c0.3,0.4,0.6,0.9,0.9,1.4L342.7,7.8z"/>
		<path id="XMLID_62_" class="st0" d="M358.1,12.9c0,0.9-0.1,1.7-0.4,2.4c-0.3,0.7-0.6,1.4-1.1,1.9c-0.5,0.5-1,0.9-1.7,1.2
			c-0.7,0.3-1.4,0.4-2.1,0.4s-1.5-0.1-2.1-0.4c-0.6-0.3-1.2-0.7-1.7-1.2c-0.5-0.5-0.8-1.2-1.1-1.9c-0.3-0.7-0.4-1.6-0.4-2.4
			s0.1-1.7,0.4-2.4c0.3-0.7,0.6-1.4,1.1-1.9c0.5-0.5,1-1,1.7-1.3c0.6-0.3,1.3-0.4,2.1-0.4s1.5,0.1,2.1,0.4c0.6,0.3,1.2,0.7,1.7,1.3
			c0.5,0.5,0.8,1.2,1.1,1.9C357.9,11.2,358.1,12,358.1,12.9z M355,12.9c0-0.9-0.2-1.6-0.5-2.2c-0.4-0.6-0.9-0.9-1.6-0.9
			s-1.3,0.3-1.6,0.9c-0.3,0.6-0.5,1.3-0.5,2.3s0.2,1.7,0.5,2.2c0.3,0.6,0.9,0.9,1.6,0.9c0.4,0,0.7-0.1,1-0.3
			c0.3-0.2,0.5-0.4,0.7-0.7c0.2-0.3,0.3-0.6,0.4-1C354.9,13.7,355,13.3,355,12.9z"/>
		<path id="XMLID_60_" class="st0" d="M366.8,18.7h-3.1l-4.2-11.6h3.4l1.7,5.4c0.1,0.4,0.3,0.9,0.4,1.4s0.2,0.9,0.3,1.2
			c0.1-0.3,0.2-0.7,0.3-1.2c0.1-0.5,0.3-0.9,0.4-1.4l1.7-5.4h3.3L366.8,18.7z"/>
		<path id="XMLID_57_" class="st0" d="M382.5,12.9c0,0.2,0,0.4,0,0.6c0,0.2,0,0.3,0,0.4h-7c0,0.4,0.1,0.7,0.3,1s0.3,0.5,0.6,0.7
			c0.2,0.2,0.5,0.3,0.7,0.4c0.3,0.1,0.5,0.1,0.8,0.1c0.4,0,0.8-0.1,1.2-0.2c0.3-0.1,0.6-0.3,0.8-0.6l2.2,1.8
			c-0.5,0.6-1.1,1.1-1.8,1.4c-0.8,0.3-1.5,0.5-2.3,0.5c-0.8,0-1.6-0.1-2.3-0.4s-1.2-0.7-1.7-1.2c-0.5-0.5-0.8-1.2-1.1-1.9
			c-0.3-0.7-0.4-1.6-0.4-2.5c0-0.9,0.1-1.7,0.4-2.4c0.3-0.7,0.6-1.4,1.1-1.9c0.5-0.5,1-1,1.6-1.3c0.6-0.3,1.3-0.4,2-0.4
			c0.8,0,1.5,0.2,2.1,0.5c0.6,0.3,1.1,0.8,1.5,1.3c0.4,0.6,0.7,1.2,1,1.9C382.4,11.3,382.5,12.1,382.5,12.9z M379.6,11.6
			c0-0.3-0.1-0.5-0.2-0.8c-0.1-0.2-0.2-0.5-0.4-0.7c-0.2-0.2-0.4-0.4-0.6-0.5c-0.3-0.1-0.5-0.2-0.9-0.2c-0.6,0-1,0.2-1.3,0.6
			c-0.3,0.4-0.5,0.9-0.6,1.5H379.6z"/>
		<path id="XMLID_55_" class="st0" d="M391.8,10.7c-0.3-0.2-0.5-0.4-0.8-0.5c-0.3-0.1-0.6-0.2-1-0.2c-0.3,0-0.6,0-0.8,0.1
			c-0.2,0.1-0.5,0.2-0.6,0.4c-0.2,0.2-0.3,0.5-0.4,0.8c-0.1,0.3-0.1,0.7-0.1,1.2v6.3H385V7.1h3.1v0.8c0.3-0.3,0.6-0.5,1-0.7
			c0.4-0.2,0.9-0.3,1.4-0.3c0.5,0,0.9,0.1,1.3,0.3c0.4,0.2,0.6,0.4,0.9,0.6L391.8,10.7z"/>
		<path id="XMLID_52_" class="st0" d="M397.9,4.4c0,0.5-0.2,0.9-0.5,1.2c-0.3,0.3-0.8,0.5-1.2,0.5s-0.9-0.2-1.2-0.5
			c-0.3-0.3-0.5-0.8-0.5-1.2s0.2-0.9,0.5-1.2c0.3-0.3,0.8-0.5,1.2-0.5s0.9,0.2,1.2,0.5C397.7,3.5,397.9,3.9,397.9,4.4z M394.6,18.7
			V7.1h3.1v11.6H394.6z"/>
		<path id="XMLID_50_" class="st0" d="M407.7,18.7v-6.3c0-1-0.2-1.7-0.5-2.1s-0.8-0.6-1.5-0.6s-1.1,0.2-1.5,0.6
			c-0.3,0.4-0.5,1.1-0.5,2.1v6.4h-3.1V7.1h3.1v0.8c0.3-0.3,0.6-0.5,1.1-0.7s1-0.3,1.6-0.3c1.5,0,2.6,0.5,3.3,1.4s1,2.2,1,3.9v6.6
			H407.7z"/>
		<path id="XMLID_47_" class="st0" d="M423.1,16.8c0,1-0.1,1.8-0.2,2.5c-0.1,0.7-0.4,1.4-0.8,1.9c-0.4,0.5-0.9,0.9-1.5,1.2
			c-0.6,0.3-1.5,0.5-2.5,0.6l-1.1-2.3c0.6-0.1,1.1-0.2,1.5-0.3c0.4-0.1,0.7-0.3,0.9-0.5c0.2-0.2,0.4-0.5,0.5-0.8
			c0.1-0.3,0.1-0.7,0.1-1.1c-0.3,0.3-0.6,0.5-1,0.7c-0.4,0.2-0.9,0.3-1.4,0.3c-0.6,0-1.2-0.1-1.7-0.4c-0.5-0.2-1-0.6-1.4-1.1
			c-0.4-0.5-0.7-1.2-1-1.9c-0.2-0.8-0.4-1.7-0.4-2.8c0-0.9,0.1-1.7,0.3-2.4c0.2-0.7,0.5-1.3,0.9-1.9c0.4-0.5,0.9-0.9,1.4-1.2
			s1.2-0.4,1.9-0.4c0.5,0,1,0.1,1.4,0.3c0.4,0.2,0.8,0.4,1.1,0.6V7.1h3.1V16.8z M420,10.7c-0.5-0.7-1.2-1-2.1-1c-1.2,0-1.8,1-1.8,3
			c0,1.2,0.2,2.1,0.5,2.6c0.4,0.5,0.8,0.8,1.5,0.8c0.5,0,0.8-0.1,1.1-0.3c0.3-0.2,0.5-0.4,0.8-0.7V10.7z"/>
		<path id="XMLID_45_" class="st0" d="M444.4,18.7V13c0-0.2,0-0.5,0-0.8c0-0.3,0-0.7,0-1c0-0.3,0-0.7,0-1c0-0.3,0-0.5,0-0.7
			c-0.1,0.3-0.3,0.7-0.5,1.2s-0.4,1-0.6,1.4l-3.1,6.9l-3.1-6.9c-0.2-0.4-0.4-0.9-0.6-1.4c-0.2-0.5-0.4-0.9-0.5-1.2
			c0,0.1,0,0.4,0,0.7c0,0.3,0,0.6,0,1c0,0.3,0,0.7,0,1c0,0.3,0,0.6,0,0.8v5.7H433V3.2h3l3.2,7c0.1,0.2,0.2,0.5,0.3,0.7
			c0.1,0.2,0.2,0.5,0.3,0.7c0.1,0.2,0.2,0.5,0.3,0.7c0.1,0.2,0.1,0.4,0.2,0.5c0.1-0.3,0.3-0.7,0.4-1.2c0.2-0.5,0.4-1,0.6-1.4l3.1-7
			h3.1v15.5H444.4z"/>
		<path id="XMLID_42_" class="st0" d="M457.4,18.7V18c-0.3,0.3-0.7,0.5-1.1,0.7c-0.5,0.2-1,0.3-1.5,0.3c-0.5,0-1.1-0.1-1.6-0.3
			c-0.5-0.2-1-0.4-1.4-0.8c-0.4-0.3-0.7-0.8-1-1.3s-0.4-1.1-0.4-1.8c0-0.6,0.1-1.2,0.4-1.7c0.2-0.5,0.6-0.9,1-1.2
			c0.4-0.3,0.9-0.6,1.5-0.7s1.2-0.2,1.8-0.2c0.5,0,1,0,1.3,0.1s0.7,0.2,0.9,0.3v-0.6c0-0.4-0.1-0.8-0.4-1.1s-0.7-0.4-1.3-0.4
			c-0.4,0-0.7,0-0.9,0s-0.5,0.1-0.8,0.1c-0.2,0.1-0.5,0.1-0.7,0.2c-0.2,0.1-0.5,0.2-0.8,0.4L451.4,8c0.3-0.2,0.7-0.4,1-0.5
			s0.6-0.3,1-0.4s0.7-0.2,1.1-0.2c0.4-0.1,0.8-0.1,1.3-0.1c0.7,0,1.4,0.1,1.9,0.3c0.6,0.2,1.1,0.4,1.5,0.8c0.4,0.3,0.7,0.8,1,1.3
			c0.2,0.5,0.3,1.1,0.3,1.7v7.8H457.4z M457.4,13.9c-0.3-0.2-0.6-0.3-0.9-0.4c-0.3-0.1-0.7-0.1-1.3-0.1c-0.6,0-1,0.1-1.3,0.4
			c-0.3,0.3-0.5,0.6-0.5,1.1c0,0.4,0.1,0.8,0.4,1.1c0.3,0.3,0.7,0.5,1.4,0.5c0.5,0,0.9-0.1,1.3-0.3c0.4-0.2,0.6-0.5,0.8-0.7V13.9z"
			/>
		<path id="XMLID_40_" class="st0" d="M470.3,18.7v-6.3c0-1-0.2-1.7-0.5-2.1s-0.8-0.6-1.5-0.6s-1.1,0.2-1.5,0.6
			c-0.3,0.4-0.5,1.1-0.5,2.1v6.4h-3.1V7.1h3.1v0.8c0.3-0.3,0.6-0.5,1.1-0.7s1-0.3,1.6-0.3c1.5,0,2.6,0.5,3.3,1.4s1,2.2,1,3.9v6.6
			H470.3z"/>
		<path id="XMLID_38_" class="st0" d="M481.3,22.8h-3l1.5-4.1l-4.5-11.6h3.4l1.9,5.6c0.2,0.4,0.3,0.9,0.4,1.4s0.2,0.9,0.3,1.2
			c0.1-0.3,0.2-0.7,0.3-1.2s0.3-0.9,0.4-1.4l1.9-5.6h3.3L481.3,22.8z"/>
		<path id="XMLID_36_" class="st0" d="M507.6,14c0,0.7-0.1,1.4-0.4,2c-0.2,0.6-0.6,1.1-1.1,1.6s-1.1,0.8-1.9,1
			c-0.8,0.2-1.7,0.4-2.7,0.4c-1.3,0-2.5-0.3-3.5-0.8c-1.1-0.5-1.9-1.2-2.5-2.1l2.2-2c0.5,0.6,1.2,1.1,1.8,1.4
			c0.7,0.3,1.4,0.4,2.1,0.4c0.9,0,1.6-0.1,2-0.4c0.4-0.3,0.7-0.7,0.7-1.3c0-0.3,0-0.5-0.1-0.7c-0.1-0.2-0.3-0.4-0.5-0.5
			c-0.2-0.2-0.6-0.3-1.1-0.5c-0.5-0.1-1-0.3-1.8-0.5c-0.7-0.2-1.4-0.4-2-0.6c-0.6-0.2-1.1-0.5-1.5-0.8c-0.4-0.3-0.8-0.8-1-1.3
			s-0.4-1.2-0.4-1.9c0-0.7,0.1-1.3,0.4-1.9c0.3-0.6,0.7-1,1.2-1.4c0.5-0.4,1.1-0.7,1.8-0.9s1.4-0.3,2.2-0.3c1.2,0,2.3,0.2,3.2,0.6
			c0.9,0.4,1.7,1,2.5,1.8L505,7.6c-0.5-0.5-1-0.9-1.6-1.2S502.2,6,501.5,6c-0.4,0-0.8,0-1,0.1s-0.5,0.2-0.7,0.3s-0.3,0.3-0.4,0.4
			c-0.1,0.2-0.1,0.3-0.1,0.5c0,0.3,0,0.5,0.1,0.6c0.1,0.2,0.3,0.3,0.5,0.5c0.2,0.1,0.6,0.3,1,0.4c0.4,0.1,0.9,0.3,1.5,0.4
			c0.6,0.1,1.2,0.3,1.8,0.5c0.6,0.2,1.2,0.5,1.7,0.8c0.5,0.4,0.9,0.8,1.2,1.4C507.4,12.5,507.6,13.2,507.6,14z"/>
		<path id="XMLID_33_" class="st0" d="M519.8,12.9c0,0.2,0,0.4,0,0.6c0,0.2,0,0.3,0,0.4h-7c0,0.4,0.1,0.7,0.3,1s0.3,0.5,0.6,0.7
			c0.2,0.2,0.5,0.3,0.7,0.4c0.3,0.1,0.5,0.1,0.8,0.1c0.4,0,0.8-0.1,1.2-0.2c0.3-0.1,0.6-0.3,0.8-0.6l2.2,1.8
			c-0.5,0.6-1.1,1.1-1.8,1.4c-0.8,0.3-1.5,0.5-2.3,0.5c-0.8,0-1.6-0.1-2.3-0.4s-1.2-0.7-1.7-1.2c-0.5-0.5-0.8-1.2-1.1-1.9
			c-0.3-0.7-0.4-1.6-0.4-2.5c0-0.9,0.1-1.7,0.4-2.4c0.3-0.7,0.6-1.4,1.1-1.9c0.5-0.5,1-1,1.6-1.3c0.6-0.3,1.3-0.4,2-0.4
			c0.8,0,1.5,0.2,2.1,0.5c0.6,0.3,1.1,0.8,1.5,1.3c0.4,0.6,0.7,1.2,1,1.9C519.7,11.3,519.8,12.1,519.8,12.9z M516.9,11.6
			c0-0.3-0.1-0.5-0.2-0.8c-0.1-0.2-0.2-0.5-0.4-0.7c-0.2-0.2-0.4-0.4-0.6-0.5c-0.3-0.1-0.5-0.2-0.9-0.2c-0.6,0-1,0.2-1.3,0.6
			c-0.3,0.4-0.5,0.9-0.6,1.5H516.9z"/>
		<path id="XMLID_30_" class="st0" d="M525.7,4.4c0,0.5-0.2,0.9-0.5,1.2c-0.3,0.3-0.8,0.5-1.2,0.5S523,6,522.7,5.6
			c-0.3-0.3-0.5-0.8-0.5-1.2s0.2-0.9,0.5-1.2c0.3-0.3,0.8-0.5,1.2-0.5s0.9,0.2,1.2,0.5C525.5,3.5,525.7,3.9,525.7,4.4z M522.4,18.7
			V7.1h3.1v11.6H522.4z"/>
		<path id="XMLID_28_" class="st0" d="M528.4,18.7v-2.2l4.2-5c0.2-0.3,0.5-0.6,0.8-0.9c0.3-0.3,0.5-0.6,0.7-0.8c-0.1,0-0.2,0-0.4,0
			c-0.2,0-0.3,0-0.5,0c-0.2,0-0.4,0-0.5,0s-0.3,0-0.5,0h-3.4V7.1h9.2v2.2l-4.1,5c-0.2,0.3-0.5,0.6-0.8,0.9s-0.5,0.6-0.7,0.7
			c0.1,0,0.2,0,0.4,0c0.2,0,0.3,0,0.5,0s0.4,0,0.5,0c0.2,0,0.3,0,0.5,0h3.6v2.8H528.4z"/>
		<path id="XMLID_26_" class="st0" d="M547.7,18.7V18c-0.3,0.3-0.6,0.5-1.1,0.7s-1,0.3-1.6,0.3c-1.5,0-2.6-0.5-3.3-1.4s-1-2.2-1-3.9
			V7.1h3.1v6.3c0,0.5,0,0.9,0.1,1.3c0.1,0.3,0.2,0.6,0.4,0.8c0.2,0.2,0.4,0.4,0.6,0.4c0.3,0.1,0.5,0.1,0.8,0.1
			c0.6,0,1.1-0.2,1.5-0.6c0.3-0.4,0.5-1.1,0.5-2.1V7.1h3.1v11.6H547.7z"/>
		<path id="XMLID_24_" class="st0" d="M560.5,10.7c-0.3-0.2-0.5-0.4-0.8-0.5c-0.3-0.1-0.6-0.2-1-0.2c-0.3,0-0.6,0-0.8,0.1
			c-0.2,0.1-0.5,0.2-0.6,0.4c-0.2,0.2-0.3,0.5-0.4,0.8c-0.1,0.3-0.1,0.7-0.1,1.2v6.3h-3.1V7.1h3.1v0.8c0.3-0.3,0.6-0.5,1-0.7
			c0.4-0.2,0.9-0.3,1.4-0.3c0.5,0,0.9,0.1,1.3,0.3c0.4,0.2,0.6,0.4,0.9,0.6L560.5,10.7z"/>
		<path id="XMLID_21_" class="st0" d="M572.7,12.9c0,0.2,0,0.4,0,0.6c0,0.2,0,0.3,0,0.4h-7c0,0.4,0.1,0.7,0.3,1s0.3,0.5,0.6,0.7
			c0.2,0.2,0.5,0.3,0.7,0.4c0.3,0.1,0.5,0.1,0.8,0.1c0.4,0,0.8-0.1,1.2-0.2c0.3-0.1,0.6-0.3,0.8-0.6l2.2,1.8
			c-0.5,0.6-1.1,1.1-1.8,1.4c-0.8,0.3-1.5,0.5-2.3,0.5c-0.8,0-1.6-0.1-2.3-0.4s-1.2-0.7-1.7-1.2c-0.5-0.5-0.8-1.2-1.1-1.9
			c-0.3-0.7-0.4-1.6-0.4-2.5c0-0.9,0.1-1.7,0.4-2.4c0.3-0.7,0.6-1.4,1.1-1.9c0.5-0.5,1-1,1.6-1.3c0.6-0.3,1.3-0.4,2-0.4
			c0.8,0,1.5,0.2,2.1,0.5c0.6,0.3,1.1,0.8,1.5,1.3c0.4,0.6,0.7,1.2,1,1.9C572.6,11.3,572.7,12.1,572.7,12.9z M569.7,11.6
			c0-0.3-0.1-0.5-0.2-0.8c-0.1-0.2-0.2-0.5-0.4-0.7c-0.2-0.2-0.4-0.4-0.6-0.5c-0.3-0.1-0.5-0.2-0.9-0.2c-0.6,0-1,0.2-1.3,0.6
			c-0.3,0.4-0.5,0.9-0.6,1.5H569.7z"/>
		<path id="XMLID_19_" class="st0" d="M588.6,6.3v12.4h-3.1V6.3h-4.5V3.2h12v3.1H588.6z"/>
		<path id="XMLID_17_" class="st0" d="M600.6,22.8h-3l1.5-4.1l-4.5-11.6h3.4l1.9,5.6c0.2,0.4,0.3,0.9,0.4,1.4s0.2,0.9,0.3,1.2
			c0.1-0.3,0.2-0.7,0.3-1.2s0.3-0.9,0.4-1.4l1.9-5.6h3.3L600.6,22.8z"/>
		<path id="XMLID_14_" class="st0" d="M618.6,13.1c0,0.9-0.1,1.7-0.3,2.4c-0.2,0.7-0.5,1.3-0.9,1.9c-0.4,0.5-0.9,0.9-1.4,1.2
			c-0.6,0.3-1.2,0.4-1.9,0.4c-0.5,0-1-0.1-1.4-0.3c-0.4-0.2-0.8-0.4-1.1-0.6v3.4l-3.1,1.5V7.1h3.1v0.7c0.3-0.3,0.6-0.5,1-0.7
			c0.4-0.2,0.9-0.3,1.4-0.3c0.6,0,1.2,0.1,1.7,0.4c0.5,0.2,1,0.6,1.4,1.1c0.4,0.5,0.7,1.2,1,1.9C618.5,11.1,618.6,12,618.6,13.1z
			 M615.5,13.1c0-1.2-0.2-2.1-0.5-2.6c-0.4-0.5-0.8-0.8-1.5-0.8c-0.5,0-0.8,0.1-1.1,0.3c-0.3,0.2-0.5,0.4-0.8,0.7v4.4
			c0.5,0.7,1.2,1,2.1,1C614.9,16.1,615.5,15.1,615.5,13.1z"/>
		<path id="XMLID_11_" class="st0" d="M630.5,12.9c0,0.2,0,0.4,0,0.6c0,0.2,0,0.3,0,0.4h-7c0,0.4,0.1,0.7,0.3,1s0.3,0.5,0.6,0.7
			c0.2,0.2,0.5,0.3,0.7,0.4c0.3,0.1,0.5,0.1,0.8,0.1c0.4,0,0.8-0.1,1.2-0.2c0.3-0.1,0.6-0.3,0.8-0.6l2.2,1.8
			c-0.5,0.6-1.1,1.1-1.8,1.4c-0.8,0.3-1.5,0.5-2.3,0.5c-0.8,0-1.6-0.1-2.3-0.4s-1.2-0.7-1.7-1.2c-0.5-0.5-0.8-1.2-1.1-1.9
			c-0.3-0.7-0.4-1.6-0.4-2.5c0-0.9,0.1-1.7,0.4-2.4c0.3-0.7,0.6-1.4,1.1-1.9c0.5-0.5,1-1,1.6-1.3c0.6-0.3,1.3-0.4,2-0.4
			c0.8,0,1.5,0.2,2.1,0.5c0.6,0.3,1.1,0.8,1.5,1.3c0.4,0.6,0.7,1.2,1,1.9C630.4,11.3,630.5,12.1,630.5,12.9z M627.6,11.6
			c0-0.3-0.1-0.5-0.2-0.8c-0.1-0.2-0.2-0.5-0.4-0.7c-0.2-0.2-0.4-0.4-0.6-0.5c-0.3-0.1-0.5-0.2-0.9-0.2c-0.6,0-1,0.2-1.3,0.6
			c-0.3,0.4-0.5,0.9-0.6,1.5H627.6z"/>
		<path id="XMLID_9_" class="st0" d="M642.1,15.3c0,0.7-0.1,1.2-0.4,1.7s-0.6,0.8-1,1.1c-0.4,0.3-0.9,0.5-1.5,0.6
			c-0.6,0.1-1.2,0.2-1.8,0.2c-0.9,0-1.8-0.1-2.7-0.4c-0.8-0.2-1.6-0.6-2.2-1l1-2.3c0.6,0.3,1.3,0.6,1.9,0.8c0.7,0.2,1.4,0.3,2.1,0.3
			c0.6,0,1-0.1,1.2-0.2c0.2-0.1,0.3-0.4,0.3-0.7c0-0.3-0.1-0.5-0.4-0.6c-0.2-0.2-0.7-0.3-1.3-0.5c-0.7-0.2-1.3-0.4-1.9-0.6
			c-0.6-0.2-1.1-0.5-1.5-0.8c-0.4-0.3-0.7-0.6-0.9-1.1c-0.2-0.4-0.3-0.9-0.3-1.5c0-0.6,0.1-1.1,0.3-1.6c0.2-0.4,0.5-0.8,1-1.1
			c0.4-0.3,0.9-0.5,1.5-0.6s1.2-0.2,1.9-0.2c0.7,0,1.5,0.1,2.2,0.3c0.8,0.2,1.4,0.5,2.1,0.8l-1,2.4c-0.6-0.3-1.2-0.5-1.8-0.7
			c-0.6-0.2-1.1-0.2-1.6-0.2c-0.6,0-1,0.1-1.3,0.2c-0.2,0.1-0.3,0.3-0.3,0.6c0,0.1,0,0.2,0.1,0.3c0.1,0.1,0.2,0.2,0.3,0.3
			s0.4,0.2,0.7,0.3s0.7,0.3,1.3,0.4c0.5,0.2,1,0.4,1.5,0.6c0.5,0.2,0.9,0.4,1.2,0.7s0.6,0.6,0.8,1C642,14.3,642.1,14.8,642.1,15.3z"
			/>
		<path id="XMLID_7_" class="st0" d="M648.5,16.9c0,0.3-0.1,0.5-0.2,0.8c-0.1,0.3-0.3,0.5-0.5,0.7c-0.2,0.2-0.4,0.3-0.7,0.5
			c-0.3,0.1-0.5,0.2-0.8,0.2s-0.5-0.1-0.8-0.2c-0.3-0.1-0.5-0.3-0.7-0.5c-0.2-0.2-0.3-0.4-0.5-0.7c-0.1-0.3-0.2-0.5-0.2-0.8
			s0.1-0.5,0.2-0.8c0.1-0.3,0.3-0.5,0.5-0.7c0.2-0.2,0.4-0.3,0.7-0.5c0.3-0.1,0.5-0.2,0.8-0.2s0.5,0.1,0.8,0.2
			c0.3,0.1,0.5,0.3,0.7,0.5c0.2,0.2,0.3,0.4,0.5,0.7C648.4,16.4,648.5,16.6,648.5,16.9z"/>
	</g>
</g>
<g id="XMLID_1_">
	<path id="XMLID_3_" class="st0" d="M4,12.8c0,0,3.7-8,17.5-8C35.3,4.8,42.9,0,42.9,0s-9.8,10.2-19.5,10.2C13.8,10.2,8,10.2,4,12.8"
		/>
	<path id="XMLID_2_" class="st1" d="M0,20.4c0,0,3.7-8,17.5-8C31.3,12.4,39,7.5,39,7.5s-9.8,10.2-19.5,10.2C9.8,17.7,4,17.7,0,20.4"
		/>
</g>
</svg>
