<!-- Generator: Adobe Illustrator 22.1.0, SVG Export Plug-In  -->
<svg version="1.1"
	 xmlns="http://www.w3.org/2000/svg" xmlns:xlink="http://www.w3.org/1999/xlink" xmlns:a="http://ns.adobe.com/AdobeSVGViewerExtensions/3.0/"
	 x="0px" y="0px" width="666.5px" height="25.2px" viewBox="0 0 666.5 25.2" style="enable-background:new 0 0 666.5 25.2;"
	 xml:space="preserve">
<style type="text/css">
	.st0{fill:#532D6D;}
	.st1{fill:#266093;}
</style>
<defs>
</defs>
<g id="XMLID_4_">
	<g id="XMLID_6_">
		<path id="XMLID_120_" class="st0" d="M66.3,20.9l-2.8-5.6h-3.1v5.6h-3.1V5.4h7.2c0.7,0,1.4,0.1,2.1,0.3s1.2,0.5,1.7,0.9
			s0.9,0.9,1.2,1.5s0.4,1.3,0.4,2.2c0,1.2-0.2,2.1-0.7,2.9c-0.5,0.7-1.2,1.3-2.2,1.7l3,6H66.3z M66.6,10.4c0-0.7-0.2-1.2-0.6-1.5
			c-0.4-0.3-0.9-0.5-1.6-0.5h-4.1v4h4.1C65.9,12.4,66.6,11.7,66.6,10.4z"/>
		<path id="XMLID_117_" class="st0" d="M82.1,15.1c0,0.2,0,0.4,0,0.6c0,0.2,0,0.3,0,0.4h-7c0,0.4,0.1,0.7,0.3,1s0.3,0.5,0.6,0.7
			c0.2,0.2,0.5,0.3,0.7,0.4s0.5,0.1,0.8,0.1c0.4,0,0.8-0.1,1.2-0.2c0.3-0.1,0.6-0.3,0.8-0.6l2.2,1.8c-0.5,0.6-1.1,1.1-1.8,1.4
			c-0.8,0.3-1.5,0.5-2.3,0.5c-0.8,0-1.6-0.1-2.3-0.4s-1.2-0.7-1.7-1.2c-0.5-0.5-0.8-1.2-1.1-1.9S72,16,72,15.1
			c0-0.9,0.1-1.7,0.4-2.4c0.3-0.7,0.6-1.4,1.1-1.9c0.5-0.5,1-1,1.6-1.3c0.6-0.3,1.3-0.4,2-0.4c0.8,0,1.5,0.2,2.1,0.5
			c0.6,0.3,1.1,0.8,1.5,1.3c0.4,0.6,0.7,1.2,1,1.9C81.9,13.5,82.1,14.3,82.1,15.1z M79.1,13.8c0-0.3-0.1-0.5-0.2-0.8
			c-0.1-0.2-0.2-0.5-0.4-0.7c-0.2-0.2-0.4-0.4-0.6-0.5c-0.3-0.1-0.5-0.2-0.9-0.2c-0.6,0-1,0.2-1.3,0.6c-0.3,0.4-0.5,0.9-0.6,1.5
			H79.1z"/>
		<path id="XMLID_115_" class="st0" d="M91,20.5c-0.3,0.2-0.6,0.4-1,0.5c-0.4,0.1-0.9,0.2-1.4,0.2s-0.9-0.1-1.3-0.3
			c-0.4-0.2-0.7-0.4-1-0.7c-0.3-0.3-0.5-0.7-0.6-1.1c-0.1-0.4-0.2-0.9-0.2-1.4v-5.5h-1.9V9.3h1.9v-3l3.1-1.5v4.5h2.8v2.9h-2.8v4.7
			c0,0.6,0.1,0.9,0.3,1.1c0.2,0.2,0.5,0.3,0.8,0.3c0.3,0,0.5-0.1,0.8-0.2c0.2-0.1,0.6-0.4,0.9-0.7L91,20.5z"/>
		<path id="XMLID_112_" class="st0" d="M100.7,20.9v-0.8c-0.3,0.3-0.7,0.5-1.1,0.7c-0.5,0.2-1,0.3-1.5,0.3c-0.5,0-1.1-0.1-1.6-0.3
			c-0.5-0.2-1-0.4-1.4-0.8c-0.4-0.3-0.7-0.8-1-1.3s-0.4-1.1-0.4-1.8c0-0.6,0.1-1.2,0.4-1.7c0.2-0.5,0.6-0.9,1-1.2
			c0.4-0.3,0.9-0.6,1.5-0.7s1.2-0.2,1.8-0.2c0.5,0,1,0,1.3,0.1s0.7,0.2,0.9,0.3v-0.6c0-0.4-0.1-0.8-0.4-1.1s-0.7-0.4-1.3-0.4
			c-0.4,0-0.7,0-0.9,0s-0.5,0.1-0.8,0.1c-0.2,0.1-0.5,0.1-0.7,0.2c-0.2,0.1-0.5,0.2-0.8,0.4l-1.2-2.1c0.3-0.2,0.7-0.4,1-0.5
			s0.6-0.3,1-0.4s0.7-0.2,1.1-0.2C98.1,9.1,98.5,9,99,9c0.7,0,1.4,0.1,1.9,0.3c0.6,0.2,1.1,0.4,1.5,0.8s0.7,0.8,1,1.3
			c0.2,0.5,0.3,1.1,0.3,1.7v7.8H100.7z M100.7,16c-0.3-0.2-0.6-0.3-0.9-0.4c-0.3-0.1-0.7-0.1-1.3-0.1c-0.6,0-1,0.1-1.3,0.4
			c-0.3,0.3-0.5,0.6-0.5,1.1c0,0.4,0.1,0.8,0.4,1.1c0.3,0.3,0.7,0.5,1.4,0.5c0.5,0,0.9-0.1,1.3-0.3c0.4-0.2,0.6-0.5,0.8-0.7V16z"/>
		<path id="XMLID_109_" class="st0" d="M110,6.6c0,0.5-0.2,0.9-0.5,1.2c-0.3,0.3-0.8,0.5-1.2,0.5s-0.9-0.2-1.2-0.5
			c-0.3-0.3-0.5-0.8-0.5-1.2s0.2-0.9,0.5-1.2c0.3-0.3,0.8-0.5,1.2-0.5s0.9,0.2,1.2,0.5C109.8,5.7,110,6.1,110,6.6z M106.7,20.9V9.3
			h3.1v11.6H106.7z"/>
		<path id="XMLID_107_" class="st0" d="M119.9,20.9v-6.3c0-1-0.2-1.7-0.5-2.1s-0.8-0.6-1.5-0.6s-1.1,0.2-1.5,0.6
			c-0.3,0.4-0.5,1.1-0.5,2.1v6.4h-3.1V9.3h3.1v0.8c0.3-0.3,0.6-0.5,1.1-0.7s1-0.3,1.6-0.3c1.5,0,2.6,0.5,3.3,1.4s1,2.2,1,3.9v6.6
			H119.9z"/>
		<path id="XMLID_105_" class="st0" d="M135,17.5c0,0.7-0.1,1.2-0.4,1.7s-0.6,0.8-1,1.1c-0.4,0.3-0.9,0.5-1.5,0.6
			c-0.6,0.1-1.2,0.2-1.8,0.2c-0.9,0-1.8-0.1-2.7-0.4c-0.8-0.2-1.6-0.6-2.2-1l1-2.3c0.6,0.3,1.3,0.6,1.9,0.8c0.7,0.2,1.4,0.3,2.1,0.3
			c0.6,0,1-0.1,1.2-0.2s0.3-0.4,0.3-0.7c0-0.3-0.1-0.5-0.4-0.6c-0.2-0.2-0.7-0.3-1.3-0.5c-0.7-0.2-1.3-0.4-1.9-0.6
			c-0.6-0.2-1.1-0.5-1.5-0.8c-0.4-0.3-0.7-0.6-0.9-1.1c-0.2-0.4-0.3-0.9-0.3-1.5c0-0.6,0.1-1.1,0.3-1.6c0.2-0.4,0.5-0.8,1-1.1
			c0.4-0.3,0.9-0.5,1.5-0.6c0.6-0.1,1.2-0.2,1.9-0.2c0.7,0,1.5,0.1,2.2,0.3c0.8,0.2,1.4,0.5,2.1,0.8l-1,2.4
			c-0.6-0.3-1.2-0.5-1.8-0.7c-0.6-0.2-1.1-0.2-1.6-0.2c-0.6,0-1,0.1-1.3,0.2c-0.2,0.1-0.3,0.3-0.3,0.6c0,0.1,0,0.2,0.1,0.3
			c0.1,0.1,0.2,0.2,0.3,0.3s0.4,0.2,0.7,0.3s0.7,0.3,1.3,0.4c0.5,0.2,1,0.4,1.5,0.6c0.5,0.2,0.9,0.4,1.2,0.7s0.6,0.6,0.8,1
			C134.9,16.5,135,17,135,17.5z"/>
		<path id="XMLID_102_" class="st0" d="M147.5,6.6c0,0.5-0.2,0.9-0.5,1.2c-0.3,0.3-0.8,0.5-1.2,0.5s-0.9-0.2-1.2-0.5
			c-0.3-0.3-0.5-0.8-0.5-1.2s0.2-0.9,0.5-1.2c0.3-0.3,0.8-0.5,1.2-0.5s0.9,0.2,1.2,0.5C147.3,5.7,147.5,6.1,147.5,6.6z M144.2,20.9
			V9.3h3.1v11.6H144.2z"/>
		<path id="XMLID_100_" class="st0" d="M156.8,20.5c-0.3,0.2-0.6,0.4-1,0.5c-0.4,0.1-0.9,0.2-1.4,0.2s-0.9-0.1-1.3-0.3
			c-0.4-0.2-0.7-0.4-1-0.7c-0.3-0.3-0.5-0.7-0.6-1.1c-0.1-0.4-0.2-0.9-0.2-1.4v-5.5h-1.9V9.3h1.9v-3l3.1-1.5v4.5h2.8v2.9h-2.8v4.7
			c0,0.6,0.1,0.9,0.3,1.1c0.2,0.2,0.5,0.3,0.8,0.3c0.3,0,0.5-0.1,0.8-0.2c0.2-0.1,0.6-0.4,0.9-0.7L156.8,20.5z"/>
		<path id="XMLID_98_" class="st0" d="M169.3,17.5c0,0.7-0.1,1.2-0.4,1.7s-0.6,0.8-1,1.1c-0.4,0.3-0.9,0.5-1.5,0.6
			c-0.6,0.1-1.2,0.2-1.8,0.2c-0.9,0-1.8-0.1-2.7-0.4c-0.8-0.2-1.6-0.6-2.2-1l1-2.3c0.6,0.3,1.3,0.6,1.9,0.8s1.4,0.3,2.1,0.3
			c0.6,0,1-0.1,1.2-0.2s0.3-0.4,0.3-0.7c0-0.3-0.1-0.5-0.4-0.6c-0.2-0.2-0.7-0.3-1.3-0.5c-0.7-0.2-1.3-0.4-1.9-0.6
			c-0.6-0.2-1.1-0.5-1.5-0.8c-0.4-0.3-0.7-0.6-0.9-1.1c-0.2-0.4-0.3-0.9-0.3-1.5c0-0.6,0.1-1.1,0.3-1.6c0.2-0.4,0.5-0.8,1-1.1
			c0.4-0.3,0.9-0.5,1.5-0.6S164,9,164.6,9c0.7,0,1.5,0.1,2.2,0.3c0.8,0.2,1.4,0.5,2.1,0.8l-1,2.4c-0.6-0.3-1.2-0.5-1.8-0.7
			c-0.6-0.2-1.1-0.2-1.6-0.2c-0.6,0-1,0.1-1.3,0.2c-0.2,0.1-0.3,0.3-0.3,0.6c0,0.1,0,0.2,0.1,0.3c0.1,0.1,0.2,0.2,0.3,0.3
			s0.4,0.2,0.7,0.3s0.7,0.3,1.3,0.4c0.5,0.2,1,0.4,1.5,0.6c0.5,0.2,0.9,0.4,1.2,0.7s0.6,0.6,0.8,1C169.2,16.5,169.3,17,169.3,17.5z"
			/>
		<path id="XMLID_96_" class="st0" d="M178.9,20.9V5.4h10.8v3H182v2.7h4.5v3H182v3.7h8v3H178.9z"/>
		<path id="XMLID_94_" class="st0" d="M198.3,7.5c-0.2,0-0.4-0.1-0.6-0.1c-0.5,0-0.8,0.1-0.9,0.2s-0.2,0.4-0.2,0.7v1h2v2.9h-2v8.7
			h-3.1v-8.7h-1.4V9.3h1.4V7.9c0-1.1,0.3-1.9,0.9-2.3c0.6-0.5,1.4-0.7,2.5-0.7c0.8,0,1.4,0.1,1.9,0.3v2.5
			C198.7,7.6,198.5,7.5,198.3,7.5z"/>
		<path id="XMLID_92_" class="st0" d="M206.5,7.5c-0.2,0-0.4-0.1-0.6-0.1c-0.5,0-0.8,0.1-0.9,0.2s-0.2,0.4-0.2,0.7v1h2v2.9h-2v8.7
			h-3.1v-8.7h-1.4V9.3h1.4V7.9c0-1.1,0.3-1.9,0.9-2.3c0.6-0.5,1.4-0.7,2.5-0.7c0.8,0,1.4,0.1,1.9,0.3v2.5
			C206.8,7.6,206.7,7.5,206.5,7.5z"/>
		<path id="XMLID_89_" class="st0" d="M218.7,15.1c0,0.2,0,0.4,0,0.6c0,0.2,0,0.3,0,0.4h-7c0,0.4,0.1,0.7,0.3,1s0.3,0.5,0.6,0.7
			c0.2,0.2,0.5,0.3,0.7,0.4s0.5,0.1,0.8,0.1c0.4,0,0.8-0.1,1.2-0.2c0.3-0.1,0.6-0.3,0.8-0.6l2.2,1.8c-0.5,0.6-1.1,1.1-1.8,1.4
			c-0.8,0.3-1.5,0.5-2.3,0.5c-0.8,0-1.6-0.1-2.3-0.4s-1.2-0.7-1.7-1.2c-0.5-0.5-0.8-1.2-1.1-1.9s-0.4-1.6-0.4-2.5
			c0-0.9,0.1-1.7,0.4-2.4c0.3-0.7,0.6-1.4,1.1-1.9c0.5-0.5,1-1,1.6-1.3c0.6-0.3,1.3-0.4,2-0.4c0.8,0,1.5,0.2,2.1,0.5
			c0.6,0.3,1.1,0.8,1.5,1.3c0.4,0.6,0.7,1.2,1,1.9C218.6,13.5,218.7,14.3,218.7,15.1z M215.7,13.8c0-0.3-0.1-0.5-0.2-0.8
			c-0.1-0.2-0.2-0.5-0.4-0.7c-0.2-0.2-0.4-0.4-0.6-0.5c-0.3-0.1-0.5-0.2-0.9-0.2c-0.6,0-1,0.2-1.3,0.6c-0.3,0.4-0.5,0.9-0.6,1.5
			H215.7z"/>
		<path id="XMLID_87_" class="st0" d="M229.8,19.6c-0.3,0.3-0.7,0.6-1,0.8c-0.4,0.2-0.8,0.4-1.3,0.5c-0.5,0.1-1,0.2-1.6,0.2
			c-0.8,0-1.5-0.1-2.1-0.4c-0.7-0.3-1.2-0.7-1.7-1.2c-0.5-0.5-0.9-1.2-1.2-1.9c-0.3-0.7-0.4-1.6-0.4-2.4c0-0.9,0.1-1.7,0.4-2.4
			c0.3-0.7,0.7-1.4,1.2-1.9c0.5-0.5,1.1-1,1.8-1.3c0.7-0.3,1.4-0.4,2.2-0.4c1.1,0,2,0.2,2.8,0.7c0.7,0.5,1.4,1.1,1.8,1.8l-2,2
			c-0.3-0.5-0.7-0.9-1.1-1.2S226.7,12,226,12c-0.7,0-1.3,0.3-1.8,0.8c-0.4,0.6-0.7,1.3-0.7,2.3c0,0.9,0.2,1.7,0.7,2.3
			c0.4,0.6,1,0.9,1.8,0.9c0.6,0,1.1-0.1,1.5-0.4c0.4-0.3,0.8-0.6,1.2-1.1l1.9,1.8C230.4,19,230.1,19.3,229.8,19.6z"/>
		<path id="XMLID_85_" class="st0" d="M239.5,20.5c-0.3,0.2-0.6,0.4-1,0.5c-0.4,0.1-0.9,0.2-1.4,0.2s-0.9-0.1-1.3-0.3
			c-0.4-0.2-0.7-0.4-1-0.7c-0.3-0.3-0.5-0.7-0.6-1.1c-0.1-0.4-0.2-0.9-0.2-1.4v-5.5h-1.9V9.3h1.9v-3l3.1-1.5v4.5h2.8v2.9h-2.8v4.7
			c0,0.6,0.1,0.9,0.3,1.1c0.2,0.2,0.5,0.3,0.8,0.3c0.3,0,0.5-0.1,0.8-0.2c0.2-0.1,0.6-0.4,0.9-0.7L239.5,20.5z"/>
		<path id="XMLID_82_" class="st0" d="M246.2,6.6c0,0.5-0.2,0.9-0.5,1.2c-0.3,0.3-0.8,0.5-1.2,0.5s-0.9-0.2-1.2-0.5
			c-0.3-0.3-0.5-0.8-0.5-1.2s0.2-0.9,0.5-1.2c0.3-0.3,0.8-0.5,1.2-0.5s0.9,0.2,1.2,0.5C246,5.7,246.2,6.1,246.2,6.6z M242.9,20.9
			V9.3h3.1v11.6H242.9z"/>
		<path id="XMLID_80_" class="st0" d="M255.4,20.9h-3.1l-4.2-11.6h3.4l1.7,5.4c0.1,0.4,0.3,0.9,0.4,1.4c0.1,0.5,0.2,0.9,0.3,1.2
			c0.1-0.3,0.2-0.7,0.3-1.2c0.1-0.5,0.3-0.9,0.4-1.4l1.7-5.4h3.3L255.4,20.9z"/>
		<path id="XMLID_77_" class="st0" d="M271.1,15.1c0,0.2,0,0.4,0,0.6c0,0.2,0,0.3,0,0.4h-7c0,0.4,0.1,0.7,0.3,1s0.3,0.5,0.6,0.7
			c0.2,0.2,0.5,0.3,0.7,0.4s0.5,0.1,0.8,0.1c0.4,0,0.8-0.1,1.2-0.2c0.3-0.1,0.6-0.3,0.8-0.6l2.2,1.8c-0.5,0.6-1.1,1.1-1.8,1.4
			c-0.8,0.3-1.5,0.5-2.3,0.5c-0.8,0-1.6-0.1-2.3-0.4s-1.2-0.7-1.7-1.2c-0.5-0.5-0.8-1.2-1.1-1.9s-0.4-1.6-0.4-2.5
			c0-0.9,0.1-1.7,0.4-2.4c0.3-0.7,0.6-1.4,1.1-1.9c0.5-0.5,1-1,1.6-1.3c0.6-0.3,1.3-0.4,2-0.4c0.8,0,1.5,0.2,2.1,0.5
			c0.6,0.3,1.1,0.8,1.5,1.3c0.4,0.6,0.7,1.2,1,1.9C271,13.5,271.1,14.3,271.1,15.1z M268.2,13.8c0-0.3-0.1-0.5-0.2-0.8
			c-0.1-0.2-0.2-0.5-0.4-0.7c-0.2-0.2-0.4-0.4-0.6-0.5c-0.3-0.1-0.5-0.2-0.9-0.2c-0.6,0-1,0.2-1.3,0.6c-0.3,0.4-0.5,0.9-0.6,1.5
			H268.2z"/>
		<path id="XMLID_75_" class="st0" d="M280.6,20.9v-6.3c0-1-0.2-1.7-0.5-2.1s-0.8-0.6-1.5-0.6s-1.1,0.2-1.5,0.6
			c-0.3,0.4-0.5,1.1-0.5,2.1v6.4h-3.1V9.3h3.1v0.8c0.3-0.3,0.6-0.5,1.1-0.7s1-0.3,1.6-0.3c1.5,0,2.6,0.5,3.3,1.4s1,2.2,1,3.9v6.6
			H280.6z"/>
		<path id="XMLID_72_" class="st0" d="M296,15.1c0,0.2,0,0.4,0,0.6c0,0.2,0,0.3,0,0.4h-7c0,0.4,0.1,0.7,0.3,1s0.3,0.5,0.6,0.7
			c0.2,0.2,0.5,0.3,0.7,0.4s0.5,0.1,0.8,0.1c0.4,0,0.8-0.1,1.2-0.2c0.3-0.1,0.6-0.3,0.8-0.6l2.2,1.8c-0.5,0.6-1.1,1.1-1.8,1.4
			c-0.8,0.3-1.5,0.5-2.3,0.5c-0.8,0-1.6-0.1-2.3-0.4s-1.2-0.7-1.7-1.2c-0.5-0.5-0.8-1.2-1.1-1.9s-0.4-1.6-0.4-2.5
			c0-0.9,0.1-1.7,0.4-2.4c0.3-0.7,0.6-1.4,1.1-1.9c0.5-0.5,1-1,1.6-1.3c0.6-0.3,1.3-0.4,2-0.4c0.8,0,1.5,0.2,2.1,0.5
			c0.6,0.3,1.1,0.8,1.5,1.3c0.4,0.6,0.7,1.2,1,1.9C295.9,13.5,296,14.3,296,15.1z M293,13.8c0-0.3-0.1-0.5-0.2-0.8
			c-0.1-0.2-0.2-0.5-0.4-0.7c-0.2-0.2-0.4-0.4-0.6-0.5c-0.3-0.1-0.5-0.2-0.9-0.2c-0.6,0-1,0.2-1.3,0.6c-0.3,0.4-0.5,0.9-0.6,1.5H293
			z"/>
		<path id="XMLID_70_" class="st0" d="M307.6,17.5c0,0.7-0.1,1.2-0.4,1.7s-0.6,0.8-1,1.1c-0.4,0.3-0.9,0.5-1.5,0.6
			c-0.6,0.1-1.2,0.2-1.8,0.2c-0.9,0-1.8-0.1-2.7-0.4c-0.8-0.2-1.6-0.6-2.2-1l1-2.3c0.6,0.3,1.3,0.6,1.9,0.8s1.4,0.3,2.1,0.3
			c0.6,0,1-0.1,1.2-0.2s0.3-0.4,0.3-0.7c0-0.3-0.1-0.5-0.4-0.6c-0.2-0.2-0.7-0.3-1.3-0.5c-0.7-0.2-1.3-0.4-1.9-0.6
			c-0.6-0.2-1.1-0.5-1.5-0.8c-0.4-0.3-0.7-0.6-0.9-1.1c-0.2-0.4-0.3-0.9-0.3-1.5c0-0.6,0.1-1.1,0.3-1.6c0.2-0.4,0.5-0.8,1-1.1
			c0.4-0.3,0.9-0.5,1.5-0.6S302.3,9,303,9c0.7,0,1.5,0.1,2.2,0.3c0.8,0.2,1.4,0.5,2.1,0.8l-1,2.4c-0.6-0.3-1.2-0.5-1.8-0.7
			c-0.6-0.2-1.1-0.2-1.6-0.2c-0.6,0-1,0.1-1.3,0.2c-0.2,0.1-0.3,0.3-0.3,0.6c0,0.1,0,0.2,0.1,0.3c0.1,0.1,0.2,0.2,0.3,0.3
			s0.4,0.2,0.7,0.3s0.7,0.3,1.3,0.4c0.5,0.2,1,0.4,1.5,0.6c0.5,0.2,0.9,0.4,1.2,0.7s0.6,0.6,0.8,1C307.5,16.5,307.6,17,307.6,17.5z"
			/>
		<path id="XMLID_68_" class="st0" d="M319.5,17.5c0,0.7-0.1,1.2-0.4,1.7s-0.6,0.8-1,1.1c-0.4,0.3-0.9,0.5-1.5,0.6
			c-0.6,0.1-1.2,0.2-1.8,0.2c-0.9,0-1.8-0.1-2.7-0.4c-0.8-0.2-1.6-0.6-2.2-1l1-2.3c0.6,0.3,1.3,0.6,1.9,0.8s1.4,0.3,2.1,0.3
			c0.6,0,1-0.1,1.2-0.2s0.3-0.4,0.3-0.7c0-0.3-0.1-0.5-0.4-0.6c-0.2-0.2-0.7-0.3-1.3-0.5c-0.7-0.2-1.3-0.4-1.9-0.6
			c-0.6-0.2-1.1-0.5-1.5-0.8c-0.4-0.3-0.7-0.6-0.9-1.1c-0.2-0.4-0.3-0.9-0.3-1.5c0-0.6,0.1-1.1,0.3-1.6c0.2-0.4,0.5-0.8,1-1.1
			c0.4-0.3,0.9-0.5,1.5-0.6s1.2-0.2,1.9-0.2c0.7,0,1.5,0.1,2.2,0.3c0.8,0.2,1.4,0.5,2.1,0.8l-1,2.4c-0.6-0.3-1.2-0.5-1.8-0.7
			c-0.6-0.2-1.1-0.2-1.6-0.2c-0.6,0-1,0.1-1.3,0.2c-0.2,0.1-0.3,0.3-0.3,0.6c0,0.1,0,0.2,0.1,0.3c0.1,0.1,0.2,0.2,0.3,0.3
			s0.4,0.2,0.7,0.3s0.7,0.3,1.3,0.4c0.5,0.2,1,0.4,1.5,0.6c0.5,0.2,0.9,0.4,1.2,0.7s0.6,0.6,0.8,1C319.4,16.5,319.5,17,319.5,17.5z"
			/>
		<path id="XMLID_65_" class="st0" d="M341.7,13.2c0,1.4-0.2,2.5-0.7,3.5c-0.5,1-1,1.8-1.8,2.4c-0.7,0.6-1.6,1.1-2.5,1.4
			c-1,0.3-1.9,0.4-2.9,0.4h-4.6V5.4h4.8c1.1,0,2.1,0.1,3.1,0.4c0.9,0.3,1.7,0.7,2.4,1.3s1.2,1.4,1.6,2.4
			C341.5,10.5,341.7,11.7,341.7,13.2z M338.5,13.2c0-1.6-0.4-2.8-1.1-3.6c-0.7-0.8-1.9-1.2-3.5-1.2h-1.6v9.5h1.5
			c0.8,0,1.5-0.1,2.1-0.3c0.6-0.2,1.1-0.5,1.5-1c0.4-0.4,0.7-0.9,0.9-1.5C338.4,14.5,338.5,13.9,338.5,13.2z"/>
		<path id="XMLID_63_" class="st0" d="M351.2,20.9v-0.8c-0.3,0.3-0.6,0.5-1.1,0.7s-1,0.3-1.6,0.3c-1.5,0-2.6-0.5-3.3-1.4
			s-1-2.2-1-3.9V9.3h3.1v6.3c0,0.5,0,0.9,0.1,1.3c0.1,0.3,0.2,0.6,0.4,0.8c0.2,0.2,0.4,0.4,0.6,0.4c0.3,0.1,0.5,0.1,0.8,0.1
			c0.6,0,1.1-0.2,1.5-0.6c0.3-0.4,0.5-1.1,0.5-2.1V9.3h3.1v11.6H351.2z"/>
		<path id="XMLID_61_" class="st0" d="M364,12.9c-0.3-0.2-0.5-0.4-0.8-0.5c-0.3-0.1-0.6-0.2-1-0.2c-0.3,0-0.6,0-0.8,0.1
			c-0.2,0.1-0.5,0.2-0.6,0.4c-0.2,0.2-0.3,0.5-0.4,0.8c-0.1,0.3-0.1,0.7-0.1,1.2v6.3h-3.1V9.3h3.1v0.8c0.3-0.3,0.6-0.5,1-0.7
			c0.4-0.2,0.9-0.3,1.4-0.3c0.5,0,0.9,0.1,1.3,0.3c0.4,0.2,0.6,0.4,0.9,0.6L364,12.9z"/>
		<path id="XMLID_58_" class="st0" d="M370.1,6.6c0,0.5-0.2,0.9-0.5,1.2c-0.3,0.3-0.8,0.5-1.2,0.5s-0.9-0.2-1.2-0.5
			c-0.3-0.3-0.5-0.8-0.5-1.2s0.2-0.9,0.5-1.2c0.3-0.3,0.8-0.5,1.2-0.5s0.9,0.2,1.2,0.5C369.9,5.7,370.1,6.1,370.1,6.6z M366.8,20.9
			V9.3h3.1v11.6H366.8z"/>
		<path id="XMLID_56_" class="st0" d="M380,20.9v-6.3c0-1-0.2-1.7-0.5-2.1s-0.8-0.6-1.5-0.6s-1.1,0.2-1.5,0.6
			c-0.3,0.4-0.5,1.1-0.5,2.1v6.4h-3.1V9.3h3.1v0.8c0.3-0.3,0.6-0.5,1.1-0.7s1-0.3,1.6-0.3c1.5,0,2.6,0.5,3.3,1.4s1,2.2,1,3.9v6.6
			H380z"/>
		<path id="XMLID_53_" class="st0" d="M395.3,18.9c0,1-0.1,1.8-0.2,2.5c-0.1,0.7-0.4,1.4-0.8,1.9c-0.4,0.5-0.9,0.9-1.5,1.2
			c-0.6,0.3-1.5,0.5-2.5,0.6l-1.1-2.3c0.6-0.1,1.1-0.2,1.5-0.3c0.4-0.1,0.7-0.3,0.9-0.5c0.2-0.2,0.4-0.5,0.5-0.8
			c0.1-0.3,0.1-0.7,0.1-1.1c-0.3,0.3-0.6,0.5-1,0.7c-0.4,0.2-0.9,0.3-1.4,0.3c-0.6,0-1.2-0.1-1.7-0.4c-0.5-0.2-1-0.6-1.4-1.1
			c-0.4-0.5-0.7-1.2-1-1.9c-0.2-0.8-0.4-1.7-0.4-2.8c0-0.9,0.1-1.7,0.3-2.4c0.2-0.7,0.5-1.3,0.9-1.9c0.4-0.5,0.9-0.9,1.4-1.2
			s1.2-0.4,1.9-0.4c0.5,0,1,0.1,1.4,0.3c0.4,0.2,0.8,0.4,1.1,0.6V9.3h3.1V18.9z M392.2,12.9c-0.5-0.7-1.2-1-2.1-1
			c-1.2,0-1.8,1-1.8,3c0,1.2,0.2,2.1,0.5,2.6c0.4,0.5,0.8,0.8,1.5,0.8c0.5,0,0.8-0.1,1.1-0.3c0.3-0.2,0.5-0.4,0.8-0.7V12.9z"/>
		<path id="XMLID_51_" class="st0" d="M405.2,20.9V5.4h3.1v12.4h7.8v3.1H405.2z"/>
		<path id="XMLID_48_" class="st0" d="M428.4,15.1c0,0.9-0.1,1.7-0.4,2.4c-0.3,0.7-0.6,1.4-1.1,1.9c-0.5,0.5-1,0.9-1.7,1.2
			c-0.7,0.3-1.4,0.4-2.1,0.4s-1.5-0.1-2.1-0.4c-0.6-0.3-1.2-0.7-1.7-1.2c-0.5-0.5-0.8-1.2-1.1-1.9c-0.3-0.7-0.4-1.6-0.4-2.4
			c0-0.9,0.1-1.7,0.4-2.4c0.3-0.7,0.6-1.4,1.1-1.9c0.5-0.5,1-1,1.7-1.3c0.6-0.3,1.3-0.4,2.1-0.4s1.5,0.1,2.1,0.4
			c0.6,0.3,1.2,0.7,1.7,1.3c0.5,0.5,0.8,1.2,1.1,1.9C428.3,13.4,428.4,14.2,428.4,15.1z M425.3,15.1c0-0.9-0.2-1.6-0.5-2.2
			c-0.4-0.6-0.9-0.9-1.6-0.9s-1.3,0.3-1.6,0.9c-0.3,0.6-0.5,1.3-0.5,2.3c0,0.9,0.2,1.7,0.5,2.2c0.3,0.6,0.9,0.9,1.6,0.9
			c0.4,0,0.7-0.1,1-0.3c0.3-0.2,0.5-0.4,0.7-0.7c0.2-0.3,0.3-0.6,0.4-1C425.2,15.9,425.3,15.5,425.3,15.1z"/>
		<path id="XMLID_46_" class="st0" d="M437.8,20.9v-6.3c0-1-0.2-1.7-0.5-2.1s-0.8-0.6-1.5-0.6s-1.1,0.2-1.5,0.6
			c-0.3,0.4-0.5,1.1-0.5,2.1v6.4h-3.1V9.3h3.1v0.8c0.3-0.3,0.6-0.5,1.1-0.7s1-0.3,1.6-0.3c1.5,0,2.6,0.5,3.3,1.4s1,2.2,1,3.9v6.6
			H437.8z"/>
		<path id="XMLID_43_" class="st0" d="M453.1,18.9c0,1-0.1,1.8-0.2,2.5c-0.1,0.7-0.4,1.4-0.8,1.9c-0.4,0.5-0.9,0.9-1.5,1.2
			c-0.6,0.3-1.5,0.5-2.5,0.6l-1.1-2.3c0.6-0.1,1.1-0.2,1.5-0.3c0.4-0.1,0.7-0.3,0.9-0.5c0.2-0.2,0.4-0.5,0.5-0.8
			c0.1-0.3,0.1-0.7,0.1-1.1c-0.3,0.3-0.6,0.5-1,0.7c-0.4,0.2-0.9,0.3-1.4,0.3c-0.6,0-1.2-0.1-1.7-0.4c-0.5-0.2-1-0.6-1.4-1.1
			c-0.4-0.5-0.7-1.2-1-1.9c-0.2-0.8-0.4-1.7-0.4-2.8c0-0.9,0.1-1.7,0.3-2.4c0.2-0.7,0.5-1.3,0.9-1.9c0.4-0.5,0.9-0.9,1.4-1.2
			s1.2-0.4,1.9-0.4c0.5,0,1,0.1,1.4,0.3c0.4,0.2,0.8,0.4,1.1,0.6V9.3h3.1V18.9z M450.1,12.9c-0.5-0.7-1.2-1-2.1-1
			c-1.2,0-1.8,1-1.8,3c0,1.2,0.2,2.1,0.5,2.6c0.4,0.5,0.8,0.8,1.5,0.8c0.5,0,0.8-0.1,1.1-0.3c0.3-0.2,0.5-0.4,0.8-0.7V12.9z"/>
		<path id="XMLID_41_" class="st0" d="M469.6,8.5v12.4h-3.1V8.5h-4.5V5.4h12v3.1H469.6z"/>
		<path id="XMLID_38_" class="st0" d="M486,15.1c0,0.2,0,0.4,0,0.6c0,0.2,0,0.3,0,0.4h-7c0,0.4,0.1,0.7,0.3,1s0.3,0.5,0.6,0.7
			c0.2,0.2,0.5,0.3,0.7,0.4s0.5,0.1,0.8,0.1c0.4,0,0.8-0.1,1.2-0.2c0.3-0.1,0.6-0.3,0.8-0.6l2.2,1.8c-0.5,0.6-1.1,1.1-1.8,1.4
			c-0.8,0.3-1.5,0.5-2.3,0.5c-0.8,0-1.6-0.1-2.3-0.4s-1.2-0.7-1.7-1.2c-0.5-0.5-0.8-1.2-1.1-1.9S476,16,476,15.1
			c0-0.9,0.1-1.7,0.4-2.4c0.3-0.7,0.6-1.4,1.1-1.9c0.5-0.5,1-1,1.6-1.3c0.6-0.3,1.3-0.4,2-0.4c0.8,0,1.5,0.2,2.1,0.5
			c0.6,0.3,1.1,0.8,1.5,1.3c0.4,0.6,0.7,1.2,1,1.9C485.9,13.5,486,14.3,486,15.1z M483.1,13.8c0-0.3-0.1-0.5-0.2-0.8
			c-0.1-0.2-0.2-0.5-0.4-0.7c-0.2-0.2-0.4-0.4-0.6-0.5c-0.3-0.1-0.5-0.2-0.9-0.2c-0.6,0-1,0.2-1.3,0.6c-0.3,0.4-0.5,0.9-0.6,1.5
			H483.1z"/>
		<path id="XMLID_36_" class="st0" d="M495.3,12.9c-0.3-0.2-0.5-0.4-0.8-0.5c-0.3-0.1-0.6-0.2-1-0.2c-0.3,0-0.6,0-0.8,0.1
			c-0.2,0.1-0.5,0.2-0.6,0.4c-0.2,0.2-0.3,0.5-0.4,0.8c-0.1,0.3-0.1,0.7-0.1,1.2v6.3h-3.1V9.3h3.1v0.8c0.3-0.3,0.6-0.5,1-0.7
			c0.4-0.2,0.9-0.3,1.4-0.3c0.5,0,0.9,0.1,1.3,0.3c0.4,0.2,0.6,0.4,0.9,0.6L495.3,12.9z"/>
		<path id="XMLID_34_" class="st0" d="M511.5,20.9v-6.3c0-1-0.2-1.7-0.5-2.1c-0.3-0.4-0.8-0.6-1.4-0.6c-0.6,0-1.1,0.2-1.4,0.6
			c-0.3,0.4-0.5,1.1-0.5,2.1v6.4h-3.1v-6.3c0-1-0.2-1.7-0.5-2.1s-0.8-0.6-1.4-0.6s-1.1,0.2-1.4,0.6c-0.3,0.4-0.5,1.1-0.5,2.1v6.4
			h-3.1V9.3h3.1v0.8c0.3-0.3,0.6-0.5,1-0.7s0.9-0.3,1.5-0.3c0.7,0,1.4,0.1,1.8,0.3c0.5,0.2,0.9,0.6,1.4,1.1c0.4-0.4,0.9-0.8,1.4-1.1
			s1.3-0.4,2.3-0.4c0.7,0,1.4,0.1,1.9,0.4c0.5,0.2,1,0.6,1.3,1.1c0.3,0.5,0.6,1,0.7,1.7c0.2,0.7,0.2,1.4,0.2,2.2v6.6H511.5z"/>
		<path id="XMLID_32_" class="st0" d="M535.2,19.3c-1.1,1.2-2.7,1.8-4.6,1.8c-0.9,0-1.8-0.2-2.6-0.5c-0.8-0.3-1.4-0.8-2-1.4
			c-0.5-0.6-1-1.3-1.3-2.2c-0.3-0.9-0.5-1.9-0.5-3V5.4h3.1v8.7c0,1.3,0.3,2.2,0.8,3c0.6,0.7,1.3,1.1,2.3,1.1c1,0,1.8-0.4,2.3-1.1
			c0.6-0.7,0.9-1.7,0.9-2.9V5.4h3.1v8.7C536.8,16.3,536.3,18.1,535.2,19.3z"/>
		<path id="XMLID_30_" class="st0" d="M549.4,17.5c0,0.7-0.1,1.2-0.4,1.7s-0.6,0.8-1,1.1c-0.4,0.3-0.9,0.5-1.5,0.6
			c-0.6,0.1-1.2,0.2-1.8,0.2c-0.9,0-1.8-0.1-2.7-0.4c-0.8-0.2-1.6-0.6-2.2-1l1-2.3c0.6,0.3,1.3,0.6,1.9,0.8s1.4,0.3,2.1,0.3
			c0.6,0,1-0.1,1.2-0.2s0.3-0.4,0.3-0.7c0-0.3-0.1-0.5-0.4-0.6c-0.2-0.2-0.7-0.3-1.3-0.5c-0.7-0.2-1.3-0.4-1.9-0.6
			c-0.6-0.2-1.1-0.5-1.5-0.8c-0.4-0.3-0.7-0.6-0.9-1.1c-0.2-0.4-0.3-0.9-0.3-1.5c0-0.6,0.1-1.1,0.3-1.6c0.2-0.4,0.5-0.8,1-1.1
			c0.4-0.3,0.9-0.5,1.5-0.6s1.2-0.2,1.9-0.2c0.7,0,1.5,0.1,2.2,0.3c0.8,0.2,1.4,0.5,2.1,0.8l-1,2.4c-0.6-0.3-1.2-0.5-1.8-0.7
			c-0.6-0.2-1.1-0.2-1.6-0.2c-0.6,0-1,0.1-1.3,0.2c-0.2,0.1-0.3,0.3-0.3,0.6c0,0.1,0,0.2,0.1,0.3c0.1,0.1,0.2,0.2,0.3,0.3
			s0.4,0.2,0.7,0.3s0.7,0.3,1.3,0.4c0.5,0.2,1,0.4,1.5,0.6c0.5,0.2,0.9,0.4,1.2,0.7s0.6,0.6,0.8,1C549.3,16.5,549.4,17,549.4,17.5z"
			/>
		<path id="XMLID_27_" class="st0" d="M561.6,15.1c0,0.2,0,0.4,0,0.6c0,0.2,0,0.3,0,0.4h-7c0,0.4,0.1,0.7,0.3,1s0.3,0.5,0.6,0.7
			c0.2,0.2,0.5,0.3,0.7,0.4s0.5,0.1,0.8,0.1c0.4,0,0.8-0.1,1.2-0.2c0.3-0.1,0.6-0.3,0.8-0.6l2.2,1.8c-0.5,0.6-1.1,1.1-1.8,1.4
			c-0.8,0.3-1.5,0.5-2.3,0.5c-0.8,0-1.6-0.1-2.3-0.4s-1.2-0.7-1.7-1.2c-0.5-0.5-0.8-1.2-1.1-1.9s-0.4-1.6-0.4-2.5
			c0-0.9,0.1-1.7,0.4-2.4c0.3-0.7,0.6-1.4,1.1-1.9c0.5-0.5,1-1,1.6-1.3c0.6-0.3,1.3-0.4,2-0.4c0.8,0,1.5,0.2,2.1,0.5
			c0.6,0.3,1.1,0.8,1.5,1.3c0.4,0.6,0.7,1.2,1,1.9C561.5,13.5,561.6,14.3,561.6,15.1z M558.6,13.8c0-0.3-0.1-0.5-0.2-0.8
			c-0.1-0.2-0.2-0.5-0.4-0.7c-0.2-0.2-0.4-0.4-0.6-0.5c-0.3-0.1-0.5-0.2-0.9-0.2c-0.6,0-1,0.2-1.3,0.6c-0.3,0.4-0.5,0.9-0.6,1.5
			H558.6z"/>
		<path id="XMLID_25_" class="st0" d="M574.2,23.4c-0.5-0.6-1-1.2-1.5-1.8c-0.5-0.6-0.9-1.3-1.2-2c-0.3-0.7-0.6-1.5-0.8-2.4
			s-0.3-1.8-0.3-2.8s0.1-2,0.3-2.8s0.4-1.7,0.8-2.4c0.3-0.7,0.7-1.4,1.2-2.1s1-1.3,1.5-1.9l2,1.4c-0.4,0.5-0.8,1-1.1,1.6
			c-0.3,0.5-0.6,1.1-0.8,1.8c-0.2,0.6-0.4,1.3-0.5,2c-0.1,0.7-0.2,1.5-0.2,2.3c0,0.9,0.1,1.7,0.2,2.4c0.1,0.7,0.3,1.4,0.5,2
			c0.2,0.6,0.5,1.2,0.8,1.8c0.3,0.6,0.7,1.1,1.1,1.6L574.2,23.4z"/>
		<path id="XMLID_23_" class="st0" d="M590.4,16.1c0,0.8-0.2,1.6-0.5,2.2c-0.3,0.6-0.7,1.2-1.3,1.6c-0.6,0.4-1.2,0.7-2,1
			c-0.8,0.2-1.7,0.3-2.6,0.3c-1.2,0-2.3-0.2-3.3-0.7c-1-0.5-2-1.2-2.8-2.3l2.3-1.9c0.6,0.7,1.3,1.2,1.9,1.4c0.6,0.3,1.4,0.4,2.1,0.4
			c1,0,1.8-0.2,2.3-0.5s0.7-0.8,0.7-1.5c0-0.6-0.2-1.1-0.6-1.3c-0.4-0.3-1-0.4-1.7-0.4h-1.8v-3h1.7c0.6,0,1.1-0.1,1.4-0.4
			s0.4-0.7,0.4-1.2c0-0.2,0-0.4-0.1-0.6c-0.1-0.2-0.2-0.4-0.4-0.5s-0.5-0.3-0.8-0.4c-0.3-0.1-0.7-0.1-1.2-0.1c-1.2,0-2.2,0.4-3,1.3
			l-2.3-2.1c0.7-0.8,1.5-1.3,2.4-1.7c0.8-0.4,1.8-0.6,3-0.6c0.8,0,1.5,0.1,2.2,0.3s1.3,0.5,1.8,0.8c0.5,0.4,0.9,0.8,1.2,1.4
			c0.3,0.6,0.4,1.2,0.4,1.9c0,0.8-0.2,1.5-0.6,2c-0.4,0.5-0.8,0.9-1.2,1.1c0.3,0.1,0.5,0.2,0.8,0.4c0.3,0.2,0.5,0.4,0.8,0.7
			c0.2,0.3,0.4,0.6,0.6,1S590.4,15.6,590.4,16.1z"/>
		<path id="XMLID_21_" class="st0" d="M601.3,14.8v6.1h-3.1v-6.1l-5.9-9.4h3.6l2.2,3.7c0.1,0.2,0.3,0.5,0.5,0.8
			c0.2,0.3,0.3,0.6,0.5,0.9c0.2,0.3,0.3,0.6,0.4,0.8c0.1,0.2,0.2,0.4,0.3,0.6c0.1-0.1,0.2-0.3,0.3-0.6c0.1-0.2,0.3-0.5,0.4-0.8
			c0.2-0.3,0.3-0.6,0.5-0.9c0.2-0.3,0.3-0.6,0.5-0.8l2.2-3.7h3.5L601.3,14.8z"/>
		<path id="XMLID_18_" class="st0" d="M618.6,15.1c0,0.2,0,0.4,0,0.6c0,0.2,0,0.3,0,0.4h-7c0,0.4,0.1,0.7,0.3,1s0.3,0.5,0.6,0.7
			c0.2,0.2,0.5,0.3,0.7,0.4s0.5,0.1,0.8,0.1c0.4,0,0.8-0.1,1.2-0.2c0.3-0.1,0.6-0.3,0.8-0.6l2.2,1.8c-0.5,0.6-1.1,1.1-1.8,1.4
			c-0.8,0.3-1.5,0.5-2.3,0.5c-0.8,0-1.6-0.1-2.3-0.4s-1.2-0.7-1.7-1.2c-0.5-0.5-0.8-1.2-1.1-1.9s-0.4-1.6-0.4-2.5
			c0-0.9,0.1-1.7,0.4-2.4c0.3-0.7,0.6-1.4,1.1-1.9c0.5-0.5,1-1,1.6-1.3c0.6-0.3,1.3-0.4,2-0.4c0.8,0,1.5,0.2,2.1,0.5
			c0.6,0.3,1.1,0.8,1.5,1.3c0.4,0.6,0.7,1.2,1,1.9C618.5,13.5,618.6,14.3,618.6,15.1z M615.6,13.8c0-0.3-0.1-0.5-0.2-0.8
			c-0.1-0.2-0.2-0.5-0.4-0.7c-0.2-0.2-0.4-0.4-0.6-0.5c-0.3-0.1-0.5-0.2-0.9-0.2c-0.6,0-1,0.2-1.3,0.6c-0.3,0.4-0.5,0.9-0.6,1.5
			H615.6z"/>
		<path id="XMLID_15_" class="st0" d="M627.4,20.9v-0.8c-0.3,0.3-0.7,0.5-1.1,0.7c-0.5,0.2-1,0.3-1.5,0.3c-0.5,0-1.1-0.1-1.6-0.3
			c-0.5-0.2-1-0.4-1.4-0.8c-0.4-0.3-0.7-0.8-1-1.3s-0.4-1.1-0.4-1.8c0-0.6,0.1-1.2,0.4-1.7c0.2-0.5,0.6-0.9,1-1.2
			c0.4-0.3,0.9-0.6,1.5-0.7s1.2-0.2,1.8-0.2c0.5,0,1,0,1.3,0.1s0.7,0.2,0.9,0.3v-0.6c0-0.4-0.1-0.8-0.4-1.1s-0.7-0.4-1.3-0.4
			c-0.4,0-0.7,0-0.9,0s-0.5,0.1-0.8,0.1c-0.2,0.1-0.5,0.1-0.7,0.2c-0.2,0.1-0.5,0.2-0.8,0.4l-1.2-2.1c0.3-0.2,0.7-0.4,1-0.5
			s0.6-0.3,1-0.4s0.7-0.2,1.1-0.2c0.4-0.1,0.8-0.1,1.3-0.1c0.7,0,1.4,0.1,1.9,0.3c0.6,0.2,1.1,0.4,1.5,0.8s0.7,0.8,1,1.3
			c0.2,0.5,0.3,1.1,0.3,1.7v7.8H627.4z M627.4,16c-0.3-0.2-0.6-0.3-0.9-0.4c-0.3-0.1-0.7-0.1-1.3-0.1c-0.6,0-1,0.1-1.3,0.4
			c-0.3,0.3-0.5,0.6-0.5,1.1c0,0.4,0.1,0.8,0.4,1.1c0.3,0.3,0.7,0.5,1.4,0.5c0.5,0,0.9-0.1,1.3-0.3c0.4-0.2,0.6-0.5,0.8-0.7V16z"/>
		<path id="XMLID_13_" class="st0" d="M640.1,12.9c-0.3-0.2-0.5-0.4-0.8-0.5c-0.3-0.1-0.6-0.2-1-0.2c-0.3,0-0.6,0-0.8,0.1
			c-0.2,0.1-0.5,0.2-0.6,0.4c-0.2,0.2-0.3,0.5-0.4,0.8c-0.1,0.3-0.1,0.7-0.1,1.2v6.3h-3.1V9.3h3.1v0.8c0.3-0.3,0.6-0.5,1-0.7
			c0.4-0.2,0.9-0.3,1.4-0.3c0.5,0,0.9,0.1,1.3,0.3c0.4,0.2,0.6,0.4,0.9,0.6L640.1,12.9z"/>
		<path id="XMLID_11_" class="st0" d="M652,17.5c0,0.7-0.1,1.2-0.4,1.7s-0.6,0.8-1,1.1c-0.4,0.3-0.9,0.5-1.5,0.6
			c-0.6,0.1-1.2,0.2-1.8,0.2c-0.9,0-1.8-0.1-2.7-0.4c-0.8-0.2-1.6-0.6-2.2-1l1-2.3c0.6,0.3,1.3,0.6,1.9,0.8s1.4,0.3,2.1,0.3
			c0.6,0,1-0.1,1.2-0.2s0.3-0.4,0.3-0.7c0-0.3-0.1-0.5-0.4-0.6c-0.2-0.2-0.7-0.3-1.3-0.5c-0.7-0.2-1.3-0.4-1.9-0.6
			c-0.6-0.2-1.1-0.5-1.5-0.8c-0.4-0.3-0.7-0.6-0.9-1.1c-0.2-0.4-0.3-0.9-0.3-1.5c0-0.6,0.1-1.1,0.3-1.6c0.2-0.4,0.5-0.8,1-1.1
			c0.4-0.3,0.9-0.5,1.5-0.6s1.2-0.2,1.9-0.2c0.7,0,1.5,0.1,2.2,0.3c0.8,0.2,1.4,0.5,2.1,0.8l-1,2.4c-0.6-0.3-1.2-0.5-1.8-0.7
			c-0.6-0.2-1.1-0.2-1.6-0.2c-0.6,0-1,0.1-1.3,0.2c-0.2,0.1-0.3,0.3-0.3,0.6c0,0.1,0,0.2,0.1,0.3c0.1,0.1,0.2,0.2,0.3,0.3
			s0.4,0.2,0.7,0.3s0.7,0.3,1.3,0.4c0.5,0.2,1,0.4,1.5,0.6c0.5,0.2,0.9,0.4,1.2,0.7s0.6,0.6,0.8,1C651.9,16.5,652,17,652,17.5z"/>
		<path id="XMLID_9_" class="st0" d="M660,14.1c0,1-0.1,2-0.3,2.8s-0.4,1.7-0.8,2.4c-0.3,0.7-0.7,1.4-1.2,2.1s-1,1.3-1.5,1.9l-2-1.4
			c0.4-0.5,0.8-1,1.1-1.6s0.6-1.1,0.8-1.8c0.2-0.6,0.4-1.3,0.5-2c0.1-0.7,0.2-1.5,0.2-2.3c0-0.9-0.1-1.7-0.2-2.4
			c-0.1-0.7-0.3-1.4-0.5-2c-0.2-0.6-0.5-1.2-0.8-1.8c-0.3-0.6-0.7-1.1-1.1-1.6l2-1.4c0.5,0.6,1,1.2,1.5,1.8c0.5,0.6,0.9,1.3,1.2,2
			c0.3,0.7,0.6,1.5,0.8,2.4S660,13.1,660,14.1z"/>
		<path id="XMLID_7_" class="st0" d="M666.5,19.1c0,0.3-0.1,0.5-0.2,0.8c-0.1,0.3-0.3,0.5-0.5,0.7c-0.2,0.2-0.4,0.3-0.7,0.5
			c-0.3,0.1-0.5,0.2-0.8,0.2s-0.5-0.1-0.8-0.2c-0.3-0.1-0.5-0.3-0.7-0.5c-0.2-0.2-0.3-0.4-0.5-0.7c-0.1-0.3-0.2-0.5-0.2-0.8
			s0.1-0.5,0.2-0.8c0.1-0.3,0.3-0.5,0.5-0.7c0.2-0.2,0.4-0.3,0.7-0.5c0.3-0.1,0.5-0.2,0.8-0.2s0.5,0.1,0.8,0.2
			c0.3,0.1,0.5,0.3,0.7,0.5c0.2,0.2,0.3,0.4,0.5,0.7C666.5,18.5,666.5,18.8,666.5,19.1z"/>
	</g>
</g>
<g id="XMLID_1_">
	<path id="XMLID_3_" class="st0" d="M4,12.8c0,0,3.7-8,17.5-8C35.3,4.8,42.9,0,42.9,0s-9.8,10.2-19.5,10.2C13.8,10.2,8,10.2,4,12.8"
		/>
	<path id="XMLID_2_" class="st1" d="M0,20.4c0,0,3.7-8,17.5-8C31.3,12.4,39,7.5,39,7.5s-9.8,10.2-19.5,10.2C9.8,17.7,4,17.7,0,20.4"
		/>
</g>
</svg>
