<!-- Generator: Adobe Illustrator 22.1.0, SVG Export Plug-In  -->
<svg version="1.1"
	 xmlns="http://www.w3.org/2000/svg" xmlns:xlink="http://www.w3.org/1999/xlink" xmlns:a="http://ns.adobe.com/AdobeSVGViewerExtensions/3.0/"
	 x="0px" y="0px" width="813.1px" height="278.4px" viewBox="0 0 813.1 278.4" style="enable-background:new 0 0 813.1 278.4;"
	 xml:space="preserve">
<style type="text/css">
	.st0{fill:url(#XMLID_248_);}
	.st1{fill:#FFFFFF;stroke:url(#XMLID_249_);stroke-width:1.9996;stroke-miterlimit:10;}
	.st2{fill:#FFF200;}
	.st3{fill:#5C2D91;}
	.st4{fill:none;stroke:url(#XMLID_250_);stroke-width:1.9849;stroke-miterlimit:10;}
	.st5{fill:none;stroke:url(#XMLID_251_);stroke-width:1.9849;stroke-miterlimit:10;}
	.st6{fill:none;stroke:url(#XMLID_252_);stroke-width:1.9849;stroke-miterlimit:10;}
	.st7{fill:url(#XMLID_253_);stroke:url(#XMLID_254_);stroke-width:1.6184;stroke-miterlimit:10;}
	.st8{fill:#FFFFFF;}
	.st9{fill:none;stroke:#FFFFFF;stroke-width:1.9849;stroke-miterlimit:10;}
	.st10{fill:none;stroke:url(#XMLID_255_);stroke-width:1.9996;stroke-miterlimit:10;}
	.st11{fill:url(#XMLID_256_);}
	.st12{fill:#FFFFFF;stroke:url(#XMLID_257_);stroke-width:1.9996;stroke-miterlimit:10;}
	.st13{fill:none;stroke:url(#XMLID_258_);stroke-width:1.9849;stroke-miterlimit:10;}
	.st14{fill:none;stroke:url(#XMLID_259_);stroke-width:1.9849;stroke-miterlimit:10;}
	.st15{fill:none;stroke:url(#XMLID_260_);stroke-width:1.9849;stroke-miterlimit:10;}
	.st16{fill:url(#XMLID_261_);stroke:url(#XMLID_262_);stroke-width:1.6184;stroke-miterlimit:10;}
	.st17{fill:none;stroke:url(#XMLID_263_);stroke-width:1.9996;stroke-miterlimit:10;}
</style>
<defs>
</defs>
<radialGradient id="XMLID_248_" cx="2368.6775" cy="2986.5459" r="321.6081" gradientTransform="matrix(-1 0 0 -2.799702e-02 2788.5876 354.7339)" gradientUnits="userSpaceOnUse">
	<stop  offset="0" style="stop-color:#231F20"/>
	<stop  offset="1" style="stop-color:#FFFFFF"/>
</radialGradient>
<ellipse id="XMLID_247_" class="st0" cx="419.9" cy="271.1" rx="324.7" ry="7.3"/>
<linearGradient id="XMLID_249_" gradientUnits="userSpaceOnUse" x1="0" y1="136.7204" x2="813.0854" y2="136.7204">
	<stop  offset="0" style="stop-color:#4B257A"/>
	<stop  offset="1" style="stop-color:#964C8E"/>
</linearGradient>
<path id="XMLID_246_" class="st1" d="M812.1,16.6C812.1,8,805.2,1,796.7,1H16.3C7.9,1,1,8,1,16.6v240.2c0,8.6,6.9,15.6,15.3,15.6
	h780.4c8.5,0,15.3-7,15.3-15.6V16.6z"/>
<rect id="XMLID_245_" x="272.8" y="64.2" class="st2" width="267.4" height="205.1"/>
<g id="XMLID_215_">
	<path id="XMLID_243_" class="st3" d="M38.7,229.1V198h3.5v31.1H38.7z"/>
	<path id="XMLID_241_" class="st3" d="M62.1,209.2c-0.5-0.3-1-0.5-1.5-0.6c-0.5-0.2-1.2-0.2-2-0.2c-1.6,0-2.9,0.6-3.8,1.9
		s-1.3,3-1.3,5.2v13.7h-3.4v-23.3h3.4v2.9c0.5-0.9,1.3-1.7,2.4-2.4s2.2-1,3.4-1c0.9,0,1.6,0.1,2.2,0.2c0.6,0.1,1.1,0.2,1.5,0.4
		L62.1,209.2z"/>
	<path id="XMLID_239_" class="st3" d="M80.2,209.2c-0.5-0.3-1-0.5-1.5-0.6c-0.5-0.2-1.2-0.2-2-0.2c-1.6,0-2.9,0.6-3.8,1.9
		s-1.3,3-1.3,5.2v13.7h-3.4v-23.3h3.4v2.9c0.5-0.9,1.3-1.7,2.4-2.4s2.2-1,3.4-1c0.9,0,1.6,0.1,2.2,0.2c0.6,0.1,1.1,0.2,1.5,0.4
		L80.2,209.2z"/>
	<path id="XMLID_236_" class="st3" d="M90.6,199.2c0,0.7-0.2,1.2-0.7,1.7c-0.5,0.5-1,0.7-1.6,0.7c-0.7,0-1.3-0.2-1.7-0.7
		c-0.5-0.5-0.7-1-0.7-1.7c0-0.7,0.2-1.3,0.7-1.7c0.5-0.5,1.1-0.7,1.7-0.7c0.6,0,1.2,0.2,1.6,0.7C90.4,198,90.6,198.5,90.6,199.2z
		 M86.6,229.1v-23.3h3.4v23.3H86.6z"/>
	<path id="XMLID_234_" class="st3" d="M101.8,208.6v15.2c0,1,0.2,1.8,0.5,2.2c0.3,0.4,1,0.6,1.8,0.6c0.7,0,1.3-0.1,1.8-0.2
		s1-0.3,1.5-0.5l-0.2,2.9c-0.7,0.3-1.3,0.5-2,0.6c-0.7,0.1-1.4,0.2-2.3,0.2c-1.5,0-2.6-0.4-3.3-1.2s-1.1-2.2-1.1-4.1v-15.7h-2.9
		v-2.8h2.9v-7.2l3.4-1.9v9.1h5.8v2.8H101.8z"/>
	<path id="XMLID_231_" class="st3" d="M126.7,229.1v-2.8c-0.8,0.9-1.8,1.7-3,2.3c-1.2,0.7-2.6,1-4.3,1c-0.9,0-1.8-0.1-2.7-0.4
		c-0.9-0.3-1.7-0.7-2.4-1.2c-0.7-0.6-1.3-1.3-1.7-2.3c-0.4-0.9-0.6-2.1-0.6-3.6c0-1.3,0.3-2.4,0.8-3.4s1.2-1.7,2-2.3
		c0.8-0.6,1.8-1.1,2.8-1.3c1.1-0.3,2.2-0.4,3.4-0.4c1.2,0,2.3,0.1,3.3,0.4c1,0.3,1.9,0.6,2.5,1v-2.7c0-3.4-1.7-5.1-5-5.1
		c-1.2,0-2.4,0.2-3.4,0.5s-2,0.7-2.9,1.3l-1.2-2.7c1-0.6,2.2-1,3.6-1.4c1.3-0.3,2.8-0.5,4.3-0.5c2.5,0,4.5,0.6,6,1.8
		c1.5,1.2,2.2,3.1,2.2,5.8v16.3H126.7z M126.7,218.6c-0.8-0.4-1.6-0.7-2.5-1s-2.1-0.4-3.5-0.4c-1.7,0-3,0.4-4,1.2
		c-1,0.8-1.4,1.9-1.4,3.4c0,1.7,0.4,3,1.3,3.8c0.9,0.8,2,1.2,3.4,1.2c1.5,0,2.8-0.3,3.9-1s2-1.5,2.7-2.5V218.6z"/>
	<path id="XMLID_228_" class="st3" d="M156,217c0,2.1-0.2,3.9-0.7,5.4c-0.5,1.6-1.1,2.9-1.9,3.9c-0.8,1.1-1.7,1.8-2.8,2.4
		c-1.1,0.5-2.2,0.8-3.4,0.8c-1.5,0-2.7-0.3-3.8-0.8c-1-0.6-2-1.3-2.8-2.3v2.6h-3.4v-30.5l3.4-1.9l0,11.9c0.8-0.9,1.8-1.7,2.9-2.3
		c1.1-0.7,2.5-1,4.1-1c1.2,0,2.2,0.2,3.3,0.7c1,0.5,1.9,1.2,2.7,2.1c0.8,0.9,1.3,2.2,1.8,3.7C155.8,213.2,156,215,156,217z
		 M152.7,217.1c0-3-0.5-5.2-1.5-6.7c-1-1.5-2.5-2.3-4.3-2.3c-1.2,0-2.4,0.3-3.4,0.9c-1,0.6-1.9,1.4-2.8,2.5v11.7
		c0.6,1,1.5,1.8,2.6,2.5s2.3,1,3.7,1c1.9,0,3.4-0.8,4.3-2.5S152.7,220.2,152.7,217.1z"/>
	<path id="XMLID_225_" class="st3" d="M166.4,199.2c0,0.7-0.2,1.2-0.7,1.7c-0.5,0.5-1,0.7-1.6,0.7c-0.7,0-1.3-0.2-1.7-0.7
		c-0.5-0.5-0.7-1-0.7-1.7c0-0.7,0.2-1.3,0.7-1.7c0.5-0.5,1.1-0.7,1.7-0.7c0.6,0,1.2,0.2,1.6,0.7C166.2,198,166.4,198.5,166.4,199.2z
		 M162.4,229.1v-23.3h3.4v23.3H162.4z"/>
	<path id="XMLID_223_" class="st3" d="M173.5,229.1v-30.5l3.4-1.9v32.4H173.5z"/>
	<path id="XMLID_220_" class="st3" d="M188.7,199.2c0,0.7-0.2,1.2-0.7,1.7c-0.5,0.5-1,0.7-1.6,0.7c-0.7,0-1.3-0.2-1.7-0.7
		c-0.5-0.5-0.7-1-0.7-1.7c0-0.7,0.2-1.3,0.7-1.7c0.5-0.5,1.1-0.7,1.7-0.7c0.6,0,1.2,0.2,1.6,0.7C188.5,198,188.7,198.5,188.7,199.2z
		 M184.7,229.1v-23.3h3.4v23.3H184.7z"/>
	<path id="XMLID_218_" class="st3" d="M199.9,208.6v15.2c0,1,0.2,1.8,0.5,2.2c0.3,0.4,1,0.6,1.8,0.6c0.7,0,1.3-0.1,1.8-0.2
		s1-0.3,1.5-0.5l-0.2,2.9c-0.7,0.3-1.3,0.5-2,0.6c-0.7,0.1-1.4,0.2-2.3,0.2c-1.5,0-2.6-0.4-3.3-1.2s-1.1-2.2-1.1-4.1v-15.7h-2.9
		v-2.8h2.9v-7.2l3.4-1.9v9.1h5.8v2.8H199.9z"/>
	<path id="XMLID_216_" class="st3" d="M217.8,237.3h-3.3l3.2-8.5l-8.3-23.1h3.5l5.7,16.9l0.8,2.4l0.8-2.4l5.7-17h3.5L217.8,237.3z"
		/>
</g>
<g id="XMLID_197_">
	<g>
		<path id="XMLID_205_" class="st3" d="M635.7,136.8v-24.9h-5.6v-2.2c1.7-0.1,3.2-0.5,4.3-1c1.2-0.6,1.9-1.6,2.1-3h2.6v31.1H635.7z"
			/>
		<path id="XMLID_203_" class="st3" d="M651.4,134.4c0,0.8-0.3,1.4-0.8,2c-0.6,0.6-1.2,0.8-2,0.8s-1.4-0.3-2-0.8
			c-0.6-0.6-0.8-1.2-0.8-2s0.3-1.5,0.8-2c0.6-0.6,1.2-0.9,2-0.9s1.4,0.3,2,0.9C651.2,133,651.4,133.6,651.4,134.4z"/>
		<path id="XMLID_199_" class="st3" d="M679.6,128c0,1.5-0.3,2.8-0.8,4c-0.5,1.1-1.3,2.1-2.3,2.9s-2.2,1.4-3.6,1.8
			c-1.4,0.4-3,0.6-4.8,0.6s-3.4-0.2-4.8-0.6c-1.4-0.4-2.6-1-3.6-1.7c-1-0.8-1.8-1.7-2.3-2.8c-0.5-1.1-0.8-2.5-0.8-4
			c0-2,0.5-3.7,1.6-5.1c1.1-1.3,2.6-2.3,4.5-3c-1.4-0.6-2.6-1.4-3.5-2.4s-1.4-2.4-1.4-4.1c0-1.2,0.2-2.3,0.7-3.3
			c0.4-1,1.1-1.9,2-2.6c0.9-0.7,1.9-1.3,3.2-1.7c1.3-0.4,2.7-0.6,4.4-0.6c1.7,0,3.1,0.2,4.4,0.6s2.3,1,3.2,1.7
			c0.9,0.7,1.5,1.6,2,2.6c0.4,1,0.7,2.1,0.7,3.3c0,1.7-0.4,3-1.3,4.1s-2,1.9-3.5,2.5c2,0.7,3.5,1.6,4.6,3
			C679,124.3,679.6,126,679.6,128z M676.1,128.1c0-1.8-0.7-3.3-2.1-4.5c-1.4-1.2-3.4-1.8-6-1.8c-2.6,0-4.6,0.6-6,1.7
			c-1.4,1.2-2.1,2.6-2.1,4.5c0,1.8,0.7,3.3,2,4.4c1.3,1.1,3.4,1.7,6.2,1.7c2.8,0,4.8-0.5,6.1-1.6C675.5,131.4,676.1,130,676.1,128.1
			z M674.9,113.5c0-0.6-0.1-1.3-0.4-1.9c-0.3-0.6-0.6-1.2-1.2-1.7c-0.5-0.5-1.2-0.9-2.1-1.2c-0.9-0.3-1.9-0.4-3.2-0.4
			c-1.2,0-2.3,0.1-3.2,0.4c-0.9,0.3-1.6,0.7-2.1,1.1c-0.5,0.5-0.9,1-1.2,1.6c-0.2,0.6-0.4,1.2-0.4,1.9c0,1.5,0.6,2.7,1.8,3.7
			c1.2,1,2.9,1.5,5,1.5c2.1,0,3.7-0.5,4.9-1.5C674.3,116.2,674.9,115,674.9,113.5z"/>
	</g>
</g>
<g id="XMLID_189_">
	<g>
		<path id="XMLID_191_" class="st3" d="M688.8,216c0,2.6-0.3,4.9-0.8,6.9c-0.6,2-1.4,3.7-2.4,5c-1,1.3-2.2,2.4-3.7,3.1
			c-1.4,0.7-3,1.1-4.7,1.1c-1.7,0-3.3-0.4-4.7-1.1c-1.4-0.7-2.6-1.7-3.7-3.1c-1-1.3-1.8-3-2.4-5c-0.6-2-0.8-4.3-0.8-6.9
			c0-2.6,0.3-4.9,0.8-6.9c0.6-2,1.4-3.7,2.4-5c1-1.3,2.2-2.4,3.7-3.1c1.4-0.7,3-1.1,4.7-1.1c1.7,0,3.3,0.4,4.7,1.1
			c1.4,0.7,2.7,1.7,3.7,3.1c1,1.3,1.8,3,2.4,5C688.5,211.2,688.8,213.4,688.8,216z M685.4,216c0-4-0.7-7.2-2.1-9.5
			c-1.4-2.3-3.4-3.4-6.1-3.4c-2.7,0-4.8,1.1-6.1,3.4c-1.4,2.3-2.1,5.4-2.1,9.5c0,4,0.7,7.2,2.1,9.5c1.4,2.3,3.4,3.4,6.1,3.4
			c2.7,0,4.8-1.1,6.1-3.4C684.7,223.2,685.4,220,685.4,216z"/>
	</g>
</g>
<g id="XMLID_171_">
	<g>
		<path id="XMLID_179_" class="st3" d="M353.8,133.7v-24.9h-5.6v-2.2c1.7-0.1,3.2-0.5,4.3-1c1.2-0.6,1.9-1.6,2.1-3h2.6v31.1H353.8z"
			/>
		<path id="XMLID_177_" class="st3" d="M383.5,124.7c0,3-1,5.3-2.9,6.9c-2,1.7-4.7,2.5-8.1,2.5c-1,0-1.9-0.1-2.9-0.4
			c-0.9-0.2-1.8-0.6-2.7-1c-0.8-0.4-1.6-0.9-2.3-1.4c-0.7-0.5-1.3-1.1-1.8-1.6l2.3-2.3c1,1,2.1,1.9,3.4,2.5c1.3,0.7,2.6,1,4.2,1
			c2.5,0,4.4-0.5,5.6-1.6c1.2-1.1,1.8-2.6,1.8-4.6c0-1.9-0.7-3.4-2-4.4c-1.3-1-3.1-1.5-5.3-1.5h-2v-3h2.1c2,0,3.6-0.5,4.5-1.5
			c1-1,1.5-2.3,1.5-4c0-0.7-0.1-1.4-0.3-2.1c-0.2-0.6-0.6-1.2-1.1-1.7c-0.5-0.5-1.2-0.8-2-1.1c-0.8-0.3-1.8-0.4-3-0.4
			c-1.3,0-2.5,0.3-3.6,0.8c-1,0.5-1.9,1.2-2.7,2l-2.2-2.2c0.4-0.5,1-0.9,1.6-1.4c0.6-0.5,1.3-0.9,2-1.2c0.7-0.4,1.5-0.6,2.3-0.9
			c0.8-0.2,1.7-0.3,2.7-0.3c1.4,0,2.6,0.2,3.8,0.5c1.2,0.3,2.2,0.8,3.1,1.5c0.9,0.7,1.5,1.5,2,2.5c0.5,1,0.7,2.2,0.7,3.5
			c0,1.9-0.4,3.4-1.2,4.6c-0.8,1.1-1.8,2.1-3.2,2.7c0.7,0.2,1.5,0.4,2.1,0.8c0.7,0.4,1.3,0.8,1.8,1.4c0.5,0.6,0.9,1.3,1.2,2.2
			C383.3,122.6,383.5,123.6,383.5,124.7z"/>
		<path id="XMLID_175_" class="st3" d="M393.7,131.3c0,0.8-0.3,1.4-0.8,2c-0.6,0.6-1.2,0.8-2,0.8s-1.4-0.3-2-0.8
			c-0.6-0.6-0.8-1.2-0.8-2s0.3-1.5,0.8-2c0.6-0.6,1.2-0.9,2-0.9s1.4,0.3,2,0.9C393.4,129.9,393.7,130.5,393.7,131.3z"/>
		<path id="XMLID_173_" class="st3" d="M418.9,124.7c0,3-1,5.3-2.9,6.9c-2,1.7-4.7,2.5-8.1,2.5c-1,0-1.9-0.1-2.9-0.4
			c-0.9-0.2-1.8-0.6-2.7-1c-0.8-0.4-1.6-0.9-2.3-1.4c-0.7-0.5-1.3-1.1-1.8-1.6l2.3-2.3c1,1,2.1,1.9,3.4,2.5c1.3,0.7,2.6,1,4.2,1
			c2.5,0,4.4-0.5,5.6-1.6c1.2-1.1,1.8-2.6,1.8-4.6c0-1.9-0.7-3.4-2-4.4c-1.3-1-3.1-1.5-5.3-1.5h-2v-3h2.1c2,0,3.6-0.5,4.5-1.5
			c1-1,1.5-2.3,1.5-4c0-0.7-0.1-1.4-0.3-2.1c-0.2-0.6-0.6-1.2-1.1-1.7c-0.5-0.5-1.2-0.8-2-1.1c-0.8-0.3-1.8-0.4-3-0.4
			c-1.3,0-2.5,0.3-3.6,0.8c-1,0.5-1.9,1.2-2.7,2l-2.2-2.2c0.4-0.5,1-0.9,1.6-1.4c0.6-0.5,1.3-0.9,2-1.2c0.7-0.4,1.5-0.6,2.3-0.9
			c0.8-0.2,1.7-0.3,2.7-0.3c1.4,0,2.6,0.2,3.8,0.5c1.2,0.3,2.2,0.8,3.1,1.5c0.9,0.7,1.5,1.5,2,2.5c0.5,1,0.7,2.2,0.7,3.5
			c0,1.9-0.4,3.4-1.2,4.6c-0.8,1.1-1.8,2.1-3.2,2.7c0.7,0.2,1.5,0.4,2.1,0.8c0.7,0.4,1.3,0.8,1.8,1.4c0.5,0.6,0.9,1.3,1.2,2.2
			C418.8,122.6,418.9,123.6,418.9,124.7z"/>
	</g>
</g>
<g id="XMLID_146_">
	<path id="XMLID_169_" class="st3" d="M37.3,125.5c0,1.2-0.2,2.4-0.7,3.4c-0.5,1.1-1.1,2-2,2.8c-0.9,0.8-2,1.4-3.2,1.8
		c-1.3,0.4-2.7,0.7-4.4,0.7c-2.1,0-4.1-0.4-5.9-1.2c-1.8-0.8-3.3-1.8-4.6-3.1l2.3-2.6c1.2,1.1,2.5,2,3.8,2.7c1.4,0.7,2.8,1,4.4,1
		c2.1,0,3.7-0.5,4.9-1.4c1.2-0.9,1.8-2.3,1.8-3.9c0-0.7-0.1-1.4-0.4-2c-0.2-0.6-0.6-1.1-1.2-1.6s-1.3-1-2.3-1.5
		c-0.9-0.5-2.1-1-3.6-1.5c-1.7-0.6-3.1-1.2-4.2-1.8c-1.1-0.6-2.1-1.3-2.8-2c-0.7-0.7-1.2-1.5-1.5-2.3s-0.5-1.9-0.5-3
		c0-1.2,0.2-2.4,0.7-3.3c0.5-1,1.1-1.8,2-2.5c0.8-0.7,1.9-1.2,3.1-1.6c1.2-0.4,2.5-0.5,4-0.5c2.1,0,3.8,0.3,5.3,0.9
		c1.5,0.6,2.9,1.4,4.2,2.4l-2.2,2.7c-1.1-0.9-2.3-1.7-3.4-2.2c-1.1-0.5-2.5-0.7-4.1-0.7c-1.1,0-2,0.1-2.8,0.4
		c-0.8,0.3-1.4,0.6-1.9,1c-0.5,0.4-0.8,0.9-1.1,1.4c-0.2,0.5-0.3,1.1-0.3,1.8c0,0.7,0.1,1.2,0.3,1.8s0.5,1,1.1,1.5s1.3,1,2.2,1.4
		c1,0.5,2.2,1,3.8,1.6c1.7,0.6,3.2,1.2,4.3,1.9c1.2,0.6,2.1,1.3,2.8,2c0.7,0.7,1.2,1.6,1.5,2.4C37.2,123.3,37.3,124.3,37.3,125.5z"
		/>
	<path id="XMLID_166_" class="st3" d="M62.8,121.9c0,2-0.3,3.7-0.8,5.3c-0.5,1.5-1.3,2.8-2.2,3.9s-2,1.8-3.3,2.4
		c-1.2,0.5-2.6,0.8-4,0.8s-2.8-0.3-4-0.8c-1.2-0.5-2.3-1.3-3.2-2.3c-0.9-1-1.6-2.3-2.1-3.8c-0.5-1.5-0.8-3.3-0.8-5.2
		c0-2,0.3-3.7,0.8-5.2s1.3-2.8,2.2-3.8s2-1.8,3.3-2.3c1.2-0.5,2.6-0.8,4-0.8c1.4,0,2.8,0.3,4,0.8c1.2,0.5,2.3,1.3,3.2,2.3
		c0.9,1,1.6,2.3,2.1,3.8C62.6,118.1,62.8,119.9,62.8,121.9z M59.4,121.9c0-3.1-0.6-5.4-1.9-6.9c-1.2-1.5-2.9-2.3-4.9-2.3
		s-3.7,0.8-4.9,2.3c-1.2,1.5-1.8,3.8-1.8,6.9s0.6,5.4,1.8,7c1.2,1.6,2.9,2.4,4.9,2.4s3.7-0.8,4.9-2.4
		C58.8,127.4,59.4,125,59.4,121.9z"/>
	<path id="XMLID_164_" class="st3" d="M96,133.7V120c0-2.7-0.4-4.6-1.2-5.7c-0.8-1.1-2.1-1.6-3.8-1.6c-1.6,0-2.8,0.6-3.8,1.7
		c-0.9,1.1-1.4,3-1.4,5.6v13.7h-3.4V120c0-2.7-0.4-4.6-1.3-5.7s-2.1-1.6-3.7-1.6c-1.6,0-2.9,0.6-3.8,1.7c-0.9,1.1-1.4,3-1.4,5.6
		v13.7h-3.4v-23.3h3.4l0,2.8c0.6-1,1.4-1.8,2.4-2.4c1-0.6,2.2-0.9,3.6-0.9c1.7,0,3,0.4,4,1.2c1,0.8,1.8,1.7,2.4,2.8
		c0.4-0.6,0.7-1.1,1.2-1.6c0.4-0.5,0.9-0.9,1.5-1.3s1.2-0.6,1.9-0.8c0.7-0.2,1.6-0.3,2.5-0.3c2.4,0,4.3,0.7,5.7,2.2
		c1.4,1.5,2.1,3.9,2.1,7.4v14.2H96z"/>
	<path id="XMLID_162_" class="st3" d="M121.2,133.7V120c0-2.5-0.5-4.4-1.4-5.5c-0.9-1.2-2.3-1.8-4.1-1.8c-1.6,0-3,0.6-4.1,1.7
		s-1.7,3-1.7,5.6v13.7h-3.4v-23.3h3.4l0,2.8c0.7-1,1.6-1.8,2.6-2.4c1.1-0.6,2.3-0.9,3.8-0.9c1.2,0,2.4,0.2,3.4,0.6
		c1,0.4,1.9,0.9,2.6,1.7c0.7,0.8,1.3,1.8,1.6,3c0.4,1.2,0.6,2.6,0.6,4.3v14.2H121.2z"/>
	<path id="XMLID_159_" class="st3" d="M150.9,121.9c0,2-0.3,3.7-0.8,5.3c-0.5,1.5-1.3,2.8-2.2,3.9s-2,1.8-3.3,2.4
		c-1.2,0.5-2.6,0.8-4,0.8s-2.8-0.3-4-0.8c-1.2-0.5-2.3-1.3-3.2-2.3c-0.9-1-1.6-2.3-2.1-3.8c-0.5-1.5-0.8-3.3-0.8-5.2
		c0-2,0.3-3.7,0.8-5.2s1.3-2.8,2.2-3.8s2-1.8,3.3-2.3c1.2-0.5,2.6-0.8,4-0.8c1.4,0,2.8,0.3,4,0.8c1.2,0.5,2.3,1.3,3.2,2.3
		c0.9,1,1.6,2.3,2.1,3.8C150.6,118.1,150.9,119.9,150.9,121.9z M147.5,121.9c0-3.1-0.6-5.4-1.9-6.9c-1.2-1.5-2.9-2.3-4.9-2.3
		s-3.7,0.8-4.9,2.3c-1.2,1.5-1.8,3.8-1.8,6.9s0.6,5.4,1.8,7c1.2,1.6,2.9,2.4,4.9,2.4s3.7-0.8,4.9-2.4
		C146.9,127.4,147.5,125,147.5,121.9z"/>
	<path id="XMLID_157_" class="st3" d="M157.2,133.7v-30.5l3.4-1.9v32.4H157.2z"/>
	<path id="XMLID_154_" class="st3" d="M185.8,121.3c0,0.4,0,0.8,0,1c0,0.3-0.1,0.5-0.1,0.8h-15.5c0.1,2.5,0.8,4.5,1.9,6
		c1.1,1.5,2.7,2.2,4.6,2.2c1.4,0,2.5-0.2,3.4-0.6c0.9-0.4,1.9-0.9,3-1.6l1.6,2.4c-0.7,0.4-1.4,0.8-2,1.2c-0.6,0.3-1.3,0.6-1.9,0.8
		c-0.7,0.2-1.3,0.4-2,0.5c-0.7,0.1-1.5,0.2-2.4,0.2c-1.1,0-2.2-0.2-3.3-0.6c-1.1-0.4-2.1-1.1-3.1-2.1c-0.9-1-1.7-2.2-2.3-3.8
		c-0.6-1.6-0.9-3.5-0.9-5.8c0-1.9,0.2-3.5,0.7-5c0.5-1.5,1.2-2.7,2-3.8s1.9-1.8,3-2.4c1.2-0.6,2.4-0.8,3.8-0.8c1.5,0,2.8,0.3,4,0.8
		c1.2,0.6,2.1,1.4,2.9,2.4c0.8,1,1.4,2.2,1.8,3.6C185.6,118.1,185.8,119.7,185.8,121.3z M182.8,120.4c-0.1-2.3-0.7-4.2-1.7-5.6
		c-1-1.4-2.5-2.1-4.6-2.1c-1.7,0-3.2,0.6-4.3,1.9c-1.1,1.3-1.8,3.2-2,5.8H182.8z"/>
	<path id="XMLID_152_" class="st3" d="M206.7,133.7V120c0-2.5-0.5-4.4-1.4-5.5c-0.9-1.2-2.3-1.8-4.1-1.8c-1.6,0-3,0.6-4.1,1.7
		s-1.7,3-1.7,5.6v13.7h-3.4v-23.3h3.4l0,2.8c0.7-1,1.6-1.8,2.6-2.4c1.1-0.6,2.3-0.9,3.8-0.9c1.2,0,2.4,0.2,3.4,0.6
		c1,0.4,1.9,0.9,2.6,1.7c0.7,0.8,1.3,1.8,1.6,3c0.4,1.2,0.6,2.6,0.6,4.3v14.2H206.7z"/>
	<path id="XMLID_150_" class="st3" d="M231.5,115.1c-0.9-0.8-1.7-1.4-2.6-1.8c-0.8-0.4-1.9-0.6-3-0.6c-0.9,0-1.8,0.2-2.6,0.6
		c-0.8,0.4-1.5,1-2,1.8s-1,1.7-1.4,2.9c-0.3,1.1-0.5,2.4-0.5,3.9c0,2.9,0.6,5.2,1.7,6.9c1.2,1.7,2.8,2.6,4.8,2.6
		c1.1,0,2.1-0.2,2.9-0.7c0.8-0.4,1.6-1.1,2.4-1.8l2,2.1c-1,1-2.1,1.8-3.2,2.3c-1.2,0.6-2.6,0.9-4.3,0.9c-1.3,0-2.5-0.2-3.7-0.7
		c-1.2-0.5-2.2-1.2-3.1-2.2c-0.9-1-1.6-2.3-2.2-3.8c-0.5-1.5-0.8-3.3-0.8-5.3c0-2.2,0.3-4,0.9-5.6c0.6-1.5,1.4-2.8,2.3-3.8
		c0.9-1,2-1.7,3.2-2.2c1.2-0.5,2.4-0.7,3.6-0.7c1.6,0,3,0.3,4.2,0.8c1.2,0.5,2.3,1.2,3.2,1.9L231.5,115.1z"/>
	<path id="XMLID_147_" class="st3" d="M256.3,121.3c0,0.4,0,0.8,0,1c0,0.3-0.1,0.5-0.1,0.8h-15.5c0.1,2.5,0.8,4.5,1.9,6
		c1.1,1.5,2.7,2.2,4.6,2.2c1.4,0,2.5-0.2,3.4-0.6c0.9-0.4,1.9-0.9,3-1.6l1.6,2.4c-0.7,0.4-1.4,0.8-2,1.2c-0.6,0.3-1.3,0.6-1.9,0.8
		c-0.7,0.2-1.3,0.4-2,0.5c-0.7,0.1-1.5,0.2-2.4,0.2c-1.1,0-2.2-0.2-3.3-0.6c-1.1-0.4-2.1-1.1-3.1-2.1c-0.9-1-1.7-2.2-2.3-3.8
		c-0.6-1.6-0.9-3.5-0.9-5.8c0-1.9,0.2-3.5,0.7-5c0.5-1.5,1.2-2.7,2-3.8s1.9-1.8,3-2.4c1.2-0.6,2.4-0.8,3.8-0.8c1.5,0,2.8,0.3,4,0.8
		c1.2,0.6,2.1,1.4,2.9,2.4c0.8,1,1.4,2.2,1.8,3.6C256.1,118.1,256.3,119.7,256.3,121.3z M253.2,120.4c-0.1-2.3-0.7-4.2-1.7-5.6
		c-1-1.4-2.5-2.1-4.6-2.1c-1.7,0-3.2,0.6-4.3,1.9c-1.1,1.3-1.8,3.2-2,5.8H253.2z"/>
</g>
<linearGradient id="XMLID_250_" gradientUnits="userSpaceOnUse" x1="270.3693" y1="135.977" x2="272.3542" y2="135.977">
	<stop  offset="0" style="stop-color:#4B257A"/>
	<stop  offset="1" style="stop-color:#964C8E"/>
</linearGradient>
<line id="XMLID_145_" class="st4" x1="271.4" y1="0" x2="271.4" y2="271.9"/>
<linearGradient id="XMLID_251_" gradientUnits="userSpaceOnUse" x1="540.7265" y1="135.456" x2="542.7114" y2="135.456">
	<stop  offset="0" style="stop-color:#4B257A"/>
	<stop  offset="1" style="stop-color:#964C8E"/>
</linearGradient>
<line id="XMLID_144_" class="st5" x1="541.7" y1="1" x2="541.7" y2="269.9"/>
<linearGradient id="XMLID_252_" gradientUnits="userSpaceOnUse" x1="0.9998" y1="67.0377" x2="812.0856" y2="67.0377">
	<stop  offset="0" style="stop-color:#4B257A"/>
	<stop  offset="1" style="stop-color:#964C8E"/>
</linearGradient>
<line id="XMLID_143_" class="st6" x1="1" y1="67" x2="812.1" y2="67"/>
<linearGradient id="XMLID_253_" gradientUnits="userSpaceOnUse" x1="0.9998" y1="34.3383" x2="811.982" y2="34.3383">
	<stop  offset="0" style="stop-color:#4B257A"/>
	<stop  offset="1" style="stop-color:#964C8E"/>
</linearGradient>
<linearGradient id="XMLID_254_" gradientUnits="userSpaceOnUse" x1="0.1906" y1="34.3383" x2="812.7912" y2="34.3383">
	<stop  offset="0" style="stop-color:#4B257A"/>
	<stop  offset="1" style="stop-color:#964C8E"/>
</linearGradient>
<path id="XMLID_142_" class="st7" d="M812,67.7V8.8c0-4.3-3.5-7.8-7.8-7.8H8.8C4.5,1,1,4.5,1,8.8v58.9H812z"/>
<g id="XMLID_102_">
	<g>
		<path id="XMLID_120_" class="st8" d="M629.5,28.5c0,1.6-0.2,3-0.7,4.1c-0.5,1.1-1.2,2.1-2.1,2.8c-0.9,0.7-1.9,1.3-3.1,1.6
			c-1.2,0.3-2.5,0.5-3.9,0.5h-6v9.7h-5.5V19.8h12c1.3,0,2.5,0.2,3.6,0.5c1.1,0.4,2.2,0.9,3,1.6s1.5,1.6,2,2.7
			C629.3,25.8,629.5,27,629.5,28.5z M623.9,28.6c0-1.2-0.4-2.1-1.1-2.6c-0.7-0.6-1.7-0.8-2.9-0.8h-6.3v7h6.4
			C622.6,32.2,623.9,31,623.9,28.6z"/>
		<path id="XMLID_118_" class="st8" d="M634,47.2V21.4l5.4-2.7v28.5H634z"/>
		<path id="XMLID_115_" class="st8" d="M656.1,47.2v-1.4c-0.5,0.5-1.1,1-2,1.3c-0.8,0.3-1.7,0.5-2.7,0.5c-1,0-1.9-0.2-2.8-0.4
			c-0.9-0.3-1.7-0.7-2.4-1.3s-1.3-1.4-1.7-2.3c-0.4-0.9-0.7-2-0.7-3.2c0-1.1,0.2-2.1,0.6-3c0.4-0.9,1-1.6,1.8-2.1s1.6-1,2.6-1.3
			c1-0.3,2.1-0.4,3.3-0.4c0.9,0,1.7,0.1,2.3,0.3s1.2,0.4,1.6,0.6v-1c0-0.7-0.2-1.3-0.7-1.9c-0.5-0.5-1.2-0.8-2.2-0.8
			c-0.6,0-1.2,0-1.7,0.1c-0.5,0.1-0.9,0.1-1.4,0.2c-0.4,0.1-0.9,0.2-1.3,0.4c-0.4,0.2-0.9,0.4-1.3,0.6l-2.1-3.8
			c0.6-0.3,1.2-0.6,1.7-0.9c0.6-0.3,1.1-0.5,1.8-0.6c0.6-0.2,1.3-0.3,1.9-0.4c0.7-0.1,1.4-0.1,2.3-0.1c1.3,0,2.4,0.2,3.4,0.5
			c1,0.3,1.9,0.8,2.6,1.4c0.7,0.6,1.3,1.4,1.7,2.3c0.4,0.9,0.6,1.9,0.6,3.1v13.8H656.1z M656.1,38.6c-0.5-0.3-1-0.5-1.5-0.6
			c-0.5-0.1-1.3-0.2-2.2-0.2c-1,0-1.8,0.2-2.3,0.7c-0.5,0.4-0.8,1.1-0.8,1.9c0,0.7,0.2,1.4,0.7,1.9c0.5,0.5,1.3,0.8,2.4,0.8
			c0.9,0,1.7-0.2,2.3-0.6c0.7-0.4,1.1-0.8,1.4-1.3V38.6z"/>
		<path id="XMLID_113_" class="st8" d="M682,44.9c-0.6,0.5-1.2,1-1.8,1.4c-0.7,0.4-1.4,0.7-2.2,1c-0.8,0.2-1.7,0.3-2.8,0.3
			c-1.3,0-2.6-0.3-3.8-0.8c-1.2-0.5-2.2-1.3-3.1-2.2c-0.9-0.9-1.6-2.1-2.1-3.4c-0.5-1.3-0.7-2.8-0.7-4.3s0.2-3,0.7-4.3
			c0.5-1.3,1.2-2.4,2.1-3.4c0.9-1,1.9-1.7,3.1-2.2s2.5-0.8,3.9-0.8c2,0,3.6,0.4,4.9,1.3c1.3,0.8,2.4,1.9,3.2,3.2l-3.6,3.6
			c-0.6-0.9-1.3-1.6-2-2.1c-0.7-0.5-1.6-0.8-2.7-0.8c-1.3,0-2.3,0.5-3.1,1.5c-0.8,1-1.2,2.3-1.2,4.1c0,1.7,0.4,3,1.2,4
			c0.8,1,1.8,1.5,3.1,1.5c1.1,0,2-0.2,2.7-0.7s1.4-1.1,2.2-1.9l3.4,3.2C683.1,43.7,682.5,44.4,682,44.9z"/>
		<path id="XMLID_110_" class="st8" d="M703.8,36.9c0,0.4,0,0.7,0,1c0,0.3,0,0.5-0.1,0.7h-12.3c0.1,0.7,0.2,1.3,0.5,1.8
			c0.3,0.5,0.6,0.9,1,1.2c0.4,0.3,0.8,0.5,1.3,0.7c0.5,0.1,1,0.2,1.5,0.2c0.8,0,1.4-0.1,2-0.4c0.6-0.3,1.1-0.6,1.5-1.1l3.8,3.2
			c-0.8,1.1-1.9,1.9-3.3,2.5c-1.3,0.6-2.7,0.9-4.1,0.9c-1.5,0-2.8-0.3-4-0.8c-1.2-0.5-2.2-1.2-3-2.2c-0.8-0.9-1.5-2-1.9-3.4
			c-0.5-1.3-0.7-2.8-0.7-4.4c0-1.6,0.2-3,0.7-4.3c0.5-1.3,1.1-2.4,1.9-3.4c0.8-1,1.8-1.7,2.9-2.2c1.1-0.5,2.3-0.8,3.6-0.8
			c1.4,0,2.6,0.3,3.7,0.8c1.1,0.6,2,1.3,2.7,2.3c0.7,1,1.3,2.1,1.7,3.4C703.6,34.1,703.8,35.5,703.8,36.9z M698.6,34.6
			c-0.1-0.5-0.2-0.9-0.3-1.3c-0.2-0.4-0.4-0.8-0.7-1.2c-0.3-0.4-0.7-0.6-1.1-0.8c-0.4-0.2-1-0.3-1.6-0.3c-1,0-1.8,0.4-2.4,1.1
			c-0.6,0.7-0.9,1.6-1,2.6H698.6z"/>
		<path id="XMLID_107_" class="st8" d="M725.8,37.2c0,1.5-0.2,2.9-0.5,4.2c-0.4,1.3-0.9,2.4-1.5,3.3c-0.7,0.9-1.5,1.6-2.5,2.2
			c-1,0.5-2.1,0.8-3.4,0.8c-0.9,0-1.7-0.2-2.5-0.5s-1.4-0.7-1.9-1.1v1.2h-5.4V21.4l5.4-2.7v9.3c0.5-0.4,1.1-0.8,1.8-1.2
			c0.7-0.4,1.5-0.5,2.5-0.5c1.1,0,2.1,0.2,3.1,0.6c1,0.4,1.8,1.1,2.5,2c0.7,0.9,1.3,2,1.7,3.4C725.6,33.6,725.8,35.3,725.8,37.2z
			 M720.4,37.3c0-2.1-0.3-3.6-1-4.6c-0.6-0.9-1.5-1.4-2.6-1.4c-0.8,0-1.5,0.2-2,0.5s-0.9,0.7-1.3,1.3v7.7c0.9,1.2,2.1,1.8,3.6,1.8
			C719.3,42.5,720.4,40.8,720.4,37.3z"/>
		<path id="XMLID_104_" class="st8" d="M747.6,36.9c0,1.6-0.2,3-0.7,4.3c-0.5,1.3-1.1,2.4-1.9,3.4s-1.8,1.7-3,2.2
			c-1.1,0.5-2.4,0.8-3.7,0.8s-2.6-0.3-3.7-0.8c-1.1-0.5-2.1-1.3-2.9-2.2c-0.8-0.9-1.5-2.1-1.9-3.4c-0.5-1.3-0.7-2.8-0.7-4.3
			s0.2-3,0.7-4.3c0.5-1.3,1.1-2.4,1.9-3.4c0.8-1,1.8-1.7,2.9-2.2s2.4-0.8,3.7-0.8s2.6,0.3,3.7,0.8c1.1,0.5,2.1,1.3,3,2.2
			c0.8,1,1.5,2.1,1.9,3.4C747.4,33.9,747.6,35.4,747.6,36.9z M742.1,36.9c0-1.6-0.3-2.9-0.9-4s-1.6-1.6-2.9-1.6
			c-1.3,0-2.3,0.5-2.9,1.6c-0.6,1.1-0.9,2.4-0.9,4c0,1.6,0.3,2.9,0.9,4c0.6,1,1.6,1.6,2.9,1.6c0.7,0,1.2-0.2,1.7-0.5
			c0.5-0.3,0.9-0.7,1.2-1.2s0.5-1.1,0.7-1.8C742.1,38.3,742.1,37.6,742.1,36.9z"/>
	</g>
</g>
<g id="XMLID_57_">
	<polygon id="XMLID_101_" class="st8" points="341.3,36.6 335.1,25.5 331.9,29.3 331.9,36.6 327.2,36.6 327.2,12.2 331.9,12.2 
		331.9,22.8 340.5,12.2 346.3,12.2 338.2,21.9 346.9,36.6 	"/>
	<path id="XMLID_98_" class="st8" d="M380,27.4h-4.7v9.2h-4.8V12.2h9.4c5,0,8,3.5,8,7.6C388.1,24,385.1,27.4,380,27.4 M379.8,16.5
		h-4.4v6.7h4.4c2.2,0,3.5-1.3,3.5-3.3C383.3,17.9,381.9,16.5,379.8,16.5"/>
	<path id="XMLID_95_" class="st8" d="M405,36.6l-4.8-9.7h-3.4v9.7h-4.7V12.2h9.5c5,0,7.9,3.4,7.9,7.5c0,3.4-2.1,5.5-4.4,6.4
		l5.4,10.5H405z M401.3,16.5h-4.5v6.4h4.5c2.1,0,3.4-1.3,3.4-3.2C404.7,17.8,403.4,16.5,401.3,16.5"/>
	<path id="XMLID_92_" class="st8" d="M428.3,36.6l-1.4-4.3h-8.6l-1.5,4.3h-5l8.9-24.3h3.7l8.9,24.3H428.3z M422.6,19.4l-3.1,8.9h6
		L422.6,19.4z"/>
	<path id="XMLID_89_" class="st8" d="M451.4,34.3c-1.6,1.6-3.9,2.3-6.4,2.3h-8.8V12.2h8.8c2.5,0,4.8,0.7,6.4,2.3
		c2.7,2.7,2.5,6.1,2.5,9.7C453.9,28,454.2,31.5,451.4,34.3 M448.1,18c-0.8-1-1.9-1.5-3.6-1.5H441v15.9h3.6c1.6,0,2.7-0.5,3.6-1.5
		c0.9-1.1,1-2.8,1-6.5C449.1,20.6,449,19.1,448.1,18"/>
	<rect id="XMLID_88_" x="458.8" y="12.2" class="st8" width="4.7" height="24.3"/>
	<polygon id="XMLID_87_" class="st8" points="469.2,36.6 469.2,12.2 473.9,12.2 473.9,32.3 485,32.3 485,36.6 	"/>
	<polygon id="XMLID_86_" class="st8" points="326.6,40.1 328.2,40.1 328.2,54.6 338.3,54.6 338.3,56.1 326.6,56.1 	"/>
	<path id="XMLID_83_" class="st8" d="M351.8,52.4c-0.7,2.1-2.4,4.1-6.3,4.1c-4.8,0-6.3-3.3-6.3-6.2c0-3.2,2-6.2,6.3-6.2
		c3,0,6.5,1.3,6.5,6.6h-11.2c0,2.4,1.7,4.4,4.7,4.4c2.8,0,4-0.9,4.6-2.7H351.8z M350.4,49.4c-0.5-2.9-2.6-3.9-4.8-3.9
		c-2.1,0-4.4,1.1-4.8,3.9H350.4z"/>
	<polygon id="XMLID_82_" class="st8" points="363.6,44.5 365.3,44.5 359.9,56.1 358.1,56.1 352.7,44.5 354.5,44.5 359,54.2 	"/>
	<path id="XMLID_79_" class="st8" d="M378.7,52.4c-0.7,2.1-2.4,4.1-6.2,4.1c-4.8,0-6.3-3.3-6.3-6.2c0-3.2,2-6.2,6.3-6.2
		c3,0,6.5,1.3,6.5,6.6h-11.2c0,2.4,1.7,4.4,4.7,4.4c2.8,0,4-0.9,4.6-2.7H378.7z M377.3,49.4c-0.5-2.9-2.6-3.9-4.8-3.9
		c-2.1,0-4.4,1.1-4.8,3.9H377.3z"/>
	<path id="XMLID_78_" class="st8" d="M382.1,40.8h1.7v3.7h3.3v1.3h-3.3v7.7c0,1,0.3,1.5,1.7,1.5c0.8,0,1.3-0.1,1.6-0.1v1.4
		c-0.6,0.1-1.3,0.1-1.8,0.1c-2.6,0-3.1-1-3.1-2.9v-7.7h-2.5v-1.3h2.5V40.8z"/>
	<path id="XMLID_75_" class="st8" d="M388.8,40h1.7v2.5h-1.7V40z M388.8,44.5h1.7v11.6h-1.7V44.5z"/>
	<path id="XMLID_74_" class="st8" d="M392.9,44.5h1.7v2.7h0c0.6-1.4,1.7-3,4.4-3c0.5,0,0.7,0,1,0.1v1.7c-0.5-0.1-1-0.1-1.5-0.1
		c-1.8,0-4,1.1-4,4.4v5.9h-1.7V44.5z"/>
	<path id="XMLID_71_" class="st8" d="M401.1,48c0.2-2.4,1.6-3.9,5.5-3.9c3.9,0,5.3,1.2,5.3,3.4v6.1c0,1,0.3,1.3,0.9,1.3
		c0.3,0,0.6,0,0.9,0V56c-0.3,0.1-0.8,0.2-1.4,0.2c-1.7,0-1.8-1.1-1.8-2.1h0c-0.5,0.8-1.6,2.3-5.4,2.3c-2,0-4.5-0.9-4.5-3.5
		c0-3.2,3.2-3.5,5.8-3.6c3.6-0.2,4.1-0.4,4.1-1.5c0-1.7-1.1-2.3-3.8-2.3c-2.6,0-3.9,0.7-4,2.5H401.1z M410.4,49.8
		c-0.7,0.5-1.9,0.6-5.2,0.9c-1.9,0.2-3,0.8-3,2.1c0,1.8,1.6,2.3,3.3,2.3c2.2,0,4.8-1.2,4.8-3.6V49.8z"/>
	<path id="XMLID_70_" class="st8" d="M426.6,51.9c-0.3,1.5-1.7,4.5-5.9,4.5c-4.2,0-6.5-2.5-6.5-6.2c0-3.5,2.1-6.2,6.5-6.2
		c4,0,5.5,2.5,5.8,4.2h-1.7c-0.5-2-2.1-2.8-4.1-2.8c-3.3,0-4.9,2.1-4.9,4.8c0,2.9,1.7,4.8,4.9,4.8c2.4,0,3.8-1.3,4.2-3.1H426.6z"/>
	<path id="XMLID_67_" class="st8" d="M440.6,52.4c-0.7,2.1-2.4,4.1-6.3,4.1c-4.8,0-6.3-3.3-6.3-6.2c0-3.2,2-6.2,6.3-6.2
		c3,0,6.5,1.3,6.5,6.6h-11.2c0,2.4,1.7,4.4,4.7,4.4c2.8,0,4-0.9,4.6-2.7H440.6z M439.3,49.4c-0.5-2.9-2.6-3.9-4.8-3.9
		c-2.1,0-4.4,1.1-4.8,3.9H439.3z"/>
	<path id="XMLID_66_" class="st8" d="M444.1,40.8h1.6v3.7h3.3v1.3h-3.3v7.7c0,1,0.3,1.5,1.7,1.5c0.8,0,1.3-0.1,1.6-0.1v1.4
		c-0.6,0.1-1.3,0.1-1.8,0.1c-2.6,0-3.1-1-3.1-2.9v-7.7h-2.5v-1.3h2.5V40.8z"/>
	<path id="XMLID_63_" class="st8" d="M450.7,48c0.2-2.4,1.6-3.9,5.5-3.9c3.9,0,5.3,1.2,5.3,3.4v6.1c0,1,0.3,1.3,0.9,1.3
		c0.3,0,0.6,0,0.9,0V56c-0.3,0.1-0.8,0.2-1.4,0.2c-1.7,0-1.8-1.1-1.8-2.1h0c-0.5,0.8-1.6,2.3-5.4,2.3c-2,0-4.5-0.9-4.5-3.5
		c0-3.2,3.2-3.5,5.8-3.6c3.6-0.2,4.1-0.4,4.1-1.5c0-1.7-1.1-2.3-3.8-2.3c-2.6,0-3.9,0.7-4,2.5H450.7z M460,49.8
		c-0.7,0.5-1.9,0.6-5.2,0.9c-1.9,0.2-3,0.8-3,2.1c0,1.8,1.6,2.3,3.3,2.3c2.2,0,4.8-1.2,4.8-3.6V49.8z"/>
	<path id="XMLID_62_" class="st8" d="M482.6,48.7c0-2.1-1.1-3.2-3.5-3.2c-2.5,0-4,1.5-4,3.7v6.9h-1.7v-7.9c0-1.5-1-2.7-3.3-2.7
		c-2.4,0-4.1,1.4-4.1,4v6.5h-1.6V44.5h1.6v2.1h0c0.7-1.2,1.9-2.5,4.6-2.5c2.6,0,3.8,1.4,4.2,2.5c0.6-1.2,2.2-2.5,4.6-2.5
		c3.3,0,4.8,1.7,4.8,4v7.9h-1.7V48.7z"/>
	<polygon id="XMLID_61_" class="st8" points="350,36.6 366,36.6 366,32.3 354.7,32.3 354.7,27.4 350,27.4 	"/>
	<path id="XMLID_60_" class="st8" d="M347.9,25.5c0,0,2-4.4,9.6-4.4c7.6,0,11.9-2.7,11.9-2.7S364,24,358.6,24
		C353.3,24,350.1,24,347.9,25.5"/>
	<path id="XMLID_59_" class="st8" d="M345.7,29.7c0,0,2-4.4,9.6-4.4c7.6,0,11.9-2.7,11.9-2.7s-5.4,5.6-10.8,5.6
		C351.1,28.2,347.9,28.2,345.7,29.7"/>
	<polygon id="XMLID_58_" class="st8" points="350,23.2 354.7,23.2 354.7,16.5 366,16.5 366,12.2 350,12.2 	"/>
</g>
<g id="XMLID_25_">
	<path id="XMLID_54_" class="st8" d="M47.1,44.4l-1.7-4.8h-7.9l-1.7,4.8h-4.6l8.2-21.5h4.2l8.2,21.5H47.1z M42.6,31.7
		c-0.2-0.6-0.4-1.3-0.6-1.9c-0.2-0.6-0.3-1.1-0.4-1.5c-0.1,0.4-0.3,0.9-0.4,1.5c-0.2,0.6-0.4,1.2-0.6,1.9l-1.4,3.9H44L42.6,31.7z"/>
	<path id="XMLID_51_" class="st8" d="M63.5,44.4v-1c-0.4,0.3-0.9,0.7-1.4,0.9s-1.2,0.4-2,0.4c-0.9,0-1.7-0.2-2.4-0.5s-1.4-0.8-2-1.6
		c-0.6-0.7-1-1.6-1.4-2.7c-0.3-1.1-0.5-2.4-0.5-3.9c0-1.2,0.1-2.3,0.4-3.3s0.7-1.9,1.2-2.6c0.5-0.7,1.2-1.3,2-1.7
		c0.8-0.4,1.7-0.6,2.7-0.6c0.7,0,1.4,0.1,2,0.4s1.1,0.5,1.5,0.9v-5.1l4.2-2.1v22.4H63.5z M63.5,33.3c-0.7-0.9-1.6-1.4-2.9-1.4
		c-1.7,0-2.5,1.4-2.5,4.1c0,1.7,0.3,2.9,0.8,3.6c0.5,0.7,1.2,1.1,2,1.1c0.7,0,1.2-0.1,1.6-0.4c0.4-0.2,0.7-0.6,1-1V33.3z"/>
	<path id="XMLID_49_" class="st8" d="M80.8,44.4h-4.4l-5.8-16.1h4.7l2.4,7.5c0.2,0.6,0.4,1.3,0.6,1.9c0.2,0.7,0.3,1.2,0.4,1.6
		c0.1-0.4,0.2-0.9,0.4-1.6c0.2-0.7,0.4-1.3,0.6-1.9l2.4-7.5h4.5L80.8,44.4z"/>
	<path id="XMLID_46_" class="st8" d="M102.1,36.4c0,0.3,0,0.6,0,0.8c0,0.2,0,0.4,0,0.6h-9.7c0,0.6,0.2,1,0.4,1.4
		c0.2,0.4,0.5,0.7,0.8,0.9c0.3,0.2,0.6,0.4,1,0.5c0.4,0.1,0.8,0.2,1.2,0.2c0.6,0,1.1-0.1,1.6-0.3c0.5-0.2,0.9-0.5,1.2-0.8l3,2.5
		c-0.7,0.8-1.5,1.5-2.6,1.9c-1.1,0.5-2.1,0.7-3.2,0.7c-1.2,0-2.2-0.2-3.1-0.6c-0.9-0.4-1.7-1-2.4-1.7c-0.7-0.7-1.2-1.6-1.5-2.6
		s-0.5-2.2-0.5-3.5c0-1.2,0.2-2.4,0.6-3.4c0.4-1,0.9-1.9,1.5-2.7c0.6-0.7,1.4-1.3,2.3-1.7c0.9-0.4,1.8-0.6,2.8-0.6
		c1.1,0,2,0.2,2.9,0.7s1.6,1,2.1,1.8s1,1.7,1.3,2.7S102.1,35.2,102.1,36.4z M98,34.5c0-0.4-0.1-0.7-0.2-1.1s-0.3-0.6-0.5-0.9
		c-0.2-0.3-0.5-0.5-0.9-0.7s-0.8-0.2-1.2-0.2c-0.8,0-1.4,0.3-1.9,0.8c-0.5,0.6-0.7,1.2-0.8,2.1H98z"/>
	<path id="XMLID_44_" class="st8" d="M114.9,33.2c-0.3-0.3-0.7-0.6-1.1-0.8c-0.4-0.2-0.8-0.3-1.3-0.3c-0.4,0-0.8,0.1-1.1,0.2
		s-0.6,0.3-0.9,0.6c-0.2,0.3-0.4,0.6-0.6,1.1c-0.1,0.5-0.2,1-0.2,1.7v8.7h-4.2V28.3h4.2v1.1c0.4-0.4,0.8-0.7,1.4-1
		c0.5-0.3,1.2-0.4,1.9-0.4c0.7,0,1.3,0.1,1.8,0.4c0.5,0.2,0.9,0.5,1.2,0.8L114.9,33.2z"/>
	<path id="XMLID_42_" class="st8" d="M130.7,39.7c0,0.9-0.2,1.7-0.5,2.3c-0.3,0.6-0.8,1.2-1.4,1.6s-1.3,0.7-2.1,0.9
		c-0.8,0.2-1.6,0.3-2.5,0.3c-1.3,0-2.5-0.2-3.7-0.5c-1.2-0.3-2.2-0.8-3.1-1.4l1.4-3.2c0.9,0.5,1.7,0.8,2.7,1.1
		c0.9,0.3,1.9,0.4,2.9,0.4c0.8,0,1.4-0.1,1.7-0.3c0.3-0.2,0.4-0.5,0.4-0.9c0-0.4-0.2-0.7-0.5-0.9c-0.3-0.2-1-0.5-1.9-0.7
		c-1-0.3-1.8-0.6-2.6-0.9c-0.8-0.3-1.5-0.6-2-1c-0.6-0.4-1-0.9-1.3-1.5s-0.4-1.3-0.4-2.2c0-0.8,0.2-1.6,0.5-2.2
		c0.3-0.6,0.8-1.1,1.3-1.5c0.6-0.4,1.3-0.7,2-0.9c0.8-0.2,1.7-0.3,2.6-0.3c1,0,2.1,0.1,3.1,0.4c1,0.3,2,0.7,2.9,1.1l-1.4,3.3
		c-0.8-0.4-1.6-0.8-2.4-1c-0.8-0.2-1.6-0.3-2.3-0.3c-0.9,0-1.4,0.1-1.7,0.3c-0.3,0.2-0.4,0.4-0.4,0.8c0,0.2,0,0.3,0.1,0.4
		c0.1,0.1,0.2,0.3,0.5,0.4c0.2,0.1,0.6,0.3,1,0.4c0.4,0.2,1,0.4,1.7,0.6c0.7,0.2,1.4,0.5,2.1,0.8c0.7,0.3,1.2,0.6,1.7,1
		c0.5,0.4,0.9,0.9,1.2,1.4C130.6,38.2,130.7,38.9,130.7,39.7z"/>
	<path id="XMLID_38_" class="st8" d="M147.3,36.4c0,0.3,0,0.6,0,0.8c0,0.2,0,0.4,0,0.6h-9.7c0,0.6,0.2,1,0.4,1.4
		c0.2,0.4,0.5,0.7,0.8,0.9c0.3,0.2,0.6,0.4,1,0.5c0.4,0.1,0.8,0.2,1.2,0.2c0.6,0,1.1-0.1,1.6-0.3c0.5-0.2,0.9-0.5,1.2-0.8l3,2.5
		c-0.7,0.8-1.5,1.5-2.6,1.9c-1.1,0.5-2.1,0.7-3.2,0.7c-1.2,0-2.2-0.2-3.1-0.6c-0.9-0.4-1.7-1-2.4-1.7c-0.7-0.7-1.2-1.6-1.5-2.6
		s-0.5-2.2-0.5-3.5c0-1.2,0.2-2.4,0.6-3.4c0.4-1,0.9-1.9,1.5-2.7c0.6-0.7,1.4-1.3,2.3-1.7c0.9-0.4,1.8-0.6,2.8-0.6
		c1.1,0,2,0.2,2.9,0.7s1.6,1,2.1,1.8s1,1.7,1.3,2.7S147.3,35.2,147.3,36.4z M143.2,34.5c0-0.4-0.1-0.7-0.2-1.1s-0.3-0.6-0.5-0.9
		c-0.2-0.3-0.5-0.5-0.9-0.7s-0.8-0.2-1.2-0.2c-0.8,0-1.4,0.3-1.9,0.8c-0.5,0.6-0.7,1.2-0.8,2.1H143.2z"/>
	<path id="XMLID_36_" class="st8" d="M160.3,44.4V22.9h14.9v4.2h-10.6v3.7h6.2V35h-6.2v5.2h11.1v4.2H160.3z"/>
	<path id="XMLID_33_" class="st8" d="M186.8,44.4h-4.4l-5.8-16.1h4.7l2.4,7.5c0.2,0.6,0.4,1.3,0.6,1.9c0.2,0.7,0.3,1.2,0.4,1.6
		c0.1-0.4,0.2-0.9,0.4-1.6c0.2-0.7,0.4-1.3,0.6-1.9l2.4-7.5h4.5L186.8,44.4z"/>
	<path id="XMLID_30_" class="st8" d="M208.1,36.4c0,0.3,0,0.6,0,0.8c0,0.2,0,0.4,0,0.6h-9.7c0,0.6,0.2,1,0.4,1.4
		c0.2,0.4,0.5,0.7,0.8,0.9c0.3,0.2,0.6,0.4,1,0.5c0.4,0.1,0.8,0.2,1.2,0.2c0.6,0,1.1-0.1,1.6-0.3c0.5-0.2,0.9-0.5,1.2-0.8l3,2.5
		c-0.7,0.8-1.5,1.5-2.6,1.9c-1.1,0.5-2.1,0.7-3.2,0.7c-1.2,0-2.2-0.2-3.1-0.6c-0.9-0.4-1.7-1-2.4-1.7c-0.7-0.7-1.2-1.6-1.5-2.6
		s-0.5-2.2-0.5-3.5c0-1.2,0.2-2.4,0.6-3.4c0.4-1,0.9-1.9,1.5-2.7c0.6-0.7,1.4-1.3,2.3-1.7c0.9-0.4,1.8-0.6,2.8-0.6
		c1.1,0,2,0.2,2.9,0.7s1.6,1,2.1,1.8s1,1.7,1.3,2.7S208.1,35.2,208.1,36.4z M203.9,34.5c0-0.4-0.1-0.7-0.2-1.1s-0.3-0.6-0.5-0.9
		c-0.2-0.3-0.5-0.5-0.9-0.7s-0.8-0.2-1.2-0.2c-0.8,0-1.4,0.3-1.9,0.8c-0.5,0.6-0.7,1.2-0.8,2.1H203.9z"/>
	<path id="XMLID_28_" class="st8" d="M221.2,44.4v-8.7c0-1.4-0.2-2.4-0.7-2.9c-0.5-0.5-1.1-0.8-2-0.8s-1.6,0.3-2,0.8
		c-0.5,0.5-0.7,1.5-0.7,2.9v8.8h-4.2V28.3h4.2v1.1c0.4-0.4,0.9-0.7,1.5-1s1.4-0.4,2.3-0.4c2,0,3.6,0.7,4.5,2c1,1.3,1.4,3.1,1.4,5.4
		v9.1H221.2z"/>
	<path id="XMLID_26_" class="st8" d="M238.2,43.8c-0.3,0.3-0.8,0.5-1.4,0.7s-1.2,0.3-1.9,0.3c-0.7,0-1.2-0.1-1.8-0.4
		c-0.5-0.2-1-0.6-1.4-1c-0.4-0.4-0.7-0.9-0.9-1.5c-0.2-0.6-0.3-1.2-0.3-2v-7.6h-2.7v-4h2.7v-4.1l4.2-2.1v6.3h3.9v4h-3.9v6.5
		c0,0.8,0.1,1.3,0.4,1.6c0.3,0.3,0.7,0.4,1.2,0.4c0.4,0,0.8-0.1,1.1-0.3c0.3-0.2,0.8-0.5,1.3-1L238.2,43.8z"/>
</g>
<line id="XMLID_24_" class="st9" x1="271.4" y1="0" x2="271.4" y2="67.7"/>
<line id="XMLID_23_" class="st9" x1="541.7" y1="0" x2="541.7" y2="67.7"/>
<linearGradient id="XMLID_255_" gradientUnits="userSpaceOnUse" x1="0.9998" y1="162.1546" x2="811.982" y2="162.1546">
	<stop  offset="0" style="stop-color:#4B257A"/>
	<stop  offset="1" style="stop-color:#964C8E"/>
</linearGradient>
<line id="XMLID_22_" class="st10" x1="1" y1="162.2" x2="812" y2="162.2"/>
<g id="XMLID_1_">
	<g>
		<path id="XMLID_9_" class="st3" d="M361.2,221.9V197h-5.6v-2.2c1.7-0.1,3.2-0.5,4.3-1c1.2-0.6,1.9-1.6,2.1-3h2.6v31.1H361.2z"/>
		<path id="XMLID_7_" class="st3" d="M375.1,221.9V197h-5.6v-2.2c1.7-0.1,3.2-0.5,4.3-1c1.2-0.6,1.9-1.6,2.1-3h2.6v31.1H375.1z"/>
		<path id="XMLID_5_" class="st3" d="M390.8,219.5c0,0.8-0.3,1.4-0.8,2c-0.6,0.6-1.2,0.8-2,0.8s-1.4-0.3-2-0.8
			c-0.6-0.6-0.8-1.2-0.8-2s0.3-1.5,0.8-2c0.6-0.6,1.2-0.9,2-0.9s1.4,0.3,2,0.9C390.5,218.1,390.8,218.7,390.8,219.5z"/>
		<path id="XMLID_3_" class="st3" d="M407.9,199.5c-1.2,2-2.3,4.1-3.2,6.4c-0.9,2.3-1.7,4.8-2.3,7.4c-0.6,2.7-0.9,5.5-1,8.6h-3.5
			c0.1-2.8,0.4-5.5,0.9-8c0.5-2.5,1.2-5,2.1-7.3c0.9-2.3,1.9-4.5,3.1-6.6c1.2-2.1,2.5-4.1,3.9-5.9h-16.7v-3.3h20.4v3.2
			C410.4,195.7,409.1,197.5,407.9,199.5z"/>
	</g>
</g>
</svg>
