<!-- Generator: Adobe Illustrator 22.1.0, SVG Export Plug-In  -->
<svg version="1.1"
	 xmlns="http://www.w3.org/2000/svg" xmlns:xlink="http://www.w3.org/1999/xlink" xmlns:a="http://ns.adobe.com/AdobeSVGViewerExtensions/3.0/"
	 x="0px" y="0px" width="554.1px" height="47.5px" viewBox="0 0 554.1 47.5" style="enable-background:new 0 0 554.1 47.5;"
	 xml:space="preserve">
<style type="text/css">
	.st0{fill:#532D6D;}
	.st1{fill:#266093;}
</style>
<defs>
</defs>
<g id="XMLID_5_">
	<g id="XMLID_7_">
		<path id="XMLID_104_" class="st0" d="M65.9,40.9v-6.5h-6.4v6.5h-3.1V25.4h3.1v5.9h6.4v-5.9H69v15.5H65.9z"/>
		<path id="XMLID_101_" class="st0" d="M75.8,26.5c0,0.5-0.2,0.9-0.5,1.2c-0.3,0.3-0.8,0.5-1.2,0.5s-0.9-0.2-1.2-0.5
			c-0.3-0.3-0.5-0.8-0.5-1.2s0.2-0.9,0.5-1.2c0.3-0.3,0.8-0.5,1.2-0.5s0.9,0.2,1.2,0.5C75.7,25.7,75.8,26.1,75.8,26.5z M72.6,40.9
			V29.2h3.1v11.6H72.6z"/>
		<path id="XMLID_98_" class="st0" d="M88.1,38.9c0,1-0.1,1.8-0.2,2.5c-0.1,0.7-0.4,1.4-0.8,1.9c-0.4,0.5-0.9,0.9-1.5,1.2
			c-0.6,0.3-1.5,0.5-2.5,0.6L82,42.8c0.6-0.1,1.1-0.2,1.5-0.3c0.4-0.1,0.7-0.3,0.9-0.5c0.2-0.2,0.4-0.5,0.5-0.8
			c0.1-0.3,0.1-0.7,0.1-1.1c-0.3,0.3-0.6,0.5-1,0.7c-0.4,0.2-0.9,0.3-1.4,0.3c-0.6,0-1.2-0.1-1.7-0.4c-0.5-0.2-1-0.6-1.4-1.1
			c-0.4-0.5-0.7-1.2-1-1.9c-0.2-0.8-0.4-1.7-0.4-2.8c0-0.9,0.1-1.7,0.3-2.4c0.2-0.7,0.5-1.3,0.9-1.9c0.4-0.5,0.9-0.9,1.4-1.2
			s1.2-0.4,1.9-0.4c0.5,0,1,0.1,1.4,0.3c0.4,0.2,0.8,0.4,1.1,0.6v-0.7h3.1V38.9z M85.1,32.9c-0.5-0.7-1.2-1-2.1-1
			c-1.2,0-1.8,1-1.8,3c0,1.2,0.2,2.1,0.5,2.6c0.4,0.5,0.8,0.8,1.5,0.8c0.5,0,0.8-0.1,1.1-0.3c0.3-0.2,0.5-0.4,0.8-0.7V32.9z"/>
		<path id="XMLID_96_" class="st0" d="M98.1,40.9v-6.3c0-1-0.2-1.7-0.5-2.1s-0.8-0.6-1.5-0.6s-1.1,0.2-1.5,0.6
			c-0.3,0.4-0.5,1.1-0.5,2.1v6.4h-3.1V26.3l3.1-1.5V30c0.3-0.3,0.6-0.5,1.1-0.7s1-0.3,1.6-0.3c1.5,0,2.6,0.5,3.3,1.4s1,2.2,1,3.9
			v6.6H98.1z"/>
		<path id="XMLID_94_" class="st0" d="M111,40.9V25.4h10.8v3h-7.7v2.7h4.5v3h-4.5v3.7h8v3H111z"/>
		<path id="XMLID_92_" class="st0" d="M130.4,27.4c-0.2,0-0.4-0.1-0.6-0.1c-0.5,0-0.8,0.1-0.9,0.2s-0.2,0.4-0.2,0.7v1h2v2.9h-2v8.7
			h-3.1v-8.7h-1.4v-2.9h1.4v-1.4c0-1.1,0.3-1.9,0.9-2.3c0.6-0.5,1.4-0.7,2.5-0.7c0.8,0,1.4,0.1,1.9,0.3v2.5
			C130.7,27.5,130.6,27.5,130.4,27.4z"/>
		<path id="XMLID_88_" class="st0" d="M139.1,27.6c-0.2-0.1-0.3-0.1-0.5-0.2c-0.2,0-0.4-0.1-0.6-0.1c-0.5,0-0.8,0.1-0.9,0.2
			s-0.2,0.4-0.2,0.7v1h2v2.9h-2v8.7h-3.1v-8.7h-1.4v-2.9h1.4v-1.4c0-1.1,0.3-1.9,0.9-2.3c0.6-0.5,1.4-0.7,2.5-0.7
			c0.8,0,1.4,0.1,1.9,0.3V27.6z M144.5,26.5c0,0.5-0.2,0.9-0.5,1.2s-0.8,0.5-1.2,0.5c-0.5,0-0.9-0.2-1.2-0.5S141,27,141,26.5
			s0.2-0.9,0.5-1.2s0.8-0.5,1.2-0.5c0.5,0,0.9,0.2,1.2,0.5S144.5,26.1,144.5,26.5z M141.2,40.9V29.2h3.1v11.6H141.2z"/>
		<path id="XMLID_86_" class="st0" d="M156.1,39.6c-0.3,0.3-0.7,0.6-1,0.8c-0.4,0.2-0.8,0.4-1.3,0.5c-0.5,0.1-1,0.2-1.6,0.2
			c-0.8,0-1.5-0.1-2.1-0.4c-0.7-0.3-1.2-0.7-1.7-1.2c-0.5-0.5-0.9-1.2-1.2-1.9c-0.3-0.7-0.4-1.6-0.4-2.4s0.1-1.7,0.4-2.4
			c0.3-0.7,0.7-1.4,1.2-1.9c0.5-0.5,1.1-1,1.8-1.3c0.7-0.3,1.4-0.4,2.2-0.4c1.1,0,2,0.2,2.8,0.7c0.7,0.5,1.4,1.1,1.8,1.8l-2,2
			c-0.3-0.5-0.7-0.9-1.1-1.2s-0.9-0.5-1.5-0.5c-0.7,0-1.3,0.3-1.8,0.8c-0.4,0.6-0.7,1.3-0.7,2.3c0,0.9,0.2,1.7,0.7,2.3
			c0.4,0.6,1,0.9,1.8,0.9c0.6,0,1.1-0.1,1.5-0.4c0.4-0.3,0.8-0.6,1.2-1.1l1.9,1.8C156.7,38.9,156.4,39.3,156.1,39.6z"/>
		<path id="XMLID_83_" class="st0" d="M165.6,40.9v-0.8c-0.3,0.3-0.7,0.5-1.1,0.7c-0.5,0.2-1,0.3-1.5,0.3c-0.5,0-1.1-0.1-1.6-0.3
			c-0.5-0.2-1-0.4-1.4-0.8c-0.4-0.3-0.7-0.8-1-1.3s-0.4-1.1-0.4-1.8c0-0.6,0.1-1.2,0.4-1.7c0.2-0.5,0.6-0.9,1-1.2
			c0.4-0.3,0.9-0.6,1.5-0.7s1.2-0.2,1.8-0.2c0.5,0,1,0,1.3,0.1s0.7,0.2,0.9,0.3V33c0-0.4-0.1-0.8-0.4-1.1s-0.7-0.4-1.3-0.4
			c-0.4,0-0.7,0-0.9,0s-0.5,0.1-0.8,0.1c-0.2,0.1-0.5,0.1-0.7,0.2c-0.2,0.1-0.5,0.2-0.8,0.4l-1.2-2.1c0.3-0.2,0.7-0.4,1-0.5
			s0.6-0.3,1-0.4s0.7-0.2,1.1-0.2c0.4-0.1,0.8-0.1,1.3-0.1c0.7,0,1.4,0.1,1.9,0.3c0.6,0.2,1.1,0.4,1.5,0.8s0.7,0.8,1,1.3
			c0.2,0.5,0.3,1.1,0.3,1.7v7.8H165.6z M165.6,36c-0.3-0.2-0.6-0.3-0.9-0.4c-0.3-0.1-0.7-0.1-1.3-0.1c-0.6,0-1,0.1-1.3,0.4
			c-0.3,0.3-0.5,0.6-0.5,1.1c0,0.4,0.1,0.8,0.4,1.1c0.3,0.3,0.7,0.5,1.4,0.5c0.5,0,0.9-0.1,1.3-0.3c0.4-0.2,0.6-0.5,0.8-0.7V36z"/>
		<path id="XMLID_81_" class="st0" d="M180.3,39.6c-0.3,0.3-0.7,0.6-1,0.8c-0.4,0.2-0.8,0.4-1.3,0.5c-0.5,0.1-1,0.2-1.6,0.2
			c-0.8,0-1.5-0.1-2.1-0.4c-0.7-0.3-1.2-0.7-1.7-1.2c-0.5-0.5-0.9-1.2-1.2-1.9c-0.3-0.7-0.4-1.6-0.4-2.4s0.1-1.7,0.4-2.4
			c0.3-0.7,0.7-1.4,1.2-1.9c0.5-0.5,1.1-1,1.8-1.3c0.7-0.3,1.4-0.4,2.2-0.4c1.1,0,2,0.2,2.8,0.7c0.7,0.5,1.4,1.1,1.8,1.8l-2,2
			c-0.3-0.5-0.7-0.9-1.1-1.2s-0.9-0.5-1.5-0.5c-0.7,0-1.3,0.3-1.8,0.8c-0.4,0.6-0.7,1.3-0.7,2.3c0,0.9,0.2,1.7,0.7,2.3
			c0.4,0.6,1,0.9,1.8,0.9c0.6,0,1.1-0.1,1.5-0.4c0.4-0.3,0.8-0.6,1.2-1.1l1.9,1.8C180.9,38.9,180.6,39.3,180.3,39.6z"/>
		<path id="XMLID_79_" class="st0" d="M188.5,45h-3l1.5-4.1l-4.5-11.6h3.4l1.9,5.6c0.2,0.4,0.3,0.9,0.4,1.4s0.2,0.9,0.3,1.2
			c0.1-0.3,0.2-0.7,0.3-1.2s0.3-0.9,0.4-1.4l1.9-5.6h3.3L188.5,45z"/>
		<path id="XMLID_77_" class="st0" d="M216.6,40.9h-3l-1.9-8c-0.1-0.5-0.2-1-0.3-1.5c-0.1-0.5-0.2-0.9-0.2-1.2
			c0,0.3-0.1,0.7-0.2,1.2c-0.1,0.5-0.2,1-0.3,1.5l-1.9,8h-2.9l-3.2-15.5h3.2l1.4,7.6c0.1,0.4,0.1,0.8,0.2,1.3
			c0.1,0.5,0.1,0.9,0.2,1.2c0.1-0.3,0.1-0.7,0.2-1.2c0.1-0.5,0.2-0.9,0.3-1.3l1.8-7.6h2.7l1.8,7.6c0.1,0.4,0.2,0.8,0.3,1.3
			c0.1,0.5,0.2,0.9,0.2,1.2c0-0.3,0.1-0.7,0.2-1.2c0.1-0.5,0.1-0.9,0.2-1.3l1.4-7.6h3.2L216.6,40.9z"/>
		<path id="XMLID_74_" class="st0" d="M225.8,26.5c0,0.5-0.2,0.9-0.5,1.2c-0.3,0.3-0.8,0.5-1.2,0.5s-0.9-0.2-1.2-0.5
			c-0.3-0.3-0.5-0.8-0.5-1.2s0.2-0.9,0.5-1.2c0.3-0.3,0.8-0.5,1.2-0.5s0.9,0.2,1.2,0.5C225.7,25.7,225.8,26.1,225.8,26.5z
			 M222.6,40.9V29.2h3.1v11.6H222.6z"/>
		<path id="XMLID_72_" class="st0" d="M235.2,40.4c-0.3,0.2-0.6,0.4-1,0.5c-0.4,0.1-0.9,0.2-1.4,0.2s-0.9-0.1-1.3-0.3
			c-0.4-0.2-0.7-0.4-1-0.7c-0.3-0.3-0.5-0.7-0.6-1.1c-0.1-0.4-0.2-0.9-0.2-1.4v-5.5h-1.9v-2.9h1.9v-3l3.1-1.5v4.5h2.8v2.9h-2.8v4.7
			c0,0.6,0.1,0.9,0.3,1.1c0.2,0.2,0.5,0.3,0.8,0.3c0.3,0,0.5-0.1,0.8-0.2c0.2-0.1,0.6-0.4,0.9-0.7L235.2,40.4z"/>
		<path id="XMLID_70_" class="st0" d="M245.5,40.9v-6.3c0-1-0.2-1.7-0.5-2.1s-0.8-0.6-1.5-0.6s-1.1,0.2-1.5,0.6
			c-0.3,0.4-0.5,1.1-0.5,2.1v6.4h-3.1V26.3l3.1-1.5V30c0.3-0.3,0.6-0.5,1.1-0.7s1-0.3,1.6-0.3c1.5,0,2.6,0.5,3.3,1.4s1,2.2,1,3.9
			v6.6H245.5z"/>
		<path id="XMLID_68_" class="st0" d="M261.4,28.4v2.9h4.7v3h-4.7v6.5h-3.1V25.4h11.1v3H261.4z"/>
		<path id="XMLID_65_" class="st0" d="M281.2,35.1c0,0.2,0,0.4,0,0.6c0,0.2,0,0.3,0,0.4h-7c0,0.4,0.1,0.7,0.3,1s0.3,0.5,0.6,0.7
			c0.2,0.2,0.5,0.3,0.7,0.4s0.5,0.1,0.8,0.1c0.4,0,0.8-0.1,1.2-0.2c0.3-0.1,0.6-0.3,0.8-0.6l2.2,1.8c-0.5,0.6-1.1,1.1-1.8,1.4
			c-0.8,0.3-1.5,0.5-2.3,0.5c-0.8,0-1.6-0.1-2.3-0.4s-1.2-0.7-1.7-1.2c-0.5-0.5-0.8-1.2-1.1-1.9s-0.4-1.6-0.4-2.5
			c0-0.9,0.1-1.7,0.4-2.4c0.3-0.7,0.6-1.4,1.1-1.9c0.5-0.5,1-1,1.6-1.3c0.6-0.3,1.3-0.4,2-0.4c0.8,0,1.5,0.2,2.1,0.5
			c0.6,0.3,1.1,0.8,1.5,1.3c0.4,0.6,0.7,1.2,1,1.9C281,33.5,281.2,34.2,281.2,35.1z M278.2,33.7c0-0.3-0.1-0.5-0.2-0.8
			c-0.1-0.2-0.2-0.5-0.4-0.7c-0.2-0.2-0.4-0.4-0.6-0.5c-0.3-0.1-0.5-0.2-0.9-0.2c-0.6,0-1,0.2-1.3,0.6c-0.3,0.4-0.5,0.9-0.6,1.5
			H278.2z"/>
		<path id="XMLID_63_" class="st0" d="M294.6,40.9h-2.5l-1.2-4.6c-0.1-0.2-0.1-0.5-0.2-0.7c-0.1-0.3-0.1-0.5-0.2-0.8
			c-0.1-0.3-0.1-0.5-0.2-0.7s-0.1-0.4-0.1-0.5c0,0.1-0.1,0.3-0.1,0.5c0,0.2-0.1,0.5-0.2,0.7c-0.1,0.3-0.1,0.5-0.2,0.8
			c-0.1,0.3-0.1,0.5-0.2,0.7l-1.2,4.6H286l-3.3-11.6h3.1l1,4.3c0,0.2,0.1,0.5,0.2,0.7c0.1,0.3,0.1,0.5,0.2,0.7
			c0.1,0.2,0.1,0.5,0.1,0.7c0,0.2,0.1,0.4,0.1,0.5c0-0.3,0.1-0.7,0.3-1.2c0.1-0.5,0.2-1,0.4-1.5l1.2-4.3h2.5l1.2,4.3
			c0.1,0.5,0.2,0.9,0.4,1.5c0.1,0.5,0.2,0.9,0.3,1.2c0-0.1,0-0.3,0.1-0.5c0-0.2,0.1-0.4,0.1-0.7c0.1-0.2,0.1-0.5,0.2-0.7
			c0.1-0.3,0.1-0.5,0.2-0.7l1-4.3h3L294.6,40.9z"/>
		<path id="XMLID_60_" class="st0" d="M309.5,35.1c0,0.2,0,0.4,0,0.6c0,0.2,0,0.3,0,0.4h-7c0,0.4,0.1,0.7,0.3,1s0.3,0.5,0.6,0.7
			c0.2,0.2,0.5,0.3,0.7,0.4s0.5,0.1,0.8,0.1c0.4,0,0.8-0.1,1.2-0.2c0.3-0.1,0.6-0.3,0.8-0.6l2.2,1.8c-0.5,0.6-1.1,1.1-1.8,1.4
			c-0.8,0.3-1.5,0.5-2.3,0.5c-0.8,0-1.6-0.1-2.3-0.4s-1.2-0.7-1.7-1.2c-0.5-0.5-0.8-1.2-1.1-1.9s-0.4-1.6-0.4-2.5
			c0-0.9,0.1-1.7,0.4-2.4c0.3-0.7,0.6-1.4,1.1-1.9c0.5-0.5,1-1,1.6-1.3c0.6-0.3,1.3-0.4,2-0.4c0.8,0,1.5,0.2,2.1,0.5
			c0.6,0.3,1.1,0.8,1.5,1.3c0.4,0.6,0.7,1.2,1,1.9C309.4,33.5,309.5,34.2,309.5,35.1z M306.5,33.7c0-0.3-0.1-0.5-0.2-0.8
			c-0.1-0.2-0.2-0.5-0.4-0.7c-0.2-0.2-0.4-0.4-0.6-0.5c-0.3-0.1-0.5-0.2-0.9-0.2c-0.6,0-1,0.2-1.3,0.6c-0.3,0.4-0.5,0.9-0.6,1.5
			H306.5z"/>
		<path id="XMLID_58_" class="st0" d="M318.7,32.8c-0.3-0.2-0.5-0.4-0.8-0.5c-0.3-0.1-0.6-0.2-1-0.2c-0.3,0-0.6,0-0.8,0.1
			c-0.2,0.1-0.5,0.2-0.6,0.4c-0.2,0.2-0.3,0.5-0.4,0.8c-0.1,0.3-0.1,0.7-0.1,1.2v6.3h-3.1V29.2h3.1V30c0.3-0.3,0.6-0.5,1-0.7
			c0.4-0.2,0.9-0.3,1.4-0.3c0.5,0,0.9,0.1,1.3,0.3c0.4,0.2,0.6,0.4,0.9,0.6L318.7,32.8z"/>
		<path id="XMLID_55_" class="st0" d="M340.9,33.1c0,1.4-0.2,2.5-0.7,3.5c-0.5,1-1,1.8-1.8,2.4c-0.7,0.6-1.6,1.1-2.5,1.4
			c-1,0.3-1.9,0.4-2.9,0.4h-4.6V25.4h4.8c1.1,0,2.1,0.1,3.1,0.4c0.9,0.3,1.7,0.7,2.4,1.3s1.2,1.4,1.6,2.4
			C340.7,30.5,340.9,31.7,340.9,33.1z M337.7,33.1c0-1.6-0.4-2.8-1.1-3.6c-0.7-0.8-1.9-1.2-3.5-1.2h-1.6v9.5h1.5
			c0.8,0,1.5-0.1,2.1-0.3c0.6-0.2,1.1-0.5,1.5-1c0.4-0.4,0.7-0.9,0.9-1.5C337.6,34.5,337.7,33.8,337.7,33.1z"/>
		<path id="XMLID_52_" class="st0" d="M346.9,26.5c0,0.5-0.2,0.9-0.5,1.2c-0.3,0.3-0.8,0.5-1.2,0.5s-0.9-0.2-1.2-0.5
			c-0.3-0.3-0.5-0.8-0.5-1.2s0.2-0.9,0.5-1.2c0.3-0.3,0.8-0.5,1.2-0.5s0.9,0.2,1.2,0.5C346.7,25.7,346.9,26.1,346.9,26.5z
			 M343.6,40.9V29.2h3.1v11.6H343.6z"/>
		<path id="XMLID_50_" class="st0" d="M358.9,37.5c0,0.7-0.1,1.2-0.4,1.7s-0.6,0.8-1,1.1c-0.4,0.3-0.9,0.5-1.5,0.6
			c-0.6,0.1-1.2,0.2-1.8,0.2c-0.9,0-1.8-0.1-2.7-0.4c-0.8-0.2-1.6-0.6-2.2-1l1-2.3c0.6,0.3,1.3,0.6,1.9,0.8s1.4,0.3,2.1,0.3
			c0.6,0,1-0.1,1.2-0.2s0.3-0.4,0.3-0.7c0-0.3-0.1-0.5-0.4-0.6c-0.2-0.2-0.7-0.3-1.3-0.5c-0.7-0.2-1.3-0.4-1.9-0.6
			c-0.6-0.2-1.1-0.5-1.5-0.8c-0.4-0.3-0.7-0.6-0.9-1.1c-0.2-0.4-0.3-0.9-0.3-1.5c0-0.6,0.1-1.1,0.3-1.6c0.2-0.4,0.5-0.8,1-1.1
			c0.4-0.3,0.9-0.5,1.5-0.6s1.2-0.2,1.9-0.2c0.7,0,1.5,0.1,2.2,0.3c0.8,0.2,1.4,0.5,2.1,0.8l-1,2.4c-0.6-0.3-1.2-0.5-1.8-0.7
			c-0.6-0.2-1.1-0.2-1.6-0.2c-0.6,0-1,0.1-1.3,0.2c-0.2,0.1-0.3,0.3-0.3,0.6c0,0.1,0,0.2,0.1,0.3c0.1,0.1,0.2,0.2,0.3,0.3
			s0.4,0.2,0.7,0.3s0.7,0.3,1.3,0.4c0.5,0.2,1,0.4,1.5,0.6c0.5,0.2,0.9,0.4,1.2,0.7s0.6,0.6,0.8,1C358.8,36.4,358.9,36.9,358.9,37.5
			z"/>
		<path id="XMLID_48_" class="st0" d="M370.3,39.6c-0.3,0.3-0.7,0.6-1,0.8c-0.4,0.2-0.8,0.4-1.3,0.5c-0.5,0.1-1,0.2-1.6,0.2
			c-0.8,0-1.5-0.1-2.1-0.4c-0.7-0.3-1.2-0.7-1.7-1.2c-0.5-0.5-0.9-1.2-1.2-1.9c-0.3-0.7-0.4-1.6-0.4-2.4s0.1-1.7,0.4-2.4
			c0.3-0.7,0.7-1.4,1.2-1.9c0.5-0.5,1.1-1,1.8-1.3c0.7-0.3,1.4-0.4,2.2-0.4c1.1,0,2,0.2,2.8,0.7c0.7,0.5,1.4,1.1,1.8,1.8l-2,2
			c-0.3-0.5-0.7-0.9-1.1-1.2s-0.9-0.5-1.5-0.5c-0.7,0-1.3,0.3-1.8,0.8c-0.4,0.6-0.7,1.3-0.7,2.3c0,0.9,0.2,1.7,0.7,2.3
			c0.4,0.6,1,0.9,1.8,0.9c0.6,0,1.1-0.1,1.5-0.4c0.4-0.3,0.8-0.6,1.2-1.1l1.9,1.8C371,38.9,370.7,39.3,370.3,39.6z"/>
		<path id="XMLID_45_" class="st0" d="M383.4,35.1c0,0.9-0.1,1.7-0.4,2.4c-0.3,0.7-0.6,1.4-1.1,1.9c-0.5,0.5-1,0.9-1.7,1.2
			c-0.7,0.3-1.4,0.4-2.1,0.4s-1.5-0.1-2.1-0.4c-0.6-0.3-1.2-0.7-1.7-1.2c-0.5-0.5-0.8-1.2-1.1-1.9c-0.3-0.7-0.4-1.6-0.4-2.4
			s0.1-1.7,0.4-2.4c0.3-0.7,0.6-1.4,1.1-1.9c0.5-0.5,1-1,1.7-1.3c0.6-0.3,1.3-0.4,2.1-0.4s1.5,0.1,2.1,0.4c0.6,0.3,1.2,0.7,1.7,1.3
			c0.5,0.5,0.8,1.2,1.1,1.9C383.3,33.4,383.4,34.2,383.4,35.1z M380.3,35.1c0-0.9-0.2-1.6-0.5-2.2c-0.4-0.6-0.9-0.9-1.6-0.9
			s-1.3,0.3-1.6,0.9c-0.3,0.6-0.5,1.3-0.5,2.3s0.2,1.7,0.5,2.2c0.3,0.6,0.9,0.9,1.6,0.9c0.4,0,0.7-0.1,1-0.3
			c0.3-0.2,0.5-0.4,0.7-0.7c0.2-0.3,0.3-0.6,0.4-1C380.3,35.9,380.3,35.5,380.3,35.1z"/>
		<path id="XMLID_43_" class="st0" d="M392.8,40.9v-6.3c0-1-0.2-1.7-0.5-2.1s-0.8-0.6-1.5-0.6s-1.1,0.2-1.5,0.6
			c-0.3,0.4-0.5,1.1-0.5,2.1v6.4h-3.1V29.2h3.1V30c0.3-0.3,0.6-0.5,1.1-0.7s1-0.3,1.6-0.3c1.5,0,2.6,0.5,3.3,1.4s1,2.2,1,3.9v6.6
			H392.8z"/>
		<path id="XMLID_41_" class="st0" d="M405.2,40.4c-0.3,0.2-0.6,0.4-1,0.5c-0.4,0.1-0.9,0.2-1.4,0.2s-0.9-0.1-1.3-0.3
			c-0.4-0.2-0.7-0.4-1-0.7c-0.3-0.3-0.5-0.7-0.6-1.1c-0.1-0.4-0.2-0.9-0.2-1.4v-5.5h-1.9v-2.9h1.9v-3l3.1-1.5v4.5h2.8v2.9h-2.8v4.7
			c0,0.6,0.1,0.9,0.3,1.1c0.2,0.2,0.5,0.3,0.8,0.3c0.3,0,0.5-0.1,0.8-0.2c0.2-0.1,0.6-0.4,0.9-0.7L405.2,40.4z"/>
		<path id="XMLID_38_" class="st0" d="M411.9,26.5c0,0.5-0.2,0.9-0.5,1.2c-0.3,0.3-0.8,0.5-1.2,0.5s-0.9-0.2-1.2-0.5
			c-0.3-0.3-0.5-0.8-0.5-1.2s0.2-0.9,0.5-1.2c0.3-0.3,0.8-0.5,1.2-0.5s0.9,0.2,1.2,0.5C411.7,25.7,411.9,26.1,411.9,26.5z
			 M408.6,40.9V29.2h3.1v11.6H408.6z"/>
		<path id="XMLID_36_" class="st0" d="M421.8,40.9v-6.3c0-1-0.2-1.7-0.5-2.1s-0.8-0.6-1.5-0.6s-1.1,0.2-1.5,0.6
			c-0.3,0.4-0.5,1.1-0.5,2.1v6.4h-3.1V29.2h3.1V30c0.3-0.3,0.6-0.5,1.1-0.7s1-0.3,1.6-0.3c1.5,0,2.6,0.5,3.3,1.4s1,2.2,1,3.9v6.6
			H421.8z"/>
		<path id="XMLID_34_" class="st0" d="M434.6,40.9v-0.8c-0.3,0.3-0.6,0.5-1.1,0.7s-1,0.3-1.6,0.3c-1.5,0-2.6-0.5-3.3-1.4
			s-1-2.2-1-3.9v-6.6h3.1v6.3c0,0.5,0,0.9,0.1,1.3c0.1,0.3,0.2,0.6,0.4,0.8c0.2,0.2,0.4,0.4,0.6,0.4c0.3,0.1,0.5,0.1,0.8,0.1
			c0.6,0,1.1-0.2,1.5-0.6c0.3-0.4,0.5-1.1,0.5-2.1v-6.4h3.1v11.6H434.6z"/>
		<path id="XMLID_31_" class="st0" d="M447,40.9v-0.8c-0.3,0.3-0.7,0.5-1.1,0.7c-0.5,0.2-1,0.3-1.5,0.3c-0.5,0-1.1-0.1-1.6-0.3
			c-0.5-0.2-1-0.4-1.4-0.8c-0.4-0.3-0.7-0.8-1-1.3s-0.4-1.1-0.4-1.8c0-0.6,0.1-1.2,0.4-1.7c0.2-0.5,0.6-0.9,1-1.2
			c0.4-0.3,0.9-0.6,1.5-0.7s1.2-0.2,1.8-0.2c0.5,0,1,0,1.3,0.1s0.7,0.2,0.9,0.3V33c0-0.4-0.1-0.8-0.4-1.1s-0.7-0.4-1.3-0.4
			c-0.4,0-0.7,0-0.9,0s-0.5,0.1-0.8,0.1c-0.2,0.1-0.5,0.1-0.7,0.2c-0.2,0.1-0.5,0.2-0.8,0.4l-1.2-2.1c0.3-0.2,0.7-0.4,1-0.5
			s0.6-0.3,1-0.4s0.7-0.2,1.1-0.2c0.4-0.1,0.8-0.1,1.3-0.1c0.7,0,1.4,0.1,1.9,0.3c0.6,0.2,1.1,0.4,1.5,0.8s0.7,0.8,1,1.3
			c0.2,0.5,0.3,1.1,0.3,1.7v7.8H447z M447,36c-0.3-0.2-0.6-0.3-0.9-0.4c-0.3-0.1-0.7-0.1-1.3-0.1c-0.6,0-1,0.1-1.3,0.4
			c-0.3,0.3-0.5,0.6-0.5,1.1c0,0.4,0.1,0.8,0.4,1.1c0.3,0.3,0.7,0.5,1.4,0.5c0.5,0,0.9-0.1,1.3-0.3c0.4-0.2,0.6-0.5,0.8-0.7V36z"/>
		<path id="XMLID_29_" class="st0" d="M459.4,40.4c-0.3,0.2-0.6,0.4-1,0.5c-0.4,0.1-0.9,0.2-1.4,0.2s-0.9-0.1-1.3-0.3
			c-0.4-0.2-0.7-0.4-1-0.7c-0.3-0.3-0.5-0.7-0.6-1.1c-0.1-0.4-0.2-0.9-0.2-1.4v-5.5H452v-2.9h1.9v-3l3.1-1.5v4.5h2.8v2.9H457v4.7
			c0,0.6,0.1,0.9,0.3,1.1c0.2,0.2,0.5,0.3,0.8,0.3c0.3,0,0.5-0.1,0.8-0.2c0.2-0.1,0.6-0.4,0.9-0.7L459.4,40.4z"/>
		<path id="XMLID_26_" class="st0" d="M466.1,26.5c0,0.5-0.2,0.9-0.5,1.2c-0.3,0.3-0.8,0.5-1.2,0.5s-0.9-0.2-1.2-0.5
			c-0.3-0.3-0.5-0.8-0.5-1.2s0.2-0.9,0.5-1.2c0.3-0.3,0.8-0.5,1.2-0.5s0.9,0.2,1.2,0.5C465.9,25.7,466.1,26.1,466.1,26.5z
			 M462.8,40.9V29.2h3.1v11.6H462.8z"/>
		<path id="XMLID_23_" class="st0" d="M478.9,35.1c0,0.9-0.1,1.7-0.4,2.4c-0.3,0.7-0.6,1.4-1.1,1.9c-0.5,0.5-1,0.9-1.7,1.2
			c-0.7,0.3-1.4,0.4-2.1,0.4s-1.5-0.1-2.1-0.4c-0.6-0.3-1.2-0.7-1.7-1.2c-0.5-0.5-0.8-1.2-1.1-1.9c-0.3-0.7-0.4-1.6-0.4-2.4
			s0.1-1.7,0.4-2.4c0.3-0.7,0.6-1.4,1.1-1.9c0.5-0.5,1-1,1.7-1.3c0.6-0.3,1.3-0.4,2.1-0.4s1.5,0.1,2.1,0.4c0.6,0.3,1.2,0.7,1.7,1.3
			c0.5,0.5,0.8,1.2,1.1,1.9C478.8,33.4,478.9,34.2,478.9,35.1z M475.8,35.1c0-0.9-0.2-1.6-0.5-2.2c-0.4-0.6-0.9-0.9-1.6-0.9
			s-1.3,0.3-1.6,0.9c-0.3,0.6-0.5,1.3-0.5,2.3s0.2,1.7,0.5,2.2c0.3,0.6,0.9,0.9,1.6,0.9c0.4,0,0.7-0.1,1-0.3
			c0.3-0.2,0.5-0.4,0.7-0.7c0.2-0.3,0.3-0.6,0.4-1C475.8,35.9,475.8,35.5,475.8,35.1z"/>
		<path id="XMLID_21_" class="st0" d="M488.3,40.9v-6.3c0-1-0.2-1.7-0.5-2.1s-0.8-0.6-1.5-0.6s-1.1,0.2-1.5,0.6
			c-0.3,0.4-0.5,1.1-0.5,2.1v6.4h-3.1V29.2h3.1V30c0.3-0.3,0.6-0.5,1.1-0.7s1-0.3,1.6-0.3c1.5,0,2.6,0.5,3.3,1.4s1,2.2,1,3.9v6.6
			H488.3z"/>
		<path id="XMLID_18_" class="st0" d="M510.1,40.9l-2.8-5.6h-3.1v5.6h-3.1V25.4h7.2c0.7,0,1.4,0.1,2.1,0.3s1.2,0.5,1.7,0.9
			s0.9,0.9,1.2,1.5s0.4,1.3,0.4,2.2c0,1.2-0.2,2.1-0.7,2.9c-0.5,0.7-1.2,1.3-2.2,1.7l3,6H510.1z M510.5,30.4c0-0.7-0.2-1.2-0.6-1.5
			c-0.4-0.3-0.9-0.5-1.6-0.5h-4.1v4h4.1C509.8,32.4,510.5,31.7,510.5,30.4z"/>
		<path id="XMLID_15_" class="st0" d="M522.8,40.9v-0.8c-0.3,0.3-0.7,0.5-1.1,0.7c-0.5,0.2-1,0.3-1.5,0.3c-0.5,0-1.1-0.1-1.6-0.3
			c-0.5-0.2-1-0.4-1.4-0.8c-0.4-0.3-0.7-0.8-1-1.3s-0.4-1.1-0.4-1.8c0-0.6,0.1-1.2,0.4-1.7c0.2-0.5,0.6-0.9,1-1.2
			c0.4-0.3,0.9-0.6,1.5-0.7s1.2-0.2,1.8-0.2c0.5,0,1,0,1.3,0.1s0.7,0.2,0.9,0.3V33c0-0.4-0.1-0.8-0.4-1.1s-0.7-0.4-1.3-0.4
			c-0.4,0-0.7,0-0.9,0s-0.5,0.1-0.8,0.1c-0.2,0.1-0.5,0.1-0.7,0.2c-0.2,0.1-0.5,0.2-0.8,0.4l-1.2-2.1c0.3-0.2,0.7-0.4,1-0.5
			s0.6-0.3,1-0.4s0.7-0.2,1.1-0.2c0.4-0.1,0.8-0.1,1.3-0.1c0.7,0,1.4,0.1,1.9,0.3c0.6,0.2,1.1,0.4,1.5,0.8s0.7,0.8,1,1.3
			c0.2,0.5,0.3,1.1,0.3,1.7v7.8H522.8z M522.8,36c-0.3-0.2-0.6-0.3-0.9-0.4c-0.3-0.1-0.7-0.1-1.3-0.1c-0.6,0-1,0.1-1.3,0.4
			c-0.3,0.3-0.5,0.6-0.5,1.1c0,0.4,0.1,0.8,0.4,1.1c0.3,0.3,0.7,0.5,1.4,0.5c0.5,0,0.9-0.1,1.3-0.3c0.4-0.2,0.6-0.5,0.8-0.7V36z"/>
		<path id="XMLID_13_" class="st0" d="M535.2,40.4c-0.3,0.2-0.6,0.4-1,0.5c-0.4,0.1-0.9,0.2-1.4,0.2s-0.9-0.1-1.3-0.3
			c-0.4-0.2-0.7-0.4-1-0.7c-0.3-0.3-0.5-0.7-0.6-1.1c-0.1-0.4-0.2-0.9-0.2-1.4v-5.5h-1.9v-2.9h1.9v-3l3.1-1.5v4.5h2.8v2.9h-2.8v4.7
			c0,0.6,0.1,0.9,0.3,1.1c0.2,0.2,0.5,0.3,0.8,0.3c0.3,0,0.5-0.1,0.8-0.2c0.2-0.1,0.6-0.4,0.9-0.7L535.2,40.4z"/>
		<path id="XMLID_10_" class="st0" d="M548,35.1c0,0.2,0,0.4,0,0.6c0,0.2,0,0.3,0,0.4h-7c0,0.4,0.1,0.7,0.3,1s0.3,0.5,0.6,0.7
			c0.2,0.2,0.5,0.3,0.7,0.4s0.5,0.1,0.8,0.1c0.4,0,0.8-0.1,1.2-0.2c0.3-0.1,0.6-0.3,0.8-0.6l2.2,1.8c-0.5,0.6-1.1,1.1-1.8,1.4
			c-0.8,0.3-1.5,0.5-2.3,0.5c-0.8,0-1.6-0.1-2.3-0.4s-1.2-0.7-1.7-1.2c-0.5-0.5-0.8-1.2-1.1-1.9s-0.4-1.6-0.4-2.5
			c0-0.9,0.1-1.7,0.4-2.4c0.3-0.7,0.6-1.4,1.1-1.9c0.5-0.5,1-1,1.6-1.3c0.6-0.3,1.3-0.4,2-0.4c0.8,0,1.5,0.2,2.1,0.5
			c0.6,0.3,1.1,0.8,1.5,1.3c0.4,0.6,0.7,1.2,1,1.9C547.9,33.5,548,34.2,548,35.1z M545,33.7c0-0.3-0.1-0.5-0.2-0.8
			c-0.1-0.2-0.2-0.5-0.4-0.7c-0.2-0.2-0.4-0.4-0.6-0.5c-0.3-0.1-0.5-0.2-0.9-0.2c-0.6,0-1,0.2-1.3,0.6c-0.3,0.4-0.5,0.9-0.6,1.5H545
			z"/>
		<path id="XMLID_8_" class="st0" d="M554.1,39c0,0.3-0.1,0.5-0.2,0.8c-0.1,0.3-0.3,0.5-0.5,0.7c-0.2,0.2-0.4,0.3-0.7,0.5
			c-0.3,0.1-0.5,0.2-0.8,0.2s-0.5-0.1-0.8-0.2c-0.3-0.1-0.5-0.3-0.7-0.5c-0.2-0.2-0.3-0.4-0.5-0.7c-0.1-0.3-0.2-0.5-0.2-0.8
			s0.1-0.5,0.2-0.8c0.1-0.3,0.3-0.5,0.5-0.7c0.2-0.2,0.4-0.3,0.7-0.5c0.3-0.1,0.5-0.2,0.8-0.2s0.5,0.1,0.8,0.2
			c0.3,0.1,0.5,0.3,0.7,0.5c0.2,0.2,0.3,0.4,0.5,0.7C554,38.5,554.1,38.8,554.1,39z"/>
	</g>
</g>
<g id="XMLID_2_">
	<path id="XMLID_4_" class="st0" d="M4,34.7c0,0,3.7-8,17.5-8c13.8,0,21.5-4.8,21.5-4.8S33.1,32,23.4,32C13.8,32,8,32,4,34.7"/>
	<path id="XMLID_3_" class="st1" d="M0,42.2c0,0,3.7-8,17.5-8c13.8,0,21.5-4.8,21.5-4.8s-9.8,10.2-19.5,10.2C9.8,39.5,4,39.5,0,42.2
		"/>
</g>
</svg>
