<!-- Generator: Adobe Illustrator 22.1.0, SVG Export Plug-In  -->
<svg version="1.1"
	 xmlns="http://www.w3.org/2000/svg" xmlns:xlink="http://www.w3.org/1999/xlink" xmlns:a="http://ns.adobe.com/AdobeSVGViewerExtensions/3.0/"
	 x="0px" y="0px" width="840.3px" height="44.3px" viewBox="0 0 840.3 44.3" style="enable-background:new 0 0 840.3 44.3;"
	 xml:space="preserve">
<style type="text/css">
	.st0{fill:#532D6D;}
	.st1{fill:#266093;}
</style>
<defs>
</defs>
<g id="XMLID_4_">
	<path id="XMLID_217_" class="st0" d="M54.8,17.5V2h3.1v12.4h7.8v3.1H54.8z"/>
	<path id="XMLID_214_" class="st0" d="M77.5,11.7c0,0.2,0,0.4,0,0.6c0,0.2,0,0.3,0,0.4h-7c0,0.4,0.1,0.7,0.3,1s0.3,0.5,0.6,0.7
		c0.2,0.2,0.5,0.3,0.7,0.4s0.5,0.1,0.8,0.1c0.4,0,0.8-0.1,1.2-0.2c0.3-0.1,0.6-0.3,0.8-0.6l2.2,1.8c-0.5,0.6-1.1,1.1-1.8,1.4
		c-0.8,0.3-1.5,0.5-2.3,0.5c-0.8,0-1.6-0.1-2.3-0.4s-1.2-0.7-1.7-1.2c-0.5-0.5-0.8-1.2-1.1-1.9s-0.4-1.6-0.4-2.5
		c0-0.9,0.1-1.7,0.4-2.4c0.3-0.7,0.6-1.4,1.1-1.9c0.5-0.5,1-1,1.6-1.3c0.6-0.3,1.3-0.4,2-0.4c0.8,0,1.5,0.2,2.1,0.5
		c0.6,0.3,1.1,0.8,1.5,1.3c0.4,0.6,0.7,1.2,1,1.9C77.4,10.1,77.5,10.9,77.5,11.7z M74.5,10.4c0-0.3-0.1-0.5-0.2-0.8
		c-0.1-0.2-0.2-0.5-0.4-0.7c-0.2-0.2-0.4-0.4-0.6-0.5c-0.3-0.1-0.5-0.2-0.9-0.2c-0.6,0-1,0.2-1.3,0.6c-0.3,0.4-0.5,0.9-0.6,1.5H74.5
		z"/>
	<path id="XMLID_212_" class="st0" d="M86.3,17.5h-3.1L79,5.9h3.4l1.7,5.4c0.1,0.4,0.3,0.9,0.4,1.4s0.2,0.9,0.3,1.2
		c0.1-0.3,0.2-0.7,0.3-1.2c0.1-0.5,0.3-0.9,0.4-1.4l1.7-5.4h3.3L86.3,17.5z"/>
	<path id="XMLID_209_" class="st0" d="M102,11.7c0,0.2,0,0.4,0,0.6c0,0.2,0,0.3,0,0.4h-7c0,0.4,0.1,0.7,0.3,1s0.3,0.5,0.6,0.7
		c0.2,0.2,0.5,0.3,0.7,0.4s0.5,0.1,0.8,0.1c0.4,0,0.8-0.1,1.2-0.2c0.3-0.1,0.6-0.3,0.8-0.6l2.2,1.8c-0.5,0.6-1.1,1.1-1.8,1.4
		c-0.8,0.3-1.5,0.5-2.3,0.5c-0.8,0-1.6-0.1-2.3-0.4s-1.2-0.7-1.7-1.2c-0.5-0.5-0.8-1.2-1.1-1.9S92,12.6,92,11.7
		c0-0.9,0.1-1.7,0.4-2.4c0.3-0.7,0.6-1.4,1.1-1.9c0.5-0.5,1-1,1.6-1.3c0.6-0.3,1.3-0.4,2-0.4c0.8,0,1.5,0.2,2.1,0.5
		c0.6,0.3,1.1,0.8,1.5,1.3c0.4,0.6,0.7,1.2,1,1.9C101.9,10.1,102,10.9,102,11.7z M99.1,10.4c0-0.3-0.1-0.5-0.2-0.8
		c-0.1-0.2-0.2-0.5-0.4-0.7c-0.2-0.2-0.4-0.4-0.6-0.5c-0.3-0.1-0.5-0.2-0.9-0.2c-0.6,0-1,0.2-1.3,0.6c-0.3,0.4-0.5,0.9-0.6,1.5H99.1
		z"/>
	<path id="XMLID_207_" class="st0" d="M104.6,17.5V2.9l3.1-1.5v16.1H104.6z"/>
	<path id="XMLID_204_" class="st0" d="M128,17.5l-1.2-3.5h-5.7l-1.2,3.5h-3.3L122.5,2h3l5.9,15.5H128z M124.7,8.3
		c-0.2-0.5-0.3-0.9-0.5-1.3s-0.2-0.8-0.3-1.1c-0.1,0.3-0.2,0.7-0.3,1.1c-0.1,0.4-0.3,0.9-0.5,1.3l-1,2.8h3.5L124.7,8.3z"/>
	<path id="XMLID_202_" class="st0" d="M140.7,17.5V2h10.8v3h-7.7v2.7h4.5v3h-4.5v3.7h8v3H140.7z"/>
	<path id="XMLID_200_" class="st0" d="M160.1,4c-0.2,0-0.4-0.1-0.6-0.1c-0.5,0-0.8,0.1-0.9,0.2s-0.2,0.4-0.2,0.7v1h2v2.9h-2v8.7
		h-3.1V8.7h-1.4V5.9h1.4V4.5c0-1.1,0.3-1.9,0.9-2.3c0.6-0.5,1.4-0.7,2.5-0.7c0.8,0,1.4,0.1,1.9,0.3v2.5C160.4,4.1,160.2,4.1,160.1,4
		z"/>
	<path id="XMLID_196_" class="st0" d="M168.8,4.2c-0.2-0.1-0.3-0.1-0.5-0.2c-0.2,0-0.4-0.1-0.6-0.1c-0.5,0-0.8,0.1-0.9,0.2
		s-0.2,0.4-0.2,0.7v1h2v2.9h-2v8.7h-3.1V8.7h-1.4V5.9h1.4V4.5c0-1.1,0.3-1.9,0.9-2.3c0.6-0.5,1.4-0.7,2.5-0.7c0.8,0,1.4,0.1,1.9,0.3
		V4.2z M174.2,3.2c0,0.5-0.2,0.9-0.5,1.2s-0.8,0.5-1.2,0.5c-0.5,0-0.9-0.2-1.2-0.5s-0.5-0.8-0.5-1.2s0.2-0.9,0.5-1.2
		s0.8-0.5,1.2-0.5c0.5,0,0.9,0.2,1.2,0.5S174.2,2.7,174.2,3.2z M170.9,17.5V5.9h3.1v11.6H170.9z"/>
	<path id="XMLID_194_" class="st0" d="M185.8,16.2c-0.3,0.3-0.7,0.6-1,0.8c-0.4,0.2-0.8,0.4-1.3,0.5c-0.5,0.1-1,0.2-1.6,0.2
		c-0.8,0-1.5-0.1-2.1-0.4c-0.7-0.3-1.2-0.7-1.7-1.2c-0.5-0.5-0.9-1.2-1.2-1.9c-0.3-0.7-0.4-1.6-0.4-2.4s0.1-1.7,0.4-2.4
		c0.3-0.7,0.7-1.4,1.2-1.9c0.5-0.5,1.1-1,1.8-1.3c0.7-0.3,1.4-0.4,2.2-0.4c1.1,0,2,0.2,2.8,0.7c0.7,0.5,1.4,1.1,1.8,1.8l-2,2
		c-0.3-0.5-0.7-0.9-1.1-1.2s-0.9-0.5-1.5-0.5c-0.7,0-1.3,0.3-1.8,0.8c-0.4,0.6-0.7,1.3-0.7,2.3c0,0.9,0.2,1.7,0.7,2.3
		c0.4,0.6,1,0.9,1.8,0.9c0.6,0,1.1-0.1,1.5-0.4c0.4-0.3,0.8-0.6,1.2-1.1l1.9,1.8C186.4,15.5,186.1,15.9,185.8,16.2z"/>
	<path id="XMLID_191_" class="st0" d="M195.3,17.5v-0.8c-0.3,0.3-0.7,0.5-1.1,0.7c-0.5,0.2-1,0.3-1.5,0.3c-0.5,0-1.1-0.1-1.6-0.3
		c-0.5-0.2-1-0.4-1.4-0.8c-0.4-0.3-0.7-0.8-1-1.3s-0.4-1.1-0.4-1.8c0-0.6,0.1-1.2,0.4-1.7c0.2-0.5,0.6-0.9,1-1.2
		c0.4-0.3,0.9-0.6,1.5-0.7s1.2-0.2,1.8-0.2c0.5,0,1,0,1.3,0.1s0.7,0.2,0.9,0.3V9.6c0-0.4-0.1-0.8-0.4-1.1s-0.7-0.4-1.3-0.4
		c-0.4,0-0.7,0-0.9,0s-0.5,0.1-0.8,0.1c-0.2,0.1-0.5,0.1-0.7,0.2c-0.2,0.1-0.5,0.2-0.8,0.4l-1.2-2.1c0.3-0.2,0.7-0.4,1-0.5
		s0.6-0.3,1-0.4s0.7-0.2,1.1-0.2c0.4-0.1,0.8-0.1,1.3-0.1c0.7,0,1.4,0.1,1.9,0.3c0.6,0.2,1.1,0.4,1.5,0.8s0.7,0.8,1,1.3
		c0.2,0.5,0.3,1.1,0.3,1.7v7.8H195.3z M195.3,12.6c-0.3-0.2-0.6-0.3-0.9-0.4c-0.3-0.1-0.7-0.1-1.3-0.1c-0.6,0-1,0.1-1.3,0.4
		c-0.3,0.3-0.5,0.6-0.5,1.1c0,0.4,0.1,0.8,0.4,1.1c0.3,0.3,0.7,0.5,1.4,0.5c0.5,0,0.9-0.1,1.3-0.3c0.4-0.2,0.6-0.5,0.8-0.7V12.6z"/>
	<path id="XMLID_189_" class="st0" d="M210,16.2c-0.3,0.3-0.7,0.6-1,0.8c-0.4,0.2-0.8,0.4-1.3,0.5c-0.5,0.1-1,0.2-1.6,0.2
		c-0.8,0-1.5-0.1-2.1-0.4c-0.7-0.3-1.2-0.7-1.7-1.2c-0.5-0.5-0.9-1.2-1.2-1.9c-0.3-0.7-0.4-1.6-0.4-2.4s0.1-1.7,0.4-2.4
		c0.3-0.7,0.7-1.4,1.2-1.9c0.5-0.5,1.1-1,1.8-1.3c0.7-0.3,1.4-0.4,2.2-0.4c1.1,0,2,0.2,2.8,0.7c0.7,0.5,1.4,1.1,1.8,1.8l-2,2
		c-0.3-0.5-0.7-0.9-1.1-1.2s-0.9-0.5-1.5-0.5c-0.7,0-1.3,0.3-1.8,0.8c-0.4,0.6-0.7,1.3-0.7,2.3c0,0.9,0.2,1.7,0.7,2.3
		c0.4,0.6,1,0.9,1.8,0.9c0.6,0,1.1-0.1,1.5-0.4c0.4-0.3,0.8-0.6,1.2-1.1l1.9,1.8C210.6,15.5,210.3,15.9,210,16.2z"/>
	<path id="XMLID_187_" class="st0" d="M218.2,21.6h-3l1.5-4.1l-4.5-11.6h3.4l1.9,5.6c0.2,0.4,0.3,0.9,0.4,1.4s0.2,0.9,0.3,1.2
		c0.1-0.3,0.2-0.7,0.3-1.2s0.3-0.9,0.4-1.4l1.9-5.6h3.3L218.2,21.6z"/>
	<path id="XMLID_185_" class="st0" d="M234.2,19.5h-3L238.4,0h3L234.2,19.5z"/>
	<path id="XMLID_183_" class="st0" d="M243.5,17.5V2h10.8v3h-7.7v2.7h4.5v3h-4.5v3.7h8v3H243.5z"/>
	<path id="XMLID_181_" class="st0" d="M262.9,4c-0.2,0-0.4-0.1-0.6-0.1c-0.5,0-0.8,0.1-0.9,0.2s-0.2,0.4-0.2,0.7v1h2v2.9h-2v8.7
		h-3.1V8.7h-1.4V5.9h1.4V4.5c0-1.1,0.3-1.9,0.9-2.3c0.6-0.5,1.4-0.7,2.5-0.7c0.8,0,1.4,0.1,1.9,0.3v2.5C263.3,4.1,263.1,4.1,262.9,4
		z"/>
	<path id="XMLID_179_" class="st0" d="M271.1,4C271,4,270.8,4,270.6,4c-0.5,0-0.8,0.1-0.9,0.2s-0.2,0.4-0.2,0.7v1h2v2.9h-2v8.7h-3.1
		V8.7H265V5.9h1.4V4.5c0-1.1,0.3-1.9,0.9-2.3c0.6-0.5,1.4-0.7,2.5-0.7c0.8,0,1.4,0.1,1.9,0.3v2.5C271.5,4.1,271.3,4.1,271.1,4z"/>
	<path id="XMLID_176_" class="st0" d="M283.3,11.7c0,0.2,0,0.4,0,0.6c0,0.2,0,0.3,0,0.4h-7c0,0.4,0.1,0.7,0.3,1s0.3,0.5,0.6,0.7
		c0.2,0.2,0.5,0.3,0.7,0.4s0.5,0.1,0.8,0.1c0.4,0,0.8-0.1,1.2-0.2c0.3-0.1,0.6-0.3,0.8-0.6l2.2,1.8c-0.5,0.6-1.1,1.1-1.8,1.4
		c-0.8,0.3-1.5,0.5-2.3,0.5c-0.8,0-1.6-0.1-2.3-0.4s-1.2-0.7-1.7-1.2c-0.5-0.5-0.8-1.2-1.1-1.9s-0.4-1.6-0.4-2.5
		c0-0.9,0.1-1.7,0.4-2.4c0.3-0.7,0.6-1.4,1.1-1.9c0.5-0.5,1-1,1.6-1.3c0.6-0.3,1.3-0.4,2-0.4c0.8,0,1.5,0.2,2.1,0.5
		c0.6,0.3,1.1,0.8,1.5,1.3c0.4,0.6,0.7,1.2,1,1.9C283.2,10.1,283.3,10.9,283.3,11.7z M280.3,10.4c0-0.3-0.1-0.5-0.2-0.8
		c-0.1-0.2-0.2-0.5-0.4-0.7c-0.2-0.2-0.4-0.4-0.6-0.5c-0.3-0.1-0.5-0.2-0.9-0.2c-0.6,0-1,0.2-1.3,0.6c-0.3,0.4-0.5,0.9-0.6,1.5
		H280.3z"/>
	<path id="XMLID_174_" class="st0" d="M294.4,16.2c-0.3,0.3-0.7,0.6-1,0.8c-0.4,0.2-0.8,0.4-1.3,0.5c-0.5,0.1-1,0.2-1.6,0.2
		c-0.8,0-1.5-0.1-2.1-0.4c-0.7-0.3-1.2-0.7-1.7-1.2c-0.5-0.5-0.9-1.2-1.2-1.9c-0.3-0.7-0.4-1.6-0.4-2.4s0.1-1.7,0.4-2.4
		c0.3-0.7,0.7-1.4,1.2-1.9c0.5-0.5,1.1-1,1.8-1.3c0.7-0.3,1.4-0.4,2.2-0.4c1.1,0,2,0.2,2.8,0.7c0.7,0.5,1.4,1.1,1.8,1.8l-2,2
		c-0.3-0.5-0.7-0.9-1.1-1.2s-0.9-0.5-1.5-0.5c-0.7,0-1.3,0.3-1.8,0.8c-0.4,0.6-0.7,1.3-0.7,2.3c0,0.9,0.2,1.7,0.7,2.3
		c0.4,0.6,1,0.9,1.8,0.9c0.6,0,1.1-0.1,1.5-0.4c0.4-0.3,0.8-0.6,1.2-1.1l1.9,1.8C295.1,15.5,294.8,15.9,294.4,16.2z"/>
	<path id="XMLID_172_" class="st0" d="M304.1,17c-0.3,0.2-0.6,0.4-1,0.5c-0.4,0.1-0.9,0.2-1.4,0.2s-0.9-0.1-1.3-0.3
		c-0.4-0.2-0.7-0.4-1-0.7c-0.3-0.3-0.5-0.7-0.6-1.1c-0.1-0.4-0.2-0.9-0.2-1.4V8.7h-1.9V5.9h1.9v-3l3.1-1.5v4.5h2.8v2.9h-2.8v4.7
		c0,0.6,0.1,0.9,0.3,1.1c0.2,0.2,0.5,0.3,0.8,0.3c0.3,0,0.5-0.1,0.8-0.2c0.2-0.1,0.6-0.4,0.9-0.7L304.1,17z"/>
	<path id="XMLID_169_" class="st0" d="M310.8,3.2c0,0.5-0.2,0.9-0.5,1.2c-0.3,0.3-0.8,0.5-1.2,0.5s-0.9-0.2-1.2-0.5
		c-0.3-0.3-0.5-0.8-0.5-1.2s0.2-0.9,0.5-1.2c0.3-0.3,0.8-0.5,1.2-0.5s0.9,0.2,1.2,0.5C310.6,2.3,310.8,2.7,310.8,3.2z M307.5,17.5
		V5.9h3.1v11.6H307.5z"/>
	<path id="XMLID_167_" class="st0" d="M320,17.5h-3.1l-4.2-11.6h3.4l1.7,5.4c0.1,0.4,0.3,0.9,0.4,1.4s0.2,0.9,0.3,1.2
		c0.1-0.3,0.2-0.7,0.3-1.2c0.1-0.5,0.3-0.9,0.4-1.4l1.7-5.4h3.3L320,17.5z"/>
	<path id="XMLID_164_" class="st0" d="M335.7,11.7c0,0.2,0,0.4,0,0.6c0,0.2,0,0.3,0,0.4h-7c0,0.4,0.1,0.7,0.3,1s0.3,0.5,0.6,0.7
		c0.2,0.2,0.5,0.3,0.7,0.4s0.5,0.1,0.8,0.1c0.4,0,0.8-0.1,1.2-0.2c0.3-0.1,0.6-0.3,0.8-0.6l2.2,1.8c-0.5,0.6-1.1,1.1-1.8,1.4
		c-0.8,0.3-1.5,0.5-2.3,0.5c-0.8,0-1.6-0.1-2.3-0.4s-1.2-0.7-1.7-1.2c-0.5-0.5-0.8-1.2-1.1-1.9s-0.4-1.6-0.4-2.5
		c0-0.9,0.1-1.7,0.4-2.4c0.3-0.7,0.6-1.4,1.1-1.9c0.5-0.5,1-1,1.6-1.3c0.6-0.3,1.3-0.4,2-0.4c0.8,0,1.5,0.2,2.1,0.5
		c0.6,0.3,1.1,0.8,1.5,1.3c0.4,0.6,0.7,1.2,1,1.9C335.6,10.1,335.7,10.9,335.7,11.7z M332.8,10.4c0-0.3-0.1-0.5-0.2-0.8
		c-0.1-0.2-0.2-0.5-0.4-0.7c-0.2-0.2-0.4-0.4-0.6-0.5c-0.3-0.1-0.5-0.2-0.9-0.2c-0.6,0-1,0.2-1.3,0.6c-0.3,0.4-0.5,0.9-0.6,1.5
		H332.8z"/>
	<path id="XMLID_162_" class="st0" d="M345.2,17.5v-6.3c0-1-0.2-1.7-0.5-2.1s-0.8-0.6-1.5-0.6s-1.1,0.2-1.5,0.6
		c-0.3,0.4-0.5,1.1-0.5,2.1v6.4h-3.1V5.9h3.1v0.8c0.3-0.3,0.6-0.5,1.1-0.7s1-0.3,1.6-0.3c1.5,0,2.6,0.5,3.3,1.4s1,2.2,1,3.9v6.6
		H345.2z"/>
	<path id="XMLID_159_" class="st0" d="M360.6,11.7c0,0.2,0,0.4,0,0.6c0,0.2,0,0.3,0,0.4h-7c0,0.4,0.1,0.7,0.3,1s0.3,0.5,0.6,0.7
		c0.2,0.2,0.5,0.3,0.7,0.4s0.5,0.1,0.8,0.1c0.4,0,0.8-0.1,1.2-0.2c0.3-0.1,0.6-0.3,0.8-0.6l2.2,1.8c-0.5,0.6-1.1,1.1-1.8,1.4
		c-0.8,0.3-1.5,0.5-2.3,0.5c-0.8,0-1.6-0.1-2.3-0.4s-1.2-0.7-1.7-1.2c-0.5-0.5-0.8-1.2-1.1-1.9s-0.4-1.6-0.4-2.5
		c0-0.9,0.1-1.7,0.4-2.4c0.3-0.7,0.6-1.4,1.1-1.9c0.5-0.5,1-1,1.6-1.3c0.6-0.3,1.3-0.4,2-0.4c0.8,0,1.5,0.2,2.1,0.5
		c0.6,0.3,1.1,0.8,1.5,1.3c0.4,0.6,0.7,1.2,1,1.9C360.5,10.1,360.6,10.9,360.6,11.7z M357.6,10.4c0-0.3-0.1-0.5-0.2-0.8
		c-0.1-0.2-0.2-0.5-0.4-0.7c-0.2-0.2-0.4-0.4-0.6-0.5c-0.3-0.1-0.5-0.2-0.9-0.2c-0.6,0-1,0.2-1.3,0.6c-0.3,0.4-0.5,0.9-0.6,1.5
		H357.6z"/>
	<path id="XMLID_157_" class="st0" d="M372.2,14.1c0,0.7-0.1,1.2-0.4,1.7s-0.6,0.8-1,1.1c-0.4,0.3-0.9,0.5-1.5,0.6
		c-0.6,0.1-1.2,0.2-1.8,0.2c-0.9,0-1.8-0.1-2.7-0.4c-0.8-0.2-1.6-0.6-2.2-1l1-2.3c0.6,0.3,1.3,0.6,1.9,0.8s1.4,0.3,2.1,0.3
		c0.6,0,1-0.1,1.2-0.2s0.3-0.4,0.3-0.7c0-0.3-0.1-0.5-0.4-0.6c-0.2-0.2-0.7-0.3-1.3-0.5c-0.7-0.2-1.3-0.4-1.9-0.6
		c-0.6-0.2-1.1-0.5-1.5-0.8c-0.4-0.3-0.7-0.6-0.9-1.1c-0.2-0.4-0.3-0.9-0.3-1.5c0-0.6,0.1-1.1,0.3-1.6c0.2-0.4,0.5-0.8,1-1.1
		c0.4-0.3,0.9-0.5,1.5-0.6s1.2-0.2,1.9-0.2c0.7,0,1.5,0.1,2.2,0.3c0.8,0.2,1.4,0.5,2.1,0.8l-1,2.4c-0.6-0.3-1.2-0.5-1.8-0.7
		c-0.6-0.2-1.1-0.2-1.6-0.2c-0.6,0-1,0.1-1.3,0.2c-0.2,0.1-0.3,0.3-0.3,0.6c0,0.1,0,0.2,0.1,0.3c0.1,0.1,0.2,0.2,0.3,0.3
		s0.4,0.2,0.7,0.3s0.7,0.3,1.3,0.4c0.5,0.2,1,0.4,1.5,0.6c0.5,0.2,0.9,0.4,1.2,0.7s0.6,0.6,0.8,1C372.1,13,372.2,13.5,372.2,14.1z"
		/>
	<path id="XMLID_155_" class="st0" d="M384.1,14.1c0,0.7-0.1,1.2-0.4,1.7s-0.6,0.8-1,1.1c-0.4,0.3-0.9,0.5-1.5,0.6
		c-0.6,0.1-1.2,0.2-1.8,0.2c-0.9,0-1.8-0.1-2.7-0.4c-0.8-0.2-1.6-0.6-2.2-1l1-2.3c0.6,0.3,1.3,0.6,1.9,0.8s1.4,0.3,2.1,0.3
		c0.6,0,1-0.1,1.2-0.2s0.3-0.4,0.3-0.7c0-0.3-0.1-0.5-0.4-0.6c-0.2-0.2-0.7-0.3-1.3-0.5c-0.7-0.2-1.3-0.4-1.9-0.6
		c-0.6-0.2-1.1-0.5-1.5-0.8c-0.4-0.3-0.7-0.6-0.9-1.1c-0.2-0.4-0.3-0.9-0.3-1.5c0-0.6,0.1-1.1,0.3-1.6c0.2-0.4,0.5-0.8,1-1.1
		c0.4-0.3,0.9-0.5,1.5-0.6s1.2-0.2,1.9-0.2c0.7,0,1.5,0.1,2.2,0.3c0.8,0.2,1.4,0.5,2.1,0.8l-1,2.4c-0.6-0.3-1.2-0.5-1.8-0.7
		c-0.6-0.2-1.1-0.2-1.6-0.2c-0.6,0-1,0.1-1.3,0.2c-0.2,0.1-0.3,0.3-0.3,0.6c0,0.1,0,0.2,0.1,0.3c0.1,0.1,0.2,0.2,0.3,0.3
		s0.4,0.2,0.7,0.3s0.7,0.3,1.3,0.4c0.5,0.2,1,0.4,1.5,0.6c0.5,0.2,0.9,0.4,1.2,0.7s0.6,0.6,0.8,1C384,13,384.1,13.5,384.1,14.1z"/>
	<path id="XMLID_153_" class="st0" d="M393.7,17.5V2h10.8v3h-7.7v2.7h4.5v3h-4.5v3.7h8v3H393.7z"/>
	<path id="XMLID_151_" class="st0" d="M414,17.5h-3.1l-4.2-11.6h3.4l1.7,5.4c0.1,0.4,0.3,0.9,0.4,1.4s0.2,0.9,0.3,1.2
		c0.1-0.3,0.2-0.7,0.3-1.2c0.1-0.5,0.3-0.9,0.4-1.4l1.7-5.4h3.3L414,17.5z"/>
	<path id="XMLID_148_" class="st0" d="M423.6,3.2c0,0.5-0.2,0.9-0.5,1.2c-0.3,0.3-0.8,0.5-1.2,0.5s-0.9-0.2-1.2-0.5
		c-0.3-0.3-0.5-0.8-0.5-1.2s0.2-0.9,0.5-1.2c0.3-0.3,0.8-0.5,1.2-0.5s0.9,0.2,1.2,0.5C423.5,2.3,423.6,2.7,423.6,3.2z M420.4,17.5
		V5.9h3.1v11.6H420.4z"/>
	<path id="XMLID_145_" class="st0" d="M432.9,17.5v-0.7c-0.3,0.3-0.6,0.5-1,0.7c-0.4,0.2-0.9,0.3-1.4,0.3c-0.6,0-1.2-0.1-1.7-0.4
		c-0.5-0.2-1-0.6-1.4-1.1c-0.4-0.5-0.7-1.2-1-1.9c-0.2-0.8-0.4-1.7-0.4-2.8c0-0.9,0.1-1.7,0.3-2.4c0.2-0.7,0.5-1.3,0.9-1.9
		c0.4-0.5,0.9-0.9,1.4-1.2s1.2-0.4,1.9-0.4c0.5,0,1,0.1,1.4,0.3c0.4,0.2,0.8,0.4,1.1,0.6V2.9l3.1-1.5v16.1H432.9z M432.9,9.5
		c-0.5-0.7-1.2-1-2.1-1c-1.2,0-1.8,1-1.8,3c0,1.2,0.2,2.1,0.5,2.6c0.4,0.5,0.8,0.8,1.5,0.8c0.5,0,0.8-0.1,1.1-0.3
		c0.3-0.2,0.5-0.4,0.8-0.7V9.5z"/>
	<path id="XMLID_142_" class="st0" d="M448.4,11.7c0,0.2,0,0.4,0,0.6c0,0.2,0,0.3,0,0.4h-7c0,0.4,0.1,0.7,0.3,1s0.3,0.5,0.6,0.7
		c0.2,0.2,0.5,0.3,0.7,0.4s0.5,0.1,0.8,0.1c0.4,0,0.8-0.1,1.2-0.2c0.3-0.1,0.6-0.3,0.8-0.6l2.2,1.8c-0.5,0.6-1.1,1.1-1.8,1.4
		c-0.8,0.3-1.5,0.5-2.3,0.5c-0.8,0-1.6-0.1-2.3-0.4s-1.2-0.7-1.7-1.2c-0.5-0.5-0.8-1.2-1.1-1.9s-0.4-1.6-0.4-2.5
		c0-0.9,0.1-1.7,0.4-2.4c0.3-0.7,0.6-1.4,1.1-1.9c0.5-0.5,1-1,1.6-1.3c0.6-0.3,1.3-0.4,2-0.4c0.8,0,1.5,0.2,2.1,0.5
		c0.6,0.3,1.1,0.8,1.5,1.3c0.4,0.6,0.7,1.2,1,1.9C448.3,10.1,448.4,10.9,448.4,11.7z M445.5,10.4c0-0.3-0.1-0.5-0.2-0.8
		c-0.1-0.2-0.2-0.5-0.4-0.7c-0.2-0.2-0.4-0.4-0.6-0.5c-0.3-0.1-0.5-0.2-0.9-0.2c-0.6,0-1,0.2-1.3,0.6c-0.3,0.4-0.5,0.9-0.6,1.5
		H445.5z"/>
	<path id="XMLID_140_" class="st0" d="M457.9,17.5v-6.3c0-1-0.2-1.7-0.5-2.1s-0.8-0.6-1.5-0.6s-1.1,0.2-1.5,0.6
		c-0.3,0.4-0.5,1.1-0.5,2.1v6.4h-3.1V5.9h3.1v0.8c0.3-0.3,0.6-0.5,1.1-0.7s1-0.3,1.6-0.3c1.5,0,2.6,0.5,3.3,1.4s1,2.2,1,3.9v6.6
		H457.9z"/>
	<path id="XMLID_138_" class="st0" d="M472.5,16.2c-0.3,0.3-0.7,0.6-1,0.8c-0.4,0.2-0.8,0.4-1.3,0.5c-0.5,0.1-1,0.2-1.6,0.2
		c-0.8,0-1.5-0.1-2.1-0.4c-0.7-0.3-1.2-0.7-1.7-1.2c-0.5-0.5-0.9-1.2-1.2-1.9c-0.3-0.7-0.4-1.6-0.4-2.4s0.1-1.7,0.4-2.4
		c0.3-0.7,0.7-1.4,1.2-1.9c0.5-0.5,1.1-1,1.8-1.3c0.7-0.3,1.4-0.4,2.2-0.4c1.1,0,2,0.2,2.8,0.7c0.7,0.5,1.4,1.1,1.8,1.8l-2,2
		c-0.3-0.5-0.7-0.9-1.1-1.2s-0.9-0.5-1.5-0.5c-0.7,0-1.3,0.3-1.8,0.8c-0.4,0.6-0.7,1.3-0.7,2.3c0,0.9,0.2,1.7,0.7,2.3
		c0.4,0.6,1,0.9,1.8,0.9c0.6,0,1.1-0.1,1.5-0.4c0.4-0.3,0.8-0.6,1.2-1.1l1.9,1.8C473.1,15.5,472.8,15.9,472.5,16.2z"/>
	<path id="XMLID_135_" class="st0" d="M485.2,11.7c0,0.2,0,0.4,0,0.6c0,0.2,0,0.3,0,0.4h-7c0,0.4,0.1,0.7,0.3,1s0.3,0.5,0.6,0.7
		c0.2,0.2,0.5,0.3,0.7,0.4s0.5,0.1,0.8,0.1c0.4,0,0.8-0.1,1.2-0.2c0.3-0.1,0.6-0.3,0.8-0.6l2.2,1.8c-0.5,0.6-1.1,1.1-1.8,1.4
		c-0.8,0.3-1.5,0.5-2.3,0.5c-0.8,0-1.6-0.1-2.3-0.4s-1.2-0.7-1.7-1.2c-0.5-0.5-0.8-1.2-1.1-1.9s-0.4-1.6-0.4-2.5
		c0-0.9,0.1-1.7,0.4-2.4c0.3-0.7,0.6-1.4,1.1-1.9c0.5-0.5,1-1,1.6-1.3c0.6-0.3,1.3-0.4,2-0.4c0.8,0,1.5,0.2,2.1,0.5
		c0.6,0.3,1.1,0.8,1.5,1.3c0.4,0.6,0.7,1.2,1,1.9C485,10.1,485.2,10.9,485.2,11.7z M482.2,10.4c0-0.3-0.1-0.5-0.2-0.8
		c-0.1-0.2-0.2-0.5-0.4-0.7c-0.2-0.2-0.4-0.4-0.6-0.5c-0.3-0.1-0.5-0.2-0.9-0.2c-0.6,0-1,0.2-1.3,0.6c-0.3,0.4-0.5,0.9-0.6,1.5
		H482.2z"/>
	<path id="XMLID_132_" class="st0" d="M500.4,17.5v-0.8c-0.3,0.3-0.7,0.5-1.1,0.7c-0.5,0.2-1,0.3-1.5,0.3c-0.5,0-1.1-0.1-1.6-0.3
		c-0.5-0.2-1-0.4-1.4-0.8c-0.4-0.3-0.7-0.8-1-1.3s-0.4-1.1-0.4-1.8c0-0.6,0.1-1.2,0.4-1.7c0.2-0.5,0.6-0.9,1-1.2
		c0.4-0.3,0.9-0.6,1.5-0.7s1.2-0.2,1.8-0.2c0.5,0,1,0,1.3,0.1s0.7,0.2,0.9,0.3V9.6c0-0.4-0.1-0.8-0.4-1.1s-0.7-0.4-1.3-0.4
		c-0.4,0-0.7,0-0.9,0s-0.5,0.1-0.8,0.1c-0.2,0.1-0.5,0.1-0.7,0.2c-0.2,0.1-0.5,0.2-0.8,0.4l-1.2-2.1c0.3-0.2,0.7-0.4,1-0.5
		s0.6-0.3,1-0.4s0.7-0.2,1.1-0.2c0.4-0.1,0.8-0.1,1.3-0.1c0.7,0,1.4,0.1,1.9,0.3c0.6,0.2,1.1,0.4,1.5,0.8s0.7,0.8,1,1.3
		c0.2,0.5,0.3,1.1,0.3,1.7v7.8H500.4z M500.4,12.6c-0.3-0.2-0.6-0.3-0.9-0.4c-0.3-0.1-0.7-0.1-1.3-0.1c-0.6,0-1,0.1-1.3,0.4
		c-0.3,0.3-0.5,0.6-0.5,1.1c0,0.4,0.1,0.8,0.4,1.1c0.3,0.3,0.7,0.5,1.4,0.5c0.5,0,0.9-0.1,1.3-0.3c0.4-0.2,0.6-0.5,0.8-0.7V12.6z"/>
	<path id="XMLID_130_" class="st0" d="M515.5,14.1c0,0.7-0.1,1.2-0.4,1.7s-0.6,0.8-1,1.1c-0.4,0.3-0.9,0.5-1.5,0.6
		c-0.6,0.1-1.2,0.2-1.8,0.2c-0.9,0-1.8-0.1-2.7-0.4c-0.8-0.2-1.6-0.6-2.2-1l1-2.3c0.6,0.3,1.3,0.6,1.9,0.8s1.4,0.3,2.1,0.3
		c0.6,0,1-0.1,1.2-0.2s0.3-0.4,0.3-0.7c0-0.3-0.1-0.5-0.4-0.6c-0.2-0.2-0.7-0.3-1.3-0.5c-0.7-0.2-1.3-0.4-1.9-0.6
		c-0.6-0.2-1.1-0.5-1.5-0.8c-0.4-0.3-0.7-0.6-0.9-1.1c-0.2-0.4-0.3-0.9-0.3-1.5c0-0.6,0.1-1.1,0.3-1.6c0.2-0.4,0.5-0.8,1-1.1
		c0.4-0.3,0.9-0.5,1.5-0.6s1.2-0.2,1.9-0.2c0.7,0,1.5,0.1,2.2,0.3c0.8,0.2,1.4,0.5,2.1,0.8l-1,2.4c-0.6-0.3-1.2-0.5-1.8-0.7
		c-0.6-0.2-1.1-0.2-1.6-0.2c-0.6,0-1,0.1-1.3,0.2c-0.2,0.1-0.3,0.3-0.3,0.6c0,0.1,0,0.2,0.1,0.3c0.1,0.1,0.2,0.2,0.3,0.3
		s0.4,0.2,0.7,0.3s0.7,0.3,1.3,0.4c0.5,0.2,1,0.4,1.5,0.6c0.5,0.2,0.9,0.4,1.2,0.7s0.6,0.6,0.8,1C515.4,13,515.5,13.5,515.5,14.1z"
		/>
	<path id="XMLID_128_" class="st0" d="M525.4,17.5V2h3.1v15.5H525.4z"/>
	<path id="XMLID_126_" class="st0" d="M539.2,17.5v-6.3c0-1-0.2-1.7-0.5-2.1s-0.8-0.6-1.5-0.6s-1.1,0.2-1.5,0.6
		c-0.3,0.4-0.5,1.1-0.5,2.1v6.4h-3.1V5.9h3.1v0.8c0.3-0.3,0.6-0.5,1.1-0.7s1-0.3,1.6-0.3c1.5,0,2.6,0.5,3.3,1.4s1,2.2,1,3.9v6.6
		H539.2z"/>
	<path id="XMLID_123_" class="st0" d="M548.5,3.2c0,0.5-0.2,0.9-0.5,1.2c-0.3,0.3-0.8,0.5-1.2,0.5s-0.9-0.2-1.2-0.5
		C545.2,4,545,3.6,545,3.2s0.2-0.9,0.5-1.2c0.3-0.3,0.8-0.5,1.2-0.5s0.9,0.2,1.2,0.5C548.3,2.3,548.5,2.7,548.5,3.2z M545.2,17.5
		V5.9h3.1v11.6H545.2z"/>
	<path id="XMLID_121_" class="st0" d="M557.8,17c-0.3,0.2-0.6,0.4-1,0.5c-0.4,0.1-0.9,0.2-1.4,0.2s-0.9-0.1-1.3-0.3
		c-0.4-0.2-0.7-0.4-1-0.7c-0.3-0.3-0.5-0.7-0.6-1.1c-0.1-0.4-0.2-0.9-0.2-1.4V8.7h-1.9V5.9h1.9v-3l3.1-1.5v4.5h2.8v2.9h-2.8v4.7
		c0,0.6,0.1,0.9,0.3,1.1c0.2,0.2,0.5,0.3,0.8,0.3c0.3,0,0.5-0.1,0.8-0.2c0.2-0.1,0.6-0.4,0.9-0.7L557.8,17z"/>
	<path id="XMLID_118_" class="st0" d="M564.5,3.2c0,0.5-0.2,0.9-0.5,1.2c-0.3,0.3-0.8,0.5-1.2,0.5s-0.9-0.2-1.2-0.5
		C561.2,4,561,3.6,561,3.2s0.2-0.9,0.5-1.2c0.3-0.3,0.8-0.5,1.2-0.5s0.9,0.2,1.2,0.5C564.3,2.3,564.5,2.7,564.5,3.2z M561.2,17.5
		V5.9h3.1v11.6H561.2z"/>
	<path id="XMLID_115_" class="st0" d="M573.8,17.5v-0.8c-0.3,0.3-0.7,0.5-1.1,0.7c-0.5,0.2-1,0.3-1.5,0.3c-0.5,0-1.1-0.1-1.6-0.3
		c-0.5-0.2-1-0.4-1.4-0.8c-0.4-0.3-0.7-0.8-1-1.3s-0.4-1.1-0.4-1.8c0-0.6,0.1-1.2,0.4-1.7c0.2-0.5,0.6-0.9,1-1.2
		c0.4-0.3,0.9-0.6,1.5-0.7s1.2-0.2,1.8-0.2c0.5,0,1,0,1.3,0.1s0.7,0.2,0.9,0.3V9.6c0-0.4-0.1-0.8-0.4-1.1s-0.7-0.4-1.3-0.4
		c-0.4,0-0.7,0-0.9,0s-0.5,0.1-0.8,0.1c-0.2,0.1-0.5,0.1-0.7,0.2c-0.2,0.1-0.5,0.2-0.8,0.4l-1.2-2.1c0.3-0.2,0.7-0.4,1-0.5
		s0.6-0.3,1-0.4s0.7-0.2,1.1-0.2c0.4-0.1,0.8-0.1,1.3-0.1c0.7,0,1.4,0.1,1.9,0.3c0.6,0.2,1.1,0.4,1.5,0.8s0.7,0.8,1,1.3
		c0.2,0.5,0.3,1.1,0.3,1.7v7.8H573.8z M573.8,12.6c-0.3-0.2-0.6-0.3-0.9-0.4c-0.3-0.1-0.7-0.1-1.3-0.1c-0.6,0-1,0.1-1.3,0.4
		c-0.3,0.3-0.5,0.6-0.5,1.1c0,0.4,0.1,0.8,0.4,1.1c0.3,0.3,0.7,0.5,1.4,0.5c0.5,0,0.9-0.1,1.3-0.3c0.4-0.2,0.6-0.5,0.8-0.7V12.6z"/>
	<path id="XMLID_113_" class="st0" d="M579.8,17.5V2.9l3.1-1.5v16.1H579.8z"/>
	<path id="XMLID_111_" class="st0" d="M604.3,17.5v-5.7c0-0.2,0-0.5,0-0.8c0-0.3,0-0.7,0-1c0-0.3,0-0.7,0-1c0-0.3,0-0.5,0-0.7
		c-0.1,0.3-0.3,0.7-0.5,1.2s-0.4,1-0.6,1.4l-3.1,6.9L597,11c-0.2-0.4-0.4-0.9-0.6-1.4c-0.2-0.5-0.4-0.9-0.5-1.2c0,0.1,0,0.4,0,0.7
		c0,0.3,0,0.6,0,1c0,0.3,0,0.7,0,1c0,0.3,0,0.6,0,0.8v5.7h-3.1V2h3l3.2,7c0.1,0.2,0.2,0.5,0.3,0.7c0.1,0.2,0.2,0.5,0.3,0.7
		c0.1,0.2,0.2,0.5,0.3,0.7c0.1,0.2,0.1,0.4,0.2,0.5c0.1-0.3,0.3-0.7,0.4-1.2c0.2-0.5,0.4-1,0.6-1.4l3.1-7h3.1v15.5H604.3z"/>
	<path id="XMLID_108_" class="st0" d="M620.8,11.7c0,0.9-0.1,1.7-0.4,2.4c-0.3,0.7-0.6,1.4-1.1,1.9c-0.5,0.5-1,0.9-1.7,1.2
		c-0.7,0.3-1.4,0.4-2.1,0.4s-1.5-0.1-2.1-0.4c-0.6-0.3-1.2-0.7-1.7-1.2c-0.5-0.5-0.8-1.2-1.1-1.9c-0.3-0.7-0.4-1.6-0.4-2.4
		s0.1-1.7,0.4-2.4c0.3-0.7,0.6-1.4,1.1-1.9c0.5-0.5,1-1,1.7-1.3c0.6-0.3,1.3-0.4,2.1-0.4s1.5,0.1,2.1,0.4c0.6,0.3,1.2,0.7,1.7,1.3
		c0.5,0.5,0.8,1.2,1.1,1.9C620.6,10,620.8,10.8,620.8,11.7z M617.7,11.7c0-0.9-0.2-1.6-0.5-2.2c-0.4-0.6-0.9-0.9-1.6-0.9
		s-1.3,0.3-1.6,0.9c-0.3,0.6-0.5,1.3-0.5,2.3s0.2,1.7,0.5,2.2c0.3,0.6,0.9,0.9,1.6,0.9c0.4,0,0.7-0.1,1-0.3c0.3-0.2,0.5-0.4,0.7-0.7
		c0.2-0.3,0.3-0.6,0.4-1C617.6,12.5,617.7,12.1,617.7,11.7z"/>
	<path id="XMLID_106_" class="st0" d="M630.2,17.5v-6.3c0-1-0.2-1.7-0.5-2.1s-0.8-0.6-1.5-0.6s-1.1,0.2-1.5,0.6
		c-0.3,0.4-0.5,1.1-0.5,2.1v6.4h-3.1V5.9h3.1v0.8c0.3-0.3,0.6-0.5,1.1-0.7s1-0.3,1.6-0.3c1.5,0,2.6,0.5,3.3,1.4s1,2.2,1,3.9v6.6
		H630.2z"/>
	<path id="XMLID_103_" class="st0" d="M646,11.7c0,0.9-0.1,1.7-0.4,2.4c-0.3,0.7-0.6,1.4-1.1,1.9c-0.5,0.5-1,0.9-1.7,1.2
		c-0.7,0.3-1.4,0.4-2.1,0.4s-1.5-0.1-2.1-0.4c-0.6-0.3-1.2-0.7-1.7-1.2c-0.5-0.5-0.8-1.2-1.1-1.9c-0.3-0.7-0.4-1.6-0.4-2.4
		s0.1-1.7,0.4-2.4c0.3-0.7,0.6-1.4,1.1-1.9c0.5-0.5,1-1,1.7-1.3c0.6-0.3,1.3-0.4,2.1-0.4s1.5,0.1,2.1,0.4c0.6,0.3,1.2,0.7,1.7,1.3
		c0.5,0.5,0.8,1.2,1.1,1.9C645.9,10,646,10.8,646,11.7z M642.9,11.7c0-0.9-0.2-1.6-0.5-2.2c-0.4-0.6-0.9-0.9-1.6-0.9
		s-1.3,0.3-1.6,0.9c-0.3,0.6-0.5,1.3-0.5,2.3s0.2,1.7,0.5,2.2c0.3,0.6,0.9,0.9,1.6,0.9c0.4,0,0.7-0.1,1-0.3c0.3-0.2,0.5-0.4,0.7-0.7
		c0.2-0.3,0.3-0.6,0.4-1C642.8,12.5,642.9,12.1,642.9,11.7z"/>
	<path id="XMLID_101_" class="st0" d="M654.9,17c-0.3,0.2-0.6,0.4-1,0.5c-0.4,0.1-0.9,0.2-1.4,0.2s-0.9-0.1-1.3-0.3
		c-0.4-0.2-0.7-0.4-1-0.7c-0.3-0.3-0.5-0.7-0.6-1.1c-0.1-0.4-0.2-0.9-0.2-1.4V8.7h-1.9V5.9h1.9v-3l3.1-1.5v4.5h2.8v2.9h-2.8v4.7
		c0,0.6,0.1,0.9,0.3,1.1c0.2,0.2,0.5,0.3,0.8,0.3c0.3,0,0.5-0.1,0.8-0.2c0.2-0.1,0.6-0.4,0.9-0.7L654.9,17z"/>
	<path id="XMLID_99_" class="st0" d="M665.2,17.5v-6.3c0-1-0.2-1.7-0.5-2.1s-0.8-0.6-1.5-0.6s-1.1,0.2-1.5,0.6
		c-0.3,0.4-0.5,1.1-0.5,2.1v6.4h-3.1V2.9l3.1-1.5v5.3c0.3-0.3,0.6-0.5,1.1-0.7s1-0.3,1.6-0.3c1.5,0,2.6,0.5,3.3,1.4s1,2.2,1,3.9v6.6
		H665.2z"/>
	<path id="XMLID_96_" class="st0" d="M680.6,11.7c0,0.2,0,0.4,0,0.6c0,0.2,0,0.3,0,0.4h-7c0,0.4,0.1,0.7,0.3,1s0.3,0.5,0.6,0.7
		c0.2,0.2,0.5,0.3,0.7,0.4s0.5,0.1,0.8,0.1c0.4,0,0.8-0.1,1.2-0.2c0.3-0.1,0.6-0.3,0.8-0.6l2.2,1.8c-0.5,0.6-1.1,1.1-1.8,1.4
		c-0.8,0.3-1.5,0.5-2.3,0.5c-0.8,0-1.6-0.1-2.3-0.4s-1.2-0.7-1.7-1.2c-0.5-0.5-0.8-1.2-1.1-1.9s-0.4-1.6-0.4-2.5
		c0-0.9,0.1-1.7,0.4-2.4c0.3-0.7,0.6-1.4,1.1-1.9c0.5-0.5,1-1,1.6-1.3c0.6-0.3,1.3-0.4,2-0.4c0.8,0,1.5,0.2,2.1,0.5
		c0.6,0.3,1.1,0.8,1.5,1.3c0.4,0.6,0.7,1.2,1,1.9C680.4,10.1,680.6,10.9,680.6,11.7z M677.6,10.4c0-0.3-0.1-0.5-0.2-0.8
		c-0.1-0.2-0.2-0.5-0.4-0.7c-0.2-0.2-0.4-0.4-0.6-0.5c-0.3-0.1-0.5-0.2-0.9-0.2c-0.6,0-1,0.2-1.3,0.6c-0.3,0.4-0.5,0.9-0.6,1.5
		H677.6z"/>
	<path id="XMLID_94_" class="st0" d="M689.8,9.4c-0.3-0.2-0.5-0.4-0.8-0.5c-0.3-0.1-0.6-0.2-1-0.2c-0.3,0-0.6,0-0.8,0.1
		c-0.2,0.1-0.5,0.2-0.6,0.4c-0.2,0.2-0.3,0.5-0.4,0.8c-0.1,0.3-0.1,0.7-0.1,1.2v6.3H683V5.9h3.1v0.8c0.3-0.3,0.6-0.5,1-0.7
		c0.4-0.2,0.9-0.3,1.4-0.3c0.5,0,0.9,0.1,1.3,0.3c0.4,0.2,0.6,0.4,0.9,0.6L689.8,9.4z"/>
	<path id="XMLID_91_" class="st0" d="M698.9,17.5v-0.8c-0.3,0.3-0.7,0.5-1.1,0.7c-0.5,0.2-1,0.3-1.5,0.3c-0.5,0-1.1-0.1-1.6-0.3
		c-0.5-0.2-1-0.4-1.4-0.8c-0.4-0.3-0.7-0.8-1-1.3s-0.4-1.1-0.4-1.8c0-0.6,0.1-1.2,0.4-1.7c0.2-0.5,0.6-0.9,1-1.2
		c0.4-0.3,0.9-0.6,1.5-0.7s1.2-0.2,1.8-0.2c0.5,0,1,0,1.3,0.1s0.7,0.2,0.9,0.3V9.6c0-0.4-0.1-0.8-0.4-1.1s-0.7-0.4-1.3-0.4
		c-0.4,0-0.7,0-0.9,0s-0.5,0.1-0.8,0.1c-0.2,0.1-0.5,0.1-0.7,0.2c-0.2,0.1-0.5,0.2-0.8,0.4l-1.2-2.1c0.3-0.2,0.7-0.4,1-0.5
		s0.6-0.3,1-0.4s0.7-0.2,1.1-0.2c0.4-0.1,0.8-0.1,1.3-0.1c0.7,0,1.4,0.1,1.9,0.3c0.6,0.2,1.1,0.4,1.5,0.8s0.7,0.8,1,1.3
		c0.2,0.5,0.3,1.1,0.3,1.7v7.8H698.9z M698.9,12.6c-0.3-0.2-0.6-0.3-0.9-0.4c-0.3-0.1-0.7-0.1-1.3-0.1c-0.6,0-1,0.1-1.3,0.4
		c-0.3,0.3-0.5,0.6-0.5,1.1c0,0.4,0.1,0.8,0.4,1.1c0.3,0.3,0.7,0.5,1.4,0.5c0.5,0,0.9-0.1,1.3-0.3c0.4-0.2,0.6-0.5,0.8-0.7V12.6z"/>
	<path id="XMLID_88_" class="st0" d="M714.8,11.8c0,0.9-0.1,1.7-0.3,2.4c-0.2,0.7-0.5,1.3-0.9,1.9c-0.4,0.5-0.9,0.9-1.4,1.2
		c-0.6,0.3-1.2,0.4-1.9,0.4c-0.5,0-1-0.1-1.4-0.3c-0.4-0.2-0.8-0.4-1.1-0.6v3.4l-3.1,1.5V5.9h3.1v0.7c0.3-0.3,0.6-0.5,1-0.7
		c0.4-0.2,0.9-0.3,1.4-0.3c0.6,0,1.2,0.1,1.7,0.4c0.5,0.2,1,0.6,1.4,1.1c0.4,0.5,0.7,1.2,1,1.9C714.7,9.8,714.8,10.7,714.8,11.8z
		 M711.7,11.9c0-1.2-0.2-2.1-0.5-2.6c-0.4-0.5-0.8-0.8-1.5-0.8c-0.5,0-0.8,0.1-1.1,0.3c-0.3,0.2-0.5,0.4-0.8,0.7v4.4
		c0.5,0.7,1.2,1,2.1,1C711.1,14.9,711.7,13.9,711.7,11.9z"/>
	<path id="XMLID_86_" class="st0" d="M722.3,21.6h-3l1.5-4.1l-4.5-11.6h3.4l1.9,5.6c0.2,0.4,0.3,0.9,0.4,1.4s0.2,0.9,0.3,1.2
		c0.1-0.3,0.2-0.7,0.3-1.2s0.3-0.9,0.4-1.4l1.9-5.6h3.3L722.3,21.6z"/>
	<path id="XMLID_84_" class="st0" d="M742.2,4c-0.2,0-0.4-0.1-0.6-0.1c-0.5,0-0.8,0.1-0.9,0.2s-0.2,0.4-0.2,0.7v1h2v2.9h-2v8.7h-3.1
		V8.7h-1.4V5.9h1.4V4.5c0-1.1,0.3-1.9,0.9-2.3c0.6-0.5,1.4-0.7,2.5-0.7c0.8,0,1.4,0.1,1.9,0.3v2.5C742.6,4.1,742.4,4.1,742.2,4z"/>
	<path id="XMLID_81_" class="st0" d="M754.8,11.7c0,0.9-0.1,1.7-0.4,2.4c-0.3,0.7-0.6,1.4-1.1,1.9c-0.5,0.5-1,0.9-1.7,1.2
		c-0.7,0.3-1.4,0.4-2.1,0.4s-1.5-0.1-2.1-0.4c-0.6-0.3-1.2-0.7-1.7-1.2c-0.5-0.5-0.8-1.2-1.1-1.9c-0.3-0.7-0.4-1.6-0.4-2.4
		s0.1-1.7,0.4-2.4c0.3-0.7,0.6-1.4,1.1-1.9c0.5-0.5,1-1,1.7-1.3c0.6-0.3,1.3-0.4,2.1-0.4s1.5,0.1,2.1,0.4c0.6,0.3,1.2,0.7,1.7,1.3
		c0.5,0.5,0.8,1.2,1.1,1.9C754.7,10,754.8,10.8,754.8,11.7z M751.7,11.7c0-0.9-0.2-1.6-0.5-2.2c-0.4-0.6-0.9-0.9-1.6-0.9
		s-1.3,0.3-1.6,0.9c-0.3,0.6-0.5,1.3-0.5,2.3s0.2,1.7,0.5,2.2c0.3,0.6,0.9,0.9,1.6,0.9c0.4,0,0.7-0.1,1-0.3c0.3-0.2,0.5-0.4,0.7-0.7
		c0.2-0.3,0.3-0.6,0.4-1C751.7,12.5,751.7,12.1,751.7,11.7z"/>
	<path id="XMLID_79_" class="st0" d="M764,9.4c-0.3-0.2-0.5-0.4-0.8-0.5c-0.3-0.1-0.6-0.2-1-0.2c-0.3,0-0.6,0-0.8,0.1
		c-0.2,0.1-0.5,0.2-0.6,0.4c-0.2,0.2-0.3,0.5-0.4,0.8c-0.1,0.3-0.1,0.7-0.1,1.2v6.3h-3.1V5.9h3.1v0.8c0.3-0.3,0.6-0.5,1-0.7
		c0.4-0.2,0.9-0.3,1.4-0.3c0.5,0,0.9,0.1,1.3,0.3c0.4,0.2,0.6,0.4,0.9,0.6L764,9.4z"/>
	<path id="XMLID_76_" class="st0" d="M783.9,17.5l-1.2-3.5H777l-1.2,3.5h-3.3L778.4,2h3l5.9,15.5H783.9z M780.7,8.3
		c-0.2-0.5-0.3-0.9-0.5-1.3s-0.2-0.8-0.3-1.1c-0.1,0.3-0.2,0.7-0.3,1.1c-0.1,0.4-0.3,0.9-0.5,1.3l-1,2.8h3.5L780.7,8.3z"/>
	<path id="XMLID_73_" class="st0" d="M796.1,17.5v-0.7c-0.3,0.3-0.6,0.5-1,0.7c-0.4,0.2-0.9,0.3-1.4,0.3c-0.6,0-1.2-0.1-1.7-0.4
		c-0.5-0.2-1-0.6-1.4-1.1c-0.4-0.5-0.7-1.2-1-1.9c-0.2-0.8-0.4-1.7-0.4-2.8c0-0.9,0.1-1.7,0.3-2.4c0.2-0.7,0.5-1.3,0.9-1.9
		c0.4-0.5,0.9-0.9,1.4-1.2s1.2-0.4,1.9-0.4c0.5,0,1,0.1,1.4,0.3c0.4,0.2,0.8,0.4,1.1,0.6V2.9l3.1-1.5v16.1H796.1z M796.1,9.5
		c-0.5-0.7-1.2-1-2.1-1c-1.2,0-1.8,1-1.8,3c0,1.2,0.2,2.1,0.5,2.6c0.4,0.5,0.8,0.8,1.5,0.8c0.5,0,0.8-0.1,1.1-0.3
		c0.3-0.2,0.5-0.4,0.8-0.7V9.5z"/>
	<path id="XMLID_71_" class="st0" d="M809.1,17.5v-0.8c-0.3,0.3-0.6,0.5-1.1,0.7s-1,0.3-1.6,0.3c-1.5,0-2.6-0.5-3.3-1.4
		s-1-2.2-1-3.9V5.9h3.1v6.3c0,0.5,0,0.9,0.1,1.3c0.1,0.3,0.2,0.6,0.4,0.8c0.2,0.2,0.4,0.4,0.6,0.4c0.3,0.1,0.5,0.1,0.8,0.1
		c0.6,0,1.1-0.2,1.5-0.6c0.3-0.4,0.5-1.1,0.5-2.1V5.9h3.1v11.6H809.1z"/>
	<path id="XMLID_69_" class="st0" d="M815.2,17.5V2.9l3.1-1.5v16.1H815.2z"/>
	<path id="XMLID_67_" class="st0" d="M827.8,17c-0.3,0.2-0.6,0.4-1,0.5c-0.4,0.1-0.9,0.2-1.4,0.2s-0.9-0.1-1.3-0.3
		c-0.4-0.2-0.7-0.4-1-0.7c-0.3-0.3-0.5-0.7-0.6-1.1c-0.1-0.4-0.2-0.9-0.2-1.4V8.7h-1.9V5.9h1.9v-3l3.1-1.5v4.5h2.8v2.9h-2.8v4.7
		c0,0.6,0.1,0.9,0.3,1.1c0.2,0.2,0.5,0.3,0.8,0.3c0.3,0,0.5-0.1,0.8-0.2c0.2-0.1,0.6-0.4,0.9-0.7L827.8,17z"/>
	<path id="XMLID_65_" class="st0" d="M840.3,14.1c0,0.7-0.1,1.2-0.4,1.7s-0.6,0.8-1,1.1c-0.4,0.3-0.9,0.5-1.5,0.6
		c-0.6,0.1-1.2,0.2-1.8,0.2c-0.9,0-1.8-0.1-2.7-0.4c-0.8-0.2-1.6-0.6-2.2-1l1-2.3c0.6,0.3,1.3,0.6,1.9,0.8s1.4,0.3,2.1,0.3
		c0.6,0,1-0.1,1.2-0.2s0.3-0.4,0.3-0.7c0-0.3-0.1-0.5-0.4-0.6c-0.2-0.2-0.7-0.3-1.3-0.5c-0.7-0.2-1.3-0.4-1.9-0.6
		c-0.6-0.2-1.1-0.5-1.5-0.8c-0.4-0.3-0.7-0.6-0.9-1.1c-0.2-0.4-0.3-0.9-0.3-1.5c0-0.6,0.1-1.1,0.3-1.6c0.2-0.4,0.5-0.8,1-1.1
		c0.4-0.3,0.9-0.5,1.5-0.6s1.2-0.2,1.9-0.2c0.7,0,1.5,0.1,2.2,0.3c0.8,0.2,1.4,0.5,2.1,0.8l-1,2.4c-0.6-0.3-1.2-0.5-1.8-0.7
		c-0.6-0.2-1.1-0.2-1.6-0.2c-0.6,0-1,0.1-1.3,0.2C834.1,8.6,834,8.7,834,9c0,0.1,0,0.2,0.1,0.3c0.1,0.1,0.2,0.2,0.3,0.3
		s0.4,0.2,0.7,0.3s0.7,0.3,1.3,0.4c0.5,0.2,1,0.4,1.5,0.6c0.5,0.2,0.9,0.4,1.2,0.7s0.6,0.6,0.8,1C840.2,13,840.3,13.5,840.3,14.1z"
		/>
	<path id="XMLID_63_" class="st0" d="M65.3,44.1h-2.5l-1.2-4.6c-0.1-0.2-0.1-0.5-0.2-0.7c-0.1-0.3-0.1-0.5-0.2-0.8
		c-0.1-0.3-0.1-0.5-0.2-0.7S61,36.9,61,36.8c0,0.1-0.1,0.3-0.1,0.5c0,0.2-0.1,0.5-0.2,0.7c-0.1,0.3-0.1,0.5-0.2,0.8
		c-0.1,0.3-0.1,0.5-0.2,0.7l-1.2,4.6h-2.5l-3.3-11.6h3.1l1,4.3c0,0.2,0.1,0.5,0.2,0.7c0.1,0.3,0.1,0.5,0.2,0.7
		c0.1,0.2,0.1,0.5,0.1,0.7c0,0.2,0.1,0.4,0.1,0.5c0-0.3,0.1-0.7,0.3-1.2c0.1-0.5,0.2-1,0.4-1.5l1.2-4.3h2.5l1.2,4.3
		c0.1,0.5,0.2,0.9,0.4,1.5c0.1,0.5,0.2,0.9,0.3,1.2c0-0.1,0-0.3,0.1-0.5c0-0.2,0.1-0.4,0.1-0.7c0.1-0.2,0.1-0.5,0.2-0.7
		c0.1-0.3,0.1-0.5,0.2-0.7l1-4.3h3L65.3,44.1z"/>
	<path id="XMLID_60_" class="st0" d="M74.1,29.7c0,0.5-0.2,0.9-0.5,1.2c-0.3,0.3-0.8,0.5-1.2,0.5s-0.9-0.2-1.2-0.5
		c-0.3-0.3-0.5-0.8-0.5-1.2s0.2-0.9,0.5-1.2c0.3-0.3,0.8-0.5,1.2-0.5s0.9,0.2,1.2,0.5C73.9,28.9,74.1,29.3,74.1,29.7z M70.8,44.1
		V32.4h3.1v11.6H70.8z"/>
	<path id="XMLID_58_" class="st0" d="M83.5,43.6c-0.3,0.2-0.6,0.4-1,0.5c-0.4,0.1-0.9,0.2-1.4,0.2s-0.9-0.1-1.3-0.3
		c-0.4-0.2-0.7-0.4-1-0.7c-0.3-0.3-0.5-0.7-0.6-1.1c-0.1-0.4-0.2-0.9-0.2-1.4v-5.5H76v-2.9H78v-3l3.1-1.5v4.5h2.8v2.9H81V40
		c0,0.6,0.1,0.9,0.3,1.1c0.2,0.2,0.5,0.3,0.8,0.3c0.3,0,0.5-0.1,0.8-0.2c0.2-0.1,0.6-0.4,0.9-0.7L83.5,43.6z"/>
	<path id="XMLID_56_" class="st0" d="M93.8,44.1v-6.3c0-1-0.2-1.7-0.5-2.1s-0.8-0.6-1.5-0.6s-1.1,0.2-1.5,0.6
		c-0.3,0.4-0.5,1.1-0.5,2.1v6.4h-3.1V29.5l3.1-1.5v5.3c0.3-0.3,0.6-0.5,1.1-0.7s1-0.3,1.6-0.3c1.5,0,2.6,0.5,3.3,1.4s1,2.2,1,3.9
		v6.6H93.8z"/>
	<path id="XMLID_53_" class="st0" d="M118.7,33.5c0,0.9-0.1,1.7-0.4,2.3c-0.3,0.6-0.7,1.2-1.2,1.6s-1.1,0.7-1.8,0.9
		c-0.7,0.2-1.4,0.3-2.2,0.3h-3.4v5.5h-3.1V28.6h6.8c0.7,0,1.4,0.1,2.1,0.3c0.6,0.2,1.2,0.5,1.7,0.9s0.9,0.9,1.2,1.5
		S118.7,32.7,118.7,33.5z M115.5,33.5c0-0.7-0.2-1.2-0.6-1.5c-0.4-0.3-1-0.5-1.7-0.5h-3.6v4h3.6C114.8,35.6,115.5,34.9,115.5,33.5z"
		/>
	<path id="XMLID_50_" class="st0" d="M127.6,44.1v-0.8c-0.3,0.3-0.7,0.5-1.1,0.7c-0.5,0.2-1,0.3-1.5,0.3c-0.5,0-1.1-0.1-1.6-0.3
		c-0.5-0.2-1-0.4-1.4-0.8c-0.4-0.3-0.7-0.8-1-1.3s-0.4-1.1-0.4-1.8c0-0.6,0.1-1.2,0.4-1.7c0.2-0.5,0.6-0.9,1-1.2
		c0.4-0.3,0.9-0.6,1.5-0.7s1.2-0.2,1.8-0.2c0.5,0,1,0,1.3,0.1s0.7,0.2,0.9,0.3v-0.6c0-0.4-0.1-0.8-0.4-1.1s-0.7-0.4-1.3-0.4
		c-0.4,0-0.7,0-0.9,0s-0.5,0.1-0.8,0.1c-0.2,0.1-0.5,0.1-0.7,0.2c-0.2,0.1-0.5,0.2-0.8,0.4l-1.2-2.1c0.3-0.2,0.7-0.4,1-0.5
		s0.6-0.3,1-0.4s0.7-0.2,1.1-0.2c0.4-0.1,0.8-0.1,1.3-0.1c0.7,0,1.4,0.1,1.9,0.3c0.6,0.2,1.1,0.4,1.5,0.8s0.7,0.8,1,1.3
		c0.2,0.5,0.3,1.1,0.3,1.7v7.8H127.6z M127.6,39.2c-0.3-0.2-0.6-0.3-0.9-0.4c-0.3-0.1-0.7-0.1-1.3-0.1c-0.6,0-1,0.1-1.3,0.4
		c-0.3,0.3-0.5,0.6-0.5,1.1c0,0.4,0.1,0.8,0.4,1.1c0.3,0.3,0.7,0.5,1.4,0.5c0.5,0,0.9-0.1,1.3-0.3c0.4-0.2,0.6-0.5,0.8-0.7V39.2z"/>
	<path id="XMLID_48_" class="st0" d="M140.3,36c-0.3-0.2-0.5-0.4-0.8-0.5c-0.3-0.1-0.6-0.2-1-0.2c-0.3,0-0.6,0-0.8,0.1
		c-0.2,0.1-0.5,0.2-0.6,0.4c-0.2,0.2-0.3,0.5-0.4,0.8c-0.1,0.3-0.1,0.7-0.1,1.2v6.3h-3.1V32.4h3.1v0.8c0.3-0.3,0.6-0.5,1-0.7
		c0.4-0.2,0.9-0.3,1.4-0.3c0.5,0,0.9,0.1,1.3,0.3c0.4,0.2,0.6,0.4,0.9,0.6L140.3,36z"/>
	<path id="XMLID_46_" class="st0" d="M149.4,43.6c-0.3,0.2-0.6,0.4-1,0.5c-0.4,0.1-0.9,0.2-1.4,0.2s-0.9-0.1-1.3-0.3
		c-0.4-0.2-0.7-0.4-1-0.7c-0.3-0.3-0.5-0.7-0.6-1.1c-0.1-0.4-0.2-0.9-0.2-1.4v-5.5H142v-2.9h1.9v-3l3.1-1.5v4.5h2.8v2.9H147V40
		c0,0.6,0.1,0.9,0.3,1.1c0.2,0.2,0.5,0.3,0.8,0.3c0.3,0,0.5-0.1,0.8-0.2c0.2-0.1,0.6-0.4,0.9-0.7L149.4,43.6z"/>
	<path id="XMLID_43_" class="st0" d="M156.1,29.7c0,0.5-0.2,0.9-0.5,1.2c-0.3,0.3-0.8,0.5-1.2,0.5s-0.9-0.2-1.2-0.5
		c-0.3-0.3-0.5-0.8-0.5-1.2s0.2-0.9,0.5-1.2c0.3-0.3,0.8-0.5,1.2-0.5s0.9,0.2,1.2,0.5C156,28.9,156.1,29.3,156.1,29.7z M152.9,44.1
		V32.4h3.1v11.6H152.9z"/>
	<path id="XMLID_40_" class="st0" d="M165.4,44.1v-0.8c-0.3,0.3-0.7,0.5-1.1,0.7c-0.5,0.2-1,0.3-1.5,0.3c-0.5,0-1.1-0.1-1.6-0.3
		c-0.5-0.2-1-0.4-1.4-0.8c-0.4-0.3-0.7-0.8-1-1.3s-0.4-1.1-0.4-1.8c0-0.6,0.1-1.2,0.4-1.7c0.2-0.5,0.6-0.9,1-1.2
		c0.4-0.3,0.9-0.6,1.5-0.7s1.2-0.2,1.8-0.2c0.5,0,1,0,1.3,0.1s0.7,0.2,0.9,0.3v-0.6c0-0.4-0.1-0.8-0.4-1.1s-0.7-0.4-1.3-0.4
		c-0.4,0-0.7,0-0.9,0s-0.5,0.1-0.8,0.1c-0.2,0.1-0.5,0.1-0.7,0.2c-0.2,0.1-0.5,0.2-0.8,0.4l-1.2-2.1c0.3-0.2,0.7-0.4,1-0.5
		s0.6-0.3,1-0.4s0.7-0.2,1.1-0.2c0.4-0.1,0.8-0.1,1.3-0.1c0.7,0,1.4,0.1,1.9,0.3c0.6,0.2,1.1,0.4,1.5,0.8s0.7,0.8,1,1.3
		c0.2,0.5,0.3,1.1,0.3,1.7v7.8H165.4z M165.4,39.2c-0.3-0.2-0.6-0.3-0.9-0.4c-0.3-0.1-0.7-0.1-1.3-0.1c-0.6,0-1,0.1-1.3,0.4
		c-0.3,0.3-0.5,0.6-0.5,1.1c0,0.4,0.1,0.8,0.4,1.1c0.3,0.3,0.7,0.5,1.4,0.5c0.5,0,0.9-0.1,1.3-0.3c0.4-0.2,0.6-0.5,0.8-0.7V39.2z"/>
	<path id="XMLID_38_" class="st0" d="M171.4,44.1V29.5l3.1-1.5v16.1H171.4z"/>
	<path id="XMLID_35_" class="st0" d="M197.1,36.3c0,1.2-0.2,2.3-0.5,3.2c-0.3,1-0.7,1.8-1.3,2.5c-0.6,0.7-1.3,1.2-2.1,1.6
		c-0.8,0.4-1.8,0.6-2.8,0.6c-1.1,0-2-0.2-2.8-0.6c-0.8-0.4-1.5-0.9-2.1-1.6c-0.6-0.7-1-1.5-1.3-2.5c-0.3-1-0.5-2.1-0.5-3.2
		c0-1.2,0.2-2.3,0.5-3.2c0.3-1,0.7-1.8,1.3-2.5s1.3-1.2,2.1-1.6c0.8-0.4,1.8-0.6,2.8-0.6c1.1,0,2,0.2,2.8,0.6
		c0.8,0.4,1.5,0.9,2.1,1.6c0.6,0.7,1,1.5,1.3,2.5C197,34.1,197.1,35.1,197.1,36.3z M193.9,36.3c0-0.7-0.1-1.3-0.2-1.9
		c-0.1-0.6-0.3-1.1-0.6-1.6c-0.3-0.4-0.7-0.8-1.1-1s-1-0.4-1.6-0.4s-1.2,0.1-1.6,0.4s-0.8,0.6-1.1,1c-0.3,0.4-0.5,1-0.6,1.6
		s-0.2,1.2-0.2,1.9c0,0.7,0.1,1.3,0.2,1.9c0.1,0.6,0.3,1.1,0.6,1.6c0.3,0.4,0.7,0.8,1.1,1s1,0.4,1.6,0.4s1.2-0.1,1.6-0.4
		s0.8-0.6,1.1-1c0.3-0.4,0.5-1,0.6-1.6C193.9,37.7,193.9,37,193.9,36.3z"/>
	<path id="XMLID_33_" class="st0" d="M206.8,44.1v-6.3c0-1-0.2-1.7-0.5-2.1s-0.8-0.6-1.5-0.6s-1.1,0.2-1.5,0.6
		c-0.3,0.4-0.5,1.1-0.5,2.1v6.4h-3.1V32.4h3.1v0.8c0.3-0.3,0.6-0.5,1.1-0.7s1-0.3,1.6-0.3c1.5,0,2.6,0.5,3.3,1.4s1,2.2,1,3.9v6.6
		H206.8z"/>
	<path id="XMLID_31_" class="st0" d="M221.9,40.7c0,0.7-0.1,1.2-0.4,1.7s-0.6,0.8-1,1.1c-0.4,0.3-0.9,0.5-1.5,0.6
		c-0.6,0.1-1.2,0.2-1.8,0.2c-0.9,0-1.8-0.1-2.7-0.4c-0.8-0.2-1.6-0.6-2.2-1l1-2.3c0.6,0.3,1.3,0.6,1.9,0.8s1.4,0.3,2.1,0.3
		c0.6,0,1-0.1,1.2-0.2s0.3-0.4,0.3-0.7c0-0.3-0.1-0.5-0.4-0.6c-0.2-0.2-0.7-0.3-1.3-0.5c-0.7-0.2-1.3-0.4-1.9-0.6
		c-0.6-0.2-1.1-0.5-1.5-0.8c-0.4-0.3-0.7-0.6-0.9-1.1c-0.2-0.4-0.3-0.9-0.3-1.5c0-0.6,0.1-1.1,0.3-1.6c0.2-0.4,0.5-0.8,1-1.1
		c0.4-0.3,0.9-0.5,1.5-0.6s1.2-0.2,1.9-0.2c0.7,0,1.5,0.1,2.2,0.3c0.8,0.2,1.4,0.5,2.1,0.8l-1,2.4c-0.6-0.3-1.2-0.5-1.8-0.7
		c-0.6-0.2-1.1-0.2-1.6-0.2c-0.6,0-1,0.1-1.3,0.2c-0.2,0.1-0.3,0.3-0.3,0.6c0,0.1,0,0.2,0.1,0.3c0.1,0.1,0.2,0.2,0.3,0.3
		s0.4,0.2,0.7,0.3s0.7,0.3,1.3,0.4c0.5,0.2,1,0.4,1.5,0.6c0.5,0.2,0.9,0.4,1.2,0.7s0.6,0.6,0.8,1C221.8,39.6,221.9,40.1,221.9,40.7z
		"/>
	<path id="XMLID_28_" class="st0" d="M234.1,38.3c0,0.2,0,0.4,0,0.6c0,0.2,0,0.3,0,0.4h-7c0,0.4,0.1,0.7,0.3,1s0.3,0.5,0.6,0.7
		c0.2,0.2,0.5,0.3,0.7,0.4s0.5,0.1,0.8,0.1c0.4,0,0.8-0.1,1.2-0.2c0.3-0.1,0.6-0.3,0.8-0.6l2.2,1.8c-0.5,0.6-1.1,1.1-1.8,1.4
		c-0.8,0.3-1.5,0.5-2.3,0.5c-0.8,0-1.6-0.1-2.3-0.4s-1.2-0.7-1.7-1.2c-0.5-0.5-0.8-1.2-1.1-1.9s-0.4-1.6-0.4-2.5
		c0-0.9,0.1-1.7,0.4-2.4c0.3-0.7,0.6-1.4,1.1-1.9c0.5-0.5,1-1,1.6-1.3c0.6-0.3,1.3-0.4,2-0.4c0.8,0,1.5,0.2,2.1,0.5
		c0.6,0.3,1.1,0.8,1.5,1.3c0.4,0.6,0.7,1.2,1,1.9C234,36.7,234.1,37.4,234.1,38.3z M231.1,36.9c0-0.3-0.1-0.5-0.2-0.8
		c-0.1-0.2-0.2-0.5-0.4-0.7c-0.2-0.2-0.4-0.4-0.6-0.5c-0.3-0.1-0.5-0.2-0.9-0.2c-0.6,0-1,0.2-1.3,0.6c-0.3,0.4-0.5,0.9-0.6,1.5
		H231.1z"/>
	<path id="XMLID_26_" class="st0" d="M243,43.6c-0.3,0.2-0.6,0.4-1,0.5c-0.4,0.1-0.9,0.2-1.4,0.2s-0.9-0.1-1.3-0.3
		c-0.4-0.2-0.7-0.4-1-0.7c-0.3-0.3-0.5-0.7-0.6-1.1c-0.1-0.4-0.2-0.9-0.2-1.4v-5.5h-1.9v-2.9h1.9v-3l3.1-1.5v4.5h2.8v2.9h-2.8V40
		c0,0.6,0.1,0.9,0.3,1.1c0.2,0.2,0.5,0.3,0.8,0.3c0.3,0,0.5-0.1,0.8-0.2c0.2-0.1,0.6-0.4,0.9-0.7L243,43.6z"/>
	<path id="XMLID_24_" class="st0" d="M264.6,39.4c0,0.7-0.1,1.4-0.4,2s-0.6,1.1-1.1,1.6s-1.1,0.8-1.9,1c-0.8,0.2-1.7,0.4-2.7,0.4
		c-1.3,0-2.5-0.3-3.5-0.8c-1.1-0.5-1.9-1.2-2.5-2.1l2.2-2c0.5,0.6,1.2,1.1,1.8,1.4c0.7,0.3,1.4,0.4,2.1,0.4c0.9,0,1.6-0.1,2-0.4
		c0.4-0.3,0.7-0.7,0.7-1.3c0-0.3,0-0.5-0.1-0.7c-0.1-0.2-0.3-0.4-0.5-0.5c-0.2-0.2-0.6-0.3-1.1-0.5c-0.5-0.1-1-0.3-1.8-0.5
		c-0.7-0.2-1.4-0.4-2-0.6c-0.6-0.2-1.1-0.5-1.5-0.8c-0.4-0.3-0.8-0.8-1-1.3s-0.4-1.2-0.4-1.9c0-0.7,0.1-1.3,0.4-1.9
		c0.3-0.6,0.7-1,1.2-1.4c0.5-0.4,1.1-0.7,1.8-0.9s1.4-0.3,2.2-0.3c1.2,0,2.3,0.2,3.2,0.6c0.9,0.4,1.7,1,2.5,1.8l-2.2,2.2
		c-0.5-0.5-1-0.9-1.6-1.2s-1.2-0.4-1.9-0.4c-0.4,0-0.8,0-1,0.1s-0.5,0.2-0.7,0.3s-0.3,0.3-0.4,0.4c-0.1,0.2-0.1,0.3-0.1,0.5
		c0,0.3,0,0.5,0.1,0.6c0.1,0.2,0.3,0.3,0.5,0.5c0.2,0.1,0.6,0.3,1,0.4c0.4,0.1,0.9,0.3,1.5,0.4c0.6,0.1,1.2,0.3,1.8,0.5
		c0.6,0.2,1.2,0.5,1.7,0.8c0.5,0.4,0.9,0.8,1.2,1.4C264.4,37.8,264.6,38.5,264.6,39.4z"/>
	<path id="XMLID_21_" class="st0" d="M276.8,38.3c0,0.2,0,0.4,0,0.6c0,0.2,0,0.3,0,0.4h-7c0,0.4,0.1,0.7,0.3,1s0.3,0.5,0.6,0.7
		c0.2,0.2,0.5,0.3,0.7,0.4s0.5,0.1,0.8,0.1c0.4,0,0.8-0.1,1.2-0.2c0.3-0.1,0.6-0.3,0.8-0.6l2.2,1.8c-0.5,0.6-1.1,1.1-1.8,1.4
		c-0.8,0.3-1.5,0.5-2.3,0.5c-0.8,0-1.6-0.1-2.3-0.4s-1.2-0.7-1.7-1.2c-0.5-0.5-0.8-1.2-1.1-1.9s-0.4-1.6-0.4-2.5
		c0-0.9,0.1-1.7,0.4-2.4c0.3-0.7,0.6-1.4,1.1-1.9c0.5-0.5,1-1,1.6-1.3c0.6-0.3,1.3-0.4,2-0.4c0.8,0,1.5,0.2,2.1,0.5
		c0.6,0.3,1.1,0.8,1.5,1.3c0.4,0.6,0.7,1.2,1,1.9C276.7,36.7,276.8,37.4,276.8,38.3z M273.9,36.9c0-0.3-0.1-0.5-0.2-0.8
		c-0.1-0.2-0.2-0.5-0.4-0.7c-0.2-0.2-0.4-0.4-0.6-0.5c-0.3-0.1-0.5-0.2-0.9-0.2c-0.6,0-1,0.2-1.3,0.6c-0.3,0.4-0.5,0.9-0.6,1.5
		H273.9z"/>
	<path id="XMLID_18_" class="st0" d="M282.7,29.7c0,0.5-0.2,0.9-0.5,1.2c-0.3,0.3-0.8,0.5-1.2,0.5s-0.9-0.2-1.2-0.5
		c-0.3-0.3-0.5-0.8-0.5-1.2s0.2-0.9,0.5-1.2c0.3-0.3,0.8-0.5,1.2-0.5s0.9,0.2,1.2,0.5C282.5,28.9,282.7,29.3,282.7,29.7z
		 M279.4,44.1V32.4h3.1v11.6H279.4z"/>
	<path id="XMLID_16_" class="st0" d="M285.4,44.1v-2.2l4.2-5c0.2-0.3,0.5-0.6,0.8-0.9c0.3-0.3,0.5-0.6,0.7-0.8c-0.1,0-0.2,0-0.4,0
		c-0.2,0-0.3,0-0.5,0c-0.2,0-0.4,0-0.5,0s-0.3,0-0.5,0h-3.4v-2.8h9.2v2.2l-4.1,5c-0.2,0.3-0.5,0.6-0.8,0.9s-0.5,0.6-0.7,0.7
		c0.1,0,0.2,0,0.4,0c0.2,0,0.3,0,0.5,0s0.4,0,0.5,0c0.2,0,0.3,0,0.5,0h3.6v2.8H285.4z"/>
	<path id="XMLID_14_" class="st0" d="M304.7,44.1v-0.8c-0.3,0.3-0.6,0.5-1.1,0.7s-1,0.3-1.6,0.3c-1.5,0-2.6-0.5-3.3-1.4
		s-1-2.2-1-3.9v-6.6h3.1v6.3c0,0.5,0,0.9,0.1,1.3c0.1,0.3,0.2,0.6,0.4,0.8c0.2,0.2,0.4,0.4,0.6,0.4c0.3,0.1,0.5,0.1,0.8,0.1
		c0.6,0,1.1-0.2,1.5-0.6c0.3-0.4,0.5-1.1,0.5-2.1v-6.4h3.1v11.6H304.7z"/>
	<path id="XMLID_12_" class="st0" d="M317.5,36c-0.3-0.2-0.5-0.4-0.8-0.5c-0.3-0.1-0.6-0.2-1-0.2c-0.3,0-0.6,0-0.8,0.1
		c-0.2,0.1-0.5,0.2-0.6,0.4c-0.2,0.2-0.3,0.5-0.4,0.8c-0.1,0.3-0.1,0.7-0.1,1.2v6.3h-3.1V32.4h3.1v0.8c0.3-0.3,0.6-0.5,1-0.7
		c0.4-0.2,0.9-0.3,1.4-0.3c0.5,0,0.9,0.1,1.3,0.3c0.4,0.2,0.6,0.4,0.9,0.6L317.5,36z"/>
	<path id="XMLID_9_" class="st0" d="M329.7,38.3c0,0.2,0,0.4,0,0.6c0,0.2,0,0.3,0,0.4h-7c0,0.4,0.1,0.7,0.3,1s0.3,0.5,0.6,0.7
		c0.2,0.2,0.5,0.3,0.7,0.4s0.5,0.1,0.8,0.1c0.4,0,0.8-0.1,1.2-0.2c0.3-0.1,0.6-0.3,0.8-0.6l2.2,1.8c-0.5,0.6-1.1,1.1-1.8,1.4
		c-0.8,0.3-1.5,0.5-2.3,0.5c-0.8,0-1.6-0.1-2.3-0.4s-1.2-0.7-1.7-1.2c-0.5-0.5-0.8-1.2-1.1-1.9s-0.4-1.6-0.4-2.5
		c0-0.9,0.1-1.7,0.4-2.4c0.3-0.7,0.6-1.4,1.1-1.9c0.5-0.5,1-1,1.6-1.3c0.6-0.3,1.3-0.4,2-0.4c0.8,0,1.5,0.2,2.1,0.5
		c0.6,0.3,1.1,0.8,1.5,1.3c0.4,0.6,0.7,1.2,1,1.9C329.6,36.7,329.7,37.4,329.7,38.3z M326.7,36.9c0-0.3-0.1-0.5-0.2-0.8
		c-0.1-0.2-0.2-0.5-0.4-0.7c-0.2-0.2-0.4-0.4-0.6-0.5c-0.3-0.1-0.5-0.2-0.9-0.2c-0.6,0-1,0.2-1.3,0.6c-0.3,0.4-0.5,0.9-0.6,1.5
		H326.7z"/>
	<path id="XMLID_7_" class="st0" d="M341.3,40.7c0,0.7-0.1,1.2-0.4,1.7s-0.6,0.8-1,1.1c-0.4,0.3-0.9,0.5-1.5,0.6
		c-0.6,0.1-1.2,0.2-1.8,0.2c-0.9,0-1.8-0.1-2.7-0.4c-0.8-0.2-1.6-0.6-2.2-1l1-2.3c0.6,0.3,1.3,0.6,1.9,0.8s1.4,0.3,2.1,0.3
		c0.6,0,1-0.1,1.2-0.2s0.3-0.4,0.3-0.7c0-0.3-0.1-0.5-0.4-0.6c-0.2-0.2-0.7-0.3-1.3-0.5c-0.7-0.2-1.3-0.4-1.9-0.6
		c-0.6-0.2-1.1-0.5-1.5-0.8c-0.4-0.3-0.7-0.6-0.9-1.1c-0.2-0.4-0.3-0.9-0.3-1.5c0-0.6,0.1-1.1,0.3-1.6c0.2-0.4,0.5-0.8,1-1.1
		c0.4-0.3,0.9-0.5,1.5-0.6s1.2-0.2,1.9-0.2c0.7,0,1.5,0.1,2.2,0.3c0.8,0.2,1.4,0.5,2.1,0.8l-1,2.4c-0.6-0.3-1.2-0.5-1.8-0.7
		c-0.6-0.2-1.1-0.2-1.6-0.2c-0.6,0-1,0.1-1.3,0.2c-0.2,0.1-0.3,0.3-0.3,0.6c0,0.1,0,0.2,0.1,0.3c0.1,0.1,0.2,0.2,0.3,0.3
		s0.4,0.2,0.7,0.3s0.7,0.3,1.3,0.4c0.5,0.2,1,0.4,1.5,0.6c0.5,0.2,0.9,0.4,1.2,0.7s0.6,0.6,0.8,1C341.2,39.6,341.3,40.1,341.3,40.7z
		"/>
	<path id="XMLID_5_" class="st0" d="M347.6,42.2c0,0.3-0.1,0.5-0.2,0.8c-0.1,0.3-0.3,0.5-0.5,0.7c-0.2,0.2-0.4,0.3-0.7,0.5
		c-0.3,0.1-0.5,0.2-0.8,0.2s-0.5-0.1-0.8-0.2c-0.3-0.1-0.5-0.3-0.7-0.5c-0.2-0.2-0.3-0.4-0.5-0.7c-0.1-0.3-0.2-0.5-0.2-0.8
		s0.1-0.5,0.2-0.8c0.1-0.3,0.3-0.5,0.5-0.7c0.2-0.2,0.4-0.3,0.7-0.5c0.3-0.1,0.5-0.2,0.8-0.2s0.5,0.1,0.8,0.2
		c0.3,0.1,0.5,0.3,0.7,0.5c0.2,0.2,0.3,0.4,0.5,0.7C347.6,41.7,347.6,41.9,347.6,42.2z"/>
</g>
<g id="XMLID_1_">
	<path id="XMLID_3_" class="st0" d="M4,16.8c0,0,3.7-8,17.5-8C35.3,8.9,42.9,4,42.9,4s-9.8,10.2-19.5,10.2C13.8,14.2,8,14.2,4,16.8"
		/>
	<path id="XMLID_2_" class="st1" d="M0,24.4c0,0,3.7-8,17.5-8c13.8,0,21.5-4.8,21.5-4.8s-9.8,10.2-19.5,10.2C9.8,21.7,4,21.7,0,24.4
		"/>
</g>
</svg>
