<!-- Generator: Adobe Illustrator 22.1.0, SVG Export Plug-In  -->
<svg version="1.1"
	 xmlns="http://www.w3.org/2000/svg" xmlns:xlink="http://www.w3.org/1999/xlink" xmlns:a="http://ns.adobe.com/AdobeSVGViewerExtensions/3.0/"
	 x="0px" y="0px" width="406.7px" height="6.9px" viewBox="0 0 406.7 6.9" style="enable-background:new 0 0 406.7 6.9;"
	 xml:space="preserve">
<style type="text/css">
	.st0{fill:#595A5C;}
</style>
<defs>
</defs>
<g id="XMLID_1_">
	<path id="XMLID_265_" class="st0" d="M0.9,5.5V1.3H0V0.9c0.3,0,0.5-0.1,0.7-0.2C0.9,0.6,1,0.5,1,0.2h0.4v5.3H0.9z"/>
	<path id="XMLID_263_" class="st0" d="M3.4,5.1c0,0.1,0,0.2-0.1,0.3C3.2,5.5,3.1,5.6,3,5.6s-0.2,0-0.3-0.1C2.6,5.3,2.5,5.2,2.5,5.1
		s0-0.2,0.1-0.3C2.8,4.6,2.9,4.6,3,4.6s0.2,0.1,0.3,0.2C3.4,4.8,3.4,5,3.4,5.1z"/>
	<path id="XMLID_261_" class="st0" d="M8.1,0.8v4.7H7.5V0.8H6.1V0.2h3.5v0.5H8.1z"/>
	<path id="XMLID_259_" class="st0" d="M10.5,5.1c0,0.1,0,0.2-0.1,0.3c-0.1,0.1-0.2,0.1-0.3,0.1s-0.2,0-0.3-0.1
		C9.6,5.3,9.6,5.2,9.6,5.1s0-0.2,0.1-0.3C9.8,4.6,9.9,4.6,10,4.6s0.2,0.1,0.3,0.2C10.4,4.8,10.5,5,10.5,5.1z"/>
	<path id="XMLID_257_" class="st0" d="M16.5,4.1c0,0.2,0,0.4-0.1,0.6S16.2,5,16.1,5.1c-0.1,0.1-0.3,0.2-0.5,0.3s-0.4,0.1-0.7,0.1
		c-0.3,0-0.7-0.1-0.9-0.2c-0.3-0.1-0.5-0.3-0.7-0.5l0.4-0.4c0.2,0.2,0.4,0.3,0.6,0.5C14.4,5,14.6,5,14.8,5c0.3,0,0.6-0.1,0.8-0.2
		c0.2-0.2,0.3-0.4,0.3-0.7c0-0.1,0-0.2-0.1-0.3c0-0.1-0.1-0.2-0.2-0.3s-0.2-0.2-0.4-0.3C15.2,3.2,15,3.1,14.7,3
		c-0.3-0.1-0.5-0.2-0.7-0.3s-0.3-0.2-0.4-0.3c-0.1-0.1-0.2-0.2-0.2-0.4c0-0.1-0.1-0.3-0.1-0.5c0-0.2,0-0.4,0.1-0.6
		c0.1-0.2,0.2-0.3,0.3-0.4c0.1-0.1,0.3-0.2,0.5-0.3c0.2-0.1,0.4-0.1,0.6-0.1c0.3,0,0.6,0,0.9,0.2s0.5,0.2,0.7,0.4L16,1.2
		c-0.2-0.2-0.4-0.3-0.5-0.4c-0.2-0.1-0.4-0.1-0.7-0.1c-0.2,0-0.3,0-0.4,0.1s-0.2,0.1-0.3,0.2C14,1,13.9,1.1,13.9,1.1
		c0,0.1-0.1,0.2-0.1,0.3c0,0.1,0,0.2,0,0.3c0,0.1,0.1,0.2,0.2,0.3c0.1,0.1,0.2,0.2,0.4,0.2c0.2,0.1,0.4,0.2,0.6,0.3
		c0.3,0.1,0.5,0.2,0.7,0.3c0.2,0.1,0.3,0.2,0.4,0.3c0.1,0.1,0.2,0.3,0.2,0.4C16.5,3.7,16.5,3.9,16.5,4.1z"/>
	<path id="XMLID_255_" class="st0" d="M21.9,5.5V3.2c0-0.5-0.1-0.8-0.2-1s-0.3-0.3-0.6-0.3c-0.3,0-0.5,0.1-0.6,0.3
		c-0.2,0.2-0.2,0.5-0.2,0.9v2.3h-0.5V3.2c0-0.5-0.1-0.8-0.2-1S19.2,1.9,19,1.9c-0.3,0-0.5,0.1-0.6,0.3c-0.1,0.2-0.2,0.5-0.2,0.9v2.3
		h-0.5v-4h0.5l0,0.5c0.1-0.2,0.2-0.3,0.4-0.4c0.2-0.1,0.3-0.2,0.6-0.2c0.3,0,0.5,0.1,0.6,0.2c0.2,0.1,0.3,0.3,0.4,0.5
		c0.1-0.1,0.1-0.2,0.2-0.3c0.1-0.1,0.1-0.2,0.2-0.2s0.2-0.1,0.3-0.1s0.3-0.1,0.4-0.1c0.4,0,0.7,0.1,0.9,0.4c0.2,0.3,0.3,0.7,0.3,1.2
		v2.4H21.9z"/>
	<path id="XMLID_252_" class="st0" d="M26.5,3.4c0,0.1,0,0.1,0,0.2c0,0,0,0.1,0,0.1H24c0,0.4,0.1,0.8,0.3,1C24.5,5,24.7,5.1,25,5.1
		c0.2,0,0.4,0,0.6-0.1c0.2-0.1,0.3-0.2,0.5-0.3l0.3,0.4c-0.1,0.1-0.2,0.1-0.3,0.2c-0.1,0.1-0.2,0.1-0.3,0.1c-0.1,0-0.2,0.1-0.3,0.1
		c-0.1,0-0.2,0-0.4,0c-0.2,0-0.3,0-0.5-0.1c-0.2-0.1-0.3-0.2-0.5-0.4s-0.3-0.4-0.4-0.6c-0.1-0.3-0.1-0.6-0.1-1c0-0.3,0-0.6,0.1-0.9
		c0.1-0.3,0.2-0.5,0.3-0.6c0.1-0.2,0.3-0.3,0.5-0.4c0.2-0.1,0.4-0.1,0.6-0.1c0.2,0,0.5,0,0.6,0.1S26,1.8,26.1,2
		c0.1,0.2,0.2,0.4,0.3,0.6S26.5,3.1,26.5,3.4z M26,3.2c0-0.4-0.1-0.7-0.3-0.9c-0.2-0.2-0.4-0.4-0.7-0.4c-0.3,0-0.5,0.1-0.7,0.3
		c-0.2,0.2-0.3,0.5-0.3,1H26z"/>
	<path id="XMLID_249_" class="st0" d="M29.8,5.5V5c-0.1,0.2-0.3,0.3-0.5,0.4c-0.2,0.1-0.4,0.2-0.7,0.2c-0.2,0-0.4,0-0.5-0.1
		c-0.2-0.1-0.3-0.2-0.4-0.4c-0.1-0.2-0.2-0.4-0.3-0.6s-0.1-0.6-0.1-0.9c0-0.4,0-0.7,0.1-0.9c0.1-0.3,0.2-0.5,0.3-0.7
		c0.1-0.2,0.3-0.3,0.5-0.4s0.4-0.1,0.6-0.1c0.2,0,0.4,0,0.6,0.1s0.3,0.2,0.5,0.4V0.3L30.3,0v5.5H29.8z M29.8,2.5
		c-0.1-0.2-0.2-0.3-0.4-0.4C29.2,2,29,1.9,28.8,1.9c-0.3,0-0.5,0.1-0.7,0.4c-0.2,0.3-0.2,0.7-0.2,1.2c0,0.5,0.1,0.9,0.3,1.1
		s0.4,0.4,0.7,0.4c0.2,0,0.4-0.1,0.5-0.2c0.2-0.1,0.3-0.2,0.4-0.4V2.5z"/>
	<path id="XMLID_247_" class="st0" d="M32.2,2v2.6c0,0.2,0,0.3,0.1,0.4c0.1,0.1,0.2,0.1,0.3,0.1c0.1,0,0.2,0,0.3,0
		c0.1,0,0.2,0,0.2-0.1l0,0.5c-0.1,0-0.2,0.1-0.3,0.1s-0.2,0-0.4,0c-0.2,0-0.4-0.1-0.5-0.2c-0.1-0.1-0.2-0.4-0.2-0.7V2h-0.5V1.5h0.5
		V0.3L32.2,0v1.5h0.9V2H32.2z"/>
	<path id="XMLID_244_" class="st0" d="M38.9,3.4c0,0.1,0,0.1,0,0.2c0,0,0,0.1,0,0.1h-2.5c0,0.4,0.1,0.8,0.3,1
		c0.2,0.2,0.4,0.4,0.7,0.4c0.2,0,0.4,0,0.6-0.1c0.2-0.1,0.3-0.2,0.5-0.3l0.3,0.4c-0.1,0.1-0.2,0.1-0.3,0.2c-0.1,0.1-0.2,0.1-0.3,0.1
		c-0.1,0-0.2,0.1-0.3,0.1c-0.1,0-0.2,0-0.4,0c-0.2,0-0.3,0-0.5-0.1c-0.2-0.1-0.3-0.2-0.5-0.4S36.1,4.7,36,4.5
		c-0.1-0.3-0.1-0.6-0.1-1c0-0.3,0-0.6,0.1-0.9C36,2.4,36.1,2.2,36.3,2c0.1-0.2,0.3-0.3,0.5-0.4c0.2-0.1,0.4-0.1,0.6-0.1
		c0.2,0,0.5,0,0.6,0.1s0.3,0.2,0.5,0.4c0.1,0.2,0.2,0.4,0.3,0.6S38.9,3.1,38.9,3.4z M38.4,3.2c0-0.4-0.1-0.7-0.3-0.9
		c-0.2-0.2-0.4-0.4-0.7-0.4c-0.3,0-0.5,0.1-0.7,0.3c-0.2,0.2-0.3,0.5-0.3,1H38.4z"/>
	<path id="XMLID_242_" class="st0" d="M40.5,2v2.6c0,0.2,0,0.3,0.1,0.4c0.1,0.1,0.2,0.1,0.3,0.1c0.1,0,0.2,0,0.3,0
		c0.1,0,0.2,0,0.2-0.1l0,0.5c-0.1,0-0.2,0.1-0.3,0.1s-0.2,0-0.4,0c-0.2,0-0.4-0.1-0.5-0.2C40,5.2,40,5,40,4.7V2h-0.5V1.5H40V0.3
		L40.5,0v1.5h0.9V2H40.5z"/>
	<path id="XMLID_239_" class="st0" d="M46.5,5.5V5c-0.1,0.2-0.3,0.3-0.5,0.4s-0.4,0.2-0.7,0.2c-0.1,0-0.3,0-0.4-0.1
		c-0.1,0-0.3-0.1-0.4-0.2s-0.2-0.2-0.3-0.4s-0.1-0.4-0.1-0.6c0-0.2,0-0.4,0.1-0.6s0.2-0.3,0.3-0.4c0.1-0.1,0.3-0.2,0.5-0.2
		S45.4,3,45.6,3c0.2,0,0.4,0,0.5,0.1c0.2,0,0.3,0.1,0.4,0.2V2.8c0-0.6-0.3-0.9-0.8-0.9c-0.2,0-0.4,0-0.5,0.1
		c-0.2,0.1-0.3,0.1-0.5,0.2l-0.2-0.5c0.2-0.1,0.4-0.2,0.6-0.2c0.2-0.1,0.4-0.1,0.7-0.1c0.4,0,0.7,0.1,1,0.3s0.4,0.5,0.4,1v2.8H46.5z
		 M46.5,3.7c-0.1-0.1-0.3-0.1-0.4-0.2c-0.1,0-0.3-0.1-0.6-0.1c-0.3,0-0.5,0.1-0.6,0.2S44.7,4,44.7,4.3c0,0.3,0.1,0.5,0.2,0.6
		C45,5,45.2,5.1,45.4,5.1c0.2,0,0.5-0.1,0.6-0.2c0.2-0.1,0.3-0.3,0.4-0.4V3.7z"/>
	<path id="XMLID_237_" class="st0" d="M48.2,5.5V0.3L48.8,0v5.5H48.2z"/>
	<path id="XMLID_235_" class="st0" d="M50.7,5.1c0,0.1,0,0.2-0.1,0.3c-0.1,0.1-0.2,0.1-0.3,0.1S50,5.5,50,5.4
		c-0.1-0.1-0.1-0.2-0.1-0.3s0-0.2,0.1-0.3c0.1-0.1,0.2-0.2,0.3-0.2s0.2,0.1,0.3,0.2C50.7,4.8,50.7,5,50.7,5.1z"/>
	<path id="XMLID_233_" class="st0" d="M53.6,5.5V0.2h0.6V5h2.5v0.5H53.6z"/>
	<path id="XMLID_230_" class="st0" d="M60.5,3.4c0,0.1,0,0.1,0,0.2c0,0,0,0.1,0,0.1H58c0,0.4,0.1,0.8,0.3,1C58.5,5,58.7,5.1,59,5.1
		c0.2,0,0.4,0,0.6-0.1c0.2-0.1,0.3-0.2,0.5-0.3l0.3,0.4c-0.1,0.1-0.2,0.1-0.3,0.2c-0.1,0.1-0.2,0.1-0.3,0.1c-0.1,0-0.2,0.1-0.3,0.1
		c-0.1,0-0.2,0-0.4,0c-0.2,0-0.3,0-0.5-0.1c-0.2-0.1-0.3-0.2-0.5-0.4s-0.3-0.4-0.4-0.6c-0.1-0.3-0.1-0.6-0.1-1c0-0.3,0-0.6,0.1-0.9
		c0.1-0.3,0.2-0.5,0.3-0.6c0.1-0.2,0.3-0.3,0.5-0.4c0.2-0.1,0.4-0.1,0.6-0.1c0.2,0,0.5,0,0.6,0.1S60,1.8,60.1,2
		c0.1,0.2,0.2,0.4,0.3,0.6S60.5,3.1,60.5,3.4z M60,3.2c0-0.4-0.1-0.7-0.3-0.9c-0.2-0.2-0.4-0.4-0.7-0.4c-0.3,0-0.5,0.1-0.7,0.3
		c-0.2,0.2-0.3,0.5-0.3,1H60z"/>
	<path id="XMLID_228_" class="st0" d="M62.8,5.5h-0.5l-1.3-4h0.6l1,3.1l0.1,0.2l0.1-0.2l1-3.1h0.6L62.8,5.5z"/>
	<path id="XMLID_225_" class="st0" d="M67.8,3.4c0,0.1,0,0.1,0,0.2c0,0,0,0.1,0,0.1h-2.5c0,0.4,0.1,0.8,0.3,1
		C65.8,5,66,5.1,66.3,5.1c0.2,0,0.4,0,0.6-0.1c0.2-0.1,0.3-0.2,0.5-0.3l0.3,0.4c-0.1,0.1-0.2,0.1-0.3,0.2c-0.1,0.1-0.2,0.1-0.3,0.1
		c-0.1,0-0.2,0.1-0.3,0.1c-0.1,0-0.2,0-0.4,0c-0.2,0-0.3,0-0.5-0.1c-0.2-0.1-0.3-0.2-0.5-0.4S65,4.7,64.9,4.5
		c-0.1-0.3-0.1-0.6-0.1-1c0-0.3,0-0.6,0.1-0.9C64.9,2.4,65,2.2,65.2,2c0.1-0.2,0.3-0.3,0.5-0.4c0.2-0.1,0.4-0.1,0.6-0.1
		c0.2,0,0.5,0,0.6,0.1s0.3,0.2,0.5,0.4c0.1,0.2,0.2,0.4,0.3,0.6S67.8,3.1,67.8,3.4z M67.3,3.2c0-0.4-0.1-0.7-0.3-0.9
		c-0.2-0.2-0.4-0.4-0.7-0.4c-0.3,0-0.5,0.1-0.7,0.3c-0.2,0.2-0.3,0.5-0.3,1H67.3z"/>
	<path id="XMLID_223_" class="st0" d="M69.4,2v2.6c0,0.2,0,0.3,0.1,0.4c0.1,0.1,0.2,0.1,0.3,0.1c0.1,0,0.2,0,0.3,0
		c0.1,0,0.2,0,0.2-0.1l0,0.5c-0.1,0-0.2,0.1-0.3,0.1s-0.2,0-0.4,0c-0.2,0-0.4-0.1-0.5-0.2C69,5.2,68.9,5,68.9,4.7V2h-0.5V1.5h0.5
		V0.3L69.4,0v1.5h0.9V2H69.4z"/>
	<path id="XMLID_220_" class="st0" d="M72.1,0.4c0,0.1,0,0.2-0.1,0.3c-0.1,0.1-0.2,0.1-0.3,0.1c-0.1,0-0.2,0-0.3-0.1
		c-0.1-0.1-0.1-0.2-0.1-0.3c0-0.1,0-0.2,0.1-0.3C71.5,0.1,71.6,0,71.7,0c0.1,0,0.2,0,0.3,0.1C72.1,0.2,72.1,0.3,72.1,0.4z M71.4,5.5
		v-4H72v4H71.4z"/>
	<path id="XMLID_218_" class="st0" d="M75.1,2.1C75.1,2.1,75,2,74.9,2c-0.1,0-0.2,0-0.3,0c-0.3,0-0.5,0.1-0.6,0.3s-0.2,0.5-0.2,0.9
		v2.3h-0.5v-4h0.5V2c0.1-0.2,0.2-0.3,0.4-0.4s0.4-0.2,0.6-0.2c0.1,0,0.3,0,0.3,0s0.2,0,0.2,0.1L75.1,2.1z"/>
	<path id="XMLID_215_" class="st0" d="M78,5.5V5c-0.1,0.2-0.3,0.3-0.5,0.4s-0.4,0.2-0.7,0.2c-0.1,0-0.3,0-0.4-0.1
		c-0.1,0-0.3-0.1-0.4-0.2s-0.2-0.2-0.3-0.4s-0.1-0.4-0.1-0.6c0-0.2,0-0.4,0.1-0.6s0.2-0.3,0.3-0.4c0.1-0.1,0.3-0.2,0.5-0.2
		S76.9,3,77.1,3c0.2,0,0.4,0,0.5,0.1c0.2,0,0.3,0.1,0.4,0.2V2.8c0-0.6-0.3-0.9-0.8-0.9c-0.2,0-0.4,0-0.5,0.1
		c-0.2,0.1-0.3,0.1-0.5,0.2L76,1.8c0.2-0.1,0.4-0.2,0.6-0.2c0.2-0.1,0.4-0.1,0.7-0.1c0.4,0,0.7,0.1,1,0.3s0.4,0.5,0.4,1v2.8H78z
		 M78,3.7c-0.1-0.1-0.3-0.1-0.4-0.2c-0.1,0-0.3-0.1-0.6-0.1c-0.3,0-0.5,0.1-0.6,0.2S76.2,4,76.2,4.3c0,0.3,0.1,0.5,0.2,0.6
		C76.5,5,76.7,5.1,77,5.1c0.2,0,0.5-0.1,0.6-0.2c0.2-0.1,0.3-0.3,0.4-0.4V3.7z"/>
	<path id="XMLID_213_" class="st0" d="M82,2.3c-0.1-0.1-0.3-0.2-0.4-0.3c-0.1-0.1-0.3-0.1-0.5-0.1c-0.1,0-0.3,0-0.4,0.1
		c-0.1,0.1-0.2,0.2-0.3,0.3c-0.1,0.1-0.2,0.3-0.2,0.5c-0.1,0.2-0.1,0.4-0.1,0.7c0,0.5,0.1,0.9,0.3,1.2c0.2,0.3,0.4,0.4,0.8,0.4
		c0.2,0,0.3,0,0.5-0.1s0.3-0.2,0.4-0.3L82.3,5c-0.2,0.2-0.3,0.3-0.5,0.4c-0.2,0.1-0.4,0.1-0.7,0.1c-0.2,0-0.4,0-0.6-0.1
		c-0.2-0.1-0.4-0.2-0.5-0.4s-0.3-0.4-0.4-0.6c-0.1-0.3-0.1-0.6-0.1-0.9c0-0.4,0-0.7,0.1-0.9c0.1-0.3,0.2-0.5,0.4-0.6
		s0.3-0.3,0.5-0.4c0.2-0.1,0.4-0.1,0.6-0.1c0.3,0,0.5,0,0.7,0.1c0.2,0.1,0.4,0.2,0.5,0.3L82,2.3z"/>
	<path id="XMLID_210_" class="st0" d="M86,3.4c0,0.1,0,0.1,0,0.2c0,0,0,0.1,0,0.1h-2.5c0,0.4,0.1,0.8,0.3,1C84,5,84.2,5.1,84.5,5.1
		c0.2,0,0.4,0,0.6-0.1c0.2-0.1,0.3-0.2,0.5-0.3l0.3,0.4c-0.1,0.1-0.2,0.1-0.3,0.2c-0.1,0.1-0.2,0.1-0.3,0.1c-0.1,0-0.2,0.1-0.3,0.1
		c-0.1,0-0.2,0-0.4,0c-0.2,0-0.3,0-0.5-0.1c-0.2-0.1-0.3-0.2-0.5-0.4s-0.3-0.4-0.4-0.6c-0.1-0.3-0.1-0.6-0.1-1c0-0.3,0-0.6,0.1-0.9
		c0.1-0.3,0.2-0.5,0.3-0.6c0.1-0.2,0.3-0.3,0.5-0.4c0.2-0.1,0.4-0.1,0.6-0.1c0.2,0,0.5,0,0.6,0.1s0.3,0.2,0.5,0.4
		c0.1,0.2,0.2,0.4,0.3,0.6S86,3.1,86,3.4z M85.5,3.2c0-0.4-0.1-0.7-0.3-0.9c-0.2-0.2-0.4-0.4-0.7-0.4c-0.3,0-0.5,0.1-0.7,0.3
		c-0.2,0.2-0.3,0.5-0.3,1H85.5z"/>
	<path id="XMLID_208_" class="st0" d="M87.6,2v2.6c0,0.2,0,0.3,0.1,0.4C87.8,5,87.9,5.1,88,5.1c0.1,0,0.2,0,0.3,0
		c0.1,0,0.2,0,0.2-0.1l0,0.5c-0.1,0-0.2,0.1-0.3,0.1s-0.2,0-0.4,0c-0.2,0-0.4-0.1-0.5-0.2c-0.1-0.1-0.2-0.4-0.2-0.7V2h-0.5V1.5h0.5
		V0.3L87.6,0v1.5h0.9V2H87.6z"/>
	<path id="XMLID_205_" class="st0" d="M91.7,5.5V5c-0.1,0.2-0.3,0.3-0.5,0.4s-0.4,0.2-0.7,0.2c-0.1,0-0.3,0-0.4-0.1
		c-0.1,0-0.3-0.1-0.4-0.2s-0.2-0.2-0.3-0.4s-0.1-0.4-0.1-0.6c0-0.2,0-0.4,0.1-0.6s0.2-0.3,0.3-0.4c0.1-0.1,0.3-0.2,0.5-0.2
		S90.5,3,90.7,3c0.2,0,0.4,0,0.5,0.1c0.2,0,0.3,0.1,0.4,0.2V2.8c0-0.6-0.3-0.9-0.8-0.9c-0.2,0-0.4,0-0.5,0.1
		c-0.2,0.1-0.3,0.1-0.5,0.2l-0.2-0.5c0.2-0.1,0.4-0.2,0.6-0.2c0.2-0.1,0.4-0.1,0.7-0.1c0.4,0,0.7,0.1,1,0.3s0.4,0.5,0.4,1v2.8H91.7z
		 M91.7,3.7c-0.1-0.1-0.3-0.1-0.4-0.2c-0.1,0-0.3-0.1-0.6-0.1c-0.3,0-0.5,0.1-0.6,0.2S89.8,4,89.8,4.3c0,0.3,0.1,0.5,0.2,0.6
		c0.1,0.1,0.3,0.2,0.6,0.2c0.2,0,0.5-0.1,0.6-0.2c0.2-0.1,0.3-0.3,0.4-0.4V3.7z"/>
	<path id="XMLID_203_" class="st0" d="M97.7,5.5V3.2c0-0.5-0.1-0.8-0.2-1s-0.3-0.3-0.6-0.3c-0.3,0-0.5,0.1-0.6,0.3
		c-0.2,0.2-0.2,0.5-0.2,0.9v2.3h-0.5V3.2c0-0.5-0.1-0.8-0.2-1S95,1.9,94.7,1.9c-0.3,0-0.5,0.1-0.6,0.3c-0.1,0.2-0.2,0.5-0.2,0.9v2.3
		h-0.5v-4h0.5l0,0.5c0.1-0.2,0.2-0.3,0.4-0.4c0.2-0.1,0.3-0.2,0.6-0.2c0.3,0,0.5,0.1,0.6,0.2c0.2,0.1,0.3,0.3,0.4,0.5
		C95.9,2,96,1.9,96.1,1.9c0.1-0.1,0.1-0.2,0.2-0.2s0.2-0.1,0.3-0.1s0.3-0.1,0.4-0.1c0.4,0,0.7,0.1,0.9,0.4c0.2,0.3,0.3,0.7,0.3,1.2
		v2.4H97.7z"/>
	<path id="XMLID_200_" class="st0" d="M100.2,1.9c0,0.1,0,0.2-0.1,0.3c-0.1,0.1-0.2,0.1-0.3,0.1s-0.2,0-0.3-0.1
		c-0.1-0.1-0.1-0.2-0.1-0.3c0-0.1,0-0.2,0.1-0.3c0.1-0.1,0.2-0.2,0.3-0.2s0.2,0.1,0.3,0.2C100.1,1.7,100.2,1.8,100.2,1.9z
		 M100.2,5.1c0,0.1,0,0.2-0.1,0.3c-0.1,0.1-0.2,0.1-0.3,0.1s-0.2,0-0.3-0.1c-0.1-0.1-0.1-0.2-0.1-0.3s0-0.2,0.1-0.3
		c0.1-0.1,0.2-0.2,0.3-0.2s0.2,0.1,0.3,0.2C100.1,4.8,100.2,5,100.2,5.1z"/>
	<path id="XMLID_197_" class="st0" d="M106.5,1.8c0,0.3,0,0.5-0.1,0.7c-0.1,0.2-0.2,0.4-0.3,0.5c-0.1,0.1-0.3,0.2-0.5,0.3
		c-0.2,0.1-0.4,0.1-0.7,0.1h-1.2v2.1h-0.6V0.2h1.9c0.2,0,0.4,0,0.6,0.1c0.2,0.1,0.4,0.2,0.5,0.3c0.1,0.1,0.3,0.3,0.3,0.5
		S106.5,1.5,106.5,1.8z M106,1.8c0-0.3-0.1-0.6-0.3-0.8c-0.2-0.2-0.4-0.3-0.8-0.3h-1.3v2.1h1.2C105.6,2.9,106,2.5,106,1.8z"/>
	<path id="XMLID_194_" class="st0" d="M109.4,5.5V5c-0.1,0.2-0.3,0.3-0.5,0.4s-0.4,0.2-0.7,0.2c-0.1,0-0.3,0-0.4-0.1
		c-0.1,0-0.3-0.1-0.4-0.2s-0.2-0.2-0.3-0.4S107,4.5,107,4.3c0-0.2,0-0.4,0.1-0.6s0.2-0.3,0.3-0.4c0.1-0.1,0.3-0.2,0.5-0.2
		s0.4-0.1,0.5-0.1c0.2,0,0.4,0,0.5,0.1c0.2,0,0.3,0.1,0.4,0.2V2.8c0-0.6-0.3-0.9-0.8-0.9c-0.2,0-0.4,0-0.5,0.1
		c-0.2,0.1-0.3,0.1-0.5,0.2l-0.2-0.5c0.2-0.1,0.4-0.2,0.6-0.2c0.2-0.1,0.4-0.1,0.7-0.1c0.4,0,0.7,0.1,1,0.3s0.4,0.5,0.4,1v2.8H109.4
		z M109.4,3.7c-0.1-0.1-0.3-0.1-0.4-0.2c-0.1,0-0.3-0.1-0.6-0.1c-0.3,0-0.5,0.1-0.6,0.2s-0.2,0.3-0.2,0.6c0,0.3,0.1,0.5,0.2,0.6
		c0.1,0.1,0.3,0.2,0.6,0.2c0.2,0,0.5-0.1,0.6-0.2c0.2-0.1,0.3-0.3,0.4-0.4V3.7z"/>
	<path id="XMLID_192_" class="st0" d="M113,2.1c-0.1,0-0.2-0.1-0.2-0.1c-0.1,0-0.2,0-0.3,0c-0.3,0-0.5,0.1-0.6,0.3s-0.2,0.5-0.2,0.9
		v2.3h-0.5v-4h0.5V2c0.1-0.2,0.2-0.3,0.4-0.4s0.4-0.2,0.6-0.2c0.1,0,0.3,0,0.3,0s0.2,0,0.2,0.1L113,2.1z"/>
	<path id="XMLID_190_" class="st0" d="M114.7,2v2.6c0,0.2,0,0.3,0.1,0.4c0.1,0.1,0.2,0.1,0.3,0.1c0.1,0,0.2,0,0.3,0
		c0.1,0,0.2,0,0.2-0.1l0,0.5c-0.1,0-0.2,0.1-0.3,0.1s-0.2,0-0.4,0c-0.2,0-0.4-0.1-0.5-0.2c-0.1-0.1-0.2-0.4-0.2-0.7V2h-0.5V1.5h0.5
		V0.3l0.5-0.3v1.5h0.9V2H114.7z"/>
	<path id="XMLID_188_" class="st0" d="M118.7,5.5V0.2h0.6v5.3H118.7z"/>
	<path id="XMLID_186_" class="st0" d="M120.6,5.5V0.2h0.6v5.3H120.6z"/>
	<path id="XMLID_184_" class="st0" d="M123.2,5.1c0,0.1,0,0.2-0.1,0.3c-0.1,0.1-0.2,0.1-0.3,0.1s-0.2,0-0.3-0.1
		c-0.1-0.1-0.1-0.2-0.1-0.3s0-0.2,0.1-0.3c0.1-0.1,0.2-0.2,0.3-0.2s0.2,0.1,0.3,0.2C123.1,4.8,123.2,5,123.2,5.1z"/>
	<path id="XMLID_182_" class="st0" d="M126.7,2v2.6c0,0.2,0,0.3,0.1,0.4c0.1,0.1,0.2,0.1,0.3,0.1c0.1,0,0.2,0,0.3,0
		c0.1,0,0.2,0,0.2-0.1l0,0.5c-0.1,0-0.2,0.1-0.3,0.1s-0.2,0-0.4,0c-0.2,0-0.4-0.1-0.5-0.2c-0.1-0.1-0.2-0.4-0.2-0.7V2h-0.5V1.5h0.5
		V0.3l0.5-0.3v1.5h0.9V2H126.7z"/>
	<path id="XMLID_180_" class="st0" d="M131.1,5.5V3.2c0-0.4-0.1-0.7-0.2-0.9c-0.1-0.2-0.4-0.3-0.7-0.3c-0.3,0-0.5,0.1-0.7,0.3
		c-0.2,0.2-0.3,0.5-0.3,0.9v2.3h-0.5V0.3l0.5-0.3l0,2c0.1-0.2,0.3-0.3,0.4-0.4s0.4-0.2,0.6-0.2c0.2,0,0.4,0,0.5,0.1
		c0.2,0.1,0.3,0.2,0.4,0.3c0.1,0.1,0.2,0.3,0.3,0.5c0.1,0.2,0.1,0.4,0.1,0.7v2.4H131.1z"/>
	<path id="XMLID_177_" class="st0" d="M135.6,3.4c0,0.1,0,0.1,0,0.2c0,0,0,0.1,0,0.1h-2.5c0,0.4,0.1,0.8,0.3,1
		c0.2,0.2,0.4,0.4,0.7,0.4c0.2,0,0.4,0,0.6-0.1c0.2-0.1,0.3-0.2,0.5-0.3l0.3,0.4c-0.1,0.1-0.2,0.1-0.3,0.2c-0.1,0.1-0.2,0.1-0.3,0.1
		c-0.1,0-0.2,0.1-0.3,0.1c-0.1,0-0.2,0-0.4,0c-0.2,0-0.3,0-0.5-0.1c-0.2-0.1-0.3-0.2-0.5-0.4s-0.3-0.4-0.4-0.6
		c-0.1-0.3-0.1-0.6-0.1-1c0-0.3,0-0.6,0.1-0.9c0.1-0.3,0.2-0.5,0.3-0.6c0.1-0.2,0.3-0.3,0.5-0.4c0.2-0.1,0.4-0.1,0.6-0.1
		c0.2,0,0.5,0,0.6,0.1s0.3,0.2,0.5,0.4c0.1,0.2,0.2,0.4,0.3,0.6S135.6,3.1,135.6,3.4z M135.1,3.2c0-0.4-0.1-0.7-0.3-0.9
		c-0.2-0.2-0.4-0.4-0.7-0.4c-0.3,0-0.5,0.1-0.7,0.3c-0.2,0.2-0.3,0.5-0.3,1H135.1z"/>
	<path id="XMLID_175_" class="st0" d="M140.8,2.3c-0.1-0.1-0.3-0.2-0.4-0.3c-0.1-0.1-0.3-0.1-0.5-0.1c-0.1,0-0.3,0-0.4,0.1
		c-0.1,0.1-0.2,0.2-0.3,0.3c-0.1,0.1-0.2,0.3-0.2,0.5c-0.1,0.2-0.1,0.4-0.1,0.7c0,0.5,0.1,0.9,0.3,1.2c0.2,0.3,0.4,0.4,0.8,0.4
		c0.2,0,0.3,0,0.5-0.1s0.3-0.2,0.4-0.3l0.3,0.4c-0.2,0.2-0.3,0.3-0.5,0.4c-0.2,0.1-0.4,0.1-0.7,0.1c-0.2,0-0.4,0-0.6-0.1
		c-0.2-0.1-0.4-0.2-0.5-0.4s-0.3-0.4-0.4-0.6c-0.1-0.3-0.1-0.6-0.1-0.9c0-0.4,0-0.7,0.1-0.9c0.1-0.3,0.2-0.5,0.4-0.6
		s0.3-0.3,0.5-0.4c0.2-0.1,0.4-0.1,0.6-0.1c0.3,0,0.5,0,0.7,0.1c0.2,0.1,0.4,0.2,0.5,0.3L140.8,2.3z"/>
	<path id="XMLID_173_" class="st0" d="M142.1,5.5V0.3l0.5-0.3v5.5H142.1z"/>
	<path id="XMLID_170_" class="st0" d="M144.5,0.4c0,0.1,0,0.2-0.1,0.3c-0.1,0.1-0.2,0.1-0.3,0.1c-0.1,0-0.2,0-0.3-0.1
		c-0.1-0.1-0.1-0.2-0.1-0.3c0-0.1,0-0.2,0.1-0.3c0.1-0.1,0.2-0.1,0.3-0.1c0.1,0,0.2,0,0.3,0.1C144.5,0.2,144.5,0.3,144.5,0.4z
		 M143.9,5.5v-4h0.5v4H143.9z"/>
	<path id="XMLID_168_" class="st0" d="M148,5.5V3.2c0-0.4-0.1-0.7-0.2-0.9c-0.1-0.2-0.4-0.3-0.7-0.3c-0.3,0-0.5,0.1-0.7,0.3
		c-0.2,0.2-0.3,0.5-0.3,0.9v2.3h-0.5v-4h0.5l0,0.5c0.1-0.2,0.3-0.3,0.4-0.4s0.4-0.2,0.6-0.2c0.2,0,0.4,0,0.5,0.1
		c0.2,0.1,0.3,0.2,0.4,0.3c0.1,0.1,0.2,0.3,0.3,0.5c0.1,0.2,0.1,0.4,0.1,0.7v2.4H148z"/>
	<path id="XMLID_165_" class="st0" d="M150.4,0.4c0,0.1,0,0.2-0.1,0.3c-0.1,0.1-0.2,0.1-0.3,0.1c-0.1,0-0.2,0-0.3-0.1
		c-0.1-0.1-0.1-0.2-0.1-0.3c0-0.1,0-0.2,0.1-0.3c0.1-0.1,0.2-0.1,0.3-0.1c0.1,0,0.2,0,0.3,0.1C150.3,0.2,150.4,0.3,150.4,0.4z
		 M149.7,5.5v-4h0.5v4H149.7z"/>
	<path id="XMLID_163_" class="st0" d="M153.7,2.3c-0.1-0.1-0.3-0.2-0.4-0.3c-0.1-0.1-0.3-0.1-0.5-0.1c-0.1,0-0.3,0-0.4,0.1
		c-0.1,0.1-0.2,0.2-0.3,0.3c-0.1,0.1-0.2,0.3-0.2,0.5c-0.1,0.2-0.1,0.4-0.1,0.7c0,0.5,0.1,0.9,0.3,1.2c0.2,0.3,0.4,0.4,0.8,0.4
		c0.2,0,0.3,0,0.5-0.1s0.3-0.2,0.4-0.3l0.3,0.4c-0.2,0.2-0.3,0.3-0.5,0.4c-0.2,0.1-0.4,0.1-0.7,0.1c-0.2,0-0.4,0-0.6-0.1
		c-0.2-0.1-0.4-0.2-0.5-0.4s-0.3-0.4-0.4-0.6c-0.1-0.3-0.1-0.6-0.1-0.9c0-0.4,0-0.7,0.1-0.9c0.1-0.3,0.2-0.5,0.4-0.6
		s0.3-0.3,0.5-0.4c0.2-0.1,0.4-0.1,0.6-0.1c0.3,0,0.5,0,0.7,0.1c0.2,0.1,0.4,0.2,0.5,0.3L153.7,2.3z"/>
	<path id="XMLID_160_" class="st0" d="M157,5.5V5c-0.1,0.2-0.3,0.3-0.5,0.4s-0.4,0.2-0.7,0.2c-0.1,0-0.3,0-0.4-0.1
		c-0.1,0-0.3-0.1-0.4-0.2s-0.2-0.2-0.3-0.4s-0.1-0.4-0.1-0.6c0-0.2,0-0.4,0.1-0.6s0.2-0.3,0.3-0.4c0.1-0.1,0.3-0.2,0.5-0.2
		s0.4-0.1,0.5-0.1c0.2,0,0.4,0,0.5,0.1c0.2,0,0.3,0.1,0.4,0.2V2.8c0-0.6-0.3-0.9-0.8-0.9c-0.2,0-0.4,0-0.5,0.1
		c-0.2,0.1-0.3,0.1-0.5,0.2L155,1.8c0.2-0.1,0.4-0.2,0.6-0.2c0.2-0.1,0.4-0.1,0.7-0.1c0.4,0,0.7,0.1,1,0.3s0.4,0.5,0.4,1v2.8H157z
		 M157,3.7c-0.1-0.1-0.3-0.1-0.4-0.2c-0.1,0-0.3-0.1-0.6-0.1c-0.3,0-0.5,0.1-0.6,0.2s-0.2,0.3-0.2,0.6c0,0.3,0.1,0.5,0.2,0.6
		c0.1,0.1,0.3,0.2,0.6,0.2c0.2,0,0.5-0.1,0.6-0.2c0.2-0.1,0.3-0.3,0.4-0.4V3.7z"/>
	<path id="XMLID_158_" class="st0" d="M158.8,5.5V0.3l0.5-0.3v5.5H158.8z"/>
	<path id="XMLID_155_" class="st0" d="M165.9,1.8c0,0.3,0,0.5-0.1,0.7c-0.1,0.2-0.2,0.4-0.3,0.5c-0.1,0.1-0.3,0.2-0.5,0.3
		c-0.2,0.1-0.4,0.1-0.7,0.1H163v2.1h-0.6V0.2h1.9c0.2,0,0.4,0,0.6,0.1c0.2,0.1,0.4,0.2,0.5,0.3c0.1,0.1,0.3,0.3,0.3,0.5
		S165.9,1.5,165.9,1.8z M165.4,1.8c0-0.3-0.1-0.6-0.3-0.8c-0.2-0.2-0.4-0.3-0.8-0.3H163v2.1h1.2C165,2.9,165.4,2.5,165.4,1.8z"/>
	<path id="XMLID_153_" class="st0" d="M168.7,2.1c-0.1,0-0.2-0.1-0.2-0.1c-0.1,0-0.2,0-0.3,0c-0.3,0-0.5,0.1-0.6,0.3
		s-0.2,0.5-0.2,0.9v2.3h-0.5v-4h0.5V2c0.1-0.2,0.2-0.3,0.4-0.4s0.4-0.2,0.6-0.2c0.1,0,0.3,0,0.3,0s0.2,0,0.2,0.1L168.7,2.1z"/>
	<path id="XMLID_150_" class="st0" d="M172.6,3.5c0,0.3,0,0.6-0.1,0.9c-0.1,0.3-0.2,0.5-0.4,0.7c-0.1,0.2-0.3,0.3-0.5,0.4
		c-0.2,0.1-0.4,0.1-0.6,0.1s-0.4,0-0.6-0.1c-0.2-0.1-0.4-0.2-0.5-0.4c-0.1-0.2-0.3-0.4-0.3-0.6c-0.1-0.3-0.1-0.6-0.1-0.9
		c0-0.3,0-0.6,0.1-0.9s0.2-0.5,0.4-0.6c0.1-0.2,0.3-0.3,0.5-0.4c0.2-0.1,0.4-0.1,0.6-0.1s0.4,0,0.6,0.1c0.2,0.1,0.4,0.2,0.5,0.4
		c0.1,0.2,0.3,0.4,0.3,0.6C172.6,2.9,172.6,3.1,172.6,3.5z M172.1,3.5c0-0.5-0.1-0.9-0.3-1.2s-0.5-0.4-0.8-0.4s-0.6,0.1-0.8,0.4
		c-0.2,0.3-0.3,0.7-0.3,1.2c0,0.5,0.1,0.9,0.3,1.2c0.2,0.3,0.5,0.4,0.8,0.4s0.6-0.1,0.8-0.4S172.1,4,172.1,3.5z"/>
	<path id="XMLID_146_" class="st0" d="M175.1,0.6c-0.1-0.1-0.3-0.1-0.4-0.1c-0.1,0-0.2,0-0.3,0.1c-0.1,0.1-0.1,0.2-0.1,0.3v0.6h0.7
		V2h-0.7v3.5h-0.5V2h-0.5V1.5h0.5V1c0-0.4,0.1-0.6,0.2-0.7s0.4-0.2,0.6-0.2c0.1,0,0.2,0,0.3,0c0.1,0,0.1,0,0.2,0.1V0.6z M176.7,0.4
		c0,0.1,0,0.2-0.1,0.3s-0.2,0.1-0.3,0.1c-0.1,0-0.2,0-0.3-0.1s-0.1-0.2-0.1-0.3c0-0.1,0-0.2,0.1-0.3c0.1-0.1,0.2-0.1,0.3-0.1
		c0.1,0,0.2,0,0.3,0.1C176.6,0.2,176.7,0.3,176.7,0.4z M176,5.5v-4h0.5v4H176z"/>
	<path id="XMLID_144_" class="st0" d="M177.8,5.5V0.3l0.5-0.3v5.5H177.8z"/>
	<path id="XMLID_141_" class="st0" d="M182.4,3.4c0,0.1,0,0.1,0,0.2c0,0,0,0.1,0,0.1h-2.5c0,0.4,0.1,0.8,0.3,1
		c0.2,0.2,0.4,0.4,0.7,0.4c0.2,0,0.4,0,0.6-0.1c0.2-0.1,0.3-0.2,0.5-0.3l0.3,0.4c-0.1,0.1-0.2,0.1-0.3,0.2c-0.1,0.1-0.2,0.1-0.3,0.1
		c-0.1,0-0.2,0.1-0.3,0.1c-0.1,0-0.2,0-0.4,0c-0.2,0-0.3,0-0.5-0.1c-0.2-0.1-0.3-0.2-0.5-0.4s-0.3-0.4-0.4-0.6
		c-0.1-0.3-0.1-0.6-0.1-1c0-0.3,0-0.6,0.1-0.9c0.1-0.3,0.2-0.5,0.3-0.6c0.1-0.2,0.3-0.3,0.5-0.4c0.2-0.1,0.4-0.1,0.6-0.1
		c0.2,0,0.5,0,0.6,0.1s0.3,0.2,0.5,0.4c0.1,0.2,0.2,0.4,0.3,0.6S182.4,3.1,182.4,3.4z M181.9,3.2c0-0.4-0.1-0.7-0.3-0.9
		c-0.2-0.2-0.4-0.4-0.7-0.4c-0.3,0-0.5,0.1-0.7,0.3c-0.2,0.2-0.3,0.5-0.3,1H181.9z"/>
	<path id="XMLID_138_" class="st0" d="M188.4,3.5c0,0.3,0,0.6-0.1,0.9c-0.1,0.3-0.2,0.5-0.4,0.7c-0.1,0.2-0.3,0.3-0.5,0.4
		c-0.2,0.1-0.4,0.1-0.6,0.1s-0.4,0-0.6-0.1c-0.2-0.1-0.4-0.2-0.5-0.4c-0.1-0.2-0.3-0.4-0.3-0.6c-0.1-0.3-0.1-0.6-0.1-0.9
		c0-0.3,0-0.6,0.1-0.9s0.2-0.5,0.4-0.6c0.1-0.2,0.3-0.3,0.5-0.4c0.2-0.1,0.4-0.1,0.6-0.1s0.4,0,0.6,0.1c0.2,0.1,0.4,0.2,0.5,0.4
		c0.1,0.2,0.3,0.4,0.3,0.6C188.3,2.9,188.4,3.1,188.4,3.5z M187.8,3.5c0-0.5-0.1-0.9-0.3-1.2s-0.5-0.4-0.8-0.4s-0.6,0.1-0.8,0.4
		c-0.2,0.3-0.3,0.7-0.3,1.2c0,0.5,0.1,0.9,0.3,1.2c0.2,0.3,0.5,0.4,0.8,0.4s0.6-0.1,0.8-0.4S187.8,4,187.8,3.5z"/>
	<path id="XMLID_136_" class="st0" d="M190.4,0.5c-0.1,0-0.2,0-0.3,0.1S190,0.8,190,0.9v0.6h0.7V2H190v3.5h-0.5V2H189V1.5h0.5V1
		c0-0.4,0.1-0.6,0.3-0.7c0.2-0.1,0.4-0.2,0.6-0.2c0.1,0,0.2,0,0.3,0c0.1,0,0.1,0,0.2,0.1v0.5C190.7,0.6,190.6,0.5,190.4,0.5z"/>
	<path id="XMLID_133_" class="st0" d="M195.8,5.5V5c-0.1,0.2-0.3,0.3-0.5,0.4s-0.4,0.2-0.7,0.2c-0.1,0-0.3,0-0.4-0.1
		c-0.1,0-0.3-0.1-0.4-0.2s-0.2-0.2-0.3-0.4s-0.1-0.4-0.1-0.6c0-0.2,0-0.4,0.1-0.6s0.2-0.3,0.3-0.4c0.1-0.1,0.3-0.2,0.5-0.2
		s0.4-0.1,0.5-0.1c0.2,0,0.4,0,0.5,0.1c0.2,0,0.3,0.1,0.4,0.2V2.8c0-0.6-0.3-0.9-0.8-0.9c-0.2,0-0.4,0-0.5,0.1
		c-0.2,0.1-0.3,0.1-0.5,0.2l-0.2-0.5c0.2-0.1,0.4-0.2,0.6-0.2c0.2-0.1,0.4-0.1,0.7-0.1c0.4,0,0.7,0.1,1,0.3s0.4,0.5,0.4,1v2.8H195.8
		z M195.8,3.7c-0.1-0.1-0.3-0.1-0.4-0.2c-0.1,0-0.3-0.1-0.6-0.1c-0.3,0-0.5,0.1-0.6,0.2S194,4,194,4.3c0,0.3,0.1,0.5,0.2,0.6
		c0.1,0.1,0.3,0.2,0.6,0.2c0.2,0,0.5-0.1,0.6-0.2c0.2-0.1,0.3-0.3,0.4-0.4V3.7z"/>
	<path id="XMLID_131_" class="st0" d="M202.5,5.5l-2.2-3.6c0,0-0.1-0.1-0.1-0.2c0-0.1-0.1-0.1-0.1-0.2c0-0.1-0.1-0.1-0.1-0.2
		S200,1.3,200,1.2v0.4v3.9h-0.5V0.2h0.5l2.2,3.7c0,0,0.1,0.1,0.1,0.2c0,0.1,0.1,0.1,0.1,0.2c0,0.1,0.1,0.1,0.1,0.2
		c0,0.1,0.1,0.1,0.1,0.1V4.2v-4h0.5v5.3H202.5z"/>
	<path id="XMLID_128_" class="st0" d="M207.3,3.5c0,0.3,0,0.6-0.1,0.9c-0.1,0.3-0.2,0.5-0.4,0.7c-0.1,0.2-0.3,0.3-0.5,0.4
		c-0.2,0.1-0.4,0.1-0.6,0.1s-0.4,0-0.6-0.1c-0.2-0.1-0.4-0.2-0.5-0.4c-0.1-0.2-0.3-0.4-0.3-0.6c-0.1-0.3-0.1-0.6-0.1-0.9
		c0-0.3,0-0.6,0.1-0.9s0.2-0.5,0.4-0.6c0.1-0.2,0.3-0.3,0.5-0.4c0.2-0.1,0.4-0.1,0.6-0.1s0.4,0,0.6,0.1c0.2,0.1,0.4,0.2,0.5,0.4
		c0.1,0.2,0.3,0.4,0.3,0.6C207.3,2.9,207.3,3.1,207.3,3.5z M206.8,3.5c0-0.5-0.1-0.9-0.3-1.2s-0.5-0.4-0.8-0.4s-0.6,0.1-0.8,0.4
		c-0.2,0.3-0.3,0.7-0.3,1.2c0,0.5,0.1,0.9,0.3,1.2c0.2,0.3,0.5,0.4,0.8,0.4s0.6-0.1,0.8-0.4S206.8,4,206.8,3.5z"/>
	<path id="XMLID_126_" class="st0" d="M209.7,5.5h-0.5l-1.3-4h0.6l1,3.1l0.1,0.2l0.1-0.2l1-3.1h0.6L209.7,5.5z"/>
	<path id="XMLID_123_" class="st0" d="M214.7,3.4c0,0.1,0,0.1,0,0.2c0,0,0,0.1,0,0.1h-2.5c0,0.4,0.1,0.8,0.3,1
		c0.2,0.2,0.4,0.4,0.7,0.4c0.2,0,0.4,0,0.6-0.1c0.2-0.1,0.3-0.2,0.5-0.3l0.3,0.4c-0.1,0.1-0.2,0.1-0.3,0.2c-0.1,0.1-0.2,0.1-0.3,0.1
		c-0.1,0-0.2,0.1-0.3,0.1c-0.1,0-0.2,0-0.4,0c-0.2,0-0.3,0-0.5-0.1c-0.2-0.1-0.3-0.2-0.5-0.4s-0.3-0.4-0.4-0.6
		c-0.1-0.3-0.1-0.6-0.1-1c0-0.3,0-0.6,0.1-0.9c0.1-0.3,0.2-0.5,0.3-0.6c0.1-0.2,0.3-0.3,0.5-0.4c0.2-0.1,0.4-0.1,0.6-0.1
		c0.2,0,0.5,0,0.6,0.1s0.3,0.2,0.5,0.4c0.1,0.2,0.2,0.4,0.3,0.6S214.7,3.1,214.7,3.4z M214.2,3.2c0-0.4-0.1-0.7-0.3-0.9
		c-0.2-0.2-0.4-0.4-0.7-0.4c-0.3,0-0.5,0.1-0.7,0.3c-0.2,0.2-0.3,0.5-0.3,1H214.2z"/>
	<path id="XMLID_121_" class="st0" d="M215.7,5.5V0.3l0.5-0.3v5.5H215.7z"/>
	<path id="XMLID_118_" class="st0" d="M222.6,5.5l-0.4-1.3h-2.1l-0.4,1.3h-0.6l1.7-5.3h0.6l1.7,5.3H222.6z M221.5,1.9
		c0-0.1-0.1-0.2-0.1-0.3c0-0.1-0.1-0.2-0.1-0.3s-0.1-0.2-0.1-0.3c0-0.1,0-0.2-0.1-0.2c0,0.1,0,0.1-0.1,0.2c0,0.1,0,0.2-0.1,0.3
		c0,0.1-0.1,0.2-0.1,0.3c0,0.1-0.1,0.2-0.1,0.3l-0.6,1.7h1.7L221.5,1.9z"/>
	<path id="XMLID_116_" class="st0" d="M226.5,5.5V3.2c0-0.4-0.1-0.7-0.2-0.9c-0.1-0.2-0.4-0.3-0.7-0.3c-0.3,0-0.5,0.1-0.7,0.3
		c-0.2,0.2-0.3,0.5-0.3,0.9v2.3h-0.5v-4h0.5l0,0.5c0.1-0.2,0.3-0.3,0.4-0.4s0.4-0.2,0.6-0.2c0.2,0,0.4,0,0.5,0.1
		c0.2,0.1,0.3,0.2,0.4,0.3c0.1,0.1,0.2,0.3,0.3,0.5c0.1,0.2,0.1,0.4,0.1,0.7v2.4H226.5z"/>
	<path id="XMLID_114_" class="st0" d="M228.9,2v2.6c0,0.2,0,0.3,0.1,0.4c0.1,0.1,0.2,0.1,0.3,0.1c0.1,0,0.2,0,0.3,0
		c0.1,0,0.2,0,0.2-0.1l0,0.5c-0.1,0-0.2,0.1-0.3,0.1s-0.2,0-0.4,0c-0.2,0-0.4-0.1-0.5-0.2c-0.1-0.1-0.2-0.4-0.2-0.7V2h-0.5V1.5h0.5
		V0.3l0.5-0.3v1.5h0.9V2H228.9z"/>
	<path id="XMLID_111_" class="st0" d="M231.6,0.4c0,0.1,0,0.2-0.1,0.3c-0.1,0.1-0.2,0.1-0.3,0.1c-0.1,0-0.2,0-0.3-0.1
		c-0.1-0.1-0.1-0.2-0.1-0.3c0-0.1,0-0.2,0.1-0.3c0.1-0.1,0.2-0.1,0.3-0.1c0.1,0,0.2,0,0.3,0.1C231.5,0.2,231.6,0.3,231.6,0.4z
		 M230.9,5.5v-4h0.5v4H230.9z"/>
	<path id="XMLID_109_" class="st0" d="M234.9,2.3c-0.1-0.1-0.3-0.2-0.4-0.3c-0.1-0.1-0.3-0.1-0.5-0.1c-0.1,0-0.3,0-0.4,0.1
		c-0.1,0.1-0.2,0.2-0.3,0.3c-0.1,0.1-0.2,0.3-0.2,0.5C233,3,233,3.2,233,3.5c0,0.5,0.1,0.9,0.3,1.2c0.2,0.3,0.4,0.4,0.8,0.4
		c0.2,0,0.3,0,0.5-0.1s0.3-0.2,0.4-0.3l0.3,0.4c-0.2,0.2-0.3,0.3-0.5,0.4c-0.2,0.1-0.4,0.1-0.7,0.1c-0.2,0-0.4,0-0.6-0.1
		c-0.2-0.1-0.4-0.2-0.5-0.4s-0.3-0.4-0.4-0.6c-0.1-0.3-0.1-0.6-0.1-0.9c0-0.4,0-0.7,0.1-0.9c0.1-0.3,0.2-0.5,0.4-0.6
		s0.3-0.3,0.5-0.4c0.2-0.1,0.4-0.1,0.6-0.1c0.3,0,0.5,0,0.7,0.1c0.2,0.1,0.4,0.2,0.5,0.3L234.9,2.3z"/>
	<path id="XMLID_106_" class="st0" d="M239.2,3.5c0,0.3,0,0.6-0.1,0.9c-0.1,0.3-0.2,0.5-0.4,0.7c-0.1,0.2-0.3,0.3-0.5,0.4
		c-0.2,0.1-0.4,0.1-0.6,0.1s-0.4,0-0.6-0.1c-0.2-0.1-0.4-0.2-0.5-0.4c-0.1-0.2-0.3-0.4-0.3-0.6c-0.1-0.3-0.1-0.6-0.1-0.9
		c0-0.3,0-0.6,0.1-0.9s0.2-0.5,0.4-0.6c0.1-0.2,0.3-0.3,0.5-0.4c0.2-0.1,0.4-0.1,0.6-0.1s0.4,0,0.6,0.1c0.2,0.1,0.4,0.2,0.5,0.4
		c0.1,0.2,0.3,0.4,0.3,0.6C239.1,2.9,239.2,3.1,239.2,3.5z M238.6,3.5c0-0.5-0.1-0.9-0.3-1.2s-0.5-0.4-0.8-0.4s-0.6,0.1-0.8,0.4
		c-0.2,0.3-0.3,0.7-0.3,1.2c0,0.5,0.1,0.9,0.3,1.2c0.2,0.3,0.5,0.4,0.8,0.4s0.6-0.1,0.8-0.4S238.6,4,238.6,3.5z"/>
	<path id="XMLID_104_" class="st0" d="M242.5,5.5V3.2c0-0.4-0.1-0.7-0.2-0.9c-0.1-0.2-0.4-0.3-0.7-0.3c-0.3,0-0.5,0.1-0.7,0.3
		c-0.2,0.2-0.3,0.5-0.3,0.9v2.3h-0.5v-4h0.5l0,0.5c0.1-0.2,0.3-0.3,0.4-0.4s0.4-0.2,0.6-0.2c0.2,0,0.4,0,0.5,0.1
		c0.2,0.1,0.3,0.2,0.4,0.3c0.1,0.1,0.2,0.3,0.3,0.5c0.1,0.2,0.1,0.4,0.1,0.7v2.4H242.5z"/>
	<path id="XMLID_102_" class="st0" d="M245.5,5.5h-0.5l-1.3-4h0.6l1,3.1l0.1,0.2l0.1-0.2l1-3.1h0.6L245.5,5.5z"/>
	<path id="XMLID_100_" class="st0" d="M250.1,5.5V5c-0.1,0.2-0.3,0.3-0.4,0.4s-0.4,0.2-0.6,0.2c-0.2,0-0.4,0-0.5-0.1
		s-0.3-0.2-0.4-0.3s-0.2-0.3-0.3-0.5c-0.1-0.2-0.1-0.4-0.1-0.7V1.5h0.5v2.3c0,0.4,0.1,0.7,0.2,0.9c0.1,0.2,0.4,0.3,0.7,0.3
		c0.3,0,0.5-0.1,0.7-0.3c0.2-0.2,0.3-0.5,0.3-0.9V1.5h0.5v4H250.1z"/>
	<path id="XMLID_98_" class="st0" d="M251.8,5.5V0.3l0.5-0.3v5.5H251.8z"/>
	<path id="XMLID_96_" class="st0" d="M255.9,4.5c0,0.2,0,0.4-0.1,0.5s-0.2,0.3-0.3,0.3s-0.3,0.2-0.4,0.2c-0.2,0-0.3,0.1-0.5,0.1
		c-0.3,0-0.5,0-0.7-0.1s-0.4-0.2-0.6-0.4l0.3-0.4c0.2,0.1,0.3,0.2,0.5,0.3c0.2,0.1,0.4,0.1,0.5,0.1c0.3,0,0.4-0.1,0.6-0.2
		s0.2-0.3,0.2-0.4c0-0.1,0-0.2,0-0.2c0-0.1-0.1-0.1-0.2-0.2c-0.1-0.1-0.2-0.1-0.3-0.2c-0.1-0.1-0.3-0.1-0.4-0.2
		c-0.2-0.1-0.3-0.2-0.5-0.2c-0.1-0.1-0.2-0.2-0.3-0.3s-0.1-0.2-0.2-0.3c0-0.1-0.1-0.2-0.1-0.4c0-0.2,0-0.3,0.1-0.4
		c0.1-0.1,0.1-0.2,0.2-0.3s0.2-0.2,0.4-0.2c0.1,0,0.3-0.1,0.5-0.1c0.3,0,0.5,0,0.7,0.1s0.4,0.2,0.5,0.3l-0.3,0.4
		c-0.1-0.1-0.3-0.2-0.4-0.3c-0.1-0.1-0.3-0.1-0.5-0.1s-0.4,0-0.5,0.1S254,2.3,254,2.4c0,0.1,0,0.2,0,0.2c0,0.1,0.1,0.1,0.1,0.2
		s0.2,0.1,0.3,0.2c0.1,0.1,0.2,0.1,0.4,0.2c0.2,0.1,0.3,0.2,0.5,0.2s0.3,0.2,0.4,0.3c0.1,0.1,0.2,0.2,0.2,0.3
		C255.9,4.1,255.9,4.3,255.9,4.5z"/>
	<path id="XMLID_93_" class="st0" d="M259.1,5.5V5c-0.1,0.2-0.3,0.3-0.5,0.4s-0.4,0.2-0.7,0.2c-0.1,0-0.3,0-0.4-0.1
		c-0.1,0-0.3-0.1-0.4-0.2s-0.2-0.2-0.3-0.4s-0.1-0.4-0.1-0.6c0-0.2,0-0.4,0.1-0.6s0.2-0.3,0.3-0.4c0.1-0.1,0.3-0.2,0.5-0.2
		s0.4-0.1,0.5-0.1c0.2,0,0.4,0,0.5,0.1c0.2,0,0.3,0.1,0.4,0.2V2.8c0-0.6-0.3-0.9-0.8-0.9c-0.2,0-0.4,0-0.5,0.1
		c-0.2,0.1-0.3,0.1-0.5,0.2L257,1.8c0.2-0.1,0.4-0.2,0.6-0.2c0.2-0.1,0.4-0.1,0.7-0.1c0.4,0,0.7,0.1,1,0.3s0.4,0.5,0.4,1v2.8H259.1z
		 M259.1,3.7c-0.1-0.1-0.3-0.1-0.4-0.2c-0.1,0-0.3-0.1-0.6-0.1c-0.3,0-0.5,0.1-0.6,0.2s-0.2,0.3-0.2,0.6c0,0.3,0.1,0.5,0.2,0.6
		c0.1,0.1,0.3,0.2,0.6,0.2c0.2,0,0.5-0.1,0.6-0.2c0.2-0.1,0.3-0.3,0.4-0.4V3.7z"/>
	<path id="XMLID_91_" class="st0" d="M263.1,5.5V3.2c0-0.4-0.1-0.7-0.2-0.9c-0.1-0.2-0.4-0.3-0.7-0.3c-0.3,0-0.5,0.1-0.7,0.3
		c-0.2,0.2-0.3,0.5-0.3,0.9v2.3h-0.5v-4h0.5l0,0.5c0.1-0.2,0.3-0.3,0.4-0.4s0.4-0.2,0.6-0.2c0.2,0,0.4,0,0.5,0.1
		c0.2,0.1,0.3,0.2,0.4,0.3c0.1,0.1,0.2,0.3,0.3,0.5c0.1,0.2,0.1,0.4,0.1,0.7v2.4H263.1z"/>
	<path id="XMLID_89_" class="st0" d="M265.5,2v2.6c0,0.2,0,0.3,0.1,0.4c0.1,0.1,0.2,0.1,0.3,0.1c0.1,0,0.2,0,0.3,0
		c0.1,0,0.2,0,0.2-0.1l0,0.5c-0.1,0-0.2,0.1-0.3,0.1s-0.2,0-0.4,0c-0.2,0-0.4-0.1-0.5-0.2c-0.1-0.1-0.2-0.4-0.2-0.7V2h-0.5V1.5h0.5
		V0.3l0.5-0.3v1.5h0.9V2H265.5z"/>
	<path id="XMLID_86_" class="st0" d="M273,2.8c0,0.5-0.1,0.9-0.2,1.2c-0.1,0.3-0.3,0.6-0.5,0.8c-0.2,0.2-0.5,0.4-0.8,0.5
		c-0.3,0.1-0.6,0.1-0.9,0.1h-1.2V0.2h1.3c0.3,0,0.6,0.1,0.9,0.2c0.3,0.1,0.5,0.3,0.7,0.5c0.2,0.2,0.4,0.5,0.5,0.8S273,2.4,273,2.8z
		 M272.4,2.8c0-0.7-0.1-1.2-0.5-1.6s-0.7-0.5-1.3-0.5h-0.7V5h0.7c0.3,0,0.5,0,0.7-0.1c0.2-0.1,0.4-0.2,0.6-0.4
		c0.2-0.2,0.3-0.4,0.4-0.7S272.4,3.2,272.4,2.8z"/>
	<path id="XMLID_84_" class="st0" d="M275.9,2.1c-0.1,0-0.2-0.1-0.2-0.1c-0.1,0-0.2,0-0.3,0c-0.3,0-0.5,0.1-0.6,0.3
		s-0.2,0.5-0.2,0.9v2.3H274v-4h0.5V2c0.1-0.2,0.2-0.3,0.4-0.4s0.4-0.2,0.6-0.2c0.1,0,0.3,0,0.3,0s0.2,0,0.2,0.1L275.9,2.1z"/>
	<path id="XMLID_82_" class="st0" d="M279.3,5.5V5c-0.1,0.2-0.3,0.3-0.4,0.4s-0.4,0.2-0.6,0.2c-0.2,0-0.4,0-0.5-0.1
		s-0.3-0.2-0.4-0.3s-0.2-0.3-0.3-0.5c-0.1-0.2-0.1-0.4-0.1-0.7V1.5h0.5v2.3c0,0.4,0.1,0.7,0.2,0.9c0.1,0.2,0.4,0.3,0.7,0.3
		c0.3,0,0.5-0.1,0.7-0.3c0.2-0.2,0.3-0.5,0.3-0.9V1.5h0.5v4H279.3z"/>
	<path id="XMLID_79_" class="st0" d="M283.8,5.1c0,0.3,0,0.6-0.1,0.8c-0.1,0.2-0.2,0.4-0.3,0.6s-0.3,0.3-0.6,0.3
		c-0.2,0.1-0.5,0.1-0.9,0.1l-0.2-0.4c0.3,0,0.6,0,0.8-0.1s0.4-0.1,0.5-0.2s0.2-0.2,0.2-0.4c0-0.2,0.1-0.4,0.1-0.6V5
		c-0.1,0.2-0.3,0.3-0.5,0.4c-0.2,0.1-0.4,0.2-0.7,0.2c-0.2,0-0.4,0-0.5-0.1c-0.2-0.1-0.3-0.2-0.4-0.4c-0.1-0.2-0.2-0.4-0.3-0.6
		s-0.1-0.6-0.1-0.9c0-0.4,0-0.7,0.1-0.9c0.1-0.3,0.2-0.5,0.3-0.7c0.1-0.2,0.3-0.3,0.5-0.4s0.4-0.1,0.6-0.1c0.2,0,0.4,0,0.6,0.1
		s0.3,0.2,0.5,0.4V1.5h0.5V5.1z M283.3,2.5c-0.1-0.2-0.2-0.3-0.4-0.4c-0.2-0.1-0.4-0.2-0.6-0.2c-0.3,0-0.5,0.1-0.7,0.4
		c-0.2,0.3-0.2,0.7-0.2,1.2c0,0.5,0.1,0.9,0.3,1.1s0.4,0.4,0.7,0.4c0.2,0,0.4-0.1,0.5-0.2c0.2-0.1,0.3-0.2,0.4-0.4V2.5z"/>
	<path id="XMLID_77_" class="st0" d="M285.7,5.1c0,0.1,0,0.2-0.1,0.3c-0.1,0.1-0.2,0.1-0.3,0.1s-0.2,0-0.3-0.1
		c-0.1-0.1-0.1-0.2-0.1-0.3s0-0.2,0.1-0.3c0.1-0.1,0.2-0.2,0.3-0.2s0.2,0.1,0.3,0.2C285.7,4.8,285.7,5,285.7,5.1z"/>
	<path id="XMLID_74_" class="st0" d="M291.4,3.4c0,0.1,0,0.1,0,0.2c0,0,0,0.1,0,0.1h-2.5c0,0.4,0.1,0.8,0.3,1
		c0.2,0.2,0.4,0.4,0.7,0.4c0.2,0,0.4,0,0.6-0.1c0.2-0.1,0.3-0.2,0.5-0.3l0.3,0.4c-0.1,0.1-0.2,0.1-0.3,0.2c-0.1,0.1-0.2,0.1-0.3,0.1
		c-0.1,0-0.2,0.1-0.3,0.1c-0.1,0-0.2,0-0.4,0c-0.2,0-0.3,0-0.5-0.1c-0.2-0.1-0.3-0.2-0.5-0.4s-0.3-0.4-0.4-0.6
		c-0.1-0.3-0.1-0.6-0.1-1c0-0.3,0-0.6,0.1-0.9c0.1-0.3,0.2-0.5,0.3-0.6c0.1-0.2,0.3-0.3,0.5-0.4c0.2-0.1,0.4-0.1,0.6-0.1
		c0.2,0,0.5,0,0.6,0.1s0.3,0.2,0.5,0.4c0.1,0.2,0.2,0.4,0.3,0.6S291.4,3.1,291.4,3.4z M290.9,3.2c0-0.4-0.1-0.7-0.3-0.9
		c-0.2-0.2-0.4-0.4-0.7-0.4c-0.3,0-0.5,0.1-0.7,0.3c-0.2,0.2-0.3,0.5-0.3,1H290.9z"/>
	<path id="XMLID_72_" class="st0" d="M295.6,5.5l-2.2-3.6c0,0-0.1-0.1-0.1-0.2c0-0.1-0.1-0.1-0.1-0.2c0-0.1-0.1-0.1-0.1-0.2
		S293,1.3,293,1.2v0.4v3.9h-0.5V0.2h0.5l2.2,3.7c0,0,0.1,0.1,0.1,0.2c0,0.1,0.1,0.1,0.1,0.2c0,0.1,0.1,0.1,0.1,0.2
		c0,0.1,0.1,0.1,0.1,0.1V4.2v-4h0.5v5.3H295.6z"/>
	<path id="XMLID_70_" class="st0" d="M300.5,4.1c0,0.2,0,0.4-0.1,0.6s-0.2,0.3-0.3,0.5c-0.1,0.1-0.3,0.2-0.5,0.3s-0.4,0.1-0.7,0.1
		c-0.3,0-0.7-0.1-0.9-0.2c-0.3-0.1-0.5-0.3-0.7-0.5l0.4-0.4c0.2,0.2,0.4,0.3,0.6,0.5c0.2,0.1,0.5,0.2,0.7,0.2c0.3,0,0.6-0.1,0.8-0.2
		c0.2-0.2,0.3-0.4,0.3-0.7c0-0.1,0-0.2-0.1-0.3c0-0.1-0.1-0.2-0.2-0.3s-0.2-0.2-0.4-0.3c-0.2-0.1-0.3-0.2-0.6-0.3
		c-0.3-0.1-0.5-0.2-0.7-0.3s-0.3-0.2-0.4-0.3c-0.1-0.1-0.2-0.2-0.2-0.4c0-0.1-0.1-0.3-0.1-0.5c0-0.2,0-0.4,0.1-0.6
		c0.1-0.2,0.2-0.3,0.3-0.4c0.1-0.1,0.3-0.2,0.5-0.3c0.2-0.1,0.4-0.1,0.6-0.1c0.3,0,0.6,0,0.9,0.2s0.5,0.2,0.7,0.4L300,1.2
		c-0.2-0.2-0.4-0.3-0.5-0.4c-0.2-0.1-0.4-0.1-0.7-0.1c-0.2,0-0.3,0-0.4,0.1s-0.2,0.1-0.3,0.2c-0.1,0.1-0.1,0.2-0.2,0.2
		c0,0.1-0.1,0.2-0.1,0.3c0,0.1,0,0.2,0,0.3c0,0.1,0.1,0.2,0.2,0.3c0.1,0.1,0.2,0.2,0.4,0.2c0.2,0.1,0.4,0.2,0.6,0.3
		c0.3,0.1,0.5,0.2,0.7,0.3c0.2,0.1,0.3,0.2,0.4,0.3c0.1,0.1,0.2,0.3,0.2,0.4C300.5,3.7,300.5,3.9,300.5,4.1z"/>
	<path id="XMLID_67_" class="st0" d="M307.1,2.8c0,0.5-0.1,0.9-0.2,1.2c-0.1,0.3-0.3,0.6-0.5,0.8c-0.2,0.2-0.5,0.4-0.8,0.5
		c-0.3,0.1-0.6,0.1-0.9,0.1h-1.2V0.2h1.3c0.3,0,0.6,0.1,0.9,0.2c0.3,0.1,0.5,0.3,0.7,0.5c0.2,0.2,0.4,0.5,0.5,0.8
		S307.1,2.4,307.1,2.8z M306.6,2.8c0-0.7-0.1-1.2-0.5-1.6s-0.7-0.5-1.3-0.5h-0.7V5h0.7c0.3,0,0.5,0,0.7-0.1c0.2-0.1,0.4-0.2,0.6-0.4
		c0.2-0.2,0.3-0.4,0.4-0.7S306.6,3.2,306.6,2.8z"/>
	<path id="XMLID_65_" class="st0" d="M310.1,2.1c-0.1,0-0.2-0.1-0.2-0.1c-0.1,0-0.2,0-0.3,0c-0.3,0-0.5,0.1-0.6,0.3
		s-0.2,0.5-0.2,0.9v2.3h-0.5v-4h0.5V2c0.1-0.2,0.2-0.3,0.4-0.4s0.4-0.2,0.6-0.2c0.1,0,0.3,0,0.3,0s0.2,0,0.2,0.1L310.1,2.1z"/>
	<path id="XMLID_63_" class="st0" d="M313.4,5.5V5c-0.1,0.2-0.3,0.3-0.4,0.4s-0.4,0.2-0.6,0.2c-0.2,0-0.4,0-0.5-0.1
		s-0.3-0.2-0.4-0.3s-0.2-0.3-0.3-0.5c-0.1-0.2-0.1-0.4-0.1-0.7V1.5h0.5v2.3c0,0.4,0.1,0.7,0.2,0.9c0.1,0.2,0.4,0.3,0.7,0.3
		c0.3,0,0.5-0.1,0.7-0.3c0.2-0.2,0.3-0.5,0.3-0.9V1.5h0.5v4H313.4z"/>
	<path id="XMLID_60_" class="st0" d="M317.9,5.1c0,0.3,0,0.6-0.1,0.8c-0.1,0.2-0.2,0.4-0.3,0.6s-0.3,0.3-0.6,0.3
		c-0.2,0.1-0.5,0.1-0.9,0.1l-0.2-0.4c0.3,0,0.6,0,0.8-0.1s0.4-0.1,0.5-0.2s0.2-0.2,0.2-0.4c0-0.2,0.1-0.4,0.1-0.6V5
		c-0.1,0.2-0.3,0.3-0.5,0.4c-0.2,0.1-0.4,0.2-0.7,0.2c-0.2,0-0.4,0-0.5-0.1c-0.2-0.1-0.3-0.2-0.4-0.4c-0.1-0.2-0.2-0.4-0.3-0.6
		s-0.1-0.6-0.1-0.9c0-0.4,0-0.7,0.1-0.9c0.1-0.3,0.2-0.5,0.3-0.7c0.1-0.2,0.3-0.3,0.5-0.4s0.4-0.1,0.6-0.1c0.2,0,0.4,0,0.6,0.1
		s0.3,0.2,0.5,0.4V1.5h0.5V5.1z M317.4,2.5c-0.1-0.2-0.2-0.3-0.4-0.4c-0.2-0.1-0.4-0.2-0.6-0.2c-0.3,0-0.5,0.1-0.7,0.4
		c-0.2,0.3-0.2,0.7-0.2,1.2c0,0.5,0.1,0.9,0.3,1.1s0.4,0.4,0.7,0.4c0.2,0,0.4-0.1,0.5-0.2c0.2-0.1,0.3-0.2,0.4-0.4V2.5z"/>
	<path id="XMLID_57_" class="st0" d="M324.6,1.7c0,0.4-0.1,0.7-0.3,1s-0.5,0.4-0.9,0.5l1.1,2.3h-0.6l-1.1-2.2h-1.2v2.2H321V0.2h2
		c0.2,0,0.4,0,0.6,0.1c0.2,0.1,0.4,0.2,0.5,0.3c0.1,0.1,0.2,0.3,0.3,0.5S324.6,1.5,324.6,1.7z M324,1.7c0-0.3-0.1-0.6-0.3-0.7
		c-0.2-0.2-0.4-0.2-0.8-0.2h-1.4v2h1.3c0.4,0,0.6-0.1,0.8-0.2C323.9,2.3,324,2.1,324,1.7z"/>
	<path id="XMLID_54_" class="st0" d="M328.3,3.4c0,0.1,0,0.1,0,0.2c0,0,0,0.1,0,0.1h-2.5c0,0.4,0.1,0.8,0.3,1
		c0.2,0.2,0.4,0.4,0.7,0.4c0.2,0,0.4,0,0.6-0.1c0.2-0.1,0.3-0.2,0.5-0.3l0.3,0.4c-0.1,0.1-0.2,0.1-0.3,0.2c-0.1,0.1-0.2,0.1-0.3,0.1
		c-0.1,0-0.2,0.1-0.3,0.1c-0.1,0-0.2,0-0.4,0c-0.2,0-0.3,0-0.5-0.1c-0.2-0.1-0.3-0.2-0.5-0.4s-0.3-0.4-0.4-0.6
		c-0.1-0.3-0.1-0.6-0.1-1c0-0.3,0-0.6,0.1-0.9c0.1-0.3,0.2-0.5,0.3-0.6c0.1-0.2,0.3-0.3,0.5-0.4c0.2-0.1,0.4-0.1,0.6-0.1
		c0.2,0,0.5,0,0.6,0.1s0.3,0.2,0.5,0.4c0.1,0.2,0.2,0.4,0.3,0.6S328.3,3.1,328.3,3.4z M327.8,3.2c0-0.4-0.1-0.7-0.3-0.9
		c-0.2-0.2-0.4-0.4-0.7-0.4c-0.3,0-0.5,0.1-0.7,0.3c-0.2,0.2-0.3,0.5-0.3,1H327.8z"/>
	<path id="XMLID_52_" class="st0" d="M330.7,5.5h-0.5l-1.3-4h0.6l1,3.1l0.1,0.2l0.1-0.2l1-3.1h0.6L330.7,5.5z"/>
	<path id="XMLID_49_" class="st0" d="M333.6,0.4c0,0.1,0,0.2-0.1,0.3c-0.1,0.1-0.2,0.1-0.3,0.1c-0.1,0-0.2,0-0.3-0.1
		c-0.1-0.1-0.1-0.2-0.1-0.3c0-0.1,0-0.2,0.1-0.3c0.1-0.1,0.2-0.1,0.3-0.1c0.1,0,0.2,0,0.3,0.1C333.6,0.2,333.6,0.3,333.6,0.4z
		 M333,5.5v-4h0.5v4H333z"/>
	<path id="XMLID_46_" class="st0" d="M337.6,3.4c0,0.1,0,0.1,0,0.2c0,0,0,0.1,0,0.1h-2.5c0,0.4,0.1,0.8,0.3,1
		c0.2,0.2,0.4,0.4,0.7,0.4c0.2,0,0.4,0,0.6-0.1c0.2-0.1,0.3-0.2,0.5-0.3l0.3,0.4c-0.1,0.1-0.2,0.1-0.3,0.2c-0.1,0.1-0.2,0.1-0.3,0.1
		c-0.1,0-0.2,0.1-0.3,0.1c-0.1,0-0.2,0-0.4,0c-0.2,0-0.3,0-0.5-0.1c-0.2-0.1-0.3-0.2-0.5-0.4s-0.3-0.4-0.4-0.6
		c-0.1-0.3-0.1-0.6-0.1-1c0-0.3,0-0.6,0.1-0.9c0.1-0.3,0.2-0.5,0.3-0.6c0.1-0.2,0.3-0.3,0.5-0.4c0.2-0.1,0.4-0.1,0.6-0.1
		c0.2,0,0.5,0,0.6,0.1s0.3,0.2,0.5,0.4c0.1,0.2,0.2,0.4,0.3,0.6S337.6,3.1,337.6,3.4z M337.1,3.2c0-0.4-0.1-0.7-0.3-0.9
		c-0.2-0.2-0.4-0.4-0.7-0.4c-0.3,0-0.5,0.1-0.7,0.3c-0.2,0.2-0.3,0.5-0.3,1H337.1z"/>
	<path id="XMLID_44_" class="st0" d="M341.7,5.5h-0.5l-0.7-2.6c0,0,0-0.1,0-0.1c0,0,0-0.1,0-0.2c0-0.1,0-0.1,0-0.2s0-0.1,0-0.1
		c0,0,0,0.1,0,0.1s0,0.1,0,0.2s0,0.1,0,0.2c0,0,0,0.1,0,0.1l-0.7,2.6h-0.5l-1-4h0.6l0.6,2.6c0,0,0,0.1,0,0.1c0,0,0,0.1,0,0.2
		s0,0.1,0,0.2c0,0.1,0,0.1,0,0.1c0,0,0-0.1,0-0.1c0-0.1,0-0.1,0-0.2c0-0.1,0-0.1,0-0.2c0,0,0-0.1,0-0.1l0.7-2.6h0.5l0.7,2.6
		c0,0,0,0.1,0,0.1c0,0,0,0.1,0,0.2c0,0.1,0,0.1,0,0.2c0,0.1,0,0.1,0,0.1c0,0,0-0.1,0-0.1s0-0.1,0-0.2s0-0.1,0-0.2c0,0,0-0.1,0-0.1
		l0.6-2.6h0.5L341.7,5.5z"/>
	<path id="XMLID_42_" class="st0" d="M345.9,4.5c0,0.2,0,0.4-0.1,0.5s-0.2,0.3-0.3,0.3s-0.3,0.2-0.4,0.2c-0.2,0-0.3,0.1-0.5,0.1
		c-0.3,0-0.5,0-0.7-0.1s-0.4-0.2-0.6-0.4l0.3-0.4c0.2,0.1,0.3,0.2,0.5,0.3c0.2,0.1,0.4,0.1,0.5,0.1c0.3,0,0.4-0.1,0.6-0.2
		s0.2-0.3,0.2-0.4c0-0.1,0-0.2,0-0.2c0-0.1-0.1-0.1-0.2-0.2c-0.1-0.1-0.2-0.1-0.3-0.2c-0.1-0.1-0.3-0.1-0.4-0.2
		c-0.2-0.1-0.3-0.2-0.5-0.2c-0.1-0.1-0.2-0.2-0.3-0.3s-0.1-0.2-0.2-0.3c0-0.1-0.1-0.2-0.1-0.4c0-0.2,0-0.3,0.1-0.4
		c0.1-0.1,0.1-0.2,0.2-0.3s0.2-0.2,0.4-0.2c0.1,0,0.3-0.1,0.5-0.1c0.3,0,0.5,0,0.7,0.1s0.4,0.2,0.5,0.3l-0.3,0.4
		c-0.1-0.1-0.3-0.2-0.4-0.3c-0.1-0.1-0.3-0.1-0.5-0.1s-0.4,0-0.5,0.1s-0.2,0.2-0.2,0.4c0,0.1,0,0.2,0,0.2c0,0.1,0.1,0.1,0.1,0.2
		s0.2,0.1,0.3,0.2c0.1,0.1,0.2,0.1,0.4,0.2c0.2,0.1,0.3,0.2,0.5,0.2s0.3,0.2,0.4,0.3c0.1,0.1,0.2,0.2,0.2,0.3
		C345.8,4.1,345.9,4.3,345.9,4.5z"/>
	<path id="XMLID_40_" class="st0" d="M347.5,5.1c0,0.1,0,0.2-0.1,0.3c-0.1,0.1-0.2,0.1-0.3,0.1s-0.2,0-0.3-0.1
		c-0.1-0.1-0.1-0.2-0.1-0.3s0-0.2,0.1-0.3c0.1-0.1,0.2-0.2,0.3-0.2s0.2,0.1,0.3,0.2C347.5,4.8,347.5,5,347.5,5.1z"/>
	<path id="XMLID_38_" class="st0" d="M352.5,5.5h-0.6l-1.7-5.3h0.6l1.1,3.6c0,0.1,0.1,0.2,0.1,0.3c0,0.1,0.1,0.2,0.1,0.3
		c0,0.1,0.1,0.2,0.1,0.3c0,0.1,0,0.2,0.1,0.2c0,0,0-0.1,0.1-0.2c0-0.1,0.1-0.2,0.1-0.3c0-0.1,0.1-0.2,0.1-0.3c0-0.1,0.1-0.2,0.1-0.3
		l1.1-3.6h0.6L352.5,5.5z"/>
	<path id="XMLID_35_" class="st0" d="M357.8,3.5c0,0.3,0,0.6-0.1,0.9c-0.1,0.3-0.2,0.5-0.4,0.7c-0.1,0.2-0.3,0.3-0.5,0.4
		c-0.2,0.1-0.4,0.1-0.6,0.1s-0.4,0-0.6-0.1c-0.2-0.1-0.4-0.2-0.5-0.4c-0.1-0.2-0.3-0.4-0.3-0.6c-0.1-0.3-0.1-0.6-0.1-0.9
		c0-0.3,0-0.6,0.1-0.9s0.2-0.5,0.4-0.6c0.1-0.2,0.3-0.3,0.5-0.4c0.2-0.1,0.4-0.1,0.6-0.1s0.4,0,0.6,0.1c0.2,0.1,0.4,0.2,0.5,0.4
		c0.1,0.2,0.3,0.4,0.3,0.6C357.7,2.9,357.8,3.1,357.8,3.5z M357.2,3.5c0-0.5-0.1-0.9-0.3-1.2s-0.5-0.4-0.8-0.4s-0.6,0.1-0.8,0.4
		c-0.2,0.3-0.3,0.7-0.3,1.2c0,0.5,0.1,0.9,0.3,1.2c0.2,0.3,0.5,0.4,0.8,0.4s0.6-0.1,0.8-0.4S357.2,4,357.2,3.5z"/>
	<path id="XMLID_33_" class="st0" d="M358.8,5.5V0.3l0.5-0.3v5.5H358.8z"/>
	<path id="XMLID_31_" class="st0" d="M361.3,5.1c0,0.1,0,0.2-0.1,0.3c-0.1,0.1-0.2,0.1-0.3,0.1s-0.2,0-0.3-0.1
		c-0.1-0.1-0.1-0.2-0.1-0.3s0-0.2,0.1-0.3c0.1-0.1,0.2-0.2,0.3-0.2s0.2,0.1,0.3,0.2C361.2,4.8,361.3,5,361.3,5.1z"/>
	<path id="XMLID_29_" class="st0" d="M364.6,5.5V1.3h-0.9V0.9c0.3,0,0.5-0.1,0.7-0.2c0.2-0.1,0.3-0.3,0.3-0.5h0.4v5.3H364.6z"/>
	<path id="XMLID_27_" class="st0" d="M369.3,4c0,0.5-0.2,0.9-0.5,1.2c-0.3,0.3-0.7,0.4-1.3,0.4c-0.2,0-0.3,0-0.5-0.1
		c-0.2,0-0.3-0.1-0.4-0.2c-0.1-0.1-0.3-0.1-0.4-0.2s-0.2-0.2-0.3-0.3l0.4-0.4c0.2,0.2,0.3,0.3,0.5,0.4c0.2,0.1,0.4,0.2,0.7,0.2
		c0.4,0,0.7-0.1,0.9-0.3c0.2-0.2,0.3-0.4,0.3-0.8c0-0.3-0.1-0.6-0.3-0.7S368,3,367.6,3h-0.3V2.5h0.3c0.3,0,0.6-0.1,0.7-0.3
		c0.2-0.2,0.2-0.4,0.2-0.7c0-0.1,0-0.2-0.1-0.4c0-0.1-0.1-0.2-0.2-0.3c-0.1-0.1-0.2-0.1-0.3-0.2c-0.1,0-0.3-0.1-0.5-0.1
		c-0.2,0-0.4,0-0.6,0.1c-0.2,0.1-0.3,0.2-0.4,0.3l-0.4-0.4c0.1-0.1,0.2-0.2,0.3-0.2c0.1-0.1,0.2-0.1,0.3-0.2s0.2-0.1,0.4-0.1
		c0.1,0,0.3-0.1,0.4-0.1c0.2,0,0.4,0,0.6,0.1s0.4,0.1,0.5,0.3c0.1,0.1,0.2,0.3,0.3,0.4s0.1,0.4,0.1,0.6c0,0.3-0.1,0.6-0.2,0.8
		c-0.1,0.2-0.3,0.3-0.5,0.5c0.1,0,0.2,0.1,0.3,0.1s0.2,0.1,0.3,0.2c0.1,0.1,0.1,0.2,0.2,0.4C369.3,3.6,369.3,3.8,369.3,4z"/>
	<path id="XMLID_25_" class="st0" d="M371,5.1c0,0.1,0,0.2-0.1,0.3c-0.1,0.1-0.2,0.1-0.3,0.1s-0.2,0-0.3-0.1
		c-0.1-0.1-0.1-0.2-0.1-0.3s0-0.2,0.1-0.3c0.1-0.1,0.2-0.2,0.3-0.2s0.2,0.1,0.3,0.2C370.9,4.8,371,5,371,5.1z"/>
	<path id="XMLID_23_" class="st0" d="M377,5.5l-2.2-3.6c0,0-0.1-0.1-0.1-0.2c0-0.1-0.1-0.1-0.1-0.2c0-0.1-0.1-0.1-0.1-0.2
		s-0.1-0.1-0.1-0.1v0.4v3.9h-0.5V0.2h0.5l2.2,3.7c0,0,0.1,0.1,0.1,0.2c0,0.1,0.1,0.1,0.1,0.2c0,0.1,0.1,0.1,0.1,0.2
		c0,0.1,0.1,0.1,0.1,0.1V4.2v-4h0.5v5.3H377z"/>
	<path id="XMLID_20_" class="st0" d="M381.8,3.5c0,0.3,0,0.6-0.1,0.9c-0.1,0.3-0.2,0.5-0.4,0.7c-0.1,0.2-0.3,0.3-0.5,0.4
		c-0.2,0.1-0.4,0.1-0.6,0.1s-0.4,0-0.6-0.1c-0.2-0.1-0.4-0.2-0.5-0.4c-0.1-0.2-0.3-0.4-0.3-0.6c-0.1-0.3-0.1-0.6-0.1-0.9
		c0-0.3,0-0.6,0.1-0.9s0.2-0.5,0.4-0.6c0.1-0.2,0.3-0.3,0.5-0.4c0.2-0.1,0.4-0.1,0.6-0.1s0.4,0,0.6,0.1c0.2,0.1,0.4,0.2,0.5,0.4
		c0.1,0.2,0.3,0.4,0.3,0.6C381.8,2.9,381.8,3.1,381.8,3.5z M381.3,3.5c0-0.5-0.1-0.9-0.3-1.2s-0.5-0.4-0.8-0.4s-0.6,0.1-0.8,0.4
		c-0.2,0.3-0.3,0.7-0.3,1.2c0,0.5,0.1,0.9,0.3,1.2c0.2,0.3,0.5,0.4,0.8,0.4s0.6-0.1,0.8-0.4S381.3,4,381.3,3.5z"/>
	<path id="XMLID_18_" class="st0" d="M383.4,5.1c0,0.1,0,0.2-0.1,0.3c-0.1,0.1-0.2,0.1-0.3,0.1s-0.2,0-0.3-0.1
		c-0.1-0.1-0.1-0.2-0.1-0.3s0-0.2,0.1-0.3c0.1-0.1,0.2-0.2,0.3-0.2s0.2,0.1,0.3,0.2C383.3,4.8,383.4,5,383.4,5.1z"/>
	<path id="XMLID_16_" class="st0" d="M384.5,5.5V1.3h-0.9V0.9c0.3,0,0.5-0.1,0.7-0.2c0.2-0.1,0.3-0.3,0.3-0.5h0.4v5.3H384.5z"/>
	<path id="XMLID_14_" class="st0" d="M386.5,6.4h-0.4l0.1-1.8h0.7L386.5,6.4z"/>
	<path id="XMLID_12_" class="st0" d="M389.5,5.5c0-0.3,0.1-0.6,0.1-0.9s0.2-0.5,0.3-0.7s0.3-0.4,0.5-0.5c0.2-0.2,0.4-0.3,0.6-0.5
		c0.2-0.2,0.4-0.3,0.5-0.4s0.3-0.2,0.3-0.3c0.1-0.1,0.1-0.2,0.2-0.3s0-0.2,0-0.3c0-0.3-0.1-0.5-0.3-0.6c-0.2-0.2-0.4-0.2-0.8-0.2
		c-0.3,0-0.5,0-0.7,0.1c-0.2,0.1-0.4,0.2-0.5,0.4l-0.3-0.4c0.1-0.1,0.2-0.2,0.3-0.2c0.1-0.1,0.2-0.1,0.4-0.2s0.3-0.1,0.4-0.1
		c0.1,0,0.3,0,0.5,0c0.2,0,0.4,0,0.6,0.1c0.2,0.1,0.4,0.1,0.5,0.3c0.1,0.1,0.2,0.3,0.3,0.4c0.1,0.2,0.1,0.4,0.1,0.6
		c0,0.2,0,0.4-0.1,0.5s-0.1,0.3-0.2,0.4c-0.1,0.1-0.2,0.3-0.4,0.4s-0.4,0.3-0.6,0.4c-0.3,0.2-0.5,0.3-0.6,0.5
		c-0.2,0.1-0.3,0.3-0.4,0.4c-0.1,0.1-0.2,0.3-0.2,0.4s-0.1,0.3-0.1,0.4h2.7v0.6H389.5z"/>
	<path id="XMLID_9_" class="st0" d="M397.4,2.9c0,0.4,0,0.8-0.1,1.2c-0.1,0.3-0.2,0.6-0.4,0.9c-0.2,0.2-0.4,0.4-0.6,0.5
		c-0.2,0.1-0.5,0.2-0.8,0.2c-0.3,0-0.5-0.1-0.8-0.2c-0.2-0.1-0.4-0.3-0.6-0.5c-0.2-0.2-0.3-0.5-0.4-0.9c-0.1-0.3-0.1-0.7-0.1-1.2
		s0-0.8,0.1-1.2c0.1-0.3,0.2-0.6,0.4-0.9s0.4-0.4,0.6-0.5c0.2-0.1,0.5-0.2,0.8-0.2c0.3,0,0.5,0.1,0.8,0.2c0.2,0.1,0.4,0.3,0.6,0.5
		s0.3,0.5,0.4,0.9C397.3,2,397.4,2.4,397.4,2.9z M396.8,2.9c0-0.7-0.1-1.2-0.3-1.6c-0.2-0.4-0.6-0.6-1-0.6c-0.4,0-0.8,0.2-1,0.6
		c-0.2,0.4-0.3,0.9-0.3,1.6c0,0.7,0.1,1.2,0.3,1.6c0.2,0.4,0.6,0.6,1,0.6c0.4,0,0.8-0.2,1-0.6C396.7,4.1,396.8,3.5,396.8,2.9z"/>
	<path id="XMLID_6_" class="st0" d="M402,2.9c0,0.4,0,0.8-0.1,1.2c-0.1,0.3-0.2,0.6-0.4,0.9c-0.2,0.2-0.4,0.4-0.6,0.5
		c-0.2,0.1-0.5,0.2-0.8,0.2c-0.3,0-0.5-0.1-0.8-0.2c-0.2-0.1-0.4-0.3-0.6-0.5c-0.2-0.2-0.3-0.5-0.4-0.9c-0.1-0.3-0.1-0.7-0.1-1.2
		s0-0.8,0.1-1.2c0.1-0.3,0.2-0.6,0.4-0.9s0.4-0.4,0.6-0.5c0.2-0.1,0.5-0.2,0.8-0.2c0.3,0,0.5,0.1,0.8,0.2c0.2,0.1,0.4,0.3,0.6,0.5
		s0.3,0.5,0.4,0.9C401.9,2,402,2.4,402,2.9z M401.4,2.9c0-0.7-0.1-1.2-0.3-1.6c-0.2-0.4-0.6-0.6-1-0.6c-0.4,0-0.8,0.2-1,0.6
		c-0.2,0.4-0.3,0.9-0.3,1.6c0,0.7,0.1,1.2,0.3,1.6c0.2,0.4,0.6,0.6,1,0.6c0.4,0,0.8-0.2,1-0.6C401.3,4.1,401.4,3.5,401.4,2.9z"/>
	<path id="XMLID_4_" class="st0" d="M405.1,1.7c-0.2,0.3-0.4,0.7-0.5,1.1c-0.2,0.4-0.3,0.8-0.4,1.3c-0.1,0.4-0.1,0.9-0.2,1.4h-0.6
		c0-0.5,0.1-0.9,0.1-1.4c0.1-0.4,0.2-0.8,0.3-1.2c0.1-0.4,0.3-0.8,0.5-1.1c0.2-0.4,0.4-0.7,0.6-1h-2.7V0.2h3.3v0.5
		C405.5,1.1,405.3,1.4,405.1,1.7z"/>
	<path id="XMLID_2_" class="st0" d="M406.7,5.1c0,0.1,0,0.2-0.1,0.3c-0.1,0.1-0.2,0.1-0.3,0.1s-0.2,0-0.3-0.1
		c-0.1-0.1-0.1-0.2-0.1-0.3s0-0.2,0.1-0.3c0.1-0.1,0.2-0.2,0.3-0.2s0.2,0.1,0.3,0.2C406.7,4.8,406.7,5,406.7,5.1z"/>
</g>
</svg>
