<!-- Generator: Adobe Illustrator 22.1.0, SVG Export Plug-In  -->
<svg version="1.1"
	 xmlns="http://www.w3.org/2000/svg" xmlns:xlink="http://www.w3.org/1999/xlink" xmlns:a="http://ns.adobe.com/AdobeSVGViewerExtensions/3.0/"
	 x="0px" y="0px" width="563.3px" height="73px" viewBox="0 0 563.3 73" style="enable-background:new 0 0 563.3 73;"
	 xml:space="preserve">
<style type="text/css">
	.st0{fill:#266093;}
</style>
<defs>
</defs>
<g id="XMLID_1_">
	<g>
		<path id="XMLID_126_" class="st0" d="M15.2,25.1l-4.3-8.7H6.1v8.7H1.3V1h11.2c1.1,0,2.2,0.2,3.2,0.5s1.9,0.8,2.6,1.4
			c0.8,0.6,1.4,1.4,1.8,2.4c0.4,1,0.7,2.1,0.7,3.4c0,1.8-0.4,3.3-1.2,4.5c-0.8,1.2-1.9,2-3.5,2.6l4.6,9.4H15.2z M15.8,8.7
			c0-1.1-0.3-1.9-0.9-2.4s-1.5-0.7-2.5-0.7H6.1v6.2h6.3C14.7,11.9,15.8,10.8,15.8,8.7z"/>
		<path id="XMLID_123_" class="st0" d="M34.4,25.1v-1.2c-0.4,0.5-1,0.8-1.7,1.1c-0.7,0.3-1.5,0.4-2.3,0.4c-0.8,0-1.7-0.1-2.5-0.4
			c-0.8-0.3-1.5-0.7-2.1-1.2c-0.6-0.5-1.1-1.2-1.5-2c-0.4-0.8-0.6-1.8-0.6-2.9c0-1,0.2-1.9,0.6-2.6c0.4-0.8,0.9-1.4,1.6-1.9
			c0.7-0.5,1.4-0.9,2.3-1.1c0.9-0.3,1.8-0.4,2.9-0.4c0.8,0,1.5,0.1,2.1,0.2c0.5,0.1,1,0.3,1.4,0.5v-0.9c0-0.6-0.2-1.2-0.6-1.6
			c-0.4-0.4-1.1-0.7-1.9-0.7c-0.6,0-1,0-1.5,0.1c-0.4,0-0.8,0.1-1.2,0.2c-0.4,0.1-0.8,0.2-1.1,0.4c-0.4,0.1-0.8,0.3-1.2,0.6L25,8.5
			c0.5-0.3,1-0.6,1.5-0.8c0.5-0.2,1-0.4,1.5-0.6c0.5-0.1,1.1-0.3,1.7-0.3c0.6-0.1,1.3-0.1,2-0.1c1.1,0,2.1,0.1,3,0.4
			c0.9,0.3,1.7,0.7,2.3,1.2s1.1,1.2,1.5,2c0.4,0.8,0.5,1.7,0.5,2.7v12.1H34.4z M34.4,17.5c-0.4-0.3-0.9-0.4-1.3-0.6
			c-0.5-0.1-1.1-0.2-2-0.2c-0.9,0-1.6,0.2-2,0.6c-0.5,0.4-0.7,1-0.7,1.7c0,0.6,0.2,1.2,0.6,1.7c0.4,0.5,1.1,0.7,2.1,0.7
			c0.8,0,1.5-0.2,2-0.5c0.6-0.3,1-0.7,1.3-1.2V17.5z"/>
		<path id="XMLID_120_" class="st0" d="M58.6,16.3c0,1.4-0.2,2.6-0.5,3.7c-0.3,1.1-0.8,2.1-1.4,2.9c-0.6,0.8-1.3,1.4-2.2,1.9
			c-0.9,0.4-1.9,0.7-3,0.7c-0.8,0-1.5-0.1-2.2-0.4c-0.7-0.3-1.2-0.6-1.6-1v5.3L43,31.7V7h4.7v1.1c0.5-0.4,1-0.7,1.6-1
			c0.6-0.3,1.3-0.5,2.2-0.5c1,0,1.9,0.2,2.7,0.6c0.8,0.4,1.6,0.9,2.2,1.7c0.6,0.8,1.1,1.8,1.5,3C58.4,13.1,58.6,14.6,58.6,16.3z
			 M53.7,16.4c0-1.9-0.3-3.2-0.8-4c-0.6-0.8-1.3-1.2-2.3-1.2c-0.7,0-1.3,0.1-1.8,0.4c-0.4,0.3-0.8,0.6-1.2,1.1v6.8
			c0.8,1,1.8,1.5,3.2,1.5C52.8,21,53.7,19.4,53.7,16.4z"/>
		<path id="XMLID_117_" class="st0" d="M67,2.8c0,0.7-0.3,1.4-0.8,1.9c-0.5,0.5-1.2,0.8-1.9,0.8s-1.4-0.3-1.9-0.8
			c-0.5-0.5-0.8-1.2-0.8-1.9c0-0.7,0.3-1.4,0.8-1.9c0.5-0.5,1.2-0.8,1.9-0.8s1.4,0.3,1.9,0.8C66.7,1.5,67,2.1,67,2.8z M61.9,25.1V7
			h4.7v18.1H61.9z"/>
		<path id="XMLID_114_" class="st0" d="M80.7,25.1v-1.1c-0.5,0.4-1,0.7-1.6,1s-1.3,0.5-2.2,0.5c-1,0-1.9-0.2-2.7-0.6
			c-0.8-0.4-1.6-0.9-2.2-1.7c-0.6-0.8-1.1-1.8-1.5-3c-0.4-1.2-0.6-2.7-0.6-4.3c0-1.4,0.2-2.6,0.5-3.7c0.3-1.1,0.8-2.1,1.4-2.9
			c0.6-0.8,1.3-1.4,2.2-1.9c0.9-0.4,1.9-0.7,3-0.7c0.8,0,1.5,0.1,2.2,0.4s1.2,0.6,1.6,1V2.4L85.5,0v25.1H80.7z M80.7,12.7
			c-0.8-1-1.8-1.5-3.2-1.5c-1.9,0-2.8,1.5-2.8,4.6c0,1.9,0.3,3.2,0.8,4s1.3,1.2,2.3,1.2c0.7,0,1.3-0.1,1.8-0.4
			c0.4-0.3,0.8-0.6,1.2-1.1V12.7z"/>
		<path id="XMLID_111_" class="st0" d="M119.4,13c0,1.8-0.2,3.5-0.7,5c-0.5,1.5-1.2,2.8-2,3.9c-0.9,1.1-2,1.9-3.3,2.5
			c-1.3,0.6-2.8,0.9-4.4,0.9s-3.1-0.3-4.4-0.9c-1.3-0.6-2.4-1.5-3.3-2.5c-0.9-1.1-1.6-2.4-2-3.9c-0.5-1.5-0.7-3.2-0.7-5
			s0.2-3.5,0.7-5c0.5-1.5,1.2-2.8,2-3.9c0.9-1.1,2-1.9,3.3-2.5s2.8-0.9,4.4-0.9s3.1,0.3,4.4,0.9s2.4,1.5,3.3,2.5
			c0.9,1.1,1.6,2.4,2,3.9C119.1,9.5,119.4,11.2,119.4,13z M114.4,13c0-1.1-0.1-2.1-0.3-3s-0.5-1.7-1-2.4c-0.4-0.7-1-1.2-1.7-1.6
			c-0.7-0.4-1.5-0.6-2.5-0.6c-1,0-1.8,0.2-2.5,0.6c-0.7,0.4-1.3,0.9-1.7,1.6c-0.4,0.7-0.8,1.5-1,2.4s-0.3,1.9-0.3,3
			c0,1.1,0.1,2.1,0.3,3c0.2,0.9,0.5,1.7,1,2.4c0.4,0.7,1,1.2,1.7,1.6c0.7,0.4,1.5,0.6,2.5,0.6c1,0,1.8-0.2,2.5-0.6
			c0.7-0.4,1.3-0.9,1.7-1.6c0.4-0.7,0.8-1.5,1-2.4C114.3,15.1,114.4,14.1,114.4,13z"/>
		<path id="XMLID_109_" class="st0" d="M133.8,25.1v-9.8c0-1.6-0.3-2.7-0.8-3.3c-0.5-0.6-1.3-0.9-2.3-0.9c-1,0-1.7,0.3-2.3,0.9
			s-0.8,1.7-0.8,3.2v9.9h-4.7V7h4.7v1.2c0.4-0.4,1-0.8,1.7-1.1c0.7-0.3,1.6-0.5,2.5-0.5c2.3,0,4,0.7,5.1,2.2s1.6,3.5,1.6,6v10.2
			H133.8z"/>
		<path id="XMLID_107_" class="st0" d="M156.7,19.8c0,1-0.2,1.9-0.6,2.6s-0.9,1.3-1.6,1.8c-0.7,0.4-1.4,0.8-2.3,1
			c-0.9,0.2-1.8,0.3-2.9,0.3c-1.4,0-2.8-0.2-4.1-0.6c-1.3-0.4-2.5-0.9-3.4-1.5l1.6-3.6c1,0.5,2,0.9,3,1.2c1,0.3,2.1,0.4,3.3,0.4
			c0.9,0,1.6-0.1,1.9-0.3c0.3-0.2,0.5-0.6,0.5-1c0-0.4-0.2-0.7-0.6-1c-0.4-0.3-1.1-0.5-2.1-0.8c-1.1-0.3-2.1-0.6-2.9-1
			c-0.9-0.3-1.6-0.7-2.3-1.2c-0.6-0.4-1.1-1-1.4-1.6c-0.3-0.6-0.5-1.4-0.5-2.4c0-0.9,0.2-1.7,0.5-2.4c0.4-0.7,0.9-1.2,1.5-1.7
			c0.6-0.4,1.4-0.8,2.3-1c0.9-0.2,1.9-0.3,2.9-0.3c1.1,0,2.3,0.2,3.5,0.5c1.2,0.3,2.2,0.7,3.2,1.3l-1.5,3.7
			c-0.9-0.5-1.8-0.8-2.7-1.1s-1.8-0.4-2.5-0.4c-1,0-1.6,0.1-1.9,0.3c-0.3,0.2-0.5,0.5-0.5,0.9c0,0.2,0,0.4,0.1,0.5s0.3,0.3,0.5,0.4
			c0.3,0.1,0.6,0.3,1.1,0.5c0.5,0.2,1.1,0.4,1.9,0.7c0.8,0.3,1.6,0.6,2.3,0.9c0.7,0.3,1.4,0.7,1.9,1.1c0.5,0.4,1,1,1.3,1.6
			C156.5,18.1,156.7,18.9,156.7,19.8z"/>
		<path id="XMLID_104_" class="st0" d="M175,16.1c0,0.3,0,0.6,0,0.9c0,0.2,0,0.5-0.1,0.6h-10.8c0,0.6,0.2,1.1,0.4,1.6
			c0.2,0.4,0.5,0.8,0.9,1c0.3,0.3,0.7,0.5,1.2,0.6c0.4,0.1,0.9,0.2,1.3,0.2c0.7,0,1.3-0.1,1.8-0.3c0.5-0.2,1-0.5,1.3-0.9l3.4,2.8
			c-0.7,0.9-1.7,1.7-2.9,2.2s-2.4,0.8-3.6,0.8c-1.3,0-2.5-0.2-3.5-0.7c-1-0.4-1.9-1.1-2.7-1.9c-0.7-0.8-1.3-1.8-1.7-3
			c-0.4-1.2-0.6-2.4-0.6-3.9c0-1.4,0.2-2.6,0.6-3.8c0.4-1.2,1-2.2,1.7-3c0.7-0.8,1.6-1.5,2.5-1.9c1-0.5,2-0.7,3.2-0.7
			c1.2,0,2.3,0.2,3.2,0.7c1,0.5,1.7,1.2,2.4,2c0.6,0.9,1.1,1.9,1.5,3C174.8,13.6,175,14.8,175,16.1z M170.4,14
			c0-0.4-0.1-0.8-0.3-1.2s-0.3-0.7-0.6-1c-0.3-0.3-0.6-0.6-1-0.7c-0.4-0.2-0.9-0.3-1.4-0.3c-0.9,0-1.6,0.3-2.1,0.9
			c-0.5,0.6-0.8,1.4-0.9,2.3H170.4z"/>
		<path id="XMLID_102_" class="st0" d="M188.3,24.3c-0.4,0.3-0.9,0.6-1.6,0.8c-0.7,0.2-1.4,0.3-2.1,0.3c-0.7,0-1.4-0.1-2-0.4
			c-0.6-0.3-1.1-0.6-1.5-1.1c-0.4-0.5-0.7-1.1-1-1.7c-0.2-0.7-0.3-1.4-0.3-2.2v-8.5h-3V7h3V2.4l4.7-2.4v7h4.3v4.5h-4.3v7.3
			c0,0.9,0.1,1.5,0.4,1.7c0.3,0.3,0.7,0.4,1.3,0.4c0.4,0,0.8-0.1,1.2-0.3c0.4-0.2,0.9-0.6,1.5-1.1L188.3,24.3z"/>
		<path id="XMLID_99_" class="st0" d="M217.6,16.1c0,1.4-0.2,2.6-0.6,3.8c-0.4,1.2-1,2.1-1.7,3s-1.6,1.5-2.6,1.9
			c-1,0.5-2.1,0.7-3.3,0.7s-2.3-0.2-3.2-0.7c-1-0.5-1.9-1.1-2.6-1.9s-1.3-1.8-1.7-3c-0.4-1.2-0.6-2.4-0.6-3.8c0-1.4,0.2-2.6,0.6-3.8
			c0.4-1.2,1-2.2,1.7-3c0.7-0.8,1.6-1.5,2.6-1.9c1-0.5,2.1-0.7,3.2-0.7s2.3,0.2,3.3,0.7c1,0.5,1.9,1.1,2.6,1.9
			c0.7,0.8,1.3,1.8,1.7,3C217.4,13.4,217.6,14.7,217.6,16.1z M212.8,16.1c0-1.4-0.3-2.5-0.8-3.5c-0.5-0.9-1.4-1.4-2.5-1.4
			c-1.1,0-2,0.5-2.5,1.4c-0.5,0.9-0.8,2.1-0.8,3.5c0,1.4,0.3,2.6,0.8,3.5c0.5,0.9,1.4,1.4,2.5,1.4c0.6,0,1.1-0.1,1.5-0.4
			c0.4-0.3,0.8-0.6,1-1.1c0.3-0.5,0.5-1,0.6-1.6S212.8,16.7,212.8,16.1z"/>
		<path id="XMLID_97_" class="st0" d="M229.3,4.2c-0.3-0.1-0.5-0.1-0.9-0.1c-0.7,0-1.2,0.1-1.4,0.3c-0.2,0.2-0.3,0.6-0.3,1.1V7h3.1
			v4.5h-3.1v13.6h-4.7V11.5h-2.2V7h2.2V4.8c0-1.7,0.4-2.9,1.3-3.6c0.9-0.7,2.2-1.1,3.8-1.1c1.2,0,2.2,0.2,3,0.5v3.8
			C229.8,4.3,229.5,4.2,229.3,4.2z"/>
		<path id="XMLID_94_" class="st0" d="M259,25.1l-1.9-5.4h-8.8l-1.9,5.4h-5.2L250.5,1h4.7l9.1,24.1H259z M254,10.8
			c-0.3-0.7-0.5-1.4-0.7-2.1C253,8,252.9,7.5,252.8,7c-0.1,0.5-0.3,1-0.5,1.7c-0.2,0.7-0.5,1.4-0.7,2.1l-1.5,4.4h5.5L254,10.8z"/>
		<path id="XMLID_92_" class="st0" d="M281,23.1c-0.5,0.5-1,0.9-1.6,1.3c-0.6,0.4-1.2,0.6-2,0.8c-0.7,0.2-1.5,0.3-2.4,0.3
			c-1.2,0-2.3-0.2-3.3-0.7c-1-0.5-1.9-1.1-2.7-1.9c-0.8-0.8-1.4-1.8-1.8-3c-0.4-1.2-0.7-2.4-0.7-3.8c0-1.4,0.2-2.6,0.7-3.8
			c0.4-1.2,1-2.2,1.8-3c0.8-0.8,1.7-1.5,2.7-1.9c1.1-0.5,2.2-0.7,3.5-0.7c1.7,0,3.2,0.4,4.3,1.1s2.1,1.7,2.9,2.8l-3.1,3.2
			c-0.5-0.8-1.1-1.4-1.7-1.9c-0.6-0.5-1.4-0.7-2.4-0.7c-1.1,0-2.1,0.4-2.7,1.3s-1,2.1-1,3.6c0,1.5,0.3,2.6,1,3.5
			c0.7,0.9,1.6,1.3,2.7,1.3c0.9,0,1.7-0.2,2.4-0.6c0.6-0.4,1.3-1,1.9-1.7l3,2.8C281.9,22,281.5,22.6,281,23.1z"/>
		<path id="XMLID_90_" class="st0" d="M295.4,24.3c-0.4,0.3-0.9,0.6-1.6,0.8c-0.7,0.2-1.4,0.3-2.1,0.3c-0.7,0-1.4-0.1-2-0.4
			c-0.6-0.3-1.1-0.6-1.5-1.1c-0.4-0.5-0.7-1.1-1-1.7c-0.2-0.7-0.3-1.4-0.3-2.2v-8.5h-3V7h3V2.4l4.7-2.4v7h4.3v4.5h-4.3v7.3
			c0,0.9,0.1,1.5,0.4,1.7c0.3,0.3,0.7,0.4,1.3,0.4c0.4,0,0.8-0.1,1.2-0.3c0.4-0.2,0.9-0.6,1.5-1.1L295.4,24.3z"/>
		<path id="XMLID_87_" class="st0" d="M305.2,2.8c0,0.7-0.3,1.4-0.8,1.9c-0.5,0.5-1.2,0.8-1.9,0.8s-1.4-0.3-1.9-0.8
			c-0.5-0.5-0.8-1.2-0.8-1.9c0-0.7,0.3-1.4,0.8-1.9c0.5-0.5,1.2-0.8,1.9-0.8s1.4,0.3,1.9,0.8C304.9,1.5,305.2,2.1,305.2,2.8z
			 M300.1,25.1V7h4.7v18.1H300.1z"/>
		<path id="XMLID_84_" class="st0" d="M324.4,16.1c0,1.4-0.2,2.6-0.6,3.8c-0.4,1.2-1,2.1-1.7,3s-1.6,1.5-2.6,1.9
			c-1,0.5-2.1,0.7-3.3,0.7s-2.3-0.2-3.2-0.7c-1-0.5-1.9-1.1-2.6-1.9s-1.3-1.8-1.7-3c-0.4-1.2-0.6-2.4-0.6-3.8c0-1.4,0.2-2.6,0.6-3.8
			c0.4-1.2,1-2.2,1.7-3c0.7-0.8,1.6-1.5,2.6-1.9c1-0.5,2.1-0.7,3.2-0.7s2.3,0.2,3.3,0.7c1,0.5,1.9,1.1,2.6,1.9
			c0.7,0.8,1.3,1.8,1.7,3C324.2,13.4,324.4,14.7,324.4,16.1z M319.6,16.1c0-1.4-0.3-2.5-0.8-3.5c-0.5-0.9-1.4-1.4-2.5-1.4
			c-1.1,0-2,0.5-2.5,1.4c-0.5,0.9-0.8,2.1-0.8,3.5c0,1.4,0.3,2.6,0.8,3.5c0.5,0.9,1.4,1.4,2.5,1.4c0.6,0,1.1-0.1,1.5-0.4
			c0.4-0.3,0.8-0.6,1-1.1c0.3-0.5,0.5-1,0.6-1.6S319.6,16.7,319.6,16.1z"/>
		<path id="XMLID_82_" class="st0" d="M338.4,25.1v-9.8c0-1.6-0.3-2.7-0.8-3.3c-0.5-0.6-1.3-0.9-2.3-0.9c-1,0-1.7,0.3-2.3,0.9
			s-0.8,1.7-0.8,3.2v9.9h-4.7V7h4.7v1.2c0.4-0.4,1-0.8,1.7-1.1c0.7-0.3,1.6-0.5,2.5-0.5c2.3,0,4,0.7,5.1,2.2s1.6,3.5,1.6,6v10.2
			H338.4z"/>
		<path id="XMLID_79_" class="st0" d="M361.7,2.8c0,0.7-0.3,1.4-0.8,1.9c-0.5,0.5-1.2,0.8-1.9,0.8s-1.4-0.3-1.9-0.8
			c-0.5-0.5-0.8-1.2-0.8-1.9c0-0.7,0.3-1.4,0.8-1.9c0.5-0.5,1.2-0.8,1.9-0.8s1.4,0.3,1.9,0.8C361.4,1.5,361.7,2.1,361.7,2.8z
			 M356.6,25.1V7h4.7v18.1H356.6z"/>
		<path id="XMLID_77_" class="st0" d="M376.4,25.1v-9.8c0-1.6-0.3-2.7-0.8-3.3c-0.5-0.6-1.3-0.9-2.3-0.9c-1,0-1.7,0.3-2.3,0.9
			s-0.8,1.7-0.8,3.2v9.9h-4.7V7h4.7v1.2c0.4-0.4,1-0.8,1.7-1.1c0.7-0.3,1.6-0.5,2.5-0.5c2.3,0,4,0.7,5.1,2.2s1.6,3.5,1.6,6v10.2
			H376.4z"/>
		<path id="XMLID_74_" class="st0" d="M414,8.6c0,1.4-0.2,2.6-0.7,3.6s-1,1.8-1.8,2.5c-0.8,0.6-1.7,1.1-2.8,1.4
			c-1.1,0.3-2.2,0.4-3.5,0.4H400v8.5h-4.8V1h10.5c1.1,0,2.2,0.2,3.2,0.5s1.9,0.8,2.6,1.4c0.8,0.6,1.4,1.4,1.8,2.4
			C413.8,6.2,414,7.3,414,8.6z M409.1,8.7c0-1.1-0.3-1.8-0.9-2.3c-0.6-0.5-1.5-0.7-2.6-0.7H400v6.2h5.6
			C407.9,11.9,409.1,10.8,409.1,8.7z"/>
		<path id="XMLID_71_" class="st0" d="M427.1,25.1v-1.2c-0.4,0.5-1,0.8-1.7,1.1c-0.7,0.3-1.5,0.4-2.3,0.4c-0.8,0-1.7-0.1-2.5-0.4
			c-0.8-0.3-1.5-0.7-2.1-1.2c-0.6-0.5-1.1-1.2-1.5-2c-0.4-0.8-0.6-1.8-0.6-2.9c0-1,0.2-1.9,0.6-2.6c0.4-0.8,0.9-1.4,1.6-1.9
			c0.7-0.5,1.4-0.9,2.3-1.1c0.9-0.3,1.8-0.4,2.9-0.4c0.8,0,1.5,0.1,2.1,0.2c0.5,0.1,1,0.3,1.4,0.5v-0.9c0-0.6-0.2-1.2-0.6-1.6
			c-0.4-0.4-1.1-0.7-1.9-0.7c-0.6,0-1,0-1.5,0.1c-0.4,0-0.8,0.1-1.2,0.2c-0.4,0.1-0.8,0.2-1.1,0.4c-0.4,0.1-0.8,0.3-1.2,0.6
			l-1.8-3.3c0.5-0.3,1-0.6,1.5-0.8c0.5-0.2,1-0.4,1.5-0.6c0.5-0.1,1.1-0.3,1.7-0.3c0.6-0.1,1.3-0.1,2-0.1c1.1,0,2.1,0.1,3,0.4
			c0.9,0.3,1.7,0.7,2.3,1.2s1.1,1.2,1.5,2c0.4,0.8,0.5,1.7,0.5,2.7v12.1H427.1z M427.1,17.5c-0.4-0.3-0.9-0.4-1.3-0.6
			c-0.5-0.1-1.1-0.2-2-0.2c-0.9,0-1.6,0.2-2,0.6c-0.5,0.4-0.7,1-0.7,1.7c0,0.6,0.2,1.2,0.6,1.7c0.4,0.5,1.1,0.7,2.1,0.7
			c0.8,0,1.5-0.2,2-0.5c0.6-0.3,1-0.7,1.3-1.2V17.5z"/>
		<path id="XMLID_69_" class="st0" d="M446.3,12.6c-0.4-0.3-0.8-0.6-1.3-0.8c-0.5-0.2-1-0.3-1.5-0.3c-0.5,0-0.9,0.1-1.3,0.2
			c-0.4,0.1-0.7,0.3-1,0.6c-0.3,0.3-0.5,0.7-0.6,1.2c-0.1,0.5-0.2,1.1-0.2,1.9v9.8h-4.7V7h4.7v1.2c0.4-0.4,0.9-0.8,1.5-1.1
			c0.6-0.3,1.3-0.5,2.2-0.5c0.8,0,1.5,0.1,2,0.4c0.6,0.3,1,0.6,1.3,0.9L446.3,12.6z"/>
		<path id="XMLID_67_" class="st0" d="M459.9,24.3c-0.4,0.3-0.9,0.6-1.6,0.8c-0.7,0.2-1.4,0.3-2.1,0.3c-0.7,0-1.4-0.1-2-0.4
			c-0.6-0.3-1.1-0.6-1.5-1.1c-0.4-0.5-0.7-1.1-1-1.7c-0.2-0.7-0.3-1.4-0.3-2.2v-8.5h-3V7h3V2.4l4.7-2.4v7h4.3v4.5h-4.3v7.3
			c0,0.9,0.1,1.5,0.4,1.7c0.3,0.3,0.7,0.4,1.3,0.4c0.4,0,0.8-0.1,1.2-0.3c0.4-0.2,0.9-0.6,1.5-1.1L459.9,24.3z"/>
		<path id="XMLID_64_" class="st0" d="M469.7,2.8c0,0.7-0.3,1.4-0.8,1.9c-0.5,0.5-1.2,0.8-1.9,0.8s-1.4-0.3-1.9-0.8
			c-0.5-0.5-0.8-1.2-0.8-1.9c0-0.7,0.3-1.4,0.8-1.9c0.5-0.5,1.2-0.8,1.9-0.8s1.4,0.3,1.9,0.8C469.5,1.5,469.7,2.1,469.7,2.8z
			 M464.7,25.1V7h4.7v18.1H464.7z"/>
		<path id="XMLID_61_" class="st0" d="M483.5,25.1v-1.2c-0.4,0.5-1,0.8-1.7,1.1c-0.7,0.3-1.5,0.4-2.3,0.4c-0.8,0-1.7-0.1-2.5-0.4
			c-0.8-0.3-1.5-0.7-2.1-1.2c-0.6-0.5-1.1-1.2-1.5-2c-0.4-0.8-0.6-1.8-0.6-2.9c0-1,0.2-1.9,0.6-2.6c0.4-0.8,0.9-1.4,1.6-1.9
			c0.7-0.5,1.4-0.9,2.3-1.1c0.9-0.3,1.8-0.4,2.9-0.4c0.8,0,1.5,0.1,2.1,0.2c0.5,0.1,1,0.3,1.4,0.5v-0.9c0-0.6-0.2-1.2-0.6-1.6
			c-0.4-0.4-1.1-0.7-1.9-0.7c-0.6,0-1,0-1.5,0.1c-0.4,0-0.8,0.1-1.2,0.2c-0.4,0.1-0.8,0.2-1.1,0.4c-0.4,0.1-0.8,0.3-1.2,0.6
			l-1.8-3.3c0.5-0.3,1-0.6,1.5-0.8c0.5-0.2,1-0.4,1.5-0.6c0.5-0.1,1.1-0.3,1.7-0.3c0.6-0.1,1.3-0.1,2-0.1c1.1,0,2.1,0.1,3,0.4
			c0.9,0.3,1.7,0.7,2.3,1.2s1.1,1.2,1.5,2c0.4,0.8,0.5,1.7,0.5,2.7v12.1H483.5z M483.5,17.5c-0.4-0.3-0.9-0.4-1.3-0.6
			c-0.5-0.1-1.1-0.2-2-0.2c-0.9,0-1.6,0.2-2,0.6c-0.5,0.4-0.7,1-0.7,1.7c0,0.6,0.2,1.2,0.6,1.7c0.4,0.5,1.1,0.7,2.1,0.7
			c0.8,0,1.5-0.2,2-0.5c0.6-0.3,1-0.7,1.3-1.2V17.5z"/>
		<path id="XMLID_59_" class="st0" d="M492.3,25.1V2.4L497,0v25.1H492.3z"/>
		<path id="XMLID_56_" class="st0" d="M520.6,25.1v-1.2c-0.4,0.5-1,0.8-1.7,1.1c-0.7,0.3-1.5,0.4-2.3,0.4c-0.8,0-1.7-0.1-2.5-0.4
			c-0.8-0.3-1.5-0.7-2.1-1.2c-0.6-0.5-1.1-1.2-1.5-2c-0.4-0.8-0.6-1.8-0.6-2.9c0-1,0.2-1.9,0.6-2.6c0.4-0.8,0.9-1.4,1.6-1.9
			c0.7-0.5,1.4-0.9,2.3-1.1c0.9-0.3,1.8-0.4,2.9-0.4c0.8,0,1.5,0.1,2.1,0.2c0.5,0.1,1,0.3,1.4,0.5v-0.9c0-0.6-0.2-1.2-0.6-1.6
			c-0.4-0.4-1.1-0.7-1.9-0.7c-0.6,0-1,0-1.5,0.1c-0.4,0-0.8,0.1-1.2,0.2c-0.4,0.1-0.8,0.2-1.1,0.4c-0.4,0.1-0.8,0.3-1.2,0.6
			l-1.8-3.3c0.5-0.3,1-0.6,1.5-0.8c0.5-0.2,1-0.4,1.5-0.6c0.5-0.1,1.1-0.3,1.7-0.3c0.6-0.1,1.3-0.1,2-0.1c1.1,0,2.1,0.1,3,0.4
			c0.9,0.3,1.7,0.7,2.3,1.2s1.1,1.2,1.5,2c0.4,0.8,0.5,1.7,0.5,2.7v12.1H520.6z M520.6,17.5c-0.4-0.3-0.9-0.4-1.3-0.6
			c-0.5-0.1-1.1-0.2-2-0.2c-0.9,0-1.6,0.2-2,0.6c-0.5,0.4-0.7,1-0.7,1.7c0,0.6,0.2,1.2,0.6,1.7c0.4,0.5,1.1,0.7,2.1,0.7
			c0.8,0,1.5-0.2,2-0.5c0.6-0.3,1-0.7,1.3-1.2V17.5z"/>
		<path id="XMLID_54_" class="st0" d="M540.1,25.1v-9.8c0-1.6-0.3-2.7-0.8-3.3c-0.5-0.6-1.3-0.9-2.3-0.9c-1,0-1.7,0.3-2.3,0.9
			s-0.8,1.7-0.8,3.2v9.9h-4.7V7h4.7v1.2c0.4-0.4,1-0.8,1.7-1.1c0.7-0.3,1.6-0.5,2.5-0.5c2.3,0,4,0.7,5.1,2.2s1.6,3.5,1.6,6v10.2
			H540.1z"/>
		<path id="XMLID_51_" class="st0" d="M558.6,25.1v-1.1c-0.5,0.4-1,0.7-1.6,1s-1.3,0.5-2.2,0.5c-1,0-1.9-0.2-2.7-0.6
			c-0.8-0.4-1.6-0.9-2.2-1.7c-0.6-0.8-1.1-1.8-1.5-3c-0.4-1.2-0.6-2.7-0.6-4.3c0-1.4,0.2-2.6,0.5-3.7c0.3-1.1,0.8-2.1,1.4-2.9
			c0.6-0.8,1.3-1.4,2.2-1.9c0.9-0.4,1.9-0.7,3-0.7c0.8,0,1.5,0.1,2.2,0.4s1.2,0.6,1.6,1V2.4l4.7-2.4v25.1H558.6z M558.6,12.7
			c-0.8-1-1.8-1.5-3.2-1.5c-1.9,0-2.8,1.5-2.8,4.6c0,1.9,0.3,3.2,0.8,4s1.3,1.2,2.3,1.2c0.7,0,1.3-0.1,1.8-0.4
			c0.4-0.3,0.8-0.6,1.2-1.1V12.7z"/>
		<path id="XMLID_49_" class="st0" d="M19.5,61.1c-0.5,1.2-1.2,2.2-2,3.1c-0.9,0.8-1.9,1.5-3.1,1.9c-1.2,0.4-2.5,0.6-3.9,0.6
			c-1.6,0-3-0.3-4.3-0.9c-1.3-0.6-2.4-1.4-3.3-2.5C2,62.3,1.3,61,0.8,59.4C0.3,57.9,0,56.2,0,54.3c0-1.8,0.3-3.5,0.8-5
			c0.5-1.5,1.3-2.8,2.2-3.9c0.9-1.1,2.1-1.9,3.4-2.5s2.8-0.9,4.3-0.9c1.2,0,2.3,0.1,3.3,0.4c1,0.3,1.8,0.7,2.5,1.2
			c0.7,0.5,1.4,1.2,1.9,1.9c0.5,0.7,1,1.6,1.4,2.5l-4.6,1.9c-0.2-0.4-0.5-0.8-0.7-1.2c-0.3-0.4-0.6-0.7-0.9-1
			c-0.4-0.3-0.8-0.5-1.3-0.7c-0.5-0.2-1-0.2-1.7-0.2c-0.9,0-1.7,0.2-2.4,0.6c-0.7,0.4-1.3,0.9-1.8,1.6c-0.5,0.7-0.8,1.5-1.1,2.4
			c-0.3,0.9-0.4,2-0.4,3.1c0,1.1,0.1,2.1,0.4,3.1c0.3,0.9,0.6,1.8,1.1,2.4c0.5,0.7,1.1,1.2,1.8,1.6C9,61.8,9.8,62,10.7,62
			c0.8,0,1.5-0.1,2.1-0.3c0.6-0.2,1-0.4,1.4-0.8c0.4-0.3,0.6-0.7,0.8-1.2c0.2-0.4,0.3-0.9,0.4-1.5h-3.8v-4.5h8.6V57
			C20.2,58.5,19.9,59.9,19.5,61.1z"/>
		<path id="XMLID_46_" class="st0" d="M38.6,57.3c0,0.3,0,0.6,0,0.9c0,0.2,0,0.5-0.1,0.6H27.7c0,0.6,0.2,1.1,0.4,1.6
			c0.2,0.4,0.5,0.8,0.9,1c0.3,0.3,0.7,0.5,1.2,0.6c0.4,0.1,0.9,0.2,1.3,0.2c0.7,0,1.3-0.1,1.8-0.3c0.5-0.2,1-0.5,1.3-0.9l3.4,2.8
			c-0.7,0.9-1.7,1.7-2.9,2.2s-2.4,0.8-3.6,0.8c-1.3,0-2.5-0.2-3.5-0.7c-1-0.4-1.9-1.1-2.7-1.9c-0.7-0.8-1.3-1.8-1.7-3
			C23.2,60,23,58.7,23,57.3c0-1.4,0.2-2.6,0.6-3.8c0.4-1.2,1-2.2,1.7-3c0.7-0.8,1.6-1.5,2.5-1.9c1-0.5,2-0.7,3.2-0.7
			c1.2,0,2.3,0.2,3.2,0.7c1,0.5,1.7,1.2,2.4,2c0.6,0.9,1.1,1.9,1.5,3C38.4,54.8,38.6,56,38.6,57.3z M34,55.3c0-0.4-0.1-0.8-0.3-1.2
			s-0.3-0.7-0.6-1c-0.3-0.3-0.6-0.6-1-0.7c-0.4-0.2-0.9-0.3-1.4-0.3c-0.9,0-1.6,0.3-2.1,0.9c-0.5,0.6-0.8,1.4-0.9,2.3H34z"/>
		<path id="XMLID_44_" class="st0" d="M52.7,66.3v-9.8c0-1.6-0.3-2.7-0.8-3.3c-0.5-0.6-1.3-0.9-2.3-0.9c-1,0-1.7,0.3-2.3,0.9
			s-0.8,1.7-0.8,3.2v9.9h-4.7V48.3h4.7v1.2c0.4-0.4,1-0.8,1.7-1.1c0.7-0.3,1.6-0.5,2.5-0.5c2.3,0,4,0.7,5.1,2.2s1.6,3.5,1.6,6v10.2
			H52.7z"/>
		<path id="XMLID_41_" class="st0" d="M76,57.3c0,0.3,0,0.6,0,0.9c0,0.2,0,0.5-0.1,0.6H65.1c0,0.6,0.2,1.1,0.4,1.6
			c0.2,0.4,0.5,0.8,0.9,1c0.3,0.3,0.7,0.5,1.2,0.6c0.4,0.1,0.9,0.2,1.3,0.2c0.7,0,1.3-0.1,1.8-0.3c0.5-0.2,1-0.5,1.3-0.9l3.4,2.8
			c-0.7,0.9-1.7,1.7-2.9,2.2s-2.4,0.8-3.6,0.8c-1.3,0-2.5-0.2-3.5-0.7c-1-0.4-1.9-1.1-2.7-1.9c-0.7-0.8-1.3-1.8-1.7-3
			c-0.4-1.2-0.6-2.4-0.6-3.9c0-1.4,0.2-2.6,0.6-3.8c0.4-1.2,1-2.2,1.7-3c0.7-0.8,1.6-1.5,2.5-1.9c1-0.5,2-0.7,3.2-0.7
			c1.2,0,2.3,0.2,3.2,0.7c1,0.5,1.7,1.2,2.4,2c0.6,0.9,1.1,1.9,1.5,3C75.9,54.8,76,56,76,57.3z M71.4,55.3c0-0.4-0.1-0.8-0.3-1.2
			s-0.3-0.7-0.6-1c-0.3-0.3-0.6-0.6-1-0.7c-0.4-0.2-0.9-0.3-1.4-0.3c-0.9,0-1.6,0.3-2.1,0.9c-0.5,0.6-0.8,1.4-0.9,2.3H71.4z"/>
		<path id="XMLID_39_" class="st0" d="M89.8,53.8c-0.4-0.3-0.8-0.6-1.3-0.8c-0.5-0.2-1-0.3-1.5-0.3c-0.5,0-0.9,0.1-1.3,0.2
			c-0.4,0.1-0.7,0.3-1,0.6c-0.3,0.3-0.5,0.7-0.6,1.2C84,55.1,84,55.8,84,56.6v9.8h-4.7V48.3H84v1.2c0.4-0.4,0.9-0.8,1.5-1.1
			c0.6-0.3,1.3-0.5,2.2-0.5c0.8,0,1.5,0.1,2,0.4c0.6,0.3,1,0.6,1.3,0.9L89.8,53.8z"/>
		<path id="XMLID_36_" class="st0" d="M103.3,66.3v-1.2c-0.4,0.5-1,0.8-1.7,1.1c-0.7,0.3-1.5,0.4-2.3,0.4c-0.8,0-1.7-0.1-2.5-0.4
			c-0.8-0.3-1.5-0.7-2.1-1.2c-0.6-0.5-1.1-1.2-1.5-2c-0.4-0.8-0.6-1.8-0.6-2.9c0-1,0.2-1.9,0.6-2.6c0.4-0.8,0.9-1.4,1.6-1.9
			c0.7-0.5,1.4-0.9,2.3-1.1c0.9-0.3,1.8-0.4,2.9-0.4c0.8,0,1.5,0.1,2.1,0.2c0.5,0.1,1,0.3,1.4,0.5v-0.9c0-0.6-0.2-1.2-0.6-1.6
			c-0.4-0.4-1.1-0.7-1.9-0.7c-0.6,0-1,0-1.5,0.1c-0.4,0-0.8,0.1-1.2,0.2c-0.4,0.1-0.8,0.2-1.1,0.4c-0.4,0.1-0.8,0.3-1.2,0.6
			l-1.8-3.3c0.5-0.3,1-0.6,1.5-0.8c0.5-0.2,1-0.4,1.5-0.6c0.5-0.1,1.1-0.3,1.7-0.3c0.6-0.1,1.3-0.1,2-0.1c1.1,0,2.1,0.1,3,0.4
			c0.9,0.3,1.7,0.7,2.3,1.2s1.1,1.2,1.5,2c0.4,0.8,0.5,1.7,0.5,2.7v12.1H103.3z M103.3,58.8c-0.4-0.3-0.9-0.4-1.3-0.6
			c-0.5-0.1-1.1-0.2-2-0.2c-0.9,0-1.6,0.2-2,0.6c-0.5,0.4-0.7,1-0.7,1.7c0,0.6,0.2,1.2,0.6,1.7c0.4,0.5,1.1,0.7,2.1,0.7
			c0.8,0,1.5-0.2,2-0.5c0.6-0.3,1-0.7,1.3-1.2V58.8z"/>
		<path id="XMLID_34_" class="st0" d="M112.1,66.3V43.6l4.7-2.4v25.1H112.1z"/>
		<path id="XMLID_31_" class="st0" d="M126.3,44.1c0,0.7-0.3,1.4-0.8,1.9c-0.5,0.5-1.2,0.8-1.9,0.8s-1.4-0.3-1.9-0.8
			c-0.5-0.5-0.8-1.2-0.8-1.9c0-0.7,0.3-1.4,0.8-1.9c0.5-0.5,1.2-0.8,1.9-0.8s1.4,0.3,1.9,0.8C126,42.7,126.3,43.3,126.3,44.1z
			 M121.2,66.3V48.3h4.7v18.1H121.2z"/>
		<path id="XMLID_29_" class="st0" d="M129.9,66.3v-3.4l6.6-7.8c0.4-0.4,0.8-0.9,1.2-1.4c0.4-0.5,0.8-0.9,1-1.2c-0.2,0-0.4,0-0.6,0
			c-0.2,0-0.5,0-0.8,0s-0.5,0-0.8,0s-0.5,0-0.8,0h-5.3v-4.3h14.3v3.4l-6.4,7.8c-0.4,0.5-0.8,0.9-1.2,1.4c-0.4,0.5-0.8,0.9-1,1.2
			c0.2,0,0.4,0,0.6,0c0.2,0,0.5,0,0.8,0c0.3,0,0.6,0,0.8,0c0.3,0,0.5,0,0.8,0h5.6v4.3H129.9z"/>
		<path id="XMLID_26_" class="st0" d="M163.3,57.3c0,0.3,0,0.6,0,0.9c0,0.2,0,0.5-0.1,0.6h-10.8c0,0.6,0.2,1.1,0.4,1.6
			c0.2,0.4,0.5,0.8,0.9,1c0.3,0.3,0.7,0.5,1.2,0.6c0.4,0.1,0.9,0.2,1.3,0.2c0.7,0,1.3-0.1,1.8-0.3c0.5-0.2,1-0.5,1.3-0.9l3.4,2.8
			c-0.7,0.9-1.7,1.7-2.9,2.2s-2.4,0.8-3.6,0.8c-1.3,0-2.5-0.2-3.5-0.7c-1-0.4-1.9-1.1-2.7-1.9c-0.7-0.8-1.3-1.8-1.7-3
			c-0.4-1.2-0.6-2.4-0.6-3.9c0-1.4,0.2-2.6,0.6-3.8c0.4-1.2,1-2.2,1.7-3c0.7-0.8,1.6-1.5,2.5-1.9c1-0.5,2-0.7,3.2-0.7
			c1.2,0,2.3,0.2,3.2,0.7c1,0.5,1.7,1.2,2.4,2c0.6,0.9,1.1,1.9,1.5,3C163.1,54.8,163.3,56,163.3,57.3z M158.7,55.3
			c0-0.4-0.1-0.8-0.3-1.2s-0.3-0.7-0.6-1c-0.3-0.3-0.6-0.6-1-0.7c-0.4-0.2-0.9-0.3-1.4-0.3c-0.9,0-1.6,0.3-2.1,0.9
			c-0.5,0.6-0.8,1.4-0.9,2.3H158.7z"/>
		<path id="XMLID_23_" class="st0" d="M176.4,66.3v-1.1c-0.5,0.4-1,0.7-1.6,1s-1.3,0.5-2.2,0.5c-1,0-1.9-0.2-2.7-0.6
			c-0.8-0.4-1.6-0.9-2.2-1.7c-0.6-0.8-1.1-1.8-1.5-3c-0.4-1.2-0.6-2.7-0.6-4.3c0-1.4,0.2-2.6,0.5-3.7c0.3-1.1,0.8-2.1,1.4-2.9
			c0.6-0.8,1.3-1.4,2.2-1.9c0.9-0.4,1.9-0.7,3-0.7c0.8,0,1.5,0.1,2.2,0.4s1.2,0.6,1.6,1v-5.7l4.7-2.4v25.1H176.4z M176.4,53.9
			c-0.8-1-1.8-1.5-3.2-1.5c-1.9,0-2.8,1.5-2.8,4.6c0,1.9,0.3,3.2,0.8,4s1.3,1.2,2.3,1.2c0.7,0,1.3-0.1,1.8-0.4
			c0.4-0.3,0.8-0.6,1.2-1.1V53.9z"/>
		<path id="XMLID_21_" class="st0" d="M195.4,66.3V42.3h16.7V47h-11.9v4.2h6.9v4.7h-6.9v5.8h12.4v4.7H195.4z"/>
		<path id="XMLID_18_" class="st0" d="M232,57.5c0,1.4-0.2,2.6-0.5,3.7c-0.3,1.1-0.8,2.1-1.4,2.9c-0.6,0.8-1.3,1.4-2.2,1.9
			c-0.9,0.4-1.9,0.7-3,0.7c-0.8,0-1.5-0.1-2.2-0.4c-0.7-0.3-1.2-0.6-1.6-1v5.3l-4.7,2.4V48.3h4.7v1.1c0.5-0.4,1-0.7,1.6-1
			c0.6-0.3,1.3-0.5,2.2-0.5c1,0,1.9,0.2,2.7,0.6c0.8,0.4,1.6,0.9,2.2,1.7c0.6,0.8,1.1,1.8,1.5,3C231.8,54.4,232,55.9,232,57.5z
			 M227.1,57.6c0-1.9-0.3-3.2-0.8-4c-0.6-0.8-1.3-1.2-2.3-1.2c-0.7,0-1.3,0.1-1.8,0.4c-0.4,0.3-0.8,0.6-1.2,1.1v6.8
			c0.8,1,1.8,1.5,3.2,1.5C226.2,62.2,227.1,60.7,227.1,57.6z"/>
		<path id="XMLID_15_" class="st0" d="M240.4,44.1c0,0.7-0.3,1.4-0.8,1.9c-0.5,0.5-1.2,0.8-1.9,0.8s-1.4-0.3-1.9-0.8
			c-0.5-0.5-0.8-1.2-0.8-1.9c0-0.7,0.3-1.4,0.8-1.9c0.5-0.5,1.2-0.8,1.9-0.8s1.4,0.3,1.9,0.8C240.1,42.7,240.4,43.3,240.4,44.1z
			 M235.3,66.3V48.3h4.7v18.1H235.3z"/>
		<path id="XMLID_13_" class="st0" d="M244.4,66.3V43.6l4.7-2.4v25.1H244.4z"/>
		<path id="XMLID_10_" class="st0" d="M268.1,57.3c0,0.3,0,0.6,0,0.9c0,0.2,0,0.5-0.1,0.6h-10.8c0,0.6,0.2,1.1,0.4,1.6
			c0.2,0.4,0.5,0.8,0.9,1c0.3,0.3,0.7,0.5,1.2,0.6c0.4,0.1,0.9,0.2,1.3,0.2c0.7,0,1.3-0.1,1.8-0.3c0.5-0.2,1-0.5,1.3-0.9l3.4,2.8
			c-0.7,0.9-1.7,1.7-2.9,2.2s-2.4,0.8-3.6,0.8c-1.3,0-2.5-0.2-3.5-0.7c-1-0.4-1.9-1.1-2.7-1.9c-0.7-0.8-1.3-1.8-1.7-3
			c-0.4-1.2-0.6-2.4-0.6-3.9c0-1.4,0.2-2.6,0.6-3.8c0.4-1.2,1-2.2,1.7-3c0.7-0.8,1.6-1.5,2.5-1.9c1-0.5,2-0.7,3.2-0.7
			c1.2,0,2.3,0.2,3.2,0.7c1,0.5,1.7,1.2,2.4,2c0.6,0.9,1.1,1.9,1.5,3C267.9,54.8,268.1,56,268.1,57.3z M263.4,55.3
			c0-0.4-0.1-0.8-0.3-1.2s-0.3-0.7-0.6-1c-0.3-0.3-0.6-0.6-1-0.7c-0.4-0.2-0.9-0.3-1.4-0.3c-0.9,0-1.6,0.3-2.1,0.9
			c-0.5,0.6-0.8,1.4-0.9,2.3H263.4z"/>
		<path id="XMLID_7_" class="st0" d="M286.8,57.5c0,1.4-0.2,2.6-0.5,3.7c-0.3,1.1-0.8,2.1-1.4,2.9c-0.6,0.8-1.3,1.4-2.2,1.9
			c-0.9,0.4-1.9,0.7-3,0.7c-0.8,0-1.5-0.1-2.2-0.4c-0.7-0.3-1.2-0.6-1.6-1v5.3l-4.7,2.4V48.3h4.7v1.1c0.5-0.4,1-0.7,1.6-1
			c0.6-0.3,1.3-0.5,2.2-0.5c1,0,1.9,0.2,2.7,0.6c0.8,0.4,1.6,0.9,2.2,1.7c0.6,0.8,1.1,1.8,1.5,3C286.6,54.4,286.8,55.9,286.8,57.5z
			 M282,57.6c0-1.9-0.3-3.2-0.8-4c-0.6-0.8-1.3-1.2-2.3-1.2c-0.7,0-1.3,0.1-1.8,0.4c-0.4,0.3-0.8,0.6-1.2,1.1v6.8
			c0.8,1,1.8,1.5,3.2,1.5C281.1,62.2,282,60.7,282,57.6z"/>
		<path id="XMLID_5_" class="st0" d="M304.3,61.1c0,1-0.2,1.9-0.6,2.6s-0.9,1.3-1.6,1.8c-0.7,0.4-1.4,0.8-2.3,1
			c-0.9,0.2-1.8,0.3-2.9,0.3c-1.4,0-2.8-0.2-4.1-0.6c-1.3-0.4-2.5-0.9-3.4-1.5l1.6-3.6c1,0.5,2,0.9,3,1.2c1,0.3,2.1,0.4,3.3,0.4
			c0.9,0,1.6-0.1,1.9-0.3c0.3-0.2,0.5-0.6,0.5-1c0-0.4-0.2-0.7-0.6-1c-0.4-0.3-1.1-0.5-2.1-0.8c-1.1-0.3-2.1-0.6-2.9-1
			c-0.9-0.3-1.6-0.7-2.3-1.2c-0.6-0.4-1.1-1-1.4-1.6c-0.3-0.6-0.5-1.4-0.5-2.4c0-0.9,0.2-1.7,0.5-2.4c0.4-0.7,0.9-1.2,1.5-1.7
			c0.6-0.4,1.4-0.8,2.3-1c0.9-0.2,1.9-0.3,2.9-0.3c1.1,0,2.3,0.2,3.5,0.5c1.2,0.3,2.2,0.7,3.2,1.3l-1.5,3.7
			c-0.9-0.5-1.8-0.8-2.7-1.1s-1.8-0.4-2.5-0.4c-1,0-1.6,0.1-1.9,0.3c-0.3,0.2-0.5,0.5-0.5,0.9c0,0.2,0,0.4,0.1,0.5s0.3,0.3,0.5,0.4
			c0.3,0.1,0.6,0.3,1.1,0.5c0.5,0.2,1.1,0.4,1.9,0.7c0.8,0.3,1.6,0.6,2.3,0.9c0.7,0.3,1.4,0.7,1.9,1.1c0.5,0.4,1,1,1.3,1.6
			C304.1,59.4,304.3,60.2,304.3,61.1z"/>
		<path id="XMLID_3_" class="st0" d="M315.7,72.7H311l2.4-6.4l-7-18.1h5.2l3,8.7c0.3,0.7,0.5,1.4,0.7,2.2c0.2,0.8,0.4,1.4,0.5,1.8
			c0.1-0.5,0.3-1.1,0.5-1.8c0.2-0.7,0.4-1.5,0.7-2.2l3-8.7h5.1L315.7,72.7z"/>
	</g>
</g>
</svg>
