<!-- Generator: Adobe Illustrator 22.1.0, SVG Export Plug-In  -->
<svg version="1.1"
	 xmlns="http://www.w3.org/2000/svg" xmlns:xlink="http://www.w3.org/1999/xlink" xmlns:a="http://ns.adobe.com/AdobeSVGViewerExtensions/3.0/"
	 x="0px" y="0px" width="477.4px" height="72.7px" viewBox="0 0 477.4 72.7" style="enable-background:new 0 0 477.4 72.7;"
	 xml:space="preserve">
<style type="text/css">
	.st0{fill:#266093;}
</style>
<defs>
</defs>
<g id="XMLID_1_">
	<g>
		<path id="XMLID_125_" class="st0" d="M22.2,25.1h-4.7l-3-12.4c-0.2-0.7-0.3-1.5-0.5-2.3c-0.1-0.8-0.3-1.4-0.3-1.9
			c0,0.5-0.1,1.1-0.3,1.9c-0.1,0.8-0.3,1.5-0.5,2.3l-3,12.4H5.4L0.3,1h5l2.1,11.7c0.1,0.6,0.2,1.3,0.3,2C7.9,15.5,8,16.2,8,16.7
			c0.1-0.5,0.2-1.1,0.4-1.9c0.2-0.8,0.3-1.4,0.4-2L11.7,1h4.2l2.9,11.7c0.1,0.6,0.3,1.3,0.4,2c0.2,0.8,0.3,1.4,0.4,1.9
			c0-0.5,0.1-1.1,0.2-1.9c0.1-0.8,0.2-1.5,0.3-2L22.2,1h5L22.2,25.1z"/>
		<path id="XMLID_122_" class="st0" d="M45.4,16.1c0,0.3,0,0.6,0,0.9c0,0.2,0,0.5-0.1,0.6H34.5c0,0.6,0.2,1.1,0.4,1.6s0.5,0.8,0.9,1
			s0.7,0.5,1.2,0.6c0.4,0.1,0.9,0.2,1.3,0.2c0.7,0,1.3-0.1,1.8-0.3c0.5-0.2,1-0.5,1.3-0.9l3.4,2.8c-0.7,0.9-1.7,1.7-2.9,2.2
			s-2.4,0.8-3.6,0.8c-1.3,0-2.5-0.2-3.5-0.7c-1-0.4-1.9-1.1-2.7-1.9c-0.7-0.8-1.3-1.8-1.7-3c-0.4-1.2-0.6-2.4-0.6-3.9
			c0-1.4,0.2-2.6,0.6-3.8s1-2.2,1.7-3c0.7-0.8,1.6-1.5,2.5-1.9c1-0.5,2-0.7,3.2-0.7c1.2,0,2.3,0.2,3.2,0.7c1,0.5,1.7,1.2,2.4,2
			c0.6,0.9,1.1,1.9,1.5,3C45.2,13.6,45.4,14.8,45.4,16.1z M40.7,14c0-0.4-0.1-0.8-0.3-1.2c-0.1-0.4-0.3-0.7-0.6-1s-0.6-0.6-1-0.7
			s-0.9-0.3-1.4-0.3c-0.9,0-1.6,0.3-2.1,0.9c-0.5,0.6-0.8,1.4-0.9,2.3H40.7z"/>
		<path id="XMLID_120_" class="st0" d="M48.7,25.1V2.4L53.5,0v25.1H48.7z"/>
		<path id="XMLID_118_" class="st0" d="M57.8,25.1V2.4L62.6,0v25.1H57.8z"/>
		<path id="XMLID_116_" class="st0" d="M87.1,5.7v19.3h-4.8V5.7h-6.9V1H94v4.7H87.1z"/>
		<path id="XMLID_113_" class="st0" d="M112.7,16.1c0,1.4-0.2,2.6-0.6,3.8s-1,2.1-1.7,3s-1.6,1.5-2.6,1.9c-1,0.5-2.1,0.7-3.3,0.7
			s-2.3-0.2-3.2-0.7s-1.9-1.1-2.6-1.9s-1.3-1.8-1.7-3s-0.6-2.4-0.6-3.8c0-1.4,0.2-2.6,0.6-3.8s1-2.2,1.7-3c0.7-0.8,1.6-1.5,2.6-1.9
			c1-0.5,2.1-0.7,3.2-0.7s2.3,0.2,3.3,0.7c1,0.5,1.9,1.1,2.6,1.9c0.7,0.8,1.3,1.8,1.7,3S112.7,14.7,112.7,16.1z M107.9,16.1
			c0-1.4-0.3-2.5-0.8-3.5c-0.6-0.9-1.4-1.4-2.5-1.4c-1.1,0-2,0.5-2.5,1.4s-0.8,2.1-0.8,3.5c0,1.4,0.3,2.6,0.8,3.5s1.4,1.4,2.5,1.4
			c0.6,0,1.1-0.1,1.5-0.4c0.4-0.3,0.8-0.6,1-1.1c0.3-0.5,0.5-1,0.6-1.6C107.8,17.3,107.9,16.7,107.9,16.1z"/>
		<path id="XMLID_111_" class="st0" d="M116,25.1V2.4l4.7-2.4v25.1H116z"/>
		<path id="XMLID_108_" class="st0" d="M139.6,16.1c0,0.3,0,0.6,0,0.9c0,0.2,0,0.5-0.1,0.6h-10.8c0,0.6,0.2,1.1,0.4,1.6
			s0.5,0.8,0.9,1s0.7,0.5,1.2,0.6c0.4,0.1,0.9,0.2,1.3,0.2c0.7,0,1.3-0.1,1.8-0.3c0.5-0.2,1-0.5,1.3-0.9l3.4,2.8
			c-0.7,0.9-1.7,1.7-2.9,2.2s-2.4,0.8-3.6,0.8c-1.3,0-2.5-0.2-3.5-0.7c-1-0.4-1.9-1.1-2.7-1.9c-0.7-0.8-1.3-1.8-1.7-3
			c-0.4-1.2-0.6-2.4-0.6-3.9c0-1.4,0.2-2.6,0.6-3.8s1-2.2,1.7-3c0.7-0.8,1.6-1.5,2.5-1.9c1-0.5,2-0.7,3.2-0.7c1.2,0,2.3,0.2,3.2,0.7
			c1,0.5,1.7,1.2,2.4,2c0.6,0.9,1.1,1.9,1.5,3C139.5,13.6,139.6,14.8,139.6,16.1z M135,14c0-0.4-0.1-0.8-0.3-1.2
			c-0.1-0.4-0.3-0.7-0.6-1s-0.6-0.6-1-0.7s-0.9-0.3-1.4-0.3c-0.9,0-1.6,0.3-2.1,0.9c-0.5,0.6-0.8,1.4-0.9,2.3H135z"/>
		<path id="XMLID_106_" class="st0" d="M153.4,12.5c-0.4-0.3-0.8-0.6-1.3-0.8c-0.5-0.2-1-0.3-1.5-0.3c-0.5,0-0.9,0.1-1.3,0.2
			c-0.4,0.1-0.7,0.3-1,0.6c-0.3,0.3-0.5,0.7-0.6,1.2c-0.1,0.5-0.2,1.1-0.2,1.9v9.8h-4.7V7h4.7v1.2c0.4-0.4,0.9-0.8,1.5-1.1
			s1.3-0.5,2.2-0.5c0.8,0,1.4,0.1,2,0.4c0.6,0.3,1,0.6,1.3,0.9L153.4,12.5z"/>
		<path id="XMLID_103_" class="st0" d="M166.9,25.1v-1.2c-0.4,0.5-1,0.8-1.7,1.1c-0.7,0.3-1.5,0.4-2.3,0.4c-0.8,0-1.7-0.1-2.5-0.4
			c-0.8-0.3-1.5-0.7-2.1-1.2s-1.1-1.2-1.5-2c-0.4-0.8-0.6-1.8-0.6-2.9c0-1,0.2-1.9,0.6-2.6c0.4-0.8,0.9-1.4,1.6-1.9
			c0.7-0.5,1.4-0.9,2.3-1.1c0.9-0.3,1.8-0.4,2.9-0.4c0.8,0,1.5,0.1,2.1,0.2c0.5,0.1,1,0.3,1.4,0.5v-0.9c0-0.6-0.2-1.2-0.6-1.6
			c-0.4-0.4-1.1-0.7-1.9-0.7c-0.5,0-1,0-1.5,0.1c-0.4,0-0.8,0.1-1.2,0.2c-0.4,0.1-0.8,0.2-1.1,0.4c-0.4,0.1-0.8,0.3-1.2,0.6
			l-1.8-3.3c0.5-0.3,1-0.6,1.5-0.8c0.5-0.2,1-0.4,1.5-0.6c0.5-0.1,1.1-0.3,1.7-0.3c0.6-0.1,1.3-0.1,2-0.1c1.1,0,2.1,0.1,3,0.4
			c0.9,0.3,1.7,0.7,2.3,1.2c0.6,0.5,1.1,1.2,1.5,2c0.4,0.8,0.5,1.7,0.5,2.7v12.1H166.9z M166.9,17.5c-0.4-0.3-0.9-0.4-1.3-0.6
			c-0.5-0.1-1.1-0.2-2-0.2c-0.9,0-1.6,0.2-2,0.6c-0.5,0.4-0.7,1-0.7,1.7c0,0.6,0.2,1.2,0.6,1.7c0.4,0.5,1.1,0.7,2.1,0.7
			c0.8,0,1.5-0.2,2-0.5c0.6-0.3,1-0.7,1.3-1.2V17.5z"/>
		<path id="XMLID_101_" class="st0" d="M185.6,24.3c-0.4,0.3-0.9,0.6-1.6,0.8c-0.7,0.2-1.4,0.3-2.1,0.3c-0.7,0-1.4-0.1-2-0.4
			c-0.6-0.3-1.1-0.6-1.5-1.1s-0.7-1.1-1-1.7s-0.3-1.4-0.3-2.2v-8.5h-3V7h3V2.4l4.7-2.4v7h4.3v4.5h-4.3v7.3c0,0.9,0.1,1.4,0.4,1.7
			c0.3,0.3,0.7,0.4,1.3,0.4c0.4,0,0.8-0.1,1.2-0.3c0.4-0.2,0.9-0.6,1.5-1.1L185.6,24.3z"/>
		<path id="XMLID_98_" class="st0" d="M204.8,16.1c0,0.3,0,0.6,0,0.9c0,0.2,0,0.5-0.1,0.6h-10.8c0,0.6,0.2,1.1,0.4,1.6
			s0.5,0.8,0.9,1s0.7,0.5,1.2,0.6c0.4,0.1,0.9,0.2,1.3,0.2c0.7,0,1.3-0.1,1.8-0.3c0.5-0.2,1-0.5,1.3-0.9l3.4,2.8
			c-0.7,0.9-1.7,1.7-2.9,2.2s-2.4,0.8-3.6,0.8c-1.3,0-2.5-0.2-3.5-0.7c-1-0.4-1.9-1.1-2.7-1.9c-0.7-0.8-1.3-1.8-1.7-3
			c-0.4-1.2-0.6-2.4-0.6-3.9c0-1.4,0.2-2.6,0.6-3.8s1-2.2,1.7-3c0.7-0.8,1.6-1.5,2.5-1.9c1-0.5,2-0.7,3.2-0.7c1.2,0,2.3,0.2,3.2,0.7
			c1,0.5,1.7,1.2,2.4,2c0.6,0.9,1.1,1.9,1.5,3C204.7,13.6,204.8,14.8,204.8,16.1z M200.2,14c0-0.4-0.1-0.8-0.3-1.2
			c-0.1-0.4-0.3-0.7-0.6-1s-0.6-0.6-1-0.7s-0.9-0.3-1.4-0.3c-0.9,0-1.6,0.3-2.1,0.9c-0.5,0.6-0.8,1.4-0.9,2.3H200.2z"/>
		<path id="XMLID_95_" class="st0" d="M217.9,25.1v-1.1c-0.5,0.4-1,0.7-1.6,1c-0.6,0.3-1.3,0.5-2.2,0.5c-1,0-1.9-0.2-2.7-0.5
			c-0.8-0.4-1.6-0.9-2.2-1.7c-0.6-0.8-1.1-1.8-1.5-3c-0.4-1.2-0.5-2.7-0.5-4.3c0-1.4,0.2-2.6,0.5-3.7c0.3-1.1,0.8-2.1,1.4-2.9
			c0.6-0.8,1.3-1.4,2.2-1.9c0.9-0.4,1.9-0.7,3-0.7c0.8,0,1.5,0.1,2.2,0.4c0.7,0.3,1.2,0.6,1.6,1V2.4l4.7-2.4v25.1H217.9z
			 M217.9,12.7c-0.8-1-1.8-1.5-3.2-1.5c-1.9,0-2.8,1.5-2.8,4.6c0,1.9,0.3,3.2,0.8,4c0.6,0.8,1.3,1.2,2.3,1.2c0.7,0,1.3-0.1,1.8-0.4
			c0.4-0.3,0.8-0.6,1.2-1.1V12.7z"/>
		<path id="XMLID_93_" class="st0" d="M254.6,25.1v-8.8c0-0.3,0-0.7,0-1.2c0-0.5,0-1,0-1.5c0-0.5,0-1,0-1.5c0-0.5,0-0.8,0-1
			c-0.2,0.5-0.4,1.1-0.7,1.8c-0.3,0.8-0.6,1.5-0.9,2.2l-4.9,10.7l-4.9-10.7c-0.3-0.7-0.6-1.4-0.9-2.2c-0.3-0.8-0.6-1.4-0.7-1.8
			c0,0.2,0,0.6,0,1c0,0.5,0,1,0,1.5c0,0.5,0,1,0,1.5c0,0.5,0,0.9,0,1.2v8.8h-4.7V1h4.7l5,10.9c0.2,0.3,0.3,0.7,0.5,1.1
			s0.3,0.8,0.5,1.1c0.1,0.4,0.3,0.7,0.4,1c0.1,0.3,0.2,0.6,0.3,0.8c0.2-0.5,0.4-1.1,0.7-1.8c0.3-0.8,0.6-1.5,0.9-2.2L254.7,1h4.7
			v24.1H254.6z"/>
		<path id="XMLID_90_" class="st0" d="M279,16.1c0,0.3,0,0.6,0,0.9c0,0.2,0,0.5-0.1,0.6h-10.8c0,0.6,0.2,1.1,0.4,1.6s0.5,0.8,0.9,1
			s0.7,0.5,1.2,0.6c0.4,0.1,0.9,0.2,1.3,0.2c0.7,0,1.3-0.1,1.8-0.3c0.5-0.2,1-0.5,1.3-0.9l3.4,2.8c-0.7,0.9-1.7,1.7-2.9,2.2
			s-2.4,0.8-3.6,0.8c-1.3,0-2.5-0.2-3.5-0.7c-1-0.4-1.9-1.1-2.7-1.9c-0.7-0.8-1.3-1.8-1.7-3c-0.4-1.2-0.6-2.4-0.6-3.9
			c0-1.4,0.2-2.6,0.6-3.8s1-2.2,1.7-3c0.7-0.8,1.6-1.5,2.5-1.9c1-0.5,2-0.7,3.2-0.7c1.2,0,2.3,0.2,3.2,0.7c1,0.5,1.7,1.2,2.4,2
			c0.6,0.9,1.1,1.9,1.5,3C278.8,13.6,279,14.8,279,16.1z M274.4,14c0-0.4-0.1-0.8-0.3-1.2c-0.1-0.4-0.3-0.7-0.6-1s-0.6-0.6-1-0.7
			s-0.9-0.3-1.4-0.3c-0.9,0-1.6,0.3-2.1,0.9c-0.5,0.6-0.8,1.4-0.9,2.3H274.4z"/>
		<path id="XMLID_87_" class="st0" d="M292.1,25.1v-1.1c-0.5,0.4-1,0.7-1.6,1c-0.6,0.3-1.3,0.5-2.2,0.5c-1,0-1.9-0.2-2.7-0.5
			c-0.8-0.4-1.6-0.9-2.2-1.7c-0.6-0.8-1.1-1.8-1.5-3c-0.4-1.2-0.5-2.7-0.5-4.3c0-1.4,0.2-2.6,0.5-3.7c0.3-1.1,0.8-2.1,1.4-2.9
			c0.6-0.8,1.3-1.4,2.2-1.9c0.9-0.4,1.9-0.7,3-0.7c0.8,0,1.5,0.1,2.2,0.4c0.7,0.3,1.2,0.6,1.6,1V2.4l4.7-2.4v25.1H292.1z
			 M292.1,12.7c-0.8-1-1.8-1.5-3.2-1.5c-1.9,0-2.8,1.5-2.8,4.6c0,1.9,0.3,3.2,0.8,4c0.6,0.8,1.3,1.2,2.3,1.2c0.7,0,1.3-0.1,1.8-0.4
			c0.4-0.3,0.8-0.6,1.2-1.1V12.7z"/>
		<path id="XMLID_84_" class="st0" d="M306.2,2.8c0,0.7-0.3,1.4-0.8,1.9c-0.5,0.5-1.2,0.8-1.9,0.8c-0.7,0-1.4-0.3-1.9-0.8
			c-0.5-0.5-0.8-1.2-0.8-1.9s0.3-1.4,0.8-1.9c0.5-0.5,1.2-0.8,1.9-0.8c0.7,0,1.4,0.3,1.9,0.8C305.9,1.4,306.2,2.1,306.2,2.8z
			 M301.1,25.1V7h4.7v18.1H301.1z"/>
		<path id="XMLID_82_" class="st0" d="M323.6,23.1c-0.5,0.5-1,0.9-1.6,1.3c-0.6,0.4-1.2,0.6-2,0.8s-1.5,0.3-2.4,0.3
			c-1.2,0-2.3-0.2-3.3-0.7c-1-0.5-1.9-1.1-2.7-1.9c-0.8-0.8-1.4-1.8-1.8-3c-0.4-1.2-0.7-2.4-0.7-3.8c0-1.4,0.2-2.6,0.7-3.8
			c0.4-1.2,1-2.2,1.8-3c0.8-0.8,1.7-1.5,2.7-1.9c1.1-0.5,2.2-0.7,3.5-0.7c1.7,0,3.2,0.4,4.3,1.1c1.1,0.7,2.1,1.7,2.9,2.8l-3.1,3.2
			c-0.5-0.8-1.1-1.4-1.7-1.9c-0.6-0.5-1.4-0.7-2.4-0.7c-1.1,0-2.1,0.4-2.7,1.3c-0.7,0.9-1,2.1-1,3.6c0,1.5,0.3,2.6,1,3.5
			c0.7,0.9,1.6,1.3,2.7,1.3c0.9,0,1.7-0.2,2.4-0.6c0.6-0.4,1.3-1,1.9-1.7l3,2.8C324.5,22,324.1,22.6,323.6,23.1z"/>
		<path id="XMLID_79_" class="st0" d="M337.9,25.1v-1.2c-0.4,0.5-1,0.8-1.7,1.1c-0.7,0.3-1.5,0.4-2.3,0.4c-0.8,0-1.7-0.1-2.5-0.4
			c-0.8-0.3-1.5-0.7-2.1-1.2s-1.1-1.2-1.5-2c-0.4-0.8-0.6-1.8-0.6-2.9c0-1,0.2-1.9,0.6-2.6c0.4-0.8,0.9-1.4,1.6-1.9
			c0.7-0.5,1.4-0.9,2.3-1.1c0.9-0.3,1.8-0.4,2.9-0.4c0.8,0,1.5,0.1,2.1,0.2c0.5,0.1,1,0.3,1.4,0.5v-0.9c0-0.6-0.2-1.2-0.6-1.6
			c-0.4-0.4-1.1-0.7-1.9-0.7c-0.5,0-1,0-1.5,0.1c-0.4,0-0.8,0.1-1.2,0.2c-0.4,0.1-0.8,0.2-1.1,0.4c-0.4,0.1-0.8,0.3-1.2,0.6
			l-1.8-3.3c0.5-0.3,1-0.6,1.5-0.8c0.5-0.2,1-0.4,1.5-0.6c0.5-0.1,1.1-0.3,1.7-0.3c0.6-0.1,1.3-0.1,2-0.1c1.1,0,2.1,0.1,3,0.4
			c0.9,0.3,1.7,0.7,2.3,1.2c0.6,0.5,1.1,1.2,1.5,2c0.4,0.8,0.5,1.7,0.5,2.7v12.1H337.9z M337.9,17.5c-0.4-0.3-0.9-0.4-1.3-0.6
			c-0.5-0.1-1.1-0.2-2-0.2c-0.9,0-1.6,0.2-2,0.6c-0.5,0.4-0.7,1-0.7,1.7c0,0.6,0.2,1.2,0.6,1.7c0.4,0.5,1.1,0.7,2.1,0.7
			c0.8,0,1.5-0.2,2-0.5c0.6-0.3,1-0.7,1.3-1.2V17.5z"/>
		<path id="XMLID_77_" class="st0" d="M356.5,24.3c-0.4,0.3-0.9,0.6-1.6,0.8c-0.7,0.2-1.4,0.3-2.1,0.3c-0.7,0-1.4-0.1-2-0.4
			c-0.6-0.3-1.1-0.6-1.5-1.1s-0.7-1.1-1-1.7S348,20.8,348,20v-8.5h-3V7h3V2.4l4.7-2.4v7h4.3v4.5h-4.3v7.3c0,0.9,0.1,1.4,0.4,1.7
			c0.3,0.3,0.7,0.4,1.3,0.4c0.4,0,0.8-0.1,1.2-0.3c0.4-0.2,0.9-0.6,1.5-1.1L356.5,24.3z"/>
		<path id="XMLID_74_" class="st0" d="M366.3,2.8c0,0.7-0.3,1.4-0.8,1.9c-0.5,0.5-1.2,0.8-1.9,0.8c-0.7,0-1.4-0.3-1.9-0.8
			c-0.5-0.5-0.8-1.2-0.8-1.9s0.3-1.4,0.8-1.9c0.5-0.5,1.2-0.8,1.9-0.8c0.7,0,1.4,0.3,1.9,0.8C366.1,1.4,366.3,2.1,366.3,2.8z
			 M361.2,25.1V7h4.7v18.1H361.2z"/>
		<path id="XMLID_71_" class="st0" d="M385.6,16.1c0,1.4-0.2,2.6-0.6,3.8s-1,2.1-1.7,3s-1.6,1.5-2.6,1.9c-1,0.5-2.1,0.7-3.3,0.7
			s-2.3-0.2-3.2-0.7s-1.9-1.1-2.6-1.9s-1.3-1.8-1.7-3s-0.6-2.4-0.6-3.8c0-1.4,0.2-2.6,0.6-3.8s1-2.2,1.7-3c0.7-0.8,1.6-1.5,2.6-1.9
			c1-0.5,2.1-0.7,3.2-0.7s2.3,0.2,3.3,0.7c1,0.5,1.9,1.1,2.6,1.9c0.7,0.8,1.3,1.8,1.7,3S385.6,14.7,385.6,16.1z M380.8,16.1
			c0-1.4-0.3-2.5-0.8-3.5c-0.6-0.9-1.4-1.4-2.5-1.4c-1.1,0-2,0.5-2.5,1.4s-0.8,2.1-0.8,3.5c0,1.4,0.3,2.6,0.8,3.5s1.4,1.4,2.5,1.4
			c0.6,0,1.1-0.1,1.5-0.4c0.4-0.3,0.8-0.6,1-1.1c0.3-0.5,0.5-1,0.6-1.6C380.7,17.3,380.8,16.7,380.8,16.1z"/>
		<path id="XMLID_69_" class="st0" d="M399.6,25.1v-9.8c0-1.6-0.3-2.7-0.8-3.3c-0.5-0.6-1.3-0.9-2.3-0.9c-1,0-1.7,0.3-2.3,0.9
			c-0.5,0.6-0.8,1.7-0.8,3.2v9.9h-4.7V7h4.7v1.2c0.4-0.4,1-0.8,1.7-1.1c0.7-0.3,1.6-0.5,2.5-0.5c2.3,0,4,0.7,5.1,2.2
			c1.1,1.5,1.6,3.5,1.6,6v10.2H399.6z"/>
		<path id="XMLID_66_" class="st0" d="M427.5,25.1v-1.2c-0.4,0.5-1,0.8-1.7,1.1c-0.7,0.3-1.5,0.4-2.3,0.4c-0.8,0-1.7-0.1-2.5-0.4
			c-0.8-0.3-1.5-0.7-2.1-1.2s-1.1-1.2-1.5-2c-0.4-0.8-0.6-1.8-0.6-2.9c0-1,0.2-1.9,0.6-2.6c0.4-0.8,0.9-1.4,1.6-1.9
			c0.7-0.5,1.4-0.9,2.3-1.1C422,13.2,423,13,424,13c0.8,0,1.5,0.1,2.1,0.2c0.5,0.1,1,0.3,1.4,0.5v-0.9c0-0.6-0.2-1.2-0.6-1.6
			c-0.4-0.4-1.1-0.7-1.9-0.7c-0.5,0-1,0-1.5,0.1c-0.4,0-0.8,0.1-1.2,0.2c-0.4,0.1-0.8,0.2-1.1,0.4c-0.4,0.1-0.8,0.3-1.2,0.6
			l-1.8-3.3c0.5-0.3,1-0.6,1.5-0.8c0.5-0.2,1-0.4,1.5-0.6c0.5-0.1,1.1-0.3,1.7-0.3c0.6-0.1,1.3-0.1,2-0.1c1.1,0,2.1,0.1,3,0.4
			c0.9,0.3,1.7,0.7,2.3,1.2c0.6,0.5,1.1,1.2,1.5,2c0.4,0.8,0.5,1.7,0.5,2.7v12.1H427.5z M427.5,17.5c-0.4-0.3-0.9-0.4-1.3-0.6
			c-0.5-0.1-1.1-0.2-2-0.2c-0.9,0-1.6,0.2-2,0.6c-0.5,0.4-0.7,1-0.7,1.7c0,0.6,0.2,1.2,0.6,1.7c0.4,0.5,1.1,0.7,2.1,0.7
			c0.8,0,1.5-0.2,2-0.5c0.6-0.3,1-0.7,1.3-1.2V17.5z"/>
		<path id="XMLID_64_" class="st0" d="M447,25.1v-9.8c0-1.6-0.3-2.7-0.8-3.3c-0.5-0.6-1.3-0.9-2.3-0.9c-1,0-1.7,0.3-2.3,0.9
			c-0.5,0.6-0.8,1.7-0.8,3.2v9.9h-4.7V7h4.7v1.2c0.4-0.4,1-0.8,1.7-1.1c0.7-0.3,1.6-0.5,2.5-0.5c2.3,0,4,0.7,5.1,2.2
			c1.1,1.5,1.6,3.5,1.6,6v10.2H447z"/>
		<path id="XMLID_61_" class="st0" d="M465.5,25.1v-1.1c-0.5,0.4-1,0.7-1.6,1c-0.6,0.3-1.3,0.5-2.2,0.5c-1,0-1.9-0.2-2.7-0.5
			c-0.8-0.4-1.6-0.9-2.2-1.7c-0.6-0.8-1.1-1.8-1.5-3c-0.4-1.2-0.5-2.7-0.5-4.3c0-1.4,0.2-2.6,0.5-3.7c0.3-1.1,0.8-2.1,1.4-2.9
			c0.6-0.8,1.3-1.4,2.2-1.9c0.9-0.4,1.9-0.7,3-0.7c0.8,0,1.5,0.1,2.2,0.4c0.7,0.3,1.2,0.6,1.6,1V2.4l4.7-2.4v25.1H465.5z
			 M465.5,12.7c-0.8-1-1.8-1.5-3.2-1.5c-1.9,0-2.8,1.5-2.8,4.6c0,1.9,0.3,3.2,0.8,4c0.6,0.8,1.3,1.2,2.3,1.2c0.7,0,1.3-0.1,1.8-0.4
			c0.4-0.3,0.8-0.6,1.2-1.1V12.7z"/>
		<path id="XMLID_59_" class="st0" d="M13.2,66.3H8.6L0,42.3h5.3l4.5,13.9c0.1,0.3,0.2,0.7,0.3,1.1c0.1,0.4,0.2,0.7,0.3,1.1
			s0.2,0.7,0.3,1c0.1,0.3,0.1,0.6,0.2,0.8c0.1-0.5,0.3-1.1,0.5-1.8c0.2-0.7,0.4-1.5,0.6-2.2l4.4-13.9h5.3L13.2,66.3z"/>
		<path id="XMLID_56_" class="st0" d="M39.6,57.3c0,0.3,0,0.6,0,0.9c0,0.2,0,0.5-0.1,0.6H28.7c0,0.6,0.2,1.1,0.4,1.6s0.5,0.8,0.9,1
			s0.7,0.5,1.2,0.6c0.4,0.1,0.9,0.2,1.3,0.2c0.7,0,1.3-0.1,1.8-0.3c0.5-0.2,1-0.5,1.3-0.9l3.4,2.8c-0.7,0.9-1.7,1.7-2.9,2.2
			s-2.4,0.8-3.6,0.8c-1.3,0-2.5-0.2-3.5-0.7c-1-0.4-1.9-1.1-2.7-1.9c-0.7-0.8-1.3-1.8-1.7-3C24.2,60,24,58.7,24,57.3
			c0-1.4,0.2-2.6,0.6-3.8s1-2.2,1.7-3c0.7-0.8,1.6-1.5,2.5-1.9c1-0.5,2-0.7,3.2-0.7c1.2,0,2.3,0.2,3.2,0.7c1,0.5,1.7,1.2,2.4,2
			c0.6,0.9,1.1,1.9,1.5,3C39.4,54.8,39.6,56,39.6,57.3z M35,55.3c0-0.4-0.1-0.8-0.3-1.2c-0.1-0.4-0.3-0.7-0.6-1s-0.6-0.6-1-0.7
			S32.3,52,31.8,52c-0.9,0-1.6,0.3-2.1,0.9c-0.5,0.6-0.8,1.4-0.9,2.3H35z"/>
		<path id="XMLID_54_" class="st0" d="M53.4,53.8c-0.4-0.3-0.8-0.6-1.3-0.8c-0.5-0.2-1-0.3-1.5-0.3c-0.5,0-0.9,0.1-1.3,0.2
			c-0.4,0.1-0.7,0.3-1,0.6c-0.3,0.3-0.5,0.7-0.6,1.2c-0.1,0.5-0.2,1.1-0.2,1.9v9.8h-4.7V48.3h4.7v1.2c0.4-0.4,0.9-0.8,1.5-1.1
			s1.3-0.5,2.2-0.5c0.8,0,1.4,0.1,2,0.4c0.6,0.3,1,0.6,1.3,0.9L53.4,53.8z"/>
		<path id="XMLID_52_" class="st0" d="M64.8,72.7h-4.7l2.4-6.4l-7-18.1h5.2l3,8.7c0.3,0.7,0.5,1.4,0.7,2.2c0.2,0.8,0.4,1.4,0.5,1.8
			c0.1-0.5,0.3-1.1,0.5-1.8c0.2-0.7,0.4-1.5,0.7-2.2l3-8.7h5.1L64.8,72.7z"/>
		<path id="XMLID_50_" class="st0" d="M86.8,66.3V42.3h4.8v19.3h12.1v4.7H86.8z"/>
		<path id="XMLID_47_" class="st0" d="M122.2,57.3c0,1.4-0.2,2.6-0.6,3.8s-1,2.1-1.7,3s-1.6,1.5-2.6,1.9c-1,0.5-2.1,0.7-3.3,0.7
			s-2.3-0.2-3.2-0.7s-1.9-1.1-2.6-1.9s-1.3-1.8-1.7-3s-0.6-2.4-0.6-3.8c0-1.4,0.2-2.6,0.6-3.8s1-2.2,1.7-3c0.7-0.8,1.6-1.5,2.6-1.9
			c1-0.5,2.1-0.7,3.2-0.7s2.3,0.2,3.3,0.7c1,0.5,1.9,1.1,2.6,1.9c0.7,0.8,1.3,1.8,1.7,3S122.2,55.9,122.2,57.3z M117.4,57.3
			c0-1.4-0.3-2.5-0.8-3.5c-0.6-0.9-1.4-1.4-2.5-1.4c-1.1,0-2,0.5-2.5,1.4s-0.8,2.1-0.8,3.5c0,1.4,0.3,2.6,0.8,3.5s1.4,1.4,2.5,1.4
			c0.6,0,1.1-0.1,1.5-0.4c0.4-0.3,0.8-0.6,1-1.1c0.3-0.5,0.5-1,0.6-1.6C117.3,58.5,117.4,57.9,117.4,57.3z"/>
		<path id="XMLID_45_" class="st0" d="M142.4,66.3h-4l-1.8-7.1c-0.1-0.3-0.2-0.7-0.3-1.1c-0.1-0.4-0.2-0.8-0.3-1.2
			c-0.1-0.4-0.2-0.8-0.3-1.1c-0.1-0.3-0.1-0.6-0.2-0.8c0,0.2-0.1,0.5-0.2,0.8s-0.1,0.7-0.2,1.1c-0.1,0.4-0.2,0.8-0.3,1.2
			c-0.1,0.4-0.2,0.8-0.3,1.1l-1.8,7.1h-4l-5.2-18.1h4.8l1.6,6.7c0.1,0.3,0.1,0.7,0.2,1.1c0.1,0.4,0.2,0.8,0.3,1.2
			c0.1,0.4,0.1,0.7,0.2,1.1c0.1,0.3,0.1,0.6,0.2,0.8c0.1-0.5,0.2-1.1,0.4-1.9s0.4-1.5,0.6-2.3l1.8-6.7h3.9l1.8,6.7
			c0.2,0.7,0.4,1.5,0.6,2.3s0.3,1.4,0.4,1.9c0-0.2,0.1-0.5,0.1-0.8c0.1-0.3,0.1-0.7,0.2-1.1c0.1-0.4,0.2-0.8,0.3-1.2
			c0.1-0.4,0.2-0.8,0.2-1.1l1.6-6.7h4.7L142.4,66.3z"/>
		<path id="XMLID_42_" class="st0" d="M176.4,66.3l-1.9-5.4h-8.8l-1.9,5.4h-5.2l9.2-24.1h4.7l9.1,24.1H176.4z M171.3,52
			c-0.3-0.7-0.5-1.4-0.7-2.1c-0.2-0.7-0.4-1.2-0.5-1.7c-0.1,0.5-0.3,1-0.5,1.7c-0.2,0.7-0.5,1.4-0.7,2.1l-1.5,4.4h5.5L171.3,52z"/>
		<path id="XMLID_39_" class="st0" d="M194.7,66.3v-1.1c-0.5,0.4-1,0.7-1.6,1c-0.6,0.3-1.3,0.5-2.2,0.5c-1,0-1.9-0.2-2.7-0.5
			c-0.8-0.4-1.6-0.9-2.2-1.7c-0.6-0.8-1.1-1.8-1.5-3c-0.4-1.2-0.5-2.7-0.5-4.3c0-1.4,0.2-2.6,0.5-3.7c0.3-1.1,0.8-2.1,1.4-2.9
			c0.6-0.8,1.3-1.4,2.2-1.9c0.9-0.4,1.9-0.7,3-0.7c0.8,0,1.5,0.1,2.2,0.4c0.7,0.3,1.2,0.6,1.6,1v-5.7l4.7-2.4v25.1H194.7z
			 M194.7,53.9c-0.8-1-1.8-1.5-3.2-1.5c-1.9,0-2.8,1.5-2.8,4.6c0,1.9,0.3,3.2,0.8,4c0.6,0.8,1.3,1.2,2.3,1.2c0.7,0,1.3-0.1,1.8-0.4
			c0.4-0.3,0.8-0.6,1.2-1.1V53.9z"/>
		<path id="XMLID_37_" class="st0" d="M213.5,66.3h-4.9l-6.5-18.1h5.2l2.6,8.4c0.2,0.7,0.4,1.4,0.7,2.2c0.2,0.8,0.4,1.4,0.5,1.8
			c0.1-0.5,0.3-1.1,0.5-1.8c0.2-0.7,0.4-1.5,0.7-2.2l2.6-8.4h5.1L213.5,66.3z"/>
		<path id="XMLID_34_" class="st0" d="M237.2,57.3c0,0.3,0,0.6,0,0.9c0,0.2,0,0.5-0.1,0.6h-10.8c0,0.6,0.2,1.1,0.4,1.6
			s0.5,0.8,0.9,1s0.7,0.5,1.2,0.6c0.4,0.1,0.9,0.2,1.3,0.2c0.7,0,1.3-0.1,1.8-0.3c0.5-0.2,1-0.5,1.3-0.9l3.4,2.8
			c-0.7,0.9-1.7,1.7-2.9,2.2s-2.4,0.8-3.6,0.8c-1.3,0-2.5-0.2-3.5-0.7c-1-0.4-1.9-1.1-2.7-1.9c-0.7-0.8-1.3-1.8-1.7-3
			c-0.4-1.2-0.6-2.4-0.6-3.9c0-1.4,0.2-2.6,0.6-3.8s1-2.2,1.7-3c0.7-0.8,1.6-1.5,2.5-1.9c1-0.5,2-0.7,3.2-0.7c1.2,0,2.3,0.2,3.2,0.7
			c1,0.5,1.7,1.2,2.4,2c0.6,0.9,1.1,1.9,1.5,3C237.1,54.8,237.2,56,237.2,57.3z M232.6,55.3c0-0.4-0.1-0.8-0.3-1.2
			c-0.1-0.4-0.3-0.7-0.6-1s-0.6-0.6-1-0.7s-0.9-0.3-1.4-0.3c-0.9,0-1.6,0.3-2.1,0.9c-0.5,0.6-0.8,1.4-0.9,2.3H232.6z"/>
		<path id="XMLID_32_" class="st0" d="M251,53.8c-0.4-0.3-0.8-0.6-1.3-0.8c-0.5-0.2-1-0.3-1.5-0.3c-0.5,0-0.9,0.1-1.3,0.2
			c-0.4,0.1-0.7,0.3-1,0.6c-0.3,0.3-0.5,0.7-0.6,1.2c-0.1,0.5-0.2,1.1-0.2,1.9v9.8h-4.7V48.3h4.7v1.2c0.4-0.4,0.9-0.8,1.5-1.1
			s1.3-0.5,2.2-0.5c0.8,0,1.4,0.1,2,0.4c0.6,0.3,1,0.6,1.3,0.9L251,53.8z"/>
		<path id="XMLID_30_" class="st0" d="M268.8,61.1c0,1-0.2,1.9-0.6,2.6c-0.4,0.7-0.9,1.3-1.6,1.8c-0.7,0.4-1.4,0.8-2.3,1
			s-1.8,0.3-2.9,0.3c-1.4,0-2.8-0.2-4.1-0.6c-1.3-0.4-2.5-0.9-3.4-1.5l1.6-3.6c1,0.5,2,0.9,3,1.2c1,0.3,2.1,0.4,3.3,0.4
			c0.9,0,1.6-0.1,1.9-0.3c0.3-0.2,0.5-0.6,0.5-1c0-0.4-0.2-0.7-0.6-1c-0.4-0.3-1.1-0.5-2.1-0.8c-1.1-0.3-2.1-0.6-2.9-1
			c-0.9-0.3-1.6-0.7-2.3-1.2c-0.6-0.4-1.1-1-1.4-1.6c-0.3-0.6-0.5-1.4-0.5-2.4c0-0.9,0.2-1.7,0.5-2.4c0.4-0.7,0.9-1.2,1.5-1.7
			c0.6-0.4,1.4-0.8,2.3-1s1.9-0.3,2.9-0.3c1.1,0,2.3,0.2,3.5,0.5s2.2,0.7,3.2,1.3l-1.5,3.7c-0.9-0.5-1.8-0.8-2.7-1.1
			c-0.9-0.2-1.8-0.4-2.5-0.4c-1,0-1.6,0.1-1.9,0.3c-0.3,0.2-0.5,0.5-0.5,0.9c0,0.2,0,0.3,0.1,0.5c0.1,0.1,0.3,0.3,0.5,0.4
			c0.3,0.1,0.6,0.3,1.1,0.5c0.5,0.2,1.1,0.4,1.9,0.7c0.8,0.3,1.6,0.6,2.3,0.9c0.7,0.3,1.4,0.7,1.9,1.1c0.5,0.4,1,1,1.3,1.6
			C268.7,59.4,268.8,60.2,268.8,61.1z"/>
		<path id="XMLID_27_" class="st0" d="M287.2,57.3c0,0.3,0,0.6,0,0.9c0,0.2,0,0.5-0.1,0.6h-10.8c0,0.6,0.2,1.1,0.4,1.6
			s0.5,0.8,0.9,1s0.7,0.5,1.2,0.6c0.4,0.1,0.9,0.2,1.3,0.2c0.7,0,1.3-0.1,1.8-0.3c0.5-0.2,1-0.5,1.3-0.9l3.4,2.8
			c-0.7,0.9-1.7,1.7-2.9,2.2s-2.4,0.8-3.6,0.8c-1.3,0-2.5-0.2-3.5-0.7c-1-0.4-1.9-1.1-2.7-1.9c-0.7-0.8-1.3-1.8-1.7-3
			c-0.4-1.2-0.6-2.4-0.6-3.9c0-1.4,0.2-2.6,0.6-3.8s1-2.2,1.7-3c0.7-0.8,1.6-1.5,2.5-1.9c1-0.5,2-0.7,3.2-0.7c1.2,0,2.3,0.2,3.2,0.7
			c1,0.5,1.7,1.2,2.4,2c0.6,0.9,1.1,1.9,1.5,3C287,54.8,287.2,56,287.2,57.3z M282.6,55.3c0-0.4-0.1-0.8-0.3-1.2
			c-0.1-0.4-0.3-0.7-0.6-1s-0.6-0.6-1-0.7s-0.9-0.3-1.4-0.3c-0.9,0-1.6,0.3-2.1,0.9c-0.5,0.6-0.8,1.4-0.9,2.3H282.6z"/>
		<path id="XMLID_25_" class="st0" d="M300.5,66.3V42.3h16.7V47h-11.9v4.2h6.9v4.7h-6.9v5.8h12.4v4.7H300.5z"/>
		<path id="XMLID_23_" class="st0" d="M330.1,45.4c-0.3-0.1-0.6-0.1-0.9-0.1c-0.7,0-1.2,0.1-1.4,0.3c-0.2,0.2-0.3,0.6-0.3,1.1v1.5
			h3.1v4.5h-3.1v13.6h-4.7V52.7h-2.2v-4.5h2.2v-2.2c0-1.7,0.4-2.9,1.3-3.6c0.9-0.7,2.2-1.1,3.8-1.1c1.2,0,2.2,0.2,3,0.5v3.8
			C330.6,45.6,330.3,45.5,330.1,45.4z"/>
		<path id="XMLID_21_" class="st0" d="M342.2,45.4c-0.3-0.1-0.6-0.1-0.9-0.1c-0.7,0-1.2,0.1-1.4,0.3c-0.2,0.2-0.3,0.6-0.3,1.1v1.5
			h3.1v4.5h-3.1v13.6h-4.7V52.7h-2.2v-4.5h2.2v-2.2c0-1.7,0.4-2.9,1.3-3.6c0.9-0.7,2.2-1.1,3.8-1.1c1.2,0,2.2,0.2,3,0.5v3.8
			C342.7,45.6,342.5,45.5,342.2,45.4z"/>
		<path id="XMLID_18_" class="st0" d="M360.5,57.3c0,0.3,0,0.6,0,0.9c0,0.2,0,0.5-0.1,0.6h-10.8c0,0.6,0.2,1.1,0.4,1.6
			s0.5,0.8,0.9,1s0.7,0.5,1.2,0.6c0.4,0.1,0.9,0.2,1.3,0.2c0.7,0,1.3-0.1,1.8-0.3c0.5-0.2,1-0.5,1.3-0.9l3.4,2.8
			c-0.7,0.9-1.7,1.7-2.9,2.2s-2.4,0.8-3.6,0.8c-1.3,0-2.5-0.2-3.5-0.7c-1-0.4-1.9-1.1-2.7-1.9c-0.7-0.8-1.3-1.8-1.7-3
			c-0.4-1.2-0.6-2.4-0.6-3.9c0-1.4,0.2-2.6,0.6-3.8s1-2.2,1.7-3c0.7-0.8,1.6-1.5,2.5-1.9c1-0.5,2-0.7,3.2-0.7c1.2,0,2.3,0.2,3.2,0.7
			c1,0.5,1.7,1.2,2.4,2c0.6,0.9,1.1,1.9,1.5,3C360.3,54.8,360.5,56,360.5,57.3z M355.9,55.3c0-0.4-0.1-0.8-0.3-1.2
			c-0.1-0.4-0.3-0.7-0.6-1s-0.6-0.6-1-0.7s-0.9-0.3-1.4-0.3c-0.9,0-1.6,0.3-2.1,0.9c-0.5,0.6-0.8,1.4-0.9,2.3H355.9z"/>
		<path id="XMLID_16_" class="st0" d="M377.2,64.3c-0.5,0.5-1,0.9-1.6,1.3c-0.6,0.4-1.2,0.6-2,0.8s-1.5,0.3-2.4,0.3
			c-1.2,0-2.3-0.2-3.3-0.7c-1-0.5-1.9-1.1-2.7-1.9c-0.8-0.8-1.4-1.8-1.8-3c-0.4-1.2-0.7-2.4-0.7-3.8c0-1.4,0.2-2.6,0.7-3.8
			c0.4-1.2,1-2.2,1.8-3c0.8-0.8,1.7-1.5,2.7-1.9c1.1-0.5,2.2-0.7,3.5-0.7c1.7,0,3.2,0.4,4.3,1.1c1.1,0.7,2.1,1.7,2.9,2.8l-3.1,3.2
			c-0.5-0.8-1.1-1.4-1.7-1.9c-0.6-0.5-1.4-0.7-2.4-0.7c-1.1,0-2.1,0.4-2.7,1.3c-0.7,0.9-1,2.1-1,3.6c0,1.5,0.3,2.6,1,3.5
			c0.7,0.9,1.6,1.3,2.7,1.3c0.9,0,1.7-0.2,2.4-0.6c0.6-0.4,1.3-1,1.9-1.7l3,2.8C378.2,63.3,377.7,63.8,377.2,64.3z"/>
		<path id="XMLID_14_" class="st0" d="M391.7,65.6c-0.4,0.3-0.9,0.6-1.6,0.8c-0.7,0.2-1.4,0.3-2.1,0.3c-0.7,0-1.4-0.1-2-0.4
			c-0.6-0.3-1.1-0.6-1.5-1.1s-0.7-1.1-1-1.7s-0.3-1.4-0.3-2.2v-8.5h-3v-4.5h3v-4.6l4.7-2.4v7h4.3v4.5h-4.3V60c0,0.9,0.1,1.4,0.4,1.7
			c0.3,0.3,0.7,0.4,1.3,0.4c0.4,0,0.8-0.1,1.2-0.3c0.4-0.2,0.9-0.6,1.5-1.1L391.7,65.6z"/>
		<path id="XMLID_11_" class="st0" d="M420.3,66.3l-4.3-8.7h-4.8v8.7h-4.8V42.3h11.2c1.1,0,2.2,0.2,3.2,0.5c1,0.3,1.9,0.8,2.6,1.4
			c0.8,0.6,1.4,1.4,1.8,2.4c0.4,1,0.7,2.1,0.7,3.4c0,1.8-0.4,3.3-1.2,4.5c-0.8,1.2-1.9,2-3.5,2.6l4.6,9.4H420.3z M420.9,50
			c0-1.1-0.3-1.9-0.9-2.4s-1.4-0.7-2.5-0.7h-6.3v6.2h6.3C419.8,53.1,420.9,52.1,420.9,50z"/>
		<path id="XMLID_8_" class="st0" d="M439.5,66.3v-1.2c-0.4,0.5-1,0.8-1.7,1.1c-0.7,0.3-1.5,0.4-2.3,0.4c-0.8,0-1.7-0.1-2.5-0.4
			c-0.8-0.3-1.5-0.7-2.1-1.2s-1.1-1.2-1.5-2c-0.4-0.8-0.6-1.8-0.6-2.9c0-1,0.2-1.9,0.6-2.6c0.4-0.8,0.9-1.4,1.6-1.9
			c0.7-0.5,1.4-0.9,2.3-1.1c0.9-0.3,1.8-0.4,2.9-0.4c0.8,0,1.5,0.1,2.1,0.2c0.5,0.1,1,0.3,1.4,0.5v-0.9c0-0.6-0.2-1.2-0.6-1.6
			c-0.4-0.4-1.1-0.7-1.9-0.7c-0.5,0-1,0-1.5,0.1c-0.4,0-0.8,0.1-1.2,0.2c-0.4,0.1-0.8,0.2-1.1,0.4c-0.4,0.1-0.8,0.3-1.2,0.6
			l-1.8-3.3c0.5-0.3,1-0.6,1.5-0.8c0.5-0.2,1-0.4,1.5-0.6c0.5-0.1,1.1-0.3,1.7-0.3c0.6-0.1,1.3-0.1,2-0.1c1.1,0,2.1,0.1,3,0.4
			c0.9,0.3,1.7,0.7,2.3,1.2c0.6,0.5,1.1,1.2,1.5,2c0.4,0.8,0.5,1.7,0.5,2.7v12.1H439.5z M439.5,58.8c-0.4-0.3-0.9-0.4-1.3-0.6
			c-0.5-0.1-1.1-0.2-2-0.2c-0.9,0-1.6,0.2-2,0.6c-0.5,0.4-0.7,1-0.7,1.7c0,0.6,0.2,1.2,0.6,1.7c0.4,0.5,1.1,0.7,2.1,0.7
			c0.8,0,1.5-0.2,2-0.5c0.6-0.3,1-0.7,1.3-1.2V58.8z"/>
		<path id="XMLID_6_" class="st0" d="M458.2,65.6c-0.4,0.3-0.9,0.6-1.6,0.8c-0.7,0.2-1.4,0.3-2.1,0.3c-0.7,0-1.4-0.1-2-0.4
			c-0.6-0.3-1.1-0.6-1.5-1.1s-0.7-1.1-1-1.7s-0.3-1.4-0.3-2.2v-8.5h-3v-4.5h3v-4.6l4.7-2.4v7h4.3v4.5h-4.3V60c0,0.9,0.1,1.4,0.4,1.7
			c0.3,0.3,0.7,0.4,1.3,0.4c0.4,0,0.8-0.1,1.2-0.3c0.4-0.2,0.9-0.6,1.5-1.1L458.2,65.6z"/>
		<path id="XMLID_3_" class="st0" d="M477.4,57.3c0,0.3,0,0.6,0,0.9c0,0.2,0,0.5-0.1,0.6h-10.8c0,0.6,0.2,1.1,0.4,1.6s0.5,0.8,0.9,1
			s0.7,0.5,1.2,0.6c0.4,0.1,0.9,0.2,1.3,0.2c0.7,0,1.3-0.1,1.8-0.3c0.5-0.2,1-0.5,1.3-0.9l3.4,2.8c-0.7,0.9-1.7,1.7-2.9,2.2
			s-2.4,0.8-3.6,0.8c-1.3,0-2.5-0.2-3.5-0.7c-1-0.4-1.9-1.1-2.7-1.9c-0.7-0.8-1.3-1.8-1.7-3c-0.4-1.2-0.6-2.4-0.6-3.9
			c0-1.4,0.2-2.6,0.6-3.8s1-2.2,1.7-3c0.7-0.8,1.6-1.5,2.5-1.9c1-0.5,2-0.7,3.2-0.7c1.2,0,2.3,0.2,3.2,0.7c1,0.5,1.7,1.2,2.4,2
			c0.6,0.9,1.1,1.9,1.5,3C477.2,54.8,477.4,56,477.4,57.3z M472.8,55.3c0-0.4-0.1-0.8-0.3-1.2c-0.1-0.4-0.3-0.7-0.6-1
			s-0.6-0.6-1-0.7s-0.9-0.3-1.4-0.3c-0.9,0-1.6,0.3-2.1,0.9c-0.5,0.6-0.8,1.4-0.9,2.3H472.8z"/>
	</g>
</g>
</svg>
