<!-- Generator: Adobe Illustrator 22.1.0, SVG Export Plug-In  -->
<svg version="1.1"
	 xmlns="http://www.w3.org/2000/svg" xmlns:xlink="http://www.w3.org/1999/xlink" xmlns:a="http://ns.adobe.com/AdobeSVGViewerExtensions/3.0/"
	 x="0px" y="0px" width="381.6px" height="40.9px" viewBox="0 0 381.6 40.9" style="enable-background:new 0 0 381.6 40.9;"
	 xml:space="preserve">
<style type="text/css">
	.st0{fill:#266093;}
	.st1{fill:#532D6D;}
</style>
<defs>
</defs>
<g id="XMLID_1_">
	<path id="XMLID_23_" class="st0" d="M14.8,40.9c-4.4,0-8-1.6-10.8-4.4c-4.1-4.1-4-9.1-4-16c0-6.9-0.1-12,4-16
		C6.8,1.6,10.4,0,14.8,0c7.5,0,13.4,4.3,14.8,12.7h-8C20.8,9.5,18.8,7,14.9,7c-2.1,0-3.9,0.8-5,2.1c-1.5,1.7-2,3.6-2,11.4
		c0,7.7,0.5,9.7,2,11.4c1.1,1.3,2.9,2.1,5,2.1c4,0,6-2.5,6.8-5.7h8C28.2,36.6,22.2,40.9,14.8,40.9"/>
	<path id="XMLID_20_" class="st0" d="M47.9,18.6c-0.8-0.9-2-1.5-3.5-1.5c-1.5,0-2.8,0.6-3.6,1.5c-1.1,1.2-1.3,2.5-1.3,7.9
		c0,5.4,0.3,6.7,1.3,7.9c0.8,0.9,2.1,1.5,3.6,1.5c1.5,0,2.7-0.6,3.5-1.5c1.1-1.2,1.4-2.5,1.4-7.9C49.3,21,49,19.7,47.9,18.6
		 M52,37.7c-2,2-4.4,3.1-7.6,3.1c-3.2,0-5.7-1.1-7.6-3.1c-2.8-2.8-2.8-6.4-2.8-11.2c0-4.9-0.1-8.4,2.8-11.2c2-2,4.4-3.1,7.6-3.1
		c3.2,0,5.6,1.1,7.6,3.1c2.8,2.8,2.8,6.4,2.8,11.2C54.8,31.3,54.8,34.8,52,37.7"/>
	<polygon id="XMLID_19_" class="st0" points="77.1,40.5 65.9,23.3 65.9,40.5 60.4,40.5 60.4,12.4 65.3,12.4 76.5,29.6 76.5,12.4 
		82,12.4 82,40.5 	"/>
	<polygon id="XMLID_18_" class="st0" points="99.3,17.3 99.3,40.5 93.8,40.5 93.8,17.3 86.4,17.3 86.4,12.4 106.6,12.4 106.6,17.3 	
		"/>
	<path id="XMLID_15_" class="st0" d="M121.8,17.3h-5.2v7.4h5.2c2.4,0,4-1.5,4-3.7C125.8,18.8,124.2,17.3,121.8,17.3 M126,40.5
		l-5.5-11.2h-4v11.2h-5.5V12.4h11c5.7,0,9.1,3.9,9.1,8.6c0,4-2.4,6.4-5.1,7.4l6.3,12.1H126z"/>
	<path id="XMLID_12_" class="st0" d="M149.9,18.6c-0.8-0.9-2-1.5-3.5-1.5c-1.5,0-2.8,0.6-3.6,1.5c-1.1,1.2-1.3,2.5-1.3,7.9
		c0,5.4,0.3,6.7,1.3,7.9c0.8,0.9,2.1,1.5,3.6,1.5c1.5,0,2.7-0.6,3.5-1.5c1.1-1.2,1.4-2.5,1.4-7.9C151.3,21,151,19.7,149.9,18.6
		 M154,37.7c-2,2-4.4,3.1-7.6,3.1c-3.2,0-5.7-1.1-7.6-3.1c-2.8-2.8-2.8-6.4-2.8-11.2c0-4.9-0.1-8.4,2.8-11.2c2-2,4.4-3.1,7.6-3.1
		c3.2,0,5.6,1.1,7.6,3.1c2.8,2.8,2.8,6.4,2.8,11.2C156.8,31.3,156.8,34.8,154,37.7"/>
	<polygon id="XMLID_11_" class="st0" points="162.4,40.5 162.4,12.4 167.9,12.4 167.9,35.6 180.7,35.6 180.7,40.5 	"/>
	<polygon id="XMLID_10_" class="st1" points="193.4,40.5 191.3,40.5 191.3,14.6 183,14.6 183,12.7 201.7,12.7 201.7,14.6 
		193.4,14.6 	"/>
	<polygon id="XMLID_9_" class="st1" points="223.8,27.5 209.3,27.5 209.3,40.5 207.2,40.5 207.2,12.7 209.3,12.7 209.3,25.6 
		223.8,25.6 223.8,12.7 225.9,12.7 225.9,40.5 223.8,40.5 	"/>
	<polygon id="XMLID_8_" class="st1" points="234.5,12.7 251.4,12.7 251.4,14.6 236.6,14.6 236.6,25.6 249.2,25.6 249.2,27.5 
		236.6,27.5 236.6,38.7 251.4,38.7 251.4,40.5 234.5,40.5 	"/>
	<polygon id="XMLID_7_" class="st1" points="279.2,7.3 279.2,17.2 295.1,17.2 295.1,24.2 279.2,24.2 279.2,40.5 271.4,40.5 
		271.4,0.3 297.9,0.3 297.9,7.3 	"/>
	<polygon id="XMLID_6_" class="st1" points="303.3,40.5 303.3,12.4 308.8,12.4 308.8,35.6 321.5,35.6 321.5,40.5 	"/>
	<path id="XMLID_3_" class="st1" d="M337.9,18.6c-0.8-0.9-2-1.5-3.5-1.5c-1.5,0-2.8,0.6-3.6,1.5c-1.1,1.2-1.3,2.5-1.3,7.9
		c0,5.4,0.3,6.7,1.3,7.9c0.8,0.9,2.1,1.5,3.6,1.5c1.5,0,2.7-0.6,3.5-1.5c1.1-1.2,1.4-2.5,1.4-7.9C339.3,21,339,19.7,337.9,18.6
		 M342,37.7c-2,2-4.4,3.1-7.6,3.1c-3.2,0-5.7-1.1-7.6-3.1c-2.8-2.8-2.8-6.4-2.8-11.2c0-4.9-0.1-8.4,2.8-11.2c2-2,4.4-3.1,7.6-3.1
		c3.2,0,5.6,1.1,7.6,3.1c2.8,2.8,2.8,6.4,2.8,11.2C344.8,31.3,344.9,34.8,342,37.7"/>
	<polygon id="XMLID_2_" class="st1" points="374,40.5 369.5,40.5 364.3,23.5 359.1,40.5 354.5,40.5 347,12.4 352.7,12.4 357.1,30.1 
		362.2,12.4 366.3,12.4 371.5,30.1 375.9,12.4 381.6,12.4 	"/>
</g>
</svg>
