<!-- Generator: Adobe Illustrator 22.1.0, SVG Export Plug-In  -->
<svg version="1.1"
	 xmlns="http://www.w3.org/2000/svg" xmlns:xlink="http://www.w3.org/1999/xlink" xmlns:a="http://ns.adobe.com/AdobeSVGViewerExtensions/3.0/"
	 x="0px" y="0px" width="929.3px" height="690.6px" viewBox="0 0 929.3 690.6" style="enable-background:new 0 0 929.3 690.6;"
	 xml:space="preserve">
<style type="text/css">
	.st0{fill:none;}
	.st1{fill:#266093;}
</style>
<defs>
</defs>
<g id="XMLID_234_">
	<defs>
		<rect id="XMLID_235_" y="33.5" width="929.3" height="657.1"/>
	</defs>
	<clipPath id="XMLID_236_">
		<use xlink:href="#XMLID_235_"  style="overflow:visible;"/>
	</clipPath>
</g>
<rect id="XMLID_233_" y="33.5" class="st0" width="929.3" height="657.1"/>
<rect id="XMLID_232_" y="33.5" class="st0" width="929.3" height="657.1"/>
<rect id="XMLID_231_" y="33.5" class="st0" width="929.3" height="657.1"/>
<g id="XMLID_2_">
	<g id="XMLID_4_">
		<path id="XMLID_115_" class="st1" d="M291.6,24.8l-4.2-8.6h-4.8v8.6h-4.8V1h11.1c1.1,0,2.2,0.2,3.2,0.5c1,0.3,1.9,0.8,2.6,1.4
			c0.7,0.6,1.3,1.4,1.8,2.4c0.4,0.9,0.6,2,0.6,3.3c0,1.8-0.4,3.3-1.1,4.4c-0.8,1.1-1.9,2-3.4,2.6l4.6,9.2H291.6z M292.1,8.6
			c0-1.1-0.3-1.9-0.9-2.3c-0.6-0.5-1.4-0.7-2.5-0.7h-6.2v6.1h6.2C291,11.7,292.1,10.7,292.1,8.6z"/>
		<path id="XMLID_112_" class="st1" d="M315.2,15.9c0,0.3,0,0.6,0,0.9c0,0.2,0,0.4-0.1,0.6h-10.7c0,0.6,0.2,1.1,0.4,1.6
			c0.2,0.4,0.5,0.8,0.8,1c0.3,0.3,0.7,0.5,1.1,0.6c0.4,0.1,0.8,0.2,1.3,0.2c0.7,0,1.2-0.1,1.8-0.3c0.5-0.2,1-0.5,1.3-0.9l3.3,2.8
			c-0.7,0.9-1.7,1.6-2.8,2.1c-1.2,0.5-2.3,0.7-3.5,0.7c-1.3,0-2.4-0.2-3.5-0.7c-1-0.4-1.9-1.1-2.6-1.9c-0.7-0.8-1.3-1.8-1.7-2.9
			s-0.6-2.4-0.6-3.8c0-1.4,0.2-2.6,0.6-3.8c0.4-1.1,1-2.1,1.7-3c0.7-0.8,1.6-1.5,2.5-1.9c1-0.5,2-0.7,3.1-0.7c1.2,0,2.2,0.2,3.2,0.7
			c0.9,0.5,1.7,1.2,2.4,2c0.6,0.8,1.1,1.8,1.5,3C315,13.4,315.2,14.6,315.2,15.9z M310.7,13.8c0-0.4-0.1-0.8-0.3-1.2s-0.3-0.7-0.6-1
			c-0.3-0.3-0.6-0.5-1-0.7c-0.4-0.2-0.8-0.3-1.4-0.3c-0.9,0-1.5,0.3-2,0.9s-0.8,1.4-0.9,2.3H310.7z"/>
		<path id="XMLID_110_" class="st1" d="M328.3,24c-0.4,0.3-0.9,0.6-1.6,0.8c-0.7,0.2-1.3,0.3-2.1,0.3c-0.7,0-1.4-0.1-2-0.4
			c-0.6-0.3-1.1-0.6-1.5-1.1s-0.7-1-1-1.7c-0.2-0.7-0.3-1.4-0.3-2.2v-8.4h-3V6.9h3V2.3l4.7-2.3v6.9h4.3v4.4h-4.3v7.2
			c0,0.9,0.1,1.4,0.4,1.7c0.3,0.3,0.7,0.4,1.3,0.4c0.4,0,0.8-0.1,1.2-0.3c0.4-0.2,0.9-0.6,1.4-1.1L328.3,24z"/>
		<path id="XMLID_107_" class="st1" d="M342.6,24.8v-1.2c-0.4,0.5-1,0.8-1.7,1.1c-0.7,0.3-1.5,0.4-2.3,0.4c-0.8,0-1.7-0.1-2.4-0.4
			c-0.8-0.3-1.5-0.7-2.1-1.2c-0.6-0.5-1.1-1.2-1.5-2c-0.4-0.8-0.6-1.7-0.6-2.8c0-1,0.2-1.8,0.6-2.6c0.4-0.7,0.9-1.4,1.5-1.9
			c0.7-0.5,1.4-0.9,2.3-1.1c0.9-0.2,1.8-0.4,2.8-0.4c0.8,0,1.5,0.1,2,0.2c0.5,0.1,1,0.3,1.4,0.5v-0.9c0-0.6-0.2-1.2-0.6-1.6
			c-0.4-0.4-1.1-0.7-1.9-0.7c-0.5,0-1,0-1.4,0.1c-0.4,0-0.8,0.1-1.2,0.2c-0.4,0.1-0.7,0.2-1.1,0.4c-0.4,0.1-0.7,0.3-1.2,0.6
			l-1.8-3.3c0.5-0.3,1-0.6,1.5-0.8c0.5-0.2,1-0.4,1.5-0.6c0.5-0.1,1.1-0.3,1.7-0.3c0.6-0.1,1.2-0.1,2-0.1c1.1,0,2.1,0.1,3,0.4
			c0.9,0.3,1.6,0.7,2.3,1.2c0.6,0.5,1.1,1.2,1.5,2s0.5,1.7,0.5,2.7v12H342.6z M342.6,17.3c-0.4-0.2-0.8-0.4-1.3-0.6
			c-0.5-0.1-1.1-0.2-2-0.2c-0.9,0-1.6,0.2-2,0.6c-0.5,0.4-0.7,0.9-0.7,1.7c0,0.6,0.2,1.2,0.6,1.7c0.4,0.5,1.1,0.7,2.1,0.7
			c0.8,0,1.4-0.2,2-0.5c0.6-0.3,1-0.7,1.2-1.1V17.3z"/>
		<path id="XMLID_104_" class="st1" d="M356.3,2.8c0,0.7-0.3,1.4-0.8,1.9c-0.5,0.5-1.2,0.8-1.9,0.8c-0.7,0-1.4-0.3-1.9-0.8
			c-0.5-0.5-0.8-1.2-0.8-1.9s0.3-1.4,0.8-1.9c0.5-0.5,1.2-0.8,1.9-0.8c0.7,0,1.4,0.3,1.9,0.8C356,1.4,356.3,2.1,356.3,2.8z
			 M351.3,24.8V6.9h4.7v17.8H351.3z"/>
		<path id="XMLID_102_" class="st1" d="M370.9,24.8v-9.6c0-1.6-0.3-2.7-0.8-3.3c-0.5-0.6-1.3-0.9-2.2-0.9c-1,0-1.7,0.3-2.3,0.9
			c-0.5,0.6-0.8,1.6-0.8,3.2v9.7h-4.7V6.9h4.7v1.2c0.4-0.4,1-0.8,1.7-1.1s1.5-0.5,2.5-0.5c2.3,0,3.9,0.7,5,2.2
			c1.1,1.5,1.6,3.4,1.6,6v10.1H370.9z"/>
		<path id="XMLID_100_" class="st1" d="M393.5,19.6c0,1-0.2,1.9-0.6,2.6c-0.4,0.7-0.9,1.3-1.6,1.7c-0.7,0.4-1.4,0.8-2.3,1
			c-0.9,0.2-1.8,0.3-2.8,0.3c-1.4,0-2.8-0.2-4.1-0.6c-1.3-0.4-2.4-0.9-3.4-1.5l1.6-3.6c1,0.5,1.9,0.9,2.9,1.2c1,0.3,2.1,0.4,3.2,0.4
			c0.9,0,1.6-0.1,1.9-0.3c0.3-0.2,0.5-0.6,0.5-1c0-0.4-0.2-0.7-0.6-1c-0.4-0.2-1.1-0.5-2.1-0.8c-1.1-0.3-2-0.6-2.9-1
			c-0.9-0.3-1.6-0.7-2.2-1.2c-0.6-0.4-1.1-1-1.4-1.6c-0.3-0.6-0.5-1.4-0.5-2.4c0-0.9,0.2-1.7,0.5-2.4c0.4-0.7,0.8-1.2,1.5-1.6
			c0.6-0.4,1.4-0.7,2.3-1c0.9-0.2,1.8-0.3,2.9-0.3c1.1,0,2.3,0.2,3.4,0.5c1.2,0.3,2.2,0.7,3.2,1.3l-1.5,3.7
			c-0.9-0.5-1.8-0.8-2.7-1.1s-1.7-0.4-2.5-0.4c-1,0-1.6,0.1-1.9,0.3c-0.3,0.2-0.5,0.5-0.5,0.9c0,0.2,0,0.3,0.1,0.5
			c0.1,0.1,0.3,0.3,0.5,0.4c0.3,0.1,0.6,0.3,1.1,0.5c0.5,0.2,1.1,0.4,1.9,0.6c0.8,0.3,1.6,0.6,2.3,0.8c0.7,0.3,1.4,0.7,1.9,1.1
			s1,1,1.3,1.6C393.3,17.9,393.5,18.7,393.5,19.6z"/>
		<path id="XMLID_98_" class="st1" d="M407.4,24.8V1h4.8v23.8H407.4z"/>
		<path id="XMLID_96_" class="st1" d="M427.2,24c-0.4,0.3-0.9,0.6-1.6,0.8c-0.7,0.2-1.3,0.3-2.1,0.3c-0.7,0-1.4-0.1-2-0.4
			c-0.6-0.3-1.1-0.6-1.5-1.1s-0.7-1-1-1.7c-0.2-0.7-0.3-1.4-0.3-2.2v-8.4h-3V6.9h3V2.3l4.7-2.3v6.9h4.3v4.4h-4.3v7.2
			c0,0.9,0.1,1.4,0.4,1.7c0.3,0.3,0.7,0.4,1.3,0.4c0.4,0,0.8-0.1,1.2-0.3c0.4-0.2,0.9-0.6,1.4-1.1L427.2,24z"/>
		<path id="XMLID_94_" class="st1" d="M445.8,19.6c0,1-0.2,1.9-0.6,2.6c-0.4,0.7-0.9,1.3-1.6,1.7c-0.7,0.4-1.4,0.8-2.3,1
			c-0.9,0.2-1.8,0.3-2.8,0.3c-1.4,0-2.8-0.2-4.1-0.6c-1.3-0.4-2.4-0.9-3.4-1.5l1.6-3.6c1,0.5,1.9,0.9,2.9,1.2c1,0.3,2.1,0.4,3.2,0.4
			c0.9,0,1.6-0.1,1.9-0.3c0.3-0.2,0.5-0.6,0.5-1c0-0.4-0.2-0.7-0.6-1c-0.4-0.2-1.1-0.5-2.1-0.8c-1.1-0.3-2-0.6-2.9-1
			c-0.9-0.3-1.6-0.7-2.2-1.2c-0.6-0.4-1.1-1-1.4-1.6c-0.3-0.6-0.5-1.4-0.5-2.4c0-0.9,0.2-1.7,0.5-2.4c0.4-0.7,0.8-1.2,1.5-1.6
			c0.6-0.4,1.4-0.7,2.3-1c0.9-0.2,1.8-0.3,2.9-0.3c1.1,0,2.3,0.2,3.4,0.5c1.2,0.3,2.2,0.7,3.2,1.3l-1.5,3.7
			c-0.9-0.5-1.8-0.8-2.7-1.1c-0.9-0.2-1.7-0.4-2.5-0.4c-1,0-1.6,0.1-1.9,0.3c-0.3,0.2-0.5,0.5-0.5,0.9c0,0.2,0,0.3,0.1,0.5
			c0.1,0.1,0.3,0.3,0.5,0.4c0.3,0.1,0.6,0.3,1.1,0.5c0.5,0.2,1.1,0.4,1.9,0.6c0.8,0.3,1.6,0.6,2.3,0.8c0.7,0.3,1.4,0.7,1.9,1.1
			s1,1,1.3,1.6C445.7,17.9,445.8,18.7,445.8,19.6z"/>
		<path id="XMLID_92_" class="st1" d="M459.4,24.8V1h16.5v4.7h-11.8v4.1h6.8v4.6h-6.8v5.7h12.3v4.7H459.4z"/>
		<path id="XMLID_90_" class="st1" d="M488.6,4.1C488.4,4,488.1,4,487.7,4c-0.7,0-1.2,0.1-1.4,0.3c-0.2,0.2-0.3,0.6-0.3,1.1v1.5h3
			v4.4h-3v13.4h-4.7V11.3h-2.1V6.9h2.1V4.8c0-1.7,0.4-2.9,1.3-3.6c0.9-0.7,2.1-1.1,3.8-1.1c1.2,0,2.1,0.2,3,0.5v3.8
			C489.1,4.3,488.9,4.2,488.6,4.1z"/>
		<path id="XMLID_88_" class="st1" d="M500.6,4.1C500.4,4,500.1,4,499.7,4c-0.7,0-1.2,0.1-1.4,0.3c-0.2,0.2-0.3,0.6-0.3,1.1v1.5h3
			v4.4h-3v13.4h-4.7V11.3h-2.1V6.9h2.1V4.8c0-1.7,0.4-2.9,1.3-3.6c0.9-0.7,2.1-1.1,3.8-1.1c1.2,0,2.1,0.2,3,0.5v3.8
			C501.1,4.3,500.9,4.2,500.6,4.1z"/>
		<path id="XMLID_85_" class="st1" d="M518.7,15.9c0,0.3,0,0.6,0,0.9c0,0.2,0,0.4-0.1,0.6h-10.7c0,0.6,0.2,1.1,0.4,1.6
			c0.2,0.4,0.5,0.8,0.8,1c0.3,0.3,0.7,0.5,1.1,0.6c0.4,0.1,0.8,0.2,1.3,0.2c0.7,0,1.2-0.1,1.8-0.3c0.5-0.2,1-0.5,1.3-0.9l3.3,2.8
			c-0.7,0.9-1.7,1.6-2.8,2.1c-1.2,0.5-2.3,0.7-3.5,0.7c-1.3,0-2.4-0.2-3.5-0.7c-1-0.4-1.9-1.1-2.6-1.9c-0.7-0.8-1.3-1.8-1.7-2.9
			s-0.6-2.4-0.6-3.8c0-1.4,0.2-2.6,0.6-3.8c0.4-1.1,1-2.1,1.7-3c0.7-0.8,1.6-1.5,2.5-1.9c1-0.5,2-0.7,3.1-0.7c1.2,0,2.2,0.2,3.2,0.7
			c0.9,0.5,1.7,1.2,2.4,2c0.6,0.8,1.1,1.8,1.5,3C518.5,13.4,518.7,14.6,518.7,15.9z M514.1,13.8c0-0.4-0.1-0.8-0.3-1.2
			s-0.3-0.7-0.6-1c-0.3-0.3-0.6-0.5-1-0.7c-0.4-0.2-0.8-0.3-1.4-0.3c-0.9,0-1.5,0.3-2,0.9s-0.8,1.4-0.9,2.3H514.1z"/>
		<path id="XMLID_83_" class="st1" d="M535.2,22.8c-0.5,0.5-1,0.9-1.6,1.2c-0.6,0.4-1.2,0.6-1.9,0.8c-0.7,0.2-1.5,0.3-2.4,0.3
			c-1.2,0-2.2-0.2-3.3-0.7s-1.9-1.1-2.7-1.9c-0.8-0.8-1.4-1.8-1.8-2.9c-0.4-1.1-0.6-2.4-0.6-3.8s0.2-2.6,0.6-3.8
			c0.4-1.1,1-2.1,1.8-3c0.8-0.8,1.7-1.5,2.7-1.9c1-0.5,2.2-0.7,3.4-0.7c1.7,0,3.1,0.4,4.2,1.1c1.1,0.7,2.1,1.7,2.8,2.8l-3.1,3.1
			c-0.5-0.7-1.1-1.4-1.7-1.8c-0.6-0.5-1.4-0.7-2.4-0.7c-1.1,0-2,0.4-2.7,1.3s-1,2-1,3.5c0,1.4,0.3,2.6,1,3.5
			c0.7,0.9,1.6,1.3,2.7,1.3c0.9,0,1.7-0.2,2.3-0.6c0.6-0.4,1.3-1,1.9-1.7l3,2.8C536.1,21.8,535.7,22.3,535.2,22.8z"/>
		<path id="XMLID_81_" class="st1" d="M549.5,24c-0.4,0.3-0.9,0.6-1.6,0.8c-0.7,0.2-1.3,0.3-2.1,0.3c-0.7,0-1.4-0.1-2-0.4
			c-0.6-0.3-1.1-0.6-1.5-1.1s-0.7-1-1-1.7c-0.2-0.7-0.3-1.4-0.3-2.2v-8.4h-3V6.9h3V2.3l4.7-2.3v6.9h4.3v4.4h-4.3v7.2
			c0,0.9,0.1,1.4,0.4,1.7c0.3,0.3,0.7,0.4,1.3,0.4c0.4,0,0.8-0.1,1.2-0.3c0.4-0.2,0.9-0.6,1.4-1.1L549.5,24z"/>
		<path id="XMLID_78_" class="st1" d="M559.1,2.8c0,0.7-0.3,1.4-0.8,1.9c-0.5,0.5-1.2,0.8-1.9,0.8c-0.7,0-1.4-0.3-1.9-0.8
			c-0.5-0.5-0.8-1.2-0.8-1.9s0.3-1.4,0.8-1.9c0.5-0.5,1.2-0.8,1.9-0.8c0.7,0,1.4,0.3,1.9,0.8C558.9,1.4,559.1,2.1,559.1,2.8z
			 M554.1,24.8V6.9h4.7v17.8H554.1z"/>
		<path id="XMLID_76_" class="st1" d="M572.8,24.8h-4.8l-6.4-17.8h5.2l2.6,8.3c0.2,0.7,0.4,1.4,0.6,2.1c0.2,0.7,0.4,1.3,0.5,1.8
			c0.1-0.5,0.3-1,0.5-1.8s0.4-1.4,0.6-2.1l2.6-8.3h5L572.8,24.8z"/>
		<path id="XMLID_73_" class="st1" d="M596.3,15.9c0,0.3,0,0.6,0,0.9c0,0.2,0,0.4-0.1,0.6h-10.7c0,0.6,0.2,1.1,0.4,1.6
			c0.2,0.4,0.5,0.8,0.8,1c0.3,0.3,0.7,0.5,1.1,0.6c0.4,0.1,0.8,0.2,1.3,0.2c0.7,0,1.2-0.1,1.8-0.3c0.5-0.2,1-0.5,1.3-0.9l3.3,2.8
			c-0.7,0.9-1.7,1.6-2.8,2.1c-1.2,0.5-2.3,0.7-3.5,0.7c-1.3,0-2.4-0.2-3.5-0.7c-1-0.4-1.9-1.1-2.6-1.9c-0.7-0.8-1.3-1.8-1.7-2.9
			s-0.6-2.4-0.6-3.8c0-1.4,0.2-2.6,0.6-3.8c0.4-1.1,1-2.1,1.7-3c0.7-0.8,1.6-1.5,2.5-1.9c1-0.5,2-0.7,3.1-0.7c1.2,0,2.2,0.2,3.2,0.7
			c0.9,0.5,1.7,1.2,2.4,2c0.6,0.8,1.1,1.8,1.5,3C596.1,13.4,596.3,14.6,596.3,15.9z M591.7,13.8c0-0.4-0.1-0.8-0.3-1.2
			s-0.3-0.7-0.6-1c-0.3-0.3-0.6-0.5-1-0.7c-0.4-0.2-0.8-0.3-1.4-0.3c-0.9,0-1.5,0.3-2,0.9s-0.8,1.4-0.9,2.3H591.7z"/>
		<path id="XMLID_71_" class="st1" d="M610.2,24.8v-9.6c0-1.6-0.3-2.7-0.8-3.3c-0.5-0.6-1.3-0.9-2.2-0.9c-1,0-1.7,0.3-2.3,0.9
			c-0.5,0.6-0.8,1.6-0.8,3.2v9.7h-4.7V6.9h4.7v1.2c0.4-0.4,1-0.8,1.7-1.1s1.5-0.5,2.5-0.5c2.3,0,3.9,0.7,5,2.2
			c1.1,1.5,1.6,3.4,1.6,6v10.1H610.2z"/>
		<path id="XMLID_68_" class="st1" d="M633.2,15.9c0,0.3,0,0.6,0,0.9c0,0.2,0,0.4-0.1,0.6h-10.7c0,0.6,0.2,1.1,0.4,1.6
			c0.2,0.4,0.5,0.8,0.8,1c0.3,0.3,0.7,0.5,1.1,0.6c0.4,0.1,0.8,0.2,1.3,0.2c0.7,0,1.2-0.1,1.8-0.3c0.5-0.2,1-0.5,1.3-0.9l3.3,2.8
			c-0.7,0.9-1.7,1.6-2.8,2.1c-1.2,0.5-2.3,0.7-3.5,0.7c-1.3,0-2.4-0.2-3.5-0.7c-1-0.4-1.9-1.1-2.6-1.9c-0.7-0.8-1.3-1.8-1.7-2.9
			s-0.6-2.4-0.6-3.8c0-1.4,0.2-2.6,0.6-3.8c0.4-1.1,1-2.1,1.7-3c0.7-0.8,1.6-1.5,2.5-1.9c1-0.5,2-0.7,3.1-0.7c1.2,0,2.2,0.2,3.2,0.7
			c0.9,0.5,1.7,1.2,2.4,2c0.6,0.8,1.1,1.8,1.5,3C633,13.4,633.2,14.6,633.2,15.9z M628.7,13.8c0-0.4-0.1-0.8-0.3-1.2s-0.3-0.7-0.6-1
			c-0.3-0.3-0.6-0.5-1-0.7c-0.4-0.2-0.8-0.3-1.4-0.3c-0.9,0-1.5,0.3-2,0.9s-0.8,1.4-0.9,2.3H628.7z"/>
		<path id="XMLID_66_" class="st1" d="M650.5,19.6c0,1-0.2,1.9-0.6,2.6c-0.4,0.7-0.9,1.3-1.6,1.7c-0.7,0.4-1.4,0.8-2.3,1
			c-0.9,0.2-1.8,0.3-2.8,0.3c-1.4,0-2.8-0.2-4.1-0.6c-1.3-0.4-2.4-0.9-3.4-1.5l1.6-3.6c1,0.5,1.9,0.9,2.9,1.2c1,0.3,2.1,0.4,3.2,0.4
			c0.9,0,1.6-0.1,1.9-0.3c0.3-0.2,0.5-0.6,0.5-1c0-0.4-0.2-0.7-0.6-1c-0.4-0.2-1.1-0.5-2.1-0.8c-1.1-0.3-2-0.6-2.9-1
			c-0.9-0.3-1.6-0.7-2.2-1.2c-0.6-0.4-1.1-1-1.4-1.6c-0.3-0.6-0.5-1.4-0.5-2.4c0-0.9,0.2-1.7,0.5-2.4c0.4-0.7,0.8-1.2,1.5-1.6
			c0.6-0.4,1.4-0.7,2.3-1c0.9-0.2,1.8-0.3,2.9-0.3c1.1,0,2.3,0.2,3.4,0.5c1.2,0.3,2.2,0.7,3.2,1.3l-1.5,3.7
			c-0.9-0.5-1.8-0.8-2.7-1.1s-1.7-0.4-2.5-0.4c-1,0-1.6,0.1-1.9,0.3c-0.3,0.2-0.5,0.5-0.5,0.9c0,0.2,0,0.3,0.1,0.5
			c0.1,0.1,0.3,0.3,0.5,0.4c0.3,0.1,0.6,0.3,1.1,0.5c0.5,0.2,1.1,0.4,1.9,0.6c0.8,0.3,1.6,0.6,2.3,0.8c0.7,0.3,1.4,0.7,1.9,1.1
			s1,1,1.3,1.6C650.3,17.9,650.5,18.7,650.5,19.6z"/>
		<path id="XMLID_64_" class="st1" d="M668.1,19.6c0,1-0.2,1.9-0.6,2.6c-0.4,0.7-0.9,1.3-1.6,1.7c-0.7,0.4-1.4,0.8-2.3,1
			c-0.9,0.2-1.8,0.3-2.8,0.3c-1.4,0-2.8-0.2-4.1-0.6c-1.3-0.4-2.4-0.9-3.4-1.5l1.6-3.6c1,0.5,1.9,0.9,2.9,1.2c1,0.3,2.1,0.4,3.2,0.4
			c0.9,0,1.6-0.1,1.9-0.3c0.3-0.2,0.5-0.6,0.5-1c0-0.4-0.2-0.7-0.6-1c-0.4-0.2-1.1-0.5-2.1-0.8c-1.1-0.3-2-0.6-2.9-1
			c-0.9-0.3-1.6-0.7-2.2-1.2c-0.6-0.4-1.1-1-1.4-1.6c-0.3-0.6-0.5-1.4-0.5-2.4c0-0.9,0.2-1.7,0.5-2.4c0.4-0.7,0.8-1.2,1.5-1.6
			c0.6-0.4,1.4-0.7,2.3-1c0.9-0.2,1.8-0.3,2.9-0.3c1.1,0,2.3,0.2,3.4,0.5c1.2,0.3,2.2,0.7,3.2,1.3l-1.5,3.7
			c-0.9-0.5-1.8-0.8-2.7-1.1s-1.7-0.4-2.5-0.4c-1,0-1.6,0.1-1.9,0.3c-0.3,0.2-0.5,0.5-0.5,0.9c0,0.2,0,0.3,0.1,0.5
			c0.1,0.1,0.3,0.3,0.5,0.4c0.3,0.1,0.6,0.3,1.1,0.5c0.5,0.2,1.1,0.4,1.9,0.6c0.8,0.3,1.6,0.6,2.3,0.8c0.7,0.3,1.4,0.7,1.9,1.1
			s1,1,1.3,1.6C668,17.9,668.1,18.7,668.1,19.6z"/>
		<path id="XMLID_61_" class="st1" d="M701,12.9c0,2.1-0.3,3.9-1,5.4c-0.7,1.5-1.6,2.7-2.8,3.7s-2.4,1.7-3.9,2.1s-3,0.7-4.5,0.7
			h-7.1V1h7.4c1.7,0,3.3,0.2,4.7,0.6c1.4,0.4,2.7,1.1,3.7,2.1c1.1,1,1.9,2.2,2.5,3.7C700.7,8.9,701,10.7,701,12.9z M696.1,12.9
			c0-2.4-0.6-4.2-1.7-5.5c-1.1-1.2-2.9-1.8-5.4-1.8h-2.5v14.5h2.3c1.2,0,2.3-0.2,3.2-0.5c0.9-0.4,1.7-0.8,2.3-1.5
			c0.6-0.6,1-1.4,1.3-2.3C696,15,696.1,14,696.1,12.9z"/>
		<path id="XMLID_59_" class="st1" d="M715,24.8v-1.2c-0.4,0.4-1,0.8-1.7,1.1s-1.5,0.5-2.5,0.5c-2.3,0-4-0.7-5-2.2
			c-1.1-1.5-1.6-3.4-1.6-6V6.9h4.7v9.6c0,0.8,0.1,1.5,0.2,2c0.1,0.5,0.3,1,0.6,1.3c0.2,0.3,0.6,0.5,1,0.7c0.4,0.1,0.8,0.2,1.3,0.2
			c1,0,1.7-0.3,2.3-0.9c0.5-0.6,0.8-1.6,0.8-3.2V6.9h4.7v17.8H715z"/>
		<path id="XMLID_57_" class="st1" d="M734.1,12.4c-0.4-0.3-0.8-0.6-1.3-0.8c-0.5-0.2-0.9-0.3-1.5-0.3c-0.5,0-0.9,0.1-1.2,0.2
			s-0.7,0.3-1,0.6c-0.3,0.3-0.5,0.7-0.6,1.2c-0.1,0.5-0.2,1.1-0.2,1.9v9.6h-4.7V6.9h4.7v1.2c0.4-0.4,0.9-0.8,1.5-1.1
			s1.3-0.5,2.2-0.5c0.8,0,1.4,0.1,2,0.4c0.6,0.3,1,0.5,1.3,0.9L734.1,12.4z"/>
		<path id="XMLID_54_" class="st1" d="M742.8,2.8c0,0.7-0.3,1.4-0.8,1.9c-0.5,0.5-1.2,0.8-1.9,0.8c-0.7,0-1.4-0.3-1.9-0.8
			c-0.5-0.5-0.8-1.2-0.8-1.9s0.3-1.4,0.8-1.9c0.5-0.5,1.2-0.8,1.9-0.8c0.7,0,1.4,0.3,1.9,0.8C742.6,1.4,742.8,2.1,742.8,2.8z
			 M737.8,24.8V6.9h4.7v17.8H737.8z"/>
		<path id="XMLID_52_" class="st1" d="M757.4,24.8v-9.6c0-1.6-0.3-2.7-0.8-3.3c-0.5-0.6-1.3-0.9-2.2-0.9c-1,0-1.7,0.3-2.3,0.9
			c-0.5,0.6-0.8,1.6-0.8,3.2v9.7h-4.7V6.9h4.7v1.2c0.4-0.4,1-0.8,1.7-1.1s1.5-0.5,2.5-0.5c2.3,0,3.9,0.7,5,2.2
			c1.1,1.5,1.6,3.4,1.6,6v10.1H757.4z"/>
		<path id="XMLID_49_" class="st1" d="M780.4,21.7c0,1.5-0.1,2.8-0.3,3.9c-0.2,1.1-0.6,2.1-1.2,2.9c-0.6,0.8-1.3,1.4-2.3,1.9
			c-1,0.5-2.3,0.8-3.8,1l-1.7-3.5c0.9-0.1,1.7-0.3,2.3-0.5c0.6-0.2,1.1-0.4,1.4-0.7c0.4-0.3,0.6-0.7,0.7-1.2s0.2-1.1,0.2-1.7
			c-0.5,0.4-1,0.7-1.6,1c-0.6,0.3-1.3,0.5-2.2,0.5c-1,0-1.8-0.2-2.7-0.5c-0.8-0.4-1.6-0.9-2.2-1.7c-0.6-0.8-1.1-1.8-1.5-3
			c-0.4-1.2-0.5-2.6-0.5-4.3c0-1.3,0.2-2.6,0.5-3.7c0.3-1.1,0.8-2.1,1.3-2.9c0.6-0.8,1.3-1.4,2.2-1.9c0.9-0.4,1.8-0.7,3-0.7
			c0.8,0,1.5,0.1,2.2,0.4c0.6,0.3,1.2,0.6,1.6,1v-1h4.7V21.7z M775.7,12.5c-0.7-1-1.8-1.5-3.2-1.5c-1.9,0-2.8,1.5-2.8,4.6
			c0,1.8,0.3,3.2,0.8,4c0.6,0.8,1.3,1.2,2.2,1.2c0.7,0,1.3-0.1,1.7-0.4c0.4-0.3,0.8-0.6,1.2-1.1V12.5z"/>
		<path id="XMLID_47_" class="st1" d="M794.5,24.8V1h4.8v19.1h11.9v4.7H794.5z"/>
		<path id="XMLID_44_" class="st1" d="M829.4,15.9c0,1.4-0.2,2.6-0.6,3.8c-0.4,1.1-1,2.1-1.7,2.9s-1.6,1.4-2.6,1.9s-2.1,0.7-3.2,0.7
			c-1.2,0-2.2-0.2-3.2-0.7c-1-0.5-1.8-1.1-2.5-1.9c-0.7-0.8-1.3-1.8-1.7-2.9c-0.4-1.1-0.6-2.4-0.6-3.8s0.2-2.6,0.6-3.8
			c0.4-1.1,1-2.1,1.7-3c0.7-0.8,1.6-1.5,2.5-1.9c1-0.5,2.1-0.7,3.2-0.7c1.2,0,2.2,0.2,3.2,0.7c1,0.5,1.9,1.1,2.6,1.9s1.3,1.8,1.7,3
			C829.2,13.3,829.4,14.5,829.4,15.9z M824.6,15.9c0-1.4-0.3-2.5-0.8-3.4c-0.5-0.9-1.4-1.4-2.5-1.4s-2,0.5-2.5,1.4
			c-0.5,0.9-0.8,2.1-0.8,3.5c0,1.4,0.3,2.5,0.8,3.4c0.5,0.9,1.4,1.4,2.5,1.4c0.6,0,1.1-0.1,1.5-0.4c0.4-0.3,0.8-0.6,1-1.1
			c0.3-0.4,0.5-1,0.6-1.5C824.6,17.1,824.6,16.5,824.6,15.9z"/>
		<path id="XMLID_42_" class="st1" d="M843.2,24.8v-9.6c0-1.6-0.3-2.7-0.8-3.3c-0.5-0.6-1.3-0.9-2.2-0.9c-1,0-1.7,0.3-2.3,0.9
			c-0.5,0.6-0.8,1.6-0.8,3.2v9.7h-4.7V6.9h4.7v1.2c0.4-0.4,1-0.8,1.7-1.1s1.5-0.5,2.5-0.5c2.3,0,3.9,0.7,5,2.2
			c1.1,1.5,1.6,3.4,1.6,6v10.1H843.2z"/>
		<path id="XMLID_39_" class="st1" d="M866.2,21.7c0,1.5-0.1,2.8-0.3,3.9c-0.2,1.1-0.6,2.1-1.2,2.9c-0.6,0.8-1.3,1.4-2.3,1.9
			c-1,0.5-2.3,0.8-3.8,1l-1.7-3.5c0.9-0.1,1.7-0.3,2.3-0.5c0.6-0.2,1.1-0.4,1.4-0.7c0.4-0.3,0.6-0.7,0.7-1.2s0.2-1.1,0.2-1.7
			c-0.5,0.4-1,0.7-1.6,1c-0.6,0.3-1.3,0.5-2.2,0.5c-1,0-1.8-0.2-2.7-0.5c-0.8-0.4-1.6-0.9-2.2-1.7c-0.6-0.8-1.1-1.8-1.5-3
			c-0.4-1.2-0.5-2.6-0.5-4.3c0-1.3,0.2-2.6,0.5-3.7c0.3-1.1,0.8-2.1,1.3-2.9c0.6-0.8,1.3-1.4,2.2-1.9c0.9-0.4,1.8-0.7,3-0.7
			c0.8,0,1.5,0.1,2.2,0.4c0.6,0.3,1.2,0.6,1.6,1v-1h4.7V21.7z M861.5,12.5c-0.7-1-1.8-1.5-3.2-1.5c-1.9,0-2.8,1.5-2.8,4.6
			c0,1.8,0.3,3.2,0.8,4c0.6,0.8,1.3,1.2,2.2,1.2c0.7,0,1.3-0.1,1.7-0.4c0.4-0.3,0.8-0.6,1.2-1.1V12.5z"/>
		<path id="XMLID_37_" class="st1" d="M287.8,46.4v19.1h-4.8V46.4h-6.8v-4.7h18.4v4.7H287.8z"/>
		<path id="XMLID_34_" class="st1" d="M312.4,56.6c0,0.3,0,0.6,0,0.9c0,0.2,0,0.4-0.1,0.6h-10.7c0,0.6,0.2,1.1,0.4,1.6
			c0.2,0.4,0.5,0.8,0.8,1c0.3,0.3,0.7,0.5,1.1,0.6c0.4,0.1,0.8,0.2,1.3,0.2c0.7,0,1.2-0.1,1.8-0.3c0.5-0.2,1-0.5,1.3-0.9l3.3,2.8
			c-0.7,0.9-1.7,1.6-2.8,2.1c-1.2,0.5-2.3,0.7-3.5,0.7c-1.3,0-2.4-0.2-3.5-0.7c-1-0.4-1.9-1.1-2.6-1.9c-0.7-0.8-1.3-1.8-1.7-2.9
			S297,58,297,56.6c0-1.4,0.2-2.6,0.6-3.8c0.4-1.1,1-2.1,1.7-3c0.7-0.8,1.6-1.5,2.5-1.9c1-0.5,2-0.7,3.1-0.7c1.2,0,2.2,0.2,3.2,0.7
			c0.9,0.5,1.7,1.2,2.4,2c0.6,0.8,1.1,1.8,1.5,3C312.3,54.2,312.4,55.4,312.4,56.6z M307.9,54.6c0-0.4-0.1-0.8-0.3-1.2
			s-0.3-0.7-0.6-1c-0.3-0.3-0.6-0.5-1-0.7c-0.4-0.2-0.8-0.3-1.4-0.3c-0.9,0-1.5,0.3-2,0.9s-0.8,1.4-0.9,2.3H307.9z"/>
		<path id="XMLID_32_" class="st1" d="M326,53.2c-0.4-0.3-0.8-0.6-1.3-0.8c-0.5-0.2-0.9-0.3-1.5-0.3c-0.5,0-0.9,0.1-1.2,0.2
			s-0.7,0.3-1,0.6c-0.3,0.3-0.5,0.7-0.6,1.2c-0.1,0.5-0.2,1.1-0.2,1.9v9.6h-4.7V47.7h4.7v1.2c0.4-0.4,0.9-0.8,1.5-1.1
			s1.3-0.5,2.2-0.5c0.8,0,1.4,0.1,2,0.4c0.6,0.3,1,0.5,1.3,0.9L326,53.2z"/>
		<path id="XMLID_30_" class="st1" d="M350.4,65.5v-9.6c0-1.6-0.2-2.7-0.7-3.3c-0.5-0.6-1.2-0.9-2.2-0.9c-1,0-1.7,0.3-2.2,0.9
			c-0.5,0.6-0.7,1.6-0.7,3.2v9.7H340v-9.6c0-1.6-0.2-2.7-0.7-3.3c-0.5-0.6-1.2-0.9-2.2-0.9c-1,0-1.7,0.3-2.2,0.9
			c-0.5,0.6-0.7,1.6-0.7,3.2v9.7h-4.7V47.7h4.7v1.2c0.4-0.4,0.9-0.8,1.5-1.1c0.6-0.3,1.4-0.5,2.4-0.5c1.1,0,2.1,0.2,2.8,0.5
			c0.7,0.4,1.4,0.9,2.1,1.7c0.6-0.6,1.3-1.2,2.2-1.6c0.8-0.4,2-0.7,3.5-0.7c1.1,0,2.1,0.2,2.9,0.6c0.8,0.4,1.5,0.9,2,1.6
			c0.5,0.7,0.9,1.6,1.1,2.6c0.2,1,0.4,2.1,0.4,3.4v10.1H350.4z"/>
		<path id="XMLID_28_" class="st1" d="M385.5,63.1c-1.7,1.9-4.1,2.8-7.1,2.8c-1.4,0-2.7-0.2-3.9-0.7s-2.2-1.2-3-2.1
			c-0.8-0.9-1.5-2-2-3.4c-0.5-1.3-0.7-2.9-0.7-4.6V41.7h4.8V55c0,1.9,0.4,3.4,1.3,4.6c0.9,1.1,2,1.7,3.6,1.7c1.5,0,2.7-0.5,3.6-1.6
			c0.9-1.1,1.3-2.6,1.3-4.5V41.7h4.8V55C388,58.5,387.2,61.2,385.5,63.1z"/>
		<path id="XMLID_26_" class="st1" d="M406.7,60.3c0,1-0.2,1.9-0.6,2.6c-0.4,0.7-0.9,1.3-1.6,1.7c-0.7,0.4-1.4,0.8-2.3,1
			c-0.9,0.2-1.8,0.3-2.8,0.3c-1.4,0-2.8-0.2-4.1-0.6c-1.3-0.4-2.4-0.9-3.4-1.5l1.6-3.6c1,0.5,1.9,0.9,2.9,1.2c1,0.3,2.1,0.4,3.2,0.4
			c0.9,0,1.6-0.1,1.9-0.3c0.3-0.2,0.5-0.6,0.5-1c0-0.4-0.2-0.7-0.6-1c-0.4-0.2-1.1-0.5-2.1-0.8c-1.1-0.3-2-0.6-2.9-1
			c-0.9-0.3-1.6-0.7-2.2-1.2c-0.6-0.4-1.1-1-1.4-1.6c-0.3-0.6-0.5-1.4-0.5-2.4c0-0.9,0.2-1.7,0.5-2.4c0.4-0.7,0.8-1.2,1.5-1.6
			c0.6-0.4,1.4-0.7,2.3-1c0.9-0.2,1.8-0.3,2.9-0.3c1.1,0,2.3,0.2,3.4,0.5c1.2,0.3,2.2,0.7,3.2,1.3l-1.5,3.7
			c-0.9-0.5-1.8-0.8-2.7-1.1s-1.7-0.4-2.5-0.4c-1,0-1.6,0.1-1.9,0.3c-0.3,0.2-0.5,0.5-0.5,0.9c0,0.2,0,0.3,0.1,0.5
			c0.1,0.1,0.3,0.3,0.5,0.4c0.3,0.1,0.6,0.3,1.1,0.5c0.5,0.2,1.1,0.4,1.9,0.6c0.8,0.3,1.6,0.6,2.3,0.8c0.7,0.3,1.4,0.7,1.9,1.1
			s1,1,1.3,1.6C406.6,58.7,406.7,59.4,406.7,60.3z"/>
		<path id="XMLID_23_" class="st1" d="M424.8,56.6c0,0.3,0,0.6,0,0.9c0,0.2,0,0.4-0.1,0.6h-10.7c0,0.6,0.2,1.1,0.4,1.6
			c0.2,0.4,0.5,0.8,0.8,1c0.3,0.3,0.7,0.5,1.1,0.6c0.4,0.1,0.8,0.2,1.3,0.2c0.7,0,1.2-0.1,1.8-0.3c0.5-0.2,1-0.5,1.3-0.9l3.3,2.8
			c-0.7,0.9-1.7,1.6-2.8,2.1c-1.2,0.5-2.3,0.7-3.5,0.7c-1.3,0-2.4-0.2-3.5-0.7c-1-0.4-1.9-1.1-2.6-1.9c-0.7-0.8-1.3-1.8-1.7-2.9
			s-0.6-2.4-0.6-3.8c0-1.4,0.2-2.6,0.6-3.8c0.4-1.1,1-2.1,1.7-3c0.7-0.8,1.6-1.5,2.5-1.9c1-0.5,2-0.7,3.1-0.7c1.2,0,2.2,0.2,3.2,0.7
			c0.9,0.5,1.7,1.2,2.4,2c0.6,0.8,1.1,1.8,1.5,3C424.7,54.2,424.8,55.4,424.8,56.6z M420.3,54.6c0-0.4-0.1-0.8-0.3-1.2
			s-0.3-0.7-0.6-1c-0.3-0.3-0.6-0.5-1-0.7c-0.4-0.2-0.8-0.3-1.4-0.3c-0.9,0-1.5,0.3-2,0.9s-0.8,1.4-0.9,2.3H420.3z"/>
		<path id="XMLID_21_" class="st1" d="M443,69.3c-0.8-0.9-1.6-1.8-2.3-2.8s-1.3-2-1.9-3.1c-0.5-1.1-1-2.3-1.3-3.7
			c-0.3-1.3-0.5-2.8-0.5-4.3s0.1-3,0.4-4.3c0.3-1.3,0.7-2.5,1.2-3.7c0.5-1.1,1.1-2.2,1.9-3.2c0.7-1,1.5-2,2.4-2.9l3.1,2.1
			c-0.6,0.8-1.2,1.6-1.6,2.4c-0.5,0.8-0.9,1.7-1.3,2.7c-0.4,1-0.6,2-0.8,3.1s-0.3,2.3-0.3,3.6c0,1.3,0.1,2.6,0.3,3.7
			s0.5,2.2,0.8,3.1c0.4,1,0.8,1.9,1.3,2.7c0.5,0.8,1.1,1.7,1.7,2.5L443,69.3z"/>
		<path id="XMLID_19_" class="st1" d="M467.2,58.2c0,1.3-0.2,2.4-0.7,3.4c-0.5,1-1.1,1.8-2,2.4c-0.9,0.6-1.9,1.1-3.1,1.5
			c-1.2,0.3-2.6,0.5-4,0.5c-1.8,0-3.5-0.4-5-1.1c-1.6-0.7-3-1.9-4.4-3.5l3.6-2.9c1,1,2,1.8,3,2.2c1,0.4,2.1,0.6,3.3,0.6
			c1.6,0,2.7-0.3,3.5-0.8c0.7-0.5,1.1-1.3,1.1-2.2c0-0.9-0.3-1.6-0.9-2.1c-0.6-0.4-1.5-0.7-2.6-0.7h-2.8v-4.7h2.5
			c1,0,1.7-0.2,2.1-0.6c0.4-0.4,0.6-1,0.6-1.8c0-0.3-0.1-0.6-0.2-0.9c-0.1-0.3-0.4-0.6-0.7-0.8c-0.3-0.2-0.7-0.4-1.2-0.5
			c-0.5-0.1-1.1-0.2-1.9-0.2c-1.8,0-3.3,0.7-4.7,2l-3.5-3.2c1.1-1.2,2.3-2.1,3.6-2.6c1.3-0.6,2.8-0.9,4.6-0.9c1.2,0,2.4,0.1,3.4,0.4
			c1.1,0.3,2,0.7,2.8,1.3c0.8,0.6,1.4,1.3,1.9,2.1c0.5,0.8,0.7,1.8,0.7,2.9c0,1.3-0.3,2.3-0.8,3.1c-0.6,0.8-1.2,1.4-1.9,1.7
			c0.4,0.1,0.8,0.3,1.2,0.6c0.4,0.3,0.8,0.6,1.2,1c0.4,0.4,0.7,0.9,0.9,1.5C467.1,56.7,467.2,57.4,467.2,58.2z"/>
		<path id="XMLID_17_" class="st1" d="M483.4,56.1v9.4h-4.8v-9.3l-9-14.5h5.5l3.4,5.6c0.2,0.4,0.4,0.8,0.7,1.2
			c0.3,0.4,0.5,0.9,0.7,1.3c0.2,0.4,0.5,0.8,0.7,1.2c0.2,0.4,0.4,0.7,0.5,0.9c0.1-0.2,0.3-0.5,0.5-0.9c0.2-0.4,0.4-0.8,0.7-1.2
			c0.2-0.4,0.5-0.9,0.7-1.3c0.2-0.4,0.5-0.9,0.7-1.2l3.4-5.6h5.4L483.4,56.1z"/>
		<path id="XMLID_14_" class="st1" d="M509.4,56.6c0,0.3,0,0.6,0,0.9c0,0.2,0,0.4-0.1,0.6h-10.7c0,0.6,0.2,1.1,0.4,1.6
			c0.2,0.4,0.5,0.8,0.8,1c0.3,0.3,0.7,0.5,1.1,0.6c0.4,0.1,0.8,0.2,1.3,0.2c0.7,0,1.2-0.1,1.8-0.3c0.5-0.2,1-0.5,1.3-0.9l3.3,2.8
			c-0.7,0.9-1.7,1.6-2.8,2.1c-1.2,0.5-2.3,0.7-3.5,0.7c-1.3,0-2.4-0.2-3.5-0.7c-1-0.4-1.9-1.1-2.6-1.9c-0.7-0.8-1.3-1.8-1.7-2.9
			s-0.6-2.4-0.6-3.8c0-1.4,0.2-2.6,0.6-3.8c0.4-1.1,1-2.1,1.7-3c0.7-0.8,1.6-1.5,2.5-1.9c1-0.5,2-0.7,3.1-0.7c1.2,0,2.2,0.2,3.2,0.7
			c0.9,0.5,1.7,1.2,2.4,2c0.6,0.8,1.1,1.8,1.5,3C509.2,54.2,509.4,55.4,509.4,56.6z M504.9,54.6c0-0.4-0.1-0.8-0.3-1.2
			s-0.3-0.7-0.6-1c-0.3-0.3-0.6-0.5-1-0.7c-0.4-0.2-0.8-0.3-1.4-0.3c-0.9,0-1.5,0.3-2,0.9s-0.8,1.4-0.9,2.3H504.9z"/>
		<path id="XMLID_11_" class="st1" d="M522.4,65.5v-1.2c-0.4,0.5-1,0.8-1.7,1.1c-0.7,0.3-1.5,0.4-2.3,0.4c-0.8,0-1.7-0.1-2.4-0.4
			c-0.8-0.3-1.5-0.7-2.1-1.2c-0.6-0.5-1.1-1.2-1.5-2c-0.4-0.8-0.6-1.7-0.6-2.8c0-1,0.2-1.8,0.6-2.6c0.4-0.7,0.9-1.4,1.5-1.9
			c0.7-0.5,1.4-0.9,2.3-1.1c0.9-0.2,1.8-0.4,2.8-0.4c0.8,0,1.5,0.1,2,0.2c0.5,0.1,1,0.3,1.4,0.5v-0.9c0-0.6-0.2-1.2-0.6-1.6
			c-0.4-0.4-1.1-0.7-1.9-0.7c-0.5,0-1,0-1.4,0.1c-0.4,0-0.8,0.1-1.2,0.2c-0.4,0.1-0.7,0.2-1.1,0.4c-0.4,0.1-0.7,0.3-1.2,0.6
			l-1.8-3.3c0.5-0.3,1-0.6,1.5-0.8c0.5-0.2,1-0.4,1.5-0.6c0.5-0.1,1.1-0.3,1.7-0.3c0.6-0.1,1.2-0.1,2-0.1c1.1,0,2.1,0.1,3,0.4
			c0.9,0.3,1.6,0.7,2.3,1.2c0.6,0.5,1.1,1.2,1.5,2s0.5,1.7,0.5,2.7v12H522.4z M522.4,58.1c-0.4-0.2-0.8-0.4-1.3-0.6
			c-0.5-0.1-1.1-0.2-2-0.2c-0.9,0-1.6,0.2-2,0.6c-0.5,0.4-0.7,0.9-0.7,1.7c0,0.6,0.2,1.2,0.6,1.7c0.4,0.5,1.1,0.7,2.1,0.7
			c0.8,0,1.4-0.2,2-0.5c0.6-0.3,1-0.7,1.2-1.1V58.1z"/>
		<path id="XMLID_9_" class="st1" d="M541.3,53.2c-0.4-0.3-0.8-0.6-1.3-0.8c-0.5-0.2-0.9-0.3-1.5-0.3c-0.5,0-0.9,0.1-1.2,0.2
			s-0.7,0.3-1,0.6c-0.3,0.3-0.5,0.7-0.6,1.2c-0.1,0.5-0.2,1.1-0.2,1.9v9.6h-4.7V47.7h4.7v1.2c0.4-0.4,0.9-0.8,1.5-1.1
			s1.3-0.5,2.2-0.5c0.8,0,1.4,0.1,2,0.4c0.6,0.3,1,0.5,1.3,0.9L541.3,53.2z"/>
		<path id="XMLID_7_" class="st1" d="M558.9,60.3c0,1-0.2,1.9-0.6,2.6c-0.4,0.7-0.9,1.3-1.6,1.7c-0.7,0.4-1.4,0.8-2.3,1
			c-0.9,0.2-1.8,0.3-2.8,0.3c-1.4,0-2.8-0.2-4.1-0.6c-1.3-0.4-2.4-0.9-3.4-1.5l1.6-3.6c1,0.5,1.9,0.9,2.9,1.2c1,0.3,2.1,0.4,3.2,0.4
			c0.9,0,1.6-0.1,1.9-0.3c0.3-0.2,0.5-0.6,0.5-1c0-0.4-0.2-0.7-0.6-1c-0.4-0.2-1.1-0.5-2.1-0.8c-1.1-0.3-2-0.6-2.9-1
			c-0.9-0.3-1.6-0.7-2.2-1.2c-0.6-0.4-1.1-1-1.4-1.6c-0.3-0.6-0.5-1.4-0.5-2.4c0-0.9,0.2-1.7,0.5-2.4c0.4-0.7,0.8-1.2,1.5-1.6
			c0.6-0.4,1.4-0.7,2.3-1c0.9-0.2,1.8-0.3,2.9-0.3c1.1,0,2.3,0.2,3.4,0.5c1.2,0.3,2.2,0.7,3.2,1.3l-1.5,3.7
			c-0.9-0.5-1.8-0.8-2.7-1.1s-1.7-0.4-2.5-0.4c-1,0-1.6,0.1-1.9,0.3c-0.3,0.2-0.5,0.5-0.5,0.9c0,0.2,0,0.3,0.1,0.5
			c0.1,0.1,0.3,0.3,0.5,0.4c0.3,0.1,0.6,0.3,1.1,0.5c0.5,0.2,1.1,0.4,1.9,0.6c0.8,0.3,1.6,0.6,2.3,0.8c0.7,0.3,1.4,0.7,1.9,1.1
			s1,1,1.3,1.6C558.8,58.7,558.9,59.4,558.9,60.3z"/>
		<path id="XMLID_5_" class="st1" d="M570.6,55.1c0,1.6-0.1,3-0.4,4.3c-0.3,1.3-0.7,2.5-1.2,3.7c-0.5,1.1-1.1,2.2-1.9,3.2
			c-0.7,1-1.5,2-2.4,2.9l-3.1-2.1c0.6-0.8,1.2-1.6,1.6-2.4s0.9-1.8,1.3-2.7c0.4-1,0.6-2,0.8-3.1c0.2-1.1,0.3-2.3,0.3-3.6
			c0-1.3-0.1-2.6-0.3-3.7c-0.2-1.1-0.5-2.2-0.8-3.1c-0.4-1-0.8-1.9-1.3-2.7s-1.1-1.7-1.7-2.5l3.1-2.1c0.8,0.9,1.6,1.8,2.3,2.8
			c0.7,1,1.3,2,1.9,3.1c0.5,1.1,1,2.3,1.3,3.6C570.5,52.1,570.6,53.5,570.6,55.1z"/>
	</g>
</g>
</svg>
