<!-- Generator: Adobe Illustrator 22.1.0, SVG Export Plug-In  -->
<svg version="1.1"
	 xmlns="http://www.w3.org/2000/svg" xmlns:xlink="http://www.w3.org/1999/xlink" xmlns:a="http://ns.adobe.com/AdobeSVGViewerExtensions/3.0/"
	 x="0px" y="0px" width="535.3px" height="73px" viewBox="0 0 535.3 73" style="enable-background:new 0 0 535.3 73;"
	 xml:space="preserve">
<style type="text/css">
	.st0{fill:#266093;}
</style>
<defs>
</defs>
<g id="XMLID_1_">
	<g id="XMLID_3_">
		<path id="XMLID_130_" class="st0" d="M18.8,8.6c0,1.4-0.2,2.6-0.7,3.6s-1,1.8-1.8,2.5c-0.8,0.6-1.7,1.1-2.8,1.4
			c-1.1,0.3-2.2,0.4-3.5,0.4H4.8v8.5H0V1h10.5c1.1,0,2.2,0.2,3.2,0.5s1.9,0.8,2.6,1.4c0.8,0.6,1.4,1.4,1.8,2.4
			C18.6,6.2,18.8,7.3,18.8,8.6z M13.9,8.7c0-1.1-0.3-1.8-0.9-2.3c-0.6-0.5-1.5-0.7-2.6-0.7H4.8v6.2h5.6
			C12.7,11.9,13.9,10.8,13.9,8.7z"/>
		<path id="XMLID_128_" class="st0" d="M32.6,12.6c-0.4-0.3-0.8-0.6-1.3-0.8c-0.5-0.2-1-0.3-1.5-0.3c-0.5,0-0.9,0.1-1.3,0.2
			c-0.4,0.1-0.7,0.3-1,0.6c-0.3,0.3-0.5,0.7-0.6,1.2c-0.1,0.5-0.2,1.1-0.2,1.9v9.8H22V7h4.7v1.2c0.4-0.4,0.9-0.8,1.5-1.1
			c0.6-0.3,1.3-0.5,2.2-0.5c0.8,0,1.5,0.1,2,0.4c0.6,0.3,1,0.6,1.3,0.9L32.6,12.6z"/>
		<path id="XMLID_125_" class="st0" d="M51.5,16.1c0,1.4-0.2,2.6-0.6,3.8c-0.4,1.2-1,2.1-1.7,3s-1.6,1.5-2.6,1.9
			c-1,0.5-2.1,0.7-3.3,0.7s-2.3-0.2-3.2-0.7c-1-0.5-1.9-1.1-2.6-1.9s-1.3-1.8-1.7-3c-0.4-1.2-0.6-2.4-0.6-3.8c0-1.4,0.2-2.6,0.6-3.8
			c0.4-1.2,1-2.2,1.7-3c0.7-0.8,1.6-1.5,2.6-1.9c1-0.5,2.1-0.7,3.2-0.7s2.3,0.2,3.3,0.7c1,0.5,1.9,1.1,2.6,1.9
			c0.7,0.8,1.3,1.8,1.7,3C51.3,13.4,51.5,14.7,51.5,16.1z M46.7,16.1c0-1.4-0.3-2.5-0.8-3.5c-0.5-0.9-1.4-1.4-2.5-1.4
			c-1.1,0-2,0.5-2.5,1.4c-0.5,0.9-0.8,2.1-0.8,3.5c0,1.4,0.3,2.6,0.8,3.5c0.5,0.9,1.4,1.4,2.5,1.4c0.6,0,1.1-0.1,1.5-0.4
			c0.4-0.3,0.8-0.6,1-1.1c0.3-0.5,0.5-1,0.6-1.6S46.7,16.7,46.7,16.1z"/>
		<path id="XMLID_123_" class="st0" d="M64.6,25.1h-4.9L53.2,7h5.2l2.6,8.4c0.2,0.7,0.4,1.4,0.7,2.2c0.2,0.8,0.4,1.4,0.5,1.8
			c0.1-0.5,0.3-1.1,0.5-1.8c0.2-0.7,0.4-1.5,0.7-2.2L66,7h5.1L64.6,25.1z"/>
		<path id="XMLID_120_" class="st0" d="M88.4,16.1c0,0.3,0,0.6,0,0.9c0,0.2,0,0.5-0.1,0.6H77.5c0,0.6,0.2,1.1,0.4,1.6
			c0.2,0.4,0.5,0.8,0.9,1c0.3,0.3,0.7,0.5,1.2,0.6c0.4,0.1,0.9,0.2,1.3,0.2c0.7,0,1.3-0.1,1.8-0.3c0.5-0.2,1-0.5,1.3-0.9l3.4,2.8
			c-0.7,0.9-1.7,1.7-2.9,2.2s-2.4,0.8-3.6,0.8c-1.3,0-2.5-0.2-3.5-0.7c-1-0.4-1.9-1.1-2.7-1.9c-0.7-0.8-1.3-1.8-1.7-3
			c-0.4-1.2-0.6-2.4-0.6-3.9c0-1.4,0.2-2.6,0.6-3.8c0.4-1.2,1-2.2,1.7-3c0.7-0.8,1.6-1.5,2.5-1.9c1-0.5,2-0.7,3.2-0.7
			C82,6.6,83,6.9,84,7.4c1,0.5,1.7,1.2,2.4,2c0.6,0.9,1.1,1.9,1.5,3C88.2,13.6,88.4,14.8,88.4,16.1z M83.8,14c0-0.4-0.1-0.8-0.3-1.2
			s-0.3-0.7-0.6-1c-0.3-0.3-0.6-0.6-1-0.7c-0.4-0.2-0.9-0.3-1.4-0.3c-0.9,0-1.6,0.3-2.1,0.9c-0.5,0.6-0.8,1.4-0.9,2.3H83.8z"/>
		<path id="XMLID_118_" class="st0" d="M102.5,25.1v-9.8c0-1.6-0.3-2.7-0.8-3.3c-0.5-0.6-1.3-0.9-2.3-0.9c-1,0-1.7,0.3-2.3,0.9
			s-0.8,1.7-0.8,3.2v9.9h-4.7V7h4.7v1.2c0.4-0.4,1-0.8,1.7-1.1c0.7-0.3,1.6-0.5,2.5-0.5c2.3,0,4,0.7,5.1,2.2s1.6,3.5,1.6,6v10.2
			H102.5z"/>
		<path id="XMLID_116_" class="st0" d="M130.5,24.3c-0.4,0.3-0.9,0.6-1.6,0.8c-0.7,0.2-1.4,0.3-2.1,0.3c-0.7,0-1.4-0.1-2-0.4
			c-0.6-0.3-1.1-0.6-1.5-1.1c-0.4-0.5-0.7-1.1-1-1.7c-0.2-0.7-0.3-1.4-0.3-2.2v-8.5h-3V7h3V2.4l4.7-2.4v7h4.3v4.5h-4.3v7.3
			c0,0.9,0.1,1.5,0.4,1.7c0.3,0.3,0.7,0.4,1.3,0.4c0.4,0,0.8-0.1,1.2-0.3c0.4-0.2,0.9-0.6,1.5-1.1L130.5,24.3z"/>
		<path id="XMLID_113_" class="st0" d="M150.5,16.1c0,1.4-0.2,2.6-0.6,3.8c-0.4,1.2-1,2.1-1.7,3s-1.6,1.5-2.6,1.9
			c-1,0.5-2.1,0.7-3.3,0.7s-2.3-0.2-3.2-0.7c-1-0.5-1.9-1.1-2.6-1.9s-1.3-1.8-1.7-3c-0.4-1.2-0.6-2.4-0.6-3.8c0-1.4,0.2-2.6,0.6-3.8
			c0.4-1.2,1-2.2,1.7-3c0.7-0.8,1.6-1.5,2.6-1.9c1-0.5,2.1-0.7,3.2-0.7s2.3,0.2,3.3,0.7c1,0.5,1.9,1.1,2.6,1.9
			c0.7,0.8,1.3,1.8,1.7,3C150.3,13.4,150.5,14.7,150.5,16.1z M145.6,16.1c0-1.4-0.3-2.5-0.8-3.5c-0.5-0.9-1.4-1.4-2.5-1.4
			c-1.1,0-2,0.5-2.5,1.4c-0.5,0.9-0.8,2.1-0.8,3.5c0,1.4,0.3,2.6,0.8,3.5c0.5,0.9,1.4,1.4,2.5,1.4c0.6,0,1.1-0.1,1.5-0.4
			c0.4-0.3,0.8-0.6,1-1.1c0.3-0.5,0.5-1,0.6-1.6S145.6,16.7,145.6,16.1z"/>
		<path id="XMLID_110_" class="st0" d="M177.7,25.1l-4.3-8.7h-4.8v8.7h-4.8V1h11.2c1.1,0,2.2,0.2,3.2,0.5s1.9,0.8,2.6,1.4
			c0.8,0.6,1.4,1.4,1.8,2.4c0.4,1,0.7,2.1,0.7,3.4c0,1.8-0.4,3.3-1.2,4.5c-0.8,1.2-1.9,2-3.5,2.6l4.6,9.4H177.7z M178.3,8.7
			c0-1.1-0.3-1.9-0.9-2.4s-1.5-0.7-2.5-0.7h-6.3v6.2h6.3C177.1,11.9,178.3,10.8,178.3,8.7z"/>
		<path id="XMLID_107_" class="st0" d="M201.6,16.1c0,0.3,0,0.6,0,0.9c0,0.2,0,0.5-0.1,0.6h-10.8c0,0.6,0.2,1.1,0.4,1.6
			c0.2,0.4,0.5,0.8,0.9,1c0.3,0.3,0.7,0.5,1.2,0.6c0.4,0.1,0.9,0.2,1.3,0.2c0.7,0,1.3-0.1,1.8-0.3c0.5-0.2,1-0.5,1.3-0.9l3.4,2.8
			c-0.7,0.9-1.7,1.7-2.9,2.2s-2.4,0.8-3.6,0.8c-1.3,0-2.5-0.2-3.5-0.7c-1-0.4-1.9-1.1-2.7-1.9c-0.7-0.8-1.3-1.8-1.7-3
			c-0.4-1.2-0.6-2.4-0.6-3.9c0-1.4,0.2-2.6,0.6-3.8c0.4-1.2,1-2.2,1.7-3c0.7-0.8,1.6-1.5,2.5-1.9c1-0.5,2-0.7,3.2-0.7
			c1.2,0,2.3,0.2,3.2,0.7c1,0.5,1.7,1.2,2.4,2c0.6,0.9,1.1,1.9,1.5,3C201.5,13.6,201.6,14.8,201.6,16.1z M197,14
			c0-0.4-0.1-0.8-0.3-1.2s-0.3-0.7-0.6-1c-0.3-0.3-0.6-0.6-1-0.7c-0.4-0.2-0.9-0.3-1.4-0.3c-0.9,0-1.6,0.3-2.1,0.9
			c-0.5,0.6-0.8,1.4-0.9,2.3H197z"/>
		<path id="XMLID_104_" class="st0" d="M214.7,25.1v-1.1c-0.5,0.4-1,0.7-1.6,1s-1.3,0.5-2.2,0.5c-1,0-1.9-0.2-2.7-0.6
			c-0.8-0.4-1.6-0.9-2.2-1.7c-0.6-0.8-1.1-1.8-1.5-3c-0.4-1.2-0.6-2.7-0.6-4.3c0-1.4,0.2-2.6,0.5-3.7c0.3-1.1,0.8-2.1,1.4-2.9
			c0.6-0.8,1.3-1.4,2.2-1.9c0.9-0.4,1.9-0.7,3-0.7c0.8,0,1.5,0.1,2.2,0.4s1.2,0.6,1.6,1V2.4l4.7-2.4v25.1H214.7z M214.7,12.7
			c-0.8-1-1.8-1.5-3.2-1.5c-1.9,0-2.8,1.5-2.8,4.6c0,1.9,0.3,3.2,0.8,4s1.3,1.2,2.3,1.2c0.7,0,1.3-0.1,1.8-0.4
			c0.4-0.3,0.8-0.6,1.2-1.1V12.7z"/>
		<path id="XMLID_102_" class="st0" d="M234.3,25.1v-1.2c-0.4,0.4-1,0.8-1.7,1.1c-0.7,0.3-1.6,0.5-2.5,0.5c-2.3,0-4-0.7-5.1-2.2
			c-1.1-1.5-1.6-3.5-1.6-6V7h4.7v9.8c0,0.8,0.1,1.5,0.2,2s0.3,1,0.6,1.3c0.3,0.3,0.6,0.6,1,0.7c0.4,0.1,0.8,0.2,1.3,0.2
			c1,0,1.7-0.3,2.3-0.9c0.5-0.6,0.8-1.7,0.8-3.2V7h4.7v18.1H234.3z"/>
		<path id="XMLID_100_" class="st0" d="M256.6,23.1c-0.5,0.5-1,0.9-1.6,1.3c-0.6,0.4-1.2,0.6-2,0.8c-0.7,0.2-1.5,0.3-2.4,0.3
			c-1.2,0-2.3-0.2-3.3-0.7c-1-0.5-1.9-1.1-2.7-1.9c-0.8-0.8-1.4-1.8-1.8-3c-0.4-1.2-0.7-2.4-0.7-3.8c0-1.4,0.2-2.6,0.7-3.8
			c0.4-1.2,1-2.2,1.8-3c0.8-0.8,1.7-1.5,2.7-1.9c1.1-0.5,2.2-0.7,3.5-0.7c1.7,0,3.2,0.4,4.3,1.1s2.1,1.7,2.9,2.8l-3.1,3.2
			c-0.5-0.8-1.1-1.4-1.7-1.9c-0.6-0.5-1.4-0.7-2.4-0.7c-1.1,0-2.1,0.4-2.7,1.3s-1,2.1-1,3.6c0,1.5,0.3,2.6,1,3.5
			c0.7,0.9,1.6,1.3,2.7,1.3c0.9,0,1.7-0.2,2.4-0.6c0.6-0.4,1.3-1,1.9-1.7l3,2.8C257.5,22,257.1,22.6,256.6,23.1z"/>
		<path id="XMLID_97_" class="st0" d="M275.7,16.1c0,0.3,0,0.6,0,0.9c0,0.2,0,0.5-0.1,0.6h-10.8c0,0.6,0.2,1.1,0.4,1.6
			c0.2,0.4,0.5,0.8,0.9,1c0.3,0.3,0.7,0.5,1.2,0.6c0.4,0.1,0.9,0.2,1.3,0.2c0.7,0,1.3-0.1,1.8-0.3c0.5-0.2,1-0.5,1.3-0.9l3.4,2.8
			c-0.7,0.9-1.7,1.7-2.9,2.2s-2.4,0.8-3.6,0.8c-1.3,0-2.5-0.2-3.5-0.7c-1-0.4-1.9-1.1-2.7-1.9c-0.7-0.8-1.3-1.8-1.7-3
			c-0.4-1.2-0.6-2.4-0.6-3.9c0-1.4,0.2-2.6,0.6-3.8c0.4-1.2,1-2.2,1.7-3c0.7-0.8,1.6-1.5,2.5-1.9c1-0.5,2-0.7,3.2-0.7
			c1.2,0,2.3,0.2,3.2,0.7c1,0.5,1.7,1.2,2.4,2c0.6,0.9,1.1,1.9,1.5,3C275.5,13.6,275.7,14.8,275.7,16.1z M271,14
			c0-0.4-0.1-0.8-0.3-1.2s-0.3-0.7-0.6-1c-0.3-0.3-0.6-0.6-1-0.7c-0.4-0.2-0.9-0.3-1.4-0.3c-0.9,0-1.6,0.3-2.1,0.9
			c-0.5,0.6-0.8,1.4-0.9,2.3H271z"/>
		<path id="XMLID_95_" class="st0" d="M306.7,17.8c0,1.1-0.2,2.2-0.5,3.1c-0.4,0.9-0.9,1.7-1.7,2.4c-0.8,0.7-1.8,1.2-2.9,1.6
			s-2.6,0.6-4.2,0.6c-2,0-3.9-0.4-5.5-1.2c-1.7-0.8-2.9-1.8-3.9-3.2l3.5-3.1c0.8,1,1.8,1.7,2.8,2.1c1,0.4,2.1,0.6,3.3,0.6
			c1.4,0,2.5-0.2,3.2-0.6c0.7-0.4,1-1.1,1-2c0-0.4-0.1-0.7-0.2-1c-0.1-0.3-0.4-0.6-0.8-0.8c-0.4-0.3-0.9-0.5-1.6-0.7
			c-0.7-0.2-1.6-0.5-2.8-0.7c-1.1-0.3-2.1-0.6-3-0.9s-1.7-0.8-2.4-1.3c-0.7-0.5-1.2-1.2-1.5-2c-0.4-0.8-0.6-1.8-0.6-3
			c0-1.1,0.2-2.1,0.7-3c0.4-0.9,1.1-1.6,1.8-2.2c0.8-0.6,1.7-1.1,2.7-1.4c1-0.3,2.2-0.5,3.4-0.5c1.9,0,3.5,0.3,4.9,1
			c1.4,0.7,2.7,1.6,3.8,2.8l-3.5,3.4c-0.8-0.8-1.6-1.4-2.5-1.8c-0.9-0.4-1.9-0.6-3-0.6c-0.6,0-1.2,0.1-1.6,0.2
			c-0.4,0.1-0.8,0.3-1.1,0.5c-0.3,0.2-0.5,0.4-0.6,0.7c-0.1,0.3-0.2,0.5-0.2,0.8c0,0.4,0.1,0.7,0.2,1c0.1,0.3,0.4,0.5,0.8,0.7
			c0.4,0.2,0.9,0.4,1.5,0.6c0.6,0.2,1.4,0.4,2.4,0.6c1,0.2,1.9,0.5,2.9,0.8s1.8,0.7,2.6,1.3c0.8,0.5,1.4,1.2,1.9,2.1
			C306.4,15.4,306.7,16.5,306.7,17.8z"/>
		<path id="XMLID_92_" class="st0" d="M325.1,16.1c0,0.3,0,0.6,0,0.9c0,0.2,0,0.5-0.1,0.6h-10.8c0,0.6,0.2,1.1,0.4,1.6
			c0.2,0.4,0.5,0.8,0.9,1c0.3,0.3,0.7,0.5,1.2,0.6c0.4,0.1,0.9,0.2,1.3,0.2c0.7,0,1.3-0.1,1.8-0.3c0.5-0.2,1-0.5,1.3-0.9l3.4,2.8
			c-0.7,0.9-1.7,1.7-2.9,2.2s-2.4,0.8-3.6,0.8c-1.3,0-2.5-0.2-3.5-0.7c-1-0.4-1.9-1.1-2.7-1.9c-0.7-0.8-1.3-1.8-1.7-3
			c-0.4-1.2-0.6-2.4-0.6-3.9c0-1.4,0.2-2.6,0.6-3.8c0.4-1.2,1-2.2,1.7-3c0.7-0.8,1.6-1.5,2.5-1.9c1-0.5,2-0.7,3.2-0.7
			c1.2,0,2.3,0.2,3.2,0.7c1,0.5,1.7,1.2,2.4,2c0.6,0.9,1.1,1.9,1.5,3C324.9,13.6,325.1,14.8,325.1,16.1z M320.5,14
			c0-0.4-0.1-0.8-0.3-1.2s-0.3-0.7-0.6-1c-0.3-0.3-0.6-0.6-1-0.7c-0.4-0.2-0.9-0.3-1.4-0.3c-0.9,0-1.6,0.3-2.1,0.9
			c-0.5,0.6-0.8,1.4-0.9,2.3H320.5z"/>
		<path id="XMLID_89_" class="st0" d="M333.6,2.8c0,0.7-0.3,1.4-0.8,1.9c-0.5,0.5-1.2,0.8-1.9,0.8s-1.4-0.3-1.9-0.8
			c-0.5-0.5-0.8-1.2-0.8-1.9c0-0.7,0.3-1.4,0.8-1.9c0.5-0.5,1.2-0.8,1.9-0.8s1.4,0.3,1.9,0.8C333.3,1.5,333.6,2.1,333.6,2.8z
			 M328.5,25.1V7h4.7v18.1H328.5z"/>
		<path id="XMLID_87_" class="st0" d="M337.2,25.1v-3.4l6.6-7.8c0.4-0.4,0.8-0.9,1.2-1.4c0.4-0.5,0.8-0.9,1-1.2c-0.2,0-0.4,0-0.6,0
			c-0.2,0-0.5,0-0.8,0s-0.5,0-0.8,0s-0.5,0-0.8,0h-5.3V7h14.3v3.4l-6.4,7.8c-0.4,0.5-0.8,0.9-1.2,1.4c-0.4,0.5-0.8,0.9-1,1.2
			c0.2,0,0.4,0,0.6,0c0.2,0,0.5,0,0.8,0c0.3,0,0.6,0,0.8,0c0.3,0,0.5,0,0.8,0h5.6v4.3H337.2z"/>
		<path id="XMLID_85_" class="st0" d="M366.6,25.1v-1.2c-0.4,0.4-1,0.8-1.7,1.1c-0.7,0.3-1.6,0.5-2.5,0.5c-2.3,0-4-0.7-5.1-2.2
			c-1.1-1.5-1.6-3.5-1.6-6V7h4.7v9.8c0,0.8,0.1,1.5,0.2,2s0.3,1,0.6,1.3c0.3,0.3,0.6,0.6,1,0.7c0.4,0.1,0.8,0.2,1.3,0.2
			c1,0,1.7-0.3,2.3-0.9c0.5-0.6,0.8-1.7,0.8-3.2V7h4.7v18.1H366.6z"/>
		<path id="XMLID_83_" class="st0" d="M385.9,12.6c-0.4-0.3-0.8-0.6-1.3-0.8c-0.5-0.2-1-0.3-1.5-0.3c-0.5,0-0.9,0.1-1.3,0.2
			c-0.4,0.1-0.7,0.3-1,0.6c-0.3,0.3-0.5,0.7-0.6,1.2c-0.1,0.5-0.2,1.1-0.2,1.9v9.8h-4.7V7h4.7v1.2c0.4-0.4,0.9-0.8,1.5-1.1
			c0.6-0.3,1.3-0.5,2.2-0.5c0.8,0,1.5,0.1,2,0.4c0.6,0.3,1,0.6,1.3,0.9L385.9,12.6z"/>
		<path id="XMLID_80_" class="st0" d="M404.2,16.1c0,0.3,0,0.6,0,0.9c0,0.2,0,0.5-0.1,0.6h-10.8c0,0.6,0.2,1.1,0.4,1.6
			c0.2,0.4,0.5,0.8,0.9,1c0.3,0.3,0.7,0.5,1.2,0.6c0.4,0.1,0.9,0.2,1.3,0.2c0.7,0,1.3-0.1,1.8-0.3c0.5-0.2,1-0.5,1.3-0.9l3.4,2.8
			c-0.7,0.9-1.7,1.7-2.9,2.2s-2.4,0.8-3.6,0.8c-1.3,0-2.5-0.2-3.5-0.7c-1-0.4-1.9-1.1-2.7-1.9c-0.7-0.8-1.3-1.8-1.7-3
			c-0.4-1.2-0.6-2.4-0.6-3.9c0-1.4,0.2-2.6,0.6-3.8c0.4-1.2,1-2.2,1.7-3c0.7-0.8,1.6-1.5,2.5-1.9c1-0.5,2-0.7,3.2-0.7
			c1.2,0,2.3,0.2,3.2,0.7c1,0.5,1.7,1.2,2.4,2c0.6,0.9,1.1,1.9,1.5,3C404,13.6,404.2,14.8,404.2,16.1z M399.6,14
			c0-0.4-0.1-0.8-0.3-1.2s-0.3-0.7-0.6-1c-0.3-0.3-0.6-0.6-1-0.7c-0.4-0.2-0.9-0.3-1.4-0.3c-0.9,0-1.6,0.3-2.1,0.9
			c-0.5,0.6-0.8,1.4-0.9,2.3H399.6z"/>
		<path id="XMLID_78_" class="st0" d="M421.7,19.8c0,1-0.2,1.9-0.6,2.6s-0.9,1.3-1.6,1.8c-0.7,0.4-1.4,0.8-2.3,1
			c-0.9,0.2-1.8,0.3-2.9,0.3c-1.4,0-2.8-0.2-4.1-0.6c-1.3-0.4-2.5-0.9-3.4-1.5l1.6-3.6c1,0.5,2,0.9,3,1.2c1,0.3,2.1,0.4,3.3,0.4
			c0.9,0,1.6-0.1,1.9-0.3c0.3-0.2,0.5-0.6,0.5-1c0-0.4-0.2-0.7-0.6-1c-0.4-0.3-1.1-0.5-2.1-0.8c-1.1-0.3-2.1-0.6-2.9-1
			c-0.9-0.3-1.6-0.7-2.3-1.2c-0.6-0.4-1.1-1-1.4-1.6c-0.3-0.6-0.5-1.4-0.5-2.4c0-0.9,0.2-1.7,0.5-2.4c0.4-0.7,0.9-1.2,1.5-1.7
			c0.6-0.4,1.4-0.8,2.3-1c0.9-0.2,1.9-0.3,2.9-0.3c1.1,0,2.3,0.2,3.5,0.5c1.2,0.3,2.2,0.7,3.2,1.3l-1.5,3.7
			c-0.9-0.5-1.8-0.8-2.7-1.1s-1.8-0.4-2.5-0.4c-1,0-1.6,0.1-1.9,0.3c-0.3,0.2-0.5,0.5-0.5,0.9c0,0.2,0,0.4,0.1,0.5s0.3,0.3,0.5,0.4
			c0.3,0.1,0.6,0.3,1.1,0.5c0.5,0.2,1.1,0.4,1.9,0.7c0.8,0.3,1.6,0.6,2.3,0.9c0.7,0.3,1.4,0.7,1.9,1.1c0.5,0.4,1,1,1.3,1.6
			C421.5,18.1,421.7,18.9,421.7,19.8z"/>
		<path id="XMLID_75_" class="st0" d="M455,13c0,2.1-0.3,3.9-1,5.4c-0.7,1.5-1.6,2.8-2.8,3.7c-1.2,1-2.5,1.7-4,2.1
			c-1.5,0.5-3,0.7-4.5,0.7h-7.2V1h7.5c1.7,0,3.3,0.2,4.8,0.6c1.5,0.4,2.7,1.1,3.8,2.1c1.1,1,1.9,2.2,2.5,3.7S455,10.8,455,13z
			 M450,13c0-2.5-0.6-4.3-1.7-5.5s-3-1.8-5.5-1.8h-2.5v14.7h2.4c1.3,0,2.4-0.2,3.3-0.5s1.7-0.9,2.3-1.5c0.6-0.6,1-1.4,1.3-2.3
			C449.9,15.1,450,14.1,450,13z"/>
		<path id="XMLID_73_" class="st0" d="M469.1,25.1v-1.2c-0.4,0.4-1,0.8-1.7,1.1c-0.7,0.3-1.6,0.5-2.5,0.5c-2.3,0-4-0.7-5.1-2.2
			c-1.1-1.5-1.6-3.5-1.6-6V7h4.7v9.8c0,0.8,0.1,1.5,0.2,2s0.3,1,0.6,1.3c0.3,0.3,0.6,0.6,1,0.7c0.4,0.1,0.8,0.2,1.3,0.2
			c1,0,1.7-0.3,2.3-0.9c0.5-0.6,0.8-1.7,0.8-3.2V7h4.7v18.1H469.1z"/>
		<path id="XMLID_71_" class="st0" d="M488.5,12.6c-0.4-0.3-0.8-0.6-1.3-0.8c-0.5-0.2-1-0.3-1.5-0.3c-0.5,0-0.9,0.1-1.3,0.2
			c-0.4,0.1-0.7,0.3-1,0.6c-0.3,0.3-0.5,0.7-0.6,1.2c-0.1,0.5-0.2,1.1-0.2,1.9v9.8h-4.7V7h4.7v1.2c0.4-0.4,0.9-0.8,1.5-1.1
			c0.6-0.3,1.3-0.5,2.2-0.5c0.8,0,1.5,0.1,2,0.4c0.6,0.3,1,0.6,1.3,0.9L488.5,12.6z"/>
		<path id="XMLID_68_" class="st0" d="M497.3,2.8c0,0.7-0.3,1.4-0.8,1.9c-0.5,0.5-1.2,0.8-1.9,0.8s-1.4-0.3-1.9-0.8
			c-0.5-0.5-0.8-1.2-0.8-1.9c0-0.7,0.3-1.4,0.8-1.9c0.5-0.5,1.2-0.8,1.9-0.8s1.4,0.3,1.9,0.8C497,1.5,497.3,2.1,497.3,2.8z
			 M492.2,25.1V7h4.7v18.1H492.2z"/>
		<path id="XMLID_66_" class="st0" d="M512,25.1v-9.8c0-1.6-0.3-2.7-0.8-3.3c-0.5-0.6-1.3-0.9-2.3-0.9c-1,0-1.7,0.3-2.3,0.9
			s-0.8,1.7-0.8,3.2v9.9h-4.7V7h4.7v1.2c0.4-0.4,1-0.8,1.7-1.1c0.7-0.3,1.6-0.5,2.5-0.5c2.3,0,4,0.7,5.1,2.2s1.6,3.5,1.6,6v10.2H512
			z"/>
		<path id="XMLID_63_" class="st0" d="M535.3,22c0,1.5-0.1,2.8-0.3,3.9c-0.2,1.1-0.6,2.1-1.2,2.9c-0.6,0.8-1.4,1.4-2.4,1.9
			s-2.3,0.8-3.9,1l-1.7-3.6c0.9-0.1,1.7-0.3,2.3-0.5s1.1-0.4,1.5-0.8c0.4-0.3,0.6-0.7,0.8-1.2c0.1-0.5,0.2-1.1,0.2-1.8
			c-0.5,0.4-1,0.7-1.6,1s-1.3,0.5-2.2,0.5c-1,0-1.9-0.2-2.7-0.6c-0.8-0.4-1.6-0.9-2.2-1.7c-0.6-0.8-1.1-1.8-1.5-3
			c-0.4-1.2-0.6-2.7-0.6-4.3c0-1.4,0.2-2.6,0.5-3.7c0.3-1.1,0.8-2.1,1.4-2.9c0.6-0.8,1.3-1.4,2.2-1.9c0.9-0.4,1.9-0.7,3-0.7
			c0.8,0,1.5,0.1,2.2,0.4s1.2,0.6,1.6,1V7h4.7V22z M530.5,12.7c-0.8-1-1.8-1.5-3.2-1.5c-1.9,0-2.8,1.5-2.8,4.6c0,1.9,0.3,3.2,0.8,4
			s1.3,1.2,2.3,1.2c0.7,0,1.3-0.1,1.8-0.4c0.4-0.3,0.8-0.6,1.2-1.1V12.7z"/>
		<path id="XMLID_61_" class="st0" d="M0,66.3V42.3h4.8v19.3h12.1v4.7H0z"/>
		<path id="XMLID_58_" class="st0" d="M35.3,57.3c0,1.4-0.2,2.6-0.6,3.8c-0.4,1.2-1,2.1-1.7,3s-1.6,1.5-2.6,1.9
			c-1,0.5-2.1,0.7-3.3,0.7s-2.3-0.2-3.2-0.7c-1-0.5-1.9-1.1-2.6-1.9s-1.3-1.8-1.7-3C19.2,60,19,58.7,19,57.3c0-1.4,0.2-2.6,0.6-3.8
			c0.4-1.2,1-2.2,1.7-3c0.7-0.8,1.6-1.5,2.6-1.9c1-0.5,2.1-0.7,3.2-0.7s2.3,0.2,3.3,0.7c1,0.5,1.9,1.1,2.6,1.9
			c0.7,0.8,1.3,1.8,1.7,3C35.1,54.7,35.3,55.9,35.3,57.3z M30.5,57.3c0-1.4-0.3-2.5-0.8-3.5c-0.5-0.9-1.4-1.4-2.5-1.4
			c-1.1,0-2,0.5-2.5,1.4c-0.5,0.9-0.8,2.1-0.8,3.5c0,1.4,0.3,2.6,0.8,3.5c0.5,0.9,1.4,1.4,2.5,1.4c0.6,0,1.1-0.1,1.5-0.4
			c0.4-0.3,0.8-0.6,1-1.1c0.3-0.5,0.5-1,0.6-1.6S30.5,57.9,30.5,57.3z"/>
		<path id="XMLID_56_" class="st0" d="M49.3,66.3v-9.8c0-1.6-0.3-2.7-0.8-3.3c-0.5-0.6-1.3-0.9-2.3-0.9c-1,0-1.7,0.3-2.3,0.9
			s-0.8,1.7-0.8,3.2v9.9h-4.7V48.3h4.7v1.2c0.4-0.4,1-0.8,1.7-1.1c0.7-0.3,1.6-0.5,2.5-0.5c2.3,0,4,0.7,5.1,2.2s1.6,3.5,1.6,6v10.2
			H49.3z"/>
		<path id="XMLID_53_" class="st0" d="M72.6,63.3c0,1.5-0.1,2.8-0.3,3.9c-0.2,1.1-0.6,2.1-1.2,2.9c-0.6,0.8-1.4,1.4-2.4,1.9
			s-2.3,0.8-3.9,1l-1.7-3.6c0.9-0.1,1.7-0.3,2.3-0.5s1.1-0.4,1.5-0.8c0.4-0.3,0.6-0.7,0.8-1.2c0.1-0.5,0.2-1.1,0.2-1.8
			c-0.5,0.4-1,0.7-1.6,1s-1.3,0.5-2.2,0.5c-1,0-1.9-0.2-2.7-0.6c-0.8-0.4-1.6-0.9-2.2-1.7c-0.6-0.8-1.1-1.8-1.5-3
			c-0.4-1.2-0.6-2.7-0.6-4.3c0-1.4,0.2-2.6,0.5-3.7c0.3-1.1,0.8-2.1,1.4-2.9c0.6-0.8,1.3-1.4,2.2-1.9c0.9-0.4,1.9-0.7,3-0.7
			c0.8,0,1.5,0.1,2.2,0.4s1.2,0.6,1.6,1v-1h4.7V63.3z M67.8,53.9c-0.8-1-1.8-1.5-3.2-1.5c-1.9,0-2.8,1.5-2.8,4.6
			c0,1.9,0.3,3.2,0.8,4s1.3,1.2,2.3,1.2c0.7,0,1.3-0.1,1.8-0.4c0.4-0.3,0.8-0.6,1.2-1.1V53.9z"/>
		<path id="XMLID_51_" class="st0" d="M97,47v19.3h-4.8V47h-6.9v-4.7h18.6V47H97z"/>
		<path id="XMLID_48_" class="st0" d="M121.9,57.3c0,0.3,0,0.6,0,0.9c0,0.2,0,0.5-0.1,0.6H111c0,0.6,0.2,1.1,0.4,1.6
			c0.2,0.4,0.5,0.8,0.9,1c0.3,0.3,0.7,0.5,1.2,0.6c0.4,0.1,0.9,0.2,1.3,0.2c0.7,0,1.3-0.1,1.8-0.3c0.5-0.2,1-0.5,1.3-0.9l3.4,2.8
			c-0.7,0.9-1.7,1.7-2.9,2.2s-2.4,0.8-3.6,0.8c-1.3,0-2.5-0.2-3.5-0.7c-1-0.4-1.9-1.1-2.7-1.9c-0.7-0.8-1.3-1.8-1.7-3
			c-0.4-1.2-0.6-2.4-0.6-3.9c0-1.4,0.2-2.6,0.6-3.8c0.4-1.2,1-2.2,1.7-3c0.7-0.8,1.6-1.5,2.5-1.9c1-0.5,2-0.7,3.2-0.7
			c1.2,0,2.3,0.2,3.2,0.7c1,0.5,1.7,1.2,2.4,2c0.6,0.9,1.1,1.9,1.5,3C121.8,54.8,121.9,56,121.9,57.3z M117.3,55.3
			c0-0.4-0.1-0.8-0.3-1.2s-0.3-0.7-0.6-1c-0.3-0.3-0.6-0.6-1-0.7c-0.4-0.2-0.9-0.3-1.4-0.3c-0.9,0-1.6,0.3-2.1,0.9
			c-0.5,0.6-0.8,1.4-0.9,2.3H117.3z"/>
		<path id="XMLID_46_" class="st0" d="M135.7,53.8c-0.4-0.3-0.8-0.6-1.3-0.8c-0.5-0.2-1-0.3-1.5-0.3c-0.5,0-0.9,0.1-1.3,0.2
			c-0.4,0.1-0.7,0.3-1,0.6c-0.3,0.3-0.5,0.7-0.6,1.2c-0.1,0.5-0.2,1.1-0.2,1.9v9.8h-4.7V48.3h4.7v1.2c0.4-0.4,0.9-0.8,1.5-1.1
			c0.6-0.3,1.3-0.5,2.2-0.5c0.8,0,1.5,0.1,2,0.4c0.6,0.3,1,0.6,1.3,0.9L135.7,53.8z"/>
		<path id="XMLID_44_" class="st0" d="M160.4,66.3v-9.8c0-1.6-0.2-2.7-0.7-3.3c-0.5-0.6-1.2-0.9-2.2-0.9c-1,0-1.7,0.3-2.2,0.9
			c-0.5,0.6-0.7,1.7-0.7,3.2v9.9h-4.7v-9.8c0-1.6-0.2-2.7-0.7-3.3c-0.5-0.6-1.2-0.9-2.2-0.9c-1,0-1.7,0.3-2.2,0.9s-0.7,1.7-0.7,3.2
			v9.9h-4.7V48.3h4.7v1.2c0.4-0.4,0.9-0.8,1.6-1.1c0.6-0.3,1.4-0.5,2.4-0.5c1.1,0,2.1,0.2,2.9,0.5c0.8,0.4,1.5,0.9,2.1,1.8
			c0.6-0.6,1.4-1.2,2.2-1.6s2-0.7,3.5-0.7c1.1,0,2.1,0.2,2.9,0.6c0.8,0.4,1.5,0.9,2,1.7c0.5,0.7,0.9,1.6,1.1,2.6
			c0.2,1,0.4,2.2,0.4,3.4v10.2H160.4z"/>
		<path id="XMLID_42_" class="st0" d="M195.9,63.8c-1.7,1.9-4.1,2.9-7.2,2.9c-1.4,0-2.8-0.2-4-0.7c-1.2-0.5-2.2-1.2-3.1-2.1
			c-0.8-0.9-1.5-2.1-2-3.4c-0.5-1.4-0.7-2.9-0.7-4.7V42.3h4.8v13.4c0,1.9,0.4,3.5,1.3,4.6c0.9,1.1,2.1,1.7,3.6,1.7
			c1.5,0,2.7-0.5,3.6-1.7c0.9-1.1,1.3-2.6,1.3-4.6V42.3h4.8v13.4C198.5,59.2,197.6,61.9,195.9,63.8z"/>
		<path id="XMLID_40_" class="st0" d="M217.4,61.1c0,1-0.2,1.9-0.6,2.6s-0.9,1.3-1.6,1.8c-0.7,0.4-1.4,0.8-2.3,1
			c-0.9,0.2-1.8,0.3-2.9,0.3c-1.4,0-2.8-0.2-4.1-0.6c-1.3-0.4-2.5-0.9-3.4-1.5L204,61c1,0.5,2,0.9,3,1.2c1,0.3,2.1,0.4,3.3,0.4
			c0.9,0,1.6-0.1,1.9-0.3c0.3-0.2,0.5-0.6,0.5-1c0-0.4-0.2-0.7-0.6-1c-0.4-0.3-1.1-0.5-2.1-0.8c-1.1-0.3-2.1-0.6-2.9-1
			c-0.9-0.3-1.6-0.7-2.3-1.2c-0.6-0.4-1.1-1-1.4-1.6c-0.3-0.6-0.5-1.4-0.5-2.4c0-0.9,0.2-1.7,0.5-2.4c0.4-0.7,0.9-1.2,1.5-1.7
			c0.6-0.4,1.4-0.8,2.3-1c0.9-0.2,1.9-0.3,2.9-0.3c1.1,0,2.3,0.2,3.5,0.5c1.2,0.3,2.2,0.7,3.2,1.3l-1.5,3.7
			c-0.9-0.5-1.8-0.8-2.7-1.1S210.8,52,210,52c-1,0-1.6,0.1-1.9,0.3c-0.3,0.2-0.5,0.5-0.5,0.9c0,0.2,0,0.4,0.1,0.5s0.3,0.3,0.5,0.4
			c0.3,0.1,0.6,0.3,1.1,0.5c0.5,0.2,1.1,0.4,1.9,0.7c0.8,0.3,1.6,0.6,2.3,0.9c0.7,0.3,1.4,0.7,1.9,1.1c0.5,0.4,1,1,1.3,1.6
			C217.2,59.4,217.4,60.2,217.4,61.1z"/>
		<path id="XMLID_37_" class="st0" d="M235.7,57.3c0,0.3,0,0.6,0,0.9c0,0.2,0,0.5-0.1,0.6h-10.8c0,0.6,0.2,1.1,0.4,1.6
			c0.2,0.4,0.5,0.8,0.9,1c0.3,0.3,0.7,0.5,1.2,0.6c0.4,0.1,0.9,0.2,1.3,0.2c0.7,0,1.3-0.1,1.8-0.3c0.5-0.2,1-0.5,1.3-0.9l3.4,2.8
			c-0.7,0.9-1.7,1.7-2.9,2.2s-2.4,0.8-3.6,0.8c-1.3,0-2.5-0.2-3.5-0.7c-1-0.4-1.9-1.1-2.7-1.9c-0.7-0.8-1.3-1.8-1.7-3
			c-0.4-1.2-0.6-2.4-0.6-3.9c0-1.4,0.2-2.6,0.6-3.8c0.4-1.2,1-2.2,1.7-3c0.7-0.8,1.6-1.5,2.5-1.9c1-0.5,2-0.7,3.2-0.7
			c1.2,0,2.3,0.2,3.2,0.7c1,0.5,1.7,1.2,2.4,2c0.6,0.9,1.1,1.9,1.5,3C235.5,54.8,235.7,56,235.7,57.3z M231.1,55.3
			c0-0.4-0.1-0.8-0.3-1.2s-0.3-0.7-0.6-1c-0.3-0.3-0.6-0.6-1-0.7c-0.4-0.2-0.9-0.3-1.4-0.3c-0.9,0-1.6,0.3-2.1,0.9
			c-0.5,0.6-0.8,1.4-0.9,2.3H231.1z"/>
		<path id="XMLID_35_" class="st0" d="M254.1,70.1c-0.8-0.9-1.6-1.9-2.3-2.8c-0.7-1-1.4-2-1.9-3.2c-0.5-1.1-1-2.4-1.3-3.7
			c-0.3-1.3-0.5-2.8-0.5-4.4s0.1-3.1,0.4-4.4c0.3-1.3,0.7-2.6,1.2-3.7c0.5-1.1,1.2-2.2,1.9-3.2c0.7-1,1.5-2,2.4-3l3.1,2.1
			c-0.6,0.8-1.2,1.6-1.7,2.5c-0.5,0.8-0.9,1.8-1.3,2.7c-0.4,1-0.6,2-0.8,3.1c-0.2,1.1-0.3,2.3-0.3,3.6c0,1.4,0.1,2.6,0.3,3.7
			c0.2,1.1,0.5,2.2,0.8,3.2c0.4,1,0.8,1.9,1.3,2.8c0.5,0.9,1.1,1.7,1.7,2.5L254.1,70.1z"/>
		<path id="XMLID_33_" class="st0" d="M279.2,57.9c0,1.4-0.2,2.7-0.7,3.8c-0.5,1.1-1.2,2-2.1,2.8c-0.9,0.7-1.9,1.3-3.2,1.7
			s-2.6,0.6-4.1,0.6c-1.7,0-3.4-0.2-4.9-0.6c-1.5-0.4-3-1-4.5-2l2.3-4.1c1.1,0.6,2.3,1.1,3.4,1.5s2.4,0.5,3.6,0.5
			c1.7,0,2.9-0.3,3.8-1c0.9-0.7,1.3-1.7,1.3-3c0-0.6-0.1-1.2-0.3-1.6c-0.2-0.5-0.5-0.8-0.9-1.1c-0.4-0.3-0.8-0.5-1.3-0.6
			c-0.5-0.1-1-0.2-1.6-0.2c-1.1,0-2,0.1-2.8,0.4s-1.4,0.6-2,1l-4.6-1.7l0.8-12h16v4.6h-11.6l-0.3,4.2c0.7-0.4,1.4-0.6,2.2-0.8
			c0.8-0.2,1.7-0.3,2.9-0.3c1.4,0,2.5,0.2,3.6,0.6s1.9,1,2.6,1.7c0.7,0.7,1.2,1.6,1.6,2.5C279,55.8,279.2,56.8,279.2,57.9z"/>
		<path id="XMLID_31_" class="st0" d="M294.6,55.3c-1.4,3.2-2.1,6.9-2.1,11h-4.9c0-3.9,0.6-7.5,1.9-10.8c1.2-3.3,3-6.2,5.2-8.7
			h-12.2v-4.5h18.1v4.6C298,49.3,296,52.1,294.6,55.3z"/>
		<path id="XMLID_29_" class="st0" d="M335.3,66.3v-9.8c0-1.6-0.2-2.7-0.7-3.3c-0.5-0.6-1.2-0.9-2.2-0.9c-1,0-1.7,0.3-2.2,0.9
			c-0.5,0.6-0.7,1.7-0.7,3.2v9.9h-4.7v-9.8c0-1.6-0.2-2.7-0.7-3.3c-0.5-0.6-1.2-0.9-2.2-0.9c-1,0-1.7,0.3-2.2,0.9s-0.7,1.7-0.7,3.2
			v9.9h-4.7V48.3h4.7v1.2c0.4-0.4,0.9-0.8,1.6-1.1c0.6-0.3,1.4-0.5,2.4-0.5c1.1,0,2.1,0.2,2.9,0.5c0.8,0.4,1.5,0.9,2.1,1.8
			c0.6-0.6,1.4-1.2,2.2-1.6s2-0.7,3.5-0.7c1.1,0,2.1,0.2,2.9,0.6c0.8,0.4,1.5,0.9,2,1.7c0.5,0.7,0.9,1.6,1.1,2.6
			c0.2,1,0.4,2.2,0.4,3.4v10.2H335.3z"/>
		<path id="XMLID_26_" class="st0" d="M359.3,57.3c0,1.4-0.2,2.6-0.6,3.8c-0.4,1.2-1,2.1-1.7,3s-1.6,1.5-2.6,1.9
			c-1,0.5-2.1,0.7-3.3,0.7s-2.3-0.2-3.2-0.7c-1-0.5-1.9-1.1-2.6-1.9s-1.3-1.8-1.7-3c-0.4-1.2-0.6-2.4-0.6-3.8c0-1.4,0.2-2.6,0.6-3.8
			c0.4-1.2,1-2.2,1.7-3c0.7-0.8,1.6-1.5,2.6-1.9c1-0.5,2.1-0.7,3.2-0.7s2.3,0.2,3.3,0.7c1,0.5,1.9,1.1,2.6,1.9
			c0.7,0.8,1.3,1.8,1.7,3C359.1,54.7,359.3,55.9,359.3,57.3z M354.5,57.3c0-1.4-0.3-2.5-0.8-3.5c-0.5-0.9-1.4-1.4-2.5-1.4
			c-1.1,0-2,0.5-2.5,1.4c-0.5,0.9-0.8,2.1-0.8,3.5c0,1.4,0.3,2.6,0.8,3.5c0.5,0.9,1.4,1.4,2.5,1.4c0.6,0,1.1-0.1,1.5-0.4
			c0.4-0.3,0.8-0.6,1-1.1c0.3-0.5,0.5-1,0.6-1.6S354.5,57.9,354.5,57.3z"/>
		<path id="XMLID_24_" class="st0" d="M373.3,66.3v-9.8c0-1.6-0.3-2.7-0.8-3.3c-0.5-0.6-1.3-0.9-2.3-0.9c-1,0-1.7,0.3-2.3,0.9
			s-0.8,1.7-0.8,3.2v9.9h-4.7V48.3h4.7v1.2c0.4-0.4,1-0.8,1.7-1.1c0.7-0.3,1.6-0.5,2.5-0.5c2.3,0,4,0.7,5.1,2.2s1.6,3.5,1.6,6v10.2
			H373.3z"/>
		<path id="XMLID_22_" class="st0" d="M392,65.6c-0.4,0.3-0.9,0.6-1.6,0.8c-0.7,0.2-1.4,0.3-2.1,0.3c-0.7,0-1.4-0.1-2-0.4
			c-0.6-0.3-1.1-0.6-1.5-1.1c-0.4-0.5-0.7-1.1-1-1.7c-0.2-0.7-0.3-1.4-0.3-2.2v-8.5h-3v-4.5h3v-4.6l4.7-2.4v7h4.3v4.5h-4.3V60
			c0,0.9,0.1,1.5,0.4,1.7c0.3,0.3,0.7,0.4,1.3,0.4c0.4,0,0.8-0.1,1.2-0.3c0.4-0.2,0.9-0.6,1.5-1.1L392,65.6z"/>
		<path id="XMLID_20_" class="st0" d="M407.4,66.3v-9.8c0-1.6-0.3-2.7-0.8-3.3c-0.5-0.6-1.3-0.9-2.3-0.9c-1,0-1.7,0.3-2.3,0.9
			s-0.8,1.7-0.8,3.2v9.9h-4.7V43.6l4.7-2.4v8.2c0.4-0.4,1-0.8,1.7-1.1c0.7-0.3,1.6-0.5,2.5-0.5c2.3,0,4,0.7,5.1,2.2s1.6,3.5,1.6,6
			v10.2H407.4z"/>
		<path id="XMLID_18_" class="st0" d="M430.3,61.1c0,1-0.2,1.9-0.6,2.6s-0.9,1.3-1.6,1.8c-0.7,0.4-1.4,0.8-2.3,1
			c-0.9,0.2-1.8,0.3-2.9,0.3c-1.4,0-2.8-0.2-4.1-0.6c-1.3-0.4-2.5-0.9-3.4-1.5L417,61c1,0.5,2,0.9,3,1.2c1,0.3,2.1,0.4,3.3,0.4
			c0.9,0,1.6-0.1,1.9-0.3c0.3-0.2,0.5-0.6,0.5-1c0-0.4-0.2-0.7-0.6-1c-0.4-0.3-1.1-0.5-2.1-0.8c-1.1-0.3-2.1-0.6-2.9-1
			c-0.9-0.3-1.6-0.7-2.3-1.2c-0.6-0.4-1.1-1-1.4-1.6c-0.3-0.6-0.5-1.4-0.5-2.4c0-0.9,0.2-1.7,0.5-2.4c0.4-0.7,0.9-1.2,1.5-1.7
			c0.6-0.4,1.4-0.8,2.3-1c0.9-0.2,1.9-0.3,2.9-0.3c1.1,0,2.3,0.2,3.5,0.5c1.2,0.3,2.2,0.7,3.2,1.3l-1.5,3.7
			c-0.9-0.5-1.8-0.8-2.7-1.1S423.7,52,423,52c-1,0-1.6,0.1-1.9,0.3c-0.3,0.2-0.5,0.5-0.5,0.9c0,0.2,0,0.4,0.1,0.5s0.3,0.3,0.5,0.4
			c0.3,0.1,0.6,0.3,1.1,0.5c0.5,0.2,1.1,0.4,1.9,0.7c0.8,0.3,1.6,0.6,2.3,0.9c0.7,0.3,1.4,0.7,1.9,1.1c0.5,0.4,1,1,1.3,1.6
			C430.1,59.4,430.3,60.2,430.3,61.1z"/>
		<path id="XMLID_16_" class="st0" d="M453.4,65.6c-0.4,0.3-0.9,0.6-1.6,0.8c-0.7,0.2-1.4,0.3-2.1,0.3c-0.7,0-1.4-0.1-2-0.4
			c-0.6-0.3-1.1-0.6-1.5-1.1c-0.4-0.5-0.7-1.1-1-1.7c-0.2-0.7-0.3-1.4-0.3-2.2v-8.5h-3v-4.5h3v-4.6l4.7-2.4v7h4.3v4.5h-4.3V60
			c0,0.9,0.1,1.5,0.4,1.7c0.3,0.3,0.7,0.4,1.3,0.4c0.4,0,0.8-0.1,1.2-0.3c0.4-0.2,0.9-0.6,1.5-1.1L453.4,65.6z"/>
		<path id="XMLID_14_" class="st0" d="M468.5,53.8c-0.4-0.3-0.8-0.6-1.3-0.8c-0.5-0.2-1-0.3-1.5-0.3c-0.5,0-0.9,0.1-1.3,0.2
			c-0.4,0.1-0.7,0.3-1,0.6c-0.3,0.3-0.5,0.7-0.6,1.2c-0.1,0.5-0.2,1.1-0.2,1.9v9.8h-4.7V48.3h4.7v1.2c0.4-0.4,0.9-0.8,1.5-1.1
			c0.6-0.3,1.3-0.5,2.2-0.5c0.8,0,1.5,0.1,2,0.4c0.6,0.3,1,0.6,1.3,0.9L468.5,53.8z"/>
		<path id="XMLID_11_" class="st0" d="M477.3,44.1c0,0.7-0.3,1.4-0.8,1.9c-0.5,0.5-1.2,0.8-1.9,0.8s-1.4-0.3-1.9-0.8
			c-0.5-0.5-0.8-1.2-0.8-1.9c0-0.7,0.3-1.4,0.8-1.9c0.5-0.5,1.2-0.8,1.9-0.8s1.4,0.3,1.9,0.8C477,42.7,477.3,43.3,477.3,44.1z
			 M472.2,66.3V48.3h4.7v18.1H472.2z"/>
		<path id="XMLID_8_" class="st0" d="M491.1,66.3v-1.2c-0.4,0.5-1,0.8-1.7,1.1c-0.7,0.3-1.5,0.4-2.3,0.4c-0.8,0-1.7-0.1-2.5-0.4
			c-0.8-0.3-1.5-0.7-2.1-1.2c-0.6-0.5-1.1-1.2-1.5-2c-0.4-0.8-0.6-1.8-0.6-2.9c0-1,0.2-1.9,0.6-2.6c0.4-0.8,0.9-1.4,1.6-1.9
			c0.7-0.5,1.4-0.9,2.3-1.1c0.9-0.3,1.8-0.4,2.9-0.4c0.8,0,1.5,0.1,2.1,0.2c0.5,0.1,1,0.3,1.4,0.5v-0.9c0-0.6-0.2-1.2-0.6-1.6
			c-0.4-0.4-1.1-0.7-1.9-0.7c-0.6,0-1,0-1.5,0.1c-0.4,0-0.8,0.1-1.2,0.2c-0.4,0.1-0.8,0.2-1.1,0.4c-0.4,0.1-0.8,0.3-1.2,0.6
			l-1.8-3.3c0.5-0.3,1-0.6,1.5-0.8c0.5-0.2,1-0.4,1.5-0.6c0.5-0.1,1.1-0.3,1.7-0.3c0.6-0.1,1.3-0.1,2-0.1c1.1,0,2.1,0.1,3,0.4
			c0.9,0.3,1.7,0.7,2.3,1.2s1.1,1.2,1.5,2c0.4,0.8,0.5,1.7,0.5,2.7v12.1H491.1z M491.1,58.8c-0.4-0.3-0.9-0.4-1.3-0.6
			c-0.5-0.1-1.1-0.2-2-0.2c-0.9,0-1.6,0.2-2,0.6c-0.5,0.4-0.7,1-0.7,1.7c0,0.6,0.2,1.2,0.6,1.7c0.4,0.5,1.1,0.7,2.1,0.7
			c0.8,0,1.5-0.2,2-0.5c0.6-0.3,1-0.7,1.3-1.2V58.8z"/>
		<path id="XMLID_6_" class="st0" d="M499.9,66.3V43.6l4.7-2.4v25.1H499.9z"/>
		<path id="XMLID_4_" class="st0" d="M517,55.8c0,1.6-0.1,3.1-0.4,4.4c-0.3,1.3-0.7,2.6-1.2,3.7c-0.5,1.1-1.2,2.2-1.9,3.2
			s-1.5,2-2.4,3L508,68c0.6-0.8,1.2-1.6,1.7-2.5c0.5-0.9,0.9-1.8,1.3-2.8c0.4-1,0.6-2,0.8-3.1c0.2-1.1,0.3-2.3,0.3-3.6
			c0-1.4-0.1-2.6-0.3-3.7c-0.2-1.1-0.5-2.2-0.8-3.2c-0.4-1-0.8-1.9-1.3-2.8c-0.5-0.9-1.1-1.7-1.7-2.5l3.1-2.1
			c0.8,0.9,1.6,1.9,2.3,2.9c0.7,1,1.4,2,1.9,3.2c0.5,1.1,1,2.4,1.3,3.7C516.9,52.7,517,54.2,517,55.8z"/>
	</g>
</g>
</svg>
