<!-- Generator: Adobe Illustrator 22.1.0, SVG Export Plug-In  -->
<svg version="1.1"
	 xmlns="http://www.w3.org/2000/svg" xmlns:xlink="http://www.w3.org/1999/xlink" xmlns:a="http://ns.adobe.com/AdobeSVGViewerExtensions/3.0/"
	 x="0px" y="0px" width="558.4px" height="25.4px" viewBox="0 0 558.4 25.4" style="enable-background:new 0 0 558.4 25.4;"
	 xml:space="preserve">
<style type="text/css">
	.st0{fill:#266093;}
</style>
<defs>
</defs>
<g id="XMLID_2_">
	<g id="XMLID_4_">
		<path id="XMLID_83_" class="st0" d="M18.8,8.6c0,1.4-0.2,2.6-0.7,3.6s-1,1.8-1.8,2.5s-1.7,1.1-2.8,1.4c-1.1,0.3-2.2,0.4-3.5,0.4
			H4.8v8.5H0V1h10.5c1.1,0,2.2,0.2,3.2,0.5s1.9,0.8,2.6,1.4c0.8,0.6,1.4,1.4,1.8,2.4S18.8,7.3,18.8,8.6z M13.9,8.7
			c0-1.1-0.3-1.8-0.9-2.3c-0.6-0.5-1.5-0.7-2.6-0.7H4.8v6.2h5.6C12.7,11.9,13.9,10.8,13.9,8.7z"/>
		<path id="XMLID_81_" class="st0" d="M32.6,12.5c-0.4-0.3-0.8-0.6-1.3-0.8c-0.5-0.2-1-0.3-1.5-0.3c-0.5,0-0.9,0.1-1.3,0.2
			c-0.4,0.1-0.7,0.3-1,0.6c-0.3,0.3-0.5,0.7-0.6,1.2c-0.1,0.5-0.2,1.1-0.2,1.9v9.8H22V7h4.7v1.2c0.4-0.4,0.9-0.8,1.5-1.1
			s1.3-0.5,2.2-0.5c0.8,0,1.4,0.1,2,0.4c0.6,0.3,1,0.6,1.3,0.9L32.6,12.5z"/>
		<path id="XMLID_78_" class="st0" d="M51.5,16.1c0,1.4-0.2,2.6-0.6,3.8s-1,2.1-1.7,3s-1.6,1.5-2.6,1.9c-1,0.5-2.1,0.7-3.3,0.7
			s-2.3-0.2-3.2-0.7s-1.9-1.1-2.6-1.9s-1.3-1.8-1.7-3s-0.6-2.4-0.6-3.8c0-1.4,0.2-2.6,0.6-3.8s1-2.2,1.7-3c0.7-0.8,1.6-1.5,2.6-1.9
			c1-0.5,2.1-0.7,3.2-0.7s2.3,0.2,3.3,0.7c1,0.5,1.9,1.1,2.6,1.9c0.7,0.8,1.3,1.8,1.7,3S51.5,14.7,51.5,16.1z M46.7,16.1
			c0-1.4-0.3-2.5-0.8-3.5c-0.6-0.9-1.4-1.4-2.5-1.4c-1.1,0-2,0.5-2.5,1.4S40,14.6,40,16.1c0,1.4,0.3,2.6,0.8,3.5s1.4,1.4,2.5,1.4
			c0.6,0,1.1-0.1,1.5-0.4c0.4-0.3,0.8-0.6,1-1.1c0.3-0.5,0.5-1,0.6-1.6C46.7,17.3,46.7,16.7,46.7,16.1z"/>
		<path id="XMLID_76_" class="st0" d="M64.6,25.1h-4.9L53.2,7h5.2l2.6,8.4c0.2,0.7,0.4,1.4,0.7,2.2c0.2,0.8,0.4,1.4,0.5,1.8
			c0.1-0.5,0.3-1.1,0.5-1.8c0.2-0.7,0.4-1.5,0.7-2.2L66,7h5.1L64.6,25.1z"/>
		<path id="XMLID_73_" class="st0" d="M78.9,2.8c0,0.7-0.3,1.4-0.8,1.9c-0.5,0.5-1.2,0.8-1.9,0.8c-0.7,0-1.4-0.3-1.9-0.8
			c-0.5-0.5-0.8-1.2-0.8-1.9s0.3-1.4,0.8-1.9c0.5-0.5,1.2-0.8,1.9-0.8c0.7,0,1.4,0.3,1.9,0.8C78.6,1.4,78.9,2.1,78.9,2.8z
			 M73.8,25.1V7h4.7v18.1H73.8z"/>
		<path id="XMLID_70_" class="st0" d="M92.7,25.1v-1.1c-0.5,0.4-1,0.7-1.6,1c-0.6,0.3-1.3,0.5-2.2,0.5c-1,0-1.9-0.2-2.7-0.5
			c-0.8-0.4-1.6-0.9-2.2-1.7c-0.6-0.8-1.1-1.8-1.5-3c-0.4-1.2-0.5-2.7-0.5-4.3c0-1.4,0.2-2.6,0.5-3.7c0.3-1.1,0.8-2.1,1.4-2.9
			c0.6-0.8,1.3-1.4,2.2-1.9c0.9-0.4,1.9-0.7,3-0.7c0.8,0,1.5,0.1,2.2,0.4c0.7,0.3,1.2,0.6,1.6,1V2.4L97.4,0v25.1H92.7z M92.7,12.7
			c-0.8-1-1.8-1.5-3.2-1.5c-1.9,0-2.8,1.5-2.8,4.6c0,1.9,0.3,3.2,0.8,4c0.6,0.8,1.3,1.2,2.3,1.2c0.7,0,1.3-0.1,1.8-0.4
			c0.4-0.3,0.8-0.6,1.2-1.1V12.7z"/>
		<path id="XMLID_67_" class="st0" d="M116.2,16.1c0,0.3,0,0.6,0,0.9c0,0.2,0,0.5-0.1,0.6h-10.8c0,0.6,0.2,1.1,0.4,1.6
			s0.5,0.8,0.9,1s0.7,0.5,1.2,0.6c0.4,0.1,0.9,0.2,1.3,0.2c0.7,0,1.3-0.1,1.8-0.3c0.5-0.2,1-0.5,1.3-0.9l3.4,2.8
			c-0.7,0.9-1.7,1.7-2.9,2.2s-2.4,0.8-3.6,0.8c-1.3,0-2.5-0.2-3.5-0.7c-1-0.4-1.9-1.1-2.7-1.9c-0.7-0.8-1.3-1.8-1.7-3
			c-0.4-1.2-0.6-2.4-0.6-3.9c0-1.4,0.2-2.6,0.6-3.8s1-2.2,1.7-3c0.7-0.8,1.6-1.5,2.5-1.9c1-0.5,2-0.7,3.2-0.7c1.2,0,2.3,0.2,3.2,0.7
			c1,0.5,1.7,1.2,2.4,2c0.6,0.9,1.1,1.9,1.5,3C116,13.6,116.2,14.8,116.2,16.1z M111.6,14c0-0.4-0.1-0.8-0.3-1.2
			c-0.1-0.4-0.3-0.7-0.6-1s-0.6-0.6-1-0.7s-0.9-0.3-1.4-0.3c-0.9,0-1.6,0.3-2.1,0.9c-0.5,0.6-0.8,1.4-0.9,2.3H111.6z"/>
		<path id="XMLID_65_" class="st0" d="M133.7,19.8c0,1-0.2,1.9-0.6,2.6c-0.4,0.7-0.9,1.3-1.6,1.8c-0.7,0.4-1.4,0.8-2.3,1
			s-1.8,0.3-2.9,0.3c-1.4,0-2.8-0.2-4.1-0.6c-1.3-0.4-2.5-0.9-3.4-1.5l1.6-3.6c1,0.5,2,0.9,3,1.2c1,0.3,2.1,0.4,3.3,0.4
			c0.9,0,1.6-0.1,1.9-0.3c0.3-0.2,0.5-0.6,0.5-1c0-0.4-0.2-0.7-0.6-1c-0.4-0.3-1.1-0.5-2.1-0.8c-1.1-0.3-2.1-0.6-2.9-1
			c-0.9-0.3-1.6-0.7-2.3-1.2c-0.6-0.4-1.1-1-1.4-1.6c-0.3-0.6-0.5-1.4-0.5-2.4c0-0.9,0.2-1.7,0.5-2.4c0.4-0.7,0.9-1.2,1.5-1.7
			c0.6-0.4,1.4-0.8,2.3-1s1.9-0.3,2.9-0.3c1.1,0,2.3,0.2,3.5,0.5s2.2,0.7,3.2,1.3l-1.5,3.7c-0.9-0.5-1.8-0.8-2.7-1.1
			c-0.9-0.2-1.8-0.4-2.5-0.4c-1,0-1.6,0.1-1.9,0.3c-0.3,0.2-0.5,0.5-0.5,0.9c0,0.2,0,0.3,0.1,0.5c0.1,0.1,0.3,0.3,0.5,0.4
			c0.3,0.1,0.6,0.3,1.1,0.5c0.5,0.2,1.1,0.4,1.9,0.7c0.8,0.3,1.6,0.6,2.3,0.9c0.7,0.3,1.4,0.7,1.9,1.1c0.5,0.4,1,1,1.3,1.6
			C133.5,18.1,133.7,18.9,133.7,19.8z"/>
		<path id="XMLID_62_" class="st0" d="M163.5,25.1l-1.9-5.4h-8.8l-1.9,5.4h-5.2L155,1h4.7l9.1,24.1H163.5z M158.4,10.8
			c-0.3-0.7-0.5-1.4-0.7-2.1c-0.2-0.7-0.4-1.2-0.5-1.7c-0.1,0.5-0.3,1-0.5,1.7c-0.2,0.7-0.5,1.4-0.7,2.1l-1.5,4.4h5.5L158.4,10.8z"
			/>
		<path id="XMLID_59_" class="st0" d="M181.8,25.1v-1.1c-0.5,0.4-1,0.7-1.6,1c-0.6,0.3-1.3,0.5-2.2,0.5c-1,0-1.9-0.2-2.7-0.5
			c-0.8-0.4-1.6-0.9-2.2-1.7c-0.6-0.8-1.1-1.8-1.5-3c-0.4-1.2-0.5-2.7-0.5-4.3c0-1.4,0.2-2.6,0.5-3.7c0.3-1.1,0.8-2.1,1.4-2.9
			c0.6-0.8,1.3-1.4,2.2-1.9c0.9-0.4,1.9-0.7,3-0.7c0.8,0,1.5,0.1,2.2,0.4c0.7,0.3,1.2,0.6,1.6,1V2.4l4.7-2.4v25.1H181.8z
			 M181.8,12.7c-0.8-1-1.8-1.5-3.2-1.5c-1.9,0-2.8,1.5-2.8,4.6c0,1.9,0.3,3.2,0.8,4c0.6,0.8,1.3,1.2,2.3,1.2c0.7,0,1.3-0.1,1.8-0.4
			c0.4-0.3,0.8-0.6,1.2-1.1V12.7z"/>
		<path id="XMLID_56_" class="st0" d="M200.5,25.1v-1.1c-0.5,0.4-1,0.7-1.6,1c-0.6,0.3-1.3,0.5-2.2,0.5c-1,0-1.9-0.2-2.7-0.5
			c-0.8-0.4-1.6-0.9-2.2-1.7c-0.6-0.8-1.1-1.8-1.5-3c-0.4-1.2-0.5-2.7-0.5-4.3c0-1.4,0.2-2.6,0.5-3.7c0.3-1.1,0.8-2.1,1.4-2.9
			c0.6-0.8,1.3-1.4,2.2-1.9c0.9-0.4,1.9-0.7,3-0.7c0.8,0,1.5,0.1,2.2,0.4c0.7,0.3,1.2,0.6,1.6,1V2.4l4.7-2.4v25.1H200.5z
			 M200.5,12.7c-0.8-1-1.8-1.5-3.2-1.5c-1.9,0-2.8,1.5-2.8,4.6c0,1.9,0.3,3.2,0.8,4c0.6,0.8,1.3,1.2,2.3,1.2c0.7,0,1.3-0.1,1.8-0.4
			c0.4-0.3,0.8-0.6,1.2-1.1V12.7z"/>
		<path id="XMLID_53_" class="st0" d="M214.6,2.8c0,0.7-0.3,1.4-0.8,1.9c-0.5,0.5-1.2,0.8-1.9,0.8c-0.7,0-1.4-0.3-1.9-0.8
			c-0.5-0.5-0.8-1.2-0.8-1.9s0.3-1.4,0.8-1.9c0.5-0.5,1.2-0.8,1.9-0.8c0.7,0,1.4,0.3,1.9,0.8C214.4,1.4,214.6,2.1,214.6,2.8z
			 M209.5,25.1V7h4.7v18.1H209.5z"/>
		<path id="XMLID_51_" class="st0" d="M228.5,24.3c-0.4,0.3-0.9,0.6-1.6,0.8c-0.7,0.2-1.4,0.3-2.1,0.3c-0.7,0-1.4-0.1-2-0.4
			c-0.6-0.3-1.1-0.6-1.5-1.1s-0.7-1.1-1-1.7s-0.3-1.4-0.3-2.2v-8.5h-3V7h3V2.4l4.7-2.4v7h4.3v4.5h-4.3v7.3c0,0.9,0.1,1.4,0.4,1.7
			c0.3,0.3,0.7,0.4,1.3,0.4c0.4,0,0.8-0.1,1.2-0.3c0.4-0.2,0.9-0.6,1.5-1.1L228.5,24.3z"/>
		<path id="XMLID_48_" class="st0" d="M238.3,2.8c0,0.7-0.3,1.4-0.8,1.9c-0.5,0.5-1.2,0.8-1.9,0.8c-0.7,0-1.4-0.3-1.9-0.8
			c-0.5-0.5-0.8-1.2-0.8-1.9s0.3-1.4,0.8-1.9c0.5-0.5,1.2-0.8,1.9-0.8c0.7,0,1.4,0.3,1.9,0.8C238.1,1.4,238.3,2.1,238.3,2.8z
			 M233.3,25.1V7h4.7v18.1H233.3z"/>
		<path id="XMLID_45_" class="st0" d="M257.6,16.1c0,1.4-0.2,2.6-0.6,3.8s-1,2.1-1.7,3s-1.6,1.5-2.6,1.9c-1,0.5-2.1,0.7-3.3,0.7
			s-2.3-0.2-3.2-0.7s-1.9-1.1-2.6-1.9s-1.3-1.8-1.7-3s-0.6-2.4-0.6-3.8c0-1.4,0.2-2.6,0.6-3.8s1-2.2,1.7-3c0.7-0.8,1.6-1.5,2.6-1.9
			c1-0.5,2.1-0.7,3.2-0.7s2.3,0.2,3.3,0.7c1,0.5,1.9,1.1,2.6,1.9c0.7,0.8,1.3,1.8,1.7,3S257.6,14.7,257.6,16.1z M252.8,16.1
			c0-1.4-0.3-2.5-0.8-3.5c-0.6-0.9-1.4-1.4-2.5-1.4c-1.1,0-2,0.5-2.5,1.4s-0.8,2.1-0.8,3.5c0,1.4,0.3,2.6,0.8,3.5s1.4,1.4,2.5,1.4
			c0.6,0,1.1-0.1,1.5-0.4c0.4-0.3,0.8-0.6,1-1.1c0.3-0.5,0.5-1,0.6-1.6C252.7,17.3,252.8,16.7,252.8,16.1z"/>
		<path id="XMLID_43_" class="st0" d="M271.6,25.1v-9.8c0-1.6-0.3-2.7-0.8-3.3c-0.5-0.6-1.3-0.9-2.3-0.9c-1,0-1.7,0.3-2.3,0.9
			c-0.5,0.6-0.8,1.7-0.8,3.2v9.9h-4.7V7h4.7v1.2c0.4-0.4,1-0.8,1.7-1.1c0.7-0.3,1.6-0.5,2.5-0.5c2.3,0,4,0.7,5.1,2.2
			c1.1,1.5,1.6,3.5,1.6,6v10.2H271.6z"/>
		<path id="XMLID_40_" class="st0" d="M290.1,25.1v-1.2c-0.4,0.5-1,0.8-1.7,1.1c-0.7,0.3-1.5,0.4-2.3,0.4c-0.8,0-1.7-0.1-2.5-0.4
			c-0.8-0.3-1.5-0.7-2.1-1.2s-1.1-1.2-1.5-2c-0.4-0.8-0.6-1.8-0.6-2.9c0-1,0.2-1.9,0.6-2.6c0.4-0.8,0.9-1.4,1.6-1.9
			c0.7-0.5,1.4-0.9,2.3-1.1c0.9-0.3,1.8-0.4,2.9-0.4c0.8,0,1.5,0.1,2.1,0.2c0.5,0.1,1,0.3,1.4,0.5v-0.9c0-0.6-0.2-1.2-0.6-1.6
			c-0.4-0.4-1.1-0.7-1.9-0.7c-0.5,0-1,0-1.5,0.1c-0.4,0-0.8,0.1-1.2,0.2c-0.4,0.1-0.8,0.2-1.1,0.4c-0.4,0.1-0.8,0.3-1.2,0.6
			l-1.8-3.3c0.5-0.3,1-0.6,1.5-0.8c0.5-0.2,1-0.4,1.5-0.6c0.5-0.1,1.1-0.3,1.7-0.3c0.6-0.1,1.3-0.1,2-0.1c1.1,0,2.1,0.1,3,0.4
			c0.9,0.3,1.7,0.7,2.3,1.2c0.6,0.5,1.1,1.2,1.5,2c0.4,0.8,0.5,1.7,0.5,2.7v12.1H290.1z M290.1,17.5c-0.4-0.3-0.9-0.4-1.3-0.6
			c-0.5-0.1-1.1-0.2-2-0.2c-0.9,0-1.6,0.2-2,0.6c-0.5,0.4-0.7,1-0.7,1.7c0,0.6,0.2,1.2,0.6,1.7c0.4,0.5,1.1,0.7,2.1,0.7
			c0.8,0,1.5-0.2,2-0.5c0.6-0.3,1-0.7,1.3-1.2V17.5z"/>
		<path id="XMLID_38_" class="st0" d="M298.9,25.1V2.4l4.7-2.4v25.1H298.9z"/>
		<path id="XMLID_36_" class="st0" d="M335.7,17.8c0,1.1-0.2,2.2-0.6,3.1s-0.9,1.7-1.7,2.4c-0.8,0.7-1.8,1.2-2.9,1.6
			c-1.2,0.4-2.6,0.5-4.2,0.5c-2,0-3.9-0.4-5.5-1.2s-2.9-1.8-3.9-3.2l3.5-3.1c0.8,1,1.8,1.7,2.8,2.1c1,0.4,2.1,0.6,3.3,0.6
			c1.4,0,2.5-0.2,3.2-0.6c0.7-0.4,1-1.1,1-2c0-0.4-0.1-0.7-0.2-1c-0.1-0.3-0.4-0.6-0.8-0.8c-0.4-0.3-0.9-0.5-1.6-0.7
			c-0.7-0.2-1.6-0.5-2.8-0.7c-1.1-0.3-2.1-0.5-3-0.9c-0.9-0.3-1.7-0.8-2.4-1.3c-0.7-0.5-1.2-1.2-1.5-2c-0.4-0.8-0.5-1.8-0.5-3
			c0-1.1,0.2-2.1,0.7-3c0.4-0.9,1.1-1.6,1.8-2.2c0.8-0.6,1.7-1.1,2.7-1.4c1-0.3,2.2-0.5,3.4-0.5c1.9,0,3.5,0.3,4.9,1
			c1.4,0.7,2.7,1.6,3.8,2.8l-3.5,3.4c-0.8-0.8-1.6-1.4-2.5-1.8c-0.9-0.4-1.9-0.6-3-0.6c-0.6,0-1.2,0.1-1.6,0.2
			c-0.4,0.1-0.8,0.3-1.1,0.5c-0.3,0.2-0.5,0.4-0.6,0.7c-0.1,0.3-0.2,0.5-0.2,0.8c0,0.4,0.1,0.7,0.2,1c0.1,0.3,0.4,0.5,0.8,0.7
			s0.9,0.4,1.5,0.6c0.6,0.2,1.4,0.4,2.4,0.6c1,0.2,1.9,0.5,2.9,0.8s1.8,0.7,2.6,1.3c0.8,0.6,1.4,1.3,1.9,2.1
			C335.4,15.4,335.7,16.5,335.7,17.8z"/>
		<path id="XMLID_33_" class="st0" d="M354.1,16.1c0,0.3,0,0.6,0,0.9c0,0.2,0,0.5-0.1,0.6h-10.8c0,0.6,0.2,1.1,0.4,1.6
			s0.5,0.8,0.9,1s0.7,0.5,1.2,0.6c0.4,0.1,0.9,0.2,1.3,0.2c0.7,0,1.3-0.1,1.8-0.3c0.5-0.2,1-0.5,1.3-0.9l3.4,2.8
			c-0.7,0.9-1.7,1.7-2.9,2.2s-2.4,0.8-3.6,0.8c-1.3,0-2.5-0.2-3.5-0.7c-1-0.4-1.9-1.1-2.7-1.9c-0.7-0.8-1.3-1.8-1.7-3
			c-0.4-1.2-0.6-2.4-0.6-3.9c0-1.4,0.2-2.6,0.6-3.8s1-2.2,1.7-3c0.7-0.8,1.6-1.5,2.5-1.9c1-0.5,2-0.7,3.2-0.7c1.2,0,2.3,0.2,3.2,0.7
			c1,0.5,1.7,1.2,2.4,2c0.6,0.9,1.1,1.9,1.5,3C353.9,13.6,354.1,14.8,354.1,16.1z M349.5,14c0-0.4-0.1-0.8-0.3-1.2
			c-0.1-0.4-0.3-0.7-0.6-1s-0.6-0.6-1-0.7s-0.9-0.3-1.4-0.3c-0.9,0-1.6,0.3-2.1,0.9c-0.5,0.6-0.8,1.4-0.9,2.3H349.5z"/>
		<path id="XMLID_30_" class="st0" d="M362.5,2.8c0,0.7-0.3,1.4-0.8,1.9c-0.5,0.5-1.2,0.8-1.9,0.8c-0.7,0-1.4-0.3-1.9-0.8
			c-0.5-0.5-0.8-1.2-0.8-1.9s0.3-1.4,0.8-1.9c0.5-0.5,1.2-0.8,1.9-0.8c0.7,0,1.4,0.3,1.9,0.8C362.3,1.4,362.5,2.1,362.5,2.8z
			 M357.5,25.1V7h4.7v18.1H357.5z"/>
		<path id="XMLID_28_" class="st0" d="M366.1,25.1v-3.4l6.6-7.8c0.4-0.4,0.8-0.9,1.2-1.4c0.4-0.5,0.8-0.9,1-1.2c-0.2,0-0.4,0-0.6,0
			s-0.5,0-0.8,0c-0.3,0-0.6,0-0.8,0c-0.3,0-0.5,0-0.8,0h-5.3V7h14.3v3.4l-6.4,7.8c-0.4,0.5-0.8,0.9-1.2,1.4c-0.4,0.5-0.8,0.9-1,1.2
			c0.2,0,0.4,0,0.6,0s0.5,0,0.8,0c0.3,0,0.5,0,0.8,0c0.3,0,0.5,0,0.8,0h5.6v4.3H366.1z"/>
		<path id="XMLID_26_" class="st0" d="M395.6,25.1v-1.2c-0.4,0.4-1,0.8-1.7,1.1s-1.6,0.5-2.5,0.5c-2.3,0-4-0.7-5.1-2.2
			s-1.6-3.5-1.6-6V7h4.7v9.8c0,0.8,0.1,1.5,0.2,2c0.1,0.5,0.3,1,0.6,1.3c0.3,0.3,0.6,0.5,1,0.7c0.4,0.1,0.8,0.2,1.3,0.2
			c1,0,1.7-0.3,2.3-0.9c0.5-0.6,0.8-1.7,0.8-3.2V7h4.7v18.1H395.6z"/>
		<path id="XMLID_24_" class="st0" d="M414.9,12.5c-0.4-0.3-0.8-0.6-1.3-0.8c-0.5-0.2-1-0.3-1.5-0.3c-0.5,0-0.9,0.1-1.3,0.2
			c-0.4,0.1-0.7,0.3-1,0.6c-0.3,0.3-0.5,0.7-0.6,1.2c-0.1,0.5-0.2,1.1-0.2,1.9v9.8h-4.7V7h4.7v1.2c0.4-0.4,0.9-0.8,1.5-1.1
			s1.3-0.5,2.2-0.5c0.8,0,1.4,0.1,2,0.4c0.6,0.3,1,0.6,1.3,0.9L414.9,12.5z"/>
		<path id="XMLID_21_" class="st0" d="M433.2,16.1c0,0.3,0,0.6,0,0.9c0,0.2,0,0.5-0.1,0.6h-10.8c0,0.6,0.2,1.1,0.4,1.6
			s0.5,0.8,0.9,1s0.7,0.5,1.2,0.6c0.4,0.1,0.9,0.2,1.3,0.2c0.7,0,1.3-0.1,1.8-0.3c0.5-0.2,1-0.5,1.3-0.9l3.4,2.8
			c-0.7,0.9-1.7,1.7-2.9,2.2s-2.4,0.8-3.6,0.8c-1.3,0-2.5-0.2-3.5-0.7c-1-0.4-1.9-1.1-2.7-1.9c-0.7-0.8-1.3-1.8-1.7-3
			c-0.4-1.2-0.6-2.4-0.6-3.9c0-1.4,0.2-2.6,0.6-3.8s1-2.2,1.7-3c0.7-0.8,1.6-1.5,2.5-1.9c1-0.5,2-0.7,3.2-0.7c1.2,0,2.3,0.2,3.2,0.7
			c1,0.5,1.7,1.2,2.4,2c0.6,0.9,1.1,1.9,1.5,3C433,13.6,433.2,14.8,433.2,16.1z M428.6,14c0-0.4-0.1-0.8-0.3-1.2
			c-0.1-0.4-0.3-0.7-0.6-1s-0.6-0.6-1-0.7s-0.9-0.3-1.4-0.3c-0.9,0-1.6,0.3-2.1,0.9c-0.5,0.6-0.8,1.4-0.9,2.3H428.6z"/>
		<path id="XMLID_19_" class="st0" d="M460.3,8c-0.4-0.8-1-1.5-1.7-1.9c-0.7-0.5-1.6-0.7-2.7-0.7c-0.9,0-1.7,0.2-2.4,0.6
			c-0.7,0.4-1.3,0.9-1.8,1.6c-0.5,0.7-0.8,1.5-1.1,2.4c-0.3,0.9-0.4,2-0.4,3.1c0,1.1,0.1,2.1,0.4,3c0.3,0.9,0.6,1.7,1.1,2.4
			c0.5,0.7,1.1,1.2,1.8,1.6c0.7,0.4,1.5,0.6,2.4,0.6c1.1,0,2-0.2,2.7-0.7c0.7-0.5,1.4-1.3,2-2.3l4.1,2.4c-0.8,1.7-2,3.1-3.4,4
			c-1.5,1-3.3,1.4-5.5,1.4c-1.6,0-3-0.3-4.3-0.9c-1.3-0.6-2.4-1.4-3.3-2.5c-0.9-1.1-1.6-2.4-2.1-3.9c-0.5-1.5-0.8-3.2-0.8-5.1
			c0-1.8,0.3-3.5,0.8-5c0.5-1.5,1.3-2.8,2.2-3.9c0.9-1.1,2.1-1.9,3.4-2.5c1.3-0.6,2.8-0.9,4.3-0.9c1.1,0,2.1,0.1,3.1,0.4
			c0.9,0.3,1.7,0.6,2.5,1.1c0.7,0.5,1.4,1,1.9,1.7s1,1.4,1.4,2.1L460.3,8z"/>
		<path id="XMLID_16_" class="st0" d="M483.6,16.1c0,1.4-0.2,2.6-0.6,3.8s-1,2.1-1.7,3s-1.6,1.5-2.6,1.9c-1,0.5-2.1,0.7-3.3,0.7
			s-2.3-0.2-3.2-0.7s-1.9-1.1-2.6-1.9s-1.3-1.8-1.7-3s-0.6-2.4-0.6-3.8c0-1.4,0.2-2.6,0.6-3.8s1-2.2,1.7-3c0.7-0.8,1.6-1.5,2.6-1.9
			c1-0.5,2.1-0.7,3.2-0.7s2.3,0.2,3.3,0.7c1,0.5,1.9,1.1,2.6,1.9c0.7,0.8,1.3,1.8,1.7,3S483.6,14.7,483.6,16.1z M478.8,16.1
			c0-1.4-0.3-2.5-0.8-3.5c-0.6-0.9-1.4-1.4-2.5-1.4c-1.1,0-2,0.5-2.5,1.4s-0.8,2.1-0.8,3.5c0,1.4,0.3,2.6,0.8,3.5s1.4,1.4,2.5,1.4
			c0.6,0,1.1-0.1,1.5-0.4c0.4-0.3,0.8-0.6,1-1.1c0.3-0.5,0.5-1,0.6-1.6C478.8,17.3,478.8,16.7,478.8,16.1z"/>
		<path id="XMLID_14_" class="st0" d="M497.6,25.1v-9.8c0-1.6-0.3-2.7-0.8-3.3c-0.5-0.6-1.3-0.9-2.3-0.9c-1,0-1.7,0.3-2.3,0.9
			c-0.5,0.6-0.8,1.7-0.8,3.2v9.9h-4.7V7h4.7v1.2c0.4-0.4,1-0.8,1.7-1.1c0.7-0.3,1.6-0.5,2.5-0.5c2.3,0,4,0.7,5.1,2.2
			c1.1,1.5,1.6,3.5,1.6,6v10.2H497.6z"/>
		<path id="XMLID_12_" class="st0" d="M516.3,24.3c-0.4,0.3-0.9,0.6-1.6,0.8c-0.7,0.2-1.4,0.3-2.1,0.3c-0.7,0-1.4-0.1-2-0.4
			c-0.6-0.3-1.1-0.6-1.5-1.1s-0.7-1.1-1-1.7s-0.3-1.4-0.3-2.2v-8.5h-3V7h3V2.4l4.7-2.4v7h4.3v4.5h-4.3v7.3c0,0.9,0.1,1.4,0.4,1.7
			c0.3,0.3,0.7,0.4,1.3,0.4c0.4,0,0.8-0.1,1.2-0.3c0.4-0.2,0.9-0.6,1.5-1.1L516.3,24.3z"/>
		<path id="XMLID_10_" class="st0" d="M531.4,12.5c-0.4-0.3-0.8-0.6-1.3-0.8c-0.5-0.2-1-0.3-1.5-0.3c-0.5,0-0.9,0.1-1.3,0.2
			c-0.4,0.1-0.7,0.3-1,0.6c-0.3,0.3-0.5,0.7-0.6,1.2c-0.1,0.5-0.2,1.1-0.2,1.9v9.8h-4.7V7h4.7v1.2c0.4-0.4,0.9-0.8,1.5-1.1
			s1.3-0.5,2.2-0.5c0.8,0,1.4,0.1,2,0.4c0.6,0.3,1,0.6,1.3,0.9L531.4,12.5z"/>
		<path id="XMLID_7_" class="st0" d="M550.4,16.1c0,1.4-0.2,2.6-0.6,3.8s-1,2.1-1.7,3s-1.6,1.5-2.6,1.9c-1,0.5-2.1,0.7-3.3,0.7
			s-2.3-0.2-3.2-0.7s-1.9-1.1-2.6-1.9s-1.3-1.8-1.7-3s-0.6-2.4-0.6-3.8c0-1.4,0.2-2.6,0.6-3.8s1-2.2,1.7-3c0.7-0.8,1.6-1.5,2.6-1.9
			c1-0.5,2.1-0.7,3.2-0.7s2.3,0.2,3.3,0.7c1,0.5,1.9,1.1,2.6,1.9c0.7,0.8,1.3,1.8,1.7,3S550.4,14.7,550.4,16.1z M545.6,16.1
			c0-1.4-0.3-2.5-0.8-3.5c-0.6-0.9-1.4-1.4-2.5-1.4c-1.1,0-2,0.5-2.5,1.4s-0.8,2.1-0.8,3.5c0,1.4,0.3,2.6,0.8,3.5s1.4,1.4,2.5,1.4
			c0.6,0,1.1-0.1,1.5-0.4c0.4-0.3,0.8-0.6,1-1.1c0.3-0.5,0.5-1,0.6-1.6C545.5,17.3,545.6,16.7,545.6,16.1z"/>
		<path id="XMLID_5_" class="st0" d="M553.6,25.1V2.4l4.7-2.4v25.1H553.6z"/>
	</g>
</g>
</svg>
